<svg xmlns="http://www.w3.org/2000/svg" width="260" height="61" fill="none"><g clip-path="url(#a)"><path fill="#0086FF" d="M51.383 51.206a5.615 5.615 0 100-11.23 5.615 5.615 0 000 11.23z"/><path fill="#0069B7" d="M42.33 60.258a5.615 5.615 0 100-11.23 5.615 5.615 0 000 11.23z"/><path fill="#57BFFF" d="M51.383 33.1a5.615 5.615 0 100-11.23 5.615 5.615 0 000 11.23z"/><path fill="#0086FF" d="M42.33 42.152a5.615 5.615 0 100-11.23 5.615 5.615 0 000 11.23z"/><path fill="#0069B7" d="M33.276 51.206a5.615 5.615 0 100-11.23 5.615 5.615 0 000 11.23z"/><path fill="#BBE2FF" d="M51.383 14.992a5.615 5.615 0 100-11.23 5.615 5.615 0 000 11.23z"/><path fill="#57BFFF" d="M42.33 24.046a5.615 5.615 0 100-11.23 5.615 5.615 0 000 11.23z"/><path fill="#0086FF" d="M33.276 33.1a5.615 5.615 0 100-11.23 5.615 5.615 0 000 11.23z"/><path fill="#0069B7" d="M24.223 42.152a5.615 5.615 0 100-11.23 5.615 5.615 0 000 11.23z"/><path fill="#57BFFF" d="M33.276 14.992a5.615 5.615 0 100-11.23 5.615 5.615 0 000 11.23z"/><path fill="#0086FF" d="M24.223 24.046a5.615 5.615 0 100-11.23 5.615 5.615 0 000 11.23z"/><path fill="#0069B7" d="M15.17 33.1a5.615 5.615 0 100-11.23 5.615 5.615 0 000 11.23z"/><path fill="#0086FF" d="M15.17 14.992a5.615 5.615 0 100-11.23 5.615 5.615 0 000 11.23z"/><path fill="#0069B7" d="M6.115 24.046a5.615 5.615 0 100-11.23 5.615 5.615 0 000 11.23z"/><path fill="#0086FF" d="M77.176 15.886c-.378-.924-.755-1.841-1.126-2.755a711.22 711.22 0 00-1.127-2.738 24.104 24.104 0 01-.775-2.22 23.925 23.925 0 01-.408-1.554c.022.625.039 1.21.05 1.76.012.551.012 1.077 0 1.58v.75c0 .257-.003.51-.008.76-.005.251-.008.5-.008.752v.76c0 .3-.009.59-.025.868-.017.278-.037.49-.06.634.19-.021.421-.035.694-.042.273-.005.465-.008.576-.008v1.285h-3.806v-1.1c.256-.013.47-.046.642-.101.173-.055.307-.184.4-.383.094-.201.143-.523.143-.97l.1-6.392c.012-.302.022-.59.034-.869.011-.278.021-.49.033-.634-.177.011-.4.02-.668.025a8.497 8.497 0 00-.584.025V4.034h3.689l2.52 6.46c.1.256.211.553.335.893.122.34.24.668.35.984.11.318.194.571.25.76h.017c.144-.39.278-.768.4-1.135.123-.366.251-.723.384-1.067l1.293-3.456c.429-1.147.86-2.293 1.294-3.44h3.856v1.102a2.814 2.814 0 00-.651.1.671.671 0 00-.425.375c-.096.194-.136.52-.126.976l.251 6.393c.022.301.022.59 0 .868a9.35 9.35 0 01-.067.635c.19-.022.42-.035.693-.042.273-.005.465-.009.576-.009v1.286H81.25v-1.101a2.75 2.75 0 00.66-.1.676.676 0 00.416-.384c.094-.201.13-.522.109-.97l-.134-3.539c0-.134-.012-.364-.034-.693a51.754 51.754 0 01-.058-1.084c-.017-.395-.03-.765-.042-1.11a7.486 7.486 0 01-.1.226 1.457 1.457 0 00-.084.226l-3.255 8.698h-1.553zm15.808.1c-1.057 0-1.956-.177-2.696-.534-.74-.356-1.339-.831-1.794-1.427a5.968 5.968 0 01-1-1.978 7.716 7.716 0 01-.319-2.17c0-.725.12-1.412.359-2.13a6.32 6.32 0 011.084-1.978 5.432 5.432 0 011.828-1.452c.734-.368 1.596-.55 2.587-.55.99 0 1.886.183 2.62.55a5.108 5.108 0 011.803 1.46 6.457 6.457 0 011.043 1.979 6.94 6.94 0 01.341 2.12c0 .701-.12 1.391-.358 2.104-.24.713-.6 1.372-1.085 1.978a5.475 5.475 0 01-1.827 1.47c-.735.373-1.597.558-2.587.558h.001zm.184-1.218c.58 0 1.063-.142 1.453-.425.39-.285.701-.654.936-1.11.234-.457.4-.954.5-1.494.1-.539.15-1.066.15-1.578 0-.768-.066-1.47-.2-2.104-.134-.634-.34-1.181-.618-1.643a2.985 2.985 0 00-1.06-1.068c-.428-.251-.931-.37-1.51-.358-.568.012-1.046.164-1.436.458-.39.295-.701.673-.936 1.135-.234.462-.4.966-.5 1.511-.1.546-.15 1.075-.15 1.587s.058 1.08.175 1.668c.117.591.303 1.147.559 1.669.256.524.6.945 1.034 1.268.434.323.97.484 1.603.484zm15.708-6.996c-.144-.923-.453-1.62-.927-2.087-.473-.467-1.099-.706-1.878-.718-.579 0-1.084.134-1.519.4a3.34 3.34 0 00-1.076 1.068 5.004 5.004 0 00-.635 1.52 7.388 7.388 0 00-.209 1.752c0 .957.136 1.806.409 2.545.272.74.671 1.322 1.193 1.744.522.424 1.158.634 1.903.634.701 0 1.395-.18 2.087-.542a4.966 4.966 0 001.735-1.51l.802.734c-.546.746-1.118 1.31-1.719 1.693-.601.384-1.188.643-1.761.777a6.86 6.86 0 01-1.544.2c-.857 0-1.635-.152-2.337-.458a5.407 5.407 0 01-1.81-1.268 5.633 5.633 0 01-1.168-1.886 6.497 6.497 0 01-.409-2.328c0-.757.122-1.508.367-2.255a6.455 6.455 0 011.093-2.028 5.281 5.281 0 011.827-1.453c.735-.361 1.587-.542 2.554-.542.433 0 .91.07 1.427.21a5.876 5.876 0 011.461.609l-.067-.702h1.286v3.89h-1.085v.001zm2.87 7.946v-1.101c.256-.012.471-.045.643-.1.172-.056.306-.185.4-.384.094-.2.142-.522.142-.969V6.771c0-.3.009-.589.025-.868.017-.278.031-.49.042-.635-.177.012-.4.02-.668.026a8.546 8.546 0 00-.584.025V4.033h4.792v1.102a2.559 2.559 0 00-.634.1.673.673 0 00-.409.375c-.095.194-.142.52-.142.976v2.537h1.202l1.285-2.188c.189-.334.39-.667.601-1 .21-.333.39-.563.533-.685-.177.012-.366.022-.567.034-.201.011-.361.021-.484.033V4.032h4.091v1.1a3.644 3.644 0 00-.794.135c-.284.078-.575.234-.877.467-.301.232-.605.6-.918 1.1l-1.604 2.572c.223.143.42.297.593.458.172.16.325.336.458.525l1.719 2.42c.223.312.454.605.693.877.239.273.487.492.743.66.256.167.505.256.751.268v1.1h-2.57c-.089-.01-.234-.11-.434-.3-.2-.19-.411-.417-.634-.685a15.98 15.98 0 01-.567-.718l-1.654-2.403a13.92 13.92 0 00-.475-.651 2.43 2.43 0 00-.492-.5h-.601v2.52c0 .301-.005.59-.016.868-.012.278-.029.49-.051.635.178-.022.404-.036.676-.042.273-.005.466-.008.576-.008v1.285h-4.791l.001.003zm16.761.268c-1.058 0-1.956-.177-2.696-.534-.74-.356-1.339-.831-1.794-1.427a5.968 5.968 0 01-1.001-1.978 7.713 7.713 0 01-.318-2.17c0-.725.119-1.412.358-2.13a6.328 6.328 0 011.085-1.978 5.43 5.43 0 011.827-1.452c.735-.368 1.597-.55 2.588-.55.99 0 1.886.183 2.62.55a5.108 5.108 0 011.803 1.46 6.44 6.44 0 011.042 1.979c.228.713.342 1.419.342 2.12 0 .701-.121 1.391-.358 2.104a6.441 6.441 0 01-1.085 1.978 5.484 5.484 0 01-1.827 1.47c-.735.373-1.597.558-2.588.558h.002zm.184-1.218c.579 0 1.063-.142 1.453-.425.39-.285.701-.654.935-1.11.235-.457.4-.954.501-1.494.1-.539.15-1.066.15-1.578 0-.768-.067-1.47-.201-2.104-.133-.634-.339-1.181-.617-1.643a2.99 2.99 0 00-1.059-1.068c-.429-.251-.933-.37-1.512-.358-.567.012-1.046.164-1.436.458-.39.295-.701.673-.935 1.135a5.53 5.53 0 00-.5 1.511 8.71 8.71 0 00-.151 1.587c0 .512.058 1.08.176 1.668.117.591.303 1.147.559 1.669.256.524.6.945 1.034 1.268.433.323.969.484 1.603.484zm6.893.951v-1.102c.256-.011.471-.045.643-.1.172-.055.306-.184.4-.383.094-.201.142-.522.142-.97V6.773c0-.301.009-.59.025-.869.017-.278.031-.49.042-.634-.177.012-.4.02-.667.025a8.558 8.558 0 00-.585.025V4.034c.769-.012 1.538-.017 2.312-.017.773 0 1.544-.005 2.311-.017 1.335-.011 2.395.236 3.18.743.784.508 1.149 1.272 1.092 2.295a2.153 2.153 0 01-.299.944 2.634 2.634 0 01-.793.827c-.35.244-.789.44-1.311.584v.016c1.113.178 1.931.55 2.454 1.11.522.562.784 1.188.784 1.878s-.175 1.332-.525 1.827c-.35.495-.832.869-1.444 1.118-.613.251-1.307.375-2.087.375h-5.675l.001.002zm3.54-1.185h.567c.178 0 .357-.004.534-.009.178-.005.35-.008.517-.008.678-.034 1.173-.251 1.486-.651.312-.4.467-.907.467-1.52 0-.512-.105-.915-.316-1.21a1.72 1.72 0 00-.81-.625 2.92 2.92 0 00-1.026-.185h-.718c-.201 0-.411.005-.634.017v2.721c0 .302-.005.584-.017.852a6.273 6.273 0 01-.05.618zm.067-5.376l.869-.016c.466-.012.836-.118 1.109-.318.273-.201.467-.47.584-.81.117-.34.176-.71.176-1.11 0-.445-.089-.793-.268-1.043a1.513 1.513 0 00-.668-.542 1.98 1.98 0 00-.835-.15c-.177 0-.339.028-.483.083-.146.055-.261.181-.35.375-.089.194-.134.509-.134.944v2.587zm16.041-1.386c-.146-.923-.454-1.62-.927-2.087-.474-.467-1.1-.706-1.878-.718-.579 0-1.085.134-1.52.4a3.35 3.35 0 00-1.076 1.068 5.027 5.027 0 00-.634 1.52 7.337 7.337 0 00-.209 1.752c0 .957.135 1.806.408 2.545.273.74.671 1.322 1.193 1.744.522.424 1.158.634 1.903.634.701 0 1.396-.18 2.087-.542a4.96 4.96 0 001.736-1.51l.801.734c-.545.746-1.118 1.31-1.719 1.693-.6.384-1.188.643-1.76.777-.572.134-1.088.2-1.545.2-.857 0-1.637-.152-2.336-.458a5.431 5.431 0 01-1.811-1.268 5.649 5.649 0 01-1.168-1.886 6.497 6.497 0 01-.408-2.328c0-.757.122-1.508.366-2.255a6.455 6.455 0 011.093-2.028 5.294 5.294 0 011.828-1.453c.734-.361 1.586-.542 2.553-.542a5.5 5.5 0 011.428.21 5.908 5.908 0 011.461.609l-.067-.702h1.285v3.89h-1.084v.001zm2.87 7.946v-1.101c.256-.012.47-.045.643-.1.172-.056.306-.185.4-.384.093-.2.142-.522.142-.969V6.771c0-.3.008-.589.025-.868.017-.278.03-.49.042-.635-.178.012-.4.02-.668.026a8.48 8.48 0 00-.584.025V4.033h4.791v1.102a2.567 2.567 0 00-.634.1.672.672 0 00-.408.375c-.096.194-.142.52-.142.976v2.537h1.201l1.285-2.188c.19-.334.39-.667.601-1 .211-.333.39-.563.534-.685-.177.012-.366.022-.567.034a14.21 14.21 0 00-.484.033V4.032h4.09v1.1a3.636 3.636 0 00-.793.135c-.285.078-.576.234-.877.467-.301.234-.607.6-.919 1.1l-1.603 2.572c.223.143.42.297.592.458.173.16.327.336.459.525l1.719 2.42c.222.312.453.605.693.877.239.273.487.492.743.66.256.167.505.256.751.268v1.1h-2.571c-.088-.01-.234-.11-.433-.3a7.603 7.603 0 01-.634-.685 16.07 16.07 0 01-.568-.718l-1.653-2.403a15.34 15.34 0 00-.475-.651 2.482 2.482 0 00-.492-.5h-.601v2.52c0 .301-.005.59-.017.868s-.028.49-.05.635c.177-.022.403-.036.676-.042.273-.005.465-.008.576-.008v1.285H158.1l.002.003zm16.677-10.583a2.559 2.559 0 00-.634.1.673.673 0 00-.409.375c-.095.194-.142.52-.142.976v6.393c0 .301-.005.59-.017.868s-.028.49-.05.635a7.24 7.24 0 01.676-.042c.273-.005.465-.009.576-.009v1.286h-4.792v-1.101c.256-.012.471-.046.643-.1.172-.056.306-.185.4-.384.094-.201.142-.522.142-.97v-6.39c0-.302.009-.59.025-.869.017-.278.031-.49.042-.634-.177.011-.4.02-.668.025a8.546 8.546 0 00-.584.025V4.034h4.792v1.1zm4.892-.6l.801.8-8.329 9.9-.852-.852 8.38-9.849zm2.319.6a2.567 2.567 0 00-.634.1.673.673 0 00-.409.375c-.095.194-.142.52-.142.976v6.393c0 .301-.005.59-.016.868-.012.278-.029.49-.051.635.178-.022.404-.035.676-.042.273-.005.466-.009.576-.009v1.286h-4.791v-1.101c.256-.012.47-.046.642-.1.173-.056.307-.185.4-.384.094-.201.143-.522.143-.97v-6.39c0-.302.008-.59.025-.869.016-.278.03-.49.042-.634-.178.011-.4.02-.668.025a8.48 8.48 0 00-.584.025V4.034h4.791v1.1zm6.46 0a2.567 2.567 0 00-.634.1.673.673 0 00-.409.375c-.095.194-.142.52-.142.976v6.393c0 .301-.005.59-.017.868a6.13 6.13 0 01-.05.635c.178-.022.404-.035.676-.042.273-.005.466-.009.576-.009v1.286h-4.791v-1.101c.256-.012.47-.046.642-.1.173-.056.307-.185.4-.384.094-.201.143-.522.143-.97v-6.39c0-.302.008-.59.025-.869.016-.278.03-.49.042-.634-.178.011-.4.02-.668.025a8.48 8.48 0 00-.584.025V4.034h4.791v1.1zm4.892-.601l.801.802-8.329 9.899-.852-.852 8.38-9.849zM187.448.26c.267-.012.47.045.609.167a1.12 1.12 0 01.376.766c0 .101-.013.206-.042.319a2.12 2.12 0 01-.125.35c.167.112.373.194.617.25a3.412 3.412 0 001.503 0c.245-.055.445-.138.601-.25a1.473 1.473 0 01-.167-.668c0-.09.028-.21.083-.358a.978.978 0 01.302-.409c.144-.122.344-.177.601-.167.322 0 .558.109.709.324.151.218.226.459.226.727 0 .378-.146.696-.433.952-.29.256-.668.449-1.135.576a5.763 5.763 0 01-1.536.192 5.864 5.864 0 01-1.545-.192c-.474-.127-.852-.32-1.135-.576a1.228 1.228 0 01-.425-.952c0-.268.072-.509.218-.727.144-.217.378-.324.701-.324h-.003zm8.213 4.875a2.567 2.567 0 00-.634.1.672.672 0 00-.408.375c-.096.194-.143.52-.143.976v6.393a22 22 0 01-.016.868c-.012.278-.029.49-.05.635.177-.022.403-.035.676-.042.272-.005.465-.009.575-.009v1.286h-4.791v-1.101c.256-.012.47-.046.643-.1.172-.056.306-.185.4-.384.093-.201.142-.522.142-.97v-6.39c0-.302.008-.59.025-.869.017-.278.03-.49.042-.634-.178.011-.4.02-.668.025a8.48 8.48 0 00-.584.025V4.034h4.791v1.1zm17.143 13.539a9.891 9.891 0 00-.076-1.536c-.062-.446-.181-.794-.358-1.043-.177-.251-.428-.375-.751-.375h-9.732v-1.1c.256-.012.47-.045.643-.1.172-.056.306-.185.4-.384.093-.2.142-.522.142-.969V6.772c0-.302.008-.59.025-.869.017-.278.03-.49.042-.634a32.773 32.773 0 01-1.252.05V4.034h4.791v1.1a2.567 2.567 0 00-.634.101.672.672 0 00-.408.375c-.096.194-.143.52-.143.976v7.879l3.189-.05a2.38 2.38 0 00.625-.1c.173-.056.303-.185.392-.384.089-.2.134-.522.134-.969v-6.19c0-.302.008-.59.025-.869.017-.278.03-.49.042-.634a32.406 32.406 0 01-1.252.05V4.034h4.791v1.1a2.575 2.575 0 00-.634.101.674.674 0 00-.408.375c-.096.194-.142.52-.142.976v6.393c0 .301-.005.59-.017.868s-.029.49-.05.635l1.836-.084v4.273h-1.219l-.001.003zm8.163-6.979c0-.467-.072-.806-.218-1.017a.904.904 0 00-.592-.392 3.516 3.516 0 00-.827-.059l-.433.017v2.738c0 .301-.005.584-.017.852a6.273 6.273 0 01-.05.617h2.237c.335 0 .656-.075.969-.225.312-.151.568-.4.769-.752.2-.35.301-.827.301-1.427h1.084l-.083 3.671h-8.815v-1.1c.256-.013.47-.046.643-.101.172-.055.306-.184.4-.383.093-.201.142-.523.142-.97V6.773c0-.302.008-.59.025-.869.017-.278.03-.49.042-.634-.178.011-.4.02-.668.025a8.48 8.48 0 00-.584.025V4.034h8.346l.1 3.238h-1.101c0-.613-.105-1.074-.318-1.386-.211-.311-.473-.52-.785-.626a2.575 2.575 0 00-.918-.142l-.601.017c-.235 0-.434.03-.601.092-.167.062-.295.194-.383.4-.089.206-.134.525-.134.96v2.504h1.953l-.067-1.452h1.285v4.056h-1.101zm4.74 4.023v-1.101a2.53 2.53 0 00.642-.1c.173-.056.306-.185.4-.384.094-.2.142-.522.142-.969V6.771c0-.3.009-.589.026-.868a36 36 0 01.041-.635c-.177.012-.4.02-.667.026a8.48 8.48 0 00-.584.025V4.033h4.791v1.102a2.567 2.567 0 00-.634.1.673.673 0 00-.409.375c-.095.194-.142.52-.142.976V9.19h4.591V6.77c0-.302.005-.59.016-.869.012-.278.029-.49.051-.634-.178.012-.4.02-.668.025a8.489 8.489 0 00-.584.025V4.032h4.791v1.1a2.568 2.568 0 00-.634.101.673.673 0 00-.409.375c-.095.194-.142.52-.142.976v6.393c0 .301-.005.59-.017.868a6.13 6.13 0 01-.05.635c.178-.022.404-.036.676-.042.273-.005.466-.008.576-.008v1.285h-4.791v-1.101c.256-.012.47-.046.642-.1.173-.056.307-.185.4-.384.094-.2.143-.522.143-.97v-2.704l-4.591.05v2.47c0 .302-.005.592-.017.87a6.13 6.13 0 01-.05.634c.177-.022.403-.036.676-.042.273-.005.465-.008.576-.008v1.285h-4.791v.003zm22.102-7.912c0-.6-.084-1.1-.251-1.495-.167-.395-.403-.69-.71-.885-.306-.194-.671-.286-1.092-.276h-.802v7.829c0 .301-.005.59-.017.868a6.17 6.17 0 01-.05.635c.189-.022.432-.035.726-.042.295-.005.497-.009.61-.009v1.286h-4.875v-1.101c.256-.012.47-.046.642-.1.173-.056.306-.185.4-.384.094-.201.142-.522.142-.97V5.169h-.768c-.634.012-1.134.228-1.503.651-.366.424-.55 1.085-.55 1.987h-1.101l.083-3.772h10.117l.1 3.772h-1.101zm2.219 6.811c.256-.012.471-.045.643-.1.172-.055.306-.184.4-.383.094-.201.142-.523.142-.97V6.773c0-.302.008-.59.025-.869.017-.278.03-.49.042-.634-.177.012-.4.02-.668.025a8.515 8.515 0 00-.584.025V4.034c.79-.012 1.58-.017 2.37-.017s1.58-.005 2.37-.017c.979-.011 1.834.117 2.562.383.728.268 1.29.68 1.685 1.236.395.557.581 1.28.559 2.17a3.295 3.295 0 01-.316 1.31 3.663 3.663 0 01-.885 1.169c-.39.35-.879.637-1.47.86-.591.223-1.28.345-2.07.366-.244.012-.459.017-.643.017s-.369-.005-.559-.017v1.47c0 .311-.005.606-.016.885-.012.278-.029.49-.051.634.123-.011.278-.02.467-.025l.559-.017c.184-.005.315-.008.392-.008v1.285h-4.957v-1.1h.003zm3.605-4.373l.367.034c.122.011.251.016.383.016.612 0 1.109-.102 1.494-.31a1.87 1.87 0 00.844-.901c.177-.395.268-.877.268-1.444 0-.568-.076-1.001-.226-1.336-.151-.333-.342-.58-.576-.743a1.961 1.961 0 00-.735-.318 3.67 3.67 0 00-.701-.075c-.234 0-.433.028-.601.083-.167.056-.294.178-.383.367-.089.189-.134.479-.134.868v3.759zM71.2 37.853v-1.101c.256-.012.47-.044.642-.1.173-.056.306-.185.4-.384.094-.2.142-.522.142-.969v-6.393c0-.301.009-.589.026-.868.016-.278.03-.49.041-.635-.177.012-.4.02-.667.025a8.499 8.499 0 00-.584.025v-1.285c.768-.012 1.538-.017 2.31-.017.774 0 1.545-.005 2.312-.016 1.335-.012 2.395.236 3.18.743.785.507 1.15 1.272 1.093 2.294a2.138 2.138 0 01-.302.944c-.177.306-.442.58-.793.827-.35.244-.788.44-1.31.584v.017c1.113.177 1.93.549 2.453 1.11.522.561.785 1.187.785 1.877s-.176 1.332-.525 1.827c-.35.496-.832.869-1.445 1.118-.612.251-1.307.375-2.087.375h-5.675l.004.002zm3.54-1.185h.567c.177 0 .356-.003.533-.008.178-.005.35-.009.517-.009.68-.033 1.174-.25 1.487-.65.31-.4.467-.908.467-1.52 0-.513-.106-.916-.318-1.21a1.717 1.717 0 00-.81-.626 2.92 2.92 0 00-1.026-.184h-.718c-.201 0-.412.005-.634.016V35.2c0 .3-.006.584-.017.851a6.23 6.23 0 01-.05.618h.001zm.066-5.375l.869-.017c.467-.012.837-.117 1.11-.317.272-.2.466-.47.583-.81.118-.34.176-.71.176-1.109 0-.445-.089-.793-.268-1.043a1.516 1.516 0 00-.667-.542 1.981 1.981 0 00-.836-.15c-.177 0-.34.028-.483.083-.144.055-.261.18-.35.375-.089.194-.134.509-.134.944v2.587-.002zm12.987 6.827c-1.058 0-1.957-.177-2.696-.533-.74-.357-1.339-.832-1.794-1.428a5.965 5.965 0 01-1.001-1.978 7.717 7.717 0 01-.318-2.17c0-.725.119-1.411.358-2.13a6.325 6.325 0 011.085-1.977 5.432 5.432 0 011.827-1.453c.735-.368 1.597-.55 2.587-.55.991 0 1.887.183 2.621.55a5.108 5.108 0 011.803 1.461 6.438 6.438 0 011.042 1.978 6.94 6.94 0 01.342 2.12c0 .702-.12 1.391-.359 2.104a6.407 6.407 0 01-1.084 1.978 5.475 5.475 0 01-1.828 1.47c-.734.373-1.596.559-2.587.559h.002zm.184-1.218c.579 0 1.063-.142 1.453-.425.39-.284.7-.654.935-1.11.234-.456.4-.953.5-1.494.1-.539.151-1.066.151-1.578 0-.768-.067-1.47-.2-2.104-.135-.634-.34-1.181-.618-1.643a2.986 2.986 0 00-1.06-1.068c-.428-.25-.932-.37-1.51-.358-.568.012-1.047.164-1.437.459-.39.294-.7.672-.935 1.134-.234.462-.4.966-.5 1.512-.101.545-.151 1.074-.151 1.586s.058 1.08.175 1.669c.118.59.303 1.146.56 1.668.255.524.6.946 1.034 1.269.433.323.969.483 1.603.483zm15.708-6.995c-.144-.924-.454-1.62-.927-2.087-.474-.467-1.1-.707-1.878-.718-.579 0-1.084.134-1.52.4a3.347 3.347 0 00-1.076 1.067 5.013 5.013 0 00-.634 1.52 7.342 7.342 0 00-.21 1.752c0 .957.136 1.806.41 2.546.272.74.67 1.322 1.193 1.743.522.424 1.158.635 1.902.635.702 0 1.396-.181 2.087-.543a4.958 4.958 0 001.736-1.51l.801.734c-.545.746-1.118 1.31-1.718 1.694-.601.383-1.189.642-1.761.776a6.864 6.864 0 01-1.545.201c-.856 0-1.635-.154-2.336-.459a5.388 5.388 0 01-1.81-1.268 5.645 5.645 0 01-1.169-1.886 6.502 6.502 0 01-.408-2.328c0-.757.122-1.508.366-2.254a6.501 6.501 0 011.093-2.029 5.293 5.293 0 011.828-1.452c.734-.362 1.586-.543 2.553-.543a5.5 5.5 0 011.428.21 5.906 5.906 0 011.461.609l-.067-.701h1.285v3.889h-1.084v.002zm2.87 7.946V36.75a2.45 2.45 0 00.643-.1c.172-.055.306-.184.4-.383.093-.201.142-.522.142-.97v-6.392c0-.301.008-.59.025-.869.017-.277.03-.488.042-.634-.178.012-.4.02-.668.025a8.466 8.466 0 00-.584.025v-1.285h11.551v1.101a2.555 2.555 0 00-.634.1.673.673 0 00-.409.375c-.095.195-.142.52-.142.976v6.393c0 .301-.005.59-.017.869-.011.278-.028.49-.05.634.177-.022.403-.037.676-.042.273-.005.465-.008.576-.008v1.285h-4.792v-1.1c.257-.012.471-.044.643-.1.172-.056.306-.185.4-.384.094-.2.142-.522.142-.969v-7.879l-3.188.05a2.469 2.469 0 00-.626.1c-.172.056-.303.185-.391.384-.089.2-.134.524-.134.969v6.192c0 .301-.005.59-.017.869-.012.278-.028.49-.05.634.177-.022.403-.037.676-.042.273-.005.465-.008.576-.008v1.285h-4.792l.002.002zm18.012-10.583a2.576 2.576 0 00-.634.1.674.674 0 00-.408.375c-.096.194-.142.52-.142.975v6.393c0 .301-.005.591-.017.869s-.029.49-.05.634c.177-.022.403-.037.676-.042.273-.005.465-.008.575-.008v1.285h-4.791V36.75a2.45 2.45 0 00.643-.1c.172-.056.306-.184.4-.384.093-.2.142-.522.142-.969v-6.393c0-.3.008-.589.025-.868.017-.278.03-.489.042-.634-.177.011-.4.02-.668.025a8.482 8.482 0 00-.584.025v-1.286h4.791v1.103zm4.892-.601l.802.801-8.329 9.9-.852-.853 8.379-9.848zm2.32.6a2.56 2.56 0 00-.634.1.673.673 0 00-.409.376c-.095.194-.142.52-.142.975v6.393c0 .301-.005.591-.017.869s-.028.49-.05.634c.177-.022.403-.037.676-.042.273-.005.465-.008.576-.008v1.285h-4.792V36.75c.256-.012.471-.044.643-.1.172-.056.306-.184.4-.384.094-.2.142-.522.142-.969v-6.393c0-.3.009-.589.025-.868a46.8 46.8 0 01.042-.634c-.177.011-.4.02-.668.025a8.547 8.547 0 00-.584.025v-1.286h4.792v1.103zm10.299 2.671c0-.6-.084-1.1-.251-1.494-.168-.395-.404-.69-.71-.885-.306-.195-.671-.287-1.093-.277h-.801v7.83c0 .3-.005.59-.017.868s-.028.49-.05.634a7.57 7.57 0 01.726-.042c.295-.005.497-.008.609-.008v1.285h-4.875V36.75a2.45 2.45 0 00.643-.1c.172-.056.306-.184.4-.384.094-.2.142-.522.142-.969v-7.996h-.768c-.634.012-1.135.228-1.503.651-.366.424-.551 1.085-.551 1.987h-1.101l.084-3.773h10.117l.1 3.773h-1.101v.001zm.567 7.913v-1.151c.311 0 .562-.09.752-.268a2.11 2.11 0 00.475-.701c.127-.29.253-.601.375-.934l3.255-8.93h1.168l3.556 9.097c.067.167.156.42.268.76.11.34.177.638.201.894a6.3 6.3 0 01.542-.042c.172-.005.315-.009.425-.009v1.286h-4.49v-1.102c.311 0 .525-.063.643-.192.117-.127.169-.303.159-.526a2.355 2.355 0 00-.185-.751l-.334-.919-3.622.067-.268.785c-.055.146-.137.358-.242.643-.106.284-.203.52-.293.71.177-.022.392-.036.643-.042.251-.005.431-.009.542-.009v1.336h-3.572l.002-.002zm3.605-4.674h2.788l-.768-2.087a15.598 15.598 0 01-.634-2.286h-.017l-.201.852c-.089.378-.228.828-.417 1.352l-.751 2.17v-.001zm16.059-3.239c0-.6-.083-1.1-.251-1.494-.167-.395-.403-.69-.709-.885-.307-.195-.671-.287-1.093-.277h-.802v7.83c0 .3-.005.59-.017.868-.011.278-.028.49-.05.634.189-.022.432-.037.727-.042.294-.005.497-.008.609-.008v1.285h-4.875V36.75c.256-.012.47-.044.642-.1.173-.056.307-.184.4-.384.094-.2.143-.522.143-.969v-7.996h-.769c-.634.012-1.134.228-1.502.651-.367.424-.551 1.085-.551 1.987h-1.101l.083-3.773h10.117l.1 3.773h-1.101v.001zm7.896 3.89c0-.466-.072-.806-.218-1.017a.904.904 0 00-.592-.391 3.512 3.512 0 00-.827-.059l-.433.017v2.738c0 .301-.005.584-.017.852a6.275 6.275 0 01-.05.617h2.237c.335 0 .656-.075.969-.226.312-.15.568-.4.769-.751.2-.35.301-.827.301-1.428h1.084l-.083 3.672h-8.815v-1.101a2.45 2.45 0 00.643-.1c.172-.056.306-.185.4-.384.093-.2.142-.522.142-.969v-6.393c0-.3.008-.589.025-.868.017-.278.03-.489.042-.635-.178.012-.4.02-.668.026a8.482 8.482 0 00-.584.025v-1.286h8.346l.1 3.239h-1.101c0-.613-.105-1.075-.318-1.386-.211-.311-.473-.52-.785-.626a2.574 2.574 0 00-.918-.142l-.601.017c-.235 0-.434.03-.601.092-.167.062-.295.194-.383.4-.089.205-.134.525-.134.96v2.504h1.953l-.067-1.453h1.285v4.057h-1.101zm6.242 4.29c-.6 0-1.082-.127-1.444-.383-.361-.256-.542-.623-.542-1.101 0-.39.109-.732.326-1.026.218-.295.564-.442 1.043-.442.39 0 .673.105.852.316.177.211.267.467.267.769a.78.78 0 01-.133.466c.055.034.138.05.251.05.155 0 .339-.138.55-.416.211-.278.42-.715.626-1.31.206-.596.387-1.364.542-2.305.156-.94.251-2.072.285-3.397l.05-1.937-.417.017-1.503.034v-1.286h9.215v1.102a2.568 2.568 0 00-.634.1.674.674 0 00-.409.375c-.095.194-.142.52-.142.976v6.392c0 .302-.007.591-.017.87a6.13 6.13 0 01-.05.633c.189-.021.417-.036.685-.041.267-.005.457-.009.567-.009v1.285h-4.791v-1.1a2.44 2.44 0 00.642-.101c.173-.055.307-.184.4-.383.094-.201.142-.523.142-.97V27.42l-1.335.05c-.378.012-.656.087-.835.226-.178.139-.273.391-.285.76-.033 1.435-.125 2.692-.276 3.772-.15 1.08-.348 1.994-.592 2.746-.245.751-.529 1.357-.852 1.82-.323.461-.671.797-1.043 1.01-.373.21-.754.316-1.143.316zm16.426-10.85a2.568 2.568 0 00-.634.1.672.672 0 00-.408.374c-.096.195-.143.52-.143.976v2.336l.919-.033c1.001-.034 1.816.045 2.445.234.629.19 1.113.457 1.453.802.34.345.575.731.709 1.16.134.428.201.865.201 1.31 0 .723-.176 1.332-.525 1.827-.35.496-.832.869-1.445 1.118-.612.251-1.307.375-2.086.375h-5.276v-1.1a2.44 2.44 0 00.643-.101c.173-.056.306-.184.4-.384.094-.2.142-.522.142-.969v-6.393c0-.3.009-.589.025-.868a46.8 46.8 0 01.042-.634c-.177.011-.4.02-.667.025a8.618 8.618 0 00-.585.025v-1.285h4.792v1.1l-.002.004zm-1.185 7.928c0 .3-.005.584-.016.852a6.21 6.21 0 01-.051.618h.409c.139 0 .276-.004.408-.009.134-.005.268-.008.4-.008.678-.034 1.172-.253 1.478-.66.306-.406.458-.937.458-1.594 0-.556-.092-.991-.276-1.302a1.558 1.558 0 00-.76-.668 2.902 2.902 0 00-1.118-.2h-.466c-.156 0-.312.01-.467.033v2.938h.001zm6.977 2.655v-1.101c.256-.012.471-.044.643-.1.172-.056.306-.185.4-.384.094-.2.142-.522.142-.969v-6.393c0-.301.009-.589.025-.868.017-.278.031-.49.042-.635-.177.012-.4.02-.668.025a8.481 8.481 0 00-.584.025v-1.285h4.792v1.101a2.576 2.576 0 00-.635.1.674.674 0 00-.408.376c-.095.194-.142.52-.142.975v2.604h4.59v-2.42c0-.3.005-.589.017-.868.012-.278.029-.489.05-.634-.177.011-.4.02-.667.025a8.482 8.482 0 00-.584.025v-1.286h4.791v1.102a2.568 2.568 0 00-.634.1.673.673 0 00-.409.375c-.095.194-.142.52-.142.976v6.393c0 .3-.005.59-.017.868a6.17 6.17 0 01-.05.635c.178-.022.403-.037.676-.042.273-.005.465-.009.576-.009v1.285h-4.791v-1.1a2.44 2.44 0 00.642-.101c.173-.055.306-.184.4-.383.094-.201.142-.523.142-.97v-2.704l-4.59.05v2.47c0 .302-.005.591-.017.87-.012.277-.028.49-.05.633.177-.021.403-.036.676-.041.273-.005.465-.009.576-.009v1.285h-4.792v.004zm13.471 0V36.75c.256-.011.47-.043.642-.1.173-.055.307-.184.4-.383.094-.201.143-.522.143-.97v-6.392c0-.301.008-.59.025-.869.016-.277.03-.488.042-.634-.178.012-.4.02-.668.025a8.466 8.466 0 00-.584.025v-1.285h4.791v1.101a2.563 2.563 0 00-.634.1.673.673 0 00-.409.375c-.095.195-.142.52-.142.976v2.336l.919-.033c1.001-.034 1.816.045 2.445.234.629.19 1.113.457 1.453.802.339.345.575.731.709 1.16.134.428.201.865.201 1.31 0 .723-.176 1.332-.525 1.827-.35.496-.832.87-1.445 1.118-.612.252-1.307.375-2.087.375h-5.275l-.001.004zm3.539-1.185h.409c.139 0 .276-.004.408-.009.134-.005.268-.008.4-.008.457-.022.827-.127 1.11-.318.284-.189.492-.45.625-.785.134-.334.201-.718.201-1.151 0-.556-.092-.99-.276-1.302a1.558 1.558 0 00-.76-.668 2.904 2.904 0 00-1.118-.2h-.467a3.35 3.35 0 00-.466.033v1.836c0 .5-.004.915-.009 1.243-.005.328-.012.596-.017.802a4.42 4.42 0 01-.041.525l.001.002zm6.043 1.185V36.75c.257-.011.471-.043.643-.1.172-.055.306-.184.4-.383.094-.201.142-.522.142-.97v-6.392c0-.301.009-.59.025-.869.017-.277.031-.488.042-.634-.177.012-.4.02-.667.025a8.536 8.536 0 00-.585.025v-1.285h4.792v1.101a2.555 2.555 0 00-.634.1.673.673 0 00-.409.375c-.095.195-.142.52-.142.976v6.393c0 .301-.005.59-.017.869-.011.278-.028.49-.05.634.177-.022.403-.037.676-.042.273-.005.465-.008.576-.008v1.285h-4.792v.002zm6.209-.001v-1.1c.323-.078.646-.26.969-.543.323-.285.69-.698 1.101-1.243l1.937-2.588-1.336-1.702a167.61 167.61 0 00-1.352-1.702 5.123 5.123 0 01-.484-.776 6.817 6.817 0 01-.349-.794c-.178.012-.332.02-.459.026a6.583 6.583 0 00-.375.025v-1.286h5.074v1.102h-.167c-.345 0-.584.05-.718.15-.134.1-.181.236-.142.409.038.172.142.364.308.575a60.749 60.749 0 011.486 1.888l1.268-1.752c.235-.323.421-.56.559-.71.139-.15.282-.293.425-.425-.177.012-.399.02-.667.025a8.482 8.482 0 00-.584.025v-1.285h3.789v1.101a2.034 2.034 0 00-.76.268 3.642 3.642 0 00-.76.61c-.256.26-.534.598-.835 1.01l-1.603 2.187c.356.445.706.89 1.051 1.336.344.445.692.89 1.042 1.335.35.446.698.89 1.043 1.336.189.234.361.457.517.668.156.21.273.411.35.6.189-.021.323-.036.4-.041.077-.006.172-.009.284-.009v1.285h-4.99v-1.1c.411 0 .679-.05.801-.151.123-.1.153-.236.092-.409a2.131 2.131 0 00-.341-.575c-.278-.357-.559-.715-.843-1.077-.285-.361-.571-.72-.861-1.076-.244.335-.49.672-.734 1.011-.245.34-.491.676-.735 1.01-.234.31-.412.545-.534.7a4.842 4.842 0 01-.383.434 37.288 37.288 0 011.185-.05v1.285h-3.672l.003-.007zM71.2 59.987v-1.101c.256-.012.47-.044.642-.1.173-.056.307-.185.4-.384.094-.2.142-.522.142-.969V51.04c0-.301.009-.589.026-.868.016-.278.03-.49.041-.635-.177.012-.4.02-.667.025a8.495 8.495 0 00-.584.026v-1.286h11.55v1.101a2.57 2.57 0 00-.634.1.673.673 0 00-.408.376c-.096.194-.142.52-.142.975v6.393c0 .302-.005.591-.017.869s-.029.49-.05.634c.177-.022.403-.037.676-.042.273-.005.465-.008.576-.008v1.285h-4.792v-1.1c.256-.013.47-.044.643-.101.172-.056.306-.184.4-.384.094-.2.142-.522.142-.969v-7.879l-3.188.05a2.461 2.461 0 00-.626.101c-.172.055-.303.184-.392.383-.088.201-.133.524-.133.97v6.191c0 .302-.006.591-.017.869a6.41 6.41 0 01-.05.634c.177-.022.403-.037.676-.042.272-.005.465-.008.575-.008v1.285h-4.791l.002.002zm13.22-1.101c.257-.012.47-.044.643-.1.173-.056.307-.185.4-.384.094-.2.143-.522.143-.969V51.04c0-.301.008-.589.025-.868.016-.278.03-.49.041-.635-.177.012-.4.02-.667.026a8.43 8.43 0 00-.584.025v-1.286a160 160 0 012.37-.017c.79 0 1.58-.004 2.37-.016.978-.012 1.832.117 2.561.383.728.268 1.29.68 1.686 1.235.395.557.58 1.28.559 2.17a3.263 3.263 0 01-.318 1.311 3.647 3.647 0 01-.886 1.168c-.39.35-.878.638-1.47.86-.59.223-1.28.345-2.07.367-.244.012-.458.017-.642.017s-.37-.005-.559-.017v1.47c0 .31-.005.605-.017.885-.011.277-.028.49-.05.634a7.01 7.01 0 01.467-.025l.56-.017c.183-.005.314-.008.39-.008v1.285h-4.956v-1.101h.005zm3.605-4.373l.367.033c.122.012.251.017.383.017.613 0 1.11-.102 1.495-.31.383-.205.664-.505.843-.902.178-.395.268-.877.268-1.444s-.075-1.002-.226-1.335c-.15-.335-.341-.581-.576-.744a1.933 1.933 0 00-.734-.316 3.674 3.674 0 00-.702-.075c-.234 0-.433.028-.6.084-.168.055-.295.177-.384.366-.088.19-.134.479-.134.869v3.757zm6.295 5.474v-1.151c.311 0 .562-.089.751-.268.19-.177.348-.412.475-.701.128-.29.253-.601.375-.934l3.255-8.93h1.169l3.556 9.097c.067.168.155.42.268.76.11.34.177.638.2.894a6.4 6.4 0 01.543-.042c.172-.005.314-.008.425-.008v1.285h-4.49v-1.101c.311 0 .525-.064.642-.193.117-.127.169-.303.159-.525a2.377 2.377 0 00-.184-.752l-.333-.919-3.623.067-.268.785c-.055.146-.137.358-.243.643-.105.285-.202.52-.292.71a6.59 6.59 0 01.642-.042c.251-.005.432-.009.542-.009v1.336h-3.573l.004-.002zm3.605-4.674h2.788l-.768-2.087a15.14 15.14 0 01-.384-1.21 12.625 12.625 0 01-.25-1.076h-.018l-.2.852c-.089.378-.228.828-.417 1.352l-.751 2.17v-.001zm8.314 4.674v-1.101c.256-.012.47-.044.642-.1.173-.056.307-.184.4-.384.094-.2.143-.522.143-.969V51.04c0-.3.008-.589.025-.868.016-.278.03-.489.042-.634-.178.011-.4.02-.668.025a8.548 8.548 0 00-.584.025v-1.285h4.791v1.1a2.567 2.567 0 00-.634.101.673.673 0 00-.409.375c-.095.194-.142.52-.142.976v2.537h1.202l1.285-2.188c.189-.334.39-.667.601-1 .211-.335.39-.563.534-.685-.178.012-.367.022-.568.034-.2.011-.361.021-.483.033v-1.285h4.09v1.101a3.632 3.632 0 00-.793.134c-.285.078-.576.234-.877.467-.301.232-.606.6-.919 1.101l-1.603 2.57c.222.146.42.298.592.46.173.16.325.335.459.525l1.718 2.42c.223.31.454.604.693.877.24.272.487.491.743.659.256.167.506.256.752.268v1.1H114.7c-.089-.01-.234-.11-.433-.3a7.751 7.751 0 01-.635-.685 16.796 16.796 0 01-.567-.718l-1.653-2.403a13.77 13.77 0 00-.476-.651 2.433 2.433 0 00-.492-.5h-.6v2.52c0 .301-.005.59-.017.868s-.029.49-.05.635c.177-.022.403-.037.676-.042.273-.005.465-.008.575-.008v1.285h-4.791l.002.003zm20.514-7.911c0-.6-.084-1.1-.251-1.494-.167-.395-.403-.69-.71-.886-.306-.194-.671-.286-1.092-.276h-.802v7.829c0 .301-.005.59-.017.869-.011.277-.028.49-.05.634a7.57 7.57 0 01.726-.042c.295-.005.499-.008.61-.008v1.285h-4.875v-1.101c.256-.012.47-.044.642-.1.173-.056.306-.185.4-.384.094-.2.142-.522.142-.969v-7.996h-.768c-.634.012-1.134.227-1.503.65-.366.424-.55 1.085-.55 1.987h-1.101l.083-3.772h10.117l.1 3.772h-1.101v.002zm7.012-2.671a2.568 2.568 0 00-.634.1.672.672 0 00-.408.375c-.096.194-.143.52-.143.976v6.393c0 .301-.006.59-.016.869-.012.277-.029.49-.051.634.178-.022.404-.037.677-.042.272-.005.465-.008.575-.008v1.285h-4.791v-1.101c.256-.012.47-.044.643-.1.172-.056.306-.185.4-.384.093-.2.142-.522.142-.969V51.04c0-.301.008-.589.025-.868.017-.278.03-.49.042-.635-.178.012-.4.02-.668.025a8.482 8.482 0 00-.584.026v-1.286h4.791v1.103zm4.89-.6l.802.8-8.329 9.9-.852-.852 8.379-9.849zm2.322.6a2.576 2.576 0 00-.635.1.675.675 0 00-.408.375c-.095.194-.142.52-.142.976v6.393c0 .301-.007.59-.017.869a6.76 6.76 0 01-.05.634c.177-.022.403-.037.676-.042.273-.005.465-.008.576-.008v1.285h-4.792v-1.101c.256-.012.47-.044.643-.1.172-.056.306-.185.4-.384.094-.2.142-.522.142-.969V51.04c0-.301.008-.589.025-.868.017-.278.03-.49.042-.635-.177.012-.4.02-.668.025a8.482 8.482 0 00-.584.026v-1.286h4.792v1.103zm1.668 10.582v-1.101a2.45 2.45 0 00.643-.1c.172-.056.306-.184.4-.384.093-.2.142-.522.142-.969V51.04c0-.3.008-.589.025-.868.017-.278.03-.489.042-.634-.177.011-.4.02-.668.025a8.548 8.548 0 00-.584.025v-1.285h4.791v1.1a2.575 2.575 0 00-.634.101.674.674 0 00-.408.375c-.096.194-.142.52-.142.976v2.537h1.201l1.285-2.188c.19-.334.39-.667.601-1 .211-.335.39-.563.534-.685-.177.012-.366.022-.567.034-.201.011-.362.021-.484.033v-1.285h4.09v1.101a3.642 3.642 0 00-.793.134c-.284.078-.576.234-.877.467-.301.234-.607.6-.919 1.101l-1.603 2.57c.223.146.42.298.593.46.172.16.326.335.458.525l1.719 2.42c.222.31.453.604.693.877a3.7 3.7 0 00.743.659c.256.167.505.256.751.268v1.1h-2.57c-.089-.01-.235-.11-.434-.3a7.603 7.603 0 01-.634-.685 15.338 15.338 0 01-.567-.718l-1.654-2.403a16.22 16.22 0 00-.475-.651 2.485 2.485 0 00-.492-.5h-.601v2.52c0 .301-.005.59-.017.868s-.028.49-.05.635c.177-.022.403-.037.676-.042.273-.005.465-.008.576-.008v1.285h-4.792l.002.003z"/></g><defs><clipPath id="a"><path fill="#fff" d="M0 0h259.078v60H0z" transform="translate(.5 .26)"/></clipPath></defs></svg>