<svg width="50" height="50" viewBox="0 0 50 50" fill="none" xmlns="http://www.w3.org/2000/svg">
<path d="M20.3953 35.3541C19.2033 35.7876 18.2658 36.1902 18.0559 36.3585C17.8634 36.513 17.604 36.8295 17.4797 37.062C17.2622 37.4684 17.2523 37.5987 17.2216 40.4742L17.1897 43.4638H18.6049H20.0201V42.2251C20.0201 41.0603 20.034 40.9735 20.2529 40.768C20.381 40.6478 20.6024 40.5495 20.7449 40.5495C20.8873 40.5495 21.1108 40.636 21.2414 40.7416L21.4789 40.9336L21.507 45.4657L21.5351 49.9978L26.0845 49.9717L30.6338 49.9455L30.66 45.4551L30.6861 40.9645L30.9502 40.7571C31.0955 40.6429 31.3233 40.5495 31.4567 40.5495C31.5901 40.5495 31.8104 40.6606 31.9462 40.7962C32.1811 41.0308 32.1932 41.1021 32.1932 42.2534V43.4638H33.5513H34.9095L34.9072 40.5244C34.9052 37.898 34.8855 37.5422 34.7217 37.1831C34.6209 36.962 34.3617 36.6219 34.1455 36.4273C33.8309 36.1441 33.3371 35.9271 31.6685 35.3388C30.5223 34.9349 29.5436 34.6296 29.4935 34.6605C29.4433 34.6915 29.3732 34.8615 29.3378 35.0385C29.3024 35.2153 29.13 35.5834 28.9545 35.8565C28.7791 36.1296 28.4183 36.5245 28.1528 36.7342C27.8873 36.9438 27.4375 37.1925 27.1532 37.2868C26.7737 37.4127 26.419 37.4463 25.8182 37.4134C25.2273 37.3809 24.8751 37.3042 24.5504 37.1368C24.3031 37.0095 23.968 36.8095 23.8059 36.6925C23.6438 36.5754 23.3378 36.2142 23.1261 35.8897C22.9143 35.5653 22.7123 35.1471 22.6773 34.9602C22.6422 34.7734 22.5619 34.6228 22.4989 34.6255C22.4358 34.6284 21.4892 34.9563 20.3953 35.3541Z" fill="#0069B7"/>
<path d="M34.4911 26.5454L33.5194 27.0986L33.3627 27.7919C33.2765 28.1733 33.1082 28.6767 32.9886 28.9108C32.8691 29.1447 32.1894 30.2065 31.4782 31.2702C30.7669 32.3338 30.218 33.224 30.2585 33.2483C30.2989 33.2726 31.1922 33.5956 32.2435 33.966C33.2948 34.3364 34.3386 34.745 34.5632 34.8742C34.7876 35.0032 35.1652 35.3188 35.4021 35.5756C35.639 35.8323 35.9533 36.2991 36.1006 36.6128L36.3682 37.1831L36.3962 43.5894L36.4242 49.9958H40.4455H44.4668V47.5401V45.0843L43.9565 44.048C43.4617 43.0426 43.4473 42.989 43.4787 42.2564C43.5072 41.5908 43.5676 41.388 43.9874 40.548C44.2494 40.0238 44.6455 39.2557 44.8675 38.8412C45.0896 38.4266 45.3699 37.7935 45.4905 37.4343C45.6111 37.075 45.765 36.5324 45.8325 36.2284C45.9 35.9244 45.9599 35.7558 45.9656 35.8536C45.9751 36.0186 46.1214 36.0296 47.9628 36.0044L49.9497 35.9772L49.9765 33.2808C49.9929 31.6347 49.9624 30.4326 49.8983 30.1948C49.8405 29.9806 49.6474 29.6154 49.4691 29.3832C49.2058 29.0404 48.6628 28.6884 46.5795 27.5098C45.1685 26.7117 43.9575 26.0357 43.8883 26.0077C43.8192 25.9796 43.7626 26.0233 43.7626 26.1047C43.7626 26.1861 43.6022 26.5728 43.4063 26.964C43.1762 27.4235 42.8713 27.8359 42.5454 28.1286C42.2678 28.378 41.7982 28.6965 41.5019 28.8365C41.2055 28.9766 40.6536 29.144 40.2754 29.2087C39.6922 29.3084 39.47 29.3002 38.8154 29.1545C38.3006 29.0399 37.8481 28.8563 37.4572 28.6037C37.1349 28.3951 36.7183 28.0502 36.5314 27.837C36.3446 27.6238 36.0616 27.1749 35.9027 26.8394C35.7439 26.5039 35.6138 26.173 35.6138 26.1038C35.6137 26.0348 35.5798 25.9814 35.5382 25.9852C35.4967 25.9892 35.0256 26.2412 34.4911 26.5454Z" fill="#0069B7"/>
<path fill-rule="evenodd" clip-rule="evenodd" d="M8.1502 0.360399C8.56449 0.247245 9.28823 0.111681 9.75855 0.0592243C10.2289 0.00676754 11.1494 -0.0149387 11.8042 0.0108877C12.459 0.0367142 13.3191 0.120625 13.7157 0.1972C14.1122 0.273875 15.0252 0.527919 15.7445 0.761763C16.6655 1.06113 17.2172 1.18544 17.6097 1.18192C17.9163 1.17921 18.327 1.11027 18.5224 1.02867C18.7179 0.947071 19.0498 0.729606 19.26 0.545203L19.6421 0.210063L19.8465 0.457273C19.9589 0.593238 20.2205 1.06625 20.428 1.50842C20.6354 1.95058 20.8827 2.66558 20.9775 3.0973C21.11 3.70115 21.1387 4.18814 21.1021 5.20763C21.0671 6.18139 20.9981 6.70626 20.8418 7.18621C20.7247 7.54547 20.4586 8.12632 20.2502 8.47703C20.0418 8.82765 19.6276 9.38357 19.3297 9.71238C19.0318 10.0412 18.772 10.2941 18.7524 10.2745C18.7328 10.255 18.6018 9.84272 18.4614 9.35855C18.3208 8.87428 18.1202 8.31172 18.0156 8.10853C17.9109 7.90523 17.6887 7.60939 17.5219 7.45111C17.3145 7.25425 17.0809 7.14823 16.7833 7.11557C16.4276 7.07668 16.2837 7.11537 15.996 7.32761C15.8023 7.4704 15.3043 7.75701 14.8893 7.96452C14.1708 8.32388 14.0891 8.34157 13.1791 8.33494C12.5177 8.33011 11.9804 8.25987 11.4345 8.10662C11.0007 7.98492 10.3099 7.71942 9.8994 7.51663C9.27676 7.20913 9.10744 7.16411 8.87736 7.2447C8.67666 7.31504 8.48913 7.5506 8.18843 8.11004C7.96117 8.53281 7.61418 9.09707 7.4173 9.36397C7.22032 9.63088 6.92254 9.97929 6.75543 10.1383L6.45151 10.4272L5.93219 9.88703C5.64658 9.58988 5.23924 9.05285 5.02706 8.69359C4.81499 8.33433 4.54085 7.74646 4.41801 7.3872C4.25644 6.91468 4.18169 6.41182 4.14789 5.5693C4.11147 4.66256 4.13913 4.27305 4.27274 3.81069C4.3671 3.48409 4.56268 2.99841 4.70734 2.73151C4.85191 2.4645 5.2329 2.00324 5.55392 1.70639C5.87495 1.40953 6.42093 1.03148 6.7673 0.866376C7.11368 0.701267 7.73602 0.473553 8.1502 0.360399ZM36.7706 4.3246C37.0473 4.22994 37.5453 4.09257 37.8773 4.01921C38.2093 3.94595 38.9921 3.88234 39.6169 3.87792C40.2843 3.8733 41.0728 3.935 41.5284 4.02745C41.9548 4.11407 42.6577 4.33656 43.0904 4.52187C43.523 4.70718 44.1292 5.00936 44.4374 5.19336C44.7457 5.37746 45.357 5.86374 45.7959 6.27385C46.2348 6.68405 46.789 7.29454 47.0276 7.63049C47.2661 7.96653 47.6019 8.52195 47.7739 8.86473C47.946 9.20761 48.2105 9.88593 48.3618 10.3721L48.6368 11.2561L48.6695 17.4131L48.7022 23.57L46.3078 23.5431L43.9135 23.5162L43.8845 22.5821L43.8555 21.648L44.3111 21.1278C44.5617 20.8417 44.9268 20.2838 45.1224 19.8883C45.3181 19.4927 45.5442 18.8584 45.6248 18.4786C45.7176 18.0403 45.7718 17.1965 45.7729 16.1687C45.7744 14.7095 45.7551 14.5243 45.577 14.2982C45.4325 14.1147 45.2095 14.0138 44.7479 13.9231C44.4006 13.8549 43.6407 13.644 43.0593 13.4545C42.4778 13.265 41.5396 12.885 40.9745 12.6102C40.242 12.2538 39.7587 11.9343 39.2905 11.4969C38.8271 11.0638 38.5397 10.6873 38.313 10.2156C38.1363 9.84835 37.9015 9.44598 37.7912 9.32167C37.671 9.1862 37.4748 9.09556 37.3018 9.09556C37.1284 9.09556 36.9243 9.19012 36.7912 9.33212C36.6692 9.46215 36.4153 9.84533 36.227 10.1836C36.0386 10.5219 35.528 11.1715 35.0921 11.6274C34.6477 12.0919 34.1921 12.6829 34.0548 12.9727C33.9202 13.2569 33.7643 13.6878 33.7084 13.9304C33.6523 14.1729 33.6062 15.1402 33.6058 16.0798C33.6053 17.1992 33.6559 18.0276 33.7524 18.4827C33.8335 18.8648 34.0289 19.453 34.1866 19.7898C34.3445 20.1267 34.6848 20.6614 34.9431 20.978L35.4125 21.5537V22.5601V23.5664H34.315H33.2174L33.3581 23.0388C33.4353 22.7487 33.4992 22.1024 33.4998 21.6028C33.5005 21.1031 33.4316 20.4282 33.3468 20.1029C33.262 19.7777 33.0697 19.282 32.9196 19.0016C32.7695 18.7211 32.3955 18.2372 32.0884 17.9263C31.7814 17.6154 31.3361 17.2621 31.099 17.1412L30.6678 16.9216L30.7097 14.0888C30.7439 11.7803 30.7847 11.1352 30.9305 10.6029C31.0289 10.2437 31.2797 9.58264 31.4877 9.13385C31.6957 8.68515 32.0476 8.05205 32.2695 7.72696C32.4916 7.40197 32.9613 6.84816 33.3134 6.49634C33.6656 6.14461 34.2027 5.68728 34.507 5.48006C34.8114 5.27295 35.332 4.96685 35.664 4.80003C35.996 4.63322 36.494 4.41927 36.7706 4.3246ZM14.5412 9.74353C14.871 9.65781 15.4577 9.41271 15.8451 9.19887C16.2324 8.98512 16.5813 8.80655 16.6203 8.80212C16.6595 8.7977 16.8029 9.14651 16.9391 9.57722C17.0754 10.0079 17.3774 11.2828 17.6103 12.4102C17.979 14.1951 18.0268 14.5714 17.9796 15.3202C17.9491 15.8041 17.8322 16.4439 17.7123 16.7832C17.5951 17.1148 17.3361 17.6317 17.1368 17.932C16.9375 18.2323 16.5529 18.69 16.2822 18.9494C16.0114 19.2087 15.5307 19.5582 15.2139 19.7261C14.8971 19.894 14.3662 20.1099 14.0342 20.2057C13.6933 20.3042 13.0804 20.3816 12.6258 20.3835C12.1831 20.3854 11.5719 20.3272 11.2676 20.2544C10.9633 20.1815 10.3991 19.9645 10.0139 19.772C9.57555 19.5532 9.08149 19.1905 8.69336 18.8028C8.32988 18.4397 7.93682 17.9142 7.74386 17.5335C7.56278 17.1761 7.3496 16.6576 7.27012 16.3812C7.17918 16.0647 7.10553 15.1697 7.07133 13.9618L7.017 12.0448L7.75926 11.2987C8.16751 10.8884 8.70282 10.2361 8.94879 9.84925C9.19477 9.46236 9.40996 9.12671 9.42686 9.1035C9.44386 9.08018 9.80835 9.18249 10.2369 9.33081C10.6655 9.47914 11.3709 9.66776 11.8046 9.74996C12.2383 9.83217 12.8966 9.8995 13.2674 9.8995C13.6382 9.8995 14.2115 9.82935 14.5412 9.74353ZM4.56972 11.0121C4.70513 10.8851 4.9659 10.7457 5.1494 10.7023C5.3328 10.659 5.52817 10.6195 5.5835 10.6146C5.63883 10.6097 5.7838 10.6324 5.90574 10.665C6.12284 10.7232 6.12133 10.7294 5.83028 10.9741L5.5332 11.2238L5.52897 13.501L5.52485 15.7783L5.17233 15.3794C4.97857 15.1601 4.68129 14.6994 4.51187 14.3556C4.26801 13.8608 4.19316 13.5567 4.15262 12.8954C4.12374 12.4237 4.1498 11.8822 4.21258 11.6516C4.27364 11.4269 4.43441 11.1392 4.56972 11.0121ZM18.8542 10.8868C18.8198 10.7711 18.8762 10.7034 19.0348 10.6702C19.1618 10.6436 19.4401 10.6415 19.6534 10.6655C19.8667 10.6896 20.1759 10.7787 20.3404 10.8637C20.5049 10.9487 20.7014 11.1659 20.7769 11.3465C20.8524 11.527 20.9437 11.8972 20.9798 12.1692C21.016 12.4412 20.9959 12.935 20.9352 13.2664C20.8745 13.5978 20.6918 14.1403 20.529 14.4719C20.3663 14.8035 20.072 15.2307 19.8752 15.4211L19.5171 15.7674V14.898C19.5171 14.3214 19.4139 13.5275 19.2108 12.5418C19.0423 11.7241 18.8819 10.9794 18.8542 10.8868ZM36.3663 12.4815C36.7824 12.0299 37.1227 11.626 37.1227 11.5839C37.1227 11.5418 37.16 11.5074 37.2054 11.5074C37.251 11.5074 37.5453 11.7981 37.8596 12.1534C38.1738 12.5088 38.7604 13.0196 39.163 13.2886C39.5656 13.5575 40.3872 13.9929 40.9887 14.2561C41.5902 14.5192 42.5736 14.8771 43.174 15.0513L44.2656 15.3681V16.5319C44.2656 17.2532 44.2069 17.9205 44.1114 18.2871C44.0266 18.6123 43.8341 19.1061 43.6838 19.3841C43.5335 19.6623 43.1755 20.1216 42.8882 20.405C42.601 20.6883 42.0802 21.0607 41.7309 21.2325C41.3816 21.4042 40.7806 21.5951 40.3953 21.6565C39.8787 21.7391 39.5183 21.7387 39.0222 21.655C38.6522 21.5927 38.0848 21.4155 37.7613 21.2611C37.4377 21.1069 36.9632 20.7943 36.7066 20.5667C36.4502 20.3391 36.0946 19.9259 35.9164 19.6486C35.7382 19.3713 35.5067 18.8691 35.4019 18.5327C35.2431 18.023 35.2117 17.6082 35.2135 16.0457C35.2154 14.401 35.2399 14.117 35.4128 13.7366C35.5212 13.4979 35.9503 12.9331 36.3663 12.4815ZM24.0287 18.088C24.5458 17.9516 25.3154 17.7977 25.7389 17.7459C26.1625 17.6942 26.9292 17.674 27.4427 17.7011C27.9561 17.7282 28.6352 17.8165 28.9517 17.897C29.2682 17.9777 29.8077 18.18 30.1506 18.3466C30.5247 18.5284 30.9359 18.8332 31.1785 19.1086C31.4009 19.3609 31.6749 19.8131 31.7874 20.1135C31.9365 20.5117 31.9914 20.8968 31.9898 21.5353C31.9882 22.1915 31.929 22.5771 31.7531 23.0747C31.624 23.4398 31.3813 23.9372 31.2136 24.1801C31.0459 24.4229 30.8079 24.712 30.6849 24.8225L30.461 25.0235L30.025 24.5428C29.7851 24.2784 29.467 23.8131 29.318 23.5088C29.1689 23.2046 28.9526 22.8896 28.8371 22.8088C28.7217 22.7281 28.553 22.662 28.4624 22.662C28.3716 22.662 28.0083 22.7921 27.6547 22.9513C27.3013 23.1104 26.7721 23.2913 26.479 23.3533C26.1857 23.4152 25.733 23.4656 25.4729 23.4653C25.2128 23.465 24.8383 23.42 24.6408 23.3651C24.4433 23.3103 24.0586 23.1071 23.786 22.9135C23.4835 22.6987 23.1726 22.5616 22.9882 22.5619C22.822 22.5621 22.5464 22.6473 22.3757 22.7513C22.2 22.8583 21.9693 23.1441 21.8445 23.4094C21.7231 23.6673 21.5721 24.1021 21.509 24.3756C21.4457 24.649 21.3618 24.8728 21.3224 24.8728C21.283 24.8728 21.082 24.6862 20.8758 24.4581C20.6694 24.23 20.3708 23.7663 20.2122 23.4276C20.0535 23.089 19.8775 22.5684 19.821 22.271C19.7645 21.9735 19.719 21.4537 19.7198 21.1158C19.7206 20.7778 19.7888 20.2154 19.8713 19.8658C19.9538 19.5162 20.1368 18.9961 20.2781 18.7101C20.4193 18.4241 20.598 18.1052 20.6753 18.0014C20.8108 17.8193 20.8265 17.8218 21.1267 18.0741C21.2977 18.2178 21.6205 18.3902 21.8441 18.4571C22.162 18.5523 22.3419 18.5523 22.6695 18.4573C22.9 18.3905 23.5116 18.2242 24.0287 18.088ZM9.99739 23.8233C9.8003 23.4006 9.76036 23.1518 9.75956 22.343L9.75855 21.3708L10.3194 21.5677C10.6279 21.6759 11.243 21.8158 11.6864 21.8784C12.2935 21.9643 12.7113 21.9633 13.3772 21.8747C13.8637 21.81 14.4502 21.6907 14.6805 21.6095C15.0533 21.4781 15.1056 21.4789 15.1585 21.6164C15.191 21.7012 15.1864 22.1161 15.1481 22.5384C15.1098 22.9606 14.9843 23.5246 14.8692 23.7917C14.7504 24.0679 14.4683 24.446 14.2158 24.6681C13.9714 24.8829 13.5623 25.13 13.3064 25.217C13.0507 25.304 12.6538 25.3753 12.4245 25.3753C12.1953 25.3753 11.8012 25.305 11.5488 25.2191C11.2964 25.1332 10.8973 24.8982 10.6621 24.697C10.4268 24.4958 10.1276 24.1026 9.99739 23.8233ZM37.2271 25.9148C37.0581 25.4639 37.0221 25.1299 37.0221 24.0148C37.0221 23.2708 37.0431 22.662 37.0687 22.662C37.0944 22.662 37.332 22.7468 37.5969 22.8506C37.8618 22.9543 38.411 23.0948 38.8174 23.1627C39.2622 23.2371 39.8227 23.2587 40.2259 23.2169C40.5941 23.1788 41.2245 23.0383 41.6269 22.9048C42.0292 22.7712 42.3857 22.662 42.4192 22.662C42.4527 22.662 42.4606 23.3105 42.4366 24.1032C42.3969 25.4236 42.37 25.5919 42.117 26.1084C41.9651 26.4187 41.696 26.7947 41.519 26.9441C41.3421 27.0936 40.9935 27.307 40.7445 27.4183C40.4467 27.5514 40.0852 27.6189 39.6881 27.6157C39.3561 27.613 38.9175 27.5409 38.7133 27.4553C38.5092 27.3699 38.1373 27.1114 37.887 26.8809C37.5844 26.6023 37.3633 26.2786 37.2271 25.9148ZM22.3652 26.4956C22.5606 26.0687 22.8014 25.416 22.9003 25.0449C22.9993 24.6739 23.1004 24.3703 23.1251 24.3703C23.1496 24.3703 23.4043 24.4812 23.6911 24.6167C23.9779 24.7522 24.4885 24.9075 24.8261 24.9618C25.2202 25.0252 25.6846 25.0263 26.1252 24.9649C26.5023 24.9124 27.0372 24.7996 27.3139 24.7143C27.5905 24.6291 27.8681 24.5375 27.9307 24.5107C27.9933 24.4839 28.2523 24.753 28.5064 25.1086C28.7605 25.4643 29.1777 25.9394 29.4336 26.1643L29.8988 26.5734L29.8577 27.959C29.8239 29.0974 29.7759 29.4484 29.5879 29.926C29.4475 30.283 29.1522 30.7307 28.8226 31.0861C28.5214 31.4112 28.0462 31.7863 27.7389 31.9416C27.4379 32.0937 26.8922 32.2678 26.5261 32.3284C26.0361 32.4095 25.7097 32.4083 25.2889 32.3239C24.9745 32.2608 24.476 32.0989 24.181 31.9639C23.886 31.829 23.4263 31.5005 23.1594 31.2338C22.8924 30.9672 22.541 30.4782 22.3787 30.1473C22.1156 29.6114 22.0794 29.4215 22.0467 28.4087C22.0106 27.2864 22.0147 27.2618 22.3652 26.4956ZM19.8812 26.286C19.9206 26.0228 20.0434 25.7449 20.1807 25.6077C20.338 25.4505 20.5311 25.3753 20.7769 25.3753C21.1035 25.3753 21.1333 25.3973 21.0713 25.5923C21.0334 25.7117 20.8719 26.0848 20.7126 26.4214C20.4757 26.9215 20.4218 27.1711 20.4182 27.7871L20.4137 28.5408L20.2142 28.1633C20.1044 27.9557 19.9696 27.5487 19.9145 27.2589C19.8595 26.9691 19.8445 26.5312 19.8812 26.286ZM31.4112 27.1339C31.3853 25.8149 31.3696 25.7161 31.1597 25.5533L30.9356 25.3797L31.2033 25.3775C31.3826 25.376 31.5604 25.4813 31.7412 25.696C31.9925 25.9942 32.0088 26.0705 31.9725 26.7763C31.9447 27.3207 31.8635 27.6781 31.6861 28.0383L31.4386 28.5408L31.4112 27.1339ZM26.3582 33.879C26.7178 33.8461 27.2158 33.7597 27.4648 33.687L27.9175 33.555L27.9498 33.904C27.9675 34.0958 27.9079 34.4466 27.8175 34.6832C27.727 34.92 27.498 35.2495 27.3087 35.4155C27.1193 35.5816 26.773 35.7689 26.5391 35.8318C26.3052 35.8947 25.9674 35.9225 25.7884 35.8934C25.6095 35.8645 25.2997 35.7633 25.1001 35.6686C24.9004 35.5741 24.6328 35.356 24.5052 35.1842C24.3777 35.0123 24.2217 34.718 24.1588 34.5302C24.0958 34.3423 24.0443 34.0547 24.0443 33.8911C24.0443 33.6176 24.0662 33.5993 24.3184 33.6625C24.4692 33.7003 24.8428 33.778 25.1484 33.8351C25.4541 33.8922 25.9985 33.9119 26.3582 33.879ZM46.0262 49.9455L46.0002 43.7402L45.9743 37.5348H47.9871H50V43.7674V50L48.0131 49.9728L46.0262 49.9455ZM0.100604 50V43.8679V37.7358H2.11348H4.12626L4.1004 43.8406L4.07445 49.9455L2.08753 49.9728L0.100604 50ZM17.2265 47.5861C17.2116 46.2883 17.2219 45.1677 17.2496 45.096C17.288 44.9958 17.6118 44.9719 18.6348 44.9934L19.9698 45.0214V47.4835V49.9455H18.6117H17.2535L17.2265 47.5861ZM32.1932 49.9958V47.4835V44.9712H33.5513H34.9095V47.4835V49.9958H33.5513H32.1932Z" fill="#0086FF"/>
<path d="M4.86318 24.4686C3.19437 25.0626 1.6673 25.6485 1.46962 25.7706C1.27183 25.8926 0.949799 26.1796 0.753823 26.4082C0.542052 26.6553 0.316901 27.0848 0.198793 27.4669C0.0148893 28.0616 0 28.4099 0 32.1188V36.1279H2.06237H4.12475V34.3365C4.12475 32.594 4.13109 32.5392 4.35755 32.3267C4.48561 32.2065 4.71499 32.1082 4.8672 32.1082C5.01942 32.1082 5.22686 32.1525 5.32807 32.2066C5.42928 32.2607 5.56207 32.4483 5.62324 32.6235C5.70101 32.8464 5.73441 35.5025 5.73441 41.4689V49.9958H10.7115H15.6885L15.7165 43.5392L15.7445 37.0826L16.0374 36.5047C16.1986 36.187 16.5342 35.7205 16.7833 35.4681C17.0325 35.2156 17.4439 34.9052 17.6976 34.7783C17.9513 34.6514 18.3288 34.4926 18.5362 34.4255L18.9135 34.3035V33.4525C18.9135 32.683 18.9371 32.5779 19.1605 32.3549C19.3278 32.1877 19.5199 32.1082 19.7567 32.1082C20.0144 32.1082 20.1609 32.1778 20.3146 32.373C20.4667 32.5661 20.5231 32.7836 20.5231 33.1765V33.7153L21.0376 33.52C21.3205 33.4126 21.5723 33.3046 21.597 33.2799C21.6217 33.2551 21.0109 32.2865 20.2396 31.1272C19.4683 29.968 18.7325 28.7535 18.6044 28.4284C18.4127 27.9415 18.3707 27.6425 18.3668 26.7319C18.3625 25.7395 18.3893 25.568 18.6298 25.0542C18.7771 24.7393 18.8755 24.3975 18.8484 24.2943C18.8137 24.1615 18.4898 23.9946 17.742 23.7237C17.1605 23.513 16.6513 23.3802 16.6106 23.4284C16.5698 23.4767 16.4593 23.7717 16.3648 24.084C16.2704 24.3964 16.0089 24.9004 15.7836 25.2041C15.5585 25.5078 15.1755 25.8987 14.9327 26.0729C14.6898 26.247 14.2976 26.4751 14.0609 26.5798C13.8242 26.6843 13.3479 26.8153 13.0024 26.8709C12.5834 26.9383 12.1649 26.9386 11.7455 26.8718C11.3997 26.8167 10.8789 26.6634 10.5882 26.5311C10.2976 26.3988 9.8166 26.0608 9.51932 25.7799C9.22213 25.4992 8.84125 25.0106 8.67294 24.6942C8.50473 24.3779 8.33561 23.9496 8.29708 23.7423C8.24849 23.4807 8.17666 23.3689 8.06227 23.3771C7.97153 23.3834 6.53199 23.8746 4.86318 24.4686Z" fill="#0069B7"/>
</svg>
