<svg width="24" height="24" viewBox="0 0 24 24" fill="none" xmlns="http://www.w3.org/2000/svg">
<path d="M20.121 14.4826C19.6107 13.8811 18.8502 13.2184 18.6201 12.9023C18.2999 12.4741 18.39 12.3008 18.6201 11.9235C18.6001 11.9235 21.2717 8.12065 21.5419 6.84622C21.692 6.37723 21.5419 6.03059 20.8815 6.03059H18.7002C18.1498 6.03059 17.8997 6.32625 17.7496 6.65251C17.7496 6.65251 16.6289 9.38488 15.0579 11.1589C14.5476 11.6687 14.3175 11.842 14.0373 11.842C13.8872 11.842 13.6971 11.6686 13.6971 11.1997V6.81563C13.6971 6.26508 13.527 6 13.0567 6H9.63464C9.29444 6 9.08431 6.25489 9.08431 6.50977C9.08431 7.03993 9.86478 7.17247 9.95484 8.661V11.9031C9.95484 12.6066 9.82476 12.7392 9.55459 12.7392C8.81414 12.7392 7.01305 9.98641 5.93239 6.84622C5.71226 6.24469 5.49212 6.0102 4.94179 6.0102H2.74045C2.11007 6.0102 2 6.30586 2 6.62192C2 7.20306 2.74045 10.0986 5.4521 13.9422C7.25319 16.5624 9.81475 17.9796 12.1262 17.9796C13.527 17.9796 13.6971 17.6636 13.6971 17.1232V15.1351C13.6971 14.4928 13.8272 14.3908 14.2675 14.3908C14.5877 14.3908 15.158 14.5641 16.4488 15.8182C17.9297 17.3169 18.1898 18 19.0103 18H21.1917C21.8321 18 22.1222 17.6839 21.9521 17.062C21.772 16.4401 21.0516 15.5429 20.121 14.4826Z" fill="white"/>
</svg>
