<svg width="50" height="50" fill="none" xmlns="http://www.w3.org/2000/svg"><path d="M11.301 4.029c1.084-.85 3.68-2.09 5.77-2.756 2.09-.667 5.035-1.239 6.544-1.27 1.509-.034 2.744.33 2.744.805 0 .476-.9 2.29-2 4.03-1.1 1.74-4.167 5.217-6.817 7.726-2.942 2.786-5.12 4.256-5.596 3.779-.428-.43-1.192-3.03-1.698-5.776-.875-4.763-.827-5.065 1.053-6.538Zm8.255 11.421c3.349-3.07 7.235-7.625 8.637-10.12 1.401-2.498 2.905-4.54 3.34-4.54.436 0 2.68.961 4.986 2.136 2.306 1.174 4.193 2.611 4.193 3.194 0 .582-4.751 5.822-10.559 11.644-8.993 9.014-10.777 10.447-12.031 9.654-.81-.512-2.188-2.157-3.063-3.657l-1.59-2.728 6.087-5.584Zm-17.633-.186c.937-2.074 2.111-4.265 2.611-4.87.499-.605 1.196-.922 1.546-.704.35.218.876 1.898 1.169 3.734.293 1.837.733 3.87.98 4.516.287.75-.644 1.702-2.56 2.62-1.654.793-3.566 1.442-4.246 1.442-.68 0-1.23-.669-1.22-1.485.01-.816.785-3.18 1.72-5.253Zm20.743 16.727c-.779-1.244.734-3.066 10.042-12.086C38.736 14.064 43.946 9.282 44.286 9.28c.34-.003 1.576 1.892 2.745 4.21 1.168 2.317 2.125 4.722 2.125 5.344 0 .622-1.425 1.637-3.166 2.258-1.994.709-5.759 3.78-10.163 8.29l-6.996 7.164L26.207 35c-1.444-.85-3.037-2.205-3.541-3.01ZM0 26.523l4.525-1.742c2.489-.958 4.774-1.784 5.08-1.836.304-.052 1.954 1.863 3.664 4.257l3.112 4.351-4.912 4.988c-2.702 2.743-5.26 4.871-5.686 4.729-.426-.143-1.704-2.044-2.841-4.226-1.137-2.18-2.264-5.44-2.505-7.243L0 26.523Zm37.837 5.721c2.662-2.89 6.202-5.977 7.868-6.862 1.666-.884 3.314-1.625 3.662-1.646.348-.02.633 1.038.633 2.354s-.57 4.274-1.268 6.575c-.698 2.302-1.933 5.04-2.744 6.085-1.38 1.776-1.803 1.847-6.48 1.08-2.752-.45-5.342-1.16-5.757-1.576-.442-.444 1.248-2.93 4.086-6.01ZM8.206 44.111l5.066-5.09c2.786-2.8 5.196-5.102 5.355-5.116.158-.014 1.298.755 2.533 1.708a967.54 967.54 0 0 0 4.143 3.182l1.9 1.448-1.808 4.878C23.953 49.014 23.215 50 21.746 50c-1.012 0-3.523-.584-5.58-1.297-2.056-.714-4.688-2.039-5.85-2.945l-2.11-1.647Zm19.842 4.645c0-.684.64-2.593 1.422-4.242.783-1.65 1.448-2.982 1.478-2.963.03.02 2.017.497 4.415 1.06 2.398.565 4.46 1.408 4.58 1.874.121.467-1.814 1.899-4.3 3.182C33.157 48.95 30.43 50 29.585 50c-.846 0-1.537-.56-1.537-1.244Z" fill="#fff"/></svg>