<svg width="15" height="12" fill="none" xmlns="http://www.w3.org/2000/svg"><path d="M3.626 1.401c.081.031.201.105.267.163a.933.933 0 0 1 .181.235c.034.07.072.19.084.267.012.077.012.201 0 .276a1.02 1.02 0 0 1-.077.25 1.066 1.066 0 0 1-.156.215 1.029 1.029 0 0 1-.251.172.695.695 0 0 1-.343.07.735.735 0 0 1-.328-.061.994.994 0 0 1-.24-.165 1.144 1.144 0 0 1-.177-.241c-.061-.119-.072-.175-.073-.376 0-.196.011-.258.066-.369a1.11 1.11 0 0 1 .164-.232.967.967 0 0 1 .198-.152.99.99 0 0 1 .205-.078c.056-.014.154-.026.217-.028a.85.85 0 0 1 .263.054Zm4.872.625a.595.595 0 0 1 .26.49c.01.153.003.208-.047.313a.724.724 0 0 1-.146.2.838.838 0 0 1-.18.115.703.703 0 0 1-.499-.015.711.711 0 0 1-.19-.134.776.776 0 0 1-.119-.191.786.786 0 0 1-.046-.25c0-.077.02-.19.046-.25a.757.757 0 0 1 .12-.19.706.706 0 0 1 .15-.12.79.79 0 0 1 .19-.062.786.786 0 0 1 .236.002.711.711 0 0 1 .225.092Z" fill="#0086FF"/><path fill-rule="evenodd" clip-rule="evenodd" d="M7.818.998a1.78 1.78 0 0 0-.354.13 1.68 1.68 0 0 0-.379.28 1.46 1.46 0 0 0-.29.375 2.433 2.433 0 0 0-.145.354 1.56 1.56 0 0 0-.047.417c0 .154.019.314.048.417.026.091.087.241.134.333.048.093.17.253.277.362.122.125.254.226.367.284.098.05.25.109.34.132a1.795 1.795 0 0 0 .758 0c.086-.022.227-.077.314-.122s.22-.132.297-.194c.077-.062.196-.192.264-.29.069-.098.157-.265.196-.37a1.4 1.4 0 0 0 .086-.465 1.9 1.9 0 0 0-.02-.43 2.142 2.142 0 0 0-.13-.366 1.357 1.357 0 0 0-.294-.41 1.324 1.324 0 0 0-.398-.299A2.118 2.118 0 0 0 8.45.997a1.809 1.809 0 0 0-.326-.039 1.813 1.813 0 0 0-.306.04Zm.855 1.215a.73.73 0 0 0-.175-.187.711.711 0 0 0-.225-.092.786.786 0 0 0-.235-.002.79.79 0 0 0-.191.062.706.706 0 0 0-.15.12.757.757 0 0 0-.12.19.786.786 0 0 0-.046.25c0 .076.02.189.046.25a.776.776 0 0 0 .12.191c.04.044.126.104.19.134a.703.703 0 0 0 .499.015.838.838 0 0 0 .179-.114.724.724 0 0 0 .146-.201c.05-.105.058-.16.047-.313a.595.595 0 0 0-.085-.303ZM2.86.343c-.11.03-.282.099-.382.153-.1.054-.254.154-.34.223a2.02 2.02 0 0 0-.279.285 2.415 2.415 0 0 0-.216.354 2.517 2.517 0 0 0-.14.376c-.03.116-.048.284-.048.472s.017.356.047.473c.026.1.09.27.142.378.053.109.153.271.224.36.07.09.199.222.285.292.086.07.237.169.336.218.1.05.273.114.386.144.133.034.296.053.466.053.144 0 .341-.02.438-.043.098-.023.278-.093.402-.155a1.81 1.81 0 0 0 .417-.295c.106-.1.24-.253.298-.34.057-.086.137-.237.177-.334.04-.098.09-.26.111-.36.021-.1.038-.276.038-.39 0-.115-.018-.297-.04-.404a2.362 2.362 0 0 0-.16-.446 1.92 1.92 0 0 0-.294-.442 2.362 2.362 0 0 0-.37-.323A2.236 2.236 0 0 0 3.95.386C3.776.324 3.678.309 3.398.299c-.279-.01-.376-.001-.539.044Zm1.033 1.221a1.028 1.028 0 0 0-.267-.163.85.85 0 0 0-.263-.054c-.063.002-.16.014-.217.028a1.076 1.076 0 0 0-.205.078.967.967 0 0 0-.198.152 1.11 1.11 0 0 0-.164.232c-.055.11-.066.173-.066.37.001.2.012.256.073.375.04.076.119.185.176.241.058.057.166.13.241.165a.74.74 0 0 0 .328.061.695.695 0 0 0 .343-.07c.083-.039.196-.116.25-.172.055-.056.126-.153.157-.215a1.02 1.02 0 0 0 .078-.25 1.082 1.082 0 0 0 0-.276 1.123 1.123 0 0 0-.085-.267.933.933 0 0 0-.181-.235Z" fill="#0086FF"/><path d="M1.036 4.665c-.063.02-.169.069-.235.108-.066.04-.177.136-.245.214a1.235 1.235 0 0 0-.187.299l-.063.159-.008 2.432c-.006 1.774 0 2.473.023 2.585.018.084.063.212.102.285.038.073.13.19.202.26.073.069.203.16.288.2l.156.075h9.016l.157-.075c.085-.041.216-.136.29-.212.074-.075.165-.198.202-.274a1.36 1.36 0 0 0 .098-.3c.02-.11.03-.923.03-2.46 0-1.541-.01-2.352-.03-2.462a1.27 1.27 0 0 0-.085-.276 1.535 1.535 0 0 0-.146-.227 1.137 1.137 0 0 0-.224-.201 1.283 1.283 0 0 0-.267-.128c-.116-.036-.71-.042-4.546-.04-3.57 0-4.435.008-4.528.038Zm11.69 1.242c-.628.369-1.228.722-1.333.785l-.19.115v2.305l.244.144 1.335.786c.905.533 1.107.642 1.194.642.083 0 .122-.018.184-.086l.08-.087V7.983c0-1.807-.01-2.546-.031-2.589a.408.408 0 0 0-.089-.109.286.286 0 0 0-.154-.048c-.077 0-.33.136-1.24.67Z" fill="#0086FF"/><path fill-rule="evenodd" clip-rule="evenodd" d="M1.86 1.004A2.02 2.02 0 0 1 2.137.72c.086-.069.24-.17.34-.223.1-.054.272-.123.381-.153.163-.045.26-.053.539-.044.28.01.378.025.552.087.117.04.3.134.409.206a1.89 1.89 0 0 1 .662.766 2.647 2.647 0 0 1 .161.445c.022.107.04.289.04.403 0 .101-.013.25-.03.352a2.195 2.195 0 0 1-.118.4 2.528 2.528 0 0 1-.178.333 2.783 2.783 0 0 1-.298.34 1.809 1.809 0 0 1-.417.295 2.286 2.286 0 0 1-.402.155 2.353 2.353 0 0 1-.438.043c-.17 0-.333-.019-.466-.053a2.41 2.41 0 0 1-.386-.144 2.14 2.14 0 0 1-.336-.218 2.295 2.295 0 0 1-.285-.291 2.328 2.328 0 0 1-.224-.36 2.649 2.649 0 0 1-.142-.38 2.006 2.006 0 0 1-.047-.472c0-.188.017-.356.047-.472.026-.1.09-.269.14-.376.052-.107.15-.266.217-.354Zm1.454 1.137v.002l-.001-.002h.001Zm.018-.007h-.003.003Zm-.003 0a.68.68 0 0 1 .002-.005l-.002.005Zm.005 0h-.002.002Zm-.021.007v.005a.255.255 0 0 0-.003.016.904.904 0 0 1-.006.026l-.007-.002-.006-.003-.005-.01m.011.013h-.005.005Zm.002.001h.005v.002l-.005-.002Zm.084-.035a.286.286 0 0 0-.026-.009l-.001.001.004.02.023-.004v-.008Zm.002.074-.009-.002.009.005v-.003Zm-.053.036-.002.002.002-.002Zm-.007-.098.005.008-.014.014.01-.022Zm.007.054.023.003-.023-.003Zm0-.048-.002.002.002.004V2.17Zm.023.05-.004-.008.003.002.001.006Zm0 0v.001-.001Zm-.023-.044-.002-.004.002.004Zm.022.038.001.006-.001-.006Zm-.012.038-.01-.01.01.01Zm.021-.057v.023m-.034.043-.014-.028v.018a.836.836 0 0 0 .004.01h.01Zm-.025-.041v-.002l-.002-.003a.54.54 0 0 0 .002.005Zm.012-.034-.001.002v.003l.001-.005Zm5.667 8.051v-.002.002Zm-2.11-6.796a2.13 2.13 0 0 0 .189.225c.122.125.254.226.367.284.098.05.25.109.34.132a1.795 1.795 0 0 0 .758 0c.086-.022.227-.077.314-.122s.22-.132.297-.194c.077-.062.196-.192.264-.29a2.317 2.317 0 0 0 .149-.26 1.211 1.211 0 0 0 .12-.408 2.458 2.458 0 0 0-.007-.597 2.142 2.142 0 0 0-.13-.366 1.357 1.357 0 0 0-.294-.41 1.324 1.324 0 0 0-.398-.299A2.118 2.118 0 0 0 8.45.997a1.809 1.809 0 0 0-.326-.039 1.813 1.813 0 0 0-.306.04 1.78 1.78 0 0 0-.354.13 1.712 1.712 0 0 0-.451.353 1.352 1.352 0 0 0-.218.302 2.433 2.433 0 0 0-.145.354 1.632 1.632 0 0 0-.048.417 2.082 2.082 0 0 0 .03.335c.006.03.012.057.02.082.025.091.086.241.133.333.02.038.05.086.087.137Zm1.355-.833.015.006-.016-.008.001.002Zm-.12-.057.004-.002h-.005v.002h.001Zm0 0-.001-.001h-.003.003Zm-.004-.001h.003v-.003l-.002-.003v.006Zm.004-.017-.003.01-.002-.01h.005Zm-.005 0 .002.01v.007h-.002l-.015-.008-.003-.005.018-.003Zm-.018.004-.002-.004.002.004Zm-.103-.204Zm-.093.079-.002.003a.864.864 0 0 0-.016.022m-.022.168a1.474 1.474 0 0 1-.004-.018l.065-.014h.01l-.071.032Zm.071-.032.005-.003-.014.003h.01Zm-.01 0-.067.005.002.009.065-.014Zm.015-.003.06-.012-.029-.002-.03.014Zm.167-.009-.015.001.012.001.003-.002Zm.007.002h-.01l.003-.002h.005l.002.002Zm0 0 .001.003v-.002Zm.002 0h-.002l-.002-.002h.004v.003Zm0 0v.005l.01-.002-.005-.002h-.005Zm.005 0h-.005v-.001l.005.002Zm0 0 .005.003v-.002h-.005Zm.005 0h-.005l-.005-.001V2.56h.009l.001.004Zm-.01-.003.002-.006-.006.004v.003h.005Zm-.004 0v-.002l-.002.002h.002Zm-.002 0-.003.001.003-.001Zm-.015-.022h.005l-.002-.005m-.005.006-.012.01.012-.01Zm.01.003.003.008h.012l-.015-.008Zm.007.018h.002l-.005.001.003-.001Zm.002 0h.005v.002l-.005-.001Zm.014.004v.002l.006-.002H8.11Zm-.01.004v-.002L8.1 2.57h.002Zm.116.218-.032-.06.011.061h.019l.002-.001ZM7.87 2.44v-.001Zm-.001.001V2.44v.001Zm0-.001.002-.003-.001.003Zm.204-.133.054.105-.021-.112-.033.007Zm.06.115-.006-.01.003.02.002-.01Zm.255-.039-.002-.002a.628.628 0 0 0-.012-.013m-.228.16h.002v-.003l-.002.004Zm.314.008a.47.47 0 0 1 0 .005l-.001.008a.727.727 0 0 0-.003-.013h.004Zm-.262-.112-.015.03.015-.03Zm4.625 3.643-.084-.14.084.14Z" fill="#0086FF"/></svg>