<svg width="50" height="50" fill="none" xmlns="http://www.w3.org/2000/svg"><path d="M46.193 3.661c.183.115.409.363.516.566.106.2.196.525.201.726.006.2-.038.488-.098.64-.06.152-.242.412-.405.577-.164.166-.296.344-.295.395.002.052.138.219.303.37.165.153.361.4.437.549.076.149.142.435.148.634.005.2-.066.533-.158.74a1.63 1.63 0 0 1-.484.6 1.919 1.919 0 0 1-.678.28c-.2.032-.407.095-.46.14-.067.056-.078.262-.035.65.053.468.035.63-.097.91-.088.188-.23.406-.313.484a2.502 2.502 0 0 1-.419.288c-.146.08-.467.151-.713.158-.297.008-.54-.042-.727-.15-.155-.088-.358-.159-.452-.156-.113.003-.207.1-.277.284-.06.153-.19.391-.291.528a1.694 1.694 0 0 1-.523.417 1.804 1.804 0 0 1-.635.17 2.086 2.086 0 0 1-.572-.088c-.152-.05-.4-.202-.549-.336a1.904 1.904 0 0 1-.396-.523c-.07-.153-.186-.3-.26-.326-.073-.026-.3.04-.501.146a1.94 1.94 0 0 1-.791.205c-.233.006-.532-.04-.663-.105a2.18 2.18 0 0 1-.51-.408 2.056 2.056 0 0 1-.379-.623 1.604 1.604 0 0 1-.059-.64c.043-.272.073-.305.236-.26.102.03.388.121.634.205.33.113.448.196.452.319.002.091.068.189.147.217.08.028.275-.032.444-.136a2.32 2.32 0 0 1 .597-.251c.163-.036.456-.026.651.02.195.047.485.195.645.328.16.134.343.366.406.516.064.15.172.317.24.37.068.053.177.075.241.048.064-.027.214-.242.333-.477.148-.294.333-.503.59-.663.27-.17.49-.239.798-.247.294-.008.54.049.794.183.277.147.402.173.504.104.107-.072.132-.241.12-.813-.014-.661.005-.75.219-1.05a1.86 1.86 0 0 1 .577-.497c.188-.092.458-.172.6-.177.14-.005.3-.057.355-.114a.361.361 0 0 0 .095-.215c-.002-.06-.125-.211-.274-.336a2.047 2.047 0 0 1-.436-.561 1.969 1.969 0 0 1-.176-.669c-.006-.184.063-.5.154-.705.091-.204.248-.44.348-.525.1-.085.21-.202.242-.26.033-.058.017-.182-.035-.275-.069-.12-.182-.166-.392-.16a1.655 1.655 0 0 1-.629-.152 1.995 1.995 0 0 1-.58-.465c-.222-.278-.247-.371-.27-1.027-.02-.572-.055-.74-.166-.806-.105-.062-.222-.034-.461.11a2.425 2.425 0 0 1-.665.26c-.27.05-.445.021-.816-.137-.4-.17-.516-.274-.752-.668-.215-.36-.324-.464-.477-.46-.153.004-.233.09-.349.374a1.943 1.943 0 0 1-.412.604 1.91 1.91 0 0 1-.607.34c-.19.057-.481.082-.649.056a2.016 2.016 0 0 1-.582-.21c-.169-.097-.343-.137-.445-.101-.093.033-.167.109-.166.17.002.061-.135.137-.311.172a5.063 5.063 0 0 1-.673.072c-.316.01-.359-.01-.362-.18-.002-.104.063-.345.143-.534.08-.19.253-.45.383-.579.13-.13.342-.279.47-.332.13-.053.403-.102.607-.108.208-.005.538.065.75.162.207.094.436.146.508.116.073-.03.18-.183.24-.34.06-.155.241-.407.402-.557a2.15 2.15 0 0 1 .599-.386c.179-.065.458-.092.673-.066.202.025.52.149.705.276.194.134.42.395.53.618.125.247.249.384.345.382.083-.003.297-.085.476-.184.193-.106.492-.184.733-.19.233-.007.543.053.724.14.175.083.381.22.46.305.078.085.211.283.297.442.121.225.149.414.124.861-.021.392 0 .597.07.65.057.041.267.092.469.112.2.02.511.128.69.24Z" fill="#fff"/><path fill-rule="evenodd" clip-rule="evenodd" d="M27.962 5.114c.207-.104.602-.246.88-.314.407-.1 1.442-.121 5.307-.109l4.802.016.35.245c.194.135.446.414.562.62.152.27.211.511.211.862 0 .35-.059.592-.21.862a2.163 2.163 0 0 1-.538.603c-.213.149-.522.255-.886.304a49.26 49.26 0 0 1-1.942.184c-1.24.097-1.405.093-1.6-.035a.759.759 0 0 1-.274-.328.872.872 0 0 1-.005-.4.684.684 0 0 1 .253-.345c.134-.089.733-.177 1.824-.27.893-.075 1.713-.174 1.822-.221.142-.06.198-.159.198-.349 0-.174-.06-.297-.177-.36-.122-.065-1.598-.087-4.729-.07-4.379.026-4.568.034-4.996.211-.245.101-1.878 1.05-3.629 2.108l-3.183 1.923v.664c0 .586.025.688.216.88.21.213.245.218 1.627.218h1.411v-.38c0-.209.06-.609.132-.888a5.28 5.28 0 0 1 .316-.872c.101-.2.37-.55.595-.778.226-.227.628-.52.894-.65a4.936 4.936 0 0 1 1.006-.343c.406-.082.738-.082 1.476.001.524.059 1.259.204 1.632.324.373.119.935.367 1.248.55a6.86 6.86 0 0 1 1.11.875c.297.297.681.795.853 1.107.171.312.396.845.498 1.184.125.41.215 1.051.269 1.905.059.926.145 1.508.309 2.076.124.434.365 1.066.533 1.404.169.338.434.794.59 1.012.156.22.352.504.437.633.084.129.154.301.154.384 0 .083-.09.255-.2.384l-.2.234-2.648-.02-.288.926c-.158.51-.364.996-.456 1.08a.723.723 0 0 1-.423.153c-.168 0-.459-.152-.857-.45a13.463 13.463 0 0 1-1.312-1.188c-.391-.406-.877-.985-1.08-1.288a13.92 13.92 0 0 1-.674-1.151c-.168-.33-.306-.728-.306-.882 0-.2.067-.336.231-.465.127-.101.308-.184.402-.184a.86.86 0 0 1 .34.092c.094.05.327.404.517.785.19.38.588 1.015.883 1.41.296.395.742.898.992 1.118.25.22.482.37.516.335.033-.036.143-.348.244-.693s.266-.703.366-.794c.157-.143.304-.163 1.05-.142l.869.025-.257-.476c-.14-.262-.357-.748-.482-1.08a11.863 11.863 0 0 1-.355-1.146c-.071-.297-.168-1.09-.215-1.76-.047-.67-.132-1.407-.188-1.638a5.554 5.554 0 0 0-.355-.931 4.66 4.66 0 0 0-.572-.867 4.562 4.562 0 0 0-.58-.542c-.26-.186-.26-.186-.203-.005.032.1.093.405.138.677.05.308.047.698-.007 1.036-.048.298-.2.766-.34 1.041-.14.275-.444.687-.678.915a4.206 4.206 0 0 1-.865.634c-.242.12-.685.268-.985.326-.404.08-.675.082-1.055.011a10.56 10.56 0 0 1-.693-.15c-.149-.043-.212.013-.344.31-.09.199-.331.518-.537.71-.276.255-.546.397-1.02.536l-.864.256-.22.066-.047 4.43.589.384a8.17 8.17 0 0 1 1.106.904c.284.286.7.805.922 1.152.224.347.532.953.686 1.347.263.675.769 1.342 8.668 11.43 4.614 5.891 8.46 10.85 8.547 11.018.091.178.158.498.158.761 0 .305-.068.583-.205.845a2.199 2.199 0 0 1-.569.648c-.26.185-.5.27-.84.298-.263.022-.63-.009-.818-.069-.276-.088-2.1-1.878-9.824-9.64-5.217-5.242-11.043-11.279-11.112-11.41l.005-.006c-.008-.005-.01-.003-.005.006-.387.364-1.03.93-2.096 1.87-1.474 1.298-2.703 2.399-2.732 2.446-.03.047.827 2.447 1.902 5.333 1.902 5.106 1.955 5.265 1.957 5.911.003.55-.084.966-.502 2.424-.278.969-.578 1.905-.668 2.081-.09.177-.257.408-.37.515a2.736 2.736 0 0 1-.602.374c-.311.142-.582.181-1.258.183-.799.002-.877-.014-1.078-.216a.693.693 0 0 1-.21-.465c.003-.136.154-1.124.337-2.195l.33-1.948-2.795-5.637c-2.29-4.616-2.814-5.74-2.895-6.208a2.905 2.905 0 0 1-.005-1.093c.052-.287.223-.771.38-1.076.22-.424 1.115-1.453 3.829-4.403 2.523-2.744 3.54-3.908 3.539-4.052-.001-.11-.152-1.205-.334-2.433-.183-1.228-.35-2.25-.372-2.273-.022-.021-1.616-.163-3.542-.313-2.622-.205-3.572-.31-3.782-.417a2.644 2.644 0 0 1-.488-.332 2.182 2.182 0 0 1-.374-.517 1.895 1.895 0 0 1-.167-.761c0-.282.071-.568.204-.823.113-.214.373-.51.58-.656l.374-.265 6.583-.053v-.51c0-.282.063-.728.14-.993a4.26 4.26 0 0 1 .402-.897 4.17 4.17 0 0 1 .593-.717c.182-.165 2.248-1.458 4.59-2.872 2.343-1.414 4.428-2.656 4.634-2.76Zm1.754 4.547c.294.137.55.344.72.581.146.202.312.508.368.68.056.172.086.544.065.828a1.9 1.9 0 0 1-.298.94 2.29 2.29 0 0 1-.68.686 1.954 1.954 0 0 1-.901.301 2.968 2.968 0 0 1-.872-.07 2.336 2.336 0 0 1-.739-.41 2.533 2.533 0 0 1-.531-.681c-.126-.262-.184-.555-.184-.932 0-.303.054-.682.12-.842a2.78 2.78 0 0 1 .399-.61c.152-.174.444-.4.648-.502.254-.126.54-.185.9-.184.372 0 .663.064.985.215Zm-3.86 4.066a.79.79 0 0 1 .21.463 1.68 1.68 0 0 1-.055.459c-.035.11-.17.256-.302.324-.132.068-1.486.466-3.008.884-2.491.684-2.846.76-3.538.76-.422 0-2.302-.12-4.177-.267-1.875-.146-3.478-.289-3.563-.315-.084-.027-.18-.153-.21-.28-.045-.176-.011-.268.14-.392.187-.152.46-.162 4.392-.162h4.191l2.595-.882c1.814-.617 2.673-.87 2.857-.84.145.024.356.136.468.248Z" fill="#fff"/><path d="M3.181 17.557c.101.206.32.46.5.58.175.117.483.233.683.259.2.026.41.082.465.126.068.054.085.26.052.65-.037.447-.015.636.1.865.081.161.21.364.285.45.076.087.278.23.45.319.18.092.487.16.72.16.241 0 .543-.069.738-.17.182-.093.399-.17.482-.17.096 0 .216.142.333.392.105.226.323.494.513.633.182.132.496.266.697.296.214.033.494.013.675-.047.17-.056.444-.222.61-.368.164-.146.352-.392.416-.547.064-.154.177-.304.25-.332.073-.028.3.03.505.131a2 2 0 0 0 .745.182c.204 0 .478-.04.609-.09.13-.05.346-.193.48-.318.133-.126.313-.381.399-.568.085-.187.157-.425.158-.53.001-.169-.04-.191-.357-.19-.197 0-.5.024-.675.053-.176.03-.316.101-.316.163 0 .061-.076.135-.17.165-.103.033-.276-.012-.443-.114a2.021 2.021 0 0 0-.575-.226 1.752 1.752 0 0 0-.65.038 1.91 1.91 0 0 0-.617.322 1.943 1.943 0 0 0-.429.592c-.123.28-.205.364-.358.364-.154 0-.26-.108-.465-.474-.224-.4-.338-.507-.732-.689-.367-.169-.541-.203-.813-.159-.19.03-.492.139-.671.24-.243.137-.361.162-.464.096-.11-.069-.139-.237-.143-.81-.005-.656-.027-.75-.242-1.034a1.995 1.995 0 0 0-.566-.482 1.655 1.655 0 0 0-.625-.169c-.21 0-.322-.05-.387-.171-.05-.095-.062-.219-.028-.276a1.32 1.32 0 0 1 .25-.253c.102-.082.265-.314.362-.515.097-.201.175-.517.174-.7a1.972 1.972 0 0 0-.157-.674 2.049 2.049 0 0 0-.42-.574c-.145-.128-.264-.283-.264-.343a.36.36 0 0 1 .101-.212c.056-.056.217-.103.359-.104.141 0 .413-.073.604-.16a1.85 1.85 0 0 0 .59-.48c.223-.294.244-.382.249-1.043.004-.572.034-.74.143-.81.104-.066.228-.037.5.118.251.142.495.206.789.206.308 0 .53-.061.805-.223a1.59 1.59 0 0 0 .608-.646c.126-.233.281-.443.346-.468.065-.025.173 0 .24.055s.17.225.23.376c.059.152.235.39.39.527.157.138.443.294.636.347.194.052.486.07.65.039.164-.031.436-.137.605-.234.171-.1.368-.154.447-.123.078.03.141.129.141.22 0 .124.115.21.443.332.243.09.526.19.628.223.161.05.192.018.243-.252a1.602 1.602 0 0 0-.042-.643 2.057 2.057 0 0 0-.36-.633 2.182 2.182 0 0 0-.498-.423c-.13-.067-.427-.123-.66-.123-.262 0-.567.07-.797.183-.205.1-.432.159-.505.13-.073-.028-.186-.178-.25-.333a1.903 1.903 0 0 0-.382-.534 1.913 1.913 0 0 0-.54-.351 2.09 2.09 0 0 0-.569-.105 1.803 1.803 0 0 0-.639.152c-.19.087-.43.268-.535.402a2.698 2.698 0 0 0-.305.52c-.076.182-.172.276-.285.276-.094 0-.296-.076-.447-.17-.184-.113-.426-.17-.724-.17-.245 0-.568.062-.716.138a2.5 2.5 0 0 0-.427.276c-.086.076-.233.29-.327.474-.14.276-.162.438-.123.907.033.39.016.595-.052.65-.055.043-.264.1-.465.126a1.91 1.91 0 0 0-.685.26c-.186.124-.397.37-.5.586A2.038 2.038 0 0 0 3 13.66c0 .2.058.487.13.638.071.152.26.404.421.56.16.157.292.328.292.38 0 .051-.137.225-.305.386-.168.16-.358.415-.422.566-.064.15-.116.436-.116.636s.081.529.181.732Z" fill="#fff"/></svg>