<svg width="50" height="50" fill="none" xmlns="http://www.w3.org/2000/svg"><path fill-rule="evenodd" clip-rule="evenodd" d="M16.857.054c.134.023.461.11.728.194.267.085.784.31 1.148.5.364.19.982.645 1.374 1.013l.71.668.995.103a22.44 22.44 0 0 1 1.88.287c.486.102 1.278.3 1.759.44.48.141 1.267.412 1.747.602.481.19 1.29.566 1.797.836.507.27 1.25.711 1.65.981.401.27 1.04.747 1.42 1.06.38.312 1.052.954 1.491 1.426.44.472 1.052 1.21 1.36 1.64.31.43.81 1.226 1.113 1.77.303.544.747 1.48.986 2.079.239.599.582 1.632.763 2.295.181.664.417 1.731.526 2.372.108.64.248 1.755.312 2.477.072.829.095 2.194.06 3.707-.03 1.317-.123 2.988-.207 3.713-.084.725-.264 2-.401 2.833a59.959 59.959 0 0 1-.302 1.734l-.053.22H15.895l-.077-.367c-.043-.201-.076-.872-.074-1.49.002-.751.06-1.333.173-1.758.093-.35.302-.92.464-1.27.161-.349.529-.942.816-1.319.288-.376 1.272-1.43 2.187-2.344.915-.913 1.807-1.858 1.984-2.1.176-.242.43-.66.565-.93.135-.27.296-.68.358-.914.063-.233.112-.804.11-1.268-.003-.464-.069-1.086-.146-1.381a10.391 10.391 0 0 0-.241-.804l-.101-.266-.469.237c-.257.13-.969.372-1.58.539-.613.166-1.387.43-1.72.586-.335.156-.837.437-1.118.625-.28.187-.946.718-1.48 1.179-.534.46-1.211.958-1.505 1.105-.475.237-.643.266-1.505.266-.863 0-1.032-.03-1.516-.269-.307-.151-.765-.503-1.05-.805-.277-.296-.597-.746-.71-1.001-.147-.328-.22-.724-.247-1.343-.037-.841-.02-.934.399-2.122.24-.684.704-1.852 1.031-2.597.327-.745.884-1.879 1.237-2.518.354-.64.942-1.613 1.308-2.162a33.241 33.241 0 0 1 1.43-1.954c.422-.525.881-1.062 1.02-1.192.14-.13.254-.308.254-.395 0-.087-.24-1.143-.534-2.348-.294-1.204-.534-2.263-.534-2.352 0-.111.114-.18.364-.222.2-.034.648-.056.995-.049.347.007.74.03.874.053Zm23.839 36.24c.16.2.412.54.56.758.148.218.382.758.52 1.2.224.712.247.923.209 1.856-.032.777-.1 1.198-.26 1.614l-.218.561H12.222l-.155-.415a7.863 7.863 0 0 1-.253-.855 6.33 6.33 0 0 1-.101-1.094c-.001-.36.046-.887.104-1.172.059-.285.252-.827.43-1.205.179-.378.506-.894.728-1.148l.403-.46h27.026l.292.36Zm.086 9c.027.043.308 1.12.625 2.393L41.984 50H26.896c-12.008 0-15.088-.025-15.086-.122.002-.067.256-1.133.565-2.369l.561-2.247 13.898-.024c7.644-.014 13.92.011 13.948.055Z" fill="#fff"/></svg>