<svg width="50" height="50" fill="none" xmlns="http://www.w3.org/2000/svg"><path d="M17.585.248a7.314 7.314 0 0 0-.728-.194A8.626 8.626 0 0 0 15.851 0c-.321 0-.688.02-.863.05-.25.041-.364.11-.364.222 0 .09.24 1.148.534 2.352.293 1.205.534 2.261.534 2.348 0 .087-.114.264-.254.395-.139.13-.598.667-1.02 1.192a33.241 33.241 0 0 0-1.43 1.954 36.872 36.872 0 0 0-1.308 2.162 37.67 37.67 0 0 0-1.237 2.518 45.308 45.308 0 0 0-1.031 2.597c-.419 1.188-.436 1.28-.399 2.122.028.62.1 1.015.246 1.343.114.255.434.705.712 1 .284.303.742.655 1.05.806.483.24.652.27 1.515.27.863 0 1.03-.03 1.505-.267.294-.147.971-.644 1.505-1.105.534-.461 1.2-.992 1.48-1.18.28-.187.783-.468 1.117-.624.334-.156 1.108-.42 1.72-.586.612-.166 1.324-.41 1.581-.54l.469-.236.1.266c.056.146.165.508.242.804.077.295.143.917.145 1.38.003.465-.046 1.036-.108 1.27a5.944 5.944 0 0 1-.359.913 8.11 8.11 0 0 1-.565.93c-.177.242-1.07 1.187-1.984 2.1-.915.913-1.9 1.968-2.187 2.345a8.622 8.622 0 0 0-.816 1.318c-.162.35-.37.92-.464 1.27-.114.425-.17 1.007-.173 1.758-.002.618.031 1.289.074 1.49l.077.366h21.818l.053-.22a72.717 72.717 0 0 0 .704-4.567c.083-.724.177-2.395.206-3.712.035-1.513.012-2.878-.06-3.707a38.216 38.216 0 0 0-.312-2.477 29.887 29.887 0 0 0-.526-2.372 25.76 25.76 0 0 0-.763-2.295 21.67 21.67 0 0 0-.986-2.079 22.241 22.241 0 0 0-1.112-1.77c-.309-.43-.92-1.168-1.36-1.64a18.953 18.953 0 0 0-1.492-1.427 23.036 23.036 0 0 0-1.42-1.059c-.4-.27-1.143-.711-1.65-.981a21.57 21.57 0 0 0-1.797-.836 24.28 24.28 0 0 0-1.747-.602 28.788 28.788 0 0 0-1.759-.44 22.44 22.44 0 0 0-1.88-.287l-.994-.103-.711-.668c-.392-.368-1.01-.824-1.374-1.014a8.902 8.902 0 0 0-1.148-.499ZM26.896 50h15.088l-.577-2.313c-.317-1.273-.598-2.35-.625-2.394-.027-.044-6.304-.069-13.948-.055l-13.898.024-.561 2.247c-.31 1.236-.563 2.302-.565 2.369-.002.097 3.079.122 15.086.122Z" fill="#0086FF"/><path d="M40.696 36.295c.16.198.412.539.56.757.148.218.382.758.52 1.2.224.712.247.923.209 1.856-.032.777-.1 1.198-.26 1.614l-.218.561H12.222l-.155-.415a7.863 7.863 0 0 1-.253-.855 6.33 6.33 0 0 1-.101-1.094c-.001-.36.046-.887.104-1.172.059-.285.252-.827.43-1.205.179-.378.506-.894.728-1.148l.403-.46h27.026l.292.36Z" fill="#0069B7"/></svg>