<svg width="50" height="50" fill="none" xmlns="http://www.w3.org/2000/svg"><path fill-rule="evenodd" clip-rule="evenodd" d="M16.06 9.882c-1.4.42-3.318 1.05-4.263 1.402-.946.352-2.301.873-3.012 1.159-.711.285-2.234.949-3.385 1.473-1.587.724-2.24 1.075-2.697 1.453a6.855 6.855 0 0 0-.977 1.009c-.205.28-.48.834-.612 1.231-.131.397-.28 1.175-.331 1.73-.051.554-.12 1.927-.153 3.051a75.785 75.785 0 0 0-.007 3.775c.03.952.114 2.426.187 3.275.074.849.244 2.349.379 3.333.134.985.367 2.442.515 3.238.15.796.51 2.347.8 3.446.415 1.563.602 2.113.861 2.529.182.292.595.815.918 1.162.358.386.928.824 1.466 1.129.535.303 1.212.57 1.73.681a9.011 9.011 0 0 0 1.595.18c.43 0 1.152-.108 1.708-.253.53-.138 1.211-.384 1.514-.547.303-.163.865-.565 1.25-.893.506-.431.866-.875 1.303-1.604.423-.708.655-1.258.78-1.844.097-.46.194-1.271.214-1.803.021-.532.143-1.261.27-1.62.128-.36.422-.903.653-1.209.232-.305.668-.74.97-.964l.55-.409 6.35-1.736c4.607-1.26 6.522-1.745 6.973-1.77.341-.017.839.011 1.105.064.266.052.734.205 1.04.338.307.134.79.442 1.075.685.285.242.75.81 1.033 1.26.284.45.779 1.104 1.1 1.451.374.404.927.826 1.532 1.168.6.34 1.26.604 1.799.72a8.47 8.47 0 0 0 1.555.174 10.873 10.873 0 0 0 1.504-.158c.54-.1 1.047-.271 1.558-.528a8.692 8.692 0 0 0 1.455-.982c.508-.437.862-.877 1.297-1.616.453-.767.64-1.232.764-1.904.091-.489.163-1.142.159-1.45-.005-.363-.197-1.246-.545-2.5a63.713 63.713 0 0 0-1.025-3.33 80.005 80.005 0 0 0-1.172-3.062 81.021 81.021 0 0 0-1.34-3.076 73.142 73.142 0 0 0-1.477-2.93 76.302 76.302 0 0 0-1.894-3.266 66.393 66.393 0 0 0-1.658-2.566c-.322-.455-.84-1.054-1.153-1.332-.312-.278-.828-.62-1.145-.761a6.875 6.875 0 0 0-1.351-.386c-.564-.095-1.304-.08-2.729.054-1.075.102-2.702.283-3.615.403-.913.12-2.473.357-3.467.528a73.22 73.22 0 0 0-3.905.816c-1.155.278-2.415.576-2.801.662-.387.087-1.848.5-3.248.92Zm-3.815 7.877c.222.063.541.244.708.401.27.253.355.474.746 1.931l.442 1.646 1.765-.435c1.583-.39 1.803-.42 2.119-.297.194.076.487.242.651.369.222.172.34.389.463.846.123.457.128.705.023.964a3.14 3.14 0 0 1-.38.645c-.212.265-.417.348-1.983.801l-1.747.506.441 1.646c.39 1.457.427 1.692.32 2.045a2.04 2.04 0 0 1-.413.701c-.19.198-.482.354-.837.45-.39.104-.664.105-.961.003a2.097 2.097 0 0 1-.712-.455c-.25-.265-.362-.558-.726-1.917l-.43-1.604-1.58.423c-1.427.382-1.634.413-2.122.315a1.49 1.49 0 0 1-.906-.513c-.202-.223-.399-.527-.439-.675-.04-.15-.02-.511.042-.804.084-.39.226-.632.529-.898.373-.329.567-.405 1.994-.787l1.58-.424-.43-1.604c-.364-1.359-.415-1.668-.33-2.023a2.1 2.1 0 0 1 .389-.75c.207-.236.444-.372.834-.476.355-.095.686-.106.95-.03Zm22.897-5.618c.243.031.614.147.825.258.21.11.523.366.694.568.17.202.367.58.437.84s.089.686.042.946c-.047.26-.19.638-.317.84-.127.2-.39.486-.585.635a2.71 2.71 0 0 1-.788.385 2.722 2.722 0 0 1-.876.06 2.937 2.937 0 0 1-.824-.258 2.807 2.807 0 0 1-.694-.568 2.559 2.559 0 0 1-.434-.817 2.625 2.625 0 0 1-.062-.884c.034-.24.155-.606.269-.815a2.85 2.85 0 0 1 .583-.688c.206-.17.58-.366.832-.434.251-.069.656-.1.898-.068Zm-5.037 8.557c.242.03.613.147.824.257.211.11.523.367.694.569.171.202.368.58.438.84s.088.686.041.946c-.047.26-.19.638-.316.839a2.938 2.938 0 0 1-.586.635 2.71 2.71 0 0 1-.788.386 2.715 2.715 0 0 1-.875.06 2.934 2.934 0 0 1-.825-.258 2.805 2.805 0 0 1-.694-.568 2.556 2.556 0 0 1-.433-.817 2.623 2.623 0 0 1-.062-.884 2.88 2.88 0 0 1 .268-.815 2.85 2.85 0 0 1 .583-.689c.206-.17.581-.365.832-.433a2.7 2.7 0 0 1 .899-.068Z" fill="#0086FF"/><path d="M30.105 20.698c.242.03.613.147.824.257.211.11.523.367.694.569.171.202.368.58.438.84s.088.686.041.946c-.047.26-.19.638-.316.839a2.938 2.938 0 0 1-.586.635 2.71 2.71 0 0 1-.788.386 2.715 2.715 0 0 1-.875.06 2.934 2.934 0 0 1-.825-.258 2.805 2.805 0 0 1-.694-.568 2.556 2.556 0 0 1-.433-.817 2.623 2.623 0 0 1-.062-.884 2.88 2.88 0 0 1 .268-.815 2.85 2.85 0 0 1 .583-.689c.206-.17.581-.365.832-.433a2.7 2.7 0 0 1 .899-.068Z" fill="#0069B7"/></svg>