<svg width="16" height="21" fill="none" xmlns="http://www.w3.org/2000/svg"><path d="M5.714 15.75c-.63 0-1.143.47-1.143 1.05 0 .58.512 1.05 1.143 1.05h4.572c.63 0 1.143-.47 1.143-1.05 0-.58-.512-1.05-1.143-1.05H5.714Z" fill="#0086FF"/><path fill-rule="evenodd" clip-rule="evenodd" d="M13.714 0H2.286C1.023 0 0 .94 0 2.1v16.8C0 20.06 1.023 21 2.286 21h11.428C14.977 21 16 20.06 16 18.9V2.1C16 .94 14.977 0 13.714 0Zm0 2.1H11.43c0 1.16-1.024 2.1-2.286 2.1H6.857c-1.262 0-2.286-.94-2.286-2.1H2.286v16.8h11.428V2.1Z" fill="#0086FF"/></svg>