<svg width="50" height="50" fill="none" xmlns="http://www.w3.org/2000/svg"><path fill-rule="evenodd" clip-rule="evenodd" d="M27.547.12a3.99 3.99 0 0 0-.723.42c-.296.216-.51.489-.719.92l-.298.613v4.94l-.546-.262c-.479-.23-.665-.263-1.497-.264-.872 0-1.002.026-1.592.313a5.41 5.41 0 0 0-1.166.821 4.182 4.182 0 0 0-.804 1.104 5.342 5.342 0 0 0-.377 1.233 4.075 4.075 0 0 0-.008 1.194c.049.307.173.754.277.994l.188.437-5.053.03c-4.929.028-5.062.034-5.49.237a4.05 4.05 0 0 0-.84.58 3.65 3.65 0 0 0-.647.866c-.202.401-.25.633-.252 1.227-.003.565.048.851.221 1.249.135.31.41.686.69.945.255.237.666.499.913.582.3.102 1.783.248 4.492.444 3.21.232 4.172.333 4.67.49.344.11.89.381 1.214.604a5.1 5.1 0 0 1 .968.896c.208.272.476.694.596.94.119.244.27.68.337.969.066.288.099.793.072 1.123a7.86 7.86 0 0 1-.245 1.283 11.523 11.523 0 0 0-.296 1.514 7.259 7.259 0 0 0-.011 1.616c.048.432.139 1.003.202 1.27.062.267.283.917.491 1.445l.378.96-4.125 9.72-.538.304a10.7 10.7 0 0 0-.932.597c-.268.2-.49.493-.693.92-.244.508-.3.743-.297 1.25.001.345.044.77.095.947.05.177.177.462.281.635.104.173.31.432.457.575.148.144 1.31.901 2.585 1.683 1.274.782 2.465 1.45 2.646 1.486.181.035.582.04.89.011.359-.033.712-.143.982-.305.23-.14.553-.419.715-.62.163-.202.363-.604.446-.894a3.12 3.12 0 0 0 .106-.996 3.214 3.214 0 0 0-.277-.939 19.07 19.07 0 0 0-.74-1.273l-.506-.805 2.238-4.036.373.918c.205.505.62 1.535.922 2.288l.55 1.37-.438.828c-.416.788-.437.865-.437 1.61 0 .614.046.877.215 1.23.119.247.375.614.57.816.195.201.526.46.735.576.363.2.518.212 3.443.24 2.843.027 3.093.016 3.473-.157.226-.103.559-.32.74-.485.182-.163.427-.497.545-.74a3.43 3.43 0 0 0 .27-.921c.036-.306.001-.67-.095-1.01a2.948 2.948 0 0 0-.498-.95c-.269-.323-.654-.575-1.69-1.108a45.635 45.635 0 0 1-1.379-.723c-.02-.02-.243-1.378-.496-3.02-.254-1.642-.5-3.062-.549-3.155 0-.19-1.4-9.494-1.587-10.69l-.34-2.177.051-2.491c.035-1.68.098-2.698.194-3.126.078-.35.355-1.259.617-2.02.261-.762.55-1.773.64-2.247.11-.579.162-1.312.158-2.23-.004-.926-.161-2.886-.488-6.076-.436-4.254-.505-4.753-.716-5.177a3.486 3.486 0 0 0-.55-.782 3.185 3.185 0 0 0-.745-.51c-.296-.138-.619-.197-1.045-.194-.34.003-.754.057-.92.12Zm3.328 41.096c-.221-1.424-.404-2.775-.407-3.002a4054.56 4054.56 0 0 0-1.86-11.725l-.049-.22h-4.922l-.069.658c-.046.448-.021.927.078 1.504.121.702.645 2.086 3.07 8.11 1.609 3.995 2.933 7.277 2.944 7.292.01.016.378.016.817 0l.799-.028-.401-2.589ZM28.979 2.262c-.075-.121-.174-.22-.22-.22a.861.861 0 0 1-.212-.041.477.477 0 0 0-.27.013c-.078.03-.217.12-.308.202-.132.119-.167.308-.167.916v.766h1.445l-.066-.708c-.037-.39-.127-.807-.202-.928Zm.831 7.214c-.172-1.805-.334-3.36-.36-3.453-.038-.146-.164-.171-.846-.171h-.802v2.32c0 1.276-.045 2.606-.098 2.955-.053.35-.221.899-.374 1.221a4.598 4.598 0 0 1-.686 1.014c-.225.235-.58.54-.79.677a4.61 4.61 0 0 1-.934.427c-.51.164-.995.178-5.915.178h-5.36v2.052h.27c.149 0 1.207.066 2.352.146 1.145.08 2.397.217 2.783.303.392.087 1.072.35 1.543.599a7.33 7.33 0 0 1 1.457 1.021c.339.319.83.908 1.09 1.31a6.75 6.75 0 0 1 .726 1.533c.187.601.254 1.029.264 1.706l.014.903h4.324V22.13c0-1.438.045-2.357.146-2.955.08-.477.298-1.307.483-1.844.186-.538.443-1.329.571-1.759.129-.43.284-1.238.345-1.797.102-.931.085-1.292-.203-4.299Zm-4.501-.252a2.304 2.304 0 0 0-.683-.55 2.467 2.467 0 0 0-.865-.182 1.921 1.921 0 0 0-.897.217c-.23.121-.537.374-.681.562-.144.188-.316.55-.381.806-.096.373-.096.556 0 .928.065.255.238.618.384.806.147.188.433.44.637.56.265.156.528.219.921.22.363.001.676-.064.918-.19.201-.107.496-.355.655-.553a2.49 2.49 0 0 0 .399-.833 1.81 1.81 0 0 0 0-.947 2.52 2.52 0 0 0-.407-.844ZM11.745 16.5v-1.856l-.546.004c-.3.002-.663.069-.806.148-.142.08-.302.23-.356.332a1.148 1.148 0 0 0-.097.444c0 .142.046.346.102.454.057.109.248.26.425.336.177.076.537.138.8.138h.478Zm11.913 23.806c.972-1.754 1.38-2.579 1.34-2.708-.031-.103-.33-.858-.663-1.678-.542-1.334-.615-1.466-.697-1.248-.05.134-.614 1.474-1.253 2.978a963.594 963.594 0 0 0-1.476 3.485l-.314.749.814.5c.447.274.821.487.832.472.01-.016.648-1.163 1.417-2.55Zm-1.597 4.838-1.324-.816a54.475 54.475 0 0 0-1.382-.836c-.03-.011-.227.07-.436.182a3.34 3.34 0 0 0-.586.395 1.076 1.076 0 0 0-.267.444c-.034.137-.01.375.051.528.087.216.56.555 2.11 1.51 1.1.678 2.131 1.289 2.293 1.357.185.078.373.093.505.042a.524.524 0 0 0 .272-.33.853.853 0 0 0-.002-.414c-.034-.092-.325-.593-.648-1.114l-.586-.948Zm12.916 2.035c-.043-.14-.425-.392-1.194-.788l-1.132-.584h-3.124l-.292.525c-.161.289-.292.66-.292.825 0 .176.094.413.229.574l.229.274 2.495.03c1.755.02 2.576-.005 2.765-.086.149-.063.295-.216.325-.34a.956.956 0 0 0-.009-.43Z" fill="#fff"/><path d="m20.737 44.328 1.324.816.587.948c.322.521.614 1.023.648 1.114a.843.843 0 0 1 0 .413.524.524 0 0 1-.27.33c-.133.052-.321.037-.506-.041-.162-.068-1.193-.679-2.292-1.356-1.55-.956-2.024-1.295-2.11-1.51a1.024 1.024 0 0 1-.052-.53c.034-.137.154-.336.267-.443a3.34 3.34 0 0 1 .586-.395c.209-.111.405-.193.436-.182.032.01.653.387 1.382.836Zm13.045 2.062c.77.397 1.152.65 1.195.79a.956.956 0 0 1 .009.43c-.03.123-.176.276-.325.339-.189.08-1.01.106-2.765.086l-2.495-.03-.23-.274a.998.998 0 0 1-.228-.574c0-.165.131-.536.292-.825l.292-.525h3.124l1.131.584Z" fill="#fff"/></svg>