<svg width="18" height="20" fill="none" xmlns="http://www.w3.org/2000/svg"><path fill-rule="evenodd" clip-rule="evenodd" d="M0 18.143a.904.904 0 1 0 1.805 0v-3.62h5.417v2.263c0 .5.404.904.902.904h8.125a.902.902 0 0 0 .863-1.17l-1.72-5.604 1.713-5.154a.906.906 0 0 0-.856-1.19h-4.514v-.905c0-.5-.404-.905-.902-.905H1.804v-.905a.904.904 0 1 0-1.805 0v16.286ZM1.805 4.57v8.143H9.93V4.571H1.805Zm9.93 9.048V6.381h3.261l-1.41 4.238a.907.907 0 0 0-.005.552l1.446 4.71h-6v-1.357h1.806a.904.904 0 0 0 .902-.905Z" fill="#3B3B3B"/></svg>