<svg width="50" height="50" fill="none" xmlns="http://www.w3.org/2000/svg"><path d="M36.975 23.47c0 .288-.288.79-.64 1.114-.482.446-.831.495-1.425.202-.433-.214-.787-.713-.787-1.109s.317-.884.703-1.083a1.57 1.57 0 0 1 1.425-.006c.398.197.724.594.724.882Zm4.355-1.44c.14.339.069.889-.16 1.223-.228.334-.74.607-1.14.607-.4 0-.913-.273-1.14-.607-.229-.334-.3-.884-.16-1.223.145-.348.71-.615 1.3-.615.59 0 1.155.267 1.3.615Zm.919 4.062c.366.408.372.737.022 1.34-.255.439-.752.746-1.105.682-.353-.064-.828-.39-1.055-.724-.228-.334-.3-.884-.159-1.222.141-.339.606-.616 1.034-.616.427 0 .995.243 1.263.54Zm-4.312 1.153c.129.31.134.805.012 1.1-.122.293-.507.635-.854.758s-.882.03-1.19-.205c-.308-.236-.56-.719-.56-1.072 0-.354.123-.757.272-.895.15-.138.68-.25 1.179-.25.498 0 1.012.253 1.141.564Z" fill="#fff"/><path fill-rule="evenodd" clip-rule="evenodd" d="M36.354 19.921c-.678.19-1.87.95-2.648 1.692-1.322 1.259-1.416 1.511-1.416 3.799 0 2.383.046 2.49 1.666 3.885 1.134.977 2.209 1.519 3.372 1.7 1.364.213 2.09.09 3.623-.614 1.132-.52 2.225-1.38 2.67-2.098.428-.692.754-1.952.754-2.92 0-.985-.322-2.213-.761-2.908-.42-.662-1.305-1.493-1.969-1.847-.664-.353-1.85-.73-2.634-.837-.784-.107-1.98-.04-2.657.148Zm1.913 10.174c2.913 0 5.274-2.223 5.274-4.965s-2.361-4.965-5.274-4.965c-2.912 0-5.273 2.223-5.273 4.965s2.36 4.965 5.273 4.965Z" fill="#fff"/><path fill-rule="evenodd" clip-rule="evenodd" d="M38.267 31.896c3.97 0 7.187-3.03 7.187-6.766 0-3.737-3.217-6.766-7.187-6.766-3.969 0-7.186 3.03-7.186 6.766 0 3.737 3.217 6.766 7.186 6.766Zm-4.561-10.283c.778-.742 1.97-1.503 2.648-1.692.677-.188 1.873-.255 2.657-.148.785.107 1.97.484 2.634.837.664.354 1.55 1.185 1.969 1.847.44.695.761 1.923.761 2.907 0 .969-.325 2.23-.754 2.92-.445.72-1.538 1.578-2.67 2.099-1.532.704-2.26.827-3.623.614-1.163-.181-2.238-.723-3.372-1.7-1.62-1.395-1.666-1.502-1.666-3.885 0-2.288.095-2.54 1.416-3.8Z" fill="#fff"/><path d="M34.784 37.514c-.127.19-1.62.97-3.316 1.733-1.697.765-4.448 1.712-6.114 2.105-2.37.56-3.299.628-4.27.315-.683-.22-1.512-.88-1.84-1.468-.33-.588-.6-1.321-.6-1.63 0-.308-.172-.659-.382-.779-.21-.12-1.102-.112-1.98.018-.88.13-1.817.36-2.085.513-.362.207-.166 1.462.773 4.944 1.052 3.906 1.455 4.835 2.472 5.7.363.31.66.529.982.683h6.498a29.29 29.29 0 0 0 2.11-.4c1.772-.414 4.505-1.335 6.073-2.049 1.568-.713 3.488-1.79 4.266-2.395l1.415-1.099-.814-3.152c-.747-2.899-.9-3.162-1.885-3.268-.59-.064-1.176.039-1.303.229ZM4.794.918c-.28.31-.504.945-.498 1.41.005.465 1.658 7.023 3.672 14.573 2.015 7.551 3.985 14.998 4.378 16.55.392 1.551.856 2.968 1.03 3.148.176.183 1.222.126 2.384-.132 1.138-.252 2.07-.587 2.07-.745 0-.157-2.018-7.854-4.484-17.105C10.88 9.366 8.674 1.472 8.443 1.074 8.16.584 7.59.352 6.663.352c-.748 0-1.59.254-1.87.566Z" fill="#fff"/></svg>