<svg width="50" height="50" fill="none" xmlns="http://www.w3.org/2000/svg"><path d="M15.874 2.16c0-.321 1.519-.92 3.374-1.33 1.855-.411 4.445-.782 5.754-.826 1.31-.044 3.743.293 5.406.75 2.463.675 2.98 1.148 2.779 2.544-.204 1.415-1.258 1.974-6.037 3.207l-5.79 1.492-2.742-2.627c-1.51-1.444-2.743-2.89-2.743-3.21Zm5.954 9.188 5.159-1.328c2.837-.73 5.528-1.362 5.98-1.404.451-.041 2.742 1.847 5.091 4.196l4.27 4.272-1.563 5.725-1.564 5.726-6.12 1.546-6.12 1.547-4.132-4.083-4.133-4.082 1.566-6.058 1.566-6.057ZM43.92 23.97c.9-3.095 2.014-5.888 2.472-6.205.46-.317 1.243-.58 1.742-.588.5-.006 1.124.547 1.389 1.229.265.682.48 3.416.477 6.077-.002 2.66-.388 6.203-.858 7.873l-.853 3.037-3.004-2.896-3.002-2.897 1.637-5.63ZM.529 30.556C.239 29.121 0 27.066 0 25.99c0-1.652.187-1.806 1.19-.983.655.537 1.166 1.903 1.136 3.036-.031 1.134-.329 2.75-.663 3.592-.514 1.297-.688 1.132-1.134-1.078Zm5.424-2.731 3.572-.94c1.964-.518 4.298-.975 5.186-1.018.967-.046 3.303 1.613 5.824 4.135l4.21 4.21-1.35 4.757c-.744 2.616-1.877 4.956-2.52 5.199-.641.244-3.011.648-5.266.9-4.076.455-4.121.436-7.811-3.333l-3.712-3.791.934-5.06.933-5.059Zm13.097 20.69c0-.364.803-.785 1.785-.935.983-.152 2.601.224 3.597.835s1.645 1.275 1.443 1.475c-.203.2-1.822.12-3.598-.176-1.775-.297-3.228-.836-3.228-1.199Z" fill="#0086FF"/><path d="M9.021 5.79C7.653 6.856 5.425 9.435 4.07 11.521c-1.355 2.088-2.652 4.828-2.882 6.092-.315 1.74.087 2.853 1.663 4.593l2.08 2.296 4.877-.985c2.682-.54 5.095-1.221 5.361-1.511.267-.29 1.14-3.089 1.94-6.22l1.457-5.69-3.094-3.13c-1.701-1.722-3.289-3.126-3.528-3.122-.239.005-1.553.88-2.922 1.946Zm24.316 27.758c-4.738 1.224-5.233 1.555-6.056 4.04-.492 1.49-1.13 3.789-1.419 5.11-.464 2.128-.194 2.634 2.372 4.437 2.533 1.78 3.21 1.93 5.389 1.193 1.37-.463 3.385-1.378 4.476-2.032 1.091-.654 2.997-2.095 4.235-3.202 1.238-1.107 2.611-2.67 3.052-3.473.652-1.19.244-2.022-2.214-4.509-1.658-1.677-3.388-3.014-3.845-2.973-.457.042-3.153.676-5.99 1.41Zm3.174-28.313c0 .769 1.9 3.252 4.223 5.518 2.956 2.884 4.621 3.968 5.551 3.615 1.238-.468 1.234-.666-.054-2.847-.762-1.289-2.726-3.544-4.364-5.014-1.639-1.47-3.513-2.671-4.167-2.671-.654 0-1.189.63-1.189 1.399Z" fill="#0069B7"/></svg>