<svg width="50" height="50" fill="none" xmlns="http://www.w3.org/2000/svg"><path d="M.133 3.786C.013 2.485-.035 1.101.028.71.09.319 2.193 0 4.699 0h4.558l1.268 5.212c.698 2.867 1.008 5.452.689 5.745-.32.293-2.505.003-4.858-.646-2.353-.648-4.666-1.848-5.14-2.668C.74 6.823.252 5.088.132 3.786Zm3.219 14.726C2.718 16.2 2.2 13.9 2.2 13.4c0-.523 1.978-.36 4.668.384 2.567.71 5.06 1.515 5.538 1.787.478.271 1.085 1.531 1.349 2.799.424 2.042-.023 2.421-3.936 3.327-2.428.562-4.617 1.022-4.865 1.022-.248 0-.97-1.892-1.602-4.206Zm1.738 7.425 14.25-2.939c7.837-1.616 16.254-2.98 18.703-3.029 3.643-.074 5.012.423 7.522 2.731 2.603 2.395 3.02 3.434 2.75 6.863-.266 3.4-.643 4.007-2.375 3.826-1.132-.118-3.298.015-4.813.296-1.515.283-3.917 1.581-5.339 2.888-1.42 1.307-2.89 3.669-3.268 5.25l-.687 2.874-8.899-.637c-5.984-.429-9.741-1.19-11.471-2.324-1.415-.927-3.152-3.279-3.862-5.225-.708-1.946-1.562-5.121-1.898-7.056l-.613-3.518Z" fill="#fff"/><path d="M37.347 41.352c.65-1.138 1.692-2.382 2.315-2.764.623-.383 2.137-.702 3.364-.71 1.227-.008 3 .257 3.938.588.939.331 2.123 1.609 2.632 2.84.56 1.354.536 3.176-.059 4.615-.54 1.308-2.15 2.867-3.576 3.466-1.953.818-3.235.818-5.187 0-1.427-.599-3.048-2.185-3.602-3.527-.696-1.682-.642-3.083.175-4.508Z" fill="#fff"/></svg>