<svg width="50" height="50" fill="none" xmlns="http://www.w3.org/2000/svg"><path fill-rule="evenodd" clip-rule="evenodd" d="M23.243.208c-.23.114-.53.353-.666.53-.136.179-.925 1.848-1.754 3.71l-1.506 3.386v5.696c0 5.34-.011 5.698-.171 5.743a8.343 8.343 0 0 1-.855.11c-.376.034-1.475.15-2.442.257a78.43 78.43 0 0 0-2.98.389c-.67.106-1.647.298-2.169.426-.521.129-1.215.354-1.542.5-.327.147-.7.393-.83.547-.13.155-.264.43-.298.61-.042.223-.006.449.11.694.106.222.349.476.62.648.246.156.711.365 1.034.465.323.1 1.005.271 1.514.381.51.11 1.542.288 2.294.396.753.108 1.983.263 2.735.345a287.605 287.605 0 0 0 5.675.544c.06 0 .191.186.293.412.16.353.186.65.186 2.075v1.663l-1.905.17c-1.047.093-2.937.283-4.2.422-1.262.14-3.042.38-3.956.537-.913.156-2.018.395-2.456.53-.437.137-1.009.39-1.27.565-.352.235-.51.42-.613.72-.122.352-.121.453.003.781.098.262.288.476.615.696.26.174.832.427 1.271.561.439.134 1.268.33 1.842.435.575.106 1.694.28 2.487.388.793.108 2.563.307 3.933.442 1.37.135 2.886.279 3.37.32l.879.075.066 3.613c.037 1.987.109 4.031.16 4.541.051.51.087.933.08.938-.007.005-.65-.049-1.43-.12-.778-.071-2.515-.243-3.858-.381a110.055 110.055 0 0 1-4.004-.487c-.86-.13-1.886-.303-2.281-.386-.395-.083-.785-.188-.866-.234-.107-.06-.018-.115.328-.202.26-.066.933-.204 1.494-.307.56-.103 1.703-.274 2.54-.38.835-.105 2.201-.26 3.034-.342.832-.082 1.728-.177 1.99-.21l.478-.06-.053-.777c-.03-.428-.077-.801-.106-.83-.03-.03-.791.02-1.694.11-.902.09-2.366.252-3.253.36-.886.107-2.11.28-2.72.385a32.02 32.02 0 0 0-1.891.384 9.876 9.876 0 0 0-1.362.454c-.318.143-.685.386-.815.54-.13.155-.265.432-.3.616-.043.233-.007.447.119.703.1.203.357.488.572.633.215.145.665.354 1.002.465.336.111 1.154.312 1.818.446.663.134 1.86.33 2.66.435.8.105 2.092.258 2.87.341.78.083 2.362.238 3.517.346 1.155.107 2.173.196 2.262.196.122 0 .178.128.226.514.036.282.126.733.2 1.002.086.305.258.607.458.8.177.17.445.356.597.413.15.057.445.104.653.104.207 0 .501-.047.653-.104.15-.057.419-.242.595-.412.19-.183.378-.506.464-.793.079-.266.143-.61.143-.763 0-.164.064-.302.156-.337.085-.033.998.015 2.027.107 1.029.091 3.058.298 4.508.46 1.45.16 3.257.397 4.014.524.758.128 1.68.334 2.052.458.634.212.676.244.704.543l.031.317h1.648v-.498c0-.274-.069-.644-.153-.822-.085-.178-.316-.435-.513-.57a3.93 3.93 0 0 0-.652-.36c-.161-.063-.601-.2-.977-.307a22.82 22.82 0 0 0-1.665-.373c-.54-.1-1.661-.27-2.491-.378-.83-.108-2.432-.288-3.56-.4a410.369 410.369 0 0 0-3.42-.324l-1.367-.121.015-.438a99.42 99.42 0 0 1 .121-1.995c.063-.907.152-1.584.214-1.622.059-.036.51-.096 1.002-.132a177.75 177.75 0 0 0 3.288-.308c1.316-.133 3.059-.33 3.873-.438.813-.108 1.912-.28 2.442-.381a25.39 25.39 0 0 0 1.65-.376 7.866 7.866 0 0 0 1.187-.445c.274-.139.59-.368.701-.51a1.6 1.6 0 0 0 .264-.585c.042-.224.004-.444-.12-.698-.121-.248-.35-.47-.694-.676-.282-.168-.942-.42-1.465-.56-.524-.14-1.325-.32-1.782-.401a61.758 61.758 0 0 0-1.881-.292c-.578-.08-2.073-.254-3.321-.385a200.25 200.25 0 0 0-3.762-.362l-1.491-.122.052-4.115.88-.075c.483-.041 1.977-.184 3.32-.319 1.344-.134 3.118-.334 3.944-.443.826-.11 1.967-.285 2.535-.39a19.957 19.957 0 0 0 1.82-.43c.432-.132.997-.374 1.255-.538.303-.193.52-.42.614-.644a1.25 1.25 0 0 0 .078-.706c-.042-.234-.193-.484-.427-.709-.205-.197-.623-.443-.964-.567a16.882 16.882 0 0 0-1.652-.453 35.572 35.572 0 0 0-2.123-.391c-.591-.087-1.998-.263-3.126-.39-1.128-.128-2.079-.203-2.112-.165-.034.037-.09.407-.126.822-.063.73-.058.755.159.801.122.027.904.119 1.737.206.833.087 2.224.262 3.092.39.868.127 1.989.329 2.49.448l.913.218-.558.173c-.307.096-1.45.306-2.54.469-1.09.162-2.64.365-3.446.45-.806.086-2.363.24-3.461.342-1.098.103-2.006.177-2.018.165-.011-.012.814-2.11 1.835-4.66 1.02-2.552 1.87-4.655 1.89-4.674.018-.02.948-.138 2.066-.264 1.118-.125 2.362-.276 2.765-.333a77.263 77.263 0 0 0 1.367-.21 28.17 28.17 0 0 0 1.608-.341c.535-.13 1.256-.378 1.604-.552.347-.174.72-.437.83-.586.136-.185.21-.468.239-.903l.04-.634h-1.683v.29c0 .196-.068.326-.21.401a3.365 3.365 0 0 1-.512.203c-.167.05-.7.173-1.183.274-.483.1-1.56.275-2.393.388-.833.113-2.02.26-2.637.329l-1.123.124v-5.033c0-4.013-.028-5.11-.134-5.411-.074-.209-.29-.553-.482-.764-.191-.212-.505-.463-.697-.559-.191-.096-1.469-.45-2.839-.788-1.37-.337-2.524-.643-2.565-.68-.042-.036.084-.59.28-1.232.216-.709.353-1.36.351-1.666a2.128 2.128 0 0 0-.197-.878 2.59 2.59 0 0 0-.424-.594 2.388 2.388 0 0 0-.593-.366A2.577 2.577 0 0 0 24.13 0c-.28 0-.635.083-.887.208Zm1.232 1.717c.017.119-.412 1.688-.952 3.488l-.983 3.273v4.788c0 2.633.022 4.788.05 4.788.027 0 .698-.326 1.49-.725 1.285-.646 1.517-.803 2.169-1.464.725-.736.734-.741 1.242-.741.284 0 .76-.093 1.072-.21.33-.123.75-.388 1.025-.644.256-.24.577-.659.713-.933l.248-.498v2.318c0 1.732-.033 2.397-.133 2.635l-.132.317-4.336.366c-2.385.201-4.479.388-4.654.416l-.317.05V8.28l1.386-3.139c.762-1.726 1.452-3.217 1.533-3.313a.434.434 0 0 1 .348-.147.277.277 0 0 1 .231.245Zm3.171 5.256c1.963.489 2.601.686 2.732.84.147.175.171.416.17 1.682v1.479l-.232-.489a3.533 3.533 0 0 0-.56-.82 4.653 4.653 0 0 0-.672-.546 3.85 3.85 0 0 0-.704-.334c-.199-.065-.641-.119-.984-.119-.384 0-.817.075-1.133.195a4.045 4.045 0 0 0-.937.543c-.234.192-.525.508-.645.704a4.524 4.524 0 0 0-.346.708c-.116.325-.127.26-.13-.809-.004-1.058.027-1.268.348-2.344.194-.65.372-1.215.396-1.255.024-.04.065-.073.09-.073.025 0 1.198.287 2.607.638Zm.403 3.502c.179.075.447.295.595.489.162.213.286.517.312.767.032.304-.017.531-.183.854a1.624 1.624 0 0 1-.617.663c-.3.172-.499.215-.862.185-.262-.022-.587-.125-.732-.233a2.552 2.552 0 0 1-.482-.516 1.313 1.313 0 0 1-.22-.76c0-.262.083-.581.207-.802a1.8 1.8 0 0 1 .561-.572c.196-.114.522-.208.725-.209a2.13 2.13 0 0 1 .696.134Zm-3.145 3.428.399.453-.474.482c-.261.265-.51.481-.552.481-.042 0-.073-.604-.069-1.342.008-1.309.011-1.333.152-.936.08.225.324.612.544.862Zm4.54 6.323a371.24 371.24 0 0 0-.856 2.157l-.725 1.84-.488-.056a169.48 169.48 0 0 0-2.433-.225l-1.944-.17-.866-1.077c-.602-.747-.91-1.224-1.01-1.557-.08-.265-.132-.494-.116-.51.015-.015 1.718-.177 3.785-.36 2.066-.183 3.987-.339 4.27-.346l.514-.013-.13.317Zm-10.092.733c.026.094.078.325.116.513.037.188.156.517.263.732.108.215.348.6.534.855l.338.463h-.281c-.155 0-1.137-.088-2.182-.195-1.045-.108-2.45-.263-3.12-.346a73.48 73.48 0 0 1-2.35-.334 31.64 31.64 0 0 1-1.853-.36l-.724-.174.436-.128c.24-.07 1.052-.236 1.804-.367.752-.13 2.114-.327 3.028-.436.913-.108 2.012-.236 2.441-.283.43-.047.944-.091 1.142-.098.266-.01.372.032.408.158Zm6.437 4.751c.686.07 1.274.153 1.306.186.032.032-.24.807-.606 1.723l-.664 1.665h-.36c-.197 0-.562.028-.811.062l-.454.062v-1.6c0-.881-.04-1.744-.09-1.918-.087-.302-.079-.316.17-.312.144.003.823.063 1.51.132Zm-.026 9.07-.453-.063a7.12 7.12 0 0 0-.781-.062H24.2V31.26l.513-.036.781-.054.27-.018v3.835Zm-3.223-1.931c0 1.47-.015 1.61-.171 1.61-.094 0-1.116-.09-2.271-.198-1.155-.108-2.87-.282-3.81-.386a94.319 94.319 0 0 1-3.32-.44c-.887-.136-1.876-.323-2.198-.413l-.586-.165.559-.17c.307-.094 1.45-.303 2.54-.466 1.089-.162 2.837-.385 3.885-.495 1.047-.11 2.52-.26 3.272-.332a47.494 47.494 0 0 1 1.733-.144l.367-.013v1.612Zm2.895 3.564h.328v3.613l-.269.001a8.69 8.69 0 0 0-.78.063l-.514.061v-3.862l.454.062c.249.034.6.062.78.062Zm3.93.345c.893.082 2.437.237 3.43.345.995.107 2.599.307 3.566.443.967.136 2.132.337 2.588.448.457.11.845.212.862.228.017.015-.357.118-.831.23-.474.11-1.476.292-2.227.402-.752.11-2.114.286-3.028.39-.914.105-2.607.28-3.762.388a81.32 81.32 0 0 1-2.32.198c-.219.001-.22-.004-.22-1.61 0-1.423.02-1.612.16-1.612.087 0 .889.068 1.782.15Zm-3.699 5.588c0 .362-.05 1.223-.113 1.913l-.114 1.254-.448-.067a4.436 4.436 0 0 1-.462-.082 28.506 28.506 0 0 1-.122-1.144c-.06-.62-.11-1.42-.11-1.777v-.649l.514-.035c.282-.02.59-.044.683-.054.148-.016.172.071.172.64Zm-.525 5.265c-.034.251-.084.478-.11.505a.069.069 0 0 1-.098 0c-.026-.027-.076-.254-.11-.505-.06-.427-.05-.456.159-.456.208 0 .218.029.16.456Z" fill="#fff"/></svg>