<svg width="50" height="50" fill="none" xmlns="http://www.w3.org/2000/svg"><path d="M43.434 45.057c0 .255-.271.601-1.026 1.308 2.018-1.768 3.197-4.45 3.752-6.31a.856.856 0 0 1-.1.16c-.19.23-.409.329-.728.329-.263 0-.547-.1-.668-.233a1.743 1.743 0 0 1-.29-.451.536.536 0 0 1-.022-.164c-.432 2.233-2.378 4.47-3.373 5.367.855-.763 1.168-.962 1.51-.962a.88.88 0 0 1 .688.304c.141.167.257.46.257.652Z" fill="#fff"/><path d="M38.94 46.57c.529-.3 1.446-.978 2.04-1.507.994-.897 2.94-3.134 3.373-5.367a2.314 2.314 0 0 1 .075-.57c.074-.284.19-2.197.26-4.252.092-2.759.185-3.943.355-4.53a8.513 8.513 0 0 1 .515-1.327c.157-.293.683-1.097 1.17-1.788.487-.69.994-1.526 1.126-1.856.172-.43.2-.662.097-.819-.078-.12-.315-.3-.525-.398a1.518 1.518 0 0 0-.86-.094c-.264.047-.871.342-1.351.655s-1.227.972-1.66 1.463c-.433.492-1.015 1.308-1.294 1.815-.278.506-.569 1.236-.645 1.622-.077.387-.243.812-.37.945-.133.141-.422.243-.687.243-.328 0-.54-.1-.747-.351-.283-.345-.29-.48-.29-6.64 0-5.484-.027-6.328-.218-6.587-.12-.164-.4-.387-.621-.497-.222-.11-.536-.199-.697-.199-.161 0-.484.094-.716.209-.236.116-.512.41-.622.663-.164.373-.199 1.75-.199 7.785v7.332l-.368.277c-.202.152-.478.276-.613.276s-.394-.114-.575-.255l-.33-.255-.07-9.428-.07-9.428-.456-.389c-.341-.291-.595-.389-1.01-.389-.415 0-.67.098-1.01.39l-.457.388-.038 8.977-.038 8.977-.3.306a1.07 1.07 0 0 1-.696.306c-.217 0-.52-.12-.674-.267-.273-.26-.28-.445-.28-7.208 0-5.697-.035-7.023-.198-7.395a1.529 1.529 0 0 0-.622-.663c-.233-.115-.555-.209-.716-.209-.162 0-.475.09-.697.2-.222.109-.502.332-.622.496-.19.259-.218 1.078-.218 6.316 0 3.31-.042 6.936-.092 8.056-.082 1.81-.124 2.066-.376 2.29-.156.138-.431.252-.612.252s-.488-.152-.682-.337l-.352-.336.03-5.608c.03-5.42.022-5.62-.248-5.967-.153-.198-.49-.427-.75-.509a1.654 1.654 0 0 0-.879-.037 2.038 2.038 0 0 0-.668.336c-.142.123-.322.44-.399.704-.085.293-.14 3.25-.14 7.555 0 3.996.061 7.566.142 8.204.078.622.273 1.549.432 2.06.16.51.48 1.291.714 1.734.233.443.618 1.075.854 1.406.237.33.716.893 1.064 1.25.35.359.996.917 1.438 1.242.441.325 1.29.824 1.886 1.108a15 15 0 0 0 2.13.797c.577.154 1.645.316 2.375.36.77.045 1.767.013 2.375-.077a16.19 16.19 0 0 0 2.197-.534 14.041 14.041 0 0 0 2.11-.922Z" fill="#0086FF"/><path fill-rule="evenodd" clip-rule="evenodd" d="M18.917.267a30.27 30.27 0 0 0-2.934.669c-.768.226-2.151.755-3.073 1.177-.922.421-2.21 1.115-2.864 1.54a27.974 27.974 0 0 0-1.92 1.373C3 8.5.047 14.833.047 20.084c-.055.351-.064 1.453-.02 2.448.045.996.214 2.439.375 3.207.162.769.489 1.968.727 2.665a25.95 25.95 0 0 0 1.02 2.468c.322.66.856 1.62 1.186 2.135.33.513.991 1.414 1.47 2 .48.588 1.53 1.672 2.334 2.412.804.739 2.051 1.72 2.772 2.18.72.46 1.916 1.127 2.656 1.482a28.27 28.27 0 0 0 2.739 1.108c.766.255 2.017.583 2.78.73.764.148 1.744.307 2.177.355.78.086.794.096 1.287.858.274.423.91 1.195 1.414 1.715.504.52 1.34 1.245 1.857 1.611.517.366 1.443.905 2.058 1.197.615.292 1.526.651 2.026.798.499.146 1.397.341 1.996.434.69.106 1.713.14 2.794.092 1.23-.054 2.037-.169 2.893-.41.653-.185 1.56-.494 2.015-.687a16.41 16.41 0 0 0 1.803-.953c.536-.332 1.436-1.035 2-1.564.756-.707 1.027-1.053 1.027-1.308 0-.192-.116-.485-.257-.652a.878.878 0 0 0-.689-.303c-.341 0-.654.198-1.509.961-.593.53-1.51 1.207-2.039 1.507-.528.3-1.477.714-2.11.922a16.19 16.19 0 0 1-2.197.534c-.608.09-1.605.122-2.375.076-.73-.043-1.798-.205-2.375-.359a15 15 0 0 1-2.13-.797c-.596-.284-1.445-.783-1.886-1.108a14.04 14.04 0 0 1-1.438-1.242 13.39 13.39 0 0 1-1.064-1.25c-.236-.33-.62-.963-.854-1.406a12.434 12.434 0 0 1-.714-1.734 14.505 14.505 0 0 1-.432-2.06c-.08-.639-.143-4.208-.142-8.204 0-4.305.055-7.262.14-7.555.077-.264.257-.58.4-.704.142-.123.443-.274.667-.336.252-.069.59-.054.88.037.259.082.596.311.75.509.269.347.277.547.248 5.967l-.03 5.608.351.336c.194.185.5.337.681.337.182 0 .457-.114.613-.252.252-.224.294-.48.376-2.29.05-1.12.092-4.745.092-8.056 0-5.238.028-6.057.218-6.316.12-.164.4-.387.622-.497.222-.11.535-.199.697-.199.161 0 .483.094.716.209.235.116.511.41.622.663.163.372.198 1.698.198 7.395 0 6.763.007 6.948.28 7.208.153.147.457.267.674.267.23 0 .52-.127.695-.306l.301-.306.038-8.977.038-8.977.456-.389c.342-.291.596-.389 1.01-.389.416 0 .67.098 1.011.39l.457.388.07 9.428.07 9.428.33.255c.18.14.44.255.574.255.135 0 .41-.124.613-.276l.368-.277v-7.332c0-6.034.035-7.412.199-7.785.11-.253.386-.547.622-.663.232-.115.555-.209.716-.209.161 0 .475.09.697.2.222.109.502.332.621.496.19.259.219 1.103.219 6.586 0 6.16.005 6.297.29 6.64.206.253.418.352.746.352.265 0 .554-.102.687-.242.127-.134.293-.56.37-.946.076-.386.367-1.116.645-1.622.28-.507.861-1.323 1.294-1.815.433-.491 1.18-1.15 1.66-1.463.48-.313 1.087-.608 1.35-.655a1.51 1.51 0 0 1 .86.094c.211.099.448.278.526.398.102.158.075.389-.097.82-.132.33-.639 1.164-1.126 1.855-.487.69-1.013 1.495-1.17 1.788-.156.293-.388.89-.515 1.327-.17.587-.263 1.771-.355 4.53-.07 2.055-.186 3.968-.26 4.252-.013.19-.039.38-.075.57 0 .07.008.127.021.164.044.12.175.322.29.45.12.134.405.234.668.234.319 0 .538-.099.727-.328a.856.856 0 0 0 .102-.161c.158-.53.265-.993.328-1.35.087-.65.158-2.238.158-3.53 0-1.292.067-2.819.15-3.393.081-.574.292-1.343.469-1.71.176-.367.734-1.256 1.24-1.975.506-.719 1.05-1.637 1.207-2.04.158-.402.287-.972.287-1.265 0-.294-.124-.766-.275-1.05a3.49 3.49 0 0 0-.776-.91c-.276-.216-.74-.462-1.034-.546a4.443 4.443 0 0 0-1.005-.152c-.26 0-.678.056-.927.124l-.453.124v-.643c0-.354-.067-1.266-.148-2.026-.08-.76-.243-1.831-.361-2.382-.118-.55-.402-1.57-.63-2.268-.23-.697-.823-2.047-1.318-3.001-.495-.954-1.324-2.302-1.841-2.997-.518-.694-1.57-1.866-2.338-2.603-.768-.738-1.894-1.696-2.5-2.129a28.692 28.692 0 0 0-2.305-1.451 28.096 28.096 0 0 0-2.6-1.223 29.246 29.246 0 0 0-2.723-.915A28.144 28.144 0 0 0 26.042.19c-.8-.115-2.292-.195-3.493-.19-1.401.007-2.604.095-3.632.267ZM9.741 6.203c-.541.408 0 0-1.375.856C6.5 8.5 2.436 14.3 1.993 20.824c-.046.684-.012 1.904.077 2.71.089.808.324 2.099.522 2.869.199.77.542 1.837.764 2.37.222.534.624 1.39.894 1.902s.705 1.246.966 1.631c.262.385.63.898.82 1.139l.345.438 1.239-.794a28.913 28.913 0 0 0 2.287-1.655 20.64 20.64 0 0 0 1.971-1.912 28.946 28.946 0 0 0 1.583-1.985c.361-.514.965-1.534 1.341-2.268.376-.734.878-1.904 1.115-2.601.237-.697.561-1.988.72-2.869.242-1.349.275-1.957.211-3.868-.059-1.761-.153-2.581-.423-3.669-.19-.77-.516-1.851-.722-2.401A24.482 24.482 0 0 0 14.7 7.659c-.345-.66-.92-1.616-1.279-2.125l-.74-1.052c-.051-.072-.465.09-.946.369-.471.273-1.368.882-1.994 1.352Zm15.921-1.89c-.757-.75-1.71-1.61-2.118-1.91-.72-.531-.77-.546-1.776-.534-.57.007-1.57.094-2.222.193-.653.098-1.724.328-2.38.511-.655.183-1.555.462-1.999.62-.784.281-.8.297-.592.577.119.158.535.782.925 1.386.39.604.953 1.596 1.252 2.205.299.61.738 1.66.975 2.336.237.676.568 1.814.736 2.53.265 1.132.306 1.704.306 4.37.002 2.904-.02 3.155-.393 4.665-.217.877-.551 2.018-.743 2.534-.192.517-.657 1.546-1.035 2.288a24.887 24.887 0 0 1-1.47 2.468 30.12 30.12 0 0 1-1.711 2.17c-.51.579-1.46 1.5-2.114 2.048a27.884 27.884 0 0 1-2.393 1.77l-1.21.77.858.795a25.192 25.192 0 0 0 1.502 1.283c.52.395.76.488 1.257.487.338 0 1.18-.066 1.871-.147.692-.08 1.823-.283 2.515-.45a26.338 26.338 0 0 0 2.41-.73l1.152-.426v-6.836c0-5.642.036-6.953.207-7.5.113-.366.428-.912.699-1.214.27-.302.772-.678 1.114-.837a4.03 4.03 0 0 1 1.292-.311 6.93 6.93 0 0 1 1.263.087l.594.112v-1.189c0-1.032.05-1.283.384-1.912.233-.438.62-.893.984-1.154.33-.237.864-.499 1.188-.582.323-.084.902-.12 1.286-.082.384.04.808.112.943.163.21.079.244.01.244-.503 0-.327.072-.799.16-1.048.087-.25.311-.65.498-.89.339-.436.34-.44.104-1.135-.13-.383-.51-1.243-.842-1.912a23.258 23.258 0 0 0-1.474-2.457c-.479-.683-1.49-1.857-2.248-2.608Zm4.763-1.048a26.971 26.971 0 0 0-2.588-.81c-.736-.183-1.4-.332-1.477-.332-.076 0 .355.5.959 1.112.604.611 1.46 1.595 1.902 2.185.443.59 1.13 1.663 1.528 2.384.398.721.895 1.734 1.105 2.25l.383.94.775.03c.427.017.986.115 1.243.217.258.103.71.39 1.004.636.295.248.683.75.862 1.118.196.403.326.92.327 1.304.001.63.005.635.385.534.212-.057.795-.101 1.297-.1.735.003 1.037.074 1.556.365.355.198.811.549 1.014.78.203.23.474.636.602.903.197.409.242 1.107.285 4.516l.053 4.031.882-.88.883-.882.062-.95c.034-.522.01-1.591-.053-2.377-.063-.785-.214-1.896-.336-2.468-.122-.572-.44-1.67-.708-2.44a22.227 22.227 0 0 0-1.24-2.774 25.288 25.288 0 0 0-1.564-2.465c-.446-.598-1.378-1.635-2.069-2.303-.691-.668-1.729-1.55-2.305-1.959a27.373 27.373 0 0 0-2.282-1.415 24.936 24.936 0 0 0-2.485-1.15Zm-10.69 36.91c-.173-.641-.318-1.36-.322-1.599-.004-.238-.054-.424-.112-.412-.057.011-.796.246-1.641.52-.845.276-2.021.577-2.613.67-.592.093-1.046.215-1.01.27.036.056.583.293 1.216.526.632.234 1.715.56 2.407.725.691.165 1.512.337 1.823.382l.565.082-.314-1.165Z" fill="#fff"/><path fill-rule="evenodd" clip-rule="evenodd" d="M19.413 38.576c.004.239.149.958.321 1.598l.314 1.165-.565-.082a28.544 28.544 0 0 1-1.823-.382 25.656 25.656 0 0 1-2.407-.725c-.633-.233-1.18-.47-1.216-.526-.036-.056.418-.177 1.01-.27.592-.093 1.768-.394 2.613-.67a67.714 67.714 0 0 1 1.641-.52c.058-.012.108.174.112.412Z" fill="#fff"/><path d="M23.544 2.402c.407.3 1.36 1.16 2.118 1.912.758.75 1.77 1.925 2.248 2.608a23.134 23.134 0 0 1 1.474 2.457c.333.669.711 1.529.841 1.912.236.694.236.699-.103 1.134-.187.24-.411.641-.499.89-.087.25-.159.722-.159 1.049 0 .512-.034.582-.244.503-.135-.051-.559-.124-.943-.163-.384-.039-.963-.002-1.287.082-.323.083-.857.345-1.187.582-.363.261-.75.716-.984 1.154-.333.629-.384.88-.384 1.912v1.189l-.594-.112a6.93 6.93 0 0 0-1.263-.087 4.03 4.03 0 0 0-1.292.311 4.136 4.136 0 0 0-1.114.837c-.271.303-.586.848-.7 1.213-.17.548-.206 1.859-.206 7.5v6.837l-1.152.425c-.634.234-1.719.563-2.41.73a25.14 25.14 0 0 1-2.515.451c-.691.081-1.533.147-1.871.147-.497 0-.737-.092-1.257-.487a25.192 25.192 0 0 1-1.502-1.283l-.858-.795 1.208-.771a27.884 27.884 0 0 0 2.394-1.769 23.75 23.75 0 0 0 2.114-2.047 30.12 30.12 0 0 0 1.71-2.171 24.887 24.887 0 0 0 1.471-2.468c.378-.742.843-1.771 1.035-2.288.192-.516.526-1.657.743-2.534.373-1.51.394-1.761.393-4.664 0-2.667-.04-3.239-.306-4.37-.168-.717-.5-1.855-.736-2.53a25.85 25.85 0 0 0-.975-2.337A26.292 26.292 0 0 0 15.5 5.156a41.09 41.09 0 0 0-.925-1.386c-.209-.28-.192-.296.592-.576a36.858 36.858 0 0 1 2-.62 24.155 24.155 0 0 1 2.379-.512 19.753 19.753 0 0 1 2.222-.193c1.006-.012 1.056.003 1.776.533Z" fill="#fff"/></svg>