<svg width="22" height="23" fill="none" xmlns="http://www.w3.org/2000/svg"><path fill-rule="evenodd" clip-rule="evenodd" d="M9.966.097a3.212 3.212 0 0 0-.376.201c-.078.053-2.19 2.31-4.695 5.017C1.321 9.177.32 10.285.238 10.46a3.72 3.72 0 0 0-.17.47 2.479 2.479 0 0 0-.068.543c0 .164.03.409.067.543.036.135.123.36.192.503.07.141.227.36.35.486.13.132.357.296.542.39.28.145.364.166.73.185l.413.021v3.632c0 3.07.01 3.67.063 3.888.034.142.12.384.193.539.081.174.245.403.428.6.217.235.38.363.61.48.172.088.412.183.534.21.141.031.904.049 2.121.049 1.852 0 1.905-.002 2.057-.094a.778.778 0 0 0 .235-.237c.075-.135.08-.29.1-3.113.02-2.742.027-2.984.096-3.134.041-.09.135-.23.209-.311.073-.082.218-.191.321-.243.177-.089.257-.094 1.398-.094 1.07 0 1.232.01 1.406.082.124.051.264.162.378.3.1.119.204.297.23.395.037.13.05.957.05 3.03 0 2.758.003 2.856.084 3.036a.646.646 0 0 0 .245.285c.16.097.186.098 2.076.097 1.54 0 1.964-.013 2.174-.067.144-.036.379-.13.522-.208a2.46 2.46 0 0 0 .557-.462c.18-.194.347-.428.424-.594.07-.15.158-.396.194-.547.057-.237.066-.748.066-3.902V13.59l.302-.001c.166 0 .385-.022.485-.047.1-.025.289-.1.417-.167.13-.067.35-.245.496-.4a2.07 2.07 0 0 0 .396-.586c.132-.3.135-.323.135-.915 0-.594-.003-.615-.137-.923-.132-.302-.335-.528-4.735-5.275C12.301.828 11.8.301 11.556.167c-.26-.142-.295-.15-.814-.162-.492-.013-.564-.005-.776.092Z" fill="#fff"/></svg>