<svg width="33" height="33" fill="none" xmlns="http://www.w3.org/2000/svg"><g fill="#0086FF"><path fill-rule="evenodd" clip-rule="evenodd" d="M33 16.5C33 25.613 25.613 33 16.5 33S0 25.613 0 16.5 7.387 0 16.5 0 33 7.387 33 16.5ZM16.5 29.7c7.29 0 13.2-5.91 13.2-13.2 0-7.29-5.91-13.2-13.2-13.2-7.29 0-13.2 5.91-13.2 13.2 0 7.29 5.91 13.2 13.2 13.2Z"/><path d="M18.297 17.568a1.094 1.094 0 0 0-.147.08v.915a1.65 1.65 0 1 1-3.3-.001v-1.329c0-.176.028-.35.083-.518.383-1.156 1.206-1.785 1.98-2.142.493-.229 1.123-.402 1.557-.521.127-.035.237-.065.322-.091.52-.157.717-.28.81-.376.038-.039.198-.204.198-.843 0-.288-.014-1.015-.388-1.645-.286-.482-.947-1.197-2.912-1.197-.98 0-1.604.22-2.008.464a2.426 2.426 0 0 0-.878.928 3.507 3.507 0 0 0-.414 1.46v.005a1.65 1.65 0 0 1-3.3-.015V12.7a3.608 3.608 0 0 1 .015-.28 6.807 6.807 0 0 1 .809-2.72 5.726 5.726 0 0 1 2.06-2.16c.989-.598 2.22-.94 3.716-.94 2.985 0 4.799 1.21 5.75 2.813.851 1.434.85 2.93.85 3.312v.017c0 1.28-.358 2.345-1.128 3.14-.711.734-1.605 1.05-2.225 1.237a22.17 22.17 0 0 1-.679.194c-.324.089-.539.148-.77.255Zm-.147 7.182a1.65 1.65 0 1 1-3.3 0 1.65 1.65 0 0 1 3.3 0Z"/></g></svg>