<svg width="260" height="60" fill="none" xmlns="http://www.w3.org/2000/svg"><g clip-path="url(#a)" fill="#fff"><path d="M51.383 50.946a5.615 5.615 0 1 0 0-11.23 5.615 5.615 0 0 0 0 11.23Zm-9.053 9.052a5.615 5.615 0 1 0 0-11.23 5.615 5.615 0 0 0 0 11.23Zm9.053-27.158a5.615 5.615 0 1 0 0-11.23 5.615 5.615 0 0 0 0 11.23Zm-9.053 9.052a5.615 5.615 0 1 0 0-11.23 5.615 5.615 0 0 0 0 11.23Zm-9.054 9.054a5.615 5.615 0 1 0 0-11.23 5.615 5.615 0 0 0 0 11.23Zm18.107-36.214a5.615 5.615 0 1 0 0-11.23 5.615 5.615 0 0 0 0 11.23Zm-9.053 9.054a5.615 5.615 0 1 0 0-11.23 5.615 5.615 0 0 0 0 11.23Zm-9.054 9.054a5.615 5.615 0 1 0 0-11.23 5.615 5.615 0 0 0 0 11.23Zm-9.053 9.052a5.615 5.615 0 1 0 0-11.23 5.615 5.615 0 0 0 0 11.23Zm9.053-27.16a5.615 5.615 0 1 0 0-11.23 5.615 5.615 0 0 0 0 11.23Zm-9.053 9.054a5.615 5.615 0 1 0 0-11.23 5.615 5.615 0 0 0 0 11.23ZM15.17 32.84a5.615 5.615 0 1 0 0-11.23 5.615 5.615 0 0 0 0 11.23Zm0-18.108a5.615 5.615 0 1 0 0-11.23 5.615 5.615 0 0 0 0 11.23Zm-9.055 9.054a5.615 5.615 0 1 0 0-11.23 5.615 5.615 0 0 0 0 11.23Zm71.061-8.16c-.378-.924-.755-1.84-1.126-2.755-.374-.912-.748-1.824-1.127-2.738a24.1 24.1 0 0 1-.775-2.22c-.15-.5-.286-1.018-.408-1.553.022.624.039 1.21.05 1.76.012.55.012 1.076 0 1.578v.752c0 .256-.003.509-.008.76-.005.25-.008.5-.008.75v.76c0 .302-.009.591-.025.87-.017.277-.037.49-.06.634.19-.022.421-.036.694-.042.273-.005.465-.009.576-.009v1.286h-3.806v-1.102a2.51 2.51 0 0 0 .642-.1c.173-.055.307-.184.4-.383.094-.201.143-.522.143-.97l.1-6.392c.012-.301.022-.59.034-.869.011-.278.021-.49.033-.634-.177.012-.4.02-.668.025a8.505 8.505 0 0 0-.584.025V3.774h3.689l2.52 6.46c.1.256.211.554.335.893.122.34.24.668.35.984.11.319.194.571.25.76h.017c.144-.39.278-.768.4-1.134.123-.367.251-.723.384-1.068l1.293-3.456c.429-1.146.86-2.293 1.294-3.44h3.856v1.102a2.814 2.814 0 0 0-.651.1.671.671 0 0 0-.425.375c-.096.195-.136.52-.126.976l.251 6.393c.022.301.022.59 0 .869-.022.277-.045.49-.067.634.19-.022.42-.035.693-.042.273-.005.465-.008.576-.008v1.285H81.25v-1.101a2.79 2.79 0 0 0 .66-.1.67.67 0 0 0 .416-.384c.094-.2.13-.522.109-.969l-.134-3.54c0-.133-.012-.364-.034-.692-.021-.328-.041-.69-.058-1.085s-.03-.765-.042-1.11a7.486 7.486 0 0 1-.1.227 1.458 1.458 0 0 0-.084.226l-3.255 8.697h-1.553Zm15.808.1c-1.057 0-1.956-.177-2.696-.534-.74-.356-1.339-.831-1.794-1.427a5.966 5.966 0 0 1-1-1.978 7.717 7.717 0 0 1-.319-2.17c0-.725.12-1.412.359-2.13a6.32 6.32 0 0 1 1.084-1.978 5.432 5.432 0 0 1 1.828-1.452c.734-.368 1.596-.55 2.587-.55.99 0 1.886.183 2.62.55a5.108 5.108 0 0 1 1.803 1.46 6.457 6.457 0 0 1 1.043 1.979 6.94 6.94 0 0 1 .341 2.12c0 .701-.12 1.39-.358 2.104-.24.713-.6 1.372-1.085 1.978a5.475 5.475 0 0 1-1.827 1.47c-.735.373-1.597.558-2.587.558h.001Zm.184-1.218c.58 0 1.063-.142 1.453-.425.39-.285.701-.654.936-1.11.234-.457.4-.954.5-1.494.1-.539.15-1.066.15-1.578 0-.768-.066-1.47-.2-2.104-.134-.634-.34-1.181-.618-1.643a2.985 2.985 0 0 0-1.06-1.068c-.428-.251-.931-.37-1.51-.358-.568.012-1.046.164-1.436.458-.39.295-.701.673-.936 1.135-.234.462-.4.966-.5 1.511-.1.546-.15 1.075-.15 1.587s.058 1.08.175 1.668c.117.591.303 1.147.559 1.669.256.524.6.945 1.034 1.268.434.323.97.484 1.603.484Zm15.708-6.995c-.144-.924-.453-1.62-.927-2.087-.473-.467-1.099-.707-1.878-.718-.579 0-1.084.134-1.519.4a3.34 3.34 0 0 0-1.076 1.067 5.003 5.003 0 0 0-.635 1.52 7.388 7.388 0 0 0-.209 1.752c0 .957.136 1.806.409 2.546.272.74.671 1.322 1.193 1.743.522.424 1.158.635 1.903.635.701 0 1.395-.181 2.087-.543a4.965 4.965 0 0 0 1.735-1.51l.802.734c-.546.746-1.118 1.31-1.719 1.694-.601.383-1.188.642-1.761.776a6.86 6.86 0 0 1-1.544.201c-.857 0-1.635-.152-2.337-.459a5.408 5.408 0 0 1-1.81-1.268 5.634 5.634 0 0 1-1.168-1.886 6.498 6.498 0 0 1-.409-2.328c0-.757.122-1.508.367-2.254a6.455 6.455 0 0 1 1.093-2.029 5.281 5.281 0 0 1 1.827-1.452c.735-.362 1.587-.543 2.554-.543.433 0 .91.07 1.427.21a5.875 5.875 0 0 1 1.461.609l-.067-.701h1.286V7.51h-1.085v.002Zm2.87 7.946v-1.102c.256-.011.471-.045.643-.1.172-.055.306-.184.4-.383.094-.201.142-.522.142-.97V6.513c0-.301.009-.59.025-.869.017-.278.031-.49.042-.634-.177.012-.4.02-.668.025a8.554 8.554 0 0 0-.584.025V3.774h4.792v1.101a2.56 2.56 0 0 0-.634.1.673.673 0 0 0-.409.375c-.095.195-.142.52-.142.976v2.537h1.202l1.285-2.187c.189-.335.39-.668.601-1.001.21-.333.39-.562.533-.684l-.567.033a14.37 14.37 0 0 0-.484.034V3.772h4.091v1.101a3.645 3.645 0 0 0-.794.134c-.284.079-.575.235-.877.467-.301.233-.605.601-.918 1.101l-1.604 2.571c.223.144.42.298.593.459.172.16.325.336.458.525l1.719 2.42c.223.311.454.604.693.877.239.273.487.492.743.66.256.167.505.255.751.267v1.101h-2.57c-.089-.011-.234-.11-.434-.301-.2-.19-.411-.417-.634-.684a16.036 16.036 0 0 1-.567-.718l-1.654-2.404c-.144-.21-.303-.428-.475-.65a2.43 2.43 0 0 0-.492-.501h-.601v2.52c0 .302-.005.591-.016.869-.012.278-.029.49-.051.634.178-.022.404-.035.676-.042.273-.005.466-.008.576-.008v1.285h-4.791l.001.004Zm16.761.267c-1.058 0-1.956-.177-2.696-.534-.74-.356-1.339-.831-1.794-1.427a5.967 5.967 0 0 1-1.001-1.978 7.713 7.713 0 0 1-.318-2.17c0-.725.119-1.412.358-2.13a6.328 6.328 0 0 1 1.085-1.978 5.43 5.43 0 0 1 1.827-1.452c.735-.368 1.597-.55 2.588-.55.99 0 1.886.183 2.62.55a5.108 5.108 0 0 1 1.803 1.46 6.44 6.44 0 0 1 1.042 1.979c.228.713.342 1.419.342 2.12a6.6 6.6 0 0 1-.358 2.104 6.441 6.441 0 0 1-1.085 1.978 5.484 5.484 0 0 1-1.827 1.47c-.735.373-1.597.558-2.588.558h.002Zm.184-1.218c.579 0 1.063-.142 1.453-.425.39-.285.701-.654.935-1.11.235-.457.4-.954.501-1.494.1-.539.15-1.066.15-1.578 0-.768-.067-1.47-.201-2.104-.133-.634-.339-1.181-.617-1.643a2.99 2.99 0 0 0-1.059-1.068c-.429-.251-.933-.37-1.512-.358-.567.012-1.046.164-1.436.458-.39.295-.701.673-.935 1.135a5.53 5.53 0 0 0-.5 1.511 8.71 8.71 0 0 0-.151 1.587c0 .512.058 1.08.176 1.668.117.591.303 1.147.559 1.669.256.524.6.945 1.034 1.268.433.323.969.484 1.603.484Zm6.893.951v-1.102c.256-.011.471-.045.643-.1.172-.055.306-.184.4-.383.094-.201.142-.522.142-.97V6.513c0-.301.009-.59.025-.869.017-.278.031-.49.042-.634-.177.012-.4.02-.667.025a8.558 8.558 0 0 0-.585.025V3.774c.769-.012 1.538-.017 2.312-.017.773 0 1.544-.005 2.311-.017 1.335-.011 2.395.236 3.18.743.784.508 1.149 1.272 1.092 2.295a2.153 2.153 0 0 1-.299.944 2.634 2.634 0 0 1-.793.826c-.35.245-.789.44-1.311.585v.016c1.113.178 1.931.55 2.454 1.11.522.562.784 1.188.784 1.878s-.175 1.332-.525 1.827c-.35.495-.832.869-1.444 1.118-.613.251-1.307.375-2.087.375h-5.675l.001.002Zm3.54-1.185h.567c.178 0 .357-.004.534-.009.178-.005.35-.008.517-.008.678-.034 1.173-.251 1.486-.651.312-.4.467-.907.467-1.52 0-.512-.105-.915-.316-1.21a1.718 1.718 0 0 0-.81-.625 2.92 2.92 0 0 0-1.026-.185h-.718c-.201 0-.411.005-.634.017v2.721c0 .302-.005.584-.017.852a6.273 6.273 0 0 1-.05.618Zm.067-5.376.869-.016c.466-.012.836-.118 1.109-.318.273-.201.467-.47.584-.81.117-.34.176-.71.176-1.11 0-.445-.089-.793-.268-1.043a1.513 1.513 0 0 0-.668-.542 1.98 1.98 0 0 0-.835-.15c-.177 0-.339.028-.483.083-.146.055-.261.18-.35.375-.089.194-.134.509-.134.944v2.587Zm16.041-1.385c-.146-.924-.454-1.62-.927-2.087-.474-.467-1.1-.707-1.878-.718-.579 0-1.085.134-1.52.4a3.35 3.35 0 0 0-1.076 1.067 5.027 5.027 0 0 0-.634 1.52 7.337 7.337 0 0 0-.209 1.752c0 .957.135 1.806.408 2.546.273.74.671 1.322 1.193 1.743.522.424 1.158.635 1.903.635.701 0 1.396-.181 2.087-.543a4.959 4.959 0 0 0 1.736-1.51l.801.734c-.545.746-1.118 1.31-1.719 1.694-.6.383-1.188.642-1.76.776a6.85 6.85 0 0 1-1.545.201c-.857 0-1.637-.152-2.336-.459a5.433 5.433 0 0 1-1.811-1.268 5.65 5.65 0 0 1-1.168-1.886 6.498 6.498 0 0 1-.408-2.328c0-.757.122-1.508.366-2.254a6.455 6.455 0 0 1 1.093-2.029 5.294 5.294 0 0 1 1.828-1.452c.734-.362 1.586-.543 2.553-.543a5.5 5.5 0 0 1 1.428.21 5.907 5.907 0 0 1 1.461.609l-.067-.701h1.285V7.51h-1.084v.002Zm2.87 7.946v-1.102c.256-.011.47-.045.643-.1.172-.055.306-.184.4-.383.093-.201.142-.522.142-.97V6.513c0-.301.008-.59.025-.869.017-.278.03-.49.042-.634-.178.012-.4.02-.668.025a8.489 8.489 0 0 0-.584.025V3.774h4.791v1.101a2.567 2.567 0 0 0-.634.1.672.672 0 0 0-.408.375c-.096.195-.142.52-.142.976v2.537h1.201l1.285-2.187c.19-.335.39-.668.601-1.001.211-.333.39-.562.534-.684l-.567.033c-.201.012-.362.022-.484.034V3.772h4.09v1.101a3.636 3.636 0 0 0-.793.134c-.285.079-.576.235-.877.467-.301.235-.607.601-.919 1.101l-1.603 2.571c.223.144.42.298.592.459.173.16.327.336.459.525l1.719 2.42c.222.311.453.604.693.877.239.273.487.492.743.66.256.167.505.255.751.267v1.101h-2.571c-.088-.011-.234-.11-.433-.301a7.603 7.603 0 0 1-.634-.684 16.127 16.127 0 0 1-.568-.718l-1.653-2.404c-.146-.21-.303-.428-.475-.65a2.482 2.482 0 0 0-.492-.501h-.601v2.52c0 .302-.005.591-.017.869s-.028.49-.05.634c.177-.022.403-.035.676-.042.273-.005.465-.008.576-.008v1.285H158.1l.002.004Zm16.677-10.584a2.56 2.56 0 0 0-.634.1.673.673 0 0 0-.409.375c-.095.195-.142.52-.142.976v6.393c0 .301-.005.59-.017.869-.012.277-.028.49-.05.634.177-.022.403-.035.676-.042.273-.005.465-.008.576-.008v1.285h-4.792v-1.101a2.52 2.52 0 0 0 .643-.1c.172-.056.306-.185.4-.384.094-.2.142-.522.142-.969V6.512c0-.301.009-.59.025-.869.017-.278.031-.49.042-.634-.177.012-.4.02-.668.025a8.554 8.554 0 0 0-.584.025V3.774h4.792v1.101Zm4.892-.6.801.8-8.329 9.9-.852-.852 8.38-9.849Zm2.319.6a2.567 2.567 0 0 0-.634.1.673.673 0 0 0-.409.375c-.095.195-.142.52-.142.976v6.393c0 .301-.005.59-.016.869-.012.277-.029.49-.051.634.178-.022.404-.035.676-.042.273-.005.466-.008.576-.008v1.285h-4.791v-1.101a2.51 2.51 0 0 0 .642-.1c.173-.056.307-.185.4-.384.094-.2.143-.522.143-.969V6.512c0-.301.008-.59.025-.869.016-.278.03-.49.042-.634-.178.012-.4.02-.668.025a8.489 8.489 0 0 0-.584.025V3.774h4.791v1.101Zm6.46 0a2.567 2.567 0 0 0-.634.1.673.673 0 0 0-.409.375c-.095.195-.142.52-.142.976v6.393c0 .301-.005.59-.017.869-.011.277-.028.49-.05.634.178-.022.404-.035.676-.042.273-.005.466-.008.576-.008v1.285h-4.791v-1.101c.256-.012.47-.046.642-.1.173-.056.307-.185.4-.384.094-.2.143-.522.143-.969V6.512c0-.301.008-.59.025-.869.016-.278.03-.49.042-.634-.178.012-.4.02-.668.025a8.482 8.482 0 0 0-.584.025V3.774h4.791v1.101Zm4.892-.6.801.8-8.329 9.9-.852-.852 8.38-9.849ZM187.448 0c.267-.012.47.045.609.167a1.12 1.12 0 0 1 .376.766c0 .101-.013.207-.042.319a2.12 2.12 0 0 1-.125.35c.167.112.373.194.617.25a3.412 3.412 0 0 0 1.503 0c.245-.055.445-.138.601-.25a1.473 1.473 0 0 1-.167-.668c0-.089.028-.21.083-.358a.978.978 0 0 1 .302-.409c.144-.122.344-.177.601-.167.322 0 .558.109.709.325.151.217.226.458.226.726 0 .378-.146.696-.433.952-.29.256-.668.449-1.135.576a5.763 5.763 0 0 1-1.536.192 5.864 5.864 0 0 1-1.545-.192c-.474-.127-.852-.32-1.135-.576a1.228 1.228 0 0 1-.425-.952c0-.268.072-.509.218-.726.144-.218.378-.325.701-.325h-.003Zm8.213 4.875a2.567 2.567 0 0 0-.634.1.672.672 0 0 0-.408.375c-.096.195-.143.52-.143.976v6.393c0 .301-.005.59-.016.869-.012.277-.029.49-.05.634a7.24 7.24 0 0 1 .676-.042c.272-.005.465-.008.575-.008v1.285h-4.791v-1.101c.256-.012.47-.046.643-.1.172-.056.306-.185.4-.384.093-.2.142-.522.142-.969V6.512c0-.301.008-.59.025-.869.017-.278.03-.49.042-.634-.178.012-.4.02-.668.025a8.482 8.482 0 0 0-.584.025V3.774h4.791v1.101Zm17.143 13.539a9.893 9.893 0 0 0-.076-1.536c-.062-.445-.181-.794-.358-1.043-.177-.25-.428-.375-.751-.375h-9.732v-1.1c.256-.013.47-.046.643-.101.172-.056.306-.184.4-.383.093-.201.142-.523.142-.97V6.512c0-.301.008-.59.025-.869.017-.278.03-.49.042-.634a32.7 32.7 0 0 1-1.252.05V3.774h4.791v1.101a2.567 2.567 0 0 0-.634.1.672.672 0 0 0-.408.375c-.096.195-.143.52-.143.976v7.88l3.189-.051a2.38 2.38 0 0 0 .625-.1c.173-.056.303-.185.392-.384.089-.2.134-.522.134-.969v-6.19c0-.301.008-.59.025-.869.017-.278.03-.49.042-.634a32.335 32.335 0 0 1-1.252.05V3.774h4.791v1.101a2.575 2.575 0 0 0-.634.1.674.674 0 0 0-.408.375c-.096.195-.142.52-.142.976v6.393c0 .301-.005.59-.017.869-.012.277-.029.49-.05.634l1.836-.084v4.273h-1.219l-.001.003Zm8.163-6.979c0-.466-.072-.806-.218-1.017a.904.904 0 0 0-.592-.392 3.515 3.515 0 0 0-.827-.058l-.433.016v2.738c0 .302-.005.584-.017.852a6.275 6.275 0 0 1-.05.618h2.237c.335 0 .656-.076.969-.226.312-.15.568-.4.769-.752.2-.35.301-.826.301-1.427h1.084l-.083 3.672h-8.815v-1.102c.256-.011.47-.045.643-.1.172-.055.306-.184.4-.383.093-.201.142-.522.142-.97V6.513c0-.301.008-.59.025-.869.017-.278.03-.49.042-.634-.178.012-.4.02-.668.025a8.489 8.489 0 0 0-.584.025V3.774h8.346l.1 3.238h-1.101c0-.612-.105-1.074-.318-1.385-.211-.312-.473-.52-.785-.626a2.575 2.575 0 0 0-.918-.143l-.601.017c-.235 0-.434.03-.601.092-.167.062-.295.194-.383.4-.089.206-.134.526-.134.96v2.504h1.953l-.067-1.452h1.285v4.056h-1.101Zm4.74 4.024v-1.102c.256-.011.47-.045.642-.1.173-.055.306-.184.4-.383.094-.201.142-.522.142-.97V6.513c0-.301.009-.59.026-.869a36 36 0 0 1 .041-.634c-.177.012-.4.02-.667.025a8.489 8.489 0 0 0-.584.025V3.774h4.791v1.101a2.567 2.567 0 0 0-.634.1.673.673 0 0 0-.409.375c-.095.195-.142.52-.142.976V8.93h4.591V6.51c0-.301.005-.589.016-.868.012-.278.029-.49.051-.635-.178.012-.4.02-.668.025a8.489 8.489 0 0 0-.584.026V3.772h4.791v1.101a2.568 2.568 0 0 0-.634.1.673.673 0 0 0-.409.376c-.095.194-.142.52-.142.975v6.393c0 .302-.005.591-.017.869-.011.278-.028.49-.05.634.178-.022.404-.035.676-.042.273-.005.466-.008.576-.008v1.285h-4.791v-1.1c.256-.013.47-.046.642-.101.173-.056.307-.184.4-.384.094-.2.143-.522.143-.969v-2.704l-4.591.05v2.47c0 .302-.005.591-.017.869-.011.278-.028.49-.05.634.177-.022.403-.035.676-.042.273-.005.465-.008.576-.008v1.285h-4.791v.004Zm22.102-7.913c0-.6-.084-1.1-.251-1.494-.167-.395-.403-.69-.71-.886-.306-.194-.671-.286-1.092-.276h-.802v7.829c0 .301-.005.59-.017.869a6.13 6.13 0 0 1-.05.634c.189-.022.432-.035.726-.042a46.7 46.7 0 0 1 .61-.008v1.285h-4.875v-1.101a2.51 2.51 0 0 0 .642-.1c.173-.056.306-.185.4-.384.094-.2.142-.522.142-.969V4.91h-.768c-.634.011-1.134.227-1.503.65-.366.424-.55 1.085-.55 1.987h-1.101l.083-3.772h10.117l.1 3.772h-1.101Zm2.219 6.811c.256-.011.471-.045.643-.1.172-.055.306-.184.4-.383.094-.201.142-.522.142-.97V6.513c0-.301.008-.59.025-.869.017-.278.03-.49.042-.634-.177.012-.4.02-.668.025a8.521 8.521 0 0 0-.584.025V3.774c.79-.012 1.58-.017 2.37-.017s1.58-.005 2.37-.017c.979-.011 1.834.118 2.562.384.728.267 1.29.68 1.685 1.235.395.557.581 1.28.559 2.17a3.295 3.295 0 0 1-.316 1.31 3.662 3.662 0 0 1-.885 1.169c-.39.35-.879.638-1.47.86-.591.223-1.28.345-2.07.367a13.55 13.55 0 0 1-.643.016c-.184 0-.369-.005-.559-.016v1.469c0 .311-.005.606-.016.885-.012.278-.029.49-.051.635.123-.012.278-.02.467-.026l.559-.016c.184-.005.315-.009.392-.009v1.286h-4.957v-1.101h.003Zm3.605-4.373.367.034c.122.012.251.017.383.017.612 0 1.109-.102 1.494-.31.384-.206.665-.507.844-.902.177-.395.268-.877.268-1.444 0-.568-.076-1.001-.226-1.336-.151-.333-.342-.58-.576-.743a1.961 1.961 0 0 0-.735-.318 3.67 3.67 0 0 0-.701-.075c-.234 0-.433.028-.601.084-.167.055-.294.177-.383.366-.089.19-.134.479-.134.869v3.758ZM71.2 37.593v-1.101c.256-.012.47-.044.642-.1.173-.056.306-.185.4-.384.094-.2.142-.522.142-.969v-6.393c0-.3.009-.589.026-.868.016-.278.03-.489.041-.634-.177.011-.4.02-.667.025a8.434 8.434 0 0 0-.584.025v-1.286c.768-.011 1.538-.016 2.31-.016.774 0 1.545-.005 2.312-.017 1.335-.012 2.395.236 3.18.743.785.507 1.15 1.272 1.093 2.294a2.139 2.139 0 0 1-.302.944c-.177.306-.442.581-.793.827-.35.244-.788.44-1.31.584v.017c1.113.177 1.93.549 2.453 1.11.522.562.785 1.188.785 1.877 0 .69-.176 1.332-.525 1.828-.35.495-.832.868-1.445 1.118-.612.25-1.307.374-2.087.374h-5.675l.004.002Zm3.54-1.185h.567c.177 0 .356-.003.533-.008.178-.005.35-.008.517-.008.68-.034 1.174-.252 1.487-.652.31-.4.467-.907.467-1.52 0-.511-.106-.914-.318-1.21a1.719 1.719 0 0 0-.81-.625 2.92 2.92 0 0 0-1.026-.184h-.718c-.201 0-.412.005-.634.017v2.72c0 .3-.006.585-.017.853a6.23 6.23 0 0 1-.05.617h.001Zm.066-5.375.869-.017c.467-.012.837-.117 1.11-.316.272-.201.466-.47.583-.81.118-.34.176-.71.176-1.11 0-.445-.089-.793-.268-1.042a1.516 1.516 0 0 0-.667-.543 1.984 1.984 0 0 0-.836-.15c-.177 0-.34.028-.483.083-.144.056-.261.181-.35.375-.089.194-.134.509-.134.944v2.588-.002Zm12.987 6.827c-1.058 0-1.957-.176-2.696-.533-.74-.356-1.339-.832-1.794-1.427a5.966 5.966 0 0 1-1.001-1.979 7.717 7.717 0 0 1-.318-2.17c0-.725.119-1.411.358-2.129a6.33 6.33 0 0 1 1.085-1.978 5.433 5.433 0 0 1 1.827-1.453c.735-.368 1.597-.55 2.587-.55.991 0 1.887.184 2.621.55a5.108 5.108 0 0 1 1.803 1.461 6.439 6.439 0 0 1 1.042 1.978c.228.713.342 1.42.342 2.12 0 .702-.12 1.392-.359 2.104a6.423 6.423 0 0 1-1.084 1.979 5.475 5.475 0 0 1-1.828 1.469c-.734.373-1.596.559-2.587.559h.002Zm.184-1.218c.579 0 1.063-.142 1.453-.425.39-.284.7-.654.935-1.11.234-.456.4-.953.5-1.494.1-.538.151-1.066.151-1.578 0-.768-.067-1.47-.2-2.103-.135-.635-.34-1.182-.618-1.644a2.985 2.985 0 0 0-1.06-1.067c-.428-.252-.932-.37-1.51-.359-.568.012-1.047.164-1.437.459-.39.294-.7.673-.935 1.134-.234.462-.4.966-.5 1.512-.101.545-.151 1.074-.151 1.586s.058 1.08.175 1.669a6.75 6.75 0 0 0 .56 1.668c.255.524.6.946 1.034 1.269.433.323.969.483 1.603.483Zm15.708-6.995c-.144-.924-.454-1.62-.927-2.087-.474-.467-1.1-.706-1.878-.718-.579 0-1.084.134-1.52.4a3.346 3.346 0 0 0-1.076 1.068 5.012 5.012 0 0 0-.634 1.52 7.342 7.342 0 0 0-.21 1.751c0 .958.136 1.806.41 2.546.272.74.67 1.322 1.193 1.744.522.423 1.158.634 1.902.634.702 0 1.396-.18 2.087-.542a4.959 4.959 0 0 0 1.736-1.511l.801.734c-.545.747-1.118 1.31-1.718 1.694-.601.383-1.189.642-1.761.776a6.864 6.864 0 0 1-1.545.201c-.856 0-1.635-.154-2.336-.458a5.388 5.388 0 0 1-1.81-1.269 5.644 5.644 0 0 1-1.169-1.886 6.501 6.501 0 0 1-.408-2.328c0-.756.122-1.508.366-2.254a6.485 6.485 0 0 1 1.093-2.028 5.293 5.293 0 0 1 1.828-1.453c.734-.362 1.586-.542 2.553-.542.434 0 .911.07 1.428.209a5.91 5.91 0 0 1 1.461.609l-.067-.701h1.285v3.89h-1.084Zm2.87 7.946v-1.101a2.45 2.45 0 0 0 .643-.1c.172-.056.306-.185.4-.384.093-.2.142-.522.142-.969v-6.393c0-.301.008-.589.025-.868.017-.278.03-.49.042-.635-.178.012-.4.02-.668.025a8.482 8.482 0 0 0-.584.026v-1.286h11.551v1.101a2.56 2.56 0 0 0-.634.1.673.673 0 0 0-.409.376c-.095.194-.142.52-.142.975v6.393c0 .301-.005.591-.017.869-.011.278-.028.49-.05.634.177-.022.403-.037.676-.042.273-.005.465-.008.576-.008v1.285h-4.792V36.49c.257-.012.471-.044.643-.1.172-.056.306-.184.4-.384.094-.2.142-.522.142-.969v-7.879l-3.188.05a2.468 2.468 0 0 0-.626.101c-.172.055-.303.184-.391.383-.089.201-.134.524-.134.97v6.191c0 .301-.005.591-.017.869s-.028.49-.05.634c.177-.022.403-.037.676-.042.273-.005.465-.008.576-.008v1.285h-4.792l.002.002Zm18.012-10.583a2.576 2.576 0 0 0-.634.1.674.674 0 0 0-.408.375c-.096.194-.142.52-.142.976v6.392c0 .302-.005.591-.017.87a6.76 6.76 0 0 1-.05.633c.177-.021.403-.037.676-.041.273-.005.465-.009.575-.009v1.285h-4.791v-1.1a2.45 2.45 0 0 0 .643-.101c.172-.055.306-.184.4-.383.093-.201.142-.523.142-.97v-6.392c0-.302.008-.59.025-.869.017-.278.03-.489.042-.634-.177.012-.4.02-.668.025a8.482 8.482 0 0 0-.584.025v-1.285h4.791v1.103Zm4.892-.601.802.801-8.329 9.9-.852-.852 8.379-9.85Zm2.32.6a2.56 2.56 0 0 0-.634.101.673.673 0 0 0-.409.375c-.095.194-.142.52-.142.976v6.392c0 .302-.005.591-.017.87-.012.277-.028.49-.05.633.177-.021.403-.037.676-.041.273-.005.465-.009.576-.009v1.285h-4.792v-1.1a2.49 2.49 0 0 0 .643-.101c.172-.055.306-.184.4-.383.094-.201.142-.523.142-.97v-6.392c0-.302.009-.59.025-.869a46.8 46.8 0 0 1 .042-.634c-.177.012-.4.02-.668.025a8.547 8.547 0 0 0-.584.025v-1.285h4.792v1.103Zm10.299 2.671c0-.6-.084-1.099-.251-1.494-.168-.395-.404-.69-.71-.885-.306-.194-.671-.286-1.093-.276h-.801v7.828c0 .302-.005.591-.017.87-.012.277-.028.49-.05.633a7.64 7.64 0 0 1 .726-.041c.295-.005.497-.009.609-.009v1.285h-4.875v-1.1a2.45 2.45 0 0 0 .643-.101c.172-.055.306-.184.4-.383.094-.201.142-.523.142-.97v-7.996h-.768c-.634.012-1.135.228-1.503.651-.366.424-.551 1.085-.551 1.987h-1.101l.084-3.772h10.117l.1 3.772h-1.101v.002Zm.567 7.913v-1.151c.311 0 .562-.089.752-.268a2.11 2.11 0 0 0 .475-.701c.127-.29.253-.601.375-.934l3.255-8.93h1.168l3.556 9.097c.067.168.156.42.268.76.11.34.177.638.201.894a6.3 6.3 0 0 1 .542-.042c.172-.005.315-.008.425-.008v1.285h-4.49v-1.101c.311 0 .525-.064.643-.193.117-.127.169-.303.159-.525a2.355 2.355 0 0 0-.185-.752l-.334-.919-3.622.067-.268.785c-.055.146-.137.358-.242.643a9.01 9.01 0 0 1-.293.71c.177-.022.392-.036.643-.042.251-.005.431-.009.542-.009v1.336h-3.572l.002-.002Zm3.605-4.674h2.788l-.768-2.087a15.61 15.61 0 0 1-.634-2.286h-.017l-.201.852c-.089.378-.228.828-.417 1.352l-.751 2.17v-.001Zm16.059-3.239c0-.6-.083-1.099-.251-1.494-.167-.395-.403-.69-.709-.885-.307-.194-.671-.286-1.093-.276h-.802v7.828c0 .302-.005.591-.017.87-.011.277-.028.49-.05.633.189-.021.432-.037.727-.041.294-.005.497-.009.609-.009v1.285h-4.875v-1.1c.256-.013.47-.044.642-.101.173-.055.307-.184.4-.383.094-.201.143-.523.143-.97v-7.996h-.769c-.634.012-1.134.228-1.502.651-.367.424-.551 1.085-.551 1.987h-1.101l.083-3.772h10.117l.1 3.772h-1.101v.002Zm7.896 3.891c0-.467-.072-.806-.218-1.017a.904.904 0 0 0-.592-.392 3.507 3.507 0 0 0-.827-.059l-.433.017v2.738c0 .301-.005.584-.017.852a6.273 6.273 0 0 1-.05.617h2.237c.335 0 .656-.075.969-.225.312-.151.568-.4.769-.752.2-.35.301-.827.301-1.427h1.084l-.083 3.671h-8.815v-1.1a2.45 2.45 0 0 0 .643-.101c.172-.056.306-.184.4-.383.093-.201.142-.523.142-.97v-6.392c0-.302.008-.59.025-.869.017-.278.03-.489.042-.634-.178.012-.4.02-.668.025a8.466 8.466 0 0 0-.584.025V25.91h8.346l.1 3.238h-1.101c0-.613-.105-1.074-.318-1.386-.211-.311-.473-.52-.785-.626a2.574 2.574 0 0 0-.918-.142l-.601.017c-.235 0-.434.03-.601.092-.167.062-.295.194-.383.4-.089.206-.134.525-.134.96v2.504h1.953l-.067-1.452h1.285v4.056h-1.101Zm6.242 4.289c-.6 0-1.082-.127-1.444-.383-.361-.256-.542-.622-.542-1.101 0-.39.109-.731.326-1.026.218-.294.564-.442 1.043-.442.39 0 .673.106.852.317.177.21.267.466.267.768a.78.78 0 0 1-.133.467c.055.033.138.05.251.05.155 0 .339-.139.55-.417.211-.278.42-.714.626-1.31.206-.596.387-1.364.542-2.305.156-.94.251-2.072.285-3.397l.05-1.936-.417.017-1.503.033V25.91h9.215v1.1a2.563 2.563 0 0 0-.634.101.673.673 0 0 0-.409.375c-.095.194-.142.52-.142.976v6.393c0 .301-.007.59-.017.868a6.17 6.17 0 0 1-.05.635 7.26 7.26 0 0 1 .685-.042c.267-.005.457-.009.567-.009v1.286h-4.791V36.49c.256-.011.47-.043.642-.1.173-.055.307-.184.4-.383.094-.201.142-.522.142-.97V27.16l-1.335.05c-.378.012-.656.087-.835.226-.178.139-.273.392-.285.76-.033 1.436-.125 2.692-.276 3.772-.15 1.08-.348 1.995-.592 2.746-.245.752-.529 1.357-.852 1.82-.323.461-.671.798-1.043 1.01a2.296 2.296 0 0 1-1.143.317Zm16.426-10.85a2.568 2.568 0 0 0-.634.1.672.672 0 0 0-.408.375c-.096.194-.143.52-.143.975v2.337l.919-.034c1.001-.033 1.816.045 2.445.234.629.19 1.113.457 1.453.802.34.345.575.731.709 1.16.134.428.201.865.201 1.31 0 .723-.176 1.332-.525 1.828-.35.495-.832.868-1.445 1.118-.612.25-1.307.374-2.086.374h-5.276v-1.1c.257-.012.471-.044.643-.101.173-.055.306-.184.4-.383.094-.201.142-.523.142-.97v-6.392c0-.302.009-.59.025-.869a46.8 46.8 0 0 1 .042-.634c-.177.012-.4.02-.667.025a8.552 8.552 0 0 0-.585.025v-1.285h4.792v1.101l-.002.003Zm-1.185 7.929c0 .3-.005.584-.016.851a6.216 6.216 0 0 1-.051.618h.409c.139 0 .276-.003.408-.008.134-.005.268-.009.4-.009.678-.033 1.172-.252 1.478-.66.306-.406.458-.936.458-1.594 0-.556-.092-.99-.276-1.302a1.559 1.559 0 0 0-.76-.668 2.902 2.902 0 0 0-1.118-.2h-.466c-.156 0-.312.011-.467.033v2.939h.001Zm6.977 2.654v-1.101c.256-.012.471-.044.643-.1.172-.056.306-.185.4-.384.094-.2.142-.522.142-.969v-6.393c0-.3.009-.589.025-.868a46.8 46.8 0 0 1 .042-.634c-.177.011-.4.02-.668.025a8.547 8.547 0 0 0-.584.025v-1.286h4.792v1.102a2.576 2.576 0 0 0-.635.1.674.674 0 0 0-.408.375c-.095.194-.142.52-.142.976v2.604h4.59v-2.42c0-.302.005-.59.017-.869.012-.278.029-.489.05-.634-.177.012-.4.02-.667.025a8.482 8.482 0 0 0-.584.025v-1.285h4.791v1.1a2.568 2.568 0 0 0-.634.101.674.674 0 0 0-.409.375c-.095.194-.142.52-.142.976v6.393c0 .301-.005.59-.017.868a6.13 6.13 0 0 1-.05.635c.178-.022.403-.037.676-.042.273-.005.465-.009.576-.009v1.286h-4.791v-1.101c.256-.012.47-.044.642-.1.173-.056.306-.185.4-.384.094-.2.142-.522.142-.97v-2.703l-4.59.05v2.47c0 .301-.005.59-.017.868s-.028.49-.05.635c.177-.022.403-.037.676-.042.273-.005.465-.009.576-.009v1.286h-4.792v.003Zm13.471 0v-1.101c.256-.012.47-.044.642-.1.173-.056.307-.185.4-.384.094-.2.143-.522.143-.969v-6.393c0-.301.008-.589.025-.868.016-.278.03-.49.042-.635-.178.012-.4.02-.668.025a8.482 8.482 0 0 0-.584.026v-1.286h4.791v1.101a2.568 2.568 0 0 0-.634.1.673.673 0 0 0-.409.376c-.095.194-.142.52-.142.975v2.337l.919-.034c1.001-.033 1.816.045 2.445.234.629.19 1.113.457 1.453.802.339.345.575.731.709 1.16.134.428.201.865.201 1.31 0 .723-.176 1.332-.525 1.828-.35.495-.832.868-1.445 1.118-.612.25-1.307.375-2.087.375h-5.275l-.001.003Zm3.539-1.185h.409c.139 0 .276-.003.408-.008.134-.005.268-.009.4-.009.457-.021.827-.127 1.11-.318.284-.189.492-.45.625-.785a3.07 3.07 0 0 0 .201-1.151c0-.556-.092-.99-.276-1.302a1.558 1.558 0 0 0-.76-.668 2.902 2.902 0 0 0-1.118-.2h-.467a3.32 3.32 0 0 0-.466.033v1.836c0 .5-.004.915-.009 1.243-.005.328-.012.596-.017.802a4.42 4.42 0 0 1-.041.525l.001.002Zm6.043 1.185v-1.101c.257-.012.471-.044.643-.1.172-.056.306-.185.4-.384.094-.2.142-.522.142-.969v-6.393c0-.301.009-.589.025-.868.017-.278.031-.49.042-.635-.177.012-.4.02-.667.025a8.552 8.552 0 0 0-.585.026v-1.286h4.792v1.101a2.56 2.56 0 0 0-.634.1.673.673 0 0 0-.409.376c-.095.194-.142.52-.142.975v6.393c0 .301-.005.591-.017.869-.011.278-.028.49-.05.634.177-.022.403-.037.676-.042.273-.005.465-.008.576-.008v1.285h-4.792v.002Zm6.209 0V36.49c.323-.077.646-.259.969-.542.323-.284.69-.698 1.101-1.243l1.937-2.588-1.336-1.702c-.445-.567-.895-1.134-1.352-1.701a5.123 5.123 0 0 1-.484-.777 6.81 6.81 0 0 1-.349-.793c-.178.012-.332.02-.459.025a6.582 6.582 0 0 0-.375.025V25.91h5.074v1.1h-.167c-.345 0-.584.051-.718.151s-.181.236-.142.409c.038.172.142.365.308.575a60.749 60.749 0 0 1 1.486 1.888l1.268-1.752c.235-.323.421-.559.559-.71.139-.15.282-.292.425-.425-.177.012-.399.02-.667.026a8.482 8.482 0 0 0-.584.025V25.91h3.789v1.101a2.034 2.034 0 0 0-.76.268 3.64 3.64 0 0 0-.76.61 9.25 9.25 0 0 0-.835 1.01l-1.603 2.188c.356.445.706.89 1.051 1.335.344.445.692.89 1.042 1.336.35.445.698.89 1.043 1.335.189.234.361.457.517.668.156.21.273.411.35.6.189-.021.323-.036.4-.041.077-.005.172-.009.284-.009v1.286h-4.99v-1.102c.411 0 .679-.05.801-.15.123-.1.153-.236.092-.408a2.128 2.128 0 0 0-.341-.576 276.04 276.04 0 0 0-.843-1.076c-.285-.362-.571-.72-.861-1.076-.244.334-.49.67-.734 1.01-.245.34-.491.677-.735 1.01-.234.31-.412.545-.534.7a4.854 4.854 0 0 1-.383.434c.189-.011.407-.021.651-.033.244-.012.423-.017.534-.017V37.6h-3.672l.003-.006ZM71.2 59.727v-1.101c.256-.012.47-.043.642-.1.173-.056.307-.184.4-.384.094-.2.142-.522.142-.969V50.78c0-.3.009-.589.026-.868.016-.278.03-.489.041-.634-.177.011-.4.02-.667.025a8.43 8.43 0 0 0-.584.025v-1.286h11.55v1.102a2.571 2.571 0 0 0-.634.1.673.673 0 0 0-.408.375c-.096.194-.142.52-.142.976v6.393c0 .3-.005.59-.017.868s-.029.49-.05.634c.177-.021.403-.036.676-.041.273-.005.465-.009.576-.009v1.285h-4.792v-1.1c.256-.012.47-.044.643-.101.172-.055.306-.184.4-.383.094-.201.142-.523.142-.97v-7.878l-3.188.05a2.461 2.461 0 0 0-.626.1c-.172.056-.303.184-.392.384-.088.2-.133.523-.133.968v6.193c0 .3-.006.59-.017.868-.012.278-.029.49-.05.634.177-.021.403-.036.676-.041.272-.005.465-.009.575-.009v1.285h-4.791l.002.002Zm13.22-1.101c.257-.012.47-.043.643-.1.173-.056.307-.184.4-.384.094-.2.143-.522.143-.969V50.78c0-.3.008-.589.025-.868.016-.278.03-.489.041-.634-.177.011-.4.02-.667.025a8.495 8.495 0 0 0-.584.025v-1.286a160 160 0 0 1 2.37-.016c.79 0 1.58-.005 2.37-.017.978-.012 1.832.117 2.561.383.728.268 1.29.68 1.686 1.235.395.558.58 1.28.559 2.17a3.263 3.263 0 0 1-.318 1.311 3.65 3.65 0 0 1-.886 1.169c-.39.35-.878.637-1.47.86-.59.222-1.28.344-2.07.366-.244.012-.458.017-.642.017s-.37-.005-.559-.017v1.47c0 .31-.005.605-.017.885-.011.278-.028.49-.05.634a7.01 7.01 0 0 1 .467-.025l.56-.017c.183-.005.314-.008.39-.008v1.285h-4.956v-1.101h.005Zm3.605-4.373.367.033c.122.012.251.017.383.017.613 0 1.11-.102 1.495-.31.383-.205.664-.505.843-.901.178-.395.268-.877.268-1.445 0-.567-.075-1.002-.226-1.335-.15-.335-.341-.58-.576-.743a1.93 1.93 0 0 0-.734-.317 3.674 3.674 0 0 0-.702-.075 1.92 1.92 0 0 0-.6.084c-.168.055-.295.177-.384.366-.088.19-.134.479-.134.869v3.757Zm6.295 5.474v-1.151c.311 0 .562-.089.751-.268.19-.177.348-.411.475-.701.128-.29.253-.6.375-.934l3.255-8.93h1.169l3.556 9.098c.067.167.155.42.268.76.11.34.177.637.2.893.19-.022.37-.037.543-.042.172-.005.314-.008.425-.008v1.285h-4.49v-1.101c.311 0 .525-.064.642-.193.117-.127.169-.303.159-.525a2.378 2.378 0 0 0-.184-.752l-.333-.918-3.623.067-.268.785c-.055.145-.137.358-.243.642-.105.285-.202.52-.292.71.177-.022.391-.035.642-.042.251-.005.432-.008.542-.008v1.335h-3.573l.004-.002Zm3.605-4.674h2.788l-.768-2.087a15.14 15.14 0 0 1-.384-1.21 12.617 12.617 0 0 1-.25-1.076h-.018l-.2.852c-.089.378-.228.829-.417 1.352l-.751 2.17Zm8.314 4.674v-1.1c.256-.013.47-.044.642-.101.173-.055.307-.184.4-.384.094-.2.143-.522.143-.968V50.78c0-.302.008-.59.025-.869.016-.278.03-.489.042-.634-.178.011-.4.02-.668.025a8.482 8.482 0 0 0-.584.025v-1.285h4.791v1.1a2.568 2.568 0 0 0-.634.101.673.673 0 0 0-.409.375c-.095.194-.142.52-.142.976v2.537h1.202l1.285-2.187c.189-.335.39-.668.601-1.001.211-.335.39-.563.534-.685-.178.012-.367.022-.568.034-.2.011-.361.022-.483.033V48.04h4.09v1.101a3.632 3.632 0 0 0-.793.134 2.576 2.576 0 0 0-.877.467c-.301.233-.606.6-.919 1.101l-1.603 2.57c.222.146.42.299.592.46.173.16.325.336.459.525l1.718 2.42c.223.311.454.604.693.877.24.273.487.492.743.66.256.166.506.255.752.267v1.101H114.7c-.089-.012-.234-.11-.433-.301a7.751 7.751 0 0 1-.635-.685 16.799 16.799 0 0 1-.567-.718l-1.653-2.403c-.144-.21-.303-.428-.476-.65a2.43 2.43 0 0 0-.492-.501h-.6v2.52c0 .301-.005.59-.017.869a6.76 6.76 0 0 1-.05.634c.177-.022.403-.037.676-.042.273-.005.465-.008.575-.008v1.285h-4.791l.002.003Zm20.514-7.911c0-.6-.084-1.1-.251-1.494-.167-.395-.403-.69-.71-.886-.306-.194-.671-.286-1.092-.276h-.802v7.83c0 .3-.005.59-.017.868a6.13 6.13 0 0 1-.05.634 7.57 7.57 0 0 1 .726-.042c.295-.005.499-.008.61-.008v1.285h-4.875v-1.101c.256-.012.47-.043.642-.1.173-.056.306-.184.4-.384.094-.2.142-.522.142-.969v-7.996h-.768c-.634.012-1.134.228-1.503.651-.366.424-.55 1.085-.55 1.987h-1.101l.083-3.773h10.117l.1 3.773h-1.101v.001Zm7.012-2.671a2.567 2.567 0 0 0-.634.1.672.672 0 0 0-.408.376c-.096.194-.143.52-.143.975v6.393c0 .302-.006.591-.016.869-.012.278-.029.49-.051.634a6.74 6.74 0 0 1 .677-.042c.272-.005.465-.008.575-.008v1.285h-4.791v-1.101a2.45 2.45 0 0 0 .643-.1c.172-.056.306-.184.4-.384.093-.2.142-.522.142-.969V50.78c0-.3.008-.589.025-.868.017-.278.03-.489.042-.634-.178.011-.4.02-.668.025a8.417 8.417 0 0 0-.584.025v-1.286h4.791v1.103Zm4.89-.6.802.801-8.329 9.9-.852-.853 8.379-9.849Zm2.322.6a2.576 2.576 0 0 0-.635.1.674.674 0 0 0-.408.376c-.095.194-.142.52-.142.975v6.393c0 .302-.007.591-.017.869-.012.278-.029.49-.05.634.177-.022.403-.037.676-.042.273-.005.465-.008.576-.008v1.285h-4.792v-1.101a2.45 2.45 0 0 0 .643-.1c.172-.056.306-.184.4-.384.094-.2.142-.522.142-.969V50.78c0-.3.008-.589.025-.868.017-.278.03-.489.042-.634-.177.011-.4.02-.668.025a8.417 8.417 0 0 0-.584.025v-1.286h4.792v1.103Zm1.668 10.582v-1.1a2.45 2.45 0 0 0 .643-.101c.172-.055.306-.184.4-.384.093-.2.142-.522.142-.968V50.78c0-.302.008-.59.025-.869.017-.278.03-.489.042-.634-.177.011-.4.02-.668.025a8.482 8.482 0 0 0-.584.025v-1.285h4.791v1.1a2.576 2.576 0 0 0-.634.101.674.674 0 0 0-.408.375c-.096.194-.142.52-.142.976v2.537h1.201l1.285-2.187c.19-.335.39-.668.601-1.001.211-.335.39-.563.534-.685-.177.012-.366.022-.567.034a14.17 14.17 0 0 0-.484.033V48.04h4.09v1.101a3.642 3.642 0 0 0-.793.134 2.585 2.585 0 0 0-.877.467c-.301.234-.607.6-.919 1.101l-1.603 2.57c.223.146.42.299.593.46.172.16.326.336.458.525l1.719 2.42c.222.311.453.604.693.877.239.273.487.492.743.66.256.166.505.255.751.267v1.101h-2.57c-.089-.012-.235-.11-.434-.301a7.603 7.603 0 0 1-.634-.685 15.34 15.34 0 0 1-.567-.718l-1.654-2.403c-.146-.21-.303-.428-.475-.65a2.482 2.482 0 0 0-.492-.501h-.601v2.52c0 .301-.005.59-.017.869-.012.278-.028.49-.05.634.177-.022.403-.037.676-.042.273-.005.465-.008.576-.008v1.285h-4.792l.002.003Z"/></g><defs><clipPath id="a"><path fill="#fff" transform="translate(.5)" d="M0 0h259.078v60H0z"/></clipPath></defs></svg>