<svg width="50" height="50" fill="none" xmlns="http://www.w3.org/2000/svg"><path d="M10.782 4.438c.238-.111.608-.252.822-.313.3-.084 2.211-.111 8.323-.117L27.862 4v4.995c0 4.73-.009 4.995-.154 4.995-.085 0-.444.14-.8.31-.354.171-.82.45-1.034.62-.215.17-.537.47-.715.667a6.842 6.842 0 0 0-.621.836 7.054 7.054 0 0 0-.533 1.173c-.2.587-.238.84-.24 1.65-.003.681.04 1.104.152 1.476a8 8 0 0 0 .404 1.023c.137.276.415.717.619.98.204.264.594.656.867.872.274.217.787.528 1.14.692.354.164.705.299.78.299.12 0 .135.52.135 4.995v4.995l-5.256-.001a12.44 12.44 0 0 0-5.814-9.633V13.506l-.194-.388a1.176 1.176 0 0 0-.58-.583c-.382-.194-.426-.196-3.957-.196h-3.57V9.972c.001-1.747.033-2.486.122-2.822.067-.251.21-.642.318-.87.108-.226.471-.688.808-1.025.348-.35.797-.7 1.043-.817Zm19.995 9.552c-.138 0-.148-.337-.148-4.995V4l7.891.001c6.477 0 7.972.023 8.345.122.25.067.638.21.864.32.227.108.686.473 1.022.81.349.352.697.8.812 1.049.111.239.254.63.318.869.085.313.117 1.092.118 2.801L50 12.34h-3.57c-3.531 0-3.575.002-3.957.196-.282.143-.438.3-.58.583l-.195.387v11.567l.195.388c.142.283.298.44.58.583.382.193.426.195 3.956.195H50l-.001 2.367c0 1.71-.033 2.488-.118 2.802a6.46 6.46 0 0 1-.318.869c-.115.248-.463.697-.812 1.048-.336.338-.795.703-1.022.812a6.001 6.001 0 0 1-.864.318c-.373.1-1.868.122-8.345.123h-7.891v-9.962l.367-.108c.203-.06.62-.248.93-.418.321-.177.827-.579 1.179-.936.455-.462.71-.817.974-1.355.197-.4.415-1.002.485-1.336a6.97 6.97 0 0 0 .126-1.173c0-.31-.057-.838-.126-1.173-.07-.334-.29-.939-.488-1.343-.276-.564-.514-.89-1.018-1.393-.5-.502-.831-.745-1.395-1.024-.406-.201-.805-.366-.886-.366ZM6.59 25.972c0-.142.63-.405 1.4-.585.77-.18 1.845-.344 2.388-.363.544-.02 1.554.129 2.244.33 1.023.297 1.237.504 1.153 1.118-.084.622-.521.868-2.505 1.41l-2.403.655-1.139-1.154c-.626-.635-1.139-1.27-1.139-1.411Zm11.641 9.587c.374-1.361.836-2.589 1.026-2.728.19-.14.516-.255.723-.259.207-.002.467.24.577.54.11.3.199 1.502.198 2.672-.001 1.169-.161 2.726-.356 3.46l-.355 1.336-2.493-2.547.68-2.474ZM.22 38.453C.098 37.823 0 36.92 0 36.446c0-.726.077-.794.494-.432.272.236.484.836.471 1.334-.013.499-.136 1.21-.275 1.58-.213.57-.285.497-.47-.475Zm2.251-1.2 1.483-.413c.815-.228 1.784-.43 2.152-.448.402-.02 1.372.71 2.418 1.818l1.748 1.85-.561 2.091c-.309 1.15-.779 2.179-1.046 2.285-.266.108-1.25.286-2.186.396-1.692.2-1.71.192-3.242-1.465l-1.54-1.666.774-4.448Zm5.436 9.094c0-.16.334-.345.742-.41.408-.067 1.08.098 1.493.366.413.269.682.56.598.649-.084.087-.756.053-1.493-.078-.737-.13-1.34-.367-1.34-.527Zm3.295-16.92-2.142.583-1.3 5.326 3.431 3.589 5.081-1.36 1.298-5.033-1.772-1.878c-.975-1.033-1.926-1.863-2.114-1.844-.187.018-1.304.296-2.482.617Z" fill="#0086FF"/><path d="M3.745 27.567c-.568.469-1.493 1.602-2.056 2.52-.563.917-1.1 2.122-1.196 2.677-.131.765.036 1.254.69 2.019l.863 1.01 2.025-.434c1.113-.237 2.115-.537 2.225-.664.11-.128.473-1.358.806-2.733l.604-2.502-1.284-1.376c-.706-.757-1.365-1.374-1.464-1.372-.1.002-.645.387-1.213.855Zm10.093 12.202c-1.966.538-2.172.683-2.514 1.776-.204.654-.47 1.665-.589 2.245-.193.936-.08 1.158.985 1.95 1.051.783 1.332.85 2.237.525a11.29 11.29 0 0 0 1.858-.893c.453-.288 1.244-.921 1.758-1.408.514-.486 1.084-1.173 1.267-1.526.27-.523.1-.889-.92-1.982-.688-.737-1.406-1.325-1.596-1.307-.19.018-1.308.297-2.486.62Zm1.318-12.446c0 .338.788 1.43 1.752 2.426 1.227 1.267 1.919 1.744 2.305 1.589.513-.206.512-.293-.023-1.251-.316-.567-1.131-1.559-1.811-2.204-.68-.646-1.459-1.175-1.73-1.175-.271 0-.493.277-.493.615Zm-1.886-3.864h.755v-8.34H8.491v8.138a12.203 12.203 0 0 1 4.779.201Zm15.125-6.826a3.365 3.365 0 0 0-.724.366 3.491 3.491 0 0 0-.643.63 3.165 3.165 0 0 0-.433.865 2.89 2.89 0 0 0-.096 1.011c.024.293.123.714.22.936.098.221.358.583.578.805.22.221.584.487.807.59.315.145.571.188 1.141.188.57 0 .826-.043 1.141-.188.224-.103.587-.369.807-.59.22-.222.485-.586.588-.81.145-.317.187-.574.187-1.147 0-.573-.042-.83-.187-1.147-.103-.224-.367-.589-.588-.81-.22-.221-.583-.484-.807-.583-.248-.11-.641-.192-1.011-.21-.364-.017-.754.02-.98.094Z" fill="#0069B7"/><path fill-rule="evenodd" clip-rule="evenodd" d="m50 12.34-.001-2.368c0-1.71-.033-2.488-.118-2.801a6.459 6.459 0 0 0-.318-.869c-.115-.248-.463-.697-.812-1.048-.336-.338-.795-.703-1.022-.812a5.983 5.983 0 0 0-.864-.319c-.373-.1-1.868-.121-8.345-.122L30.629 4v4.995c0 4.658.01 4.995.148 4.995.081 0 .48.165.886.366.564.28.894.522 1.395 1.024.504.504.742.829 1.018 1.393.199.404.418 1.009.488 1.343.07.335.126.862.126 1.173 0 .31-.057.838-.126 1.173-.07.334-.288.936-.485 1.336-.263.538-.52.893-.974 1.355-.352.357-.858.759-1.179.936-.31.17-.727.359-.93.418l-.367.108v9.963l7.891-.001c6.477-.001 7.972-.023 8.345-.123.25-.066.638-.21.864-.318.227-.11.686-.474 1.022-.812.349-.351.697-.8.812-1.048a6.46 6.46 0 0 0 .318-.869c.085-.314.117-1.092.118-2.802L50 26.238h-3.57c-3.531 0-3.575-.002-3.957-.195a1.176 1.176 0 0 1-.58-.583l-.195-.388V13.506l.195-.388c.142-.283.298-.44.58-.583.382-.194.426-.196 3.956-.196H50ZM.494 36.013C.077 35.652 0 35.72 0 36.446c0 .473.099 1.377.22 2.007.185.972.257 1.044.47.474.139-.37.262-1.08.275-1.579.013-.498-.199-1.098-.47-1.334Zm11.11-31.889c-.214.06-.584.202-.822.313-.246.116-.695.467-1.043.817-.337.337-.7.799-.808 1.026a6.047 6.047 0 0 0-.318.869c-.089.336-.12 1.075-.121 2.822L8.49 12.34h3.57c3.53 0 3.575.002 3.956.196.282.143.439.3.58.583l.195.387v11.439a12.44 12.44 0 0 1 5.814 9.633h5.256v-4.994c0-4.475-.014-4.995-.136-4.995-.074 0-.425-.135-.778-.299a6.882 6.882 0 0 1-1.14-.692 6.15 6.15 0 0 1-.868-.871 7.003 7.003 0 0 1-.619-.98 8 8 0 0 1-.404-1.024c-.112-.372-.155-.795-.153-1.477.003-.808.04-1.062.241-1.65.13-.381.37-.909.533-1.172.162-.263.442-.64.62-.836.18-.196.501-.496.716-.666.214-.17.68-.45 1.035-.62.355-.171.714-.311.799-.311.145 0 .154-.266.154-4.995V4l-7.935.008c-6.112.006-8.024.033-8.323.117ZM7.99 25.387c-.77.18-1.4.443-1.4.585 0 .14.512.776 1.138 1.41l1.139 1.155 2.403-.655c1.984-.542 2.42-.788 2.505-1.41.084-.614-.13-.822-1.153-1.119-.69-.2-1.7-.348-2.244-.329-.543.02-1.618.182-2.388.363Zm11.267 7.444c-.19.14-.652 1.367-1.026 2.728l-.68 2.474 2.493 2.547.355-1.335c.195-.735.355-2.292.356-3.461 0-1.17-.088-2.371-.198-2.671-.11-.3-.37-.543-.577-.54-.207.003-.532.119-.723.258ZM3.954 36.84l-1.483.413-.775 4.448 1.54 1.666c1.532 1.657 1.551 1.665 3.243 1.465.936-.11 1.92-.288 2.186-.395.267-.107.737-1.136 1.046-2.286l.56-2.09-1.747-1.851c-1.046-1.109-2.016-1.838-2.418-1.818-.368.019-1.337.22-2.152.448Zm4.695 9.096c-.408.066-.742.251-.742.411 0 .16.603.397 1.34.527.737.13 1.41.165 1.493.078.084-.088-.185-.38-.598-.649-.414-.268-1.085-.433-1.493-.367Z" fill="#0086FF"/><path d="M50 23.459v-8.34h-5.535v8.34H50Z" fill="#0069B7"/></svg>