<svg width="50" height="50" fill="none" xmlns="http://www.w3.org/2000/svg"><path d="M10.782 4.438c.238-.111.608-.252.822-.313.3-.084 2.211-.111 8.323-.117L27.862 4v4.995c0 4.73-.009 4.995-.154 4.995-.085 0-.444.14-.8.31-.354.171-.82.45-1.034.62-.215.17-.537.47-.715.667a6.842 6.842 0 0 0-.621.836 7.054 7.054 0 0 0-.533 1.173c-.2.587-.238.84-.24 1.65-.003.681.04 1.104.152 1.476a8 8 0 0 0 .404 1.023c.137.276.415.717.619.98.204.264.594.656.867.872.274.217.787.528 1.14.692.354.164.705.299.78.299.12 0 .135.52.135 4.995v4.995l-5.256-.001a12.44 12.44 0 0 0-5.814-9.633V13.506l-.194-.388a1.176 1.176 0 0 0-.58-.583c-.382-.194-.426-.196-3.957-.196h-3.57V9.972c.001-1.747.033-2.486.122-2.822.067-.251.21-.642.318-.87.108-.226.471-.688.808-1.025.348-.35.797-.7 1.043-.817Z" fill="#fff"/><path d="M13.27 23.459h.755v-8.34H8.491v8.138a12.203 12.203 0 0 1 4.779.201Zm17.507-9.469c-.138 0-.148-.337-.148-4.995V4l7.891.001c6.477 0 7.972.023 8.345.122.25.067.638.21.864.32.227.108.686.473 1.022.81.349.352.697.8.812 1.049.111.239.254.63.318.869.085.313.117 1.092.118 2.801L50 12.34h-3.57c-3.531 0-3.575.002-3.957.196-.282.143-.438.3-.58.583l-.195.387v11.567l.195.388c.142.283.298.44.58.583.382.193.426.195 3.956.195H50l-.001 2.367c0 1.71-.033 2.488-.118 2.802a6.46 6.46 0 0 1-.318.869c-.115.248-.463.697-.812 1.048-.336.338-.795.703-1.022.812a6.001 6.001 0 0 1-.864.318c-.373.1-1.868.122-8.345.123h-7.891v-9.962l.367-.108c.203-.06.62-.248.93-.418.321-.177.827-.579 1.179-.936.455-.462.71-.817.974-1.355.197-.4.415-1.002.485-1.336a6.97 6.97 0 0 0 .126-1.173c0-.31-.057-.838-.126-1.173-.07-.334-.29-.939-.488-1.343-.276-.564-.514-.89-1.018-1.393-.5-.502-.831-.745-1.395-1.024-.406-.201-.805-.366-.886-.366Z" fill="#fff"/><path d="M44.465 23.459v-8.34H50v8.34h-5.535Zm-16.794-6.46c.193-.134.519-.299.724-.366.226-.074.616-.111.98-.094.37.018.763.1 1.011.21.224.1.587.362.807.583.22.221.485.586.588.81.145.317.187.574.187 1.147 0 .573-.042.83-.187 1.146-.103.225-.367.59-.588.81-.22.222-.583.488-.807.59-.315.146-.57.188-1.14.188-.571 0-.827-.042-1.142-.187-.223-.103-.586-.369-.807-.59-.22-.222-.48-.584-.578-.805a3.49 3.49 0 0 1-.22-.936 2.855 2.855 0 0 1 .096-1.01c.076-.264.27-.653.433-.866a3.44 3.44 0 0 1 .643-.63ZM6.59 25.972c0-.142.63-.405 1.4-.585.77-.18 1.845-.344 2.388-.363.544-.02 1.554.129 2.244.33 1.023.297 1.237.504 1.153 1.118-.084.622-.521.868-2.505 1.41l-2.403.655-1.139-1.154c-.626-.635-1.139-1.27-1.139-1.411Zm-4.9 4.115c.562-.918 1.487-2.051 2.055-2.52.568-.468 1.113-.853 1.213-.855.099-.002.758.615 1.464 1.372l1.284 1.376-.604 2.502c-.333 1.375-.695 2.605-.806 2.733-.11.127-1.112.427-2.225.664l-2.025.433-.863-1.01c-.654-.764-.821-1.253-.69-2.018.095-.555.633-1.76 1.196-2.677Zm15.219-.338c-.965-.996-1.753-2.088-1.753-2.426 0-.338.222-.615.493-.615s1.05.529 1.73 1.175c.68.645 1.495 1.637 1.811 2.204.535.958.536 1.045.023 1.251-.386.155-1.078-.322-2.305-1.59Zm-7.849.261 2.142-.584c1.178-.32 2.295-.598 2.482-.616.188-.019 1.139.811 2.114 1.844l1.772 1.878-1.298 5.033-5.08 1.36-3.431-3.59 1.3-5.325Zm9.171 5.549c.374-1.361.836-2.589 1.026-2.728.19-.14.516-.255.723-.259.207-.002.467.24.577.54.11.3.199 1.502.198 2.672-.001 1.169-.161 2.726-.356 3.46l-.355 1.336-2.493-2.547.68-2.474ZM.22 38.453C.098 37.823 0 36.92 0 36.446c0-.726.077-.794.494-.432.272.236.484.836.471 1.334-.013.499-.136 1.21-.275 1.58-.213.57-.285.497-.47-.475Zm2.251-1.2 1.483-.413c.815-.228 1.784-.43 2.152-.448.402-.02 1.372.71 2.418 1.818l1.748 1.85-.561 2.091c-.309 1.15-.779 2.179-1.046 2.285-.266.108-1.25.286-2.186.396-1.692.2-1.71.192-3.242-1.465l-1.54-1.666.774-4.448Zm8.853 4.291c.342-1.092.547-1.237 2.514-1.775 1.178-.323 2.296-.602 2.486-.62.19-.018.908.57 1.597 1.307 1.02 1.093 1.19 1.46.919 1.982-.183.353-.753 1.04-1.267 1.526-.514.487-1.305 1.12-1.758 1.408-.453.287-1.29.69-1.858.893-.905.324-1.186.258-2.237-.524-1.065-.793-1.178-1.015-.985-1.95.12-.581.385-1.592.59-2.246Zm-3.417 4.803c0-.16.334-.345.742-.41.408-.067 1.08.098 1.493.366.413.269.682.56.598.649-.084.087-.756.053-1.493-.078-.737-.13-1.34-.367-1.34-.527Z" fill="#fff"/></svg>