<svg width="50" height="50" fill="none" xmlns="http://www.w3.org/2000/svg"><path fill-rule="evenodd" clip-rule="evenodd" d="M26.474.228C22.73.805 15.61 3.606 15.61 4.502c0 .296.452.233 2.737-.385 16.035-4.338 28.445 11.848 20.9 27.257-4.039 8.248-9.482 12.514-21.597 16.927-4.391 1.6-1.846 1.683 4.743.157 18.482-4.284 28.65-15.208 27.522-29.568C49.067 8.092 42.267 1.212 31.445.202c-2.936-.274-3.023-.273-4.971.026Zm6.749.841C45.59 3.046 52.364 15.076 48.41 28.045c-2.876 9.434-12.663 16.869-26.093 19.821-1.743.383-3.12.644-3.058.58.06-.065 1.77-.825 3.8-1.69C49.454 35.502 47.768.299 20.964 3.075c-2.01.208-1.776-.064.857-.995 3.986-1.408 7.155-1.689 11.4-1.01ZM18.534 4.457C13.24 5.761 8.487 9.581 4.748 15.54c-2.746 4.376-2.73 5.225.053 2.82 17.684-15.274 37.884 2.274 22.366 19.43-2.86 3.162-10.037 8.618-9.864 7.499.052-.33-.26-1.223-.84-2.404-.344-.7-.325-.736 1.78-3.433 2.29-2.936 2.44-3.361 1.77-5.05-.197-.495-.357-1.282-.357-1.748 0-.94-.685-1.85-1.391-1.85-1.03 0-1.653 1.87-.853 2.561 1.428 1.235 1.568 1.666.95 2.926-1.642 3.346-4.168 3.05-3.04-.356.659-1.991.685-2.874.086-2.874-1.212 0-2.172 2.471-2.424 6.242-.218 3.241-.375 3.933-1.555 6.838-1.838 4.525-.504 5.333 1.681 1.019 1.114-2.198 1.643-2.677 2.157-1.949.47.668.432 1.58-.074 1.756-.647.224-2.341 1.827-2.15 2.033.248.264 2.35-.404 2.49-.791.092-.251.219-.26.554-.039.665.438 1.184-.163 1.213-1.407.024-1.035.024-1.035.21-.207.267 1.189.18 1.191 3.132-.09C30.65 42.12 35.641 37.728 38.82 30.468 45.211 15.875 33.443.786 18.534 4.458Zm8.577.664c18.96 4.092 16.487 30.203-3.738 39.471-6.521 2.988-7.068 2.815-2.317-.734 5.62-4.2 8.187-6.931 9.79-10.42 7.92-17.252-9.563-29.097-24.829-16.822-2.468 1.984-2.485 1.988-1.565.33C9.705 7.482 17.998 3.154 27.112 5.121ZM16.086 20.197c-1.638.883-1.845 2.96-.42 4.222 2.184 1.937 5.281-1.392 3.362-3.613-.86-.996-1.846-1.2-2.942-.61Zm2.169.59c1.845 1.04.163 4.287-1.812 3.496-.68-.273-1.314-1.56-1.13-2.3.282-1.138 1.888-1.791 2.942-1.197ZM8.08 26.1c-.585 1.19-.773 2.215-1.033 5.642-.303 3.988-.688 5.66-2.142 9.304-1.359 3.405-1.547 4.806-.643 4.806.826 0 2.779-2.79 2.779-3.972a.55.55 0 0 1 .226-.41c.434-.282.712.83.932 3.73.226 2.972.46 3.662 1.243 3.662.747 0 .931-.851.933-4.31.003-5.914.321-6.967 3.204-10.614 2.12-2.682 2.982-4.305 2.982-5.611 0-1.68-.902-1.476-1.799.407-2.856 5.997-6.493 5.543-5.474-.683.207-1.266.316-2.407.241-2.534-.3-.512-1.061-.206-1.449.583Zm.63 1.8c-1.132 6.975 3.583 7.667 6.675.98.472-1.02.574-1.122.648-.64.137.898-.724 2.479-2.833 5.197-2.982 3.844-3.136 4.307-3.292 9.95-.072 2.575-.219 4.776-.328 4.89-.497.522-.873-.819-.886-3.162-.026-4.63-1.097-5.603-2.605-2.367-2.175 4.665-2.551 3.334-.517-1.829C6.82 37.76 7.287 35.493 7.75 30.36c.224-2.476.825-4.796 1.154-4.45.061.065-.026.96-.193 1.99Zm-8.252.688C-.86 30.124.904 41.962 2.745 43.932c.243.26 2.007-4.433 2.545-6.771.81-3.513.429-8.614-.642-8.614-.572 0-.683.491-.65 2.884.032 2.384-.455 3.72-1.309 3.59-.831-.127-1.144-1.108-1.1-3.465.062-3.503-.163-4.093-1.13-2.967Zm1.42 6.626c1.544 1.4 3.045-1.194 2.725-4.708-.108-1.178.1-1.608.39-.811.722 1.985-.5 9.816-1.964 12.571-.99 1.864-3.172-9.8-2.357-12.592.279-.952.3-.853.416 1.966.117 2.872.143 2.99.79 3.574Zm8.691-5.91c-.596.372-1 1.856-.678 2.49.45.887 1.397.669 1.83-.423.605-1.526-.072-2.74-1.152-2.067Zm.811 1.256c-.067.609-.462 1.246-.773 1.246-.399 0-.462-.856-.105-1.43.454-.73.967-.623.878.184Zm-9.205.8c-.845 1.271-.118 3.473.843 2.556.879-.838.778-3.113-.137-3.113-.185 0-.502.25-.706.558Zm16.64.438c.264.306.373.701.288 1.042-.075.301.005.841.177 1.2.878 1.83.77 2.188-1.535 5.133-2.377 3.035-2.332 2.914-1.627 4.3.553 1.088.923 4.135.502 4.135-.325 0-.533-.61-.542-1.588-.027-2.884-2.12-2.098-3.66 1.374-1.389 3.131-1.843 2.217-.499-1.003 1.053-2.524 1.474-4.34 1.664-7.186.155-2.328.593-4.154 1.199-4.998.553-.771.588-.372.095 1.102-1.423 4.258 1.05 5.578 3.556 1.9 1.137-1.668 1.075-3.898-.108-3.898-.575 0-.898-.73-.613-1.387.323-.748.547-.774 1.104-.126ZM3.1 32.65c-.087.366-.254.728-.372.805-.368.24-.522-.649-.23-1.327.358-.827.827-.42.602.522Zm20.065.18c-.517.318-1.188 1.68-1.997 4.057-.34 1-1.313 3.15-2.162 4.78-1.94 3.726-1.946 3.724 1.976.772 1.796-1.351 3.17-2.48 3.052-2.51-.117-.029-.508-.121-.867-.205-1.03-.24-.921-1.83.297-4.312 1.276-2.597 1.173-3.485-.3-2.581Zm.279 1.422c-1.554 2.69-1.997 5.008-1.09 5.707.38.293-1.264 1.868-3.121 2.989-.168.1.22-.87.863-2.156.642-1.286 1.466-3.242 1.83-4.346.629-1.9 1.354-3.135 1.841-3.135.121 0-.024.424-.323.94Zm-7.16.818c-.652.41-1.28 2.415-.905 2.89.469.596 1.224.339 1.84-.628.994-1.557.365-3.078-.936-2.262Zm.992.745c0 .274-.319.867-.708 1.317-.889 1.03-1.091.004-.227-1.153.587-.787.935-.848.935-.164Zm6.282.886c-.86.907-.747 2.468.189 2.582 1.117.136 2.059-2.358 1.125-2.98-.505-.337-.66-.29-1.314.398Zm1.096.73c0 .336-.17.788-.376 1.006-.75.79-1.148-.308-.42-1.156.537-.625.796-.575.796.15Z" fill="#fff"/><path d="M27.111 5.121c18.96 4.092 16.487 30.203-3.738 39.471-6.521 2.988-7.068 2.815-2.317-.734 5.62-4.2 8.187-6.931 9.79-10.42 7.92-17.252-9.563-29.097-24.829-16.822-2.468 1.984-2.485 1.988-1.565.33C9.705 7.482 17.998 3.154 27.112 5.121Z" fill="#fff"/><path d="M33.223 1.07C45.59 3.045 52.364 15.075 48.41 28.044c-2.876 9.434-12.663 16.869-26.093 19.821-1.743.383-3.12.644-3.058.58.06-.065 1.77-.825 3.8-1.69C49.454 35.502 47.768.299 20.964 3.075c-2.01.208-1.776-.064.857-.995 3.986-1.408 7.155-1.689 11.4-1.01ZM8.71 27.9c-1.132 6.976 3.583 7.668 6.675.98.472-1.02.574-1.12.648-.639.137.898-.724 2.479-2.833 5.197-2.982 3.844-3.136 4.307-3.292 9.95-.072 2.575-.219 4.776-.328 4.89-.497.522-.873-.819-.886-3.162-.026-4.63-1.097-5.603-2.605-2.367-2.175 4.665-2.551 3.334-.517-1.829 1.248-3.16 1.715-5.427 2.178-10.56.224-2.476.825-4.796 1.154-4.45.061.065-.026.96-.193 1.99Zm-6.833 7.315c1.545 1.4 3.046-1.194 2.726-4.708-.108-1.178.1-1.608.39-.811.722 1.985-.5 9.816-1.964 12.571-.99 1.864-3.172-9.8-2.357-12.592.279-.952.3-.853.416 1.966.117 2.872.143 2.99.79 3.574Z" fill="#fff"/><path d="M3.1 32.651c-.087.366-.254.728-.372.805-.368.24-.522-.649-.23-1.327.358-.827.827-.42.602.522Zm8.28-2.091c-.067.61-.462 1.247-.773 1.247-.399 0-.462-.856-.105-1.43.454-.73.967-.623.878.184Zm6.875-9.774c1.845 1.041.163 4.288-1.812 3.497-.68-.273-1.314-1.56-1.13-2.3.282-1.138 1.888-1.791 2.942-1.197Zm-.979 15.03c0 .274-.319.867-.708 1.317-.889 1.03-1.091.004-.227-1.153.587-.787.935-.848.935-.164Z" fill="#fff"/><path d="M18.816 31.799c.263.306.372.701.287 1.042-.075.301.005.841.177 1.2.878 1.83.77 2.188-1.535 5.133-2.377 3.035-2.332 2.914-1.627 4.3.553 1.088.923 4.135.502 4.135-.325 0-.533-.61-.542-1.588-.027-2.884-2.12-2.098-3.66 1.374-1.389 3.131-1.843 2.217-.499-1.003 1.053-2.524 1.474-4.34 1.664-7.186.155-2.328.593-4.154 1.199-4.998.553-.771.588-.372.095 1.102-1.423 4.258 1.05 5.578 3.556 1.9 1.137-1.668 1.075-3.898-.108-3.898-.575 0-.898-.73-.613-1.387.323-.748.547-.774 1.104-.126Zm4.628 2.454c-1.554 2.69-1.997 5.008-1.09 5.707.38.293-1.264 1.868-3.121 2.989-.168.1.22-.87.863-2.156.642-1.286 1.466-3.242 1.83-4.346.629-1.9 1.354-3.135 1.841-3.135.121 0-.024.424-.323.94Zm1.21 3.18c0 .335-.17.787-.376 1.005-.75.79-1.148-.308-.42-1.156.537-.625.796-.575.796.15Z" fill="#fff"/></svg>