<svg width="50" height="50" fill="none" xmlns="http://www.w3.org/2000/svg"><path fill-rule="evenodd" clip-rule="evenodd" d="M20.277 3.243c-2.555 1.295-6.788 4.483-9.409 7.085-3.055 3.034-5.755 6.89-7.532 10.751L.567 27.1l2.13 1.382c1.172.76 4.972 4.15 8.444 7.534 3.472 3.382 7.377 7.712 8.677 9.621 1.3 1.91 2.928 3.471 3.616 3.471.689 0 3.3-.99 5.806-2.201 2.504-1.21 6.673-4.325 9.262-6.92 2.59-2.596 5.845-6.729 7.234-9.184 1.388-2.456 2.528-5.096 2.533-5.868.004-.77-2.562-3.497-5.703-6.058-3.141-2.56-7.881-7.332-10.533-10.603-2.653-3.27-4.822-6.27-4.822-6.666 0-.396-.516-.72-1.145-.72-.63 0-3.235 1.06-5.789 2.356Zm8.09 24.09c.257-.68-.611-2.288-1.929-3.572-1.317-1.284-2.88-2.335-3.472-2.335-.593 0-1.313.623-1.6 1.385-.3.798.333 2.31 1.498 3.571 1.11 1.203 2.698 2.187 3.528 2.187.83 0 1.718-.556 1.976-1.236Zm-6.487 1.803c1 1.294 1.82 2.713 1.82 3.153 0 .44-.628 1.046-1.395 1.346-.879.343-2.383-.46-4.06-2.166-1.465-1.49-2.394-3.154-2.064-3.698.33-.543 1.338-.988 2.24-.988.902 0 2.46 1.06 3.459 2.353Zm11.475-7.555c0-.896-.915-2.504-2.031-3.572-1.118-1.068-2.513-1.941-3.1-1.941-.588 0-1.304.623-1.591 1.385-.301.798.333 2.31 1.498 3.572 1.11 1.203 2.74 2.187 3.621 2.187.967 0 1.603-.648 1.603-1.63Z" fill="#0086FF"/><path d="M0 35.764c0 1.993.453 5.453 1.007 7.69.826 3.338 1.53 4.29 3.922 5.307 1.602.682 5.1 1.239 7.77 1.239 2.943 0 4.856-.387 4.856-.981 0-.54-3.466-4.558-7.702-8.93-4.237-4.37-8.187-7.948-8.778-7.948-.671 0-1.075 1.36-1.075 3.623Zm31.714-33.76c.58 1.106 4.349 5.324 8.374 9.376 4.026 4.052 7.968 7.367 8.76 7.367 1.235 0 1.364-.788.915-5.581-.287-3.07-.973-6.878-1.522-8.463-.768-2.212-1.747-3.094-4.212-3.79-1.768-.5-5.498-.91-8.29-.913-4.995-.005-5.061.028-4.025 2.004Z" fill="#0069B7"/></svg>