<svg width="50" height="50" fill="none" xmlns="http://www.w3.org/2000/svg"><path d="M10.08 7.538c0-2.096.617-3.487 2.304-5.2L14.688 0h22.164L42 4.67v13.912c0 11.2-.237 14.273-1.215 15.77-1.204 1.837-1.364 1.855-15.369 1.714-13.911-.141-14.187-.177-16.123-2.121-1.773-1.78-1.997-2.73-2.241-9.475-.167-4.643.075-8.152.635-9.216.83-1.574 1.444-1.698 7.347-1.486 6.293.226 6.46.285 7.23 2.516.679 1.964.53 2.495-1.056 3.8-1.119.92-3.076 1.516-4.975 1.516-2.15 0-3.028.313-2.803.997.18.549 1.551 1.199 3.047 1.446 1.497.247 3.192.745 3.768 1.107.576.36 1.737 2.239 2.58 4.172.843 1.934 1.867 3.306 2.275 3.05.41-.257.742-1.255.74-2.22-.001-.963-.71-2.929-1.573-4.367-1.307-2.177-1.407-2.881-.596-4.2.752-1.223 1.84-1.585 4.762-1.585 2.97 0 4.205-.424 5.721-1.964 1.417-1.438 1.935-2.83 1.935-5.2 0-2.343-.326-3.236-1.182-3.236-.817 0-1.182.834-1.182 2.702 0 1.486-.5 3.124-1.112 3.639-.612.515-2.349 1.14-3.861 1.39-2.536.417-2.85.236-4.05-2.329-.714-1.53-2.185-3.19-3.268-3.69-1.084-.502-4.081-.912-6.662-.912h-4.691V7.538Z" fill="#fff"/><path fill-rule="evenodd" clip-rule="evenodd" d="M12.84 50h26.008l.468-10H12.37l.47 10Zm14.668-2.14c2.215-.216 2.711-.618 2.91-2.358.138-1.207-.197-2.236-.788-2.424-.566-.179-2.624-.135-4.575.098-2.905.347-3.591.745-3.795 2.196-.184 1.314.245 1.897 1.665 2.258 1.051.268 3.114.372 4.583.23Z" fill="#fff"/></svg>