<svg width="50" height="50" fill="none" xmlns="http://www.w3.org/2000/svg"><path fill-rule="evenodd" clip-rule="evenodd" d="M12.84 50h26.008l.468-10H12.37l.47 10Zm14.668-2.14c2.215-.216 2.711-.618 2.91-2.358.138-1.207-.197-2.236-.788-2.424-.566-.179-2.624-.135-4.575.098-2.905.347-3.591.745-3.795 2.196-.184 1.314.245 1.897 1.665 2.258 1.051.268 3.114.372 4.583.23Z" fill="#0086FF"/><path d="M36.852 0H14.688l-2.304 2.338c-1.687 1.713-2.303 3.104-2.303 5.2V10.4h4.692c2.58 0 5.577.41 6.66.911 1.084.501 2.555 2.162 3.27 3.691 1.2 2.565 1.513 2.746 4.049 2.328 1.512-.25 3.249-.874 3.86-1.39.612-.514 1.113-2.152 1.113-3.638 0-1.868.365-2.702 1.182-2.702.856 0 1.182.893 1.182 3.236 0 2.37-.518 3.762-1.935 5.2-1.516 1.54-2.751 1.964-5.72 1.964-2.922 0-4.01.362-4.763 1.585-.811 1.319-.711 2.023.596 4.2.864 1.438 1.572 3.404 1.573 4.368.002.964-.33 1.962-.74 2.219-.408.256-1.432-1.116-2.274-3.05-.844-1.933-2.005-3.812-2.58-4.172-.577-.362-2.272-.86-3.769-1.107-1.496-.247-2.868-.897-3.047-1.446-.225-.684.653-.997 2.803-.997 1.898 0 3.856-.597 4.975-1.516 1.587-1.305 1.735-1.836 1.057-3.8-.771-2.231-.938-2.29-7.23-2.516-5.904-.212-6.517-.088-7.348 1.486-.56 1.064-.802 4.573-.635 9.216.244 6.744.468 7.695 2.24 9.475 1.937 1.944 2.213 1.98 16.124 2.12 14.005.142 14.165.124 15.369-1.714.978-1.496 1.215-4.57 1.215-15.77V4.672L36.852 0Z" fill="#0069B7"/></svg>