<svg width="24" height="24" fill="none" xmlns="http://www.w3.org/2000/svg"><path d="M2 11.68v-.028c.25-3.235 1.423-5.662 3.459-7.197C7.467 2.893 9.643 2.14 12.014 2.14c2.482-.028 4.797.809 6.862 2.482C20.968 6.268 22 8.722 22 11.902v.196c0 3.207-1.032 5.606-3.124 7.252-2.092 1.673-4.408 2.51-6.89 2.51h-.111c-2.427-.027-4.659-.864-6.722-2.538C3.088 17.676 2.029 15.138 2 11.68Zm9.4-8.787h-.67c-.139.168-.25.363-.362.53a9.08 9.08 0 0 0-.335.53c-.111.169-.25.392-.335.559a3.21 3.21 0 0 0-.279.53c-.168.28-.307.558-.419.808a5.56 5.56 0 0 0-.334.726c.168.112.362.251.585.335.251.084.503.168.754.223.279.056.53.084.753.112.25.027.474.056.642.056V2.893Zm1.172 4.38c.139 0 .307.028.474 0 .168 0 .362-.027.53-.056.307-.056.67-.14.949-.223.307-.112.585-.25.78-.419-.334-.808-.696-1.45-1.06-2.064a8.015 8.015 0 0 0-1.227-1.59v-.028h-.446v4.38ZM9.559 3.145v-.028c-.195.084-.39.224-.614.307a6.76 6.76 0 0 0-.642.307c-.39.196-.78.42-1.172.67-.362.25-.725.53-1.031.809.111.111.25.223.362.307.112.084.25.195.391.307.112.056.25.139.39.25.14.084.308.196.475.308.223-.503.446-1.032.726-1.507.279-.503.585-.977.892-1.395a.59.59 0 0 1 .112-.168c.027-.028.056-.11.111-.167Zm8.535 2.064V5.18c-.697-.53-1.311-.976-1.924-1.255-.614-.278-1.228-.558-1.786-.78a5.707 5.707 0 0 1 1.089 1.533c.279.558.557 1.144.78 1.702.112-.057.251-.112.42-.223.138-.084.334-.168.502-.251.168-.112.307-.223.474-.335.168-.14.334-.25.446-.362v-.001Zm-.474 6.22h3.208c0-1.032-.223-2.008-.642-3.012a7.296 7.296 0 0 0-1.646-2.483v-.027a2.022 2.022 0 0 1-.53.558c-.223.139-.418.25-.642.362-.139.084-.279.195-.418.25-.14.085-.335.14-.474.224.111.223.223.474.335.697.084.25.223.53.279.781.168.446.28.92.39 1.395.085.419.14.865.14 1.255ZM7.523 7.301v-.028c-.223-.111-.474-.195-.67-.307-.195-.14-.39-.28-.557-.39a2.75 2.75 0 0 1-.474-.308c-.14-.111-.25-.223-.362-.335-.726.698-1.255 1.479-1.59 2.4a11.54 11.54 0 0 0-.726 3.068h3.431c0-.78.112-1.534.307-2.287A7.457 7.457 0 0 1 7.523 7.3Zm3.877 4.1V8.193a3.426 3.426 0 0 1-.754 0 3.77 3.77 0 0 1-.808-.195c-.223-.056-.503-.112-.726-.195a2.612 2.612 0 0 1-.697-.28c-.168.28-.307.614-.419.977-.139.334-.223.697-.307 1.031-.056.335-.084.698-.111 1.005-.028.307-.057.614-.057.864H11.4v.001Zm1.172-3.151v3.15H16.7c0-.167 0-.362-.028-.585-.056-.196-.084-.446-.111-.67-.084-.334-.168-.697-.28-1.031-.111-.307-.223-.614-.362-.865-.056-.14-.112-.307-.168-.419-.084-.14-.168-.223-.223-.307-.307.223-.726.362-1.227.474-.474.112-1.032.223-1.535.25h-.195v.002Zm-5.998 4.072h-3.43c0 .474.083 1.004.223 1.646.139.669.418 1.283.725 1.953.14.334.307.669.474 1.004.196.307.419.641.642.948.168-.111.335-.195.474-.279.168-.084.362-.195.53-.28a9.94 9.94 0 0 0 .614-.279c.196-.084.446-.195.697-.307-.223-.697-.474-1.366-.641-2.12a8.492 8.492 0 0 1-.308-2.259v-.027Zm4.826 3.263v-3.263H7.522c0 .223.028.558.084.892.028.335.112.697.168 1.06.112.392.196.782.307 1.116.112.335.223.614.335.865a11.527 11.527 0 0 1 1.339-.418 4.893 4.893 0 0 1 1.031-.223h.308c.111-.028.223-.028.307-.028l-.001-.001Zm1.172-3.263v3.235c.195.028.418.056.642.084.25.028.557.084.808.14l.419.083c.139.056.307.084.446.112.168.056.335.084.503.14.139.055.279.083.39.138.363-.92.586-1.673.726-2.315.14-.614.196-1.143.196-1.59v-.027h-4.13Zm8.256.027v-.027H17.62v.168a15.5 15.5 0 0 1-.223 1.785c-.112.614-.362 1.338-.697 2.231.446.223.865.446 1.2.67.334.223.641.474.864.697.474-.474.893-1.116 1.255-1.953a9.87 9.87 0 0 0 .754-2.539c.027-.168.027-.335.056-.502v-.53h-.001ZM11.4 20.83v-4.352c-.697.112-1.284.251-1.73.363-.446.111-.781.223-1.004.335.168.418.334.78.502 1.115.168.307.363.642.53.92.057.112.168.224.251.363.084.111.14.25.223.362.084.14.168.307.251.474.112.14.196.307.307.419h.67Zm1.172 0h.642c.25-.196.502-.474.697-.781.223-.307.473-.67.641-.977.196-.362.391-.697.558-1.032.167-.334.307-.641.419-.864a14.671 14.671 0 0 0-1.144-.335c-.417-.112-1.004-.223-1.812-.335v4.324h-.001Zm5.522-2.287v-.028c-.056-.084-.168-.195-.25-.279a2.03 2.03 0 0 0-.363-.28 2.668 2.668 0 0 0-.419-.25 11.369 11.369 0 0 1-.585-.307c-.112.223-.307.614-.586 1.143-.25.53-.697 1.172-1.255 1.87a5.194 5.194 0 0 0 1.87-.698 6.18 6.18 0 0 0 1.589-1.172v.001ZM7.718 17.65v-.027c-.196.111-.503.25-.809.39a6.16 6.16 0 0 0-1.032.53c.196.169.391.336.558.447.168.14.363.251.53.363.307.195.67.39 1.032.558.363.166.809.334 1.367.502-.196-.223-.335-.502-.474-.726-.14-.223-.307-.446-.446-.67-.14-.222-.251-.473-.363-.696a7.94 7.94 0 0 1-.362-.67h-.001Z" fill="#fff"/></svg>