<svg width="50" height="50" fill="none" xmlns="http://www.w3.org/2000/svg"><path fill-rule="evenodd" clip-rule="evenodd" d="M20.256.068c-2.663.22-4.422.536-5.734 1.03-.753.285-1.078.5-.902.595.073.04 1.461.098 3.084.13 5.087.1 8.647.535 11.087 1.355 1.928.648 4.565 1.98 6.066 3.062 2.23 1.61 4.533 4.593 6.009 7.782 1.35 2.916 1.81 4.95 1.912 8.426.03 1.06.099 2.104.152 2.319.125.503.767 1.206 1.36 1.489.677.323 1.62.258 2.278-.156.593-.374 1.038-.922 1.147-1.412.185-.833-.33-4.553-.997-7.214-1.77-7.047-5.622-12.014-11.657-15.028-2.338-1.168-4.156-1.721-7.2-2.194-1.509-.234-4.86-.327-6.605-.184Zm3.05 3.518c-4.173.25-8.523 1.353-11.404 2.895-1.97 1.054-3.372 2.089-4.987 3.68-3.503 3.448-5.573 7.57-6.512 12.96-.677 3.888-.474 9.899.407 12.05.118.288.249.524.29.524.118 0 .186-.523.298-2.284.223-3.5.856-7.73 1.517-10.14.571-2.08 1.486-4.005 3.07-6.457 1.976-3.059 5.197-5.49 9.419-7.109 2.67-1.024 4.113-1.256 7.689-1.237 3.048.017 3.123.003 3.779-.705.51-.55.68-.975.682-1.71.001-.541-.05-.756-.292-1.2-.356-.656-.822-1.087-1.326-1.23-.354-.1-1.348-.113-2.63-.037Zm-5.142 7.084a3.281 3.281 0 0 0-1.643 1.525c-.23.441-.265.628-.265 1.421 0 .796.035.981.27 1.434.5.967 1.32 1.587 2.305 1.743 2.323.37 4.207-1.665 3.636-3.926-.491-1.947-2.475-2.96-4.303-2.197Zm9.304 1.199c-.759 1.37-3.35 4.318-4.767 5.42-1.439 1.118-2.86 1.407-4.655.946-1.036-.265-1.773-.644-4.228-2.172-1.527-.951-2.262-1.345-2.944-1.577-.5-.17-.917-.298-.927-.285-.058.072 1.477 2.095 2.254 2.97.496.56 1.131 1.336 1.412 1.726.753 1.044 1.552 2.792 1.915 4.186.286 1.102.31 1.323.315 2.918.005 1.462-.028 1.862-.217 2.62-.554 2.219-1.774 4.891-3.242 7.098l-.387.583.278-.107c.424-.162 2.62-1.963 4.854-3.982 1.463-1.322 4.975-5.6 6.24-7.6 1.096-1.734 3.014-5.9 3.532-7.672.119-.405.256-.736.304-.736.05 0 .118.263.153.584.108.99.362 2.174.624 2.918.39 1.105 1.364 3.013 2.234 4.376.792 1.24 1.049 1.744.944 1.85-.053.054-.39.002-2.15-.336-1.51-.29-3.186-.13-4.262.404-.588.292-1.42 1.137-1.733 1.76-.118.235-.261.803-.318 1.262-.206 1.65.203 3.654 1.223 6.005.612 1.408.601 1.416.781-.588.267-2.973 1.25-4.527 2.866-4.53.53-.001 1.792.375 3.017.9 2.409 1.031 3.48 1.139 4.425.445.505-.37 1.045-1.077 1.496-1.955.294-.574 1.948-4.488 3.082-7.293.038-.094-.066-.074-.335.066-.599.31-1.546.6-2.367.727-2.203.339-4.24-1.179-6.131-4.567-1.012-1.812-1.755-3.678-2.345-5.886-.172-.642-.348-1.204-.391-1.248-.044-.045-.291.301-.55.77Zm21.516 3.042c-.03.125-.105.799-.167 1.497-.375 4.26-1.488 9.817-2.405 12.004-.824 1.966-2.449 4.655-3.743 6.193-.77.916-2.127 2.091-3.406 2.95-1.95 1.309-5.218 2.704-7.53 3.216-1.893.42-3.35.47-7.078.242-.998-.06-1.14-.047-1.513.146-.528.273-1.168 1.011-1.318 1.521-.276.935-.002 1.958.72 2.69.545.554.9.612 3.314.546 7.617-.207 13.062-2.297 17.357-6.664 2.48-2.52 4.232-5.384 5.283-8.632.498-1.54.96-3.387 1.161-4.654.43-2.69.459-7.675.057-9.6-.312-1.496-.59-2.048-.732-1.455Zm-12.74.36c-1.094.396-1.795 1.098-2.084 2.086-.451 1.543.17 3.063 1.562 3.822.574.313.723.349 1.44.352.658.003.9-.044 1.358-.262 2-.952 2.486-3.644.94-5.213-.805-.816-2.196-1.156-3.217-.786Zm-30.842 6.32c-.678.313-1.105.686-1.312 1.149-.158.353-.188.676-.19 2.093-.007 5.845 1.344 11.058 3.868 14.922 3.437 5.262 8.718 8.616 15.488 9.836 2.729.491 7.887.55 9.895.114 1.516-.33 2.036-.61 1.378-.744-.155-.032-.864-.108-1.576-.17-1.756-.155-5.535-.748-7.546-1.184-2.702-.586-4.606-1.28-6.449-2.348-1.208-.701-3.038-1.961-3.796-2.614-2.224-1.914-4.388-5.43-5.54-9-.97-3.006-1.161-4.778-.907-8.406.065-.922.087-1.841.049-2.044-.094-.506-.787-1.28-1.41-1.574a2.305 2.305 0 0 0-1.952-.03Zm35.012 2.684c-.005.546-.322 2.892-.51 3.775-.296 1.382-.522 1.942-1.202 2.974-.739 1.12-1.53 1.861-2.478 2.319-.657.317-.85.36-1.751.4-1.867.082-3.91-.443-6.065-1.558l-1.25-.647.65.607c1.852 1.73 3.4 2.931 4.446 3.452 1.47.731 3.66 1.027 4.907.663 2.044-.597 3.223-1.956 4.1-4.726.599-1.893.597-3.93-.004-5.76-.27-.823-.84-1.835-.843-1.5Z" fill="#0086FF"/></svg>