<svg width="50" height="50" fill="none" xmlns="http://www.w3.org/2000/svg"><path d="M5.87 10.812a26.9 26.9 0 0 0-1.623 2.12 34.826 34.826 0 0 0-1.002 1.608 26.304 26.304 0 0 0-1.05 2.008 34.907 34.907 0 0 0-.778 1.88c-.186.5-.486 1.49-.668 2.199-.181.71-.403 1.742-.493 2.294-.12.742-.175 1.88-.21 4.373L0 30.663h17.709l-.055-1.888c-.03-1.038-.125-2.296-.212-2.796a29.08 29.08 0 0 0-.402-1.863 28.202 28.202 0 0 0-.543-1.817c-.163-.473-.593-1.462-.954-2.198s-.883-1.695-1.16-2.132a27.527 27.527 0 0 0-1.262-1.766 26.077 26.077 0 0 0-1.83-2.034c-.59-.584-1.422-1.331-1.848-1.66a29.753 29.753 0 0 0-1.463-1.053c-.38-.25-.932-.588-1.227-.75l-.536-.293-.347.4ZM7.436 33.68a8.527 8.527 0 0 0-1.248.48 6.132 6.132 0 0 0-1.318.897c-.333.306-.715.731-.849.946l-.244.39-3.757.005v2.867h2.928v.33c0 .181.048.558.108.836.059.279.278.866.486 1.306.303.64.529.945 1.136 1.54.599.584.932.822 1.587 1.127.456.213 1.062.434 1.347.492.334.067 2.32.104 5.63.104 3.357 0 5.29-.036 5.63-.106.285-.058.884-.272 1.333-.476.656-.299.966-.518 1.587-1.127.621-.608.845-.911 1.15-1.554.208-.44.427-1.027.486-1.306.06-.278.108-.655.108-.836v-.33h2.928v.33c0 .181.048.558.108.836.059.279.278.866.486 1.306.303.64.529.945 1.136 1.54.599.584.932.822 1.587 1.127.456.213 1.062.434 1.347.492.334.067 2.307.104 5.581.104 3.321 0 5.243-.036 5.582-.106.284-.058.884-.272 1.332-.476.657-.299.966-.518 1.587-1.127.621-.608.846-.911 1.15-1.554.209-.44.428-1.027.487-1.306.06-.278.108-.655.108-.836v-.33h3.025v-2.867l-3.855-.006-.244-.39c-.134-.214-.516-.64-.849-.945a6.109 6.109 0 0 0-1.317-.897 8.397 8.397 0 0 0-1.294-.485c-.483-.12-1.45-.145-5.712-.145s-5.229.025-5.712.145c-.32.08-.902.298-1.293.485a6.109 6.109 0 0 0-1.318.897c-.333.306-.715.731-.849.946l-.244.39h-4.586l-.244-.39c-.134-.215-.516-.64-.85-.946a6.109 6.109 0 0 0-1.317-.897 8.397 8.397 0 0 0-1.293-.485c-.486-.12-1.445-.144-5.806-.138-4.226.005-5.327.032-5.76.144Zm35.967-23.155c-.102.062-.629.397-1.171.743s-1.315.887-1.717 1.203a28.97 28.97 0 0 0-1.477 1.258 22.119 22.119 0 0 0-1.562 1.648c-.448.53-1.11 1.393-1.47 1.917a24.593 24.593 0 0 0-1.24 2.081 31.55 31.55 0 0 0-.939 1.978 22.65 22.65 0 0 0-.69 2.046c-.185.657-.427 1.71-.537 2.341-.131.753-.219 1.797-.254 3.035l-.054 1.888H50l-.047-3.37c-.035-2.51-.088-3.624-.21-4.372a30.663 30.663 0 0 0-.414-2.007 31.99 31.99 0 0 0-.583-2.008 26.685 26.685 0 0 0-.833-2.102 30.52 30.52 0 0 0-.982-1.96 31.599 31.599 0 0 0-1.117-1.797 30.38 30.38 0 0 0-1.329-1.792c-.383-.47-.742-.853-.797-.85a.849.849 0 0 0-.285.12Z" fill="#0086FF"/><path d="M22.268 2.134c-.617.068-1.566.21-2.107.316-.542.105-1.457.325-2.032.488a30.89 30.89 0 0 0-2.186.733c-.627.241-1.63.689-2.23.995-.6.306-1.457.784-1.904 1.062a32.29 32.29 0 0 0-3.041 2.2l-.375.322 1.107.734a35.282 35.282 0 0 1 1.907 1.364c.44.347 1.256 1.077 1.814 1.623a30.379 30.379 0 0 1 1.753 1.886c.407.49 1.07 1.376 1.473 1.968a27.35 27.35 0 0 1 1.377 2.315c.353.682.84 1.734 1.082 2.339.241.605.593 1.649.78 2.32.189.672.43 1.716.535 2.32.106.605.236 1.615.289 2.246.053.631.097 1.631.098 2.223l.001 1.075h8.782v-1.094c0-.602.047-1.645.105-2.318.058-.673.21-1.787.339-2.474.129-.688.385-1.763.57-2.39.185-.626.54-1.634.789-2.238.248-.605.716-1.594 1.039-2.198a30.77 30.77 0 0 1 1.398-2.294 28.02 28.02 0 0 1 1.733-2.247 31.129 31.129 0 0 1 1.826-1.892 27.87 27.87 0 0 1 1.764-1.49 29.945 29.945 0 0 1 1.755-1.215l.896-.564-.423-.364c-.233-.2-.819-.657-1.302-1.015a29.629 29.629 0 0 0-1.912-1.276 29.977 29.977 0 0 0-1.814-1.01c-.43-.211-1.21-.56-1.736-.774a30.233 30.233 0 0 0-2.029-.722 29.233 29.233 0 0 0-2.256-.578 30.59 30.59 0 0 0-2.498-.382A30.586 30.586 0 0 0 24.854 2c-.805.006-1.969.066-2.586.134Z" fill="#0069B7"/></svg>