<svg width="50" height="50" fill="none" xmlns="http://www.w3.org/2000/svg"><path d="M27.292 13.496c1.754-.955 3.499-2.894 4.23-4.702 1.14-2.813 1.488-3.033 4.075-2.57 1.555.277 4.358 1.45 6.227 2.608 1.868 1.156 4.286 3.52 5.372 5.253 1.085 1.733 2.269 4.563 2.627 6.29.37 1.782.142 5.044-.53 7.542-.902 3.36-2.212 5.317-5.529 8.262-2.39 2.122-5.895 4.278-7.786 4.79l-3.439.929-11.434-10.235C14.744 25.968 9.672 20.736 9.672 19.868c0-.857.906-2.998 2.012-4.757l2.013-3.197 2.945 1.604c1.62.882 4.007 1.603 5.306 1.603 1.298 0 3.703-.732 5.344-1.625ZM8.577 34.213c.552-1.794.76-4.45.462-5.903-.497-2.425.205-1.985 8.574 5.37l9.114 8.01-4.042.223c-2.224.122-5.023.42-6.223.661-1.199.241-4.09 2.01-6.424 3.932L5.793 50l-2.896-2.587L0 44.827l3.787-3.677c2.083-2.021 4.238-5.143 4.79-6.937Z" fill="#0086FF"/><path d="M19.337.823c-1.176.422-2.546 1.725-3.046 2.897a5.44 5.44 0 0 0-.002 4.255c.496 1.168 1.973 2.487 3.281 2.93a7.52 7.52 0 0 0 4.755 0c1.308-.443 2.785-1.762 3.282-2.93a5.434 5.434 0 0 0 0-4.247C27.11 2.56 25.606 1.232 24.264.777 22.922.32 21.747-.027 21.65.002c-.096.03-1.137.399-2.313.821Z" fill="#0069B7"/></svg>