<svg width="50" height="50" fill="none" xmlns="http://www.w3.org/2000/svg"><path fill-rule="evenodd" clip-rule="evenodd" d="M10.766 3.131c-.871.283-1.737 1.075-2.135 1.952-.2.445-.212.617-.212 3.136 0 1.466.037 2.834.084 3.039l.084.373-3.14.03c-3.121.028-3.14.03-3.617.278-.652.34-1.38 1.176-1.639 1.882-.198.54-.208.722-.18 3.294l.031 2.722.275.531c.366.71.954 1.292 1.632 1.616l.557.267 3.034.03 3.033.03-.077.372c-.043.205-.077 1.481-.077 2.837 0 1.355.034 2.631.077 2.836l.077.371-3.033.03c-3.033.031-3.034.032-3.576.293-.677.326-1.29.93-1.647 1.621l-.275.532-.03 2.696c-.034 2.978.01 3.284.578 4.086l.291.41-.29.409c-.57.802-.613 1.107-.58 4.085l.031 2.697.262.506c.365.705.988 1.327 1.645 1.641l.557.267h5.518l.624-.345a3.526 3.526 0 0 0 1.52-1.609c.214-.445.221-.555.221-3.327 0-1.576-.036-2.968-.08-3.093l-.08-.226h8.902l-.085.277c-.046.152-.084 1.544-.084 3.093v2.816l.274.532c.366.709.955 1.291 1.633 1.616l.556.266h3.794c3.69 0 3.807-.006 4.26-.22.692-.326 1.385-1.04 1.714-1.768l.284-.627V42.82c0-1.41-.034-2.727-.075-2.925-.042-.198-.23-.622-.418-.941l-.343-.581.2-.287c.557-.798.626-1.13.668-3.192.02-1.067.077-1.927.124-1.91.048.016 2.175 2.926 4.728 6.466s4.782 6.587 4.953 6.769c.17.181.573.464.894.628.475.243.708.298 1.254.298 1.024 0 1.495-.239 3.585-1.82 2.268-1.716 2.219-1.67 2.627-2.438.297-.56.329-.698.325-1.425-.004-.596-.06-.927-.214-1.277-.295-.666-14.42-20.237-15.06-20.867-.742-.73-1.42-.981-2.424-.899l-.753.063-.04-2.14c-.043-2.28-.102-2.578-.667-3.39l-.2-.286.343-.58c.188-.32.376-.744.418-.942.041-.198.075-1.514.075-2.925V5.654l-.284-.627c-.33-.728-1.021-1.442-1.715-1.769-.446-.21-.607-.22-4.045-.249-3.963-.033-4.188-.007-5.074.592l-.47.319-.219-.21c-.12-.114-.439-.313-.71-.44-.481-.226-.563-.231-4.137-.252-2.806-.016-3.741.01-4.058.113Zm8.128 5.014c-.03-2.485-.034-2.54-.254-2.765l-.224-.229-3.62-.023c-3.994-.025-4.04-.019-4.248.59-.142.415-.148 4.899-.007 5.278.202.542.152.536 4.16.54 3.575.002 3.727-.005 3.915-.196.107-.11.22-.303.25-.43.032-.127.044-1.371.028-2.765Zm10.546.478c.036-2.806-.02-3.162-.527-3.379-.27-.115-1.01-.142-3.763-.137-1.885.004-3.525.047-3.644.096-.51.21-.535.368-.503 3.266.03 2.684.03 2.685.262 2.877.22.182.438.192 3.95.192h3.716l.239-.259c.237-.257.239-.278.27-2.656Zm-.031 5.635-.247-.25-.246-.25-12.959-.046c-9.768-.035-13.043-.017-13.3.072-.565.195-.592.338-.593 3.205l-.002 2.585.238.282.238.282 13.267.027c9.33.018 13.326-.006 13.466-.082.192-.106.197-.19.168-2.967l-.03-2.858Zm11.28 16.693c-4.011-5.56-7.386-10.188-7.5-10.285-.113-.097-.367-.176-.566-.176-.403 0-.46.038-2.816 1.806-1.345 1.009-1.547 1.197-1.633 1.524-.133.503-.068.642.955 2.052.482.663 3.775 5.224 7.319 10.134 6.023 8.344 6.467 8.934 6.811 9.028.203.056.45.07.551.032.286-.11 3.496-2.534 3.854-2.912.673-.709 1.152.06-6.975-11.203ZM18.914 22.89l-.289-.294-.288-.294h-7.296l-.277.243-.276.242v5.466l.277.242.276.243h7.296l.288-.294.289-.294v-5.26Zm7.379.069c.115-.265.209-.521.209-.57 0-.048-1.287-.087-2.86-.087h-2.86l.076.277c.042.152.076 1.476.076 2.942 0 1.466-.034 2.79-.076 2.942l-.076.276h3.895c2.141 0 3.894-.022 3.894-.048 0-.027-.438-.652-.974-1.39-1.287-1.77-1.415-2.036-1.469-3.047-.036-.675-.008-.896.165-1.295Zm3.148 11.386c.036-2.726-.018-3.1-.475-3.342-.251-.133-1.887-.15-13.226-.145-7.235.003-13.034.045-13.155.095-.51.21-.534.368-.503 3.267.03 2.632.034 2.688.248 2.865.2.166.64.186 5.617.255 2.97.042 8.902.043 13.184.004l7.785-.072.246-.245.247-.245.032-2.437Zm-21.072 5.65-.242-.246-.242-.247H5.231c-2.466 0-2.67.013-2.887.192l-.232.192-.03 2.714-.029 2.714.243.287.242.288h5.356l.237-.282.238-.283v-5.33Zm21.07 2.422c-.03-2.378-.032-2.399-.27-2.656l-.238-.26h-3.717c-3.511 0-3.73.011-3.95.193l-.232.192-.029 2.714-.029 2.714.242.287.242.288 3.604.029c4.11.032 4.108.032 4.3-.693.07-.263.097-1.279.078-2.808Z" fill="#0086FF"/></svg>