<svg width="25" height="19" fill="none" xmlns="http://www.w3.org/2000/svg"><path fill-rule="evenodd" clip-rule="evenodd" d="M4.596.081a4.08 4.08 0 0 0-.684.265 4.83 4.83 0 0 0-.608.386c-.154.12-.38.342-.5.493a4.152 4.152 0 0 0-.389.613 4.256 4.256 0 0 0-.251.649 3.351 3.351 0 0 0-.085.817c0 .325.03.616.085.817.046.172.16.467.254.655s.274.469.4.624c.128.155.358.381.512.503.154.123.425.292.603.378.178.085.49.197.691.248.24.06.532.092.836.091.258 0 .611-.033.786-.073.175-.04.498-.161.72-.269a3.24 3.24 0 0 0 .748-.51c.19-.174.43-.438.533-.587.103-.15.247-.41.319-.579a4.12 4.12 0 0 0 .199-.622c.037-.173.068-.478.068-.676 0-.198-.032-.512-.071-.697a3.992 3.992 0 0 0-.29-.77 3.314 3.314 0 0 0-.526-.767 4.193 4.193 0 0 0-.661-.558 4.068 4.068 0 0 0-.733-.357C6.24.05 6.064.022 5.562.006c-.5-.016-.675-.002-.966.075Zm8.89 1.133a3.417 3.417 0 0 0-.635.224c-.2.097-.466.287-.678.485a2.54 2.54 0 0 0-.52.649 4.128 4.128 0 0 0-.26.612 2.607 2.607 0 0 0-.085.721c.001.266.034.544.087.721.047.159.155.418.24.577.086.161.305.437.496.625.22.216.456.392.66.492.174.085.448.188.608.228.16.04.469.073.686.073.217 0 .52-.032.673-.071.154-.04.407-.135.563-.213.155-.077.395-.228.533-.335.137-.107.35-.333.473-.503.123-.169.281-.457.352-.638.095-.246.135-.453.154-.804.015-.29.001-.579-.036-.745a3.628 3.628 0 0 0-.233-.633c-.128-.265-.268-.453-.527-.708-.259-.256-.45-.394-.715-.518a3.89 3.89 0 0 0-.702-.24 3.356 3.356 0 0 0-.584-.067 3.418 3.418 0 0 0-.55.068Zm-7.515.698c.146.053.36.18.478.282.117.102.264.284.325.406.062.121.13.33.151.462.022.133.022.348.001.477-.02.13-.083.323-.14.431a1.791 1.791 0 0 1-.28.373c-.098.096-.3.23-.449.297-.208.094-.35.122-.615.122-.248 0-.411-.03-.588-.106a1.786 1.786 0 0 1-.431-.285 1.985 1.985 0 0 1-.317-.418c-.11-.204-.129-.301-.13-.649 0-.34.02-.447.118-.638.066-.126.198-.307.293-.401.096-.095.256-.213.357-.264.1-.05.265-.111.366-.135a2.3 2.3 0 0 1 .39-.047c.113-.003.325.039.47.093Zm8.734 1.08c.102.067.243.212.315.323.096.15.135.286.153.524.019.266.004.361-.085.542-.059.12-.177.277-.262.347a1.52 1.52 0 0 1-.32.197 1.3 1.3 0 0 1-.894-.025 1.275 1.275 0 0 1-.343-.232 1.336 1.336 0 0 1-.214-.33 1.318 1.318 0 0 1-.082-.433c0-.132.037-.327.082-.433.045-.105.142-.253.214-.328a1.28 1.28 0 0 1 .27-.208c.076-.039.23-.087.342-.106a1.46 1.46 0 0 1 .422.003c.12.022.3.094.402.16ZM1.327 7.557c-.113.035-.303.12-.421.188a2.289 2.289 0 0 0-.439.369 2.126 2.126 0 0 0-.335.518l-.113.274-.015 4.206c-.011 3.069 0 4.278.042 4.47.031.146.113.369.182.495.069.126.232.328.363.448.13.12.363.276.516.347l.28.129h16.165l.28-.13a2.17 2.17 0 0 0 .521-.366 2.29 2.29 0 0 0 .363-.473c.067-.13.146-.364.175-.52.036-.19.053-1.595.053-4.256 0-2.664-.017-4.066-.053-4.256a2.14 2.14 0 0 0-.153-.477 2.654 2.654 0 0 0-.262-.392 2.017 2.017 0 0 0-.401-.349 2.342 2.342 0 0 0-.478-.222c-.209-.062-1.275-.071-8.152-.069-6.401.002-7.951.015-8.118.066Zm20.96 2.148c-1.127.638-2.203 1.25-2.39 1.359l-.342.198v3.987l.44.25 2.392 1.358c1.623.922 1.985 1.11 2.142 1.11.147 0 .218-.032.33-.149l.141-.15v-4.372c0-3.126-.016-4.403-.055-4.478a.709.709 0 0 0-.158-.188.524.524 0 0 0-.277-.084c-.138 0-.591.236-2.223 1.16Z" fill="#fff"/></svg>