<svg width="50" height="50" fill="none" xmlns="http://www.w3.org/2000/svg"><path d="M22.717 5.822c1.938-.992 4.491-2.101 5.674-2.464 1.183-.362 3.747-.692 5.696-.733 2.951-.062 4.175.486 7.292 3.26l3.745 3.335-4.726 1.379c-2.601.758-6.523 2.57-8.716 4.029-2.194 1.456-5.013 3.996-6.264 5.643-1.252 1.646-2.824 2.993-3.493 2.993-.67 0-3.07-.62-5.334-1.38-2.264-.758-4.44-1.684-4.835-2.058-.395-.373-.097-1.884.662-3.356.759-1.471 2.594-4.064 4.078-5.759 1.484-1.696 4.284-3.896 6.221-4.889ZM0 22.528c0-1.891.235-4.052.522-4.803.288-.75.725-1.365.972-1.365.246 0 1.996 1.403 3.888 3.118 1.893 1.715 5.053 3.832 7.024 4.708 1.971.874 5.256 1.858 7.299 2.186 3.157.505 3.897 1.028 4.91 3.463.657 1.577 1.195 4.044 1.195 5.484 0 2.552-.103 2.616-4.149 2.616-2.281 0-6.053-.65-8.38-1.446-2.813-.961-5.751-2.97-8.757-5.985C.58 26.547 0 25.525 0 22.528Zm28.1.214c.79-1.21 2.823-3.15 4.52-4.315l3.084-2.116 1.954 2.398c1.075 1.319 2.574 4.504 3.332 7.08.867 2.95 1.208 6.3.923 9.061-.25 2.409-1.132 6.077-1.96 8.15-1.18 2.953-2.27 4.119-5.029 5.376-1.937.882-4.406 1.613-5.488 1.623-1.783.017-1.867-.161-.897-1.923.59-1.073 1.086-5.033 1.105-8.846.025-4.674-.45-8.097-1.472-10.598-1.412-3.458-1.417-3.833-.073-5.89Z" fill="#0086FF"/><path d="M15 1.593c-1.924.877-4.94 2.864-6.701 4.415C6.538 7.56 4.69 9.59 4.195 10.518c-.72 1.348-.508 2.109 1.044 3.765 1.069 1.142 2.226 2.077 2.572 2.077.346 0 1.62-1.694 2.829-3.766 1.21-2.07 3.64-5.035 5.402-6.586 1.762-1.551 4.777-3.538 6.7-4.415L26.24 0h-3.87C20.24 0 16.925.717 15 1.593Zm28.633 12.084c-1.79.289-3.222.913-3.184 1.388.039.475 1.116 3 2.395 5.61 1.987 4.06 2.323 5.84 2.323 12.298 0 4.154.118 7.552.263 7.552.144 0 1.227-2.115 2.407-4.699 1.617-3.543 2.148-6.165 2.163-10.672.01-3.432-.537-7.308-1.288-9.11-.718-1.725-1.422-3.081-1.565-3.014-.143.067-1.723.358-3.514.647ZM.86 33.183c0 .279.742 1.947 1.648 3.708.907 1.76 3.132 4.637 4.947 6.391 1.814 1.755 5.041 3.979 7.17 4.943 2.13.965 5.092 1.764 6.584 1.774 2.276.015 2.864-.419 3.656-2.699.52-1.494.945-3.436.945-4.315 0-1.36-.7-1.597-4.722-1.597-2.614 0-6.713-.759-9.18-1.699-2.45-.934-5.938-2.894-7.75-4.356C2.343 33.871.86 32.904.86 33.183Z" fill="#0069B7"/></svg>