<svg width="50" height="50" fill="none" xmlns="http://www.w3.org/2000/svg"><path d="M8.299 6.008c1.762-1.551 4.777-3.538 6.7-4.415C16.925.717 20.24 0 22.37 0h3.871l-3.497 1.593c-1.924.877-4.94 2.864-6.701 4.415-1.761 1.551-4.193 4.516-5.402 6.586-1.21 2.072-2.483 3.766-2.83 3.766-.345 0-1.502-.935-2.571-2.077-1.552-1.656-1.763-2.417-1.044-3.765.496-.929 2.343-2.959 4.104-4.51Zm14.418-.186c1.938-.992 4.491-2.101 5.674-2.464 1.183-.362 3.747-.692 5.696-.733 2.951-.062 4.175.486 7.292 3.26l3.745 3.335-4.726 1.379c-2.601.758-6.523 2.57-8.716 4.029-2.194 1.456-5.013 3.996-6.264 5.643-1.252 1.646-2.824 2.993-3.493 2.993-.67 0-3.07-.62-5.334-1.38-2.264-.758-4.44-1.684-4.835-2.058-.395-.373-.097-1.884.662-3.356.759-1.471 2.594-4.064 4.078-5.759 1.484-1.696 4.284-3.896 6.221-4.889Zm17.733 9.243c-.04-.475 1.393-1.1 3.183-1.388 1.79-.289 3.371-.58 3.514-.647.143-.067.847 1.289 1.565 3.014.751 1.802 1.298 5.678 1.288 9.11-.015 4.507-.546 7.129-2.163 10.672-1.18 2.584-2.263 4.699-2.407 4.699-.145 0-.263-3.398-.263-7.552 0-6.458-.336-8.238-2.323-12.298-1.279-2.61-2.356-5.135-2.395-5.61ZM0 22.528c0-1.891.235-4.052.522-4.803.288-.75.725-1.365.972-1.365.246 0 1.996 1.403 3.888 3.118 1.893 1.715 5.053 3.832 7.024 4.708 1.971.874 5.256 1.858 7.299 2.186 3.157.505 3.897 1.028 4.91 3.463.657 1.577 1.195 4.044 1.195 5.484 0 2.552-.103 2.616-4.149 2.616-2.281 0-6.053-.65-8.38-1.446-2.813-.961-5.751-2.97-8.757-5.985C.58 26.547 0 25.525 0 22.528Zm28.1.214c.79-1.21 2.823-3.15 4.52-4.315l3.084-2.116 1.954 2.398c1.075 1.319 2.574 4.504 3.332 7.08.867 2.95 1.208 6.3.923 9.061-.25 2.409-1.132 6.077-1.96 8.15-1.18 2.953-2.27 4.119-5.029 5.376-1.937.882-4.406 1.613-5.488 1.623-1.783.017-1.867-.161-.897-1.923.59-1.073 1.086-5.033 1.105-8.846.025-4.674-.45-8.097-1.472-10.598-1.412-3.458-1.417-3.833-.073-5.89ZM2.508 36.891C1.602 35.13.86 33.461.86 33.183c0-.279 1.484.688 3.297 2.15 1.813 1.462 5.301 3.422 7.752 4.356 2.466.94 6.565 1.699 9.179 1.699 4.022 0 4.722.237 4.722 1.597 0 .879-.425 2.82-.945 4.315-.792 2.28-1.38 2.715-3.656 2.699-1.492-.01-4.454-.809-6.583-1.774-2.13-.964-5.357-3.189-7.171-4.943-1.815-1.754-4.04-4.63-4.947-6.39Z" fill="#fff"/></svg>