<svg width="50" height="50" fill="none" xmlns="http://www.w3.org/2000/svg"><path fill-rule="evenodd" clip-rule="evenodd" d="M45.407 37.196h-30.46V9.672h30.46v27.524Zm-15.81-23.624a1.26 1.26 0 0 1 .273-.343c.087-.067.3-.124.473-.126.231-.002.382.08.572.307.251.303.258.347.258 1.765 0 .8.023 1.454.052 1.454.028 0 .558-.386 1.178-.857.926-.705 1.19-.857 1.484-.857.267 0 .409.067.563.265.114.146.207.349.207.45 0 .1-.05.287-.109.414-.06.128-.843.794-1.742 1.482l-1.633 1.25v2.944l.45.243c.25.133.579.388.733.567l.281.324 2.766-.932.471-1.412c.26-.776.586-1.71.725-2.077.18-.473.326-.7.504-.781.138-.064.332-.116.432-.116.1 0 .299.094.443.21a.617.617 0 0 1 .262.533c0 .178-.2.927-.444 1.665-.257.776-.393 1.323-.323 1.3.066-.024.74-.242 1.497-.485 1.286-.413 1.395-.432 1.643-.291.146.083.325.277.398.431.108.227.11.34.011.581a.954.954 0 0 1-.382.43c-.143.072-.808.304-1.479.517-.67.213-1.22.413-1.219.445 0 .032.52.42 1.154.864.634.444 1.194.883 1.244.977.05.093.09.282.09.42s-.028.324-.062.414c-.034.09-.193.232-.353.316-.172.09-.381.124-.51.083-.121-.038-.959-.592-1.862-1.232-.903-.64-1.712-1.158-1.797-1.153-.086.005-.718.194-1.405.42l-1.25.412-.112.566c-.062.31-.204.715-.316.898l-.202.332 1.747 2.437h2.102c1.946 0 2.12.015 2.353.2.138.11.279.311.312.447a.995.995 0 0 1-.034.5.825.825 0 0 1-.323.377c-.158.085-.685.116-1.697.1-.808-.013-1.468.003-1.468.034 0 .032.38.588.846 1.236.656.914.846 1.253.846 1.512a.81.81 0 0 1-.197.532 1.13 1.13 0 0 1-.438.26.733.733 0 0 1-.458-.055c-.118-.064-.612-.662-1.097-1.328l-.882-1.212-.298.992c-.164.546-.355 1.188-.423 1.428-.069.24-.235.523-.37.63a1.006 1.006 0 0 1-.534.195c-.175 0-.386-.098-.534-.248-.134-.136-.244-.343-.244-.46 0-.118.27-1.114.601-2.214l.602-2-1.65-2.294-1.99.022-.475.648c-.26.356-.63.875-.82 1.152l-.344.504.594 1.916c.326 1.053.594 2.048.594 2.211a.888.888 0 0 1-.215.53.725.725 0 0 1-.552.233.77.77 0 0 1-.557-.227c-.14-.144-.366-.717-.614-1.563-.215-.734-.422-1.336-.46-1.336-.037 0-.453.54-.923 1.199-.47.659-.927 1.226-1.015 1.26-.087.034-.269.062-.404.062s-.355-.111-.49-.248a.827.827 0 0 1-.244-.545c0-.212.234-.629.809-1.442.445-.628.827-1.19.849-1.249.028-.072-.43-.092-1.448-.063l-1.489.043-.256-.26a.815.815 0 0 1-.257-.6c0-.235.08-.415.257-.584.252-.24.302-.245 2.386-.295l2.128-.05 1.699-2.366-.198-.33c-.11-.18-.25-.59-.311-.908l-.113-.58-.66-.198c-.362-.11-.974-.308-1.36-.442l-.701-.241-1.737 1.246c-1.152.827-1.826 1.247-1.998 1.247-.143 0-.379-.093-.523-.208-.202-.161-.262-.298-.262-.598 0-.337.057-.436.423-.733.233-.189.793-.608 1.246-.933.452-.324.788-.622.746-.662-.042-.04-.67-.264-1.396-.497-.992-.318-1.37-.486-1.518-.678-.109-.14-.198-.351-.198-.47a.95.95 0 0 1 .16-.447 1.03 1.03 0 0 1 .4-.323c.187-.072.56.01 1.646.363.772.25 1.426.433 1.454.405.027-.028-.168-.69-.433-1.473-.454-1.337-.474-1.437-.333-1.692.082-.148.274-.33.427-.405.224-.109.335-.111.573-.011a.965.965 0 0 1 .427.387c.073.145.413 1.086.756 2.09l.625 1.829 2.78.916.292-.338c.161-.186.493-.436.737-.556l.443-.217v-2.985l-1.683-1.276c-.926-.701-1.71-1.345-1.742-1.43a1.327 1.327 0 0 1-.059-.386c0-.126.093-.35.207-.496.154-.198.296-.265.563-.265.294 0 .558.152 1.484.857.62.471 1.15.857 1.178.857.03 0 .052-.639.052-1.418 0-.885.044-1.501.116-1.639Z" fill="#fff"/><path fill-rule="evenodd" clip-rule="evenodd" d="M9.394.615c.298-.173.785-.38 1.082-.461.296-.081.856-.15 1.243-.154.387-.003.947.067 1.244.156.297.09.744.267.993.395.249.127.681.44.96.694.28.254.652.689.827.966.176.278.407.788.514 1.135.123.403.193.92.193 1.436 0 .525-.07 1.038-.202 1.468-.111.364-.38.92-.6 1.235l-.396.574h31.26l.488.495v29.834l-.612.522h-31.44v10.595l-.49.495H9.01l-.482-.52-.052-41.11-.486-.651c-.268-.358-.586-.916-.706-1.24-.12-.323-.243-.928-.272-1.344-.029-.422 0-1.01.066-1.332a6.03 6.03 0 0 1 .424-1.196c.168-.341.54-.858.828-1.149.287-.29.766-.67 1.065-.843Zm4.492 1.879a3.62 3.62 0 0 0-.878-.595c-.288-.129-.77-.238-1.145-.26-.459-.027-.8.016-1.165.148a3.903 3.903 0 0 0-.965.56c-.296.246-.561.603-.776 1.044-.276.568-.325.78-.325 1.391 0 .61.05.824.324 1.388.178.367.468.789.644.938.176.148.375.367.441.485.094.166.122 4.778.124 20.504l.004 20.29h3.185V7.632l.54-.59c.346-.378.616-.798.756-1.172.172-.461.208-.731.173-1.29-.03-.493-.12-.857-.3-1.21a4 4 0 0 0-.637-.876Zm31.521 34.702V9.672h-30.46v27.524h30.46Z" fill="#fff"/><path d="M30.877 23.436c.16.084.36.286.443.448.083.163.151.432.151.599 0 .166-.048.407-.106.534a1.368 1.368 0 0 1-.364.425c-.158.118-.42.193-.675.193-.254 0-.516-.075-.674-.193a1.368 1.368 0 0 1-.364-.425 1.531 1.531 0 0 1-.106-.534c0-.167.068-.436.15-.598a1.23 1.23 0 0 1 .423-.444c.15-.083.398-.152.552-.154.153-.002.41.065.57.149Z" fill="#fff"/></svg>