<svg width="15" height="12" viewBox="0 0 15 12" fill="none" xmlns="http://www.w3.org/2000/svg">
<path d="M3.62576 1.40109C3.70718 1.43219 3.82725 1.50566 3.89262 1.56436C3.95797 1.62307 4.03958 1.72858 4.07398 1.79888C4.10839 1.86918 4.14628 1.98959 4.15818 2.06647C4.17011 2.14336 4.17038 2.26738 4.15881 2.3421C4.14723 2.41679 4.1122 2.52903 4.08096 2.59151C4.04974 2.654 3.97935 2.75084 3.92457 2.80677C3.86977 2.86266 3.75705 2.94013 3.67405 2.97891C3.55782 3.03319 3.47899 3.04937 3.33119 3.04929C3.19254 3.0492 3.10145 3.03211 3.00307 2.98769C2.92816 2.95389 2.81985 2.87993 2.76238 2.82336C2.7049 2.76677 2.6255 2.65795 2.58598 2.58151C2.52482 2.46332 2.51396 2.4072 2.51341 2.20626C2.51287 2.0098 2.52395 1.94764 2.57917 1.83738C2.61569 1.76444 2.68924 1.66001 2.7426 1.60533C2.79596 1.55066 2.88542 1.48198 2.94134 1.45271C2.99729 1.42344 3.08922 1.38839 3.14564 1.37482C3.20208 1.36126 3.29987 1.34891 3.36295 1.34736C3.42607 1.34583 3.54434 1.37001 3.62576 1.40109Z" fill="#0086FF"/>
<path d="M8.49752 2.02614C8.55413 2.06436 8.63296 2.14825 8.67276 2.21254C8.72628 2.29907 8.74848 2.3779 8.75815 2.51577C8.76888 2.66915 8.76057 2.72446 8.71111 2.82875C8.67804 2.89844 8.61212 2.98891 8.56459 3.0298C8.51705 3.07069 8.43664 3.12192 8.38587 3.14363C8.3351 3.16534 8.22853 3.1831 8.14905 3.1831C8.06442 3.1831 7.95592 3.16072 7.88725 3.12912C7.82275 3.09946 7.73689 3.03914 7.6965 2.99511C7.6561 2.95108 7.60238 2.86503 7.57716 2.80388C7.55191 2.74272 7.53126 2.63015 7.53126 2.55371C7.53126 2.47727 7.55191 2.3647 7.57716 2.30354C7.60238 2.24239 7.6561 2.15684 7.6965 2.11345C7.73689 2.07003 7.80461 2.01605 7.84694 1.99351C7.8893 1.97094 7.9751 1.94328 8.03761 1.93202C8.10016 1.92076 8.20606 1.92171 8.27296 1.93411C8.33989 1.9465 8.44092 1.98792 8.49752 2.02614Z" fill="#0086FF"/>
<path fill-rule="evenodd" clip-rule="evenodd" d="M7.81763 0.9976C7.72401 1.01834 7.56466 1.07676 7.46352 1.12741C7.35159 1.18347 7.2036 1.2931 7.08527 1.40765C6.95558 1.53318 6.85894 1.65806 6.7949 1.7829C6.74208 1.8858 6.67709 2.04504 6.65045 2.13677C6.61929 2.24401 6.60226 2.39288 6.60272 2.55371C6.60321 2.70773 6.62182 2.86797 6.65116 2.97065C6.67739 3.06238 6.73753 3.21248 6.78482 3.30421C6.83282 3.39735 6.95501 3.5569 7.0616 3.66561C7.18409 3.79058 7.3158 3.8924 7.42947 3.95002C7.52685 3.99941 7.67958 4.05879 7.76887 4.082C7.85816 4.10521 8.03026 4.12419 8.15131 4.12419C8.27236 4.12419 8.44147 4.10557 8.52713 4.0828C8.61277 4.06004 8.7539 4.00481 8.84071 3.96011C8.92752 3.91539 9.06133 3.82816 9.13803 3.76629C9.21474 3.70441 9.33358 3.57361 9.40212 3.4756C9.47065 3.37759 9.55896 3.21137 9.59838 3.10621C9.65152 2.96443 9.67364 2.84437 9.68396 2.64143C9.69246 2.47388 9.68489 2.30691 9.66435 2.21059C9.64591 2.12412 9.58724 1.95957 9.53393 1.84491C9.46267 1.69164 9.38487 1.58313 9.2401 1.43514C9.09578 1.28762 8.98936 1.20777 8.84161 1.13616C8.73078 1.08246 8.55462 1.02003 8.45015 0.997433C8.34572 0.974863 8.19898 0.957184 8.12407 0.958129C8.04916 0.959074 7.91128 0.976836 7.81763 0.9976ZM8.67276 2.21254C8.63296 2.14825 8.55413 2.06436 8.49752 2.02614C8.44092 1.98792 8.33989 1.9465 8.27296 1.93411C8.20606 1.92171 8.10016 1.92076 8.03761 1.93202C7.9751 1.94328 7.8893 1.97094 7.84694 1.99351C7.80461 2.01605 7.73689 2.07003 7.6965 2.11345C7.6561 2.15684 7.60238 2.24239 7.57716 2.30354C7.55191 2.3647 7.53126 2.47727 7.53126 2.55371C7.53126 2.63015 7.55191 2.74272 7.57716 2.80388C7.60238 2.86503 7.6561 2.95108 7.6965 2.99511C7.73689 3.03914 7.82275 3.09946 7.88725 3.12912C7.95592 3.16072 8.06442 3.1831 8.14905 3.1831C8.22853 3.1831 8.3351 3.16534 8.38587 3.14363C8.43664 3.12192 8.51705 3.07069 8.56459 3.0298C8.61212 2.98891 8.67804 2.89844 8.71111 2.82875C8.76057 2.72446 8.76888 2.66915 8.75815 2.51577C8.74848 2.3779 8.72628 2.29907 8.67276 2.21254Z" fill="#0086FF"/>
<path fill-rule="evenodd" clip-rule="evenodd" d="M2.85913 0.342668C2.74998 0.372827 2.57838 0.441677 2.47778 0.495685C2.37716 0.549693 2.22445 0.650315 2.13843 0.719305C2.05241 0.788267 1.92676 0.916519 1.85917 1.0043C1.79162 1.09208 1.69427 1.25146 1.64287 1.35848C1.59144 1.46549 1.52824 1.63435 1.50239 1.73372C1.47216 1.85008 1.45543 2.0183 1.45543 2.20626C1.45543 2.39422 1.47216 2.56244 1.50239 2.67879C1.52824 2.77816 1.59212 2.94844 1.64434 3.05721C1.69656 3.16598 1.79715 3.32828 1.86789 3.41789C1.93863 3.50751 2.06679 3.63859 2.15271 3.70919C2.23859 3.77982 2.39007 3.878 2.48933 3.92737C2.58856 3.97676 2.76205 4.04125 2.87482 4.07068C3.00819 4.10548 3.17121 4.12405 3.34111 4.12377C3.48477 4.12355 3.68201 4.10437 3.77939 4.08114C3.87677 4.05793 4.05737 3.9881 4.18071 3.92598C4.32595 3.85285 4.47298 3.74878 4.59804 3.63064C4.70422 3.53033 4.83813 3.37759 4.89558 3.29125C4.95303 3.20492 5.03295 3.05449 5.07318 2.95695C5.11341 2.85938 5.16339 2.6975 5.18423 2.59716C5.20507 2.49681 5.22212 2.32092 5.22212 2.20626C5.22212 2.0916 5.20423 1.91023 5.18235 1.80321C5.16045 1.6962 5.08789 1.4956 5.02107 1.35742C4.94128 1.19248 4.84053 1.04041 4.72765 0.914601C4.63307 0.809253 4.4671 0.663963 4.3588 0.591777C4.25049 0.51959 4.06663 0.426807 3.95021 0.385585C3.77612 0.323989 3.67806 0.308645 3.39804 0.29925C3.11932 0.289911 3.02153 0.297805 2.85913 0.342668ZM3.89262 1.56436C3.82725 1.50566 3.70718 1.43219 3.62576 1.40109C3.54434 1.37001 3.42607 1.34583 3.36295 1.34736C3.29987 1.34891 3.20208 1.36126 3.14564 1.37482C3.08922 1.38839 2.99729 1.42344 2.94134 1.45271C2.88542 1.48198 2.79596 1.55066 2.7426 1.60533C2.68924 1.66001 2.61569 1.76444 2.57917 1.83738C2.52395 1.94764 2.51287 2.0098 2.51341 2.20626C2.51396 2.4072 2.52482 2.46332 2.58598 2.58151C2.6255 2.65795 2.7049 2.76677 2.76238 2.82336C2.81985 2.87993 2.92816 2.95389 3.00307 2.98769C3.10145 3.03211 3.19254 3.0492 3.33119 3.04929C3.47899 3.04937 3.55782 3.03319 3.67405 2.97891C3.75705 2.94013 3.86977 2.86266 3.92457 2.80677C3.97935 2.75084 4.04974 2.654 4.08096 2.59151C4.1122 2.52903 4.14723 2.41679 4.15881 2.3421C4.17038 2.26738 4.17011 2.14336 4.15818 2.06647C4.14628 1.98959 4.10839 1.86918 4.07398 1.79888C4.03958 1.72858 3.95797 1.62307 3.89262 1.56436Z" fill="#0086FF"/>
<path d="M1.036 4.66485C0.972859 4.68498 0.867034 4.73384 0.800815 4.77345C0.734596 4.81306 0.624494 4.90893 0.556151 4.98651C0.48778 5.06406 0.403637 5.19884 0.369125 5.28601L0.306365 5.44451L0.297894 7.87667C0.291711 9.65114 0.297976 10.3502 0.321129 10.4617C0.33859 10.5458 0.384352 10.6743 0.422841 10.7473C0.461303 10.8203 0.552364 10.9369 0.625175 11.0063C0.697986 11.0758 0.827646 11.1662 0.913314 11.2072L1.06907 11.2817H10.0853L10.2416 11.207C10.3275 11.1659 10.4582 11.0706 10.5321 10.9952C10.606 10.9198 10.697 10.7966 10.7343 10.7213C10.7717 10.6461 10.8156 10.5108 10.832 10.4207C10.8518 10.311 10.8616 9.49827 10.8616 7.96006C10.8616 6.41982 10.8519 5.60914 10.8319 5.49913C10.8156 5.4089 10.7773 5.28465 10.7469 5.22303C10.7165 5.16138 10.6507 5.05942 10.6006 4.99641C10.5506 4.93342 10.4499 4.84275 10.3769 4.79494C10.3039 4.74713 10.1839 4.68937 10.1103 4.66658C9.99387 4.63055 9.39942 4.62533 5.56357 4.62669C1.99327 4.62794 1.12886 4.63522 1.036 4.66485Z" fill="#0086FF"/>
<path d="M12.7264 5.90681C12.0978 6.27572 11.4977 6.62923 11.3928 6.69236L11.2021 6.80713V9.1124L11.4473 9.25647C11.5821 9.33571 12.1827 9.68931 12.782 10.0422C13.687 10.5752 13.8893 10.684 13.9764 10.684C14.0586 10.684 14.0983 10.6655 14.1603 10.5977L14.2393 10.5114V7.9831C14.2393 6.17568 14.2306 5.43745 14.2089 5.39403C14.1922 5.36065 14.1523 5.31172 14.1204 5.28529C14.0884 5.25888 14.0189 5.23698 13.9658 5.23665C13.8891 5.23618 13.6362 5.37288 12.7264 5.90681Z" fill="#0086FF"/>
<path fill-rule="evenodd" clip-rule="evenodd" d="M1.85917 1.0043C1.92676 0.916519 2.05241 0.788267 2.13843 0.719305C2.22445 0.650315 2.37716 0.549693 2.47778 0.495685C2.57838 0.441677 2.74998 0.372827 2.85913 0.342668C3.02153 0.297805 3.11932 0.289911 3.39804 0.29925C3.67806 0.308645 3.77612 0.323989 3.95021 0.385585C4.06663 0.426807 4.25049 0.51959 4.3588 0.591777C4.4671 0.663963 4.63307 0.809253 4.72765 0.914601C4.8243 1.02233 4.91207 1.14931 4.9854 1.28714C4.9977 1.31028 5.0096 1.33372 5.02107 1.35742C5.07256 1.4639 5.12746 1.60745 5.15996 1.71668C5.15994 1.71659 5.15999 1.71676 5.15996 1.71668C5.1696 1.74909 5.17734 1.77873 5.18235 1.80321C5.20423 1.91023 5.22212 2.0916 5.22212 2.20626C5.22212 2.30704 5.20895 2.45514 5.19161 2.55765C5.19158 2.55779 5.19163 2.55751 5.19161 2.55765C5.18924 2.57161 5.18673 2.58513 5.18423 2.59716C5.17286 2.6519 5.15282 2.72495 5.13042 2.79589C5.11176 2.85499 5.09146 2.91261 5.07318 2.95695C5.03295 3.05449 4.95303 3.20492 4.89558 3.29125C4.88046 3.31397 4.86004 3.34129 4.83624 3.37104C4.76957 3.45435 4.67628 3.55673 4.59804 3.63064C4.47298 3.74878 4.32595 3.85285 4.18071 3.92598C4.05737 3.9881 3.87677 4.05793 3.77939 4.08114C3.68201 4.10437 3.48477 4.12355 3.34111 4.12377C3.17121 4.12405 3.00819 4.10548 2.87482 4.07068C2.76205 4.04125 2.58856 3.97676 2.48933 3.92737C2.39007 3.878 2.23859 3.77982 2.15271 3.70919C2.06679 3.63859 1.93863 3.50751 1.86789 3.41789C1.79715 3.32828 1.69656 3.16598 1.64434 3.05721C1.61115 2.98807 1.57324 2.89409 1.54339 2.80925C1.52628 2.76062 1.51181 2.715 1.50239 2.67879C1.47216 2.56244 1.45543 2.39422 1.45543 2.20626C1.45543 2.0183 1.47216 1.85008 1.50239 1.73372C1.52824 1.63435 1.59144 1.46549 1.64287 1.35848C1.69427 1.25146 1.79162 1.09208 1.85917 1.0043ZM3.31437 2.14055C3.31421 2.14136 3.31404 2.1422 3.31387 2.14306L3.31273 2.14094C3.31327 2.14081 3.31382 2.14068 3.31437 2.14055ZM3.33172 2.13379C3.33065 2.13379 3.32963 2.13379 3.32864 2.13379L3.33172 2.13379ZM3.32864 2.13379C3.32953 2.13226 3.33046 2.13068 3.33142 2.12906L3.32864 2.13379ZM3.3337 2.13379C3.33307 2.13379 3.33238 2.13379 3.33172 2.13379L3.3337 2.13379ZM3.31273 2.14094L3.31387 2.14306C3.31372 2.14381 3.31351 2.14483 3.31335 2.14562C3.31323 2.14619 3.31311 2.14676 3.31299 2.14735C3.31214 2.15145 3.31111 2.15621 3.30988 2.16159C3.30816 2.16911 3.30606 2.17784 3.3035 2.18768L3.29715 2.18608L3.29079 2.18299L3.28595 2.17294M3.29715 2.18608L3.29187 2.18524L3.29715 2.18608ZM3.29898 2.18703L3.3035 2.18768C3.30343 2.18797 3.30322 2.18877 3.30314 2.18905L3.29898 2.18703ZM3.38306 2.15234C3.37807 2.15033 3.37147 2.14787 3.3635 2.14532C3.36122 2.1446 3.35877 2.14385 3.35652 2.14318L3.35589 2.1441C3.35587 2.14396 3.35591 2.14421 3.35589 2.1441C3.35619 2.14589 3.35745 2.15322 3.35976 2.16454L3.38324 2.15988L3.38306 2.15234ZM3.38489 2.22575L3.3761 2.22443L3.38496 2.22873L3.38489 2.22575ZM3.33165 2.26233L3.32978 2.26416L3.33165 2.26233ZM3.32515 2.16431L3.32961 2.17223L3.31642 2.18647L3.32515 2.16431ZM3.33168 2.21775L3.3554 2.22136L3.33168 2.21775ZM3.3317 2.16997L3.32961 2.17223L3.33173 2.17616L3.3317 2.16997ZM3.35495 2.21957L3.35127 2.21236L3.35356 2.21354L3.35495 2.21957ZM3.35495 2.21957L3.3554 2.22136L3.35495 2.21957ZM3.33173 2.17616L3.32961 2.17223L3.33173 2.17616ZM3.35356 2.21354L3.35495 2.21957L3.35356 2.21354ZM3.34168 2.25245L3.33166 2.24292L3.34168 2.25245ZM3.36308 2.19524L3.3626 2.20403L3.36297 2.20626C3.36297 2.20933 3.36285 2.21262 3.36287 2.21467C3.36287 2.21459 3.36288 2.21475 3.36287 2.21467C3.36296 2.2161 3.36305 2.21733 3.36309 2.21817M3.3285 2.2615L3.31486 2.23297C3.31499 2.23908 3.31516 2.24509 3.31537 2.25055C3.31678 2.25413 3.31816 2.25756 3.31949 2.26081C3.32218 2.26104 3.32519 2.26128 3.3285 2.2615ZM3.30363 2.21968L3.30444 2.21762L3.30207 2.21537C3.30252 2.21663 3.30313 2.21832 3.30363 2.21968ZM3.31642 2.18647L3.31471 2.18832C3.3147 2.18909 3.31468 2.19012 3.31468 2.1909L3.31642 2.18647ZM8.9831 10.2373C8.98208 10.2542 8.98184 10.2515 8.98323 10.2352C8.98318 10.236 8.98314 10.2367 8.9831 10.2373ZM6.87249 3.44063C6.88558 3.45857 6.89942 3.47689 6.91377 3.49528C6.94367 3.53358 6.97576 3.57213 7.0078 3.60798C7.02138 3.62319 7.03496 3.63791 7.04835 3.65192C7.05279 3.65657 7.05721 3.66113 7.0616 3.66561C7.18409 3.79058 7.3158 3.8924 7.42947 3.95002C7.52685 3.99941 7.67958 4.05879 7.76887 4.082C7.85816 4.10521 8.03026 4.12419 8.15131 4.12419C8.27236 4.12419 8.44147 4.10557 8.52713 4.0828C8.61277 4.06004 8.7539 4.00481 8.84071 3.96011C8.92752 3.91539 9.06133 3.82816 9.13803 3.76629C9.21474 3.70441 9.33358 3.57361 9.40212 3.4756C9.42358 3.4449 9.44698 3.40752 9.47021 3.36742C9.49864 3.31835 9.52681 3.26521 9.55087 3.21527C9.55085 3.21532 9.55089 3.21522 9.55087 3.21527C9.5699 3.17576 9.58642 3.1381 9.59838 3.10621C9.63529 3.00773 9.65723 2.91974 9.67065 2.80718C9.67655 2.75767 9.68081 2.70342 9.68396 2.64143C9.68677 2.58615 9.68782 2.53092 9.68724 2.47828C9.68605 2.37138 9.67811 2.27513 9.66435 2.21059C9.64591 2.12412 9.58724 1.95957 9.53393 1.84491C9.46267 1.69164 9.38487 1.58313 9.2401 1.43514C9.09578 1.28762 8.98936 1.20777 8.84161 1.13616C8.73078 1.08246 8.55462 1.02003 8.45015 0.997433C8.34572 0.974863 8.19898 0.957184 8.12407 0.958129C8.04916 0.959074 7.91128 0.976836 7.81763 0.9976C7.72401 1.01834 7.56466 1.07676 7.46352 1.12741C7.35159 1.18347 7.2036 1.2931 7.08527 1.40765C7.05982 1.43228 7.03564 1.45689 7.01273 1.48148C6.91891 1.58219 6.84637 1.68256 6.7949 1.7829C6.74208 1.8858 6.67709 2.04504 6.65045 2.13677C6.64418 2.15833 6.63849 2.18157 6.63339 2.20626C6.61719 2.28479 6.60704 2.3779 6.60382 2.47785C6.60302 2.50275 6.60265 2.52808 6.60272 2.55371C6.60284 2.59007 6.60397 2.62678 6.606 2.66299C6.60856 2.7085 6.61257 2.75323 6.61782 2.79552C6.62189 2.82835 6.62672 2.8597 6.63221 2.88881C6.63786 2.91876 6.6442 2.94632 6.65116 2.97065C6.67739 3.06238 6.73753 3.21248 6.78482 3.30421C6.80405 3.34153 6.83521 3.38952 6.87249 3.44063ZM8.2282 2.6081L8.24345 2.61361L8.22711 2.60598L8.2282 2.6081ZM8.10843 2.55135L8.11152 2.5495L8.10705 2.54951L8.10743 2.55089L8.10843 2.55135ZM8.10743 2.55089L8.10705 2.54951L8.10443 2.54952L8.10743 2.55089ZM8.10443 2.54952L8.10705 2.54951L8.10625 2.54708L8.10548 2.54429L8.10499 2.5465L8.10443 2.54952ZM8.10777 2.53255L8.10536 2.54335L8.10269 2.5336L8.10777 2.53255ZM8.10269 2.5336L8.10536 2.54335L8.10499 2.5465L8.10443 2.54952L8.10348 2.54908L8.08793 2.54192L8.08539 2.53719L8.10269 2.5336ZM8.08539 2.53719L8.08314 2.53296L8.08539 2.53719ZM7.98216 2.33258C7.98257 2.33229 7.98258 2.33227 7.98216 2.33258V2.33258ZM7.88949 2.41181L7.88689 2.41513C7.88529 2.41723 7.8829 2.42041 7.87982 2.42463C7.8798 2.42467 7.87985 2.4246 7.87982 2.42463C7.87732 2.42807 7.87429 2.43229 7.87093 2.43709M7.84883 2.60479C7.84761 2.59941 7.84628 2.59344 7.84489 2.58694L7.91001 2.57347L7.92013 2.57264L7.84883 2.60479ZM7.92013 2.57264L7.92532 2.5703L7.911 2.57326L7.92013 2.57264ZM7.91001 2.57347L7.84299 2.57788C7.84359 2.58077 7.84424 2.5839 7.84489 2.58694L7.91001 2.57347ZM7.92532 2.5703L7.98541 2.55787L7.95607 2.55643L7.92532 2.5703ZM8.0918 2.5611L8.07667 2.56213L8.08871 2.56295L8.0918 2.5611ZM8.09887 2.56345L8.08871 2.56295L8.0918 2.5611L8.09742 2.56072L8.09887 2.56345ZM8.09887 2.56345L8.10028 2.56611L8.10086 2.56355L8.09887 2.56345ZM8.10086 2.56355L8.09887 2.56345L8.09742 2.56072L8.10122 2.56193L8.10086 2.56355ZM8.10086 2.56355L8.10028 2.56611L8.10188 2.56826L8.11134 2.56564L8.10642 2.56383L8.10086 2.56355ZM8.10642 2.56383L8.10086 2.56355L8.10122 2.56193L8.10642 2.56383ZM8.10642 2.56383L8.11134 2.56564L8.11097 2.56382L8.10642 2.56383ZM8.11097 2.56382L8.10642 2.56383L8.10122 2.56193L8.10189 2.56041L8.10989 2.55987L8.11097 2.56382ZM8.10189 2.56041L8.10321 2.55448L8.09666 2.55842L8.09742 2.56072L8.10189 2.56041ZM8.09742 2.56072L8.09666 2.55842L8.09477 2.55955L8.09742 2.56072ZM8.09477 2.55955L8.0918 2.5611L8.09477 2.55955ZM8.07984 2.53834L8.08539 2.53719L8.08314 2.53296M8.07763 2.5388L8.06627 2.54919L8.07763 2.5388ZM8.08793 2.54192L8.09149 2.54955L8.10348 2.54908L8.08793 2.54192ZM8.09477 2.55955L8.09742 2.56072L8.0918 2.5611L8.09477 2.55955ZM8.09742 2.56072L8.10189 2.56041L8.10122 2.56193L8.09742 2.56072ZM8.11097 2.56382L8.11134 2.56564L8.11684 2.56411L8.11097 2.56382ZM8.10188 2.56826L8.10028 2.56611L8.09958 2.56926L8.10188 2.56826ZM8.21733 2.78574L8.18483 2.72528L8.19636 2.78741C8.19681 2.78739 8.19732 2.78736 8.19774 2.78734C8.20556 2.7869 8.21144 2.78648 8.21518 2.78618C8.21574 2.78606 8.21669 2.78587 8.21733 2.78574ZM7.86967 2.43966C7.86997 2.43897 7.87013 2.43861 7.87014 2.4386L7.86967 2.43966ZM7.86895 2.44132C7.86921 2.44071 7.86949 2.44005 7.86967 2.43966L7.86895 2.44132ZM7.86967 2.43966C7.87006 2.43883 7.87055 2.43789 7.87093 2.43709L7.86967 2.43966ZM8.07273 2.30745L8.12668 2.41195L8.10589 2.29992C8.09754 2.30169 8.08622 2.30419 8.07273 2.30745ZM8.13233 2.42245L8.12668 2.41195L8.13045 2.43226L8.13233 2.42245ZM8.38806 2.38335C8.38745 2.38269 8.38684 2.38202 8.38621 2.38134C8.38186 2.37659 8.37768 2.37217 8.37372 2.36809M8.14582 2.52869L8.14813 2.5273L8.14766 2.52501L8.14582 2.52869ZM8.46048 2.53602C8.46055 2.53766 8.46061 2.53944 8.46067 2.54137C8.46037 2.54334 8.45936 2.5461 8.45895 2.54853C8.45829 2.54521 8.45737 2.54071 8.4564 2.53625L8.46048 2.53602ZM8.19828 2.42371L8.18312 2.45404L8.19828 2.42371ZM12.8233 6.06687L12.7389 5.92745L12.8233 6.06687Z" fill="#0086FF"/>
</svg>
