<svg width="50" height="50" viewBox="0 0 50 50" fill="none" xmlns="http://www.w3.org/2000/svg">
<path d="M16.603 48.3436L2.15399 48.291L1.70913 47.8462L1.65659 33.3984H16.603V48.3436Z" fill="#0086FF"/>
<path d="M16.603 16.6016H1.6603L1.66176 9.49707C1.66284 3.99463 1.69077 2.33799 1.7857 2.15039C1.85319 2.01719 2.01736 1.85303 2.15058 1.78555C2.33819 1.69062 3.99497 1.6627 9.49789 1.66162L16.603 1.66016V16.6016Z" fill="#0086FF"/>
<path d="M31.6433 31.6406H18.361V18.3594H31.6433V31.6406Z" fill="#0086FF"/>
<path d="M48.2952 2.15381L48.3477 16.6016H33.4013V1.65645L47.8503 1.70898L48.2952 2.15381Z" fill="#0086FF"/>
<path d="M48.2952 47.8462L47.8503 48.291L33.4013 48.3436V33.3984H48.3477L48.2952 47.8462Z" fill="#0086FF"/>
<path fill-rule="evenodd" clip-rule="evenodd" d="M41.7835 6.14012C42.0839 6.27772 42.5145 6.57498 42.7403 6.80076C42.9661 7.02654 43.2673 7.45955 43.4095 7.76287C43.626 8.2244 43.668 8.44998 43.6677 9.14451C43.6672 9.85428 43.6276 10.0552 43.3947 10.5303C43.2311 10.864 42.9073 11.2824 42.5841 11.5778C42.1806 11.9466 41.8858 12.1191 41.4061 12.2673C41.0543 12.376 40.5999 12.4648 40.3964 12.4648C40.1928 12.4648 39.7384 12.376 39.3866 12.2673C38.907 12.1191 38.6122 11.9466 38.2087 11.5778C37.9035 11.299 37.562 10.8643 37.4201 10.5743C37.2707 10.2691 37.1458 9.80633 37.1104 9.42703C37.0685 8.97772 37.0975 8.63182 37.2093 8.24705C37.2963 7.94774 37.5132 7.49149 37.6913 7.23309C37.8693 6.97469 38.2262 6.61785 38.4843 6.44002C38.7423 6.26219 39.1573 6.05125 39.4064 5.97137C39.6871 5.88133 40.121 5.83826 40.5483 5.85809C41.0273 5.88035 41.4037 5.96629 41.7835 6.14012ZM38.7361 9.09891C38.7361 8.85291 38.811 8.70828 39.0366 8.51844C39.32 8.27996 39.3981 8.26561 40.4114 8.26561C41.4685 8.26561 41.4902 8.2702 41.7712 8.55106C41.9608 8.74061 42.0567 8.93563 42.0567 9.13153C42.0567 9.30262 41.9576 9.54168 41.821 9.70057C41.5867 9.97293 41.5779 9.97459 40.3964 9.97459C39.2148 9.97459 39.206 9.97293 38.9717 9.70057C38.8239 9.52869 38.7361 9.30447 38.7361 9.09891Z" fill="white"/>
<path fill-rule="evenodd" clip-rule="evenodd" d="M38.8315 4.38631C38.4811 4.50574 37.9652 4.75057 37.6851 4.93026C37.405 5.11004 36.9665 5.48641 36.7107 5.76678C36.4549 6.04715 36.1262 6.49656 35.9803 6.76561C35.8344 7.03475 35.6475 7.51346 35.5652 7.82957C35.4829 8.14569 35.416 8.73563 35.4167 9.14061C35.4172 9.54559 35.4764 10.0967 35.548 10.3652C35.6196 10.6338 35.8059 11.1162 35.9619 11.4372C36.1199 11.7623 36.5053 12.2864 36.8316 12.62C37.1795 12.9757 37.6654 13.344 38.0273 13.5266C38.3627 13.6958 38.8883 13.8996 39.1954 13.9796C39.5026 14.0596 40.0429 14.125 40.3964 14.125C40.7498 14.125 41.2902 14.0596 41.5974 13.9796C41.9044 13.8996 42.4301 13.6958 42.7654 13.5266C43.1274 13.344 43.6133 12.9757 43.9611 12.62C44.2874 12.2864 44.6728 11.7623 44.8308 11.4372C44.9869 11.1162 45.1732 10.6338 45.2447 10.3652C45.3163 10.0967 45.3755 9.54559 45.3761 9.14061C45.3768 8.73563 45.3099 8.14569 45.2276 7.82957C45.1452 7.51346 44.9584 7.03533 44.8125 6.76717C44.6666 6.49891 44.3494 6.05926 44.1076 5.79012C43.8659 5.52098 43.4076 5.13221 43.0892 4.92625C42.7708 4.72029 42.2278 4.46453 41.8825 4.35789C41.446 4.22313 40.9828 4.16483 40.3617 4.16658C39.6997 4.16844 39.3036 4.22528 38.8315 4.38631ZM42.7403 6.80076C42.5145 6.57498 42.0839 6.27772 41.7835 6.14012C41.4037 5.96629 41.0273 5.88035 40.5483 5.85809C40.121 5.83826 39.6871 5.88133 39.4064 5.97137C39.1573 6.05125 38.7423 6.26219 38.4843 6.44002C38.2262 6.61785 37.8693 6.97469 37.6913 7.23309C37.5132 7.49149 37.2963 7.94774 37.2093 8.24705C37.0975 8.63182 37.0685 8.97772 37.1104 9.42703C37.1458 9.80633 37.2707 10.2691 37.4201 10.5743C37.562 10.8643 37.9035 11.299 38.2087 11.5778C38.6122 11.9466 38.907 12.1191 39.3866 12.2673C39.7384 12.376 40.1928 12.4648 40.3964 12.4648C40.5999 12.4648 41.0543 12.376 41.4061 12.2673C41.8858 12.1191 42.1806 11.9466 42.5841 11.5778C42.9073 11.2824 43.2311 10.864 43.3947 10.5303C43.6276 10.0552 43.6672 9.85428 43.6677 9.14451C43.668 8.44998 43.626 8.2244 43.4095 7.76287C43.2673 7.45955 42.9661 7.02654 42.7403 6.80076Z" fill="white"/>
<path d="M39.0366 8.51844C38.811 8.70828 38.7361 8.85291 38.7361 9.09891C38.7361 9.30447 38.8239 9.52869 38.9717 9.70057C39.206 9.97293 39.2148 9.97459 40.3964 9.97459C41.5779 9.97459 41.5867 9.97293 41.821 9.70057C41.9576 9.54168 42.0567 9.30262 42.0567 9.13153C42.0567 8.93563 41.9608 8.74061 41.7712 8.55106C41.4902 8.2702 41.4685 8.26561 40.4114 8.26561C39.3981 8.26561 39.32 8.27996 39.0366 8.51844Z" fill="white"/>
<path fill-rule="evenodd" clip-rule="evenodd" d="M10.5335 37.3903C10.8339 37.5278 11.2645 37.8251 11.4903 38.0509C11.7161 38.2767 12.0173 38.7097 12.1595 39.013C12.376 39.4745 12.4181 39.7001 12.4177 40.3946C12.4172 41.1044 12.3776 41.3053 12.1447 41.7804C11.9811 42.1142 11.6574 42.5325 11.3341 42.8279C10.9306 43.1967 10.6358 43.3693 10.1561 43.5174C9.80436 43.6261 9.34993 43.715 9.14639 43.715C8.94286 43.715 8.48843 43.6261 8.13664 43.5174C7.65701 43.3693 7.36216 43.1967 6.95871 42.8279C6.65351 42.5491 6.31197 42.1145 6.17006 41.8244C6.02074 41.5193 5.89582 41.0565 5.86037 40.6772C5.81847 40.2278 5.84748 39.882 5.9593 39.4972C6.04632 39.1979 6.26324 38.7416 6.44128 38.4832C6.61932 38.2248 6.97619 37.868 7.23432 37.6902C7.49235 37.5123 7.90733 37.3014 8.15637 37.2215C8.43716 37.1315 8.87098 37.0884 9.29826 37.1082C9.77731 37.1305 10.1537 37.2164 10.5335 37.3903ZM7.4861 40.349C7.4861 40.103 7.561 39.9584 7.78661 39.7686C8.07003 39.5301 8.14806 39.5157 9.16143 39.5157C10.2186 39.5157 10.2402 39.5203 10.5212 39.8012C10.7108 39.9907 10.8067 40.1858 10.8067 40.3817C10.8067 40.5527 10.7077 40.7918 10.571 40.9507C10.3367 41.2231 10.3279 41.2247 9.14639 41.2247C7.96485 41.2247 7.95606 41.2231 7.72176 40.9507C7.57389 40.7788 7.4861 40.5546 7.4861 40.349Z" fill="white"/>
<path fill-rule="evenodd" clip-rule="evenodd" d="M7.58151 35.6364C7.23109 35.7559 6.71523 36.0007 6.43513 36.1804C6.15502 36.3602 5.71651 36.7365 5.46073 37.0169C5.20494 37.2973 4.8762 37.7467 4.73029 38.0157C4.58438 38.2849 4.39755 38.7636 4.31522 39.0797C4.23289 39.3958 4.16599 39.9858 4.16667 40.3907C4.16726 40.7957 4.22644 41.3468 4.29803 41.6153C4.36962 41.8839 4.55586 42.3663 4.71193 42.6873C4.86995 43.0124 5.25534 43.5365 5.58163 43.8701C5.92952 44.2258 6.4154 44.5942 6.77734 44.7768C7.11273 44.9459 7.63835 45.1497 7.94541 45.2297C8.25257 45.3097 8.79295 45.3751 9.14639 45.3751C9.49984 45.3751 10.0402 45.3097 10.3474 45.2297C10.6544 45.1497 11.1801 44.9459 11.5154 44.7768C11.8774 44.5942 12.3633 44.2258 12.7112 43.8701C13.0375 43.5365 13.4228 43.0124 13.5809 42.6873C13.7369 42.3663 13.9232 41.8839 13.9948 41.6153C14.0663 41.3468 14.1255 40.7957 14.1261 40.3907C14.1268 39.9858 14.0599 39.3958 13.9776 39.0797C13.8952 38.7636 13.7084 38.2855 13.5625 38.0173C13.4166 37.749 13.0994 37.3094 12.8577 37.0403C12.6159 36.7711 12.1576 36.3823 11.8392 36.1764C11.5208 35.9704 10.9778 35.7147 10.6326 35.608C10.196 35.4733 9.73277 35.415 9.11172 35.4167C8.44975 35.4186 8.05363 35.4754 7.58151 35.6364ZM11.4903 38.0509C11.2645 37.8251 10.8339 37.5278 10.5335 37.3903C10.1537 37.2164 9.77731 37.1305 9.29826 37.1082C8.87098 37.0884 8.43716 37.1315 8.15637 37.2215C7.90733 37.3014 7.49235 37.5123 7.23432 37.6902C6.97619 37.868 6.61932 38.2248 6.44128 38.4832C6.26324 38.7416 6.04632 39.1979 5.9593 39.4972C5.84748 39.882 5.81847 40.2278 5.86037 40.6772C5.89582 41.0565 6.02074 41.5193 6.17006 41.8244C6.31197 42.1145 6.65351 42.5491 6.95871 42.8279C7.36216 43.1967 7.65701 43.3693 8.13664 43.5174C8.48843 43.6261 8.94286 43.715 9.14639 43.715C9.34993 43.715 9.80436 43.6261 10.1561 43.5174C10.6358 43.3693 10.9306 43.1967 11.3341 42.8279C11.6574 42.5325 11.9811 42.1142 12.1447 41.7804C12.3776 41.3053 12.4172 41.1044 12.4177 40.3946C12.4181 39.7001 12.376 39.4745 12.1595 39.013C12.0173 38.7097 11.7161 38.2767 11.4903 38.0509Z" fill="white"/>
<path d="M7.78661 39.7686C7.561 39.9584 7.4861 40.103 7.4861 40.349C7.4861 40.5546 7.57389 40.7788 7.72176 40.9507C7.95606 41.2231 7.96485 41.2247 9.14639 41.2247C10.3279 41.2247 10.3367 41.2231 10.571 40.9507C10.7077 40.7918 10.8067 40.5527 10.8067 40.3817C10.8067 40.1858 10.7108 39.9907 10.5212 39.8012C10.2402 39.5203 10.2186 39.5157 9.16143 39.5157C8.14806 39.5157 8.07003 39.5301 7.78661 39.7686Z" fill="white"/>
<path fill-rule="evenodd" clip-rule="evenodd" d="M39.5542 20.1591C39.3125 20.2262 38.852 20.409 38.5309 20.5653C38.2069 20.7231 37.6806 21.1104 37.348 21.4355C36.9923 21.7834 36.624 22.2692 36.4413 22.6312C36.2722 22.9665 36.0683 23.4921 35.9883 23.7991C35.9084 24.1062 35.8429 24.6466 35.8429 25C35.8429 25.3534 35.9084 25.8937 35.9883 26.2009C36.0683 26.5079 36.271 27.0309 36.4387 27.3631C36.6064 27.6952 36.994 28.2174 37.3001 28.5234C37.6103 28.8336 38.135 29.2209 38.4856 29.3983C38.8317 29.5733 39.3344 29.7755 39.603 29.8474C39.8716 29.9193 40.4227 29.9787 40.8277 29.9793C41.2327 29.98 41.8227 29.9131 42.1389 29.8308C42.455 29.7484 42.9332 29.5616 43.2014 29.4157C43.4697 29.2698 43.9093 28.9526 44.1785 28.7109C44.4477 28.4692 44.8365 28.0109 45.0424 27.6926C45.2484 27.3742 45.5042 26.8312 45.6109 26.486C45.7419 26.0616 45.8047 25.5803 45.8047 25C45.8047 24.4197 45.7419 23.9384 45.6109 23.514C45.5042 23.1687 45.2484 22.6258 45.0424 22.3074C44.8365 21.9891 44.4477 21.5308 44.1785 21.2891C43.9093 21.0474 43.4697 20.7302 43.2014 20.5843C42.9332 20.4384 42.455 20.2516 42.1389 20.1692C41.8227 20.0869 41.2108 20.0234 40.7789 20.0282C40.347 20.0331 39.7959 20.0919 39.5542 20.1591ZM43.1678 22.6562C42.942 22.4305 42.5131 22.134 42.2148 21.9974C41.8581 21.8341 41.4518 21.7375 41.0283 21.7151C40.6741 21.6965 40.1844 21.7378 39.94 21.8068C39.6956 21.876 39.3349 22.0318 39.1385 22.1532C38.9421 22.2746 38.5821 22.5955 38.3386 22.8663C38.0241 23.2162 37.8391 23.5427 37.6995 23.9943C37.5916 24.3439 37.5032 24.7965 37.5032 25C37.5032 25.2035 37.5921 25.6579 37.7008 26.0097C37.849 26.4893 38.0215 26.7841 38.3903 27.1875C38.6857 27.5107 39.1041 27.8345 39.438 27.998C39.9131 28.231 40.114 28.2705 40.8238 28.271C41.5184 28.2714 41.744 28.2293 42.2056 28.0129C42.5089 27.8707 42.942 27.5695 43.1678 27.3438C43.3936 27.118 43.6948 26.685 43.837 26.3816C44.0531 25.9206 44.0956 25.6938 44.0956 25C44.0956 24.3062 44.0531 24.0794 43.837 23.6184C43.6948 23.315 43.3936 22.882 43.1678 22.6562Z" fill="#0069B7"/>
<path d="M39.6867 24.2137C39.5716 24.2625 39.4068 24.4032 39.3205 24.5265C39.2341 24.6497 39.1635 24.8701 39.1635 25.0163C39.1635 25.1625 39.2696 25.4054 39.3992 25.5561C39.6332 25.828 39.6438 25.8301 40.8075 25.8301C41.9141 25.8301 41.9942 25.8168 42.2321 25.5934C42.4138 25.4227 42.4841 25.257 42.4841 25C42.4841 24.7431 42.4137 24.5772 42.2323 24.4066C42.0022 24.1903 41.8909 24.168 40.9383 24.1475C40.365 24.1351 39.8019 24.1649 39.6867 24.2137Z" fill="#0069B7"/>
<path fill-rule="evenodd" clip-rule="evenodd" d="M42.2148 21.9974C42.5131 22.134 42.942 22.4305 43.1678 22.6562C43.3936 22.882 43.6948 23.315 43.837 23.6184C44.0531 24.0794 44.0956 24.3062 44.0956 25C44.0956 25.6938 44.0531 25.9206 43.837 26.3816C43.6948 26.685 43.3936 27.118 43.1678 27.3438C42.942 27.5695 42.5089 27.8707 42.2056 28.0129C41.744 28.2293 41.5184 28.2714 40.8238 28.271C40.114 28.2705 39.9131 28.231 39.438 27.998C39.1041 27.8345 38.6857 27.5107 38.3903 27.1875C38.0215 26.7841 37.849 26.4893 37.7008 26.0097C37.5921 25.6579 37.5032 25.2035 37.5032 25C37.5032 24.7965 37.5916 24.3439 37.6995 23.9943C37.8391 23.5427 38.0241 23.2162 38.3386 22.8663C38.5821 22.5955 38.9421 22.2746 39.1385 22.1532C39.3349 22.0318 39.6956 21.876 39.94 21.8068C40.1844 21.7378 40.6741 21.6965 41.0283 21.7151C41.4518 21.7375 41.8581 21.8341 42.2148 21.9974ZM39.3205 24.5265C39.4068 24.4032 39.5716 24.2625 39.6867 24.2137C39.8019 24.1649 40.365 24.1351 40.9383 24.1475C41.8909 24.168 42.0022 24.1903 42.2323 24.4066C42.4137 24.5772 42.4841 24.7431 42.4841 25C42.4841 25.257 42.4138 25.4227 42.2321 25.5934C41.9942 25.8168 41.9141 25.8301 40.8075 25.8301C39.6438 25.8301 39.6332 25.828 39.3992 25.5561C39.2696 25.4054 39.1635 25.1625 39.1635 25.0163C39.1635 24.8701 39.2341 24.6497 39.3205 24.5265Z" fill="#0069B7"/>
<path fill-rule="evenodd" clip-rule="evenodd" d="M1.38879 0.251758C1.11094 0.390234 0.765886 0.642871 0.622026 0.813281C0.478166 0.983594 0.280298 1.29883 0.18234 1.51367C0.0116221 1.88809 0.00419958 2.86045 0.00214862 25.0053L0 48.1061L0.251779 48.6113C0.390268 48.8892 0.642926 49.2342 0.813351 49.378C0.983678 49.5219 1.29894 49.7197 1.5138 49.8177C1.88825 49.9884 2.86069 49.9958 25.0074 49.9978L48.1103 50L48.6155 49.7482C48.8934 49.6098 49.2384 49.3571 49.3823 49.1867C49.5261 49.0164 49.724 48.7012 49.822 48.4863C49.9927 48.1118 50 47.1423 50 25C50 2.85772 49.9927 1.88818 49.822 1.51367C49.724 1.29883 49.5261 0.983594 49.3823 0.813281C49.2384 0.642871 48.8934 0.390234 48.6155 0.251758L48.1103 0H1.89401L1.38879 0.251758ZM16.603 16.6016H1.6603L1.66176 9.49707C1.66284 3.99463 1.69077 2.33799 1.7857 2.15039C1.85319 2.01719 2.01736 1.85303 2.15058 1.78555C2.33819 1.69062 3.99497 1.6627 9.49789 1.66162L16.603 1.66016V16.6016ZM31.6433 16.6992H18.361V1.66016H31.6433V16.6992ZM48.2952 2.15381L48.3477 16.6016H33.4013V1.65645L47.8503 1.70898L48.2952 2.15381ZM16.7007 31.6406H1.6603V18.3594H16.7007V31.6406ZM31.6433 31.6406H18.361V18.3594H31.6433V31.6406ZM48.344 31.6406H33.3036V18.3594H48.344V31.6406ZM31.6433 48.3398H18.361V33.3008H31.6433V48.3398ZM16.603 48.3436L2.15399 48.291L1.70913 47.8462L1.65659 33.3984H16.603V48.3436ZM48.2952 47.8462L47.8503 48.291L33.4013 48.3436V33.3984H48.3477L48.2952 47.8462Z" fill="#0086FF"/>
<path d="M8.10617 24.1858C8.02559 24.2176 7.86073 24.3336 7.73992 24.4436C7.58864 24.5812 7.52018 24.7546 7.52018 25C7.52018 25.257 7.5905 25.4227 7.77225 25.5934C8.01006 25.8168 8.09025 25.8301 9.19679 25.8301C10.3605 25.8301 10.3711 25.828 10.6051 25.5561C10.7366 25.4032 10.8408 25.1574 10.8408 25C10.8408 24.8428 10.7366 24.5967 10.6053 24.4439C10.3767 24.178 10.3386 24.1693 9.31125 24.149C8.72897 24.1375 8.18674 24.1541 8.10617 24.1858Z" fill="#0069B7"/>
<path fill-rule="evenodd" clip-rule="evenodd" d="M10.6002 22.0189C10.9005 22.1659 11.3309 22.5027 11.614 22.8125C11.9828 23.2159 12.1553 23.5107 12.3035 23.9903C12.4122 24.3421 12.5011 24.7965 12.5011 25C12.5011 25.2035 12.4122 25.6579 12.3035 26.0097C12.1553 26.4893 11.9828 26.7841 11.614 27.1875C11.3186 27.5107 10.9002 27.8345 10.5663 27.998C10.0912 28.231 9.8903 28.2705 9.18048 28.271C8.48589 28.2714 8.26028 28.2293 7.79872 28.0129C7.49537 27.8707 7.06233 27.5695 6.83652 27.3438C6.61072 27.118 6.31509 26.6911 6.17963 26.3952C6.0386 26.0872 5.91252 25.598 5.88459 25.2507C5.85236 24.8487 5.88918 24.4609 5.99378 24.1013C6.0806 23.8026 6.29732 23.347 6.47536 23.0886C6.6534 22.8302 7.01027 22.4733 7.2684 22.2955C7.52643 22.1177 7.9414 21.9065 8.19045 21.8264C8.48979 21.7301 8.8867 21.6947 9.36086 21.7222C9.87321 21.7519 10.2276 21.8367 10.6002 22.0189ZM7.73992 24.4436C7.86073 24.3336 8.02559 24.2176 8.10617 24.1858C8.18674 24.1541 8.72897 24.1375 9.31125 24.149C10.3386 24.1693 10.3767 24.178 10.6053 24.4439C10.7366 24.5967 10.8408 24.8428 10.8408 25C10.8408 25.1574 10.7366 25.4032 10.6051 25.5561C10.3711 25.828 10.3605 25.8301 9.19679 25.8301C8.09025 25.8301 8.01006 25.8168 7.77225 25.5934C7.5905 25.4227 7.52018 25.257 7.52018 25C7.52018 24.7546 7.58864 24.5812 7.73992 24.4436Z" fill="#0069B7"/>
<path fill-rule="evenodd" clip-rule="evenodd" d="M7.75438 20.204C7.42661 20.2978 6.94601 20.4991 6.68622 20.6514C6.42653 20.8035 6.01731 21.1082 5.77686 21.3283C5.53632 21.5484 5.17037 21.9891 4.96351 22.3074C4.75666 22.6258 4.50009 23.1687 4.39344 23.514C4.26238 23.9384 4.19958 24.4197 4.19958 25C4.19958 25.5803 4.26238 26.0616 4.39344 26.486C4.50009 26.8312 4.75666 27.3742 4.96351 27.6926C5.17037 28.0109 5.53632 28.4516 5.77686 28.6717C6.01731 28.8918 6.42565 29.1959 6.68417 29.3475C6.94278 29.499 7.44449 29.7034 7.79911 29.8018C8.16379 29.9028 8.76276 29.98 9.17833 29.9793C9.58237 29.9787 10.1489 29.9153 10.4373 29.8386C10.7256 29.7618 11.208 29.5756 11.5091 29.4247C11.8102 29.2738 12.3263 28.8867 12.656 28.5645C13.0123 28.2162 13.3802 27.7311 13.563 27.3688C13.7321 27.0335 13.936 26.5079 14.016 26.2009C14.0959 25.8937 14.1614 25.3534 14.1614 25C14.1614 24.6466 14.0959 24.1062 14.016 23.7991C13.936 23.4921 13.7321 22.9665 13.563 22.6312C13.3802 22.2688 13.0123 21.7838 12.656 21.4355C12.3263 21.1133 11.8102 20.7262 11.5091 20.5753C11.208 20.4244 10.7256 20.2382 10.4373 20.1614C10.1489 20.0847 9.56137 20.0244 9.13164 20.0276C8.6986 20.0309 8.08468 20.1095 7.75438 20.204ZM11.614 22.8125C11.3309 22.5027 10.9005 22.1659 10.6002 22.0189C10.2276 21.8367 9.87321 21.7519 9.36086 21.7222C8.8867 21.6947 8.48979 21.7301 8.19045 21.8264C7.9414 21.9065 7.52643 22.1177 7.2684 22.2955C7.01027 22.4733 6.6534 22.8302 6.47536 23.0886C6.29732 23.347 6.0806 23.8026 5.99378 24.1013C5.88918 24.4609 5.85236 24.8487 5.88459 25.2507C5.91252 25.598 6.0386 26.0872 6.17963 26.3952C6.31509 26.6911 6.61072 27.118 6.83652 27.3438C7.06233 27.5695 7.49537 27.8707 7.79872 28.0129C8.26028 28.2293 8.48589 28.2714 9.18048 28.271C9.8903 28.2705 10.0912 28.231 10.5663 27.998C10.9002 27.8345 11.3186 27.5107 11.614 27.1875C11.9828 26.7841 12.1553 26.4893 12.3035 26.0097C12.4122 25.6579 12.5011 25.2035 12.5011 25C12.5011 24.7965 12.4122 24.3421 12.3035 23.9903C12.1553 23.5107 11.9828 23.2159 11.614 22.8125Z" fill="#0069B7"/>
</svg>
