<svg width="50" height="50" viewBox="0 0 50 50" fill="none" xmlns="http://www.w3.org/2000/svg">
<path d="M46.1932 3.66144C46.3755 3.77556 46.6019 4.02379 46.7091 4.22718C46.8146 4.42723 46.9049 4.75246 46.9105 4.95298C46.9162 5.15281 46.8719 5.44069 46.8121 5.59272C46.7523 5.74474 46.5698 6.00463 46.4065 6.17022C46.2433 6.33589 46.1109 6.51368 46.1123 6.56535C46.1138 6.61703 46.2499 6.78368 46.4147 6.93575C46.5797 7.08773 46.7764 7.33426 46.852 7.48352C46.9276 7.63279 46.9941 7.91853 46.9997 8.11837C47.0053 8.31829 46.9341 8.65144 46.8416 8.85875C46.7441 9.07698 46.5407 9.32957 46.3583 9.45868C46.1851 9.58124 45.88 9.70722 45.6804 9.73864C45.4808 9.76999 45.2734 9.83263 45.2196 9.87773C45.1528 9.9339 45.142 10.1397 45.1854 10.5288C45.2376 10.9963 45.2203 11.1585 45.0881 11.4387C44.9996 11.6261 44.8585 11.8438 44.7745 11.9222C44.6906 12.0008 44.5023 12.1303 44.3561 12.2102C44.2098 12.2901 43.8891 12.361 43.6434 12.3678C43.3458 12.3761 43.1029 12.3263 42.9159 12.2187C42.7614 12.1299 42.5582 12.0594 42.4642 12.0621C42.3511 12.0653 42.2573 12.1613 42.1866 12.346C42.1279 12.4995 41.9972 12.7373 41.896 12.8745C41.7949 13.0117 41.5595 13.1991 41.3729 13.291C41.1861 13.3828 40.9006 13.4597 40.7383 13.4618C40.5759 13.4639 40.3184 13.4241 40.1661 13.3733C40.0137 13.3225 39.7667 13.1712 39.6172 13.037C39.4678 12.9029 39.2893 12.6677 39.2205 12.5144C39.1518 12.3611 39.0351 12.2143 38.9613 12.1882C38.8875 12.1621 38.6617 12.2275 38.4596 12.3336C38.2329 12.4526 37.93 12.5311 37.6687 12.5385C37.4358 12.5452 37.1374 12.4983 37.0056 12.4344C36.8738 12.3705 36.6444 12.1866 36.4959 12.0258C36.3474 11.8649 36.1771 11.5848 36.1175 11.4034C36.0566 11.2181 36.0306 10.9374 36.058 10.7625C36.1008 10.491 36.1307 10.4581 36.2937 10.5037C36.3964 10.5324 36.6816 10.6245 36.9276 10.7082C37.2586 10.821 37.376 10.9039 37.3795 11.0269C37.3821 11.1184 37.4483 11.2159 37.5266 11.2436C37.6066 11.2719 37.8016 11.2122 37.9705 11.1079C38.1362 11.0054 38.4052 10.8925 38.5682 10.8569C38.7312 10.8213 39.0241 10.8305 39.219 10.8775C39.4139 10.9244 39.7042 11.0719 39.864 11.2052C40.0238 11.3387 40.2065 11.5706 40.2701 11.7208C40.3336 11.8711 40.4416 12.0376 40.51 12.0907C40.5784 12.144 40.6869 12.1655 40.751 12.1386C40.8151 12.1118 40.9648 11.8971 41.0836 11.6616C41.2318 11.3681 41.4173 11.1595 41.6732 10.9986C41.9436 10.8285 42.1638 10.7605 42.472 10.752C42.7656 10.7439 43.0114 10.8006 43.2657 10.9355C43.5427 11.0823 43.6677 11.108 43.7695 11.0392C43.8769 10.9666 43.9019 10.7979 43.89 10.2256C43.8763 9.56479 43.8948 9.47586 44.109 9.17574C44.2378 8.99534 44.4972 8.77198 44.6856 8.6793C44.874 8.58663 45.1438 8.50666 45.2852 8.50161C45.4265 8.49656 45.5865 8.44529 45.6405 8.3877C45.6946 8.33011 45.7374 8.2336 45.7358 8.17335C45.7341 8.11302 45.6107 7.96172 45.4615 7.83723C45.3124 7.71265 45.1163 7.45999 45.0258 7.27574C44.9352 7.09148 44.856 6.79056 44.8499 6.60696C44.8437 6.42336 44.9131 6.10623 45.0042 5.90227C45.0954 5.69823 45.2519 5.46201 45.352 5.3772C45.4522 5.29239 45.5612 5.17532 45.5943 5.11696C45.6274 5.05861 45.6114 4.93482 45.5586 4.84198C45.4903 4.7218 45.3773 4.67552 45.1671 4.68151C45.0046 4.68614 44.7215 4.61813 44.538 4.53037C44.3545 4.44261 44.0938 4.23323 43.9588 4.06511C43.7357 3.78714 43.7109 3.69358 43.6877 3.03761C43.6673 2.46555 43.6329 2.29855 43.5217 2.23225C43.4169 2.16976 43.3 2.19764 43.0608 2.34204C42.8846 2.44846 42.5856 2.56501 42.3964 2.60107C42.126 2.65251 41.9511 2.62336 41.5797 2.46487C41.1806 2.29451 41.0637 2.19059 40.8283 1.79722C40.6132 1.43775 40.5041 1.33259 40.3507 1.33696C40.1977 1.34133 40.1176 1.42734 40.0025 1.71062C39.9203 1.91305 39.7346 2.18484 39.5899 2.31465C39.4452 2.44447 39.1719 2.5974 38.9826 2.65452C38.7934 2.71163 38.5016 2.73685 38.3342 2.71054C38.1669 2.68423 37.905 2.5903 37.7525 2.50183C37.5834 2.40372 37.4093 2.36402 37.3067 2.39998C37.2141 2.43251 37.1397 2.50886 37.1415 2.56962C37.1432 2.63131 37.0057 2.70724 36.8299 2.74164C36.6568 2.77553 36.3541 2.80829 36.1571 2.81442C35.841 2.82428 35.7984 2.80316 35.7953 2.63459C35.7933 2.5295 35.8577 2.28886 35.9383 2.09973C36.0189 1.9106 36.1911 1.65015 36.3209 1.52101C36.4508 1.39179 36.6626 1.24248 36.7917 1.18912C36.9208 1.13576 37.1937 1.0873 37.3981 1.08147C37.6064 1.07553 37.9358 1.1463 38.1475 1.24252C38.3552 1.33689 38.5843 1.38938 38.6565 1.35904C38.7287 1.32878 38.8367 1.17615 38.8964 1.01989C38.9562 0.863618 39.137 0.612436 39.298 0.461689C39.4591 0.311024 39.7285 0.13757 39.8966 0.0763857C40.0756 0.0111556 40.3547 -0.0164233 40.5699 0.00988078C40.7722 0.0345161 41.0893 0.158889 41.2748 0.286167C41.4692 0.419646 41.6942 0.681335 41.8058 0.90388C41.9296 1.15062 42.0538 1.28839 42.1499 1.28565C42.2326 1.2833 42.4468 1.20075 42.6261 1.10222C42.8188 0.996349 43.1185 0.918335 43.359 0.911473C43.5921 0.904826 43.9017 0.964704 44.0834 1.05166C44.2578 1.1351 44.4644 1.27256 44.5424 1.35704C44.6205 1.44152 44.7543 1.64042 44.8399 1.79908C44.9615 2.02431 44.9887 2.21284 44.964 2.66007C44.9425 3.05185 44.9649 3.25681 45.0348 3.30917C45.091 3.35113 45.3015 3.40186 45.5026 3.42177C45.7037 3.44177 46.0145 3.54959 46.1932 3.66144Z" fill="white"/>
<path fill-rule="evenodd" clip-rule="evenodd" d="M27.9623 5.11439C28.1685 5.00972 28.5643 4.86813 28.842 4.79976C29.2485 4.6997 30.2838 4.67862 34.1489 4.69138L38.9509 4.70723L39.3017 4.95199C39.4946 5.08659 39.7473 5.36553 39.8633 5.57185C40.0151 5.84185 40.0742 6.08342 40.0742 6.434C40.0742 6.78458 40.0151 7.02615 39.8633 7.29615C39.7473 7.50247 39.5054 7.77389 39.3257 7.89919C39.1131 8.04751 38.8037 8.15351 38.4396 8.20284C38.1319 8.24454 37.258 8.32734 36.4976 8.38685C35.2583 8.4839 35.0928 8.48036 34.8989 8.3524C34.7798 8.27394 34.6562 8.12615 34.624 8.02387C34.5917 7.92168 34.5893 7.74183 34.6187 7.62415C34.648 7.50655 34.7619 7.35105 34.8717 7.27861C35.0059 7.19006 35.6047 7.10177 36.6957 7.00968C37.589 6.93423 38.409 6.83452 38.5179 6.78803C38.6602 6.7272 38.7158 6.62917 38.7158 6.43905C38.7158 6.2646 38.6555 6.14204 38.5387 6.07917C38.4169 6.01355 36.9411 5.99186 33.8103 6.00966C29.4315 6.03454 29.2421 6.04251 28.8137 6.21997C28.5688 6.32136 26.9358 7.26994 25.185 8.32787L22.0015 10.2514V10.9148C22.0015 11.501 22.0266 11.6033 22.2175 11.7954C22.4288 12.0082 22.4635 12.0128 23.8449 12.0128H25.2564V11.6329C25.2564 11.424 25.3156 11.0243 25.3879 10.7447C25.4603 10.4651 25.6025 10.0726 25.7038 9.87258C25.8052 9.67245 26.0731 9.32258 26.2992 9.09509C26.5252 8.86751 26.9274 8.57467 27.1929 8.44423C27.4584 8.31379 27.9112 8.15962 28.199 8.10171C28.6046 8.02006 28.9369 8.02042 29.6752 8.10304C30.1992 8.16166 30.9336 8.30724 31.3071 8.42652C31.6805 8.54571 32.242 8.79375 32.5548 8.97758C32.8676 9.16151 33.3671 9.55494 33.6646 9.85186C33.9622 10.1488 34.3461 10.6469 34.5176 10.9588C34.6891 11.2706 34.9137 11.8036 35.0165 12.1433C35.1405 12.553 35.2309 13.1944 35.2849 14.0479C35.3435 14.9743 35.4299 15.5559 35.5935 16.1241C35.7185 16.5583 35.9586 17.19 36.1271 17.5279C36.2956 17.8659 36.561 18.3215 36.7169 18.5404C36.8728 18.7593 37.0694 19.0438 37.1539 19.1726C37.2383 19.3015 37.3076 19.4744 37.3078 19.5569C37.3081 19.6395 37.2182 19.8124 37.1082 19.9412L36.9081 20.1753L34.2605 20.1542L33.9721 21.0811C33.8136 21.5908 33.6081 22.0769 33.5156 22.1612C33.4231 22.2455 33.233 22.3144 33.0931 22.3144C32.9252 22.3144 32.6345 22.1617 32.2365 21.8643C31.9053 21.6168 31.3144 21.0821 30.9236 20.6763C30.5327 20.2703 30.0473 19.6907 29.8449 19.3881C29.6424 19.0855 29.3389 18.5675 29.1704 18.2369C29.0019 17.9063 28.8639 17.5093 28.8636 17.3546C28.8632 17.1557 28.9312 17.0193 29.095 16.8897C29.2224 16.7887 29.4032 16.7061 29.4966 16.7061C29.5901 16.7061 29.7434 16.7475 29.8374 16.7982C29.9314 16.8488 30.164 17.2019 30.3542 17.5828C30.5444 17.9635 30.9418 18.5981 31.2373 18.9928C31.5328 19.3875 31.9791 19.8906 32.2292 20.1108C32.4792 20.331 32.7111 20.4819 32.7446 20.4461C32.778 20.4103 32.8881 20.0984 32.9891 19.7532C33.0901 19.4078 33.2549 19.0505 33.3552 18.9591C33.5121 18.8161 33.6588 18.7964 34.4056 18.8174L35.2736 18.8418L35.0175 18.3657C34.8767 18.104 34.6597 17.6178 34.5355 17.2854C34.4112 16.9531 34.2511 16.4377 34.1799 16.1402C34.1086 15.8426 34.0119 15.0508 33.9649 14.3805C33.9179 13.7102 33.8335 12.973 33.7773 12.7423C33.7211 12.5115 33.5612 12.0924 33.4219 11.8109C33.2825 11.5295 33.025 11.1393 32.8497 10.9439C32.6743 10.7485 32.4136 10.5046 32.2703 10.4019C32.0103 10.2155 32.0099 10.2155 32.0672 10.397C32.0987 10.4971 32.1605 10.8015 32.2045 11.0736C32.2544 11.3821 32.2519 11.7721 32.1978 12.1099C32.1502 12.4077 31.9973 12.8763 31.8581 13.1511C31.7188 13.4261 31.4136 13.8377 31.1798 14.0659C30.9459 14.2941 30.5566 14.5795 30.3147 14.7002C30.0727 14.8208 29.6299 14.9675 29.3305 15.0262C28.9255 15.1057 28.6553 15.1084 28.2748 15.0371C27.9937 14.9843 27.6817 14.9171 27.5817 14.8877C27.433 14.844 27.3703 14.9003 27.2376 15.1965C27.1484 15.3958 26.9067 15.7152 26.7007 15.9064C26.4255 16.1617 26.1549 16.3042 25.6813 16.4434C25.3266 16.5478 24.9375 16.6627 24.8165 16.699L24.5966 16.7651L24.5496 21.1957L25.139 21.5793C25.4631 21.7903 25.9609 22.1971 26.2451 22.4832C26.5294 22.7694 26.9444 23.2875 27.1675 23.6346C27.3906 23.9817 27.699 24.5882 27.8526 24.9824C28.1158 25.6571 28.6218 26.3243 36.5211 36.4114C41.1352 42.3033 44.9812 47.2618 45.0679 47.4304C45.1594 47.6083 45.2256 47.9275 45.2256 48.1913C45.2256 48.4961 45.1582 48.7741 45.0209 49.036C44.9084 49.2506 44.6524 49.5424 44.4521 49.6844C44.1918 49.869 43.9524 49.9538 43.6111 49.9823C43.3487 50.0042 42.9811 49.9732 42.7943 49.9134C42.5176 49.8248 40.6938 48.0353 32.9697 40.2732C27.753 35.0309 21.9268 28.9944 21.8576 28.8629L21.8635 28.8573C21.8552 28.8524 21.8529 28.8539 21.8576 28.8629C21.4709 29.2268 20.8286 29.7939 19.7619 30.7334C18.2882 32.0314 17.0587 33.132 17.0297 33.1792C17.0008 33.2265 17.8566 35.6262 18.9317 38.512C20.834 43.618 20.8865 43.7767 20.8892 44.423C20.8916 44.9732 20.8055 45.3891 20.3872 46.8475C20.1094 47.8156 19.8087 48.7521 19.7189 48.9285C19.629 49.1048 19.4625 49.3364 19.3489 49.4429C19.2354 49.5494 18.9643 49.7179 18.7466 49.8173C18.4359 49.9591 18.1654 49.9984 17.4891 49.9999C16.6901 50.0017 16.6116 49.986 16.4114 49.7844C16.2804 49.6526 16.1976 49.4698 16.2009 49.3195C16.204 49.1834 16.3554 48.1954 16.5375 47.1239L16.8686 45.1757L14.0729 39.5389C11.7837 34.9231 11.2593 33.7986 11.1784 33.3308C11.1073 32.9198 11.1058 32.6134 11.1731 32.2378C11.2246 31.9507 11.3958 31.4667 11.5538 31.1623C11.7738 30.7382 12.6684 29.7091 15.3818 26.7587C17.9054 24.0145 18.922 22.8507 18.9206 22.7074C18.9196 22.5968 18.7693 21.5016 18.5867 20.2736C18.4041 19.0456 18.2367 18.0231 18.2147 18.0013C18.1928 17.9795 16.5992 17.8384 14.6733 17.688C12.0512 17.483 11.1013 17.3783 10.8906 17.2711C10.736 17.1925 10.5165 17.0431 10.4029 16.9392C10.2894 16.8354 10.1211 16.6025 10.029 16.4218C9.93193 16.2312 9.86164 15.9118 9.86164 15.6609C9.86164 15.3791 9.93298 15.0926 10.0663 14.8383C10.1789 14.6236 10.4395 14.3285 10.6455 14.1823L11.0201 13.9167L17.603 13.8644V13.3531C17.603 13.072 17.6659 12.6255 17.7427 12.361C17.8196 12.0964 18.0005 11.6928 18.1448 11.464C18.2891 11.2352 18.5561 10.9126 18.7381 10.7471C18.92 10.5816 20.9856 9.28938 23.3283 7.87537C25.6709 6.46145 27.7562 5.21897 27.9623 5.11439ZM29.7156 9.6605C30.0098 9.79838 30.2664 10.0054 30.4369 10.2422C30.5824 10.4445 30.7476 10.7505 30.8039 10.9223C30.8602 11.0941 30.8896 11.4663 30.8692 11.7497C30.8426 12.1209 30.7594 12.3834 30.5711 12.6899C30.4136 12.9464 30.1437 13.2185 29.8906 13.3761C29.6044 13.5542 29.3181 13.6499 28.9897 13.6773C28.725 13.6994 28.3325 13.6679 28.1176 13.6074C27.9027 13.5468 27.5704 13.3624 27.3791 13.1976C27.1878 13.0328 26.9486 12.726 26.8476 12.516C26.7217 12.2542 26.6639 11.9607 26.6639 11.5835C26.6639 11.2807 26.7184 10.9019 26.7849 10.7416C26.8514 10.5814 27.0304 10.3075 27.1826 10.1329C27.3348 9.95848 27.6267 9.73223 27.8314 9.6303C28.085 9.50394 28.3714 9.44514 28.7312 9.44576C29.1035 9.44629 29.3936 9.50961 29.7156 9.6605ZM25.8556 13.7271C25.9692 13.8413 26.0623 14.046 26.0663 14.1903C26.0704 14.3325 26.0453 14.5388 26.0106 14.6487C25.976 14.7586 25.8401 14.9045 25.7085 14.9729C25.577 15.0414 24.2234 15.4394 22.7007 15.8575C20.2099 16.5413 19.8549 16.6175 19.1633 16.6175C18.7405 16.6175 16.8606 16.4974 14.9858 16.3505C13.111 16.2036 11.5079 16.0614 11.4233 16.0346C11.3387 16.0079 11.2437 15.8822 11.2122 15.7555C11.1682 15.5793 11.2015 15.4868 11.3536 15.3628C11.5402 15.2107 11.8124 15.2007 15.7445 15.2007H19.9365L22.5305 14.3188C24.3448 13.7019 25.2038 13.4497 25.3883 13.4797C25.5335 13.5032 25.7437 13.6145 25.8556 13.7271Z" fill="white"/>
<path d="M3.18098 17.5566C3.28243 17.7629 3.50178 18.0175 3.68081 18.1368C3.85631 18.2537 4.16395 18.3703 4.36432 18.396C4.56478 18.4217 4.77384 18.4784 4.82882 18.5219C4.89722 18.5763 4.91383 18.7818 4.88128 19.1728C4.84409 19.6191 4.86593 19.8084 4.98113 20.037C5.06225 20.198 5.19044 20.4006 5.26608 20.4873C5.34165 20.574 5.54429 20.7173 5.71633 20.8056C5.89554 20.8978 6.20326 20.9664 6.43644 20.9664C6.67713 20.9664 6.97887 20.897 7.17443 20.7966C7.35642 20.7033 7.5729 20.6269 7.65563 20.6269C7.75177 20.6269 7.87203 20.7681 7.98883 21.0183C8.09416 21.2439 8.31173 21.5119 8.50224 21.6509C8.68406 21.7834 8.9976 21.9168 9.19907 21.9472C9.41345 21.9796 9.69326 21.96 9.87398 21.8999C10.0437 21.8435 10.3179 21.6778 10.4832 21.5318C10.6484 21.3857 10.8361 21.1398 10.9003 20.9853C10.9644 20.8308 11.0766 20.6813 11.1497 20.6531C11.2227 20.6248 11.4502 20.6838 11.6552 20.7841C11.8641 20.8863 12.1914 20.9664 12.3998 20.9664C12.6042 20.9664 12.8784 20.9258 13.0089 20.8761C13.1395 20.8264 13.3555 20.6832 13.4889 20.5578C13.6223 20.4324 13.8017 20.1769 13.8876 19.9902C13.9735 19.8034 14.0446 19.5647 14.0456 19.4596C14.0472 19.291 14.0053 19.2687 13.6891 19.2696C13.4919 19.2701 13.1884 19.2942 13.0144 19.3231C12.8377 19.3525 12.6982 19.4245 12.6982 19.4862C12.6982 19.547 12.6217 19.6212 12.5282 19.6511C12.4247 19.6841 12.2517 19.6394 12.0855 19.5365C11.9355 19.4438 11.6764 19.3424 11.5099 19.3113C11.3433 19.2803 11.0509 19.2971 10.8602 19.3488C10.6693 19.4005 10.3919 19.5456 10.2435 19.6713C10.0953 19.7969 9.90198 20.0633 9.81411 20.2633C9.69107 20.5432 9.60859 20.6269 9.45553 20.6269C9.30213 20.6269 9.19595 20.5186 8.99111 20.1532C8.76687 19.7533 8.65294 19.646 8.25877 19.4644C7.89201 19.2954 7.71795 19.2612 7.44623 19.305C7.25606 19.3356 6.9539 19.4436 6.77478 19.5449C6.53165 19.6825 6.41401 19.707 6.31104 19.6415C6.20166 19.5721 6.17198 19.4042 6.16776 18.8318C6.16295 18.1754 6.14086 18.0812 5.92564 17.797C5.79544 17.6251 5.54075 17.4083 5.35978 17.3154C5.1788 17.2224 4.89772 17.1464 4.73513 17.1464C4.52489 17.1464 4.41324 17.0969 4.34838 16.9748C4.29821 16.8805 4.28564 16.7563 4.32039 16.6989C4.35513 16.6415 4.46738 16.5276 4.56992 16.4457C4.67239 16.3638 4.83548 16.1321 4.9323 15.9307C5.02911 15.7295 5.10746 15.4144 5.10644 15.2307C5.10543 15.047 5.03476 14.744 4.94942 14.5572C4.86407 14.3704 4.67517 14.1123 4.52961 13.9835C4.38406 13.8548 4.26498 13.7001 4.26498 13.6397C4.26498 13.5794 4.31052 13.4842 4.36618 13.4282C4.42184 13.3721 4.58316 13.3254 4.72459 13.3244C4.8661 13.3234 5.13798 13.2512 5.32891 13.1639C5.51984 13.0766 5.78548 12.8608 5.91924 12.6841C6.14187 12.3902 6.16287 12.3018 6.16776 11.6409C6.17198 11.0685 6.20166 10.9006 6.31104 10.8311C6.41477 10.7652 6.53899 10.7944 6.81172 10.9491C7.0621 11.0911 7.30624 11.1549 7.59997 11.1551C7.90829 11.1554 8.13033 11.0938 8.40543 10.9315C8.66567 10.7779 8.85702 10.5747 9.01337 10.2855C9.13878 10.0534 9.29445 9.84316 9.3593 9.81812C9.42415 9.79308 9.53193 9.81769 9.59881 9.87287C9.66577 9.92797 9.76899 10.0975 9.82827 10.2494C9.88756 10.4014 10.0636 10.6385 10.2197 10.7764C10.3757 10.9143 10.6616 11.07 10.8552 11.1225C11.0487 11.1749 11.3412 11.1925 11.5051 11.1616C11.6691 11.1306 11.9411 11.0254 12.1097 10.9277C12.2815 10.8282 12.4781 10.7742 12.5572 10.8047C12.6347 10.8346 12.6982 10.934 12.6982 11.0255C12.6982 11.1486 12.8132 11.2348 13.1409 11.3569C13.3845 11.4477 13.667 11.5478 13.7688 11.5795C13.9304 11.6297 13.9613 11.5977 14.0116 11.3275C14.044 11.1534 14.0259 10.8721 13.9702 10.6851C13.9158 10.5021 13.7534 10.2173 13.6095 10.0522C13.4656 9.88722 13.2414 9.69689 13.1115 9.62924C12.9815 9.56158 12.6846 9.50623 12.4516 9.50623C12.1902 9.50623 11.8852 9.5761 11.6552 9.68858C11.4502 9.78883 11.2227 9.84783 11.1497 9.81956C11.0766 9.79138 10.9641 9.64129 10.8997 9.48611C10.8353 9.33093 10.6635 9.09069 10.5179 8.95241C10.3722 8.81403 10.1296 8.65571 9.97872 8.60062C9.82785 8.54553 9.57157 8.49841 9.40923 8.49586C9.24689 8.49332 8.95932 8.56208 8.77008 8.6485C8.58092 8.735 8.34032 8.91565 8.23541 9.04986C8.13042 9.18415 7.99304 9.41811 7.93005 9.5699C7.85423 9.7525 7.75776 9.84579 7.64458 9.84579C7.55055 9.84579 7.34942 9.76956 7.19754 9.67635C7.01361 9.56345 6.77225 9.50674 6.47448 9.50657C6.22873 9.5064 5.90616 9.56812 5.75766 9.64384C5.60923 9.71947 5.41738 9.84359 5.33127 9.91973C5.24517 9.99579 5.09801 10.2093 5.00423 10.3942C4.86424 10.6704 4.84232 10.8321 4.88136 11.3009C4.91383 11.6911 4.89722 11.8965 4.82882 11.9507C4.77384 11.9943 4.56478 12.051 4.36432 12.0766C4.16395 12.1023 3.85546 12.2196 3.67887 12.3372C3.49292 12.461 3.28243 12.7077 3.17887 12.9231C3.08054 13.1277 3 13.4586 3 13.6586C3 13.8586 3.05836 14.1461 3.12979 14.2974C3.20113 14.4488 3.39088 14.7008 3.55145 14.8575C3.71193 15.0142 3.84332 15.1846 3.84332 15.2363C3.84332 15.288 3.70594 15.462 3.53812 15.6229C3.37022 15.7838 3.18047 16.0384 3.11646 16.1886C3.05237 16.3389 3 16.6254 3.00008 16.8253C3.00008 17.0259 3.08113 17.3536 3.18098 17.5566Z" fill="white"/>
</svg>
