<svg width="50" height="50" viewBox="0 0 50 50" fill="none" xmlns="http://www.w3.org/2000/svg">
<path fill-rule="evenodd" clip-rule="evenodd" d="M19.4133 38.5762C19.4172 38.8147 19.5616 39.5338 19.7343 40.1744L20.0481 41.3389L19.4826 41.2573C19.1716 41.2123 18.3513 41.0403 17.6598 40.8752C16.9683 40.7099 15.885 40.3837 15.2526 40.1504C14.6201 39.9169 14.073 39.6803 14.0368 39.6244C14.0007 39.5685 14.4552 39.4467 15.0471 39.3537C15.6389 39.2608 16.8146 38.9598 17.6598 38.6847C18.505 38.4097 19.2437 38.1752 19.3012 38.1637C19.3588 38.1521 19.4092 38.3377 19.4133 38.5762Z" fill="#0086FF"/>
<path d="M23.5439 2.40239C23.9515 2.70268 24.9048 3.56288 25.6623 4.31382C26.4199 5.06489 27.4313 6.23859 27.9099 6.9219C28.3885 7.6052 29.0521 8.711 29.3844 9.37936C29.7169 10.0476 30.0953 10.9079 30.2255 11.2912C30.4612 11.9852 30.4608 11.9897 30.1223 12.4251C29.9352 12.6655 29.7107 13.0664 29.6233 13.3158C29.5358 13.5652 29.4643 14.0368 29.4643 14.3639C29.4643 14.8765 29.4305 14.946 29.2198 14.8667C29.0854 14.816 28.661 14.7431 28.2769 14.7044C27.8927 14.6655 27.3138 14.7022 26.9905 14.7856C26.6673 14.8691 26.1329 15.1313 25.8031 15.3682C25.4396 15.6294 25.0522 16.0838 24.8193 16.5224C24.4857 17.1508 24.4352 17.4021 24.4352 18.4343V19.6228L23.8414 19.5112C23.5148 19.45 22.9463 19.4106 22.5776 19.424C22.2091 19.4372 21.6278 19.5774 21.2858 19.7355C20.9438 19.8936 20.4424 20.2702 20.1716 20.5723C19.9007 20.8745 19.5862 21.4204 19.4727 21.7855C19.3024 22.3333 19.2663 23.6436 19.2663 29.2857V36.1222L18.1138 36.5474C17.48 36.7814 16.3955 37.1098 15.704 37.2774C15.0125 37.4449 13.8809 37.648 13.1894 37.7285C12.4979 37.8091 11.6557 37.8753 11.3179 37.8754C10.8207 37.8757 10.5811 37.7827 10.0606 37.3876C9.70688 37.1192 9.03144 36.5419 8.55939 36.1049L7.70123 35.3103L8.90864 34.5386C9.57277 34.1142 10.6504 33.3184 11.3035 32.7704C11.9566 32.2222 12.9077 31.3008 13.417 30.7226C13.9263 30.1445 14.6961 29.1675 15.1275 28.5516C15.5589 27.9357 16.2207 26.8251 16.5982 26.0836C16.9755 25.3421 17.4413 24.3128 17.6331 23.7962C17.8249 23.2797 18.1593 22.1391 18.3763 21.2615C18.7494 19.752 18.7705 19.5006 18.7695 16.5977C18.7686 13.9308 18.7285 13.359 18.4629 12.2274C18.295 11.5114 17.9636 10.3728 17.7266 9.69713C17.4895 9.02143 17.051 7.97046 16.7522 7.36147C16.4533 6.75247 15.8898 5.76007 15.4998 5.15588C15.1097 4.55182 14.6937 3.92814 14.5754 3.76993C14.3662 3.49031 14.3829 3.4743 15.1674 3.19388C15.6114 3.0354 16.5109 2.75604 17.1664 2.57315C17.822 2.39038 18.8926 2.16012 19.5457 2.06154C20.1988 1.96295 21.1988 1.87637 21.768 1.8693C22.7739 1.85676 22.8236 1.87157 23.5439 2.40239Z" fill="#0069B7"/>
<path fill-rule="evenodd" clip-rule="evenodd" d="M18.9171 0.267365C18.0719 0.408774 16.7517 0.709471 15.9834 0.935593C15.2151 1.16172 13.832 1.69147 12.91 2.11276C11.988 2.53406 10.6993 3.2275 10.0462 3.6536C9.39312 4.07983 8.52866 4.69749 8.12535 5.02634C3 8.5 0.0475623 14.8326 0.0475623 20.0843C-0.00747898 20.4351 -0.0160008 21.5366 0.028563 22.5322C0.0731269 23.5277 0.241743 24.971 0.403095 25.7395C0.564586 26.508 0.891621 27.707 1.12995 28.404C1.36841 29.1011 1.82718 30.2117 2.14961 30.872C2.47203 31.5324 3.00568 32.4929 3.33551 33.0065C3.66548 33.5201 4.32737 34.4206 4.80653 35.0076C5.2857 35.5946 6.33553 36.6795 7.13964 37.4185C7.9436 38.1575 9.19097 39.1386 9.91168 39.599C10.6322 40.0593 11.8278 40.7263 12.5683 41.0812C13.309 41.4362 14.5413 41.9347 15.307 42.1892C16.0727 42.4438 17.3238 42.7723 18.0874 42.9195C18.8511 43.0666 19.8307 43.2262 20.2643 43.2741C21.0441 43.3601 21.0584 43.3696 21.5508 44.1315C21.8246 44.5552 22.4611 45.3272 22.9653 45.8472C23.4693 46.3671 24.3048 47.092 24.822 47.4582C25.3392 47.8243 26.2652 48.3628 26.8799 48.6551C27.4946 48.9473 28.4061 49.3061 28.9055 49.4528C29.4049 49.5992 30.3033 49.7945 30.9019 49.8866C31.5916 49.9928 32.6148 50.0265 33.6959 49.9788C34.9253 49.9246 35.733 49.81 36.5889 49.5683C37.242 49.3839 38.1488 49.0751 38.6041 48.8821C39.0594 48.689 39.8706 48.26 40.4068 47.9287C40.9429 47.5975 41.8434 46.8939 42.4079 46.3654C43.163 45.6582 43.4342 45.3123 43.4342 45.0566C43.4342 44.8655 43.3182 44.5724 43.1766 44.4052C43.0092 44.2079 42.7678 44.1015 42.4883 44.1015C42.1466 44.1015 41.8343 44.3004 40.9791 45.0632C40.3859 45.5921 39.4685 46.2701 38.9403 46.5697C38.4123 46.8694 37.4627 47.2844 36.8305 47.4921C36.1982 47.6999 35.2094 47.9399 34.6332 48.0257C34.0253 48.1162 33.0282 48.1485 32.2583 48.1024C31.5284 48.0589 30.4597 47.8971 29.8834 47.743C29.3072 47.5889 28.3484 47.2302 27.7527 46.9459C27.1572 46.6617 26.3085 46.1631 25.8668 45.8381C25.4252 45.5133 24.7783 44.9546 24.4293 44.5965C24.0805 44.2386 23.6016 43.6756 23.3652 43.3455C23.129 43.0153 22.7445 42.3828 22.5111 41.94C22.2777 41.4971 21.9564 40.7167 21.7971 40.2058C21.6378 39.6947 21.4434 38.7679 21.3649 38.1461C21.2843 37.5075 21.2224 33.9384 21.2229 29.9417C21.2234 25.6371 21.2784 22.6797 21.3633 22.3875C21.4402 22.1233 21.6198 21.8063 21.7624 21.6831C21.9051 21.5598 22.2057 21.4085 22.4303 21.347C22.6817 21.2782 23.0203 21.2926 23.3098 21.3844C23.5686 21.4664 23.9058 21.6953 24.0592 21.8929C24.3289 22.2402 24.3371 22.4404 24.3078 27.8603L24.2774 33.4684L24.6293 33.8044C24.8228 33.9892 25.1295 34.1405 25.3105 34.1405C25.4916 34.1405 25.7672 34.0271 25.9231 33.8885C26.1746 33.6646 26.2166 33.4083 26.2986 31.5994C26.3494 30.4789 26.3909 26.8537 26.3909 23.5433C26.3909 18.3048 26.4192 17.4856 26.609 17.2269C26.7289 17.0634 27.0087 16.8399 27.2307 16.7303C27.4526 16.6206 27.7663 16.531 27.9276 16.531C28.089 16.531 28.4113 16.625 28.644 16.7399C28.8794 16.8561 29.1554 17.1504 29.2658 17.4026C29.4287 17.7751 29.4643 19.1005 29.4643 24.7978C29.4643 31.5614 29.4714 31.746 29.7437 32.006C29.8974 32.1527 30.2008 32.2728 30.4179 32.2728C30.6487 32.2728 30.9374 32.1459 31.1135 31.967L31.4142 31.6613L31.4521 22.6843L31.4899 13.7074L31.9462 13.3183C32.2878 13.0268 32.5416 12.929 32.9568 12.929C33.372 12.929 33.6258 13.0268 33.9674 13.3182L34.4236 13.7074L34.4935 23.1353L34.5633 32.5634L34.8931 32.8183C35.0745 32.9585 35.3332 33.0732 35.468 33.0732C35.6028 33.0732 35.8787 32.9488 36.0811 32.7967L36.4492 32.5203V25.1883C36.4492 19.1536 36.4843 17.7762 36.6478 17.4026C36.7581 17.1504 37.0342 16.8561 37.2696 16.7399C37.5023 16.625 37.8246 16.531 37.9859 16.531C38.1473 16.531 38.4609 16.6206 38.6829 16.7303C38.9049 16.8399 39.1847 17.0634 39.3045 17.2269C39.4947 17.486 39.5226 18.3302 39.5226 23.8133C39.5226 29.9737 39.5285 30.1095 39.8122 30.4538C40.0195 30.7057 40.2313 30.8053 40.5589 30.8053C40.8235 30.8053 41.1129 30.7032 41.2461 30.5625C41.3725 30.4291 41.5389 30.0037 41.6156 29.6174C41.6923 29.231 41.983 28.5008 42.2615 27.9946C42.5401 27.4884 43.1221 26.672 43.555 26.1804C43.9879 25.6888 44.7349 25.0302 45.2149 24.717C45.6949 24.4036 46.3025 24.1088 46.5651 24.0618C46.858 24.0093 47.1907 24.0456 47.4258 24.1557C47.6364 24.2545 47.873 24.4338 47.9513 24.5542C48.0534 24.7115 48.0259 24.9427 47.8538 25.3733C47.7218 25.7033 47.2154 26.5384 46.7283 27.2291C46.2413 27.9198 45.7147 28.7245 45.5584 29.0173C45.402 29.31 45.1702 29.9071 45.0434 30.3442C44.8729 30.9311 44.7799 32.1153 44.6875 34.8742C44.6188 36.9287 44.5022 38.842 44.4284 39.126C44.4151 39.3154 44.3893 39.5057 44.3525 39.6961C44.3536 39.7657 44.3607 39.8228 44.3743 39.8597C44.4185 39.9792 44.549 40.182 44.6645 40.3105C44.7849 40.4444 45.0693 40.5439 45.3316 40.5439C45.651 40.5439 45.8704 40.445 46.0594 40.2155C46.0945 40.1729 46.1282 40.1194 46.1605 40.055C46.3188 39.5251 46.4265 39.0619 46.4885 38.7056C46.5759 38.0558 46.6472 36.4671 46.6472 35.175C46.6472 33.8829 46.7143 32.3562 46.7963 31.7821C46.8782 31.2082 47.0894 30.4385 47.2655 30.0716C47.4417 29.7047 47.9999 28.8163 48.5062 28.0971C49.0123 27.378 49.5555 26.4602 49.7132 26.0577C49.8709 25.6551 50 25.0854 50 24.7918C50 24.4981 49.8761 24.0259 49.7247 23.7425C49.5732 23.459 49.224 23.0497 48.9485 22.8328C48.673 22.616 48.2081 22.37 47.9154 22.2862C47.6226 22.2026 47.17 22.134 46.9095 22.134C46.6491 22.134 46.2319 22.1899 45.9827 22.2581L45.5296 22.3821V21.7386C45.5296 21.3846 45.4634 20.4734 45.3825 19.7135C45.3017 18.9536 45.1389 17.8817 45.021 17.3314C44.9031 16.7811 44.6191 15.7605 44.3901 15.0635C44.1612 14.3665 43.5684 13.0157 43.0732 12.0619C42.5778 11.108 41.7491 9.75956 41.2317 9.06519C40.7144 8.37095 39.6623 7.19938 38.894 6.46165C38.1256 5.72405 37.0004 4.76606 36.3935 4.33303C35.7865 3.9 34.7493 3.24698 34.0885 2.88198C33.4276 2.51698 32.2583 1.96655 31.4899 1.65892C30.7216 1.35128 29.4957 0.939595 28.7658 0.744156C28.0359 0.548851 26.81 0.299248 26.0417 0.189589C25.2414 0.0753941 23.7497 -0.00544942 22.5492 0.00028702C21.1479 0.00695729 19.9447 0.095405 18.9171 0.267365ZM9.74125 6.20337C9.19976 6.61089 9.74125 6.20337 8.36591 7.05917C6.5 8.5 2.43565 14.299 1.993 20.8242C1.94662 21.5079 1.98127 22.7276 2.06998 23.5347C2.15855 24.3418 2.39352 25.6325 2.59217 26.403C2.79068 27.1734 3.13448 28.2402 3.35618 28.7737C3.57788 29.3072 3.98022 30.1627 4.25025 30.6749C4.52029 31.187 4.95503 31.9211 5.21627 32.3063C5.47751 32.6914 5.84645 33.2037 6.03616 33.4448L6.38122 33.883L7.61992 33.0894C8.30137 32.6529 9.33025 31.9079 9.90651 31.4341C10.4828 30.9602 11.3701 30.0996 11.8784 29.5217C12.3866 28.9437 13.0985 28.0505 13.4606 27.5369C13.8225 27.0233 14.4262 26.0027 14.802 25.269C15.1778 24.5353 15.6796 23.3647 15.917 22.6676C16.1545 21.9706 16.4782 20.6799 16.6363 19.7994C16.8787 18.45 16.912 17.8423 16.8481 15.9306C16.7893 14.1697 16.6947 13.3496 16.4253 12.262C16.2344 11.4916 15.9094 10.411 15.703 9.86069C15.4965 9.31039 15.0452 8.31985 14.6998 7.6595C14.3547 6.99914 13.7792 6.04262 13.4212 5.53408C13.0633 5.0254 12.7298 4.55195 12.6804 4.48191C12.6298 4.41027 12.2157 4.57196 11.7346 4.85104C11.2638 5.12412 10.3668 5.73259 9.74125 6.20337ZM25.6623 4.31382C24.9048 3.56288 23.9515 2.70268 23.5439 2.40239C22.8236 1.87157 22.7739 1.85676 21.768 1.8693C21.1988 1.87637 20.1988 1.96295 19.5457 2.06154C18.8926 2.16012 17.822 2.39038 17.1664 2.57315C16.5109 2.75604 15.6114 3.0354 15.1674 3.19388C14.3829 3.4743 14.3662 3.49031 14.5754 3.76993C14.6937 3.92814 15.1097 4.55182 15.4998 5.15588C15.8898 5.76007 16.4533 6.75247 16.7522 7.36147C17.051 7.97046 17.4895 9.02143 17.7266 9.69713C17.9636 10.3728 18.295 11.5114 18.4629 12.2274C18.7285 13.359 18.7686 13.9308 18.7695 16.5977C18.7705 19.5006 18.7494 19.752 18.3763 21.2615C18.1593 22.1391 17.8249 23.2797 17.6331 23.7962C17.4413 24.3128 16.9755 25.3421 16.5982 26.0836C16.2207 26.8251 15.5589 27.9357 15.1275 28.5516C14.6961 29.1675 13.9263 30.1445 13.417 30.7226C12.9077 31.3008 11.9566 32.2222 11.3035 32.7704C10.6504 33.3184 9.57277 34.1142 8.90864 34.5386L7.70123 35.3103L8.55939 36.1049C9.03144 36.5419 9.70688 37.1192 10.0606 37.3876C10.5811 37.7827 10.8207 37.8757 11.3179 37.8754C11.6557 37.8753 12.4979 37.8091 13.1894 37.7285C13.8809 37.648 15.0125 37.4449 15.704 37.2774C16.3955 37.1098 17.48 36.7814 18.1138 36.5474L19.2663 36.1222V29.2857C19.2663 23.6436 19.3024 22.3333 19.4727 21.7855C19.5862 21.4204 19.9007 20.8745 20.1716 20.5723C20.4424 20.2702 20.9438 19.8936 21.2858 19.7355C21.6278 19.5774 22.2091 19.4372 22.5776 19.424C22.9463 19.4106 23.5148 19.45 23.8414 19.5112L24.4352 19.6228V18.4343C24.4352 17.4021 24.4857 17.1508 24.8193 16.5224C25.0522 16.0838 25.4396 15.6294 25.8031 15.3682C26.1329 15.1313 26.6673 14.8691 26.9905 14.7856C27.3138 14.7022 27.8927 14.6655 28.2769 14.7044C28.661 14.7431 29.0854 14.816 29.2198 14.8667C29.4305 14.946 29.4643 14.8765 29.4643 14.3639C29.4643 14.0368 29.5358 13.5652 29.6233 13.3158C29.7107 13.0664 29.9352 12.6655 30.1223 12.4251C30.4608 11.9897 30.4612 11.9852 30.2255 11.2912C30.0953 10.9079 29.7169 10.0476 29.3844 9.37936C29.0521 8.711 28.3885 7.6052 27.9099 6.9219C27.4313 6.23859 26.4199 5.06489 25.6623 4.31382ZM30.4246 3.26472C29.7362 3.00164 28.5715 2.63718 27.8365 2.45481C27.1014 2.27245 26.4372 2.12317 26.3605 2.12317C26.2837 2.12317 26.7149 2.62344 27.3187 3.23484C27.9226 3.84637 28.7788 4.82956 29.2214 5.41975C29.6641 6.01007 30.3515 7.08292 30.7491 7.80397C31.1466 8.52516 31.6439 9.53798 31.8544 10.0548L32.2369 10.9946L33.0122 11.0246C33.4386 11.0412 33.9981 11.1388 34.2554 11.2414C34.5127 11.3442 34.9645 11.6303 35.2591 11.8775C35.5539 12.1246 35.9416 12.6274 36.1208 12.9948C36.3174 13.3979 36.447 13.9149 36.4478 14.299C36.4492 14.9288 36.4531 14.9341 36.8334 14.8326C37.0446 14.7761 37.628 14.7315 38.1297 14.7333C38.8648 14.736 39.1667 14.8067 39.6865 15.0977C40.0412 15.296 40.4974 15.647 40.7005 15.8774C40.9035 16.1078 41.1744 16.5143 41.3025 16.7806C41.4995 17.1898 41.5435 17.8881 41.5875 21.2965L41.6396 25.3282L42.5222 24.4472L43.4047 23.5664L43.4666 22.6166C43.5007 22.0944 43.4771 21.0246 43.414 20.2392C43.3512 19.454 43.1999 18.3434 43.0779 17.7712C42.9561 17.1992 42.6373 16.1014 42.3697 15.3319C42.102 14.5623 41.5443 13.3135 41.1305 12.5568C40.7166 11.8 40.0127 10.691 39.5662 10.0924C39.1196 9.49382 38.1885 8.45726 37.497 7.78903C36.8055 7.12067 35.7682 6.23913 35.192 5.82997C34.6157 5.42082 33.5889 4.78381 32.9103 4.41454C32.2316 4.04527 31.113 3.52793 30.4246 3.26472ZM19.7343 40.1744C19.5616 39.5338 19.4172 38.8147 19.4133 38.5762C19.4092 38.3377 19.3588 38.1521 19.3012 38.1637C19.2437 38.1752 18.505 38.4097 17.6598 38.6847C16.8146 38.9598 15.6389 39.2608 15.0471 39.3537C14.4552 39.4467 14.0007 39.5685 14.0368 39.6244C14.073 39.6803 14.6201 39.9169 15.2526 40.1504C15.885 40.3837 16.9683 40.7099 17.6598 40.8752C18.3513 41.0403 19.1716 41.2123 19.4826 41.2573L20.0481 41.3389L19.7343 40.1744Z" fill="white"/>
<path d="M43.4342 45.0566C43.4342 45.3123 43.163 45.6582 42.4079 46.3654C44.4259 44.5966 45.6049 41.9147 46.1605 40.055C46.1282 40.1194 46.0945 40.1729 46.0594 40.2155C45.8704 40.445 45.651 40.5439 45.3316 40.5439C45.0693 40.5439 44.7849 40.4444 44.6645 40.3105C44.549 40.182 44.4185 39.9792 44.3743 39.8597C44.3607 39.8228 44.3536 39.7657 44.3525 39.6961C43.9204 41.9289 41.9736 44.1656 40.9791 45.0632C41.8343 44.3004 42.1466 44.1015 42.4883 44.1015C42.7678 44.1015 43.0092 44.2079 43.1766 44.4052C43.3182 44.5724 43.4342 44.8655 43.4342 45.0566Z" fill="white"/>
<path d="M38.9403 46.5697C39.4685 46.2701 40.3859 45.5921 40.9791 45.0632C41.9736 44.1656 43.9204 41.9289 44.3525 39.6961C44.35 39.5405 44.3774 39.3223 44.4284 39.126C44.5022 38.842 44.6188 36.9287 44.6875 34.8742C44.7799 32.1153 44.8729 30.9311 45.0434 30.3442C45.1702 29.9071 45.402 29.31 45.5584 29.0173C45.7147 28.7245 46.2413 27.9198 46.7283 27.2291C47.2154 26.5384 47.7218 25.7033 47.8538 25.3733C48.0259 24.9427 48.0534 24.7115 47.9513 24.5542C47.873 24.4338 47.6364 24.2545 47.4258 24.1557C47.1907 24.0456 46.858 24.0093 46.5651 24.0618C46.3025 24.1088 45.6949 24.4036 45.2149 24.717C44.7349 25.0302 43.9879 25.6888 43.555 26.1804C43.1221 26.672 42.5401 27.4884 42.2615 27.9946C41.983 28.5008 41.6923 29.231 41.6156 29.6174C41.5389 30.0037 41.3725 30.4291 41.2461 30.5625C41.1129 30.7032 40.8235 30.8053 40.5589 30.8053C40.2313 30.8053 40.0195 30.7057 39.8122 30.4538C39.5285 30.1095 39.5226 29.9737 39.5226 23.8133C39.5226 18.3302 39.4947 17.486 39.3045 17.2269C39.1847 17.0634 38.9049 16.8399 38.6829 16.7303C38.4609 16.6206 38.1473 16.531 37.9859 16.531C37.8246 16.531 37.5023 16.625 37.2696 16.7399C37.0342 16.8561 36.7581 17.1504 36.6478 17.4026C36.4843 17.7762 36.4492 19.1536 36.4492 25.1883V32.5203L36.0811 32.7967C35.8787 32.9488 35.6028 33.0732 35.468 33.0732C35.3332 33.0732 35.0745 32.9585 34.8931 32.8183L34.5633 32.5634L34.4935 23.1353L34.4236 13.7074L33.9674 13.3182C33.6258 13.0268 33.372 12.929 32.9568 12.929C32.5416 12.929 32.2878 13.0268 31.9462 13.3183L31.4899 13.7074L31.4521 22.6843L31.4142 31.6613L31.1135 31.967C30.9374 32.1459 30.6487 32.2728 30.4179 32.2728C30.2008 32.2728 29.8974 32.1527 29.7437 32.006C29.4714 31.746 29.4643 31.5614 29.4643 24.7978C29.4643 19.1005 29.4287 17.7751 29.2658 17.4026C29.1554 17.1504 28.8794 16.8561 28.644 16.7399C28.4113 16.625 28.089 16.531 27.9276 16.531C27.7663 16.531 27.4526 16.6206 27.2307 16.7303C27.0087 16.8399 26.7289 17.0634 26.609 17.2269C26.4192 17.4856 26.3909 18.3048 26.3909 23.5433C26.3909 26.8537 26.3494 30.4789 26.2986 31.5994C26.2166 33.4083 26.1746 33.6646 25.9231 33.8885C25.7672 34.0271 25.4916 34.1405 25.3105 34.1405C25.1295 34.1405 24.8228 33.9892 24.6293 33.8044L24.2774 33.4684L24.3078 27.8603C24.3371 22.4404 24.3289 22.2402 24.0592 21.8929C23.9058 21.6953 23.5686 21.4664 23.3098 21.3844C23.0203 21.2926 22.6817 21.2782 22.4303 21.347C22.2057 21.4085 21.9051 21.5598 21.7624 21.6831C21.6198 21.8063 21.4402 22.1233 21.3633 22.3875C21.2784 22.6797 21.2234 25.6371 21.2229 29.9417C21.2224 33.9384 21.2843 37.5075 21.3649 38.1461C21.4434 38.7679 21.6378 39.6947 21.7971 40.2058C21.9564 40.7167 22.2777 41.4971 22.5111 41.94C22.7445 42.3828 23.129 43.0153 23.3652 43.3455C23.6016 43.6756 24.0805 44.2386 24.4293 44.5965C24.7783 44.9546 25.4252 45.5133 25.8668 45.8381C26.3085 46.1631 27.1572 46.6617 27.7527 46.9459C28.3484 47.2302 29.3072 47.5889 29.8834 47.743C30.4597 47.8971 31.5284 48.0589 32.2583 48.1024C33.0282 48.1485 34.0253 48.1162 34.6332 48.0257C35.2094 47.9399 36.1982 47.6999 36.8305 47.4921C37.4627 47.2844 38.4123 46.8694 38.9403 46.5697Z" fill="#0086FF"/>
<path d="M8.36591 7.05917C9.74125 6.20337 9.19976 6.61089 9.74125 6.20337C10.3668 5.73259 11.2638 5.12412 11.7346 4.85104C12.2157 4.57196 12.6298 4.41027 12.6804 4.48191C12.7298 4.55195 13.0633 5.0254 13.4212 5.53408C13.7792 6.04262 14.3547 6.99914 14.6998 7.6595C15.0452 8.31985 15.4965 9.31039 15.703 9.86069C15.9094 10.411 16.2344 11.4916 16.4253 12.262C16.6947 13.3496 16.7893 14.1697 16.8481 15.9306C16.912 17.8423 16.8787 18.45 16.6363 19.7994C16.4782 20.6799 16.1545 21.9706 15.917 22.6676C15.6796 23.3647 15.1778 24.5353 14.802 25.269C14.4262 26.0027 13.8225 27.0233 13.4606 27.5369C13.0985 28.0505 12.3866 28.9437 11.8784 29.5217C11.3701 30.0996 10.4828 30.9602 9.90651 31.4341C9.33025 31.9079 8.30137 32.6529 7.61992 33.0894L6.38122 33.883L6.03616 33.4448C5.84645 33.2037 5.47751 32.6914 5.21627 32.3063C4.95503 31.9211 4.52029 31.187 4.25025 30.6749C3.98022 30.1627 3.57788 29.3072 3.35618 28.7737C3.13448 28.2402 2.79068 27.1734 2.59217 26.403C2.39352 25.6325 2.15855 24.3418 2.06998 23.5347C1.98127 22.7276 1.94662 21.5079 1.993 20.8242C2.43565 14.299 6.5 8.5 8.36591 7.05917Z" fill="#0086FF"/>
<path d="M27.8365 2.45481C28.5715 2.63718 29.7362 3.00164 30.4246 3.26472C31.113 3.52793 32.2316 4.04527 32.9103 4.41454C33.5889 4.78381 34.6157 5.42082 35.192 5.82997C35.7682 6.23913 36.8055 7.12067 37.497 7.78903C38.1885 8.45726 39.1196 9.49382 39.5662 10.0924C40.0127 10.691 40.7166 11.8 41.1305 12.5568C41.5443 13.3135 42.102 14.5623 42.3697 15.3319C42.6373 16.1014 42.9561 17.1992 43.0779 17.7712C43.1999 18.3434 43.3512 19.454 43.414 20.2392C43.4771 21.0246 43.5007 22.0944 43.4666 22.6166L43.4047 23.5664L42.5222 24.4472L41.6396 25.3282L41.5875 21.2965C41.5435 17.8881 41.4995 17.1898 41.3025 16.7806C41.1744 16.5143 40.9035 16.1078 40.7005 15.8774C40.4974 15.647 40.0412 15.296 39.6865 15.0977C39.1667 14.8067 38.8648 14.736 38.1297 14.7333C37.628 14.7315 37.0446 14.7761 36.8334 14.8326C36.4531 14.9341 36.4492 14.9288 36.4478 14.299C36.447 13.9149 36.3174 13.3979 36.1208 12.9948C35.9416 12.6274 35.5539 12.1246 35.2591 11.8775C34.9645 11.6303 34.5127 11.3442 34.2554 11.2414C33.9981 11.1388 33.4386 11.0412 33.0122 11.0246L32.2369 10.9946L31.8544 10.0548C31.6439 9.53798 31.1466 8.52516 30.7491 7.80397C30.3515 7.08292 29.6641 6.01007 29.2214 5.41975C28.7788 4.82956 27.9226 3.84637 27.3187 3.23484C26.7149 2.62344 26.2837 2.12317 26.3605 2.12317C26.4372 2.12317 27.1014 2.27245 27.8365 2.45481Z" fill="#0086FF"/>
</svg>
