<svg width="50" height="50" viewBox="0 0 50 50" fill="none" xmlns="http://www.w3.org/2000/svg">
<path fill-rule="evenodd" clip-rule="evenodd" d="M12.8812 0.0428031C12.5184 0.125402 12.0166 0.331201 11.7168 0.520266C11.3408 0.757442 11.0702 1.0836 10.8874 1.51966C10.6525 2.08031 10.6241 2.54468 10.7906 3.1049C11.1661 4.36861 12.3473 5.17459 13.512 4.96182C14.6144 4.76047 15.4516 3.91952 15.6319 2.8326C15.7491 2.12622 15.4859 1.28999 14.9774 0.752829C14.4293 0.173995 13.5754 -0.115261 12.8812 0.0428031ZM13.9353 1.01221C14.7315 1.40396 14.9004 1.69006 14.8552 2.56978C14.8161 3.32996 14.5506 3.77138 13.9679 4.04497C13.271 4.3722 12.1868 4.15686 11.8316 3.62061C11.6314 3.31843 11.4314 2.67207 11.4327 2.33175C11.4353 1.67182 11.9682 1.04268 12.7355 0.793699C13.071 0.684819 13.387 0.74237 13.9353 1.01221ZM24.2368 2.97033C24.0891 2.99468 23.5455 3.03137 23.0287 3.05191C22.4573 3.0746 21.9104 3.12781 21.6328 3.18772C21.3818 3.24189 21.0556 3.3011 20.908 3.31929C20.1869 3.408 18.5333 3.78844 17.606 4.07898C13.5346 5.35464 9.75298 7.70844 6.81512 10.7955C4.73154 12.9849 3.13928 15.4541 2.0725 18.1502C1.14123 20.5039 0.366258 23.3806 0.208568 25.0692C0.179682 25.3789 0.132059 25.7771 0.102851 25.9541C0.0356298 26.361 0.0345023 29.0562 0.101347 29.5209C0.128891 29.7127 0.177857 30.1471 0.210071 30.4863C0.456244 33.0773 1.50552 36.5735 2.82594 39.2021C3.57976 40.7028 4.29095 41.8107 5.24064 42.9638C7.71224 45.9646 8.32201 46.5592 10.5312 48.1229C10.9821 48.442 11.5345 48.8358 11.759 48.9979C11.9833 49.16 12.2453 49.3251 12.3411 49.3647C12.5613 49.4558 12.7783 49.3882 12.8574 49.2039C12.8974 49.1107 12.9034 45.9025 12.8775 38.4512L12.8406 27.8314L12.971 27.1616C13.1433 26.2765 13.3235 25.6615 13.6374 24.8878C14.6653 22.3537 16.6135 20.2434 19.1093 18.9607C20.4675 18.2627 21.4286 17.9374 23.1093 17.6065L23.7536 17.4797H29.3374H34.9213L36.1946 16.9836C36.8949 16.7108 37.5133 16.4875 37.5688 16.4875C37.6881 16.4875 37.8474 16.6482 37.8474 16.7686C37.8474 16.8153 37.6481 17.4047 37.4045 18.0784L36.9615 19.3033L36.9487 34.2676C36.9384 46.2283 36.9494 49.2589 37.0036 49.366C37.1731 49.7016 37.5599 49.5357 39.3239 48.3708C42.1556 46.5008 44.6825 43.7266 46.5738 40.4116C47.7263 38.3915 48.7716 35.8153 49.335 33.6069C49.4935 32.9858 49.7668 31.5785 49.7668 31.3838C49.7668 31.295 49.8182 30.93 49.8809 30.5728C49.9843 29.9847 49.9955 29.7175 49.9985 27.7509C50.0021 25.4063 50.0234 25.6661 49.6782 23.8355C49.6309 23.5848 49.561 23.2107 49.523 23.0042C49.3863 22.2635 48.9635 20.6305 48.7192 19.9003C48.2936 18.6275 47.5112 16.9178 46.8018 15.7098C44.9798 12.6073 42.9091 10.1927 40.2904 8.11671C37.6442 6.01903 34.2314 4.36958 31.0555 3.65338C30.0414 3.42468 29.6256 3.34219 29.2483 3.29494C29.022 3.26656 28.6234 3.20783 28.3624 3.16439C27.9497 3.09573 26.8309 3.02322 25.0153 2.94738C24.7348 2.93569 24.3844 2.94604 24.2368 2.97033ZM25.7488 3.75497C26.0157 3.80967 26.4938 3.84534 27.0556 3.85242C27.7805 3.86154 28.0049 3.88364 28.2904 3.97428C28.4824 4.03516 28.8206 4.10161 29.0421 4.12194C29.7093 4.18314 30.3595 4.30725 30.6232 4.4238C30.7601 4.4843 31.1545 4.58208 31.4997 4.64102C31.879 4.70587 32.2737 4.8125 32.4977 4.91076C32.7015 5.00011 33.1007 5.1305 33.3847 5.2005C33.717 5.2824 34.1022 5.43097 34.4649 5.61703C34.775 5.77606 35.1467 5.93493 35.2909 5.97C35.5898 6.04268 35.8905 6.18626 36.2292 6.41797C36.3579 6.50609 36.6794 6.67048 36.9436 6.78328C37.2079 6.89613 37.5857 7.10691 37.7834 7.25173C37.981 7.39655 38.316 7.60492 38.5277 7.71482C38.7394 7.82472 39.0535 8.04178 39.2257 8.19722C39.3978 8.35265 39.7199 8.59396 39.9414 8.73336C40.1628 8.87281 40.489 9.13621 40.6662 9.31863C40.8434 9.50109 41.1394 9.76471 41.324 9.90443C41.5085 10.0442 41.7738 10.3054 41.9134 10.4851C42.0531 10.6647 42.3206 10.932 42.5079 11.079C42.6952 11.2261 42.9252 11.4587 43.0191 11.5959C43.1129 11.7331 43.3622 12.0288 43.5731 12.2529C43.784 12.4769 44.0324 12.7947 44.1252 12.9589C44.2179 13.123 44.4405 13.423 44.6197 13.6254C44.799 13.8278 45.0181 14.1383 45.1067 14.3153C45.1952 14.4922 45.3977 14.8082 45.5567 15.0174C45.7157 15.2267 45.9303 15.5832 46.0337 15.8098C46.137 16.0363 46.3285 16.3778 46.4593 16.5686C46.5901 16.7594 46.7364 17.0304 46.7845 17.1708C46.8325 17.3112 47.0061 17.6883 47.17 18.0087C47.3341 18.3291 47.5147 18.7587 47.5714 18.9632C47.6282 19.1677 47.7582 19.5089 47.8604 19.7215C47.9717 19.9531 48.091 20.3319 48.1581 20.6671C48.2197 20.9747 48.3288 21.3657 48.4005 21.536C48.4723 21.7063 48.5679 22.0942 48.6131 22.3981C48.6583 22.702 48.7672 23.1596 48.8552 23.415C48.9835 23.7879 49.0151 23.9694 49.0151 24.3346C49.0151 24.6614 49.0491 24.8933 49.1357 25.1574C49.2422 25.482 49.2545 25.6157 49.2407 26.299C49.2322 26.7246 49.2537 27.2495 49.2886 27.4655C49.3388 27.7767 49.3374 27.9445 49.2817 28.2739C49.243 28.5025 49.2087 29.0878 49.2053 29.5745C49.2005 30.2756 49.1799 30.5097 49.106 30.7009C49.0542 30.8349 48.9777 31.2999 48.934 31.7468C48.8482 32.6236 48.7961 32.8635 48.5111 33.6912C48.407 33.9937 48.2954 34.3919 48.2632 34.5762C48.1725 35.0953 48.0135 35.5415 47.6178 36.3873C47.4173 36.8156 47.1753 37.407 47.08 37.7014C46.8601 38.3806 46.4706 39.1606 46.0092 39.8457C45.5984 40.4556 45.2471 41.0145 44.6999 41.9286C43.638 43.7025 41.7769 45.5626 38.9837 47.6414C38.2332 48.2 38.0503 48.3068 37.8846 48.2832C37.6708 48.2526 37.6157 48.0267 37.6898 47.4847C37.7424 47.1002 37.7418 46.8918 37.6867 46.4457C37.6307 45.9924 37.6307 45.7906 37.6863 45.3702C37.7422 44.9489 37.742 44.7481 37.6855 44.2906C37.6285 43.8292 37.6287 43.6333 37.6863 43.1979C37.744 42.7629 37.7442 42.5665 37.6873 42.1062C37.6309 41.6499 37.6308 41.4628 37.6865 41.1051C37.7334 40.8042 37.7409 40.5271 37.7102 40.2286C37.6856 39.9885 37.6681 39.599 37.6713 39.363C37.6775 38.9093 37.6815 37.9249 37.6799 37.231C37.6785 36.6232 37.6784 35.5401 37.6798 35.0319C37.6804 34.7885 37.6804 34.2878 37.6796 33.919C37.6789 33.5503 37.6788 33.0675 37.6796 32.8463C37.6803 32.6251 37.68 32.1544 37.679 31.8004C37.6768 31.016 37.6767 30.4978 37.6787 29.655C37.6796 29.301 37.6796 28.8062 37.6787 28.5555C37.6779 28.3047 37.678 27.8099 37.6789 27.4559C37.6798 27.1019 37.6801 26.6132 37.6795 26.3698C37.679 26.1264 37.6786 25.6256 37.6786 25.2569C37.6786 24.8881 37.6775 24.3994 37.6761 24.1708C37.6747 23.9422 37.6792 23.5137 37.686 23.2187C37.6927 22.9237 37.6974 22.3746 37.6962 21.9985C37.695 21.6224 37.6949 21.1276 37.6959 20.899C37.6969 20.6704 37.6891 20.2661 37.6786 20.0006C37.66 19.5295 37.6649 19.5063 37.8832 19.0352C38.1109 18.5437 38.3843 17.7411 38.3843 17.5643C38.3843 17.3922 38.6508 16.6376 38.9026 16.0971C39.1712 15.5203 39.1795 15.3495 38.9443 15.2424C38.8324 15.1915 38.7611 15.2018 38.5297 15.3023C37.2225 15.8699 36.5142 16.1476 36.1025 16.2539C34.0783 16.7765 34.5242 16.7235 32.2367 16.7131C31.4704 16.7096 30.8669 16.7085 29.6059 16.7082C29.1482 16.7081 28.5562 16.7079 28.2904 16.7078C26.5921 16.7072 26.0395 16.7077 25.6462 16.7098C25.4025 16.711 24.877 16.705 24.4784 16.6962C23.8107 16.6816 23.7049 16.6934 23.1361 16.8455C22.7965 16.9362 22.2891 17.053 22.0086 17.1048C20.7771 17.3327 20.1312 17.578 18.8393 18.3085C17.0441 19.3235 16.055 20.107 14.8434 21.4738C13.7628 22.6927 13.434 23.223 13.0132 24.4255C12.9048 24.7353 12.71 25.2346 12.5803 25.5351C12.2946 26.1972 12.2147 26.5437 12.2561 26.9406C12.2887 27.2534 12.2581 27.5496 12.1082 28.3725C12.0283 28.8109 12.0272 28.9119 12.0971 29.3767C12.1568 29.774 12.162 29.9836 12.1194 30.2837C12.0857 30.5213 12.0809 30.8735 12.1072 31.1836C12.1309 31.4638 12.1414 31.8983 12.1305 32.149C12.1196 32.3998 12.1129 32.8403 12.1154 33.1279C12.1181 33.4155 12.1202 33.8922 12.1202 34.1872C12.1202 34.4822 12.1203 34.9649 12.1205 35.2599C12.1207 35.7788 12.1207 36.2888 12.1204 37.4992C12.1203 37.8163 12.1196 38.3171 12.1188 38.6121C12.118 38.9071 12.1182 39.3898 12.1192 39.6848C12.1203 39.9798 12.1204 40.4746 12.1196 40.7843C12.1187 41.0941 12.1185 41.5889 12.1192 41.8839C12.1199 42.1789 12.1197 42.6616 12.1189 42.9566C12.1181 43.2516 12.1182 43.7283 12.1191 44.0159C12.1212 44.6776 12.1214 45.5233 12.1195 46.1613C12.1187 46.4341 12.1267 46.8909 12.1372 47.1762C12.1542 47.6368 12.1437 47.7121 12.0436 47.8467C11.8235 48.1429 11.5763 48.0737 10.9826 47.5494C10.78 47.3705 10.478 47.1476 10.3115 47.054C10.1449 46.9604 9.81542 46.6991 9.57918 46.4732C9.34294 46.2473 9.04329 45.9914 8.91325 45.9046C8.78327 45.8176 8.52958 45.5834 8.3495 45.3841C8.16947 45.1848 7.87643 44.9045 7.69828 44.7613C7.51804 44.6163 7.25898 44.3305 7.11407 44.1167C6.97093 43.9054 6.7377 43.6355 6.59585 43.5168C6.454 43.3982 6.2409 43.1477 6.12235 42.9602C6.0038 42.7727 5.76138 42.4556 5.58361 42.2555C5.4059 42.0555 5.1746 41.7286 5.06963 41.5291C4.96472 41.3297 4.78271 41.0449 4.66518 40.8964C4.44161 40.6138 4.31517 40.3923 4.13412 39.9662C4.07458 39.826 3.9062 39.53 3.75995 39.3085C3.61375 39.0869 3.44172 38.743 3.37772 38.5443C3.31372 38.3456 3.14465 37.9779 3.00205 37.7271C2.85741 37.4728 2.71641 37.1408 2.68323 36.9762C2.65048 36.814 2.5154 36.464 2.38299 36.1985C2.23116 35.894 2.10257 35.5323 2.03459 35.2187C1.97532 34.9452 1.84319 34.5195 1.74091 34.2727C1.61559 33.9704 1.53779 33.6731 1.50236 33.3616C1.47342 33.1073 1.39846 32.7848 1.33575 32.6448C1.26977 32.4976 1.19879 32.1758 1.16727 31.8809C1.13726 31.6006 1.06671 31.1157 1.01044 30.8032C0.952025 30.4788 0.908106 29.9913 0.908106 29.6668C0.908106 29.3318 0.87267 28.9485 0.821718 28.7331C0.753691 28.4453 0.74451 28.2539 0.778282 27.8314C0.801906 27.5364 0.824295 26.9451 0.828107 26.5173C0.833852 25.8668 0.858872 25.6431 0.981019 25.1496C1.06257 24.8202 1.14891 24.2702 1.17651 23.9043C1.21608 23.3794 1.26912 23.1121 1.4426 22.5623C1.56179 22.1848 1.68233 21.6952 1.71052 21.4746C1.78219 20.9132 1.93999 20.4387 2.33902 19.5852C2.5286 19.1797 2.76431 18.5996 2.86278 18.296C3.10739 17.5422 3.36876 16.9952 3.80339 16.3277C4.00548 16.0173 4.33385 15.4738 4.53315 15.1198C5.51956 13.3677 6.19252 12.4824 7.58311 11.1078C8.17404 10.5237 8.88592 9.85991 9.16506 9.63282C10.7164 8.37067 12.3076 7.23162 13.2905 6.67982C13.9903 6.28694 15.1905 5.7457 15.783 5.55578C16.4981 5.32659 17.5809 4.93725 18.1027 4.7218C18.7913 4.43737 19.3061 4.30157 19.861 4.2578C20.5534 4.2032 21.084 4.1117 21.6596 3.94752C22.1008 3.82174 22.2432 3.80849 23.2972 3.79562C23.9321 3.78785 24.5482 3.75888 24.6663 3.73121C24.9959 3.65408 25.2884 3.66051 25.7488 3.75497ZM6.76041 3.90236C5.58254 4.32146 5.07704 4.83336 4.85455 5.83227C4.77578 6.18599 4.77546 6.25787 4.85068 6.62114C5.02437 7.46005 5.54313 8.18177 6.2409 8.55534C6.53673 8.71378 6.6286 8.73523 7.09302 8.75454C7.72717 8.78093 8.17908 8.66272 8.67986 8.33935C9.05924 8.0944 9.26971 7.83255 9.54562 7.26219C9.73472 6.8714 9.74025 6.84233 9.74025 6.24312C9.74025 5.64336 9.73477 5.61488 9.54321 5.21407C9.4348 4.98735 9.24694 4.69434 9.12571 4.56298C8.74864 4.15434 7.87825 3.77411 7.32631 3.77701C7.20701 3.77765 6.95235 3.83403 6.76041 3.90236ZM8.08577 4.69251C8.37613 4.83288 8.58998 5.08733 8.84012 5.58994C9.18278 6.27841 9.09811 6.78821 8.54252 7.38158C8.23191 7.71332 7.9546 7.87723 7.51283 7.99029C7.22194 8.06474 7.12153 8.06849 6.87821 8.0141C6.63305 7.95929 6.52916 7.89251 6.19424 7.57472C5.77658 7.17841 5.52552 6.77025 5.52552 6.48753C5.52552 6.26913 5.77137 5.54156 5.91929 5.32236C6.16031 4.96504 6.98462 4.58803 7.53538 4.58321C7.75348 4.58127 7.92717 4.61576 8.08577 4.69251ZM1.95508 8.89088C0.979193 9.20787 0.401909 9.66055 0.152837 10.3041C-0.0259536 10.7662 -0.0511883 11.4879 0.094636 11.9676C0.306554 12.6646 0.811785 13.2697 1.43852 13.5772C1.71927 13.7149 1.78724 13.7253 2.41268 13.7253C3.06481 13.7253 3.09585 13.72 3.44484 13.5483C3.86631 13.341 4.31935 12.9453 4.55452 12.5792C4.78996 12.2127 4.95704 11.5197 4.91795 11.072C4.82528 10.0114 4.19517 9.21001 3.20924 8.89887C2.68737 8.73421 2.44222 8.7326 1.95508 8.89088ZM3.16006 9.76337C3.94368 10.1635 4.14701 10.475 4.15329 11.2848C4.15753 11.8341 4.05611 12.1474 3.7716 12.4634C3.42148 12.8525 3.13902 12.9695 2.57923 12.9575C1.72211 12.9391 1.1452 12.6523 0.941287 12.1432C0.790792 11.7675 0.692913 11.0694 0.753154 10.8015C0.858227 10.3344 1.21989 9.93854 1.78622 9.6709C2.28474 9.43528 2.55287 9.45336 3.16006 9.76337ZM29.7401 19.6894C29.4852 19.7327 28.5312 20.2318 28.279 20.4539C27.7756 20.8971 27.5156 21.7432 27.6378 22.5404C27.7253 23.1118 27.943 23.5282 28.3661 23.9341C28.838 24.3868 29.2767 24.5896 29.863 24.626C30.6884 24.6773 31.3302 24.4404 31.8551 23.8906C32.4007 23.3192 32.6152 22.5934 32.4907 21.74C32.3452 20.7424 31.6713 20.0315 30.617 19.7634C30.1929 19.6556 30.0233 19.6413 29.7401 19.6894ZM30.7484 20.5732C31.145 20.6729 31.4537 21.0193 31.6348 21.5676C31.9029 22.3791 31.8114 22.9036 31.3187 23.382C30.9628 23.7275 30.5989 23.8993 30.1548 23.9312C29.8214 23.9553 29.7612 23.9423 29.4356 23.7772C28.968 23.5401 28.5332 23.1254 28.4567 22.8433C28.3358 22.398 28.4291 21.5492 28.6316 21.2523C29.0244 20.6761 29.9619 20.3753 30.7484 20.5732ZM20.6828 31.9566L20.5321 32.0859L20.5157 33.2792C20.5042 34.1172 20.5184 34.5185 20.5635 34.6273C20.6678 34.8788 20.8633 34.9403 21.7035 34.9863C22.6879 35.04 22.8708 35.1278 23.0614 35.638C23.1412 35.8514 23.1528 36.3391 23.1719 40.248C23.1971 45.4167 23.1608 46.1658 22.8668 46.5391C22.7002 46.7507 22.1806 46.9051 21.5254 46.9377C20.9072 46.9686 20.6903 47.0434 20.6103 47.2535C20.5821 47.3277 20.559 47.9045 20.559 48.5352C20.559 49.67 20.5603 49.6834 20.6885 49.8323L20.8181 49.9828L24.8434 49.9973C27.4158 50.0064 28.9195 49.9924 29.0091 49.9583C29.0863 49.929 29.1987 49.826 29.2588 49.7294C29.3611 49.5651 29.3672 49.4821 29.3528 48.4446C29.3385 47.4169 29.3292 47.3243 29.2252 47.1842C29.0419 46.937 28.867 46.8866 28.0499 46.8452C27.0996 46.797 26.8944 46.7067 26.7811 46.2869C26.6958 45.9704 26.6943 36.0152 26.7795 35.7094C26.8608 35.4182 27.016 35.2288 27.2888 35.0885C27.4706 34.9949 27.6429 34.9678 28.2196 34.9425C29.3215 34.8939 29.3566 34.8448 29.3613 33.3407C29.3635 32.6089 29.3449 32.3139 29.288 32.1777C29.1351 31.8121 29.3262 31.8272 24.8599 31.8272H20.8334L20.6828 31.9566ZM23.324 32.5896C23.9299 32.5838 25.3179 32.5811 25.9549 32.5845C26.2207 32.586 26.7884 32.5791 27.2166 32.5692C28.1125 32.5486 28.3236 32.6085 28.4746 32.9263C28.5974 33.1849 28.6427 33.717 28.559 33.9188C28.4631 34.15 28.3366 34.2013 27.7535 34.2454C26.6129 34.3316 26.121 34.7162 26.0582 35.5706C26.0437 35.7684 25.9917 36.1907 25.9425 36.509C25.8585 37.0535 25.8588 37.1199 25.9472 37.6385C26.0337 38.1459 26.0346 38.2209 25.9578 38.5885C25.8513 39.0985 25.8526 39.4201 25.9631 39.934C26.0456 40.3177 26.0456 40.3778 25.9631 40.7934C25.8517 41.3539 25.8519 41.5622 25.964 42.0834C26.0488 42.4777 26.0483 42.5284 25.9552 43.0357C25.8668 43.5165 25.8639 43.6259 25.927 44.1019C25.9656 44.3935 25.981 44.75 25.9611 44.894C25.8524 45.6807 25.8572 45.8554 26.0016 46.3583C26.2919 47.3692 26.3895 47.4567 27.3599 47.5755C28.3609 47.6982 28.4541 47.7674 28.558 48.4664C28.6263 48.9265 28.5761 49.1265 28.3658 49.2312C28.2909 49.2685 27.1561 49.2862 24.9832 49.2842C21.9584 49.2813 21.6999 49.2739 21.5346 49.1859C21.3162 49.0696 21.2033 48.8202 21.2033 48.4542C21.2033 47.8222 21.4312 47.6451 22.409 47.517C23.4688 47.3782 23.5791 47.264 23.8614 46.0138C23.9873 45.4562 24.001 45.3129 23.9637 44.9411C23.94 44.7051 23.9231 44.3189 23.9262 44.0829C23.9335 43.5229 23.9356 42.544 23.9307 41.9375C23.9286 41.672 23.9356 41.2376 23.9463 40.9721C23.9569 40.7066 23.9446 40.2906 23.9188 40.0477C23.8861 39.7391 23.8931 39.4592 23.9419 39.1192C23.9994 38.7179 23.9992 38.5383 23.9406 38.0962C23.8824 37.6563 23.8819 37.4563 23.9383 36.9828C24.0023 36.4451 23.9995 36.3783 23.8976 36.0071C23.8374 35.7879 23.7588 35.4397 23.7228 35.2333C23.6704 34.9327 23.6238 34.8246 23.4886 34.6895C23.3006 34.5017 22.8155 34.3309 22.1965 34.2346C21.5943 34.141 21.576 34.1353 21.4439 34.0034C21.1861 33.7458 21.1241 32.9753 21.3418 32.7335C21.5112 32.5454 21.6318 32.5222 22.2502 32.5591C22.5751 32.5784 23.0583 32.5922 23.324 32.5896Z" fill="#0086FF"/>
<path d="M25.7488 3.75497C26.0157 3.80967 26.4938 3.84534 27.0556 3.85242C27.7805 3.86154 28.0049 3.88364 28.2904 3.97428C28.4824 4.03516 28.8206 4.10161 29.0421 4.12194C29.7093 4.18314 30.3595 4.30725 30.6232 4.4238C30.7601 4.4843 31.1545 4.58208 31.4997 4.64102C31.879 4.70587 32.2737 4.8125 32.4977 4.91076C32.7015 5.00011 33.1007 5.1305 33.3847 5.2005C33.717 5.2824 34.1022 5.43097 34.4649 5.61703C34.775 5.77606 35.1467 5.93493 35.2909 5.97C35.5898 6.04268 35.8905 6.18626 36.2292 6.41797C36.3579 6.50609 36.6794 6.67048 36.9436 6.78328C37.2079 6.89613 37.5857 7.10691 37.7834 7.25173C37.981 7.39655 38.316 7.60492 38.5277 7.71482C38.7394 7.82472 39.0535 8.04178 39.2257 8.19722C39.3978 8.35265 39.7199 8.59396 39.9414 8.73336C40.1628 8.87281 40.489 9.13621 40.6662 9.31863C40.8434 9.50109 41.1394 9.76471 41.324 9.90443C41.5085 10.0442 41.7738 10.3054 41.9134 10.4851C42.0531 10.6647 42.3206 10.932 42.5079 11.079C42.6952 11.2261 42.9252 11.4587 43.0191 11.5959C43.1129 11.7331 43.3622 12.0288 43.5731 12.2529C43.784 12.4769 44.0324 12.7947 44.1252 12.9589C44.2179 13.123 44.4405 13.423 44.6197 13.6254C44.799 13.8278 45.0181 14.1383 45.1067 14.3153C45.1952 14.4922 45.3977 14.8082 45.5567 15.0174C45.7157 15.2267 45.9303 15.5832 46.0337 15.8098C46.137 16.0363 46.3285 16.3778 46.4593 16.5686C46.5901 16.7594 46.7364 17.0304 46.7845 17.1708C46.8325 17.3112 47.0061 17.6883 47.17 18.0087C47.3341 18.3291 47.5147 18.7587 47.5714 18.9632C47.6282 19.1677 47.7582 19.5089 47.8604 19.7215C47.9717 19.9531 48.091 20.3319 48.1581 20.6671C48.2197 20.9747 48.3288 21.3657 48.4005 21.536C48.4723 21.7063 48.5679 22.0942 48.6131 22.3981C48.6583 22.702 48.7672 23.1596 48.8552 23.415C48.9835 23.7879 49.0151 23.9694 49.0151 24.3346C49.0151 24.6614 49.0491 24.8933 49.1357 25.1574C49.2422 25.482 49.2545 25.6157 49.2407 26.299C49.2322 26.7246 49.2537 27.2495 49.2886 27.4655C49.3388 27.7767 49.3374 27.9445 49.2817 28.2739C49.243 28.5025 49.2087 29.0878 49.2053 29.5745C49.2005 30.2756 49.1799 30.5097 49.106 30.7009C49.0542 30.8349 48.9777 31.2999 48.934 31.7468C48.8482 32.6236 48.7961 32.8635 48.5111 33.6912C48.407 33.9937 48.2954 34.3919 48.2632 34.5762C48.1725 35.0953 48.0135 35.5415 47.6178 36.3873C47.4173 36.8156 47.1753 37.407 47.08 37.7014C46.8601 38.3806 46.4706 39.1606 46.0092 39.8457C45.5984 40.4556 45.2471 41.0145 44.6999 41.9286C43.638 43.7025 41.7769 45.5626 38.9837 47.6414C38.2332 48.2 38.0503 48.3068 37.8846 48.2832C37.6708 48.2526 37.6157 48.0267 37.6898 47.4847C37.7424 47.1002 37.7418 46.8918 37.6867 46.4457C37.6307 45.9924 37.6307 45.7906 37.6863 45.3702C37.7422 44.9489 37.742 44.7481 37.6855 44.2906C37.6285 43.8292 37.6287 43.6333 37.6863 43.1979C37.744 42.7629 37.7442 42.5665 37.6873 42.1062C37.6309 41.6499 37.6308 41.4628 37.6865 41.1051C37.7334 40.8042 37.7409 40.5271 37.7102 40.2286C37.6856 39.9885 37.6681 39.599 37.6713 39.363C37.6775 38.9093 37.6815 37.9249 37.6799 37.231C37.6785 36.6232 37.6784 35.5401 37.6798 35.0319C37.6804 34.7885 37.6804 34.2878 37.6796 33.919C37.6789 33.5503 37.6788 33.0675 37.6796 32.8463C37.6803 32.6251 37.68 32.1544 37.679 31.8004C37.6768 31.016 37.6767 30.4978 37.6787 29.655C37.6796 29.301 37.6796 28.8062 37.6787 28.5555C37.6779 28.3047 37.678 27.8099 37.6789 27.4559C37.6798 27.1019 37.6801 26.6132 37.6795 26.3698C37.679 26.1264 37.6786 25.6256 37.6786 25.2569C37.6786 24.8881 37.6775 24.3994 37.6761 24.1708C37.6747 23.9422 37.6792 23.5137 37.686 23.2187C37.6927 22.9237 37.6974 22.3746 37.6962 21.9985C37.695 21.6224 37.6949 21.1276 37.6959 20.899C37.6969 20.6704 37.6891 20.2661 37.6786 20.0006C37.66 19.5295 37.6649 19.5063 37.8832 19.0352C38.1109 18.5437 38.3843 17.7411 38.3843 17.5643C38.3843 17.3922 38.6508 16.6376 38.9026 16.0971C39.1712 15.5203 39.1795 15.3495 38.9443 15.2424C38.8324 15.1915 38.7611 15.2018 38.5297 15.3023C37.2225 15.8699 36.5142 16.1476 36.1025 16.2539C34.0783 16.7765 34.5242 16.7235 32.2367 16.7131C31.4704 16.7096 30.8669 16.7085 29.6059 16.7082C29.1482 16.7081 28.5562 16.7079 28.2904 16.7078C26.5921 16.7072 26.0395 16.7077 25.6462 16.7098C25.4025 16.711 24.877 16.705 24.4784 16.6962C23.8107 16.6816 23.7049 16.6934 23.1361 16.8455C22.7965 16.9362 22.2891 17.053 22.0086 17.1048C20.7771 17.3327 20.1312 17.578 18.8393 18.3085C17.0441 19.3235 16.055 20.107 14.8434 21.4738C13.7628 22.6927 13.434 23.223 13.0132 24.4255C12.9048 24.7353 12.71 25.2346 12.5803 25.5351C12.2946 26.1972 12.2147 26.5437 12.2561 26.9406C12.2887 27.2534 12.2581 27.5496 12.1082 28.3725C12.0283 28.8109 12.0272 28.9119 12.0971 29.3767C12.1568 29.774 12.162 29.9836 12.1194 30.2837C12.0857 30.5213 12.0809 30.8735 12.1072 31.1836C12.1309 31.4638 12.1414 31.8983 12.1305 32.149C12.1196 32.3998 12.1129 32.8403 12.1154 33.1279C12.1181 33.4155 12.1202 33.8922 12.1202 34.1872C12.1202 34.4822 12.1203 34.9649 12.1205 35.2599C12.1207 35.7788 12.1207 36.2888 12.1204 37.4992C12.1203 37.8163 12.1196 38.3171 12.1188 38.6121C12.118 38.9071 12.1182 39.3898 12.1192 39.6848C12.1203 39.9798 12.1204 40.4746 12.1196 40.7843C12.1187 41.0941 12.1185 41.5889 12.1192 41.8839C12.1199 42.1789 12.1197 42.6616 12.1189 42.9566C12.1181 43.2516 12.1182 43.7283 12.1191 44.0159C12.1212 44.6776 12.1214 45.5233 12.1195 46.1613C12.1187 46.4341 12.1267 46.8909 12.1372 47.1762C12.1542 47.6368 12.1437 47.7121 12.0436 47.8467C11.8235 48.1429 11.5763 48.0737 10.9826 47.5494C10.78 47.3705 10.478 47.1476 10.3115 47.054C10.1449 46.9604 9.81542 46.6991 9.57918 46.4732C9.34294 46.2473 9.04329 45.9914 8.91325 45.9046C8.78327 45.8176 8.52958 45.5834 8.3495 45.3841C8.16947 45.1848 7.87643 44.9045 7.69828 44.7613C7.51804 44.6163 7.25898 44.3305 7.11407 44.1167C6.97093 43.9054 6.7377 43.6355 6.59585 43.5168C6.454 43.3982 6.2409 43.1477 6.12235 42.9602C6.0038 42.7727 5.76138 42.4556 5.58361 42.2555C5.4059 42.0555 5.1746 41.7286 5.06963 41.5291C4.96472 41.3297 4.78271 41.0449 4.66518 40.8964C4.44161 40.6138 4.31517 40.3923 4.13412 39.9662C4.07458 39.826 3.9062 39.53 3.75995 39.3085C3.61375 39.0869 3.44172 38.743 3.37772 38.5443C3.31372 38.3456 3.14465 37.9779 3.00205 37.7271C2.85741 37.4728 2.71641 37.1408 2.68323 36.9762C2.65048 36.814 2.5154 36.464 2.38299 36.1985C2.23116 35.894 2.10257 35.5323 2.03459 35.2187C1.97532 34.9452 1.84319 34.5195 1.74091 34.2727C1.61559 33.9704 1.53779 33.6731 1.50236 33.3616C1.47342 33.1073 1.39846 32.7848 1.33575 32.6448C1.26977 32.4976 1.19879 32.1758 1.16727 31.8809C1.13726 31.6006 1.06671 31.1157 1.01044 30.8032C0.952025 30.4788 0.908106 29.9913 0.908106 29.6668C0.908106 29.3318 0.87267 28.9485 0.821718 28.7331C0.753691 28.4453 0.74451 28.2539 0.778282 27.8314C0.801906 27.5364 0.824295 26.9451 0.828107 26.5173C0.833852 25.8668 0.858872 25.6431 0.981019 25.1496C1.06257 24.8202 1.14891 24.2702 1.17651 23.9043C1.21608 23.3794 1.26912 23.1121 1.4426 22.5623C1.56179 22.1848 1.68233 21.6952 1.71052 21.4746C1.78219 20.9132 1.93999 20.4387 2.33902 19.5852C2.5286 19.1797 2.76431 18.5996 2.86278 18.296C3.10739 17.5422 3.36876 16.9952 3.80339 16.3277C4.00548 16.0173 4.33385 15.4738 4.53315 15.1198C5.51956 13.3677 6.19252 12.4824 7.58311 11.1078C8.17404 10.5237 8.88592 9.85991 9.16506 9.63282C10.7164 8.37067 12.3076 7.23162 13.2905 6.67982C13.9903 6.28694 15.1905 5.7457 15.783 5.55578C16.4981 5.32659 17.5809 4.93725 18.1027 4.7218C18.7913 4.43737 19.3061 4.30157 19.861 4.2578C20.5534 4.2032 21.084 4.1117 21.6596 3.94752C22.1008 3.82174 22.2432 3.80849 23.2972 3.79562C23.9321 3.78785 24.5482 3.75888 24.6663 3.73121C24.9959 3.65408 25.2884 3.66051 25.7488 3.75497Z" fill="#0086FF"/>
<path d="M3.16006 9.76337C3.94368 10.1635 4.14701 10.475 4.15329 11.2848C4.15753 11.8341 4.05611 12.1474 3.7716 12.4634C3.42148 12.8525 3.13902 12.9695 2.57923 12.9575C1.72211 12.9391 1.1452 12.6523 0.941287 12.1432C0.790792 11.7675 0.692913 11.0694 0.753154 10.8015C0.858227 10.3344 1.21989 9.93854 1.78622 9.6709C2.28474 9.43528 2.55287 9.45336 3.16006 9.76337Z" fill="#0086FF"/>
<path d="M8.08577 4.69251C8.37613 4.83288 8.58998 5.08733 8.84012 5.58994C9.18278 6.27841 9.09811 6.78821 8.54252 7.38158C8.23191 7.71332 7.9546 7.87723 7.51283 7.99029C7.22194 8.06474 7.12153 8.06849 6.87821 8.0141C6.63305 7.95929 6.52916 7.89251 6.19424 7.57472C5.77658 7.17841 5.52552 6.77025 5.52552 6.48753C5.52552 6.26913 5.77137 5.54156 5.91929 5.32236C6.16031 4.96504 6.98462 4.58803 7.53538 4.58321C7.75348 4.58127 7.92717 4.61576 8.08577 4.69251Z" fill="#0086FF"/>
<path d="M13.9353 1.01221C14.7315 1.40396 14.9004 1.69006 14.8552 2.56978C14.8161 3.32996 14.5506 3.77138 13.9679 4.04497C13.271 4.3722 12.1868 4.15686 11.8316 3.62061C11.6314 3.31843 11.4314 2.67207 11.4327 2.33175C11.4353 1.67182 11.9682 1.04268 12.7355 0.793699C13.071 0.684819 13.387 0.74237 13.9353 1.01221Z" fill="#0086FF"/>
<path d="M30.7484 20.5732C31.145 20.6729 31.4537 21.0193 31.6348 21.5676C31.9029 22.3791 31.8114 22.9036 31.3187 23.382C30.9628 23.7275 30.5989 23.8993 30.1548 23.9312C29.8214 23.9553 29.7612 23.9423 29.4356 23.7772C28.968 23.5401 28.5332 23.1254 28.4567 22.8433C28.3358 22.398 28.4291 21.5492 28.6316 21.2523C29.0244 20.6761 29.9619 20.3753 30.7484 20.5732Z" fill="#0086FF"/>
<path d="M23.324 32.5896C23.9299 32.5838 25.3179 32.5811 25.9549 32.5845C26.2207 32.586 26.7884 32.5791 27.2166 32.5692C28.1125 32.5486 28.3236 32.6085 28.4746 32.9263C28.5974 33.1849 28.6427 33.717 28.559 33.9188C28.4631 34.15 28.3366 34.2013 27.7535 34.2454C26.6129 34.3316 26.121 34.7162 26.0582 35.5706C26.0437 35.7684 25.9917 36.1907 25.9425 36.509C25.8585 37.0535 25.8588 37.1199 25.9472 37.6385C26.0337 38.1459 26.0346 38.2209 25.9578 38.5885C25.8513 39.0985 25.8526 39.4201 25.9631 39.934C26.0456 40.3177 26.0456 40.3778 25.9631 40.7934C25.8517 41.3539 25.8519 41.5622 25.964 42.0834C26.0488 42.4777 26.0483 42.5284 25.9552 43.0357C25.8668 43.5165 25.8639 43.6259 25.927 44.1019C25.9656 44.3935 25.981 44.75 25.9611 44.894C25.8524 45.6807 25.8572 45.8554 26.0016 46.3583C26.2919 47.3692 26.3895 47.4567 27.3599 47.5755C28.3609 47.6982 28.4541 47.7674 28.558 48.4664C28.6263 48.9265 28.5761 49.1265 28.3658 49.2312C28.2909 49.2685 27.1561 49.2862 24.9832 49.2842C21.9584 49.2813 21.6999 49.2739 21.5346 49.1859C21.3162 49.0696 21.2033 48.8202 21.2033 48.4542C21.2033 47.8222 21.4312 47.6451 22.409 47.517C23.4688 47.3782 23.5791 47.264 23.8614 46.0138C23.9873 45.4562 24.001 45.3129 23.9637 44.9411C23.94 44.7051 23.9231 44.3189 23.9262 44.0829C23.9335 43.5229 23.9356 42.544 23.9307 41.9375C23.9286 41.672 23.9356 41.2376 23.9463 40.9721C23.9569 40.7066 23.9446 40.2906 23.9188 40.0477C23.8861 39.7391 23.8931 39.4592 23.9419 39.1192C23.9994 38.7179 23.9992 38.5383 23.9406 38.0962C23.8824 37.6563 23.8819 37.4563 23.9383 36.9828C24.0023 36.4451 23.9995 36.3783 23.8976 36.0071C23.8374 35.7879 23.7588 35.4397 23.7228 35.2333C23.6704 34.9327 23.6238 34.8246 23.4886 34.6895C23.3006 34.5017 22.8155 34.3309 22.1965 34.2346C21.5943 34.141 21.576 34.1353 21.4439 34.0034C21.1861 33.7458 21.1241 32.9753 21.3418 32.7335C21.5112 32.5454 21.6318 32.5222 22.2502 32.5591C22.5751 32.5784 23.0583 32.5922 23.324 32.5896Z" fill="#0086FF"/>
</svg>
