<svg width="50" height="50" viewBox="0 0 50 50" fill="none" xmlns="http://www.w3.org/2000/svg">
<path fill-rule="evenodd" clip-rule="evenodd" d="M43.4562 0.126615C43.2686 0.210932 43.0116 0.376538 42.8851 0.494563C42.7586 0.612587 42.5715 0.87228 42.4693 1.07159C42.2969 1.40779 42.2832 1.68839 42.2813 4.93084C42.2792 8.25937 42.2709 8.41755 42.1103 8.21941C42.0174 8.1049 41.7375 7.8583 41.488 7.6713C41.2241 7.47355 40.7657 7.2586 40.3917 7.15738C39.9442 7.03623 39.5669 6.99979 39.15 7.0376C38.7642 7.07267 38.3304 7.20057 37.9315 7.39705C37.5635 7.57819 37.1552 7.88038 36.9254 8.14134C36.7128 8.38306 36.4394 8.78813 36.3179 9.04157C36.1596 9.3719 36.0851 9.73751 36.0551 10.3328C36.0203 11.0247 36.0501 11.2611 36.2339 11.7495C36.3963 12.1812 36.6122 12.4937 37.0532 12.9351C37.4773 13.3597 37.8004 13.5873 38.1607 13.7153C38.4404 13.8146 38.6693 13.9282 38.6693 13.9674C38.6693 14.0068 38.5161 14.1922 38.3289 14.3795C38.1243 14.5841 37.8612 14.7383 37.6696 14.7659C37.4941 14.791 37.0677 14.8579 36.7219 14.9146C36.3761 14.9711 35.8618 15.1307 35.5792 15.269C35.2155 15.4469 34.7493 15.8513 33.9856 16.6512C33.0161 17.6667 32.8887 17.7685 32.7352 17.6493C32.6413 17.5763 32.0369 17.0494 31.3923 16.4785C30.7476 15.9075 30.0492 15.3244 29.8402 15.1827C29.5357 14.976 29.3457 14.9248 28.883 14.9248C28.5655 14.9248 28.1826 14.9885 28.032 15.0664C27.8815 15.1443 27.625 15.3598 27.4621 15.5454C27.2991 15.7311 27.1498 15.9297 27.1302 15.9868C27.1105 16.044 26.1346 16.6418 24.9615 17.3153C23.7885 17.9888 22.7988 18.5398 22.7622 18.5398C22.7256 18.5398 22.191 18.0292 21.574 17.4051C20.9571 16.781 20.197 16.1022 19.8848 15.8967C19.5727 15.6912 19.0452 15.4347 18.7126 15.3268C18.3801 15.2188 17.8993 15.1012 17.644 15.0654C17.2665 15.0125 17.1801 14.9639 17.1801 14.8045C17.1801 14.6968 17.3116 14.4588 17.4725 14.2755C17.6333 14.0923 17.8536 13.7685 17.962 13.5559C18.0704 13.3434 18.1926 12.916 18.2336 12.606C18.2746 12.2961 18.2792 11.8142 18.2438 11.535C18.2084 11.2559 18.0845 10.8311 17.9682 10.591C17.8521 10.351 17.5809 9.95441 17.3657 9.70986C17.1303 9.44245 16.7256 9.14269 16.3499 8.95774C15.9217 8.7469 15.5273 8.63435 15.0953 8.59966C14.6186 8.56137 14.2971 8.60005 13.7751 8.75863C13.2205 8.92716 12.9723 9.07274 12.51 9.50087C12.1148 9.86687 11.8462 10.2254 11.6516 10.6472C11.4075 11.176 11.3688 11.376 11.3724 12.0915C11.3756 12.7345 11.4256 13.0304 11.594 13.4026C11.7136 13.6671 11.968 14.0744 12.1594 14.308C12.3506 14.5415 12.6791 14.8308 12.8893 14.9508C13.0994 15.0709 13.2717 15.1994 13.2721 15.2364C13.2726 15.2734 13.0862 15.3258 12.8578 15.3529C12.6294 15.3799 12.0794 15.4475 11.6353 15.5032C11.1597 15.5628 10.613 15.7061 10.3046 15.8521C10.0167 15.9883 9.58878 16.2701 9.35367 16.4782C9.06396 16.7347 8.40678 17.6916 7.31454 19.4473L5.70284 22.038L3.35856 23.0396C2.06921 23.5905 0.866198 24.1506 0.6852 24.2843C0.504202 24.418 0.268602 24.7254 0.161449 24.9675C0.0186427 25.2904 -0.0216008 25.5472 0.0102424 25.9316C0.0429646 26.3264 0.125405 26.5442 0.344303 26.8147C0.504104 27.0123 0.749961 27.2598 0.89052 27.3648C1.03118 27.4698 1.36475 27.5767 1.6319 27.6024C2.05094 27.6427 2.47037 27.5318 4.69158 26.7936C6.10733 26.3231 7.43488 25.8531 7.64166 25.7493C7.84854 25.6454 8.20019 25.3913 8.42309 25.1846C8.64609 24.9777 9.35602 24.0594 10.0007 23.1437C10.6454 22.2281 11.1982 21.477 11.2292 21.4749C11.2603 21.4726 11.3503 21.8424 11.4295 22.2967L11.5735 23.1224L10.4174 24.8125C9.7815 25.742 9.09004 26.8543 8.88061 27.2842C8.67129 27.7141 8.42895 28.3296 8.34211 28.652C8.25537 28.9744 8.16092 29.6779 8.1323 30.2153C8.08639 31.0771 8.20214 32.1208 9.11377 39.0685C9.97608 45.6403 10.1472 47.1578 10.1472 48.2325C10.1472 49.4696 10.1567 49.5299 10.387 49.7601L10.6267 50H13.2685C15.78 50 15.9199 49.9903 16.1056 49.8046C16.2298 49.6803 16.3009 49.479 16.3009 49.2515C16.3009 48.9255 16.1971 48.7888 15.1281 47.7072L13.9552 46.5205L13.9804 40.1969L14.0055 33.8732C14.0055 33.9725 16.055 39.1585 17.5452 41.9135L20.2547 46.9224L20.3046 48.2746C20.3517 49.5478 20.3681 49.6376 20.5852 49.8134C20.7993 49.9867 21.0024 50 23.4315 50C25.8416 50 26.0649 49.9856 26.2728 49.8172C26.4344 49.6864 26.4986 49.5325 26.4986 49.2763C26.4986 48.9486 26.3943 48.8133 25.265 47.676L24.0315 46.4339L20.3496 37.5918C18.3246 32.7286 16.6258 28.6317 16.5747 28.4875C16.4934 28.2581 16.5449 28.1316 16.986 27.4777C17.2634 27.0665 17.7015 26.3052 17.9596 25.7859C18.2178 25.2665 18.5468 24.5119 18.6907 24.1089C18.8345 23.7058 19.0351 23.03 19.1363 22.607C19.2374 22.184 19.3347 21.8234 19.3525 21.8056C19.3703 21.7877 19.713 22.0373 20.1139 22.3601C20.5149 22.6829 21.0628 23.0649 21.3314 23.209C21.7505 23.4339 21.9375 23.4712 22.65 23.4724C23.3152 23.4735 23.5677 23.4303 23.9199 23.2553C24.1616 23.1351 25.3704 22.2471 26.606 21.2819L28.8526 19.5269L30.2085 20.9431C30.9811 21.7501 31.7376 22.4486 31.9667 22.5668C32.2454 22.7104 32.5492 22.7742 32.9551 22.7742C33.3608 22.7742 33.6614 22.7112 33.9319 22.5694C34.1468 22.4567 34.6677 22.0756 35.0896 21.7223C35.5115 21.3691 35.8877 21.0801 35.9258 21.0801C35.9639 21.0801 36.0535 21.308 36.1249 21.5867C36.1963 21.8653 37.1828 24.7107 37.3072 24.835C37.3201 24.8479 37.3263 24.8383 37.3271 24.8101C37.3351 24.5383 36.8405 22.5456 37.0044 22.5456C37.1716 22.5456 37.3874 22.46 37.4972 22.3502C37.6006 22.2467 38.1144 23.7448 38.1578 23.7714C38.1578 23.7714 38.1605 23.7712 38.1607 23.7678C38.1671 23.6737 37.7081 21.7469 37.6991 21.6663C37.6899 21.5857 37.4845 20.8822 37.2426 20.1031C36.9226 19.0727 36.7362 18.6265 36.5584 18.4665C36.4241 18.3456 36.2047 18.2467 36.071 18.2467C35.9371 18.2467 35.7162 18.3583 35.5799 18.4946C35.3843 18.6903 35.339 18.8204 35.3646 19.1127C35.3954 19.4645 35.3627 19.5121 34.7133 20.0637C34.3373 20.3831 33.9526 20.7038 33.8586 20.7764C33.6987 20.9 33.6877 20.8525 33.6882 20.0417L33.6886 19.1749L34.7164 18.0513C35.2816 17.4333 35.916 16.826 36.1261 16.7016C36.3628 16.5615 36.8393 16.4257 37.3788 16.3446C37.8577 16.2726 38.4212 16.1262 38.631 16.0191C38.8408 15.912 39.2332 15.589 39.5029 15.3014C39.7726 15.0136 40.5574 14.108 41.2469 13.2888L42.5007 11.7993L42.856 12.0812C43.0515 12.2361 43.2943 12.4549 43.3957 12.5673C43.5788 12.7702 43.5742 12.7782 42.7071 13.7749C42.227 14.3268 41.4895 15.174 41.0682 15.6576C40.6469 16.1412 40.2215 16.7128 40.1228 16.9277C39.9666 17.2681 39.9431 17.5911 39.9413 19.4312L39.9391 21.544L38.1578 23.7714L37.3271 24.8101L36.8134 25.4525C34.0222 28.9426 33.6877 29.3983 33.6877 29.7102C33.6877 29.9743 33.7488 30.1024 33.938 30.2351C34.0757 30.3316 34.3155 30.5118 34.4709 30.6355C34.6815 30.803 34.8162 31.0663 35.0001 31.6695C35.1358 32.1144 35.3559 32.6392 35.489 32.8354L35.731 33.1922L31.9244 41.1875C28.2912 48.8185 28.1228 49.197 28.2269 49.4958C28.2869 49.6679 28.4163 49.8518 28.5146 49.9044C28.6128 49.9569 29.1687 49.9996 29.7497 49.999C30.6521 49.9982 30.878 49.9646 31.2986 49.7687C31.5694 49.6426 31.9027 49.4066 32.0394 49.2441C32.176 49.0817 34.0414 45.7597 36.1846 41.8621C39.5445 35.7516 40.1042 34.7876 40.248 34.8646C40.3397 34.9137 40.5905 34.9538 40.8054 34.9538C41.0204 34.9538 41.309 34.9109 41.4468 34.8586C41.5846 34.8061 41.6973 34.7741 41.6973 34.7872C41.6973 34.8004 42.3128 37.8876 43.0651 41.6477C43.8173 45.4078 44.4776 48.6197 44.5322 48.7851C44.5867 48.9506 44.7734 49.2234 44.947 49.3914C45.1206 49.5595 45.426 49.7651 45.6258 49.8485C45.8255 49.9318 46.1456 50 46.3371 50C46.5285 50 46.848 49.932 47.047 49.8488C47.2461 49.7656 47.5126 49.6008 47.6395 49.4824C47.7663 49.3641 47.9537 49.1041 48.0559 48.9048C48.1582 48.7053 48.2422 48.3756 48.2427 48.172C48.2431 47.9683 47.8015 44.7128 47.2613 40.9376L46.279 34.0735L46.5132 33.7565C46.6419 33.5821 46.8876 33.189 47.0591 32.8829C47.2306 32.5768 47.446 32.3056 47.5378 32.2801C47.6295 32.2547 48.0122 32.2058 48.3883 32.1715C48.7644 32.1372 49.2148 32.0644 49.3892 32.0096C49.5637 31.9548 49.7724 31.8157 49.8532 31.7004C49.934 31.5851 50 31.3913 50 31.2698C50 31.1483 49.4705 29.8557 48.8233 28.3975C48.1761 26.9393 47.4913 25.5034 47.3015 25.2065C47.1116 24.9097 46.7315 24.429 46.4567 24.1385C46.1819 23.8478 45.6689 23.4196 45.3168 23.1867C44.9647 22.954 44.0612 22.4999 43.309 22.1778C42.5569 21.8556 41.8206 21.5358 41.6729 21.467L41.4043 21.3418V19.4549V17.568L43.5776 15.0726C45.1013 13.3232 45.8524 12.3806 46.0903 11.9191C46.4002 11.3181 46.4324 11.1762 46.4609 10.284C46.4782 9.74659 46.4098 7.52347 46.309 5.34373C46.1332 1.54125 46.1165 1.36402 45.8967 0.972914C45.7707 0.748687 45.4961 0.446298 45.2863 0.300916C45.0055 0.106195 44.759 0.0282288 44.3512 0.00487789C43.9959 -0.0154442 43.6751 0.0282288 43.4562 0.126615ZM44.5817 1.77104C44.6089 1.88555 44.7152 3.88122 44.8178 6.20576C44.938 8.93146 44.9723 10.5447 44.9144 10.7489C44.8649 10.9231 44.7736 11.1895 44.7115 11.3409L44.5985 11.6162L44.081 11.105C43.6642 10.6933 43.5815 10.5603 43.6561 10.4209C43.7103 10.3196 43.7486 8.48692 43.7486 5.99697C43.7486 1.81247 43.7517 1.74388 43.9503 1.60476C44.0612 1.52708 44.2375 1.48585 44.3421 1.51321C44.4466 1.54056 44.5544 1.65664 44.5817 1.77104ZM39.0811 9.457C39.4404 9.78138 39.9566 10.3791 40.2283 10.7854L40.7221 11.524L40.4188 11.9071C40.252 12.1177 40.0347 12.3334 39.936 12.3862C39.8373 12.4391 39.6548 12.482 39.5304 12.4817C39.406 12.4814 39.1382 12.4351 38.9353 12.3787C38.7323 12.3223 38.4114 12.1402 38.2221 11.9739C38.0328 11.8076 37.8155 11.5509 37.7392 11.4033C37.6628 11.2557 37.5731 10.9636 37.5396 10.7542C37.5061 10.5448 37.5257 10.1994 37.5832 9.98675C37.6407 9.77405 37.8239 9.43521 37.9902 9.23365C38.1567 9.03219 38.3232 8.86727 38.3603 8.86727C38.3975 8.86727 38.7218 9.13263 39.0811 9.457ZM16.6483 11.3594C16.7695 11.6769 16.7995 11.9424 16.7558 12.3113C16.7171 12.639 16.598 12.9606 16.4248 13.2057C16.2761 13.4162 15.9869 13.675 15.7822 13.7808C15.5774 13.8865 15.22 13.9946 14.988 14.0207C14.7558 14.0469 14.4031 14.0145 14.2041 13.9489C14.005 13.8831 13.6922 13.6976 13.5087 13.5366C13.3253 13.3755 13.1752 13.1796 13.1752 13.1014C13.1752 13.0231 13.4061 12.7147 13.6881 12.416C13.9701 12.1172 14.383 11.7472 14.6056 11.5938C14.8283 11.4403 15.2239 11.2281 15.4847 11.1222C15.7456 11.0163 16.0763 10.9273 16.2196 10.9244C16.4402 10.9198 16.5059 10.9864 16.6483 11.3594ZM15.6172 16.6516V17.7923L15.3637 17.5554C15.2243 17.4251 15.0485 17.1998 14.973 17.0547C14.8975 16.9095 14.8358 16.5285 14.8358 16.2079C14.8358 15.8331 14.8793 15.6075 14.9579 15.5757C15.0251 15.5487 15.2009 15.523 15.3486 15.5188L15.6172 15.511V16.6516ZM18.6303 16.9307C19.04 17.1183 19.5316 17.5358 20.6915 18.6815C21.6122 19.5909 22.3206 20.2124 22.4824 20.253C22.7 20.3076 22.9641 20.2009 23.8893 19.684L25.0284 19.0478L25.3933 19.5022C25.6553 19.8283 25.7302 19.9904 25.659 20.0766C25.6044 20.1427 25.0296 20.598 24.3815 21.0884L23.2031 21.98L22.6017 21.9417L22.0003 21.9034L20.5627 20.7598C19.7719 20.1307 19.0091 19.587 18.8674 19.5514C18.7112 19.5122 18.5117 19.5419 18.3602 19.6269C18.223 19.704 18.0808 19.8757 18.0445 20.0084C18.0082 20.1411 17.9045 20.7322 17.8142 21.3219C17.7239 21.9116 17.5174 22.7909 17.3554 23.2759C17.1933 23.7609 16.8415 24.5973 16.5735 25.1346C16.3054 25.6719 15.9022 26.3754 15.6774 26.6979L15.2685 27.2842L12.952 27.3104C11.678 27.3248 10.6356 27.3138 10.6356 27.2858C10.6356 27.258 11.1781 26.4328 11.8411 25.4522C12.5041 24.4715 13.0737 23.5935 13.1068 23.5008C13.14 23.4083 12.9999 22.4007 12.7957 21.2617C12.4534 19.3541 12.4033 19.1729 12.1594 18.9631C12.0137 18.8377 11.8062 18.7352 11.6981 18.7352C11.5902 18.7352 11.4223 18.7778 11.325 18.8299C11.2277 18.882 10.3892 19.9921 9.46141 21.2969C8.53366 22.6016 7.66002 23.7941 7.52015 23.9466C7.38018 24.0992 7.13559 24.2919 6.97647 24.375C6.81745 24.458 6.3147 24.652 5.85932 24.806C5.40385 24.9599 4.98237 25.0859 4.92259 25.0859C4.86271 25.0859 4.72117 24.8952 4.60806 24.6621L4.40225 24.2384L5.51169 23.7715C6.12188 23.5146 6.68383 23.2327 6.7605 23.1448C6.83718 23.0571 7.6359 21.8056 8.53542 20.3637C9.75904 18.4024 10.2668 17.6728 10.5516 17.4665C10.7609 17.3147 11.1402 17.1431 11.3944 17.085C11.6486 17.027 12.1788 16.9678 12.5726 16.9536L13.2886 16.9277L13.439 17.3674C13.5217 17.6092 13.7223 17.9923 13.8847 18.2187C14.0471 18.445 14.3385 18.7398 14.5323 18.8737C14.7261 19.0075 15.0421 19.1825 15.2345 19.2625C15.4269 19.3425 15.8095 19.4379 16.0847 19.4744C16.553 19.5366 16.6041 19.5217 16.8825 19.2433L17.1801 18.9457V17.7524V16.5592L17.6361 16.6217C17.887 16.6561 18.3343 16.7951 18.6303 16.9307ZM31.1236 18.2753L32.2225 19.2436L32.2176 20.0397L32.2128 20.8358L31.0386 19.5998L29.8644 18.3637L29.8403 17.773C29.8239 17.3748 29.8501 17.2028 29.9204 17.2447C29.9778 17.279 30.5193 17.7428 31.1236 18.2753ZM28.297 17.778C28.3227 18.0006 28.233 18.1159 27.7265 18.5108C27.3959 18.7685 27.0907 18.9924 27.0483 19.0082C27.0058 19.0239 26.8326 18.862 26.6634 18.6483L26.3557 18.2597L27.0181 17.8638C27.4647 17.5969 27.7759 17.4754 27.9735 17.491C28.2122 17.5096 28.2722 17.5629 28.297 17.778ZM42.4581 23.4649C43.2619 23.8093 44.106 24.2087 44.3337 24.3525C44.5614 24.4962 44.939 24.7903 45.1728 25.006C45.4068 25.2216 45.7494 25.6261 45.9343 25.9047C46.1193 26.1835 46.6901 27.3553 47.2027 28.5088L48.1346 30.6061L47.5648 30.7125C47.2513 30.7711 46.8468 30.9046 46.6659 31.0094C46.485 31.1141 46.2052 31.4006 46.044 31.6459C45.8829 31.8912 45.631 32.2964 45.4845 32.5463L45.2181 33.0007L44.7031 32.7932C44.4198 32.6791 43.9409 32.5164 43.6387 32.4316C43.1859 32.3046 43.0203 32.2983 42.6964 32.3954C42.4802 32.4601 42.0242 32.7027 41.6829 32.9344C41.3417 33.1662 41.0094 33.387 40.9444 33.4252C40.8716 33.4682 40.5733 33.2286 40.1632 32.7975C39.7984 32.414 39.3769 32.0367 39.2266 31.959C39.0762 31.8813 38.7684 31.8105 38.5426 31.8018C38.3169 31.7932 37.815 31.823 37.4274 31.8679C36.7423 31.9473 36.7201 31.9431 36.6279 31.7175C36.5758 31.5898 36.4386 31.1776 36.3231 30.8015C36.2076 30.4253 36.0037 29.9733 35.87 29.7971C35.7363 29.6209 35.6412 29.4422 35.6586 29.4001C35.6758 29.358 36.8534 27.8645 38.2751 26.0812C39.6968 24.2978 40.8907 22.8387 40.9282 22.8387C40.9657 22.8387 41.6541 23.1205 42.4581 23.4649ZM3.20989 25.2771L3.40711 25.6637L2.62793 25.9099C2.19941 26.0453 1.78525 26.1317 1.7077 26.102C1.63014 26.0722 1.54262 25.9852 1.51332 25.9088C1.48392 25.8323 1.48714 25.6989 1.52045 25.6122C1.55366 25.5254 1.84904 25.3309 2.17675 25.1798C2.50436 25.0286 2.82651 24.9017 2.89263 24.8977C2.95867 24.8937 3.10147 25.0645 3.20989 25.2771ZM38.681 33.4781C38.8969 33.6529 38.9016 33.68 38.7651 33.9594C38.6855 34.1223 37.2798 36.6975 35.6413 39.6822L32.6621 45.1089L32.2469 45.1119C32.0187 45.1135 31.8318 45.0811 31.8318 45.0398C31.8318 44.9985 33.0439 42.4156 34.5253 39.2998C36.0068 36.1841 37.2586 33.5939 37.3072 33.544C37.3558 33.494 37.5833 33.4225 37.8127 33.3852C38.0421 33.3479 38.2799 33.3118 38.341 33.3051C38.4022 33.2984 38.5552 33.3762 38.681 33.4781ZM44.0172 34.1888C44.4605 34.3605 44.823 34.5429 44.823 34.5942C44.823 34.6455 45.1527 36.9703 45.5556 39.7606C45.9586 42.5509 46.2882 44.919 46.2882 45.0231C46.2882 45.1853 46.218 45.2126 45.7998 45.2126C45.5312 45.2126 45.3114 45.2005 45.3114 45.1857C45.3114 45.171 44.8059 42.633 44.1881 39.5458C43.5703 36.4586 43.0648 33.9207 43.0648 33.906C43.0648 33.8912 43.0977 33.8785 43.1381 33.8778C43.1784 33.8772 43.5739 34.0172 44.0172 34.1888ZM31.4257 47.3865C31.2078 47.7761 30.9573 48.169 30.869 48.2596C30.7807 48.3503 30.5876 48.454 30.4399 48.49C30.2706 48.5314 30.1713 48.5161 30.1713 48.4488C30.1713 48.3901 30.3569 47.9676 30.5838 47.5101L30.9963 46.6781H31.4091H31.8219L31.4257 47.3865ZM46.6687 47.4258C46.767 48.087 46.761 48.1944 46.6166 48.354C46.5267 48.4533 46.3973 48.5345 46.3288 48.5345C46.2605 48.5345 46.1418 48.4717 46.0651 48.395C45.9884 48.3183 45.8729 47.9777 45.8083 47.6378C45.7439 47.298 45.6685 46.9431 45.6412 46.8491C45.5984 46.7025 45.6604 46.6781 46.0744 46.6781H46.5575L46.6687 47.4258Z" fill="#0086FF"/>
<path d="M46.6687 47.4258C46.767 48.087 46.761 48.1944 46.6166 48.354C46.5267 48.4533 46.3973 48.5345 46.3288 48.5345C46.2605 48.5345 46.1418 48.4717 46.0651 48.395C45.9884 48.3183 45.8729 47.9777 45.8083 47.6378C45.7439 47.298 45.6685 46.9431 45.6412 46.8491C45.5984 46.7025 45.6604 46.6781 46.0744 46.6781H46.5575L46.6687 47.4258Z" fill="#0086FF"/>
<path d="M31.4257 47.3865C31.2078 47.7761 30.9573 48.169 30.869 48.2596C30.7807 48.3503 30.5876 48.454 30.4399 48.49C30.2706 48.5314 30.1713 48.5161 30.1713 48.4488C30.1713 48.3901 30.3569 47.9676 30.5838 47.5101L30.9963 46.6781H31.4091H31.8219L31.4257 47.3865Z" fill="#0086FF"/>
<path d="M37.0044 22.5456C36.8405 22.5456 37.3351 24.5383 37.3271 24.8101L38.1578 23.7714C38.1144 23.7448 37.6006 22.2467 37.4972 22.3502C37.3874 22.46 37.1716 22.5456 37.0044 22.5456Z" fill="#0086FF"/>
<path d="M37.6991 21.6663C37.7081 21.7469 38.1671 23.6737 38.1607 23.7678L39.9391 21.544L39.9413 19.4312C39.9431 17.5911 39.9666 17.2681 40.1228 16.9277C40.2215 16.7128 40.6469 16.1412 41.0682 15.6576C41.4895 15.174 42.227 14.3268 42.7071 13.7749C43.5742 12.7782 43.5788 12.7702 43.3957 12.5673C43.2943 12.4549 43.0515 12.2361 42.856 12.0812L42.5007 11.7993L41.2469 13.2888C40.5574 14.108 39.7726 15.0136 39.5029 15.3014C39.2332 15.589 38.8408 15.912 38.631 16.0191C38.4212 16.1262 37.8577 16.2726 37.3788 16.3446C36.8393 16.4257 36.3628 16.5615 36.1261 16.7016C35.916 16.826 35.2816 17.4333 34.7164 18.0513L33.6886 19.1749L33.6882 20.0417C33.6877 20.8525 33.6987 20.9 33.8586 20.7764C33.9526 20.7038 34.3373 20.3831 34.7133 20.0637C35.3627 19.5121 35.3954 19.4645 35.3646 19.1127C35.339 18.8204 35.3843 18.6903 35.5799 18.4946C35.7162 18.3583 35.9371 18.2467 36.071 18.2467C36.2047 18.2467 36.4241 18.3456 36.5584 18.4665C36.7362 18.6265 36.9226 19.0727 37.2426 20.1031C37.4845 20.8822 37.6899 21.5857 37.6991 21.6663Z" fill="#0086FF"/>
</svg>
