<svg width="50" height="50" viewBox="0 0 50 50" fill="none" xmlns="http://www.w3.org/2000/svg">
<path fill-rule="evenodd" clip-rule="evenodd" d="M10.7663 3.13123C9.89462 3.41437 9.02861 4.20637 8.63147 5.08336C8.43014 5.52794 8.41852 5.69964 8.41852 8.21916C8.41852 9.68516 8.45636 11.0525 8.50267 11.2578L8.58673 11.631L5.44778 11.6601C2.32588 11.6891 2.30607 11.6907 1.82951 11.9391C1.17773 12.2789 0.450271 13.1146 0.191295 13.8212C-0.00687903 14.3617 -0.0167343 14.5431 0.0119423 17.1149L0.0421963 19.8366L0.316545 20.3681C0.682639 21.0772 1.27115 21.6597 1.94924 21.9842L2.50582 22.2506L5.53953 22.2812L8.57333 22.3116L8.49587 22.6835C8.4533 22.888 8.41852 24.1642 8.41852 25.5195C8.41852 26.8749 8.4533 28.1511 8.49587 28.3556L8.57333 28.7275L5.53953 28.7579C2.5069 28.7885 2.50562 28.7886 1.96382 29.0497C1.28692 29.376 0.673278 29.9799 0.316545 30.671L0.0421963 31.2025L0.0116476 33.8993C-0.0220548 36.8771 0.0212066 37.1826 0.590402 37.9847L0.881109 38.3943L0.590402 38.8038C0.0212066 39.6059 -0.0220548 39.9115 0.0116476 42.8892L0.0421963 45.586L0.30403 46.0923C0.668745 46.7974 1.29155 47.4189 1.94855 47.7334L2.50582 48H5.26508H8.02434L8.64773 47.655C9.33203 47.2763 9.82564 46.7537 10.1672 46.0463C10.382 45.6013 10.3894 45.4908 10.3894 42.7194C10.3894 41.1427 10.3532 39.7509 10.3089 39.6264L10.2283 39.4001H14.6802H19.132L19.0474 39.6767C19.0009 39.8288 18.9628 41.2207 18.9628 42.7696V45.586L19.2372 46.1175C19.6033 46.8266 20.1918 47.4092 20.8699 47.7337L21.4264 48H25.2204C28.9105 48 29.0271 47.994 29.4792 47.7808C30.1725 47.4539 30.8649 46.7398 31.1942 46.0119L31.478 45.3848V42.8199C31.478 41.4093 31.4441 40.0929 31.4027 39.8948C31.3614 39.6966 31.1732 39.2732 30.9848 38.9536L30.6421 38.3726L30.8419 38.0862C31.3989 37.2877 31.4682 36.9564 31.5095 34.8942C31.5309 33.8267 31.5871 32.9667 31.6345 32.9831C31.6819 32.9996 33.8095 35.9098 36.3625 39.4504C38.9155 42.9909 41.144 46.0366 41.3146 46.2186C41.4853 46.4005 41.8877 46.6834 42.2089 46.8472C42.6844 47.0896 42.9175 47.145 43.4633 47.145C44.4872 47.145 44.9582 46.906 47.0481 45.3249C49.3165 43.6088 49.2666 43.6552 49.675 42.8866C49.9725 42.3269 50.004 42.1887 49.9996 41.4621C49.9961 40.8658 49.9407 40.5351 49.7859 40.1853C49.491 39.5187 35.3667 19.9476 34.7259 19.3177C33.9839 18.5882 33.3055 18.3368 32.3021 18.4195L31.5494 18.4815L31.5092 16.3427C31.4663 14.0624 31.4075 13.7636 30.8419 12.9529L30.6421 12.6665L30.9848 12.0855C31.1732 11.7659 31.3614 11.3425 31.4027 11.1443C31.4441 10.9462 31.478 9.62984 31.478 8.21916V5.65427L31.1942 5.02723C30.8649 4.29931 30.1725 3.58517 29.4792 3.25827C29.0328 3.04785 28.8721 3.03789 25.434 3.00922C21.471 2.97613 21.2458 3.00248 20.3602 3.60116L19.8891 3.91971L19.6712 3.71059C19.5512 3.59563 19.232 3.39748 18.9616 3.27034C18.4798 3.04362 18.3984 3.03869 14.8239 3.01838C12.0175 3.00238 11.083 3.02833 10.7663 3.13123ZM18.8938 8.14452C18.8649 5.66011 18.8597 5.60458 18.6399 5.38028L18.4156 5.15135L14.7966 5.12832C10.8018 5.10287 10.7553 5.10931 10.5477 5.71724C10.4057 6.13305 10.4001 10.617 10.5411 10.9956C10.7432 11.5382 10.6935 11.5318 14.7008 11.5352C18.2757 11.5383 18.4284 11.5307 18.6155 11.3398C18.7225 11.2305 18.8355 11.0374 18.8667 10.9105C18.898 10.7835 18.9101 9.53891 18.8938 8.14452ZM29.4396 8.6233C29.4759 5.81671 29.4204 5.46065 28.9132 5.24429C28.6433 5.12923 27.9034 5.10227 25.1497 5.1074C23.2645 5.11092 21.6249 5.15377 21.5061 5.20265C20.9957 5.41247 20.9714 5.57059 21.003 8.46921C21.0323 11.1531 21.0324 11.1542 21.2649 11.3463C21.4847 11.5279 21.7027 11.5384 25.2141 11.5384H28.9307L29.1697 11.279C29.4067 11.0217 29.4088 11.0009 29.4396 8.6233ZM29.4086 14.2584L29.1622 14.0085L28.9159 13.7585L15.9572 13.7121C6.18854 13.6772 2.91429 13.6948 2.6562 13.7839C2.09193 13.9788 2.06542 14.1224 2.06385 16.9894L2.06237 19.5738L2.30016 19.8561L2.53804 20.1383L15.8053 20.1646C25.1346 20.183 29.1315 20.1586 29.2708 20.0825C29.4634 19.9774 29.4682 19.8927 29.4388 17.1164L29.4086 14.2584ZM40.6893 30.9511C36.6777 25.3913 33.3028 20.7632 33.1896 20.6664C33.0757 20.5691 32.8224 20.4904 32.6232 20.4904C32.2204 20.4904 32.1621 20.5277 29.8066 22.2956C28.4624 23.3045 28.2602 23.4932 28.1741 23.8197C28.0414 24.3229 28.1062 24.4622 29.129 25.8716C29.6108 26.5354 32.9044 31.0958 36.448 36.0058C42.4706 44.3504 42.9152 44.9396 43.2592 45.0342C43.4616 45.0898 43.7096 45.1039 43.8102 45.0655C44.0958 44.9564 47.3058 42.5317 47.664 42.1544C48.3374 41.4452 48.8156 42.2134 40.6893 30.9511ZM18.9136 22.8889L18.6255 22.5949L18.3375 22.3009H14.6892H11.041L10.7645 22.5436L10.488 22.7864V25.5195V28.2527L10.7645 28.4955L11.041 28.7382H14.6892H18.3375L18.6255 28.4442L18.9136 28.1502V25.5195V22.8889ZM26.2929 22.9579C26.4076 22.693 26.5015 22.437 26.5015 22.3887C26.5015 22.3404 25.2146 22.3009 23.6418 22.3009H20.7822L20.8579 22.5775C20.8996 22.7296 20.9337 24.0535 20.9337 25.5195C20.9337 26.9856 20.8996 28.3095 20.8579 28.4616L20.7822 28.7382H24.6766C26.8184 28.7382 28.571 28.7164 28.571 28.6896C28.571 28.663 28.1327 28.0379 27.597 27.3005C26.3105 25.5297 26.1824 25.264 26.128 24.2531C26.0918 23.5779 26.1198 23.3572 26.2929 22.9579ZM29.4406 34.3437C29.4765 31.6176 29.4233 31.2432 28.9662 31.002C28.7147 30.8692 27.0794 30.8513 15.7404 30.8568C8.50484 30.8604 2.70626 30.9024 2.58544 30.9521C2.07508 31.1619 2.05074 31.32 2.08237 34.2186C2.11105 36.8508 2.11588 36.9071 2.32972 37.0837C2.53065 37.2496 2.97036 37.2696 7.94678 37.3391C10.9162 37.3806 16.849 37.3823 21.1308 37.343L28.9159 37.2713L29.1622 37.026L29.4086 36.7807L29.4406 34.3437ZM8.36924 39.9944L8.12732 39.7476L7.88549 39.5007H5.23118C2.76539 39.5007 2.56041 39.5144 2.3443 39.6928L2.11164 39.885L2.08257 42.5989L2.0534 45.3127L2.29572 45.6003L2.53804 45.8877H5.21581H7.89357L8.13145 45.6055L8.36924 45.3233V42.6589V39.9944ZM29.4396 42.4158C29.4088 40.0382 29.4067 40.0174 29.1697 39.7601L28.9307 39.5007H25.2141C21.7026 39.5007 21.4847 39.5112 21.2649 39.6928L21.0323 39.885L21.0032 42.5989L20.974 45.3127L21.2163 45.6003L21.4585 45.8877L25.0621 45.9165C29.1722 45.9492 29.1705 45.9495 29.3621 45.2236C29.4314 44.961 29.4593 43.9451 29.4396 42.4158Z" fill="white"/>
</svg>
