<svg width="32" height="32" fill="none" xmlns="http://www.w3.org/2000/svg"><g clip-path="url(#a)"><path d="M28.785 26.892a3.18 3.18 0 0 0 3.176-3.183 3.18 3.18 0 0 0-3.176-3.182 3.18 3.18 0 0 0-3.177 3.182 3.18 3.18 0 0 0 3.177 3.183z" fill="#0086FF"/><path d="M23.663 32.023a3.18 3.18 0 0 0 3.176-3.183 3.18 3.18 0 0 0-3.176-3.182 3.18 3.18 0 0 0-3.176 3.182 3.18 3.18 0 0 0 3.176 3.183z" fill="#0069B7"/><path d="M28.785 16.629a3.18 3.18 0 0 0 3.176-3.183 3.18 3.18 0 0 0-3.176-3.182 3.18 3.18 0 0 0-3.177 3.182 3.18 3.18 0 0 0 3.177 3.183z" fill="#57BFFF"/><path d="M23.663 21.76a3.18 3.18 0 0 0 3.176-3.183 3.18 3.18 0 0 0-3.176-3.182 3.18 3.18 0 0 0-3.176 3.182 3.18 3.18 0 0 0 3.176 3.183z" fill="#0086FF"/><path d="M18.541 26.892a3.18 3.18 0 0 0 3.176-3.183 3.18 3.18 0 0 0-3.176-3.182 3.18 3.18 0 0 0-3.176 3.182 3.18 3.18 0 0 0 3.176 3.183z" fill="#0069B7"/><path d="M28.785 6.365a3.18 3.18 0 0 0 3.176-3.182A3.18 3.18 0 0 0 28.785 0a3.18 3.18 0 0 0-3.177 3.183 3.18 3.18 0 0 0 3.177 3.182z" fill="#BBE2FF"/><path d="M23.663 11.497a3.18 3.18 0 0 0 3.176-3.183 3.18 3.18 0 0 0-3.176-3.182 3.18 3.18 0 0 0-3.176 3.182 3.18 3.18 0 0 0 3.176 3.183z" fill="#57BFFF"/><path d="M18.541 16.629a3.18 3.18 0 0 0 3.176-3.183 3.18 3.18 0 0 0-3.176-3.182 3.18 3.18 0 0 0-3.176 3.182 3.18 3.18 0 0 0 3.176 3.183z" fill="#0086FF"/><path d="M13.42 21.76a3.18 3.18 0 0 0 3.176-3.183 3.18 3.18 0 0 0-3.176-3.182 3.18 3.18 0 0 0-3.176 3.182 3.18 3.18 0 0 0 3.176 3.183z" fill="#0069B7"/><path d="M18.541 6.365a3.18 3.18 0 0 0 3.176-3.182A3.18 3.18 0 0 0 18.541 0a3.18 3.18 0 0 0-3.176 3.183 3.18 3.18 0 0 0 3.176 3.182z" fill="#57BFFF"/><path d="M13.42 11.497a3.18 3.18 0 0 0 3.176-3.183 3.18 3.18 0 0 0-3.176-3.182 3.18 3.18 0 0 0-3.176 3.182 3.18 3.18 0 0 0 3.176 3.183z" fill="#0086FF"/><path d="M8.298 16.629a3.18 3.18 0 0 0 3.177-3.183 3.18 3.18 0 0 0-3.177-3.182 3.18 3.18 0 0 0-3.176 3.182 3.18 3.18 0 0 0 3.176 3.183z" fill="#0069B7"/><path d="M8.298 6.365a3.18 3.18 0 0 0 3.177-3.182A3.18 3.18 0 0 0 8.298 0a3.18 3.18 0 0 0-3.176 3.183 3.18 3.18 0 0 0 3.176 3.182z" fill="#0086FF"/><path d="M3.176 11.497a3.18 3.18 0 0 0 3.177-3.183 3.18 3.18 0 0 0-3.177-3.182A3.18 3.18 0 0 0 0 8.314a3.18 3.18 0 0 0 3.176 3.183z" fill="#0069B7"/></g><defs><clipPath id="a"><path fill="#fff" d="M0 0h32v32H0z"/></clipPath></defs></svg>