<svg width="50" height="50" fill="none" xmlns="http://www.w3.org/2000/svg"><path d="M28.819 3.08C27.69.886 27.716.77 29.383.446c.959-.186 2.794-.384 4.079-.44 1.284-.056 3.735.288 5.446.766 1.827.51 4.444 2.21 6.342 4.12 2.09 2.1 3.563 4.488 4.17 6.752.515 1.926.727 5.04.471 6.92s-1.412 5.168-2.57 7.307c-1.157 2.14-3.404 4.925-4.993 6.19-1.589 1.265-4.365 2.825-6.17 3.465-1.804.641-4.807 1.165-6.67 1.165-1.864 0-4.818-.575-6.564-1.278-3.166-1.274-3.18-1.272-5.464.93-1.26 1.214-2.29 2.571-2.29 3.017 0 .447-2.18 3.023-4.842 5.726C6.728 48.739 4.938 50 3.35 50c-1.315 0-2.446-.582-2.942-1.515-.498-.936-.543-2.205-.118-3.327.378-.997 2.634-3.662 5.012-5.923 2.38-2.26 4.807-4.11 5.395-4.11.587 0 2.049-1.03 3.247-2.288l2.18-2.287-1.351-3.558c-.944-2.484-1.248-4.985-1.01-8.292.187-2.605.718-5.116 1.18-5.58.599-.603 1.362-.57 2.673.118 1.009.528 1.932 1.041 2.051 1.138.12.097-.17 1.195-.64 2.438-.472 1.245-.639 3.741-.37 5.552.299 2.012 1.322 4.187 2.635 5.6 1.18 1.27 3.539 2.73 5.242 3.243 2.358.71 3.89.719 6.419.034 1.826-.495 4.756-2.202 6.51-3.793 1.753-1.592 3.66-4.028 4.236-5.413.577-1.386 1.047-4.028 1.046-5.872-.002-1.942-.642-4.406-1.523-5.858-.835-1.38-2.568-3.053-3.85-3.72-1.282-.666-3.915-1.212-5.852-1.212-3.107 0-3.66-.27-4.701-2.295Z" fill="#0086FF"/><path d="m17.272 9.196 3.392-3.476c1.865-1.912 3.6-3.476 3.853-3.476.254 0 1.208 1.546 2.121 3.436l1.66 3.435-1.908 1.802-1.907 1.803-3.605-1.762-3.606-1.762Z" fill="#0086FF"/><path d="M28.457 13.538c-.976 1.044-1.542 2.277-1.258 2.74.284.462 1.51.84 2.723.84 1.288 0 2.4-.511 2.675-1.23.258-.677.109-1.91-.333-2.74-.442-.831-1.08-1.51-1.419-1.51-.338 0-1.413.855-2.388 1.9Z" fill="#0069B7"/></svg>