<svg width="50" height="50" fill="none" xmlns="http://www.w3.org/2000/svg"><path d="M19.556 15.45c3.349-3.07 7.235-7.625 8.637-10.12 1.401-2.498 2.905-4.54 3.34-4.54.436 0 2.68.961 4.986 2.136 2.306 1.174 4.193 2.611 4.193 3.194 0 .582-4.751 5.822-10.559 11.644-8.993 9.014-10.777 10.447-12.031 9.654-.81-.512-2.188-2.157-3.063-3.657l-1.59-2.728 6.087-5.584ZM0 26.523l4.525-1.742c2.489-.958 4.774-1.784 5.08-1.836.304-.052 1.954 1.863 3.664 4.257l3.112 4.351-4.912 4.988c-2.702 2.743-5.26 4.871-5.686 4.729-.426-.143-1.704-2.044-2.841-4.226-1.137-2.18-2.264-5.44-2.505-7.243L0 26.523Zm37.837 5.721c2.662-2.89 6.202-5.977 7.868-6.862 1.666-.884 3.314-1.625 3.662-1.646.348-.02.633 1.038.633 2.354s-.57 4.274-1.268 6.575c-.698 2.302-1.933 5.04-2.744 6.085-1.38 1.776-1.803 1.847-6.48 1.08-2.752-.45-5.342-1.16-5.757-1.576-.442-.444 1.248-2.93 4.086-6.01Zm-9.789 16.512c0-.684.64-2.593 1.422-4.242.783-1.65 1.448-2.982 1.478-2.963.03.02 2.017.497 4.415 1.06 2.398.565 4.46 1.408 4.58 1.874.121.467-1.814 1.899-4.3 3.182C33.157 48.95 30.43 50 29.585 50c-.846 0-1.537-.56-1.537-1.244Z" fill="#0086FF"/><path d="M17.071 1.273c-2.09.666-4.686 1.906-5.77 2.756-1.88 1.473-1.928 1.775-1.053 6.538.506 2.746 1.27 5.346 1.698 5.776.476.477 2.654-.993 5.597-3.78 2.649-2.508 5.716-5.985 6.817-7.725 1.099-1.74 1.999-3.554 1.999-4.03 0-.476-1.235-.839-2.744-.806-1.509.032-4.454.604-6.544 1.271ZM4.534 10.395c-.5.604-1.674 2.795-2.61 4.869C.987 17.336.213 19.7.203 20.517c-.01.816.538 1.485 1.219 1.485.68 0 2.592-.65 4.247-1.442 1.915-.918 2.846-1.87 2.56-2.62-.248-.647-.689-2.679-.981-4.516-.293-1.836-.819-3.516-1.169-3.734-.35-.218-1.047.099-1.546.705Zm28.174 9.51c-9.308 9.02-10.82 10.842-10.042 12.086.504.805 2.097 2.16 3.541 3.01l2.624 1.545 6.996-7.164c4.404-4.51 8.169-7.581 10.163-8.29 1.741-.62 3.166-1.636 3.166-2.258 0-.622-.957-3.027-2.125-5.344-1.169-2.318-2.404-4.213-2.745-4.21-.34.002-5.55 4.784-11.578 10.625ZM13.272 39.02l-5.066 5.091 2.11 1.647c1.162.906 3.794 2.231 5.85 2.945 2.057.713 4.568 1.297 5.58 1.297 1.47 0 2.207-.987 3.649-4.879l1.807-4.878-1.899-1.448a984.536 984.536 0 0 1-4.143-3.182c-1.235-.953-2.375-1.722-2.533-1.708-.16.014-2.569 2.316-5.355 5.115Z" fill="#0069B7"/></svg>