<svg width="19" height="18" fill="none" xmlns="http://www.w3.org/2000/svg"><path d="M5.7 10.421c.525 0 .95-.424.95-.947a.949.949 0 0 0-.95-.948.949.949 0 0 0-.95.948c0 .523.425.947.95.947Zm4.75-.947a.949.949 0 0 1-.95.947.949.949 0 0 1-.95-.947c0-.524.425-.948.95-.948.525 0 .95.424.95.948Zm2.85.947c.525 0 .95-.424.95-.947a.949.949 0 0 0-.95-.948.949.949 0 0 0-.95.948c0 .523.425.947.95.947Zm-6.65 2.842a.949.949 0 0 1-.95.947.949.949 0 0 1-.95-.947c0-.523.425-.947.95-.947.525 0 .95.424.95.947Zm2.85.947c.525 0 .95-.424.95-.947a.949.949 0 0 0-.95-.947.949.949 0 0 0-.95.947c0 .523.425.947.95.947Z" fill="#fff"/><path fill-rule="evenodd" clip-rule="evenodd" d="M5.7.947A.949.949 0 0 0 4.75 0a.949.949 0 0 0-.95.947H1.9C.85.947 0 1.796 0 2.842v13.263C0 17.152.85 18 1.9 18h15.2c1.05 0 1.9-.848 1.9-1.895V2.842c0-1.046-.85-1.895-1.9-1.895h-1.9A.949.949 0 0 0 14.25 0a.949.949 0 0 0-.95.947H5.7Zm-3.8 3.79V2.842h15.2v1.895H1.9Zm0 1.895v9.473h9.663l5.537-5.521V6.632H1.9Zm15.2 6.631-2.85 2.842h2.85v-2.842Z" fill="#fff"/></svg>