<svg width="22" height="19" fill="none" xmlns="http://www.w3.org/2000/svg"><path fill-rule="evenodd" clip-rule="evenodd" d="M8.119.062a.819.819 0 0 0-.237.196c-.073.098-.091.195-.103.56l-.015.44H6.081c-1.516 0-1.697.008-1.832.075a.766.766 0 0 0-.247.217c-.095.14-.098.172-.098 1.194v1.05H22l-.013-1.075c-.012-1.01-.018-1.081-.102-1.193a.79.79 0 0 0-.236-.193c-.133-.067-.313-.074-1.834-.074h-1.687V.868c0-.289-.02-.43-.075-.536a.782.782 0 0 0-.196-.233c-.09-.064-.186-.087-.373-.087s-.283.023-.373.087a.783.783 0 0 0-.197.233c-.055.107-.075.247-.075.536v.39h-3.266v-.39c0-.289-.02-.43-.075-.536a.783.783 0 0 0-.196-.233c-.09-.064-.187-.087-.373-.087-.187 0-.283.023-.373.087a.783.783 0 0 0-.197.233c-.055.107-.075.247-.075.536v.39H9.061v-.39c0-.289-.02-.43-.075-.536a.765.765 0 0 0-.19-.228.773.773 0 0 0-.323-.1.613.613 0 0 0-.354.058ZM3.847 5.543c-.016.265-.059.717-.096 1.004-.038.287-.125.8-.193 1.138-.07.34-.205.881-.3 1.205-.097.323-.274.835-.394 1.137-.12.302-.342.793-.493 1.09a15.7 15.7 0 0 1-.55.983c-.15.242-.416.626-.589.853a11.91 11.91 0 0 1-.752.864c-.334.345-.445.488-.467.604a.873.873 0 0 0-.003.28.76.76 0 0 0 .112.247.706.706 0 0 0 .232.187c.134.062.898.068 8.707.068 7.763 0 8.574-.006 8.705-.067.08-.038.326-.253.547-.48a11.682 11.682 0 0 0 1.355-1.719c.118-.188.312-.512.43-.722.118-.209.322-.61.454-.893.13-.282.327-.754.436-1.049.108-.295.264-.765.346-1.046a18.793 18.793 0 0 0 .509-2.475c.036-.29.077-.718.09-.95.013-.233.032-.495.044-.582l.02-.158H3.875l-.028.481Zm17.899 6.27c-.126.28-.355.733-.51 1.009a17.64 17.64 0 0 1-.64 1.029c-.195.29-.52.728-.719.972-.2.244-.568.64-.819.879-.334.318-.527.468-.725.559a2.613 2.613 0 0 1-.5.167c-.152.028-2.602.043-7.082.043H3.9l.012 1.074c.012 1.01.018 1.082.102 1.194a.792.792 0 0 0 .236.193c.14.07.625.074 8.742.064l8.595-.01.134-.095a.74.74 0 0 0 .204-.24c.064-.13.07-.491.06-3.745l-.012-3.6-.228.507Z" fill="#fff"/></svg>