<svg width="19" height="18" viewBox="0 0 19 18" fill="none" xmlns="http://www.w3.org/2000/svg">
<path d="M5.7 10.4211C6.22467 10.4211 6.65 9.9969 6.65 9.47368C6.65 8.95047 6.22467 8.52632 5.7 8.52632C5.17533 8.52632 4.75 8.95047 4.75 9.47368C4.75 9.9969 5.17533 10.4211 5.7 10.4211Z" fill="white"/>
<path d="M10.45 9.47368C10.45 9.9969 10.0247 10.4211 9.5 10.4211C8.97533 10.4211 8.55 9.9969 8.55 9.47368C8.55 8.95047 8.97533 8.52632 9.5 8.52632C10.0247 8.52632 10.45 8.95047 10.45 9.47368Z" fill="white"/>
<path d="M13.3 10.4211C13.8247 10.4211 14.25 9.9969 14.25 9.47368C14.25 8.95047 13.8247 8.52632 13.3 8.52632C12.7753 8.52632 12.35 8.95047 12.35 9.47368C12.35 9.9969 12.7753 10.4211 13.3 10.4211Z" fill="white"/>
<path d="M6.65 13.2632C6.65 13.7864 6.22467 14.2105 5.7 14.2105C5.17533 14.2105 4.75 13.7864 4.75 13.2632C4.75 12.7399 5.17533 12.3158 5.7 12.3158C6.22467 12.3158 6.65 12.7399 6.65 13.2632Z" fill="white"/>
<path d="M9.5 14.2105C10.0247 14.2105 10.45 13.7864 10.45 13.2632C10.45 12.7399 10.0247 12.3158 9.5 12.3158C8.97533 12.3158 8.55 12.7399 8.55 13.2632C8.55 13.7864 8.97533 14.2105 9.5 14.2105Z" fill="white"/>
<path fill-rule="evenodd" clip-rule="evenodd" d="M5.7 0.947368C5.7 0.424151 5.27467 0 4.75 0C4.22533 0 3.8 0.424151 3.8 0.947368H1.9C0.850659 0.947368 0 1.79567 0 2.84211V16.1053C0 17.1517 0.850659 18 1.9 18H17.1C18.1493 18 19 17.1517 19 16.1053V2.84211C19 1.79567 18.1493 0.947368 17.1 0.947368H15.2C15.2 0.424151 14.7747 0 14.25 0C13.7253 0 13.3 0.424151 13.3 0.947368H5.7ZM1.9 4.73684V2.84211H17.1V4.73684H1.9ZM1.9 6.63158V16.1053H11.563L17.1 10.5836V6.63158H1.9ZM17.1 13.2632L14.25 16.1053H17.1V13.2632Z" fill="white"/>
</svg>
