<svg width="50" height="50" fill="none" xmlns="http://www.w3.org/2000/svg"><path fill-rule="evenodd" clip-rule="evenodd" d="M10.6 22.019c.3.147.73.484 1.014.794.369.403.541.698.69 1.177.108.352.197.807.197 1.01 0 .203-.089.658-.197 1.01-.149.48-.321.774-.69 1.177a3.914 3.914 0 0 1-1.048.811c-.475.233-.676.272-1.386.273-.694 0-.92-.042-1.381-.258a4.079 4.079 0 0 1-.962-.67 3.908 3.908 0 0 1-.657-.948 3.924 3.924 0 0 1-.295-1.144c-.033-.402.004-.79.109-1.15a4.23 4.23 0 0 1 .481-1.012c.178-.259.535-.616.793-.793a4.3 4.3 0 0 1 .922-.47c.3-.096.697-.131 1.17-.104.513.03.868.115 1.24.297Zm-2.86 2.425c.12-.11.286-.226.366-.258.08-.032.623-.049 1.205-.037 1.028.02 1.066.029 1.294.295.132.153.236.399.236.556 0 .157-.104.403-.236.556-.234.272-.245.274-1.408.274-1.107 0-1.187-.013-1.425-.237A.727.727 0 0 1 7.52 25c0-.245.069-.419.22-.556Zm34.475-2.447c.298.137.727.433.953.66.226.225.527.658.669.961.216.461.259.688.259 1.382s-.043.92-.259 1.382a4.075 4.075 0 0 1-.67.962 4.08 4.08 0 0 1-.961.669c-.462.216-.688.258-1.382.258-.71 0-.91-.04-1.386-.273-.334-.164-.752-.487-1.048-.81-.368-.404-.541-.699-.69-1.178-.108-.352-.197-.807-.197-1.01 0-.203.089-.656.197-1.006a2.81 2.81 0 0 1 .639-1.128c.243-.27.603-.591.8-.713.196-.121.557-.277.801-.346.244-.07.734-.11 1.088-.092.424.023.83.12 1.187.282Zm-2.895 2.53c.087-.124.252-.265.367-.313.115-.05.678-.079 1.251-.066.953.02 1.064.042 1.294.259.182.17.252.336.252.593 0 .257-.07.423-.252.593-.238.224-.318.237-1.425.237-1.163 0-1.174-.002-1.408-.274-.13-.15-.236-.393-.236-.54 0-.146.071-.366.158-.49Z" fill="#fff"/><path d="M16.603 48.344 2.154 48.29l-.445-.445-.052-14.448h14.946v14.946Zm0-31.742H1.66l.002-7.105c0-5.502.029-7.159.124-7.347a.972.972 0 0 1 .365-.364c.187-.095 1.844-.123 7.347-.124l7.105-.002v14.942Zm15.04 15.038H18.361V18.36h13.282v13.28ZM48.295 2.154l.053 14.448H33.4V1.656l14.45.053.444.445Zm0 45.692-.445.445-14.449.053V33.398h14.947l-.053 14.448Z" fill="#fff"/><path fill-rule="evenodd" clip-rule="evenodd" d="M1.389.252C1.11.39.766.642.622.813c-.144.17-.342.486-.44.7-.17.375-.178 1.347-.18 23.492L0 48.106l.252.505c.138.278.39.623.561.767.17.144.486.342.7.44.375.17 1.348.178 23.494.18L48.11 50l.505-.252c.278-.138.623-.39.767-.561.144-.17.342-.486.44-.7.17-.375.178-1.345.178-23.487s-.007-23.112-.178-23.486a3.66 3.66 0 0 0-.44-.7c-.144-.171-.489-.424-.767-.562L48.11 0H1.894l-.505.252Zm15.214 16.35H1.66l.002-7.105c0-5.502.029-7.159.124-7.347a.972.972 0 0 1 .365-.364c.187-.095 1.844-.123 7.347-.124l7.105-.002v14.942Zm15.04.097H18.361V1.66h13.282V16.7ZM48.295 2.154l.053 14.448H33.4V1.656l14.45.053.444.445ZM16.701 31.64H1.66V18.359H16.7v13.282Zm14.942 0H18.361V18.359h13.282v13.282Zm16.701 0h-15.04V18.359h15.04v13.282ZM7.754 20.204a5.584 5.584 0 0 0-1.068.447c-.26.152-.669.457-.91.677-.24.22-.606.661-.812.98a5.833 5.833 0 0 0-.57 1.206c-.132.424-.194.906-.194 1.486s.062 1.062.193 1.486c.107.345.364.888.57 1.207.207.318.573.759.814.979.24.22.649.524.907.675.259.152.76.356 1.115.455.365.1.964.178 1.38.177.403 0 .97-.064 1.258-.14a6.81 6.81 0 0 0 1.072-.414c.301-.151.817-.538 1.147-.86.356-.349.724-.834.907-1.196.17-.335.373-.861.453-1.168A5.76 5.76 0 0 0 14.161 25a5.76 5.76 0 0 0-.145-1.2 7.186 7.186 0 0 0-.453-1.169c-.183-.362-.55-.847-.907-1.195-.33-.323-.846-.71-1.147-.86a6.828 6.828 0 0 0-1.072-.415c-.288-.076-.876-.137-1.305-.133-.433.003-1.047.082-1.378.176Zm31.8-.045c-.242.067-.702.25-1.023.406-.324.158-.85.545-1.183.87-.356.348-.724.834-.907 1.196a7.186 7.186 0 0 0-.453 1.168A5.76 5.76 0 0 0 35.843 25c0 .353.065.894.145 1.2.08.308.283.83.45 1.163.168.332.556.854.862 1.16.31.31.835.698 1.186.875a7.22 7.22 0 0 0 1.117.45c.269.071.82.13 1.225.131.405.001.995-.066 1.31-.148.317-.083.795-.27 1.063-.415.269-.146.708-.463.977-.705.27-.242.659-.7.864-1.018.206-.319.462-.862.569-1.207.13-.424.194-.906.194-1.486s-.063-1.062-.194-1.486a5.873 5.873 0 0 0-.569-1.207 6.094 6.094 0 0 0-.864-1.018 6.276 6.276 0 0 0-.977-.705 5.677 5.677 0 0 0-1.062-.415c-.316-.082-.928-.146-1.36-.14-.432.004-.983.063-1.225.13ZM10.6 22.02c.3.147.73.484 1.014.794.369.403.541.698.69 1.177.108.352.197.807.197 1.01 0 .203-.089.658-.197 1.01-.149.48-.321.774-.69 1.177a3.914 3.914 0 0 1-1.048.811c-.475.233-.676.272-1.386.273-.694 0-.92-.042-1.381-.258a4.079 4.079 0 0 1-.962-.67 3.908 3.908 0 0 1-.657-.948 3.924 3.924 0 0 1-.295-1.144c-.033-.402.004-.79.109-1.15a4.23 4.23 0 0 1 .481-1.012c.178-.259.535-.616.793-.793a4.3 4.3 0 0 1 .922-.47c.3-.096.697-.131 1.17-.104.513.03.868.115 1.24.297Zm31.615-.022c.298.137.727.433.953.66.226.225.527.658.669.961.216.461.259.688.259 1.382s-.043.92-.259 1.382a4.075 4.075 0 0 1-.67.962 4.08 4.08 0 0 1-.961.669c-.462.216-.688.258-1.382.258-.71 0-.91-.04-1.386-.273-.334-.164-.752-.487-1.048-.81-.368-.404-.541-.699-.69-1.178-.108-.352-.197-.807-.197-1.01 0-.203.089-.656.197-1.006a2.81 2.81 0 0 1 .639-1.128c.243-.27.603-.591.8-.713.196-.121.557-.277.801-.346.244-.07.734-.11 1.088-.092.424.023.83.12 1.187.282ZM8.106 24.186a1.62 1.62 0 0 0-.366.258c-.151.137-.22.31-.22.556 0 .257.07.423.252.593.238.224.318.237 1.425.237 1.164 0 1.174-.002 1.408-.274.132-.153.236-.399.236-.556 0-.157-.104-.403-.236-.556-.228-.266-.266-.275-1.294-.295-.582-.012-1.124.005-1.205.037Zm31.58.028a1.04 1.04 0 0 0-.365.313 1.004 1.004 0 0 0-.157.49c0 .146.106.388.235.54.234.271.245.273 1.408.273 1.107 0 1.187-.013 1.425-.237a.727.727 0 0 0 .252-.593.728.728 0 0 0-.252-.593c-.23-.217-.341-.239-1.294-.26-.573-.012-1.136.018-1.251.067ZM31.644 48.34H18.361V33.3h13.282v15.04Zm-15.04.004-14.45-.054-.445-.445-.052-14.448h14.946v14.946Zm31.692-.498-.445.445-14.449.053V33.398h14.947l-.053 14.448Z" fill="#fff"/><path fill-rule="evenodd" clip-rule="evenodd" d="M41.783 6.14c.3.138.731.435.957.66.226.227.527.66.67.963.216.461.258.687.258 1.382 0 .71-.04.91-.273 1.385-.164.334-.488.752-.81 1.048-.404.369-.7.541-1.179.69-.352.108-.806.197-1.01.197-.203 0-.658-.089-1.01-.198-.479-.148-.774-.32-1.177-.69-.306-.278-.647-.713-.789-1.003a3.66 3.66 0 0 1-.31-1.147 2.974 2.974 0 0 1 .1-1.18c.086-.3.303-.756.481-1.014s.535-.615.793-.793c.258-.178.673-.389.922-.469.281-.09.715-.133 1.142-.113.48.022.856.108 1.235.282ZM38.736 9.1c0-.246.075-.39.3-.58.284-.239.362-.253 1.375-.253 1.057 0 1.08.004 1.36.285.19.19.286.385.286.58 0 .172-.1.41-.236.57-.234.272-.243.274-1.425.274-1.181 0-1.19-.002-1.424-.274a.956.956 0 0 1-.236-.602Z" fill="#0086FF"/><path fill-rule="evenodd" clip-rule="evenodd" d="M38.831 4.386a6.45 6.45 0 0 0-1.146.544c-.28.18-.718.556-.974.837-.256.28-.585.73-.73.999a5.71 5.71 0 0 0-.416 1.064 6.28 6.28 0 0 0-.148 1.31c0 .406.06.957.131 1.225.072.269.258.751.414 1.072.158.325.543.85.87 1.183.347.356.833.724 1.195.907.336.169.861.373 1.168.453.308.08.848.145 1.201.145.354 0 .894-.065 1.201-.145.307-.08.833-.284 1.168-.453.362-.183.848-.551 1.196-.907.326-.334.712-.858.87-1.183a7.33 7.33 0 0 0 .414-1.072c.071-.268.13-.82.131-1.224a6.28 6.28 0 0 0-.148-1.311 5.675 5.675 0 0 0-.416-1.063 6.27 6.27 0 0 0-.704-.977 6.098 6.098 0 0 0-1.019-.864 5.872 5.872 0 0 0-1.206-.568c-.437-.135-.9-.193-1.521-.191-.662.001-1.058.058-1.53.22Zm3.91 2.415a3.942 3.942 0 0 0-.958-.66 3.178 3.178 0 0 0-1.235-.283c-.427-.02-.86.023-1.142.113-.249.08-.664.291-.922.469a3.712 3.712 0 0 0-.793.793 4.227 4.227 0 0 0-.482 1.014c-.112.385-.14.73-.099 1.18.036.38.16.842.31 1.147.142.29.483.725.789 1.004.403.369.698.541 1.178.69.351.108.806.197 1.01.197.203 0 .657-.089 1.01-.198.479-.148.774-.32 1.177-.69.323-.295.647-.713.81-1.047.234-.475.273-.676.274-1.385 0-.695-.042-.92-.258-1.382a4.076 4.076 0 0 0-.67-.962Z" fill="#0086FF"/><path d="M39.037 8.518c-.226.19-.3.335-.3.58 0 .206.087.43.235.603.234.272.243.274 1.424.274 1.182 0 1.19-.002 1.425-.274.137-.16.236-.398.236-.57 0-.195-.096-.39-.286-.58-.28-.28-.303-.285-1.36-.285-1.013 0-1.091.014-1.374.252Z" fill="#0086FF"/><path fill-rule="evenodd" clip-rule="evenodd" d="M10.534 37.39c.3.138.73.435.956.66.226.227.527.66.67.963.216.462.258.687.258 1.382 0 .71-.04.91-.273 1.385-.164.334-.488.752-.81 1.048-.404.369-.7.541-1.179.69-.352.108-.806.197-1.01.197-.203 0-.658-.089-1.01-.198-.479-.148-.774-.32-1.177-.69-.305-.278-.647-.712-.789-1.003a3.663 3.663 0 0 1-.31-1.147 2.974 2.974 0 0 1 .1-1.18c.086-.3.303-.755.481-1.014.178-.258.535-.615.793-.793.258-.178.673-.389.922-.468.281-.09.715-.134 1.142-.114.48.023.856.108 1.236.282Zm-3.048 2.96c0-.246.075-.39.3-.58.284-.239.362-.253 1.375-.253 1.058 0 1.08.004 1.36.285.19.19.286.385.286.58 0 .172-.1.41-.236.57-.234.272-.243.274-1.425.274-1.181 0-1.19-.002-1.424-.274a.956.956 0 0 1-.236-.602Z" fill="#0086FF"/><path fill-rule="evenodd" clip-rule="evenodd" d="M7.582 35.636a6.46 6.46 0 0 0-1.147.544c-.28.18-.718.556-.974.837a6.23 6.23 0 0 0-.73.999 5.684 5.684 0 0 0-.416 1.064 6.28 6.28 0 0 0-.148 1.31c0 .406.06.957.131 1.225.072.269.258.751.414 1.072.158.325.543.85.87 1.183.348.356.833.724 1.195.907.336.169.861.373 1.168.453.308.08.848.145 1.201.145.354 0 .894-.065 1.201-.145.307-.08.833-.284 1.168-.453.362-.183.848-.551 1.196-.907.326-.334.712-.858.87-1.183a7.33 7.33 0 0 0 .414-1.072c.071-.268.13-.82.131-1.224a6.28 6.28 0 0 0-.148-1.311 5.676 5.676 0 0 0-.415-1.063 6.27 6.27 0 0 0-.705-.977 6.098 6.098 0 0 0-1.019-.864 5.875 5.875 0 0 0-1.206-.568c-.437-.135-.9-.193-1.521-.191-.662.002-1.058.058-1.53.22Zm3.908 2.415a3.938 3.938 0 0 0-.957-.66 3.177 3.177 0 0 0-1.235-.283c-.427-.02-.86.024-1.142.114-.249.08-.664.29-.922.468a3.711 3.711 0 0 0-.793.793 4.23 4.23 0 0 0-.482 1.014c-.112.385-.14.73-.099 1.18.036.38.16.842.31 1.147.142.29.484.725.789 1.004.403.369.698.541 1.178.69.351.108.806.197 1.01.197.203 0 .657-.089 1.01-.198.479-.148.774-.32 1.177-.69.323-.294.647-.713.81-1.047.234-.475.273-.676.274-1.385 0-.695-.042-.92-.258-1.382a4.076 4.076 0 0 0-.67-.962Z" fill="#0086FF"/><path d="M7.787 39.769c-.226.19-.3.334-.3.58 0 .206.087.43.235.602.234.272.243.274 1.424.274 1.182 0 1.19-.002 1.425-.274.137-.16.236-.398.236-.57 0-.195-.096-.39-.286-.58-.28-.28-.302-.285-1.36-.285-1.013 0-1.091.014-1.374.253Z" fill="#0086FF"/></svg>