<svg width="50" height="50" fill="none" xmlns="http://www.w3.org/2000/svg"><path fill-rule="evenodd" clip-rule="evenodd" d="M27.962 5.114c.207-.104.602-.246.88-.314.407-.1 1.442-.121 5.307-.109l4.802.016.35.245c.194.135.446.414.562.62.152.27.211.511.211.862 0 .35-.059.592-.21.862a2.163 2.163 0 0 1-.538.603c-.213.149-.522.255-.886.304a49.26 49.26 0 0 1-1.942.184c-1.24.097-1.405.093-1.6-.035a.759.759 0 0 1-.274-.328.872.872 0 0 1-.005-.4.684.684 0 0 1 .253-.345c.134-.089.733-.177 1.824-.27.893-.075 1.713-.174 1.822-.221.142-.06.198-.159.198-.349 0-.174-.06-.297-.177-.36-.122-.065-1.598-.087-4.729-.07-4.379.026-4.568.034-4.996.211-.245.101-1.878 1.05-3.629 2.108l-3.183 1.923v.664c0 .586.025.688.216.88.21.213.245.218 1.627.218h1.411v-.38c0-.209.06-.609.132-.888a5.28 5.28 0 0 1 .316-.872c.101-.2.37-.55.595-.778.226-.227.628-.52.894-.65a4.936 4.936 0 0 1 1.006-.343c.406-.082.738-.082 1.476.001.524.059 1.259.204 1.632.324.373.119.935.367 1.248.55a6.86 6.86 0 0 1 1.11.875c.297.297.681.795.853 1.107.171.312.396.845.498 1.184.125.41.215 1.051.269 1.905.059.926.145 1.508.309 2.076.124.434.365 1.066.533 1.404.169.338.434.794.59 1.012.156.22.352.504.437.633.084.129.154.301.154.384 0 .083-.09.255-.2.384l-.2.234-2.648-.02-.288.926c-.158.51-.364.996-.456 1.08a.723.723 0 0 1-.423.153c-.168 0-.459-.152-.857-.45a13.463 13.463 0 0 1-1.312-1.188c-.391-.406-.877-.985-1.08-1.288a13.92 13.92 0 0 1-.674-1.151c-.168-.33-.306-.728-.306-.882 0-.2.067-.336.231-.465.127-.101.308-.184.402-.184a.86.86 0 0 1 .34.092c.094.05.327.404.517.785.19.38.588 1.015.883 1.41.296.395.742.898.992 1.118.25.22.482.37.516.335.033-.036.143-.348.244-.693s.266-.703.366-.794c.157-.143.304-.163 1.05-.142l.869.025-.257-.476c-.14-.262-.357-.748-.482-1.08a11.863 11.863 0 0 1-.355-1.146c-.071-.297-.168-1.09-.215-1.76-.047-.67-.132-1.407-.188-1.638a5.554 5.554 0 0 0-.355-.931 4.66 4.66 0 0 0-.572-.867 4.562 4.562 0 0 0-.58-.542c-.26-.186-.26-.186-.203-.005.032.1.093.405.138.677.05.308.047.698-.007 1.036-.048.298-.2.766-.34 1.041-.14.275-.444.687-.678.915a4.206 4.206 0 0 1-.865.634c-.242.12-.685.268-.985.326-.404.08-.675.082-1.055.011a10.56 10.56 0 0 1-.693-.15c-.149-.043-.212.013-.344.31-.09.199-.331.518-.537.71-.276.255-.546.397-1.02.536l-.864.256-.22.066-.047 4.43.589.384a8.17 8.17 0 0 1 1.106.904c.284.286.7.805.922 1.152.224.347.532.953.686 1.347.263.675.769 1.342 8.668 11.43 4.614 5.891 8.46 10.85 8.547 11.018.091.178.158.498.158.761 0 .305-.068.583-.205.845a2.199 2.199 0 0 1-.569.648c-.26.185-.5.27-.84.298-.263.022-.63-.009-.818-.069-.276-.088-2.1-1.878-9.824-9.64-5.217-5.242-11.043-11.279-11.112-11.41l.005-.006c-.008-.005-.01-.003-.005.006-.387.364-1.03.93-2.096 1.87-1.474 1.298-2.703 2.399-2.732 2.446-.03.047.827 2.447 1.902 5.333 1.902 5.106 1.955 5.265 1.957 5.911.003.55-.084.966-.502 2.424-.278.969-.578 1.905-.668 2.081-.09.177-.257.408-.37.515a2.736 2.736 0 0 1-.602.374c-.311.142-.582.181-1.258.183-.799.002-.877-.014-1.078-.216a.693.693 0 0 1-.21-.465c.003-.136.154-1.124.337-2.195l.33-1.948-2.795-5.637c-2.29-4.616-2.814-5.74-2.895-6.208a2.905 2.905 0 0 1-.005-1.093c.052-.287.223-.771.38-1.076.22-.424 1.115-1.453 3.829-4.403 2.523-2.744 3.54-3.908 3.539-4.052-.001-.11-.152-1.205-.334-2.433-.183-1.228-.35-2.25-.372-2.273-.022-.021-1.616-.163-3.542-.313-2.622-.205-3.572-.31-3.782-.417a2.644 2.644 0 0 1-.488-.332 2.182 2.182 0 0 1-.374-.517 1.895 1.895 0 0 1-.167-.761c0-.282.071-.568.204-.823.113-.214.373-.51.58-.656l.374-.265 6.583-.053v-.51c0-.282.063-.728.14-.993a4.26 4.26 0 0 1 .402-.897 4.17 4.17 0 0 1 .593-.717c.182-.165 2.248-1.458 4.59-2.872 2.343-1.414 4.428-2.656 4.634-2.76Zm1.754 4.547c.294.137.55.344.72.581.146.202.312.508.368.68.056.172.086.544.065.828a1.9 1.9 0 0 1-.298.94 2.29 2.29 0 0 1-.68.686 1.954 1.954 0 0 1-.901.301 2.968 2.968 0 0 1-.872-.07 2.336 2.336 0 0 1-.739-.41 2.533 2.533 0 0 1-.531-.681c-.126-.262-.184-.555-.184-.932 0-.303.054-.682.12-.842a2.78 2.78 0 0 1 .399-.61c.152-.174.444-.4.648-.502.254-.126.54-.185.9-.184.372 0 .663.064.985.215Zm-3.86 4.066a.79.79 0 0 1 .21.463 1.68 1.68 0 0 1-.055.459c-.035.11-.17.256-.302.324-.132.068-1.486.466-3.008.884-2.491.684-2.846.76-3.538.76-.422 0-2.302-.12-4.177-.267-1.875-.146-3.478-.289-3.563-.315-.084-.027-.18-.153-.21-.28-.045-.176-.011-.268.14-.392.187-.152.46-.162 4.392-.162h4.191l2.595-.882c1.814-.617 2.673-.87 2.857-.84.145.024.356.136.468.248Z" fill="#0086FF"/><path d="M3.68 18.137a1.713 1.713 0 0 1-.499-.58 1.98 1.98 0 0 1-.18-.732c-.001-.2.051-.486.115-.636.064-.15.254-.405.422-.566.168-.161.305-.335.305-.387 0-.051-.131-.222-.292-.379a2.41 2.41 0 0 1-.421-.56A1.79 1.79 0 0 1 3 13.66c0-.2.08-.531.179-.736.103-.215.314-.462.5-.586a1.91 1.91 0 0 1 .685-.26c.2-.026.41-.083.465-.126.068-.055.085-.26.052-.65-.039-.469-.017-.63.123-.907.094-.185.241-.398.327-.474a2.5 2.5 0 0 1 .427-.276c.148-.076.47-.138.716-.137.298 0 .54.056.724.17.151.093.353.169.447.169.113 0 .21-.094.285-.276.063-.152.2-.386.305-.52.105-.134.346-.315.535-.402.19-.086.477-.155.64-.152.162.002.418.05.569.105.15.055.393.213.539.351.146.139.317.379.382.534.064.155.177.305.25.334.073.028.3-.031.505-.131a1.93 1.93 0 0 1 .797-.183c.233 0 .53.056.66.123.13.068.354.258.498.423.143.165.306.45.36.633.056.187.074.468.042.643-.05.27-.082.302-.243.252a17.247 17.247 0 0 1-.628-.223c-.328-.122-.443-.208-.443-.332 0-.091-.063-.19-.14-.22-.08-.03-.277.023-.448.123-.169.097-.44.203-.605.234-.164.03-.456.013-.65-.04a1.895 1.895 0 0 1-.635-.346 1.68 1.68 0 0 1-.392-.527c-.059-.152-.162-.321-.23-.376-.066-.055-.174-.08-.239-.055s-.22.235-.346.468a1.583 1.583 0 0 1-.608.646 1.438 1.438 0 0 1-.805.223c-.294 0-.538-.064-.788-.206-.273-.155-.397-.184-.501-.118-.11.07-.139.238-.143.81-.005.66-.026.75-.249 1.043a1.85 1.85 0 0 1-.59.48c-.191.087-.463.16-.604.16-.142.001-.303.048-.359.104a.36.36 0 0 0-.101.212c0 .06.12.215.265.343.145.13.334.387.42.574.085.187.155.49.156.674a1.93 1.93 0 0 1-.174.7c-.097.201-.26.433-.362.515a1.335 1.335 0 0 0-.25.253c-.034.057-.022.181.028.276.065.122.177.171.387.171.163 0 .444.076.625.17.18.092.435.31.566.481.215.284.237.378.242 1.035.004.572.034.74.143.81.103.065.22.04.464-.097.179-.101.481-.21.671-.24.272-.044.446-.01.813.16.394.181.508.288.732.688.205.366.311.474.465.474.153 0 .235-.084.358-.364.088-.2.281-.466.43-.592a1.91 1.91 0 0 1 .616-.322c.19-.052.483-.069.65-.038.166.031.425.133.575.226.167.102.34.147.443.114.094-.03.17-.104.17-.165 0-.062.14-.134.316-.163.174-.029.478-.053.675-.053.316-.001.358.021.357.19-.001.105-.072.343-.158.53a2.177 2.177 0 0 1-.4.568 1.79 1.79 0 0 1-.48.318c-.13.05-.404.09-.608.09-.209 0-.536-.08-.745-.182-.205-.1-.432-.16-.505-.13-.073.027-.186.177-.25.331-.064.155-.252.4-.417.547-.165.146-.44.311-.609.368-.18.06-.46.08-.675.047a1.898 1.898 0 0 1-.697-.296 1.855 1.855 0 0 1-.513-.633c-.117-.25-.237-.391-.333-.391-.083 0-.3.076-.482.17-.195.1-.497.17-.738.17a1.8 1.8 0 0 1-.72-.161 1.852 1.852 0 0 1-.45-.319 2.68 2.68 0 0 1-.285-.45c-.115-.229-.137-.418-.1-.864.033-.391.016-.597-.052-.651-.055-.044-.264-.1-.465-.126a1.91 1.91 0 0 1-.683-.26Z" fill="#0069B7"/><path fill-rule="evenodd" clip-rule="evenodd" d="M27.962 5.114c.207-.104.602-.246.88-.314.407-.1 1.442-.121 5.307-.109l4.802.016.35.245c.194.135.446.414.562.62.152.27.211.511.211.862 0 .35-.059.592-.21.862a2.163 2.163 0 0 1-.538.603c-.213.149-.522.255-.886.304a49.26 49.26 0 0 1-1.942.184c-1.24.097-1.405.093-1.6-.035a.759.759 0 0 1-.274-.328.872.872 0 0 1-.005-.4.684.684 0 0 1 .253-.345c.134-.089.733-.177 1.824-.27.893-.075 1.713-.174 1.822-.221.142-.06.198-.159.198-.349 0-.174-.06-.297-.177-.36-.122-.065-1.598-.087-4.729-.07-4.379.026-4.568.034-4.996.211-.245.101-1.878 1.05-3.629 2.108l-3.183 1.923v.664c0 .586.025.688.216.88.21.213.245.218 1.627.218h1.411v-.38c0-.209.06-.609.132-.888a5.28 5.28 0 0 1 .316-.872c.101-.2.37-.55.595-.778.226-.227.628-.52.894-.65a4.936 4.936 0 0 1 1.006-.343c.406-.082.738-.082 1.476.001.524.059 1.259.204 1.632.324.373.119.935.367 1.248.55a6.86 6.86 0 0 1 1.11.875c.297.297.681.795.853 1.107.171.312.396.845.498 1.184.125.41.215 1.051.269 1.905.059.926.145 1.508.309 2.076.124.434.365 1.066.533 1.404.169.338.434.794.59 1.012.156.22.352.504.437.633.084.129.154.301.154.384 0 .083-.09.255-.2.384l-.2.234-2.648-.02-.288.926c-.158.51-.364.996-.456 1.08a.723.723 0 0 1-.423.153c-.168 0-.459-.152-.857-.45a13.463 13.463 0 0 1-1.312-1.188c-.391-.406-.877-.985-1.08-1.288a13.92 13.92 0 0 1-.674-1.151c-.168-.33-.306-.728-.306-.882 0-.2.067-.336.231-.465.127-.101.308-.184.402-.184a.86.86 0 0 1 .34.092c.094.05.327.404.517.785.19.38.588 1.015.883 1.41.296.395.742.898.992 1.118.25.22.482.37.516.335.033-.036.143-.348.244-.693s.266-.703.366-.794c.157-.143.304-.163 1.05-.142l.869.025-.257-.476c-.14-.262-.357-.748-.482-1.08a11.863 11.863 0 0 1-.355-1.146c-.071-.297-.168-1.09-.215-1.76-.047-.67-.132-1.407-.188-1.638a5.554 5.554 0 0 0-.355-.931 4.66 4.66 0 0 0-.572-.867 4.562 4.562 0 0 0-.58-.542c-.26-.186-.26-.186-.203-.005.032.1.093.405.138.677.05.308.047.698-.007 1.036-.048.298-.2.766-.34 1.041-.14.275-.444.687-.678.915a4.206 4.206 0 0 1-.865.634c-.242.12-.685.268-.985.326-.404.08-.675.082-1.055.011a10.56 10.56 0 0 1-.693-.15c-.149-.043-.212.013-.344.31-.09.199-.331.518-.537.71-.276.255-.546.397-1.02.536l-.864.256-.22.066-.047 4.43.589.384a8.17 8.17 0 0 1 1.106.904c.284.286.7.805.922 1.152.224.347.532.953.686 1.347.263.675.769 1.342 8.668 11.43 4.614 5.891 8.46 10.85 8.547 11.018.091.178.158.498.158.761 0 .305-.068.583-.205.845a2.199 2.199 0 0 1-.569.648c-.26.185-.5.27-.84.298-.263.022-.63-.009-.818-.069-.276-.088-2.1-1.878-9.824-9.64-5.217-5.242-11.043-11.279-11.112-11.41-.387.364-1.03.93-2.096 1.87-1.474 1.298-2.703 2.399-2.732 2.446-.03.047.827 2.447 1.902 5.333 1.902 5.106 1.955 5.265 1.957 5.911.003.55-.084.966-.502 2.424-.278.969-.578 1.905-.668 2.081-.09.177-.257.408-.37.515a2.736 2.736 0 0 1-.602.374c-.311.142-.582.181-1.258.183-.799.002-.877-.014-1.078-.216a.693.693 0 0 1-.21-.465c.003-.136.154-1.124.337-2.195l.33-1.948-2.795-5.637c-2.29-4.616-2.814-5.74-2.895-6.208a2.905 2.905 0 0 1-.005-1.093c.052-.287.223-.771.38-1.076.22-.424 1.115-1.453 3.829-4.403 2.523-2.744 3.54-3.908 3.539-4.052-.001-.11-.152-1.205-.334-2.433-.183-1.228-.35-2.25-.372-2.273-.022-.021-1.616-.163-3.542-.313-2.622-.205-3.572-.31-3.782-.417a2.644 2.644 0 0 1-.488-.332 2.182 2.182 0 0 1-.374-.517 1.895 1.895 0 0 1-.167-.761c0-.282.071-.568.204-.823.113-.214.373-.51.58-.656l.374-.265 6.583-.053v-.51c0-.282.063-.728.14-.993a4.26 4.26 0 0 1 .402-.897 4.17 4.17 0 0 1 .593-.717c.182-.165 2.248-1.458 4.59-2.872 2.343-1.414 4.428-2.656 4.634-2.76Zm2.475 5.128a1.878 1.878 0 0 0-.721-.582 2.176 2.176 0 0 0-.985-.214c-.36 0-.646.058-.9.184a2.526 2.526 0 0 0-.648.503 2.761 2.761 0 0 0-.398.609c-.067.16-.121.539-.121.841 0 .378.058.671.184.933.1.21.34.517.531.682.191.164.524.349.739.41.215.06.607.091.872.07a1.96 1.96 0 0 0 .9-.302 2.29 2.29 0 0 0 .681-.686 1.9 1.9 0 0 0 .298-.94c.02-.284-.009-.656-.065-.828a3.108 3.108 0 0 0-.367-.68Zm-4.581 3.485a.79.79 0 0 1 .21.463 1.68 1.68 0 0 1-.055.459c-.035.11-.17.256-.302.324-.132.068-1.486.466-3.008.884-2.491.684-2.846.76-3.538.76-.422 0-2.302-.12-4.177-.267-1.875-.146-3.478-.289-3.563-.315-.084-.027-.18-.153-.21-.28-.045-.176-.011-.268.14-.392.187-.152.46-.162 4.392-.162h4.191l2.595-.882c1.814-.617 2.673-.87 2.857-.84.145.024.356.136.468.248Z" fill="#0086FF"/><path d="M46.71 4.227a1.711 1.711 0 0 0-.517-.566 1.91 1.91 0 0 0-.69-.24c-.202-.02-.412-.07-.468-.112-.07-.052-.092-.257-.071-.649.025-.447-.002-.636-.124-.86a2.673 2.673 0 0 0-.298-.443 1.856 1.856 0 0 0-.459-.305 1.802 1.802 0 0 0-.724-.14 1.78 1.78 0 0 0-.733.19c-.18.099-.393.181-.476.184-.096.002-.22-.135-.344-.382a1.853 1.853 0 0 0-.531-.618A1.897 1.897 0 0 0 40.57.01a1.565 1.565 0 0 0-.673.067 2.148 2.148 0 0 0-.599.385c-.161.15-.342.402-.402.558-.06.156-.167.309-.24.339-.072.03-.3-.022-.508-.116a1.992 1.992 0 0 0-.75-.162 2.107 2.107 0 0 0-.606.108c-.13.053-.341.203-.471.332a2.2 2.2 0 0 0-.383.579c-.08.189-.145.43-.143.535.003.168.046.19.362.18.197-.007.5-.04.673-.073.176-.035.313-.11.312-.172-.002-.061.072-.137.165-.17.102-.036.276.004.445.102.153.088.415.182.582.209.168.026.46 0 .649-.056a1.93 1.93 0 0 0 .607-.34c.145-.13.33-.402.412-.604.116-.284.196-.37.349-.374.153-.004.262.1.477.46.236.394.353.498.752.668.371.158.546.188.816.136.19-.036.489-.153.665-.259.239-.144.356-.172.46-.11.112.067.146.234.167.806.023.656.048.75.27 1.027.136.168.397.378.58.465.184.088.467.156.63.152.21-.006.322.04.39.16.053.093.07.217.036.275a1.336 1.336 0 0 1-.242.26c-.1.085-.257.321-.348.525-.09.204-.16.521-.154.705.006.184.085.484.176.669.09.184.286.437.435.561.15.125.273.276.275.336a.361.361 0 0 1-.095.215c-.054.057-.215.109-.356.114-.141.005-.411.085-.6.177a1.851 1.851 0 0 0-.576.497c-.214.3-.233.389-.219 1.05.012.572-.013.74-.12.813-.102.069-.227.043-.504-.104a1.52 1.52 0 0 0-.794-.183 1.438 1.438 0 0 0-.799.247 1.59 1.59 0 0 0-.59.663c-.118.235-.268.45-.332.477-.064.027-.173.005-.241-.048s-.176-.22-.24-.37a1.683 1.683 0 0 0-.406-.516c-.16-.133-.45-.28-.645-.328a1.746 1.746 0 0 0-.65-.02 2.32 2.32 0 0 0-.599.25c-.168.105-.363.165-.443.137-.079-.028-.145-.126-.148-.217-.003-.123-.12-.206-.451-.319a17.191 17.191 0 0 0-.634-.204c-.163-.046-.193-.013-.236.258a1.61 1.61 0 0 0 .06.641c.06.182.23.462.378.623.148.16.378.345.51.408.131.064.43.111.663.105.261-.008.564-.086.79-.205.203-.107.428-.172.502-.146.074.026.19.173.26.326.068.154.247.389.396.523.15.134.397.285.55.336.151.051.409.09.571.089.163-.002.448-.08.635-.171.187-.092.422-.28.523-.417.101-.137.232-.375.29-.528.071-.185.165-.28.278-.284.094-.003.297.068.452.157.187.107.43.157.727.149.246-.007.567-.078.713-.158.146-.08.335-.21.419-.288.084-.078.225-.296.313-.483.132-.28.15-.443.097-.91-.043-.39-.032-.595.035-.651.053-.045.26-.108.46-.14.2-.03.505-.157.678-.28a1.63 1.63 0 0 0 .484-.6 2.04 2.04 0 0 0 .158-.74 1.79 1.79 0 0 0-.148-.634 2.406 2.406 0 0 0-.437-.548c-.165-.152-.301-.319-.303-.37-.001-.052.131-.23.294-.396.164-.165.346-.425.406-.577.06-.152.104-.44.099-.64a1.979 1.979 0 0 0-.202-.726Z" fill="#0069B7"/></svg>