<svg width="17" height="20" fill="none" xmlns="http://www.w3.org/2000/svg"><path d="M4.717 3.823a.946.946 0 0 0-.944.95c0 .524.423.949.944.949h7.547a.946.946 0 0 0 .943-.95.946.946 0 0 0-.943-.949H4.717ZM3.773 8.57c0-.524.423-.95.944-.95h7.547c.52 0 .943.426.943.95s-.422.95-.943.95H4.717a.946.946 0 0 1-.944-.95Zm.944 2.848a.946.946 0 0 0-.944.95c0 .524.423.948.944.948H8.49a.946.946 0 0 0 .944-.949.946.946 0 0 0-.944-.95H4.717Z" fill="#0086FF"/><path fill-rule="evenodd" clip-rule="evenodd" d="M1.887.026C.845.026 0 .876 0 1.925v15.189c0 1.048.845 1.898 1.887 1.898h13.207c1.042 0 1.887-.85 1.887-1.898V1.924A1.893 1.893 0 0 0 15.094.027H1.887Zm13.207 1.899H1.887v15.189h8.077l5.13-5.593V1.925Zm0 15.189h-2.562l2.562-2.793v2.793Z" fill="#0086FF"/></svg>