<svg width="14" height="14" fill="none" xmlns="http://www.w3.org/2000/svg"><path fill-rule="evenodd" clip-rule="evenodd" d="M.233.07a.664.664 0 0 0-.169.18L0 .36v13.285l.078.116a.625.625 0 0 0 .205.177A.63.63 0 0 0 .5 14c.05 0 .15-.03.223-.065a.545.545 0 0 0 .206-.18L1 13.642l.009-2.32L1.017 9h6.288c6.24 0 6.288-.001 6.414-.064.07-.034.154-.1.186-.144a.64.64 0 0 0 .085-.195.555.555 0 0 0-.007-.238c-.027-.108-.286-.38-1.897-1.993L10.222 4.5l1.848-1.85C13.086 1.63 13.935.763 13.956.722a.615.615 0 0 0-.01-.461.593.593 0 0 0-.154-.172L13.69.016 7.014.008.338 0 .233.07Zm10.435 2.548c-1.43 1.431-1.619 1.632-1.65 1.75a.466.466 0 0 0 0 .265c.032.118.223.32 1.65 1.75L12.282 8H1.016V1h11.267l-1.615 1.618Z" fill="#fff"/><path d="M10.668 2.618c-1.43 1.431-1.619 1.632-1.65 1.75a.466.466 0 0 0 0 .265c.032.118.223.32 1.65 1.75L12.282 8H1.016V1h11.267l-1.615 1.618Z" fill="#fff"/></svg>