<svg width="50" height="50" fill="none" xmlns="http://www.w3.org/2000/svg"><path d="M15.874 2.16c0-.321 1.519-.92 3.374-1.33 1.855-.411 4.445-.782 5.754-.826 1.31-.044 3.743.293 5.406.75 2.463.675 2.98 1.148 2.779 2.544-.204 1.415-1.258 1.974-6.037 3.207l-5.79 1.492-2.742-2.627c-1.51-1.444-2.743-2.89-2.743-3.21ZM4.07 11.521c1.355-2.086 3.583-4.665 4.951-5.73 1.369-1.066 2.683-1.942 2.922-1.947.24-.004 1.827 1.4 3.528 3.122l3.094 3.13-1.456 5.69c-.801 3.131-1.674 5.93-1.94 6.22-.267.29-2.68.97-5.363 1.511l-4.876.985-2.08-2.296c-1.576-1.74-1.978-2.852-1.663-4.593.23-1.264 1.527-4.004 2.882-6.092Zm36.664-.768c-2.322-2.266-4.223-4.75-4.223-5.518 0-.77.535-1.4 1.189-1.4s2.528 1.203 4.167 2.672c1.638 1.47 3.602 3.725 4.364 5.014 1.288 2.181 1.292 2.379.054 2.847-.93.353-2.595-.731-5.551-3.615Zm-18.906.595 5.159-1.328c2.837-.73 5.528-1.362 5.98-1.404.451-.041 2.742 1.847 5.091 4.196l4.27 4.272-1.563 5.725-1.564 5.726-6.12 1.546-6.12 1.547-4.132-4.083-4.133-4.082 1.566-6.058 1.566-6.057ZM43.92 23.97c.9-3.095 2.014-5.888 2.472-6.205.46-.317 1.243-.58 1.742-.588.5-.006 1.124.547 1.389 1.229.265.682.48 3.416.477 6.077-.002 2.66-.388 6.203-.858 7.873l-.853 3.037-3.004-2.896-3.002-2.897 1.637-5.63ZM.529 30.556C.239 29.121 0 27.066 0 25.99c0-1.652.187-1.806 1.19-.983.655.537 1.166 1.903 1.136 3.036-.031 1.134-.329 2.75-.663 3.592-.514 1.297-.688 1.132-1.134-1.078Zm5.424-2.731 3.572-.94c1.964-.518 4.298-.975 5.186-1.018.967-.046 3.303 1.613 5.824 4.135l4.21 4.21-1.35 4.757c-.744 2.616-1.877 4.956-2.52 5.199-.641.244-3.011.648-5.266.9-4.076.455-4.121.436-7.811-3.333l-3.712-3.791.934-5.06.933-5.059Zm21.328 9.764c.823-2.486 1.319-2.817 6.056-4.04 2.837-.734 5.533-1.368 5.99-1.41.457-.041 2.187 1.296 3.845 2.973 2.458 2.487 2.867 3.32 2.214 4.51-.44.802-1.814 2.365-3.052 3.472-1.238 1.107-3.144 2.548-4.235 3.202-1.091.654-3.106 1.569-4.476 2.032-2.179.737-2.856.588-5.389-1.193-2.566-1.803-2.836-2.31-2.372-4.437.288-1.321.927-3.62 1.42-5.11ZM19.05 48.515c0-.364.803-.785 1.785-.935.983-.152 2.601.224 3.597.835s1.645 1.275 1.443 1.475c-.203.2-1.822.12-3.598-.176-1.775-.297-3.228-.836-3.228-1.199Z" fill="#fff"/></svg>