<svg width="50" height="50" fill="none" xmlns="http://www.w3.org/2000/svg"><path d="M13.294 5.594c.02.039.07.123.11.186.04.064.12.199.175.3.055.1.295.519.531.93a961.344 961.344 0 0 1 1.17 2.032l.129.223.21-.119c.115-.065.465-.243.777-.395.312-.152.584-.282.604-.288.022-.007-.177-.507-.481-1.209L16 6.058l-1.247-.244c-.686-.134-1.303-.255-1.372-.267-.12-.022-.123-.02-.087.047Zm-.411.158c0 .012-.203.611-.451 1.333l-.452 1.31.258.352.742 1.01c.267.361.496.67.51.686.014.015.13-.047.256-.137.127-.091.413-.281.635-.423l.529-.336.125-.078-.12-.208-.262-.457-.827-1.446c-.376-.657-.742-1.293-.814-1.411a1.075 1.075 0 0 0-.129-.195Zm-2.777 2.939-1.23.043c-.03.003-.036.014-.016.029.018.013.193.196.388.406l1.162 1.244c.444.473.924.99 1.068 1.146.143.156.276.284.293.284.018 0 .181-.128.362-.284a24.7 24.7 0 0 1 .61-.508c.154-.123.31-.242.345-.264.035-.022.064-.053.064-.069 0-.016-.162-.248-.36-.515l-.532-.718-.4-.54-.23-.307-.173.007c-.095.004-.703.025-1.351.046Zm-1.566.436c0 .032-.053.597-.117 1.255a92.79 92.79 0 0 1-.134 1.315l-.017.118.778.662c.428.364.825.704.883.755.058.05.145.121.193.157l.088.064.3-.321c.164-.177.445-.467.623-.645l.324-.325-.223-.241-.678-.729-1.178-1.267c-.398-.428-.75-.796-.783-.818-.049-.031-.059-.028-.059.02Zm-1.885 3.344c-.695.186-1.284.346-1.31.355-.033.012-.007.043.081.097.072.044.551.364 1.066.713l1.645 1.11c.39.262.715.47.72.464l.171-.244a14.047 14.047 0 0 1 .682-.893c.117-.145.208-.275.203-.29a28.329 28.329 0 0 0-.964-.843c-.524-.448-.971-.813-.993-.81-.021.002-.607.155-1.301.341Zm-1.582.774c.001.033.081.647.179 1.364.098.717.192 1.318.21 1.334.017.016.521.285 1.12.598.6.312 1.104.56 1.12.549a1.28 1.28 0 0 0 .145-.241c.063-.122.26-.46.438-.75s.32-.532.314-.537a1451.413 1451.413 0 0 1-.783-.53L6.79 14.34l-1.153-.776c-.422-.284-.563-.364-.563-.32Zm-.825 3.419c-.482.19-1.417.558-2.08.817-.661.26-1.203.48-1.203.491 0 .011.383.144.85.295.468.15 1.623.527 2.567.836.945.309 1.813.59 1.93.626l.212.065.03-.072c.017-.04.116-.296.22-.57.106-.274.31-.759.456-1.078.146-.318.262-.582.257-.586a620.37 620.37 0 0 1-1.88-.99c-.196-.102-.385-.185-.42-.183-.035.001-.458.158-.94.349ZM.73 18.37c0 .016.054.123.12.239.067.116.221.39.343.61l.305.547.418.748.808 1.454c.345.622.494.861.545.872.038.01.562.091 1.164.183.602.092 1.134.175 1.182.185.088.017.09.014.13-.259a19.08 19.08 0 0 1 .358-1.72c.065-.247.155-.575.202-.728.047-.153.073-.29.058-.303a67.857 67.857 0 0 0-1.93-.643c-1.046-.34-2.308-.751-2.803-.915-.495-.163-.9-.285-.9-.27Zm1.76 5.76c-.44.478-.868.941-.952 1.03a1.508 1.508 0 0 0-.163.19c-.006.017.054.03.134.03a311.154 311.154 0 0 1 3.535.081l.459.016.023-.439c.013-.24.045-.654.07-.917a7.06 7.06 0 0 0 .04-.486 62.017 62.017 0 0 0-1.12-.178c-.61-.094-1.136-.177-1.169-.183-.04-.01-.295.244-.857.856Zm1.859 4.11a63.01 63.01 0 0 1-1.064.095c-.075.002-.118.06-.342.46l-.678 1.202c-.232.41-.419.75-.415.753.004.003.913-.177 2.02-.402a74.528 74.528 0 0 0 2.033-.427c.01-.01-.019-.218-.066-.46a19.34 19.34 0 0 1-.145-.883l-.06-.44-.154.004c-.084.002-.592.046-1.13.097Zm-.381 2.507c-1.099.224-2.003.413-2.01.42-.005.006.174.147.399.313l1.12.822c.392.286.731.52.754.52.023 0 .536-.159 1.14-.353a25.02 25.02 0 0 0 1.127-.378c.015-.014-.025-.188-.09-.386a22.34 22.34 0 0 1-.359-1.233c-.02-.078-.047-.14-.06-.138l-2.021.413Zm1.511 2.12-1.125.37-.043.134c-.023.073-.186.626-.362 1.229-.176.603-.33 1.137-.343 1.188-.021.086-.017.09.057.061.044-.016.208-.09.366-.162.157-.073.46-.211.673-.307.213-.096.539-.244.724-.33.185-.084.696-.318 1.136-.517.44-.2.8-.376.8-.392 0-.016-.09-.226-.198-.466-.108-.24-.263-.605-.343-.811-.08-.206-.162-.372-.181-.37-.02 0-.542.17-1.161.373Zm.19 2.528a168.8 168.8 0 0 0-1.859.854c-.007.008.49.23 1.104.493l1.291.553.173.075.416-.252c.23-.138.692-.414 1.03-.613.336-.2.62-.373.628-.387.008-.014-.054-.137-.138-.273a22.2 22.2 0 0 1-.36-.614 32.435 32.435 0 0 1-.29-.523c-.046-.087-.098-.157-.117-.156-.019.001-.864.38-1.878.843Zm2.771 1.222c-.121.075-.583.353-1.028.617a78.65 78.65 0 0 0-.82.492c-.008.006-.046.618-.085 1.36-.039.743-.064 1.355-.054 1.36.009.005.223-.15.476-.344l.943-.722a2916.089 2916.089 0 0 0 1.908-1.459 1.314 1.314 0 0 0-.162-.22 19.05 19.05 0 0 1-.532-.715c-.199-.278-.376-.505-.394-.505-.019 0-.133.061-.253.136Zm1.57 1.647c-.01.014-.753.586-1.652 1.27a75.104 75.104 0 0 0-1.635 1.265c0 .012.056.03.125.04.07.01.677.117 1.35.238.672.121 1.242.216 1.266.21.023-.005.439-.39.923-.855.484-.465.88-.862.88-.882 0-.02-.107-.139-.238-.264a15.932 15.932 0 0 1-.61-.638 9.934 9.934 0 0 0-.383-.41c-.006 0-.018.011-.027.026Zm1.235 1.926c-.187.178-.602.575-.922.884l-.58.56.021.536c.012.295.03.782.04 1.084.01.301.033.914.05 1.362.018.448.032.967.032 1.154 0 .188.014.34.03.34.017 0 .795-1.057 1.729-2.35a515.457 515.457 0 0 0 1.72-2.389c.015-.024-.116-.144-.339-.313a15.616 15.616 0 0 1-1.124-.935 4.708 4.708 0 0 0-.303-.257 7.47 7.47 0 0 0-.354.324Zm1.789 2.375c-.386.534-.832 1.15-.993 1.37-.16.22-.62.853-1.02 1.41a37.105 37.105 0 0 0-.722 1.017c.005.004.296-.05.648-.121l2.222-.447c.87-.175 1.63-.326 1.687-.336.09-.016.12-.049.209-.24.056-.12.235-.49.395-.818.16-.329.374-.768.474-.977.1-.208.181-.388.181-.4 0-.013-.057-.05-.126-.082a15.57 15.57 0 0 1-.596-.325 29.774 29.774 0 0 1-.926-.55c-.25-.158-.511-.328-.579-.38a.846.846 0 0 0-.138-.093c-.009 0-.331.437-.716.971Zm3.374.847c-.048.105-.249.52-.446.922-.198.401-.403.824-.457.939a1.608 1.608 0 0 0-.097.238c0 .016.092.191.205.39l.68 1.2c.288.51.483.823.498.797.012-.024.167-.462.344-.973l.677-1.96c.196-.566.357-1.039.357-1.05 0-.012-.133-.07-.295-.13-.162-.06-.528-.212-.813-.337a9.537 9.537 0 0 0-.542-.227c-.014 0-.063.086-.111.19Zm2.165.645a334.497 334.497 0 0 0-.613 1.771l-.62 1.792a3.534 3.534 0 0 0-.135.442c.007.006.549-.2 1.204-.459.655-.258 1.228-.49 1.275-.513.075-.038.096-.097.196-.552l.262-1.191c.083-.375.157-.705.166-.733.013-.042-.068-.075-.397-.163a24.838 24.838 0 0 1-1.29-.389c-.027-.01-.048-.012-.048-.005Zm2.11.814c-.029.125-.152.68-.275 1.232-.124.553-.22 1.02-.213 1.037.006.018.354.402.773.855l.932 1.006c.093.1.174.175.182.166.007-.009.062-.51.122-1.113s.154-1.515.208-2.026c.054-.512.098-.96.099-.998 0-.06-.039-.073-.412-.126a21.733 21.733 0 0 1-.842-.142 8.524 8.524 0 0 1-.477-.1c-.034-.013-.06.043-.097.21Zm2.252.249c-.01.06-.102.925-.204 1.921l-.206 2.022-.022.211.282-.193.81-.56c.29-.202.68-.472.867-.6l.34-.232-.018-.548c-.01-.302-.017-.881-.017-1.288v-.739h-.26a18.052 18.052 0 0 1-1.395-.085c-.159-.02-.159-.02-.177.09Zm3.549-.053c-.268.023-.666.043-.884.044l-.395.003v2.556l.11.081c.06.045.563.39 1.119.765.555.376 1.03.7 1.054.721.024.02.05.032.057.025.007-.007-.108-.939-.254-2.071a177.395 177.395 0 0 1-.267-2.117c0-.032-.012-.056-.026-.053l-.514.047Zm2.273-.298c-.222.043-.607.109-.855.145-.248.036-.455.07-.46.075-.006.006.017.212.052.458.034.246.156 1.188.271 2.092.115.905.216 1.652.224 1.661.009.01.079-.051.156-.134a219.982 219.982 0 0 0 1.666-1.831c.037-.047-.001-.238-.245-1.23l-.305-1.248c-.01-.041-.036-.073-.059-.071-.023.002-.223.039-.445.083Zm2.407-.615c-.102.036-.458.14-.791.233-.334.092-.631.178-.662.19-.05.02-.047.052.026.355.045.182.18.738.303 1.235.123.497.24.91.26.918l1.247.486c.664.26 1.243.485 1.287.501l.08.03-.05-.123c-.027-.068-.17-.453-.32-.855l-.699-1.885c-.236-.635-.444-1.153-.462-1.152a1.897 1.897 0 0 0-.22.067ZM1.39 25.852a169.765 169.765 0 0 0 1.792 2.065c.012.006.548-.036 1.191-.093.643-.058 1.178-.114 1.19-.125.01-.011.003-.264-.017-.563-.02-.298-.036-.701-.036-.895v-.353l-.665-.021c-.366-.011-1.097-.028-1.624-.038a83.39 83.39 0 0 1-1.428-.037l-.468-.02.064.08ZM17.63 3.944c-.132.215-.459.74-.726 1.166-.267.426-.486.793-.486.814 0 .022.223.555.495 1.185.273.63.499 1.152.503 1.158.004.006.24-.078.523-.187.284-.11.671-.248.86-.31.267-.085.342-.122.33-.161l-.573-1.893a184.891 184.891 0 0 1-.595-1.986.435.435 0 0 0-.064-.16c-.015-.01-.135.16-.267.374Zm.682-.481c.009.023.269.879.578 1.902.31 1.023.584 1.93.612 2.014l.05.154.343-.09.431-.112c.07-.017.107-.068.183-.246a5.82 5.82 0 0 1 .194-.408c.055-.1.175-.294.267-.431l.167-.25-.12-.7c-.067-.386-.121-.71-.121-.719a.964.964 0 0 0-.21-.109c-.116-.05-.694-.307-1.283-.57a51.6 51.6 0 0 0-1.09-.476c-.01 0-.01.018-.001.041Zm6.016-2.144a178.072 178.072 0 0 1-1.056 1.138l-.388.417-.765.814a60.15 60.15 0 0 0-.697.75l-.087.104.083.478c.045.263.083.498.083.523 0 .025.088-.034.194-.13a6.54 6.54 0 0 1 .462-.37c.147-.107.43-.276.63-.377.2-.101.52-.234.71-.295a5.49 5.49 0 0 1 .698-.167l.463-.072.11-.016V2.49c0-.894-.005-1.626-.01-1.626-.006 0-.2.205-.43.455Zm.869 1.154.01 1.642.192.02a6.473 6.473 0 0 1 1.07.202c.164.047.434.146.602.221a6.139 6.139 0 0 1 1.238.789l.192.17.019-.11c.01-.06.05-.316.086-.57.037-.254.058-.47.047-.482a1640.032 1640.032 0 0 1-2.35-2.42c-.59-.607-1.08-1.104-1.093-1.104-.012 0-.018.738-.013 1.642Zm5.193 1.425-1.296.504-.11.763-.111.762.102.135a5.373 5.373 0 0 1 .536.908 1.8 1.8 0 0 1 .104.268c0 .02.027.048.06.064.032.016.222.07.422.122.211.055.375.081.392.064.016-.016.152-.441.304-.943.151-.503.426-1.409.61-2.014.183-.605.333-1.11.333-1.12 0-.013-.011-.021-.025-.02-.014.002-.608.23-1.321.507Zm1.736-.308a1495.741 1495.741 0 0 0-1.176 3.894c-.037.12-.04.164-.01.175l.56.192c.288.1.655.233.817.298.162.065.301.106.31.091.01-.015.23-.516.49-1.114.259-.597.48-1.12.49-1.16.015-.057-.151-.348-.695-1.218a72.378 72.378 0 0 0-.742-1.174c-.016-.018-.034-.01-.044.017Zm4.509 1.957c-.056.015-.663.136-1.349.269l-1.248.242-.503 1.163c-.276.64-.503 1.175-.503 1.189 0 .014.364.205.808.425.445.22.81.4.813.4.003 0 .096-.16.206-.357a515.182 515.182 0 0 1 1.866-3.255c.037-.06.054-.107.039-.105a1.494 1.494 0 0 0-.13.03Zm.421.342a3218.03 3218.03 0 0 0-1.872 3.269l-.175.304.29.174c.161.096.501.314.757.485.256.17.476.31.488.309.013-.001.145-.168.293-.372l.48-.654.476-.647.267-.362-.453-1.313a78.968 78.968 0 0 0-.462-1.324c-.006-.006-.046.053-.089.13Zm1.139 3.036-.77 1.037-.55.744.098.07a16.986 16.986 0 0 1 1.023.834l.283.254.11-.122c.06-.067.184-.199.273-.293.09-.094.268-.283.395-.42s.31-.331.404-.431l.929-.993c.416-.445.76-.82.766-.835.006-.015-.1-.035-.235-.046-.136-.01-.617-.027-1.071-.037-.454-.01-.962-.026-1.13-.037l-.306-.02-.219.295Zm2.496.967c-.435.469-.89.958-1.013 1.086-.122.129-.394.421-.604.65-.211.228-.403.434-.427.458-.023.025-.043.055-.043.068 0 .012.145.165.323.338.178.173.458.46.622.637l.3.323.96-.82c.921-.785.96-.823.943-.92a74.58 74.58 0 0 1-.135-1.347 86.914 86.914 0 0 0-.127-1.286c-.004-.022-.363.344-.799.813Zm.393 3.054c-.948.81-.96.822-.904.892a86.19 86.19 0 0 1 .938 1.235l.1.14.352-.24c.193-.133.562-.384.822-.558a871.914 871.914 0 0 0 2.117-1.431c.128-.088.226-.16.218-.16-.008 0-.611-.158-1.34-.35-.73-.191-1.33-.348-1.334-.348-.004 0-.44.369-.969.82Zm3.681.374c-.102.067-.624.42-1.161.782-.537.363-1.23.83-1.54 1.037-.309.208-.57.391-.58.407-.01.017.1.221.245.456a18.064 18.064 0 0 1 .629 1.098c.003.005.451-.224.996-.507.545-.284 1.005-.536 1.024-.56a.5.5 0 0 1 .135-.095l.102-.052.18-1.334c.099-.733.174-1.338.168-1.345a.834.834 0 0 0-.198.112Zm-1.027 3.538c-.574.3-1.071.565-1.105.59-.06.041-.055.06.095.375.087.183.253.557.368.83.116.275.262.645.326.823.063.178.128.324.145.324.017 0 .858-.269 1.869-.597l2.73-.884c.49-.159.905-.296.922-.306.017-.01-.915-.389-2.07-.843a137.546 137.546 0 0 0-2.169-.842c-.043-.01-.443.181-1.11.53Zm5.387 1.58c-.037.017-1.204.398-2.592.848-1.39.45-2.599.84-2.688.868-.123.039-.16.065-.148.106l.17.603c.084.301.206.795.27 1.096.065.302.144.71.176.908.055.334.064.358.13.343.038-.01.615-.109 1.282-.222.666-.113 1.22-.215 1.232-.227.011-.012.096-.163.19-.337a2594.676 2594.676 0 0 1 2.063-3.845c.078-.146.085-.174.038-.172a.42.42 0 0 0-.123.031Zm-2.626 4.835c-.13.024-.645.114-1.145.199s-.914.16-.92.165c-.006.006.005.143.025.304.02.162.052.57.073.908.02.338.04.617.043.619.003.002.83-.016 1.84-.04 1.009-.024 1.946-.044 2.081-.045l.247-.002-.129-.145c-.07-.08-.279-.308-.463-.507s-.57-.62-.857-.934a10.404 10.404 0 0 0-.542-.57l-.253.047Zm.185 2.558c-.898.023-1.742.043-1.877.045l-.244.003v.315c0 .173-.016.578-.036.9-.02.321-.029.593-.019.603.01.01.493.06 1.072.112.58.051 1.115.1 1.19.11.135.017.138.015.37-.256.128-.15.54-.626.915-1.06.376-.432.683-.795.683-.805 0-.01-.095-.016-.21-.013l-1.844.046Zm-2.32 2.845c-.043.295-.11.698-.151.896l-.073.358.186.037.742.149 1.801.364c.685.138 1.273.26 1.305.27.032.01.059.003.059-.014s-.187-.358-.415-.758c-.228-.4-.526-.926-.661-1.17-.136-.244-.264-.45-.284-.457-.02-.007-.534-.058-1.141-.113s-1.146-.1-1.198-.1h-.093l-.078.538Zm-.322 1.696c-.008.023-.054.198-.102.388-.049.19-.155.56-.237.821-.083.262-.15.482-.15.49 0 .009.505.181 1.122.384a25.67 25.67 0 0 0 1.172.367c.028 0 .209-.116.402-.257l1.118-.818c.422-.308.76-.568.751-.577a1.481 1.481 0 0 0-.245-.064l-.97-.198-1.717-.347c-.537-.108-1.01-.205-1.053-.214-.045-.01-.082 0-.091.024ZM43.2 32.98c-.108.27-.262.63-.342.802-.08.171-.146.328-.146.349 0 .02.24.144.53.276.292.131 1.14.516 1.888.855.746.34 1.362.617 1.369.617.006 0-.004-.056-.023-.125a296.987 296.987 0 0 0-.743-2.518 83.43 83.43 0 0 0-1.15-.377 59.638 59.638 0 0 0-1.164-.369c-.012 0-.11.22-.218.49Zm-.878 1.877a23.198 23.198 0 0 1-.676 1.174c-.045.068-.007.094 1.012.704l1.058.635.483-.209 1.283-.552c.44-.188.789-.354.774-.368-.014-.013-.855-.4-1.868-.858a82.726 82.726 0 0 0-1.873-.833c-.018 0-.105.138-.193.307Zm-1.028 1.694a9.116 9.116 0 0 1-.326.469 20.07 20.07 0 0 1-.486.643c-.19.236-.197.25-.136.293.036.024.15.11.254.188a1062.517 1062.517 0 0 1 2.828 2.162c.111.087.208.153.215.146.007-.007-.019-.609-.056-1.338-.038-.729-.08-1.343-.094-1.365-.013-.023-.229-.163-.479-.312l-1.031-.616c-.318-.19-.594-.344-.614-.344-.02 0-.053.033-.075.075Zm-1.579 2.021a13.97 13.97 0 0 1-.597.637c-.17.17-.31.318-.311.33 0 .013.314.327.698.7.384.372.793.764.91.871l.21.195 1.363-.244c.75-.134 1.363-.253 1.363-.265 0-.012-.38-.312-.846-.667a931.74 931.74 0 0 1-1.237-.945c-.215-.165-.583-.446-.818-.623a8.606 8.606 0 0 0-.437-.321c-.006.001-.14.15-.298.332Zm-1.582 1.583a25.65 25.65 0 0 1-1.406 1.142c-.041.025-.075.059-.075.075s.138.217.308.449a139.923 139.923 0 0 0 .813 1.1l.768 1.047 1.045 1.424.533.725.005-.26a5.3 5.3 0 0 1 .011-.294c.003-.019.017-.295.031-.615.014-.32.03-.634.037-.697.007-.064.039-.682.072-1.374l.06-1.257-.352-.337-.924-.89-.573-.553-.353.315Zm-2.221 1.709a21.783 21.783 0 0 1-1.668.991l-.347.184c-.005.005.258.537.585 1.183.327.646.598 1.178.602 1.183.004.005.18.045.392.09l1.024.215 1.767.367c.62.129 1.215.255 1.322.28.106.025.194.039.194.031s-.458-.638-1.017-1.4a997.52 997.52 0 0 0-1.567-2.133c-.303-.41-.628-.856-.724-.988a1.56 1.56 0 0 0-.192-.24c-.01 0-.177.107-.37.237Zm-2.779 1.529c-.203.094-.584.255-.846.357l-.475.187.4 1.079.74 1.992c.187.502.344.918.349.923.005.005.13-.204.278-.465.148-.261.454-.806.68-1.21l.41-.737-.583-1.148-.582-1.149-.37.17Z" fill="#0086FF"/><path d="M22.512 31.076v.447l-.865.003c-.476.001-.87.008-.877.014-.007.007-.015.772-.019 1.702l-.007 1.69-.564.01-.564.008v-4.32h2.896v.446Zm4.107-.014v.432h-1.313v3.455h-1.111v-3.455h-1.313v-.864h3.737v.432Z" fill="#0069B7"/><path fill-rule="evenodd" clip-rule="evenodd" d="M29.608 30.581c.145.028.387.112.546.188.214.102.341.192.505.356.13.13.27.315.343.453.069.129.158.353.2.499.06.209.075.35.075.679 0 .29-.019.486-.06.648a3.35 3.35 0 0 1-.17.465 2.16 2.16 0 0 1-.274.419c-.09.102-.24.242-.333.311a2.42 2.42 0 0 1-.372.219c-.112.05-.302.118-.421.15a2.37 2.37 0 0 1-.604.058c-.264 0-.457-.018-.605-.058a2.81 2.81 0 0 1-.421-.158 2.8 2.8 0 0 1-.384-.237 1.958 1.958 0 0 1-.31-.305 2.794 2.794 0 0 1-.227-.366 2.807 2.807 0 0 1-.161-.416c-.045-.16-.06-.335-.06-.68 0-.342.015-.523.06-.681a3 3 0 0 1 .177-.454 2.33 2.33 0 0 1 .31-.446 2.33 2.33 0 0 1 .387-.334c.109-.07.283-.158.387-.197.105-.039.289-.09.41-.114a3.2 3.2 0 0 1 .48-.047c.145-.001.38.02.522.048Zm-1.212 1.072c.069-.075.2-.171.293-.214a.842.842 0 0 1 .367-.078c.109 0 .258.017.331.04a1 1 0 0 1 .297.183c.09.08.202.223.248.318.047.095.108.262.137.371.028.109.051.327.051.485 0 .158-.015.368-.034.467a1.656 1.656 0 0 1-.332.702c-.06.066-.186.159-.281.205a.77.77 0 0 1-.396.086.77.77 0 0 1-.396-.085 1.173 1.173 0 0 1-.29-.215 1.494 1.494 0 0 1-.189-.264 2.042 2.042 0 0 1-.124-.342 2.36 2.36 0 0 1-.053-.523c0-.185.024-.404.058-.53.03-.117.086-.27.122-.341a1.6 1.6 0 0 1 .191-.265Z" fill="#0069B7"/><path d="M13.17 32.611c.17.168.386.417.48.555.093.138.205.338.248.444.073.177.08.239.078.774-.001.32-.02.693-.044.83a7.333 7.333 0 0 1-.095.465c-.03.12-.084.276-.12.348l-.068.131-.072-.085-.688-.824c-.34-.406-.662-.8-.717-.877a1.2 1.2 0 0 1-.148-.321c-.027-.1-.05-.31-.05-.465 0-.155.023-.401.051-.548.029-.146.096-.424.15-.618.055-.194.11-.416.122-.493l.023-.14.27.26c.15.143.41.397.58.565Z" fill="#0086FF"/><path fill-rule="evenodd" clip-rule="evenodd" d="M25.593 6.678a.542.542 0 0 1-.17-.17c-.048-.09-.065-.096-.245-.096-.181 0-.198.006-.256.103a.598.598 0 0 1-.181.172c-.066.039-.104.075-.085.081a.62.62 0 0 0 .181-.021.443.443 0 0 1 .162-.018c.008.008-.01.042-.041.075-.03.034-.056.071-.056.084 0 .012.034.022.076.023h.075l-.082.063c-.07.053-.076.07-.038.116.038.044.036.053-.01.053-.03 0-.055.013-.055.029s.023.048.052.07c.03.026.042.069.03.108-.014.043.014.113.083.208.058.08.092.149.076.155-.015.006-.006.063.021.127.048.113.05.114.079.04a1.12 1.12 0 0 0 .045-.163.786.786 0 0 1 .106-.22c.057-.085.076-.14.052-.148-.027-.009-.023-.034.012-.084a.288.288 0 0 0 .05-.097c0-.014-.026-.025-.057-.025-.055 0-.055-.004-.001-.057.053-.053.051-.06-.035-.116-.088-.057-.089-.06-.016-.06.042 0 .076-.01.076-.022 0-.013-.025-.05-.056-.084-.031-.033-.05-.067-.042-.074a.58.58 0 0 1 .179.017.608.608 0 0 0 .179.017c.007-.007-.042-.046-.108-.086Zm-6.953 3.898a.908.908 0 0 0-.066-.192c-.037-.083-.078-.15-.093-.15a.88.88 0 0 0-.144.057l-.56.259a18.445 18.445 0 0 0-1.81.986c-.206.13-.556.362-.778.519a20.971 20.971 0 0 0-1.142.868 22.985 22.985 0 0 0-1.076.98c-.183.18-.432.432-.553.561a19.123 19.123 0 0 0-1.105 1.319c-.13.172-.335.455-.456.628-.122.174-.347.518-.5.764a20.242 20.242 0 0 0-1.111 2.11 18.93 18.93 0 0 0-.559 1.445c-.045.137-.141.45-.214.698-.073.246-.17.607-.217.8-.046.194-.122.555-.168.803-.047.248-.115.678-.153.956a9.616 9.616 0 0 0-.068.597c0 .086.01.093.188.115a.74.74 0 0 0 .202.009.53.53 0 0 0 .03-.144l.051-.429c.02-.164.075-.523.12-.797a19.057 19.057 0 0 1 .572-2.309c.086-.265.254-.728.374-1.03a19.848 19.848 0 0 1 1.267-2.531c.176-.287.408-.646.515-.798.108-.151.32-.443.473-.647a18.2 18.2 0 0 1 .69-.847c.228-.261.635-.693.904-.958.268-.265.67-.636.893-.825.222-.189.611-.498.865-.688.254-.189.617-.446.808-.572.19-.125.536-.341.767-.479.232-.137.626-.355.876-.484.25-.128.617-.305.816-.393.2-.088.362-.178.362-.2Zm13.904.266c-.176-.09-.536-.265-.8-.387a7.556 7.556 0 0 0-.508-.223c-.014 0-.06.083-.104.184a.736.736 0 0 0-.065.194 21.287 21.287 0 0 1 .945.44 20 20 0 0 1 .993.532c.274.158.658.393.852.521.195.129.52.356.724.504.204.149.56.425.791.615.232.19.718.637 1.08.994.364.358.789.8.946.983.156.182.43.52.607.751.178.23.458.62.624.864.165.244.415.639.555.876.14.238.36.641.49.897s.333.69.453.964a17.243 17.243 0 0 1 .635 1.701c.056.179.167.587.248.907.08.32.193.85.25 1.179.056.329.122.775.144.99l.041.393.204-.022a2.19 2.19 0 0 0 .212-.03 5.073 5.073 0 0 0-.04-.403 29.388 29.388 0 0 0-.083-.63 19.538 19.538 0 0 0-.273-1.395 18.317 18.317 0 0 0-.272-1.006c-.09-.298-.25-.769-.355-1.046a21.298 21.298 0 0 0-.357-.887c-.093-.21-.274-.592-.404-.848a22.79 22.79 0 0 0-.454-.847 18.33 18.33 0 0 0-.424-.697 26.227 26.227 0 0 0-.474-.698c-.149-.21-.384-.524-.523-.698-.14-.173-.388-.472-.553-.664a20.692 20.692 0 0 0-1.957-1.908 20.532 20.532 0 0 0-1.65-1.22 19.004 19.004 0 0 0-1.498-.88ZM19.035 12.21a.973.973 0 0 0-.065-.177c-.047-.11-.095-.172-.13-.172-.03 0-.35.144-.709.32a18.46 18.46 0 0 0-1.073.57c-.232.137-.558.34-.724.45-.167.11-.474.326-.683.48-.21.155-.596.464-.859.688a16.82 16.82 0 0 0-.9.834c-.232.236-.604.645-.827.91-.223.265-.541.669-.707.897-.165.229-.4.572-.522.764a18.53 18.53 0 0 0-.469.794c-.135.245-.349.667-.474.938-.126.271-.32.73-.43 1.02-.112.29-.272.764-.357 1.053-.085.289-.198.721-.252.96-.054.239-.128.614-.166.833-.037.22-.09.592-.117.83-.028.236-.042.441-.033.456.009.014.104.026.211.026h.196l.023-.257c.012-.142.045-.415.073-.606a16.056 16.056 0 0 1 .43-1.993c.082-.284.23-.732.327-.997s.281-.714.408-.997c.128-.283.347-.724.488-.98a15.875 15.875 0 0 1 1.14-1.783c.143-.189.391-.5.55-.692a17.087 17.087 0 0 1 1.721-1.726 17.328 17.328 0 0 1 1.363-1.039c.149-.102.474-.308.724-.458.25-.15.765-.422 1.145-.606l.698-.34Zm13.324.366a17.025 17.025 0 0 0-.918-.472c-.283-.134-.537-.243-.564-.243-.027 0-.07.05-.096.11a2.786 2.786 0 0 0-.07.183c-.018.058-.005.079.065.105a18.373 18.373 0 0 1 1.449.723c.222.126.563.33.757.454a18.582 18.582 0 0 1 1.565 1.153 16.693 16.693 0 0 1 1.747 1.74c.2.238.49.604.643.814.153.21.377.532.497.714.12.183.321.512.448.731.126.22.33.608.455.864.123.256.302.653.396.882.094.23.24.626.326.88.086.255.215.688.287.962.072.274.168.7.215.947a17.812 17.812 0 0 1 .204 1.395l.02.183.205-.012.206-.011-.023-.271a15.554 15.554 0 0 0-.304-1.849 19.72 19.72 0 0 0-.234-.913c-.064-.22-.191-.608-.282-.864-.092-.256-.24-.637-.329-.847a18.39 18.39 0 0 0-.47-.98c-.17-.33-.397-.74-.504-.913a24.61 24.61 0 0 0-.383-.598 17.698 17.698 0 0 0-.49-.682 20.67 20.67 0 0 0-.645-.797 18.53 18.53 0 0 0-.827-.878 18.027 18.027 0 0 0-1.006-.908 18.207 18.207 0 0 0-.96-.734c-.24-.167-.558-.38-.706-.472-.148-.092-.452-.27-.674-.396Zm-12.817 1.162a.919.919 0 0 0-.074-.195 1.184 1.184 0 0 0-.094-.187c-.006 0-.222.103-.482.227-.259.124-.6.298-.757.387a23.51 23.51 0 0 0-.59.345c-.166.101-.513.334-.77.518a16.24 16.24 0 0 0-.836.644 16.042 16.042 0 0 0-1.29 1.234 15.107 15.107 0 0 0-.812.98 14.2 14.2 0 0 0-.456.648c-.138.21-.315.49-.392.621a16.032 16.032 0 0 0-.807 1.628c-.094.224-.245.635-.338.914-.093.28-.214.687-.27.907-.056.219-.14.6-.185.847a15.291 15.291 0 0 0-.189 1.42c0 .07.014.075.219.075.12 0 .215-.012.212-.025a3.39 3.39 0 0 1 .018-.324c.014-.165.056-.484.092-.71a13.727 13.727 0 0 1 .316-1.463 14.888 14.888 0 0 1 .453-1.332c.077-.192.234-.543.348-.78.115-.238.317-.621.45-.852.133-.23.324-.544.425-.698a15.073 15.073 0 0 1 1.064-1.39 13.937 13.937 0 0 1 1.217-1.21c.194-.17.543-.45.774-.623.232-.174.573-.413.758-.532.185-.119.518-.319.74-.444.223-.125.594-.316.825-.424.232-.108.426-.2.431-.206Zm12.194.317a16.878 16.878 0 0 0-.868-.452c-.247-.118-.47-.214-.498-.214-.028 0-.08.069-.116.152a1.004 1.004 0 0 0-.066.184c0 .017.039.046.086.064a16.69 16.69 0 0 1 1.604.84c.278.167.704.453.946.633.243.18.593.457.779.615a13.403 13.403 0 0 1 1.214 1.184c.149.164.416.485.594.713.178.229.436.587.574.798.138.21.342.539.453.73a13.241 13.241 0 0 1 .724 1.476c.074.183.203.528.285.766.083.238.211.668.285.956.073.288.17.736.214.996.044.26.1.65.122.864l.042.39h.393v-.19a8.18 8.18 0 0 0-.084-.762 16.568 16.568 0 0 0-.189-1.03 17.184 17.184 0 0 0-.221-.858 15.59 15.59 0 0 0-.269-.81 16.09 16.09 0 0 0-.349-.853 15.07 15.07 0 0 0-.372-.768 18.69 18.69 0 0 0-.427-.741c-.14-.229-.322-.513-.407-.631a26.932 26.932 0 0 0-.407-.549 14.607 14.607 0 0 0-.486-.598 16.92 16.92 0 0 0-1.368-1.359 16.093 16.093 0 0 0-.706-.573 16.901 16.901 0 0 0-.707-.5 16.11 16.11 0 0 0-.775-.473ZM7.362 25.634a2.737 2.737 0 0 1-.486-.353.423.423 0 0 0-.031.125 1.82 1.82 0 0 0-.02.257 2.448 2.448 0 0 0 .184.844c.056.123.153.258.25.347.086.08.285.207.441.283.157.076.398.162.537.19.144.03.411.051.623.05.204 0 .582-.024.842-.052.259-.027.706-.05.993-.05.293 0 .669.022.858.05.185.027.413.074.505.104.093.03.257.098.366.151.108.054.286.183.395.288l.199.19v-.104c0-.057-.03-.222-.068-.367a4.622 4.622 0 0 0-.153-.474 2.765 2.765 0 0 0-.2-.39 2.23 2.23 0 0 0-.25-.31 1.433 1.433 0 0 0-.305-.218 2.674 2.674 0 0 0-.464-.154 4.761 4.761 0 0 0-.715-.091 12.256 12.256 0 0 0-.993.008c-.315.016-.807.03-1.094.031-.5.003-.536-.002-.842-.103a3.61 3.61 0 0 1-.572-.252Zm35.906.577c.033-.122.06-.355.062-.538.002-.187-.01-.337-.031-.357-.025-.025-.066-.004-.135.068a1.881 1.881 0 0 1-.32.232 3.548 3.548 0 0 1-.494.229c-.15.054-.4.116-.556.138-.225.032-.423.032-.97-.003-.407-.026-.95-.036-1.328-.026-.51.014-.697.033-.925.092a2.86 2.86 0 0 0-.442.151 1.616 1.616 0 0 0-.26.164 1.867 1.867 0 0 0-.254.31 3.12 3.12 0 0 0-.253.478 3.997 3.997 0 0 0-.167.565 1.99 1.99 0 0 0-.052.32c.006.008.108-.074.225-.182.117-.107.31-.242.43-.3.12-.057.316-.127.436-.156.12-.029.347-.068.504-.087a8.28 8.28 0 0 1 .774-.034c.27 0 .702.023.96.05.26.027.646.049.86.049.212 0 .492-.023.622-.05a2.73 2.73 0 0 0 .505-.178c.148-.07.338-.188.422-.262.084-.074.193-.207.241-.295.049-.089.115-.259.146-.378ZM7.466 27.345a1.732 1.732 0 0 1-.286-.2c-.036-.038-.077-.07-.093-.07-.015 0-.028.137-.028.305 0 .169.024.403.054.524.03.12.1.305.158.411.056.107.165.246.24.31.075.063.243.167.373.23.13.062.326.136.437.165.111.03.361.061.556.07.276.014.485-.002.96-.07a12.77 12.77 0 0 1 1.113-.108 7.27 7.27 0 0 1 .884.02c.206.021.481.074.61.117.13.044.308.12.396.171.088.051.232.16.32.241.155.143.16.145.16.064 0-.046-.038-.216-.085-.378a4.412 4.412 0 0 0-.224-.577 1.66 1.66 0 0 0-.378-.52c-.218-.215-.264-.244-.508-.32a4.217 4.217 0 0 0-.604-.125 5.483 5.483 0 0 0-.852-.02c-.284.011-.8.053-1.146.091-.545.062-.672.066-.948.033a3.533 3.533 0 0 1-.603-.136 3.392 3.392 0 0 1-.506-.228Zm35.652.162c.003-.1.004-.239.002-.307-.003-.069-.016-.124-.03-.123a.63.63 0 0 0-.143.102c-.065.055-.193.14-.286.189a5.414 5.414 0 0 1-.354.164 3.247 3.247 0 0 1-.42.132 3.1 3.1 0 0 1-.556.057 9.05 9.05 0 0 1-.842-.057 17.201 17.201 0 0 0-.993-.08 6.365 6.365 0 0 0-.813.018 3.83 3.83 0 0 0-.599.117c-.14.044-.32.13-.398.188-.078.06-.2.177-.269.261a2.646 2.646 0 0 0-.427.794 4.518 4.518 0 0 0-.116.423.796.796 0 0 0-.03.215c.007 0 .085-.068.172-.152.086-.083.279-.21.427-.283a2.83 2.83 0 0 1 .522-.186c.19-.042.43-.056.976-.057.624-.001.814.011 1.38.093.532.076.724.09 1.01.075.195-.01.437-.042.539-.07a2.85 2.85 0 0 0 .42-.164c.13-.064.297-.167.372-.23.075-.063.176-.188.225-.277a2.268 2.268 0 0 0 .23-.842ZM7.985 29.211A2.707 2.707 0 0 1 7.589 29c-.106-.072-.2-.13-.21-.13-.01 0-.017.09-.017.2 0 .111.024.317.053.458.03.14.096.345.15.455.052.11.158.261.234.337.077.076.248.19.381.255.133.064.34.142.461.174.158.042.336.058.64.055.313-.002.559-.028.96-.102.296-.054.697-.117.891-.14.22-.025.563-.033.91-.021.436.014.605.033.79.09.13.04.327.123.438.184.111.061.261.166.333.232l.131.12-.02-.127a2.939 2.939 0 0 0-.092-.343 4.07 4.07 0 0 0-.186-.448 2.932 2.932 0 0 0-.242-.397 2.184 2.184 0 0 0-.302-.306 1.223 1.223 0 0 0-.393-.208 4.008 4.008 0 0 0-1.446-.107c-.28.021-.714.069-.964.106-.25.037-.572.082-.715.1a2.172 2.172 0 0 1-.542-.001 3.683 3.683 0 0 1-.464-.088 4.46 4.46 0 0 1-.383-.136Zm34.778.274a2.84 2.84 0 0 0 .05-.418c0-.088-.012-.167-.026-.174-.014-.008-.137.057-.273.144a2.79 2.79 0 0 1-.559.26c-.17.056-.453.118-.627.138-.29.033-.375.028-1.01-.064a22.617 22.617 0 0 0-1.162-.138 6.175 6.175 0 0 0-.754-.015 5.32 5.32 0 0 0-.52.069c-.13.026-.314.085-.41.131a1.469 1.469 0 0 0-.36.281 2.53 2.53 0 0 0-.286.372 3.858 3.858 0 0 0-.356.886c-.026.113-.034.204-.017.204.016 0 .03-.014.03-.032 0-.018.085-.094.19-.17.103-.075.284-.18.401-.233.118-.052.345-.118.506-.145.165-.029.493-.05.752-.05.252 0 .587.015.744.034.157.018.543.08.858.137.422.075.674.103.96.103.248 0 .47-.02.62-.055.129-.03.341-.109.472-.174.13-.065.3-.178.377-.252.079-.075.186-.233.245-.359a2.49 2.49 0 0 0 .155-.48Zm-33.18 2.178a6.438 6.438 0 0 0-.634-.103 3.026 3.026 0 0 1-.433-.069c-.065-.024-.08-.022-.067.01l.205.5c.102.252.24.559.306.682.065.123.193.314.284.425.122.15.224.232.395.32.127.064.352.156.5.203.148.048.398.117.556.154.157.037.38.067.496.067.123 0 .21-.014.21-.034 0-.02-.077-.18-.173-.357a27.38 27.38 0 0 0-.297-.539 32.7 32.7 0 0 1-.28-.502 1.845 1.845 0 0 0-.297-.41 1.484 1.484 0 0 0-.312-.203 3.07 3.07 0 0 0-.458-.144Zm31.682.344.19-.472c.01-.023-.002-.04-.028-.037-.025.002-.242.03-.483.063a9.72 9.72 0 0 0-.667.112 2.55 2.55 0 0 0-.42.142 1.337 1.337 0 0 0-.325.228c-.086.088-.302.44-.583.953a23.19 23.19 0 0 0-.446.835c0 .012.095.021.21.02.116 0 .34-.029.497-.063.158-.035.43-.11.606-.169a4 4 0 0 0 .484-.193c.09-.048.245-.175.343-.282a2.63 2.63 0 0 0 .315-.452c.074-.14.212-.45.307-.685Zm-3.388.932a8.563 8.563 0 0 0-.136-.532 4.219 4.219 0 0 1-.109-.454l-.021-.156-.491.46c-.27.254-.578.566-.683.694a3.31 3.31 0 0 0-.322.478 1.75 1.75 0 0 0-.171.492c-.034.195-.035.355-.004.762.022.283.067.65.102.815.034.165.097.378.138.473.042.096.085.173.097.172a.588.588 0 0 0 .122-.129c.056-.07.379-.459.718-.864.339-.405.652-.803.695-.883.043-.081.097-.254.12-.385.024-.145.031-.332.017-.475a5.306 5.306 0 0 0-.072-.468Zm-22.165 1.996a14.14 14.14 0 0 0-.674-.5 9.28 9.28 0 0 1-.508-.373l-.087-.079-.003.192a6.49 6.49 0 0 1-.056.585 7.38 7.38 0 0 0-.055.814 3.85 3.85 0 0 0 .038.604c.021.1.08.272.131.382.066.142.163.267.341.435a80.455 80.455 0 0 0 1.534 1.398c.097.082.191.14.21.13.017-.012.057-.129.088-.261.04-.17.056-.397.056-.774a9.56 9.56 0 0 0-.038-.864 3.974 3.974 0 0 0-.103-.547 1.955 1.955 0 0 0-.2-.424 3.227 3.227 0 0 0-.277-.358 4.995 4.995 0 0 0-.397-.36Zm19.829-.145c-.041-.334-.069-.652-.06-.706.008-.054.012-.098.012-.098l-.087.07a10.72 10.72 0 0 1-.42.304c-.186.128-.436.306-.556.396a6.26 6.26 0 0 0-.505.44 3.192 3.192 0 0 0-.396.458c-.06.099-.14.26-.174.36-.036.1-.081.3-.102.446-.021.146-.047.49-.058.764a5.81 5.81 0 0 0 .018.793c.02.162.055.345.078.407s.053.112.067.112c.014 0 .114-.078.223-.174.108-.096.526-.473.929-.839.403-.365.777-.73.832-.812a1.75 1.75 0 0 0 .169-.366c.045-.139.076-.349.087-.582.013-.266-.003-.532-.057-.973Zm-23.842-.44a1.617 1.617 0 0 0-.358-.169 2.364 2.364 0 0 0-.612-.093 6.202 6.202 0 0 0-.69.006c-.167.015-.459.03-.649.033-.19.005-.345.011-.345.016a26.772 26.772 0 0 1 .515.734c.164.237.393.543.51.678.118.136.317.324.444.418.127.095.315.203.416.24.102.039.307.093.455.12.16.03.558.056.976.066.519.011.751.004.873-.028.091-.024.171-.06.178-.08.006-.02-.21-.29-.48-.598-.27-.309-.629-.716-.796-.904a4.108 4.108 0 0 0-.437-.439Zm29.188-.215-.275-.005c-.15-.002-.592-.013-.981-.024-.56-.016-.747-.01-.9.028a2.15 2.15 0 0 0-.363.134 1.394 1.394 0 0 0-.308.225c-.076.077-.458.504-.849.949-.39.444-.711.825-.711.846 0 .022.076.056.168.077.093.022.419.04.724.041.31.002.718-.018.922-.045.202-.027.444-.07.539-.098a2.03 2.03 0 0 0 .383-.175c.116-.07.304-.216.417-.325a5 5 0 0 0 .399-.449c.105-.137.307-.421.449-.631.14-.21.285-.42.321-.465l.065-.083ZM18.69 37.037c-.185-.12-.579-.342-.875-.494a23.71 23.71 0 0 1-.654-.343c-.112-.066-.115-.066-.089-.004.015.036.04.424.055.862.017.464.05.888.077 1.013.027.12.08.304.118.41.038.108.115.264.17.35.055.084.15.2.212.258.061.056.263.205.448.33a435.274 435.274 0 0 1 1.094.74c.176.12.418.282.538.36.15.098.229.131.252.108.021-.021.033-.227.03-.523a4.487 4.487 0 0 0-.09-.936 10.128 10.128 0 0 0-.175-.747 3.207 3.207 0 0 0-.195-.498 2.314 2.314 0 0 0-.343-.434 4.287 4.287 0 0 0-.573-.452Zm14.124-.265c0-.251.014-.495.032-.542.019-.047.022-.085.007-.085-.014 0-.04.013-.058.03a11.93 11.93 0 0 1-.655.352c-.342.176-.767.415-.942.53a3.952 3.952 0 0 0-.514.405c-.107.107-.24.262-.297.344a2.02 2.02 0 0 0-.152.265 5.204 5.204 0 0 0-.149.482c-.053.201-.12.5-.148.665-.028.164-.068.433-.088.597a2.98 2.98 0 0 0-.016.534c.012.128.034.253.049.277.02.034.077.011.239-.095.116-.076.614-.413 1.106-.748.493-.336.959-.675 1.036-.754a1.68 1.68 0 0 0 .247-.354c.058-.116.134-.325.169-.465s.079-.418.098-.618c.02-.2.036-.568.036-.82Zm-18.592.25a1.49 1.49 0 0 0-.32-.111 3.804 3.804 0 0 0-.312-.044 3.167 3.167 0 0 0-.42.01 5.13 5.13 0 0 0-.472.063c-.111.023-.38.084-.596.138a3.525 3.525 0 0 1-.516.096h-.122l.38.407c.209.224.534.557.723.74.197.191.444.391.582.473a2.9 2.9 0 0 0 .45.21c.133.045.333.078.546.088.186.01.546 0 .802-.02.255-.022.589-.062.74-.09.152-.03.349-.083.438-.12.088-.038.155-.086.148-.106-.006-.02-.268-.26-.582-.532a129.29 129.29 0 0 0-.94-.809 4.099 4.099 0 0 0-.529-.394Zm23.574.049a15.523 15.523 0 0 0-.69-.148 4.407 4.407 0 0 0-.64-.046c-.258.002-.426.02-.555.06a2.15 2.15 0 0 0-.274.107c-.05.026-.463.369-.92.762-.457.392-.894.77-.971.838-.117.103-.133.13-.09.158.027.019.148.064.269.102.12.037.362.09.538.116.176.026.555.057.842.068.303.012.606.006.724-.014.11-.018.29-.066.396-.105.107-.04.307-.148.445-.24a5.17 5.17 0 0 0 .618-.536c.202-.204.426-.438.497-.52.072-.083.202-.224.29-.316l.16-.166-.11-.01a6.964 6.964 0 0 1-.529-.11ZM17.58 39.485a1.613 1.613 0 0 0-.236-.097 2.037 2.037 0 0 0-.438-.072 2.464 2.464 0 0 0-.505.031 6.17 6.17 0 0 0-.438.103c-.11.031-.414.14-.673.241-.259.102-.55.209-.644.238l-.174.054.258.207c.141.113.424.341.627.507.204.166.477.37.606.455.129.084.341.202.472.261.13.06.364.134.519.165.245.049.329.05.639.017a8.363 8.363 0 0 0 1.485-.307c.176-.057.38-.133.454-.17.074-.036.169-.092.21-.123.07-.055.07-.061.016-.108a6.974 6.974 0 0 0-.394-.265l-.623-.398-.69-.44a52.768 52.768 0 0 0-.471-.299Zm16.361-.034a4.888 4.888 0 0 0-.521-.118c-.12-.017-.28-.03-.354-.03a2.217 2.217 0 0 0-.341.047 1.58 1.58 0 0 0-.319.102c-.061.031-.302.18-.534.329l-1.028.657a36.3 36.3 0 0 0-.672.435c-.055.04-.059.057-.023.1.023.027.137.095.252.15.116.055.368.146.562.203.194.057.557.142.807.188.282.053.588.087.808.09.257.003.408-.012.555-.056.111-.034.307-.113.435-.176.129-.063.343-.19.477-.281.134-.092.489-.367.789-.613.3-.246.568-.46.596-.475.038-.021.023-.034-.062-.05a7.178 7.178 0 0 1-.619-.22 11.762 11.762 0 0 0-.808-.282Z" fill="#0086FF"/><path fill-rule="evenodd" clip-rule="evenodd" d="M25.46.457c.239.251.593.621.788.822.195.201.62.642.943.98.324.338.742.771.93.963.186.192.437.452.557.578l.218.23.536-.208c.295-.115 1.02-.394 1.609-.62.589-.226 1.089-.41 1.11-.41.022 0 .19.243.374.54.184.296.383.613.442.704.06.092.299.473.532.848.233.374.436.699.452.722.02.03.418-.036 1.692-.288.916-.18 1.676-.318 1.69-.306.013.012.268.74.566 1.616.298.876.544 1.596.548 1.599.003.002.763.03 1.688.06.925.03 1.688.06 1.695.068.007.007.087.763.177 1.68.09.918.17 1.675.178 1.682.008.008.467.134 1.02.28l1.623.427c.34.09.625.17.634.179.008.008-.085.759-.207 1.667-.123.908-.216 1.659-.207 1.668.01.008.233.101.498.206l2.451.964a91.06 91.06 0 0 1 2 .8c.017.016-.033.147-.115.303-.08.152-.193.366-.253.476a992.423 992.423 0 0 0-1.81 3.372l-.226.415c-.05.091-.148.275-.219.409l-.127.242.082.09.42.455.991 1.08c.36.394.675.74.7.772.039.048.034.07-.034.153-.044.053-.541.632-1.106 1.286-.565.654-1.024 1.197-1.02 1.208.003.01.37.665.816 1.454.446.789.81 1.454.809 1.478 0 .024-.156.156-.345.292-.19.137-.7.51-1.135.828l-1.031.755-.24.176.467 1.602c.257.882.456 1.614.442 1.627a1.6 1.6 0 0 1-.227.105c-.111.045-.452.19-.758.321-.305.132-.813.35-1.128.483-.315.135-.676.29-.803.347l-.23.102.019.191c.01.105.028.386.038.623.01.238.026.514.033.615.008.1.033.568.055 1.04.024.512.028.867.01.883-.017.014-.758.156-1.647.315s-1.626.288-1.638.287c-.013 0-.031.093-.041.207-.01.114-.027.38-.036.59l-.12 2.407a70.267 70.267 0 0 1-.12 2.042 1.466 1.466 0 0 1-.31-.044 290.754 290.754 0 0 1-2.111-.439 380.067 380.067 0 0 0-3.066-.633l-.19.338-.802 1.436c-.338.608-.632 1.105-.652 1.105-.02 0-.302-.103-.626-.228a728.727 728.727 0 0 1-2.427-.947l-.121-.05-.673.737c-.37.406-.814.894-.987 1.086-.172.192-.388.428-.478.525l-.164.175-.866-.59-1.42-.965c-.303-.207-.571-.37-.595-.36a2.623 2.623 0 0 0-.272.178c-.126.089-.532.371-.902.627l-1.125.777-.45.31-.19-.197a94.28 94.28 0 0 1-.707-.763 359.958 359.958 0 0 0-1.301-1.406l-.137-.146-1.567.618c-.863.34-1.581.619-1.597.618-.017 0-.136-.19-.265-.423a201.5 201.5 0 0 0-.723-1.287c-.27-.475-.52-.921-.557-.992-.037-.07-.085-.135-.106-.143-.021-.009-.415.06-.875.153l-1.342.27-1.914.383c-.776.156-1.416.277-1.423.27-.008-.008-.053-1.178-.102-2.602-.049-1.423-.098-2.598-.109-2.61-.011-.013-.74-.152-1.62-.31-.88-.157-1.627-.294-1.661-.304-.057-.017-.06-.045-.042-.322a183.568 183.568 0 0 0 .155-2.93c0-.137-.003-.14-.177-.207a95.101 95.101 0 0 1-1.305-.554l-1.4-.604-.272-.118.058-.205.333-1.134.412-1.405c.075-.261.132-.48.125-.485l-.602-.44-1.374-1.007c-.489-.359-.778-.592-.768-.619.01-.024.36-.653.781-1.399.42-.746.787-1.39.814-1.43.042-.065.043-.085.004-.134-.026-.032-.432-.506-.904-1.054a256.6 256.6 0 0 0-1.072-1.242l-.215-.244.115-.12.466-.504.49-.531.664-.724c.29-.316.527-.59.527-.611 0-.02-.172-.345-.383-.722l-.761-1.365A174.15 174.15 0 0 0 .925 19.6l-.49-.88a27.328 27.328 0 0 1-.43-.786c-.015-.039.002-.062.057-.08.043-.012.972-.374 2.065-.802a1161.511 1161.511 0 0 1 2.871-1.124c.006-.004-.09-.75-.213-1.658-.123-.909-.216-1.658-.208-1.666a69.99 69.99 0 0 1 1.637-.442 66.36 66.36 0 0 0 1.638-.443c.009-.008.09-.766.18-1.684.092-.918.171-1.674.178-1.681.007-.007.713-.035 1.57-.064.856-.028 1.615-.051 1.686-.051h.13l.459-1.354.551-1.62c.085-.244.098-.264.176-.254.046.006.803.15 1.68.322 1.466.287 1.6.308 1.638.257.022-.03.43-.68.906-1.443l.865-1.388.107.045 1.015.451 1.499.67.589.264.151-.162 1.414-1.52A520.463 520.463 0 0 1 24.663.34c.172-.188.325-.341.339-.341.014 0 .22.206.458.457Zm-.254 3.658-.009-1.642c-.005-.904.001-1.642.013-1.642s.503.497 1.092 1.104a1640.032 1640.032 0 0 0 2.35 2.42c.012.011-.009.228-.046.482s-.076.51-.086.57l-.02.11-.191-.17a6.014 6.014 0 0 0-1.238-.789 5.443 5.443 0 0 0-.601-.221 6.473 6.473 0 0 0-1.07-.202l-.194-.02Zm-1.5-2.125c.112-.119.392-.42.622-.671.23-.25.424-.455.43-.455.005 0 .01.732.01 1.626v1.626l-.11.016c-.06.009-.269.04-.463.072-.195.03-.509.106-.698.167-.19.061-.51.194-.71.295-.2.1-.483.27-.63.377a6.663 6.663 0 0 0-.462.37c-.106.096-.194.155-.194.13 0-.025-.038-.26-.083-.523l-.083-.478.087-.103c.049-.057.362-.395.697-.751a566.282 566.282 0 0 0 1.153-1.23l.435-.468Zm5.388 2.412 1.296-.504a81.995 81.995 0 0 1 1.321-.506c.014-.002.025.006.025.018 0 .012-.15.516-.334 1.121l-.61 2.014c-.15.502-.287.927-.303.943-.017.017-.18-.01-.392-.064a4.68 4.68 0 0 1-.423-.122c-.032-.016-.059-.045-.059-.064a1.8 1.8 0 0 0-.104-.268 5.373 5.373 0 0 0-.536-.908l-.102-.135.11-.762.111-.763Zm-10.204.963-.578-1.902c-.009-.023-.008-.041.002-.041s.5.214 1.089.477l1.282.57c.116.05.21.099.21.108 0 .01.055.333.121.718l.12.701-.166.25a6.937 6.937 0 0 0-.267.431c-.054.1-.142.284-.194.408-.076.178-.114.23-.183.246l-.43.111-.344.09-.05-.153c-.027-.084-.303-.99-.612-2.014Zm-1.986-.255c.267-.426.594-.95.726-1.166.132-.215.252-.383.267-.374.015.01.044.081.064.16.02.08.288.973.595 1.986l.573 1.893c.012.04-.063.076-.33.162-.189.06-.576.2-.86.309a5.73 5.73 0 0 1-.523.187c-.004-.006-.23-.527-.503-1.158a28.16 28.16 0 0 1-.495-1.185c0-.021.219-.388.486-.814Zm14.78-.06c.234-.777.433-1.433.442-1.46.01-.027.028-.034.044-.016.015.017.349.545.742 1.174.544.87.71 1.16.695 1.217-.01.041-.231.564-.49 1.161-.26.598-.48 1.1-.49 1.114-.009.015-.148-.026-.31-.091a22.45 22.45 0 0 0-.816-.298l-.562-.192c-.029-.01-.026-.055.01-.174.028-.088.108-.354.18-.592.07-.237.32-1.067.555-1.843Zm-6.647.183c0-.03.019-.075.042-.1.023-.026.062-.048.086-.049.025 0 .066.02.093.046a.17.17 0 0 1 .048.1c0 .029-.014.052-.03.052-.017 0-.036.061-.043.135-.013.134-.012.137.16.216.094.045.199.11.231.146.042.045.055.099.044.174a1.409 1.409 0 0 1-.132.401.134.134 0 0 0 .004.12.869.869 0 0 0 .153.166.498.498 0 0 0 .156.104c.021 0 .027-.024.013-.058a1.023 1.023 0 0 1-.042-.183c-.01-.073-.001-.144.023-.172a.295.295 0 0 1 .139-.07c.085-.018.098-.036.098-.134 0-.063-.015-.114-.033-.114-.019 0-.034-.016-.034-.036 0-.02.022-.057.048-.083.026-.026.058-.047.07-.047.012 0 .043.021.07.047.026.026.048.064.048.083 0 .02-.015.036-.034.036-.019 0-.034.05-.034.111 0 .1.013.115.132.15.104.03.137.06.153.132a.382.382 0 0 1-.015.187c-.02.052-.03.1-.023.106.007.007.037.004.066-.007.029-.01.076-.079.105-.15a.729.729 0 0 0 .054-.212c0-.044.014-.117.031-.162.024-.062.066-.088.17-.105.127-.021.148-.013.28.106.078.07.212.155.298.187l.157.059-.1.106a.57.57 0 0 0-.118.182.338.338 0 0 0-.001.143c.016.06.006.066-.077.048-.082-.018-.1-.009-.127.072l-.031.093-.052-.1c-.032-.061-.042-.124-.026-.165a.516.516 0 0 1 .114-.147c.048-.045.088-.115.088-.158 0-.057-.032-.09-.126-.128-.091-.038-.147-.043-.2-.02a.57.57 0 0 0-.163.197.551.551 0 0 1-.173.202.441.441 0 0 1-.146.037c-.035 0-.072.013-.082.03-.01.015.058.035.15.044a.493.493 0 0 1 .235.076.223.223 0 0 1 .066.146.3.3 0 0 1-.029.131c-.022.035-.045.037-.098.008a.396.396 0 0 0-.156-.036c-.047 0-.086.012-.086.028 0 .015.08.045.176.066a4.6 4.6 0 0 0 .242.047c.063.008.063.01.003.07-.046.045-.088.055-.166.038a2.72 2.72 0 0 0-.255-.038 1.828 1.828 0 0 0-.364-.017c-.098.004-.12.023-.177.152-.036.08-.076.196-.088.257-.012.061-.036.12-.054.132-.018.012-.021.08-.007.163a.469.469 0 0 0 .102.22c.043.042.064.085.047.096-.018.01-.032.033-.032.05 0 .018.038.023.084.012.068-.017.084-.009.082.04a.43.43 0 0 1-.031.129c-.016.036-.03.054-.031.04-.002-.015-.02-.017-.043-.003-.027.017-.02.032.026.05.035.013.12.026.186.027a.85.85 0 0 0 .236-.036c.063-.02.15-.07.194-.108a.57.57 0 0 0 .123-.17c.032-.073.035-.145.011-.274l-.032-.175.199-.197c.11-.11.218-.244.242-.3.026-.062.061-.097.087-.087.024.01.086-.031.138-.09.052-.06.124-.162.16-.228.035-.067.083-.113.106-.104.023.008.104-.066.18-.165.075-.099.18-.257.232-.351.09-.163.098-.17.15-.112a.725.725 0 0 1 .159.415c0 .06-.039.188-.086.281-.05.098-.18.257-.305.372-.12.111-.201.202-.181.202.02 0 .115-.05.212-.112.096-.062.247-.181.334-.265.138-.132.163-.145.189-.096.016.032.04.108.051.17a.635.635 0 0 1-.013.24.71.71 0 0 1-.122.229.905.905 0 0 1-.243.18 1.78 1.78 0 0 1-.257.101c-.055.014-.082.033-.058.041.024.009.152-.017.286-.057.134-.04.287-.095.341-.123l.098-.05-.02.169a.716.716 0 0 1-.075.25.572.572 0 0 1-.139.137.917.917 0 0 1-.292.08c-.115.015-.178.031-.14.036.036.004.154.005.26 0 .15-.005.194.005.194.042a.445.445 0 0 1-.077.16.568.568 0 0 1-.16.156c-.055.029-.158.039-.302.029l-.219-.015.168.046c.093.025.203.046.244.046.042 0 .076.01.076.02a.574.574 0 0 1-.24.265c-.079.04-.133.045-.242.021a3.368 3.368 0 0 1-.208-.052c-.037-.012-.007.008.067.044a.73.73 0 0 0 .177.067c.023 0 .042.024.042.052 0 .027-.049.08-.11.116a.478.478 0 0 1-.199.066.634.634 0 0 1-.185-.036.622.622 0 0 1-.17-.105c-.042-.038-.084-.062-.094-.052-.01.01.035.064.1.12.112.097.115.106.054.138a.502.502 0 0 1-.188.035c-.094 0-.146-.024-.217-.1l-.095-.1-.02.08c-.01.043-.043.088-.072.099-.032.012-.059-.003-.07-.038a2.826 2.826 0 0 0-.069-.176 1.065 1.065 0 0 0-.126-.214c-.05-.06-.096-.087-.13-.074-.03.011-.082.085-.117.163a.98.98 0 0 0-.067.318c-.002.096.004.174.013.174s.04-.022.067-.05a.211.211 0 0 1 .13-.05c.046 0 .113.042.165.103a.44.44 0 0 1 .087.13c0 .016.041.077.092.136.086.1.086.104.014.066-.043-.022-.083-.035-.09-.029a.502.502 0 0 0 .025.16c.02.082.058.161.083.176.024.014.045.04.045.058 0 .017-.052.031-.114.031-.063 0-.133.022-.155.05-.035.04-.028.054.038.078.043.016.135.04.204.052.118.02.13.015.208-.107a.504.504 0 0 1 .186-.171c.064-.026.104-.067.104-.105 0-.034-.015-.063-.034-.063-.018 0-.033-.023-.033-.052 0-.028.02-.072.045-.097a.24.24 0 0 1 .11-.055c.037-.007.06.006.055.03-.005.023.014.042.042.042.028 0 .05.028.05.063 0 .034-.022.07-.05.081a.053.053 0 0 0-.03.07.14.14 0 0 0 .08.068.502.502 0 0 1 .268.306c.02.075.02.146-.002.204a1.233 1.233 0 0 1-.119.21c-.064.093-.116.127-.212.144a.458.458 0 0 1-.242-.026.543.543 0 0 1-.198-.168.424.424 0 0 0-.235-.17 2.899 2.899 0 0 0-.404-.085c-.143-.02-.29-.06-.337-.095a.698.698 0 0 0-.162-.085c-.069-.022-.074-.016-.054.062.018.07.012.082-.032.065-.031-.011-.055-.004-.055.018 0 .021.053.06.118.087.065.027.118.061.118.076 0 .016.058.045.13.066.072.021.185.039.253.039.067 0 .122.008.122.019a.33.33 0 0 1-.036.085c-.027.05-.02.098.034.207a.7.7 0 0 1 .07.2.48.48 0 0 1-.056.163l-.056.106-.046-.156c-.025-.086-.063-.167-.085-.18-.027-.016-.03-.004-.013.04.014.035.033.111.043.17.014.083 0 .123-.068.19-.048.048-.11.086-.139.086-.036 0-.053-.034-.054-.108a.568.568 0 0 0-.032-.174c-.021-.05-.03-.021-.031.105-.002.145-.016.183-.091.241a.33.33 0 0 1-.16.069c-.067 0-.07-.016-.065-.24l.006-.242-.032.178a.809.809 0 0 1-.1.274c-.039.053-.099.096-.134.096-.036 0-.09-.037-.12-.082a1.078 1.078 0 0 1-.099-.258l-.045-.175.006.225c.006.208.002.224-.064.224a.33.33 0 0 1-.16-.069c-.075-.058-.09-.096-.091-.24-.002-.127-.01-.155-.032-.106a.568.568 0 0 0-.031.174c-.002.069-.02.108-.05.108a.265.265 0 0 1-.12-.06.223.223 0 0 1-.078-.14 1.055 1.055 0 0 1 .02-.199c.02-.106.016-.102-.054.045-.067.14-.083.154-.12.109a.326.326 0 0 1-.045-.173c0-.066.027-.17.06-.231.05-.09.054-.126.022-.196-.04-.083-.037-.085.089-.085.07 0 .18-.018.243-.039a.434.434 0 0 0 .132-.062.582.582 0 0 1 .126-.078c.06-.03.11-.07.11-.087 0-.017-.024-.022-.053-.011-.042.016-.048.002-.029-.071.021-.084.017-.09-.057-.067a.47.47 0 0 0-.148.084c-.042.038-.172.075-.353.1a2.308 2.308 0 0 0-.395.087c-.06.025-.11.06-.11.08 0 .02.022.058.05.085.028.028.05.085.05.127 0 .05-.024.083-.07.095-.044.011-.097-.005-.139-.043a.511.511 0 0 0-.227-.084c-.14-.019-.172-.039-.249-.155-.071-.107-.081-.145-.052-.2.02-.036.027-.076.016-.088a56.283 56.283 0 0 0-.382-.38c-.345-.344-.366-.36-.487-.349-.07.006-.126 0-.126-.015 0-.014-.039-.025-.086-.025a.29.29 0 0 1-.168-.082c-.046-.045-.083-.096-.083-.113s.021-.039.048-.049c.034-.013.042-.054.03-.149-.012-.086-.004-.14.024-.157a.428.428 0 0 1 .173-.02c.094.003.129-.009.129-.045 0-.028.013-.05.03-.05.015 0 .068.031.117.069.06.046.089.1.089.166 0 .054.015.097.033.097.019 0 .034.056.034.124 0 .114.031.155.361.482.306.303.378.358.467.358.058 0 .146.031.196.07.076.06.118.067.259.049.092-.012.206-.037.254-.055.072-.027.08-.04.044-.082-.023-.027-.058-.048-.079-.045a1.23 1.23 0 0 1-.139 0c-.1-.006-.1-.006-.03-.064a.34.34 0 0 0 .094-.156c.013-.055.032-.127.042-.16.016-.053.009-.056-.05-.025a.353.353 0 0 1-.087.036c-.01 0 .012-.035.05-.078.037-.042.096-.128.13-.19a.475.475 0 0 1 .149-.164c.079-.044.097-.043.19.01l.102.06-.002-.176a.768.768 0 0 0-.075-.326c-.041-.082-.1-.154-.132-.16-.036-.006-.088.037-.14.12a1.307 1.307 0 0 0-.125.267c-.023.076-.056.139-.072.139-.016 0-.054-.042-.084-.093l-.053-.092-.094.092a.274.274 0 0 1-.222.092.447.447 0 0 1-.18-.032c-.04-.026-.03-.052.068-.154.065-.067.095-.11.067-.094a3.654 3.654 0 0 0-.165.105.474.474 0 0 1-.236.076.432.432 0 0 1-.206-.056.545.545 0 0 1-.108-.092.143.143 0 0 1-.025-.052.58.58 0 0 1 .17-.077c.095-.033.166-.066.16-.073a.467.467 0 0 0-.16.037.56.56 0 0 1-.241.03.573.573 0 0 1-.22-.157l-.125-.137.213-.043c.117-.023.23-.05.25-.058.02-.008-.055-.007-.168.003-.152.014-.231.005-.31-.036a.49.49 0 0 1-.175-.185.883.883 0 0 1-.068-.152c0-.012.087-.018.194-.014.106.004.231.003.277-.002.047-.004-.016-.02-.14-.034a.954.954 0 0 1-.312-.083.477.477 0 0 1-.139-.151.751.751 0 0 1-.061-.228c-.008-.074-.006-.134.004-.134s.118.035.24.078c.123.043.284.088.358.1.116.017.123.015.05-.016-.046-.02-.163-.071-.26-.115a.694.694 0 0 1-.278-.218.43.43 0 0 1-.101-.314.92.92 0 0 1 .035-.266l.034-.09.141.14c.078.077.23.199.34.27.109.073.211.132.228.132.016 0-.074-.101-.2-.225a1.768 1.768 0 0 1-.29-.354.738.738 0 0 1-.058-.29.792.792 0 0 1 .072-.292.574.574 0 0 1 .1-.15c.018-.012.065.044.105.122.04.078.14.236.223.35.082.115.17.205.193.2.024-.005.111.088.194.207.082.119.172.216.198.216.026 0 .08.05.121.112.04.062.146.186.236.275l.163.163v.268c0 .258.003.27.107.362a.71.71 0 0 0 .236.13c.07.019.176.035.235.035a.58.58 0 0 0 .16-.02c.029-.011.053-.034.053-.052 0-.017-.015-.023-.032-.012-.018.01-.048-.01-.068-.046a.31.31 0 0 1-.035-.12c0-.042.021-.053.084-.04.046.008.084.005.084-.007s-.018-.04-.04-.062c-.032-.03-.028-.04.015-.04.031 0 .07-.026.088-.058a.833.833 0 0 0 .056-.186.395.395 0 0 0-.01-.198 2.616 2.616 0 0 1-.088-.26.656.656 0 0 0-.104-.227c-.034-.028-.14-.034-.345-.021-.162.01-.341.028-.397.039-.078.015-.117.003-.165-.05-.063-.068-.063-.068.03-.068a1.084 1.084 0 0 0 .403-.106c.018-.015-.008-.027-.061-.027a.418.418 0 0 0-.164.037c-.058.03-.08.027-.116-.023a.238.238 0 0 1-.044-.117.26.26 0 0 1 .059-.128c.037-.046.113-.08.206-.092.128-.017.156-.009.213.06l.064.08-.053-.108c-.038-.077-.076-.108-.134-.108a.369.369 0 0 1-.184-.086c-.057-.047-.104-.102-.104-.121a.46.46 0 0 0-.086-.147c-.047-.061-.107-.111-.133-.111a.596.596 0 0 0-.167.056c-.066.03-.119.077-.119.102 0 .025.053.114.118.198a.683.683 0 0 1 .118.19c0 .02-.026.074-.058.118l-.058.082-.02-.083c-.016-.063-.04-.08-.11-.076-.08.006-.088-.004-.085-.108a.252.252 0 0 0-.068-.19c-.04-.043-.073-.095-.073-.117 0-.021-.026-.04-.059-.04-.032-.001.032-.044.143-.095.112-.052.246-.142.299-.202.088-.1.107-.106.235-.086.077.012.15.033.164.046.013.013.046.126.073.251.028.136.076.256.117.297.039.038.08.06.09.049.011-.011.005-.076-.014-.144-.023-.08-.024-.146-.003-.184.018-.033.086-.079.15-.102.103-.036.118-.056.118-.151 0-.06-.015-.11-.033-.11-.019 0-.034-.016-.034-.036 0-.02.022-.057.048-.083.027-.026.058-.047.07-.047.012 0 .043.021.07.047.026.026.048.064.048.083 0 .02-.015.036-.034.036-.019 0-.034.052-.034.116 0 .092.014.117.063.117.035 0 .104.032.155.07.072.057.087.091.072.159-.01.047-.029.12-.04.16-.015.053-.008.076.025.076.026 0 .104-.054.172-.12.07-.066.126-.142.126-.168a.075.075 0 0 0-.046-.064c-.028-.01-.04-.049-.03-.099.01-.045.001-.1-.018-.123a.462.462 0 0 1-.057-.15.228.228 0 0 1 .029-.188.69.69 0 0 1 .23-.162c.16-.075.177-.093.174-.186a5.15 5.15 0 0 0-.009-.154c-.002-.029-.02-.043-.038-.031-.018.01-.033-.004-.033-.033Zm-11.632.547a4.126 4.126 0 0 1-.111-.186c-.036-.067-.032-.069.087-.047.069.012.686.133 1.372.267L16 6.058l.519 1.196c.304.702.503 1.202.481 1.209-.02.006-.292.136-.604.288-.312.152-.662.33-.777.395l-.21.119-.13-.223A961.344 961.344 0 0 0 14.11 7.01c-.236-.41-.476-.83-.531-.93a7.762 7.762 0 0 0-.175-.299Zm21.881.036a78.194 78.194 0 0 0 1.349-.269 1.94 1.94 0 0 1 .129-.03c.015 0-.002.046-.039.106a515.182 515.182 0 0 0-1.866 3.256c-.11.196-.203.356-.206.356l-.813-.4c-.444-.22-.808-.411-.808-.425 0-.014.227-.548.503-1.189l.503-1.163 1.248-.242ZM12.432 7.085a75.16 75.16 0 0 0 .451-1.333c0-.012.059.076.13.195.07.118.437.754.813 1.411a909.718 909.718 0 0 1 1.088 1.903l.12.208-.124.078-.529.336c-.222.142-.508.332-.635.423-.127.09-.242.152-.256.137a51.379 51.379 0 0 1-.51-.687l-.742-1.01-.258-.35.452-1.311Zm24.203-.457c.189-.33.378-.662.421-.74.044-.077.083-.136.089-.13.005.005.214.601.462 1.324l.453 1.313-.267.362-.477.647-.48.654c-.147.204-.279.37-.292.372a6.196 6.196 0 0 1-.488-.31c-.256-.17-.596-.388-.756-.484l-.291-.174.176-.304.641-1.118.809-1.412Zm-17.204 1.96.59-.184a.92.92 0 0 1 .108-.03c.013-.001.024.212.024.473 0 .262.016.587.037.723a5.875 5.875 0 0 0 .268 1.021c.038.097.128.292.2.434.072.141.225.396.34.565.116.171.36.458.551.648.232.23.47.425.735.598.216.142.543.323.727.403.184.08.47.184.633.23.164.046.382.1.484.119.102.019.348.048.547.063.209.017.52.017.736 0a6.48 6.48 0 0 0 .736-.11c.198-.044.518-.142.71-.216a5.09 5.09 0 0 0 .622-.294c.149-.087.37-.229.493-.315a5.534 5.534 0 0 0 1.046-1.046c.107-.147.27-.41.364-.586.094-.176.22-.465.282-.644.062-.178.14-.451.173-.607.046-.21.062-.432.063-.872 0-.324.007-.59.015-.59a28.907 28.907 0 0 1 1.182.36c.213.072.593.213.845.314.252.102.57.234.707.294a21.404 21.404 0 0 1 1.915.991c.287.17.711.437.943.593.231.156.512.35.623.433a23.4 23.4 0 0 1 1.01.801 22.439 22.439 0 0 1 1.96 1.929 21.543 21.543 0 0 1 1.346 1.727 22.454 22.454 0 0 1 .844 1.362c.119.21.327.608.463.884s.322.68.414.897a19.571 19.571 0 0 1 .543 1.451 18.406 18.406 0 0 1 .671 2.816c.039.248.094.682.123.964.028.282.061.902.072 1.377.013.535.005 1.097-.02 1.478-.022.338-.071.854-.108 1.146-.038.292-.105.733-.151.98s-.128.64-.183.876c-.055.234-.16.63-.233.88a19.71 19.71 0 0 1-.573 1.666c-.078.192-.247.58-.377.864a18.3 18.3 0 0 1-.423.863 22.332 22.332 0 0 1-.9 1.511c-.135.207-.372.545-.524.753-.153.208-.4.527-.55.71-.15.182-.448.526-.663.764-.215.237-.626.657-.913.933-.288.275-.718.662-.957.858-.238.197-.6.48-.804.63-.204.15-.54.388-.748.528-.208.14-.564.365-.791.5a24.62 24.62 0 0 1-.86.484c-.246.13-.663.336-.926.456-.264.12-.666.293-.894.383l-.415.164-.258-.137a4.355 4.355 0 0 1-.444-.273 5.327 5.327 0 0 1-.4-.338 5.47 5.47 0 0 1-.403-.434 8.99 8.99 0 0 1-.265-.338 5.631 5.631 0 0 1-.241-.415 4.083 4.083 0 0 1-.25-.576 4.848 4.848 0 0 1-.13-.532 7.257 7.257 0 0 1-.042-.946 8.96 8.96 0 0 1 .06-1.097c.03-.228.08-.542.108-.697l.052-.283.36-.146c.198-.08.526-.228.73-.328a13.255 13.255 0 0 0 1.587-.944c.206-.145.532-.393.724-.55a13.427 13.427 0 0 0 1.571-1.563c.17-.208.414-.522.54-.698.127-.177.34-.501.475-.72.134-.22.355-.624.49-.898.136-.274.315-.67.398-.88.083-.21.212-.579.287-.82a13.96 13.96 0 0 0 .428-1.937c.04-.288.06-.706.068-1.362.007-.67-.004-1.067-.038-1.356a17.992 17.992 0 0 0-.115-.797c-.038-.214-.113-.57-.168-.792a13.417 13.417 0 0 0-.223-.78 15.46 15.46 0 0 0-.306-.826 13.083 13.083 0 0 0-.924-1.79 13.452 13.452 0 0 0-.54-.772 16.61 16.61 0 0 0-.595-.736 13.269 13.269 0 0 0-.651-.674 16.86 16.86 0 0 0-.6-.55 15.256 15.256 0 0 0-.523-.413c-.166-.125-.5-.354-.74-.51a13.66 13.66 0 0 0-1.953-1.011c-.204-.082-.461-.18-.572-.217a12.44 12.44 0 0 0-2.357-.552 17.606 17.606 0 0 0-.985-.086 9.572 9.572 0 0 0-1.163 0c-.32.018-.764.057-.985.086-.221.028-.591.09-.823.136a15.35 15.35 0 0 0-.942.234c-.287.082-.734.231-.993.333-.26.101-.654.27-.876.377-.222.106-.54.27-.707.366a14.525 14.525 0 0 0-1.28.84c-.147.11-.375.29-.504.397a14.816 14.816 0 0 0-1.191 1.152 14.663 14.663 0 0 0-.918 1.146c-.103.147-.278.417-.39.6-.11.183-.278.474-.372.648a11.96 11.96 0 0 0-.965 2.49 12.706 12.706 0 0 0-.32 1.811c-.02.202-.036.702-.037 1.113 0 .411.015.897.034 1.08.02.182.051.451.07.597a12.877 12.877 0 0 0 .345 1.578c.064.21.172.54.242.731.07.192.218.55.33.797.11.246.293.612.403.814a13.974 13.974 0 0 0 1.204 1.772c.17.207.486.556.702.777.215.22.552.537.748.704.196.166.5.41.674.54.174.132.52.368.77.526.25.157.74.426 1.088.598.348.171.647.316.664.322.017.006.053.116.08.246.028.13.084.459.125.73.059.388.075.655.078 1.227.002.485-.013.815-.044.98a5.14 5.14 0 0 1-.13.515c-.046.146-.137.37-.202.498a5.9 5.9 0 0 1-.302.508 5.204 5.204 0 0 1-.476.579c-.16.166-.397.38-.527.474-.13.095-.34.23-.467.3l-.231.126-.358-.143a20.341 20.341 0 0 1-1.923-.901 25.469 25.469 0 0 1-.968-.557 21.17 21.17 0 0 1-.936-.619c-.27-.19-.644-.468-.833-.618a25.12 25.12 0 0 1-.714-.596 23.475 23.475 0 0 1-1.871-1.892c-.178-.21-.472-.576-.654-.813a20.796 20.796 0 0 1-.653-.914 23.446 23.446 0 0 1-.603-.963 20.152 20.152 0 0 1-.967-1.91 22.214 22.214 0 0 1-.308-.765 22.114 22.114 0 0 1-.301-.86 21.127 21.127 0 0 1-.267-.899 21.1 21.1 0 0 1-.215-.917c-.054-.264-.13-.681-.167-.928a29.912 29.912 0 0 1-.123-.93c-.037-.32-.06-.852-.067-1.578-.006-.603.003-1.269.02-1.479.017-.21.054-.584.083-.83a17.987 17.987 0 0 1 .784-3.538c.054-.165.163-.471.242-.681a21.565 21.565 0 0 1 .782-1.778c.112-.219.324-.608.472-.863.148-.256.377-.63.508-.83.132-.202.381-.56.554-.798.173-.238.494-.649.714-.914.22-.265.587-.679.815-.92.227-.24.596-.605.818-.81.222-.205.593-.529.825-.72.231-.19.587-.469.79-.62.204-.15.553-.394.775-.54.222-.146.601-.382.842-.525.24-.142.68-.383.976-.535.296-.151.748-.367 1.003-.478a22.9 22.9 0 0 1 .943-.38c.263-.099.705-.25.983-.335Zm-10.554.146c.027-.002.58-.021 1.229-.043a301.82 301.82 0 0 0 1.351-.046l.174-.007.229.307.4.54.532.718c.198.268.36.5.36.515 0 .017-.029.047-.064.07a6.48 6.48 0 0 0-.345.263 24.7 24.7 0 0 0-.61.508c-.18.156-.344.284-.362.284-.018 0-.15-.128-.293-.284-.144-.157-.624-.673-1.068-1.146L9.248 9.169c-.195-.21-.37-.393-.388-.406-.02-.015-.013-.026.017-.029Zm28.548 1.228.77-1.037.22-.295.305.02c.168.01.676.027 1.13.037.453.01.935.027 1.07.037.136.01.242.031.236.046-.005.014-.35.39-.766.835a498.87 498.87 0 0 1-1.728 1.844c-.09.094-.212.226-.273.293l-.11.122-.283-.254a16.63 16.63 0 0 0-1.023-.834l-.098-.07.55-.744Zm2.253 1.016c.122-.128.578-.617 1.014-1.086.435-.469.794-.835.798-.813.005.022.062.6.127 1.286.065.685.126 1.291.135 1.347.017.097-.022.135-.943.92l-.96.82-.3-.323a21.618 21.618 0 0 0-.622-.637 3.515 3.515 0 0 1-.323-.338c0-.013.02-.043.043-.068.024-.024.216-.23.427-.459.21-.228.482-.52.604-.649Zm-31.255-.596c.064-.658.117-1.223.117-1.255 0-.048.01-.051.059-.02.032.022.385.39.783.818a968.73 968.73 0 0 0 1.856 1.996l.223.242-.324.324c-.178.178-.459.468-.623.645l-.3.32-.088-.063a3.303 3.303 0 0 1-.193-.157c-.058-.051-.455-.39-.883-.755l-.778-.662.017-.118c.01-.066.07-.658.134-1.315Zm-3.079 2.444c.027-.01.616-.169 1.31-.355.695-.185 1.28-.34 1.302-.341.022-.003.469.362.993.81.525.448.959.827.964.842.005.016-.086.146-.203.29a14.047 14.047 0 0 0-.682.893l-.171.245c-.005.007-.33-.202-.72-.465-.39-.262-1.13-.761-1.645-1.11a71.626 71.626 0 0 0-1.066-.712c-.088-.053-.114-.085-.082-.097Zm34.836 1.012c-.056-.07-.044-.083.904-.892.529-.451.965-.82.97-.82l1.332.349c.73.191 1.333.348 1.341.348.008 0-.09.072-.217.16a871.914 871.914 0 0 1-2.118 1.43c-.26.176-.63.427-.822.56l-.351.24-.101-.14a86.19 86.19 0 0 0-.938-1.235Zm-34.928.771a73.074 73.074 0 0 1-.179-1.364c0-.045.141.035.563.319.31.208.83.557 1.153.776l1.027.692a1451.413 1451.413 0 0 0 .783.53c.005.005-.136.246-.314.537-.178.29-.375.628-.438.75a1.28 1.28 0 0 1-.144.24c-.017.011-.522-.236-1.12-.548a37.269 37.269 0 0 1-1.122-.598c-.017-.016-.111-.617-.209-1.334Zm38.352-.507 1.161-.783a.834.834 0 0 1 .198-.112c.006.007-.069.612-.168 1.345l-.18 1.334-.102.052a.5.5 0 0 0-.135.095c-.019.024-.48.276-1.024.56a32.06 32.06 0 0 1-.996.507 18.064 18.064 0 0 0-.628-1.099c-.146-.234-.257-.439-.247-.455.01-.016.272-.199.582-.407.31-.207 1.002-.674 1.539-1.037ZM24.88 15.393a.804.804 0 0 1 .216-.166c.109-.053.18-.06.53-.043.29.014.435.035.516.077.078.04.137.112.192.231a.99.99 0 0 1 .088.388c.004.119.027.274.052.344a.81.81 0 0 1 .044.19c0 .036-.03.063-.076.07-.057.008-.078.035-.086.115-.007.073-.033.112-.084.129l-.074.024.08.015c.061.012.074.03.059.087a.771.771 0 0 0-.02.163c-.001.082-.014.092-.111.092a.382.382 0 0 0-.186.052c-.051.035-.074.085-.074.162 0 .06.019.125.042.144a.509.509 0 0 0 .176.056c.074.012.207.037.295.056.146.032.171.053.313.263.085.126.242.412.35.636.107.225.252.539.322.699.069.16.14.29.157.29a.698.698 0 0 0 .175-.107c.078-.06.311-.256.518-.437.229-.2.39-.368.41-.429.02-.055.036-.21.036-.345v-.246l.117-.048a.855.855 0 0 1 .27-.049c.085 0 .204.021.266.047a.381.381 0 0 1 .138.086.49.49 0 0 1 .022.183.942.942 0 0 1-.058.28.58.58 0 0 1-.128.195 4.52 4.52 0 0 0-.275.275c-.112.12-.308.367-.435.548a10.99 10.99 0 0 1-.423.563 4.059 4.059 0 0 1-.33.356 1.471 1.471 0 0 1-.242.175c-.098.05-.112.05-.195-.001a1.57 1.57 0 0 1-.236-.21 5.215 5.215 0 0 1-.377-.497 3.228 3.228 0 0 1-.27-.457c-.02-.063-.05-.114-.064-.114-.015 0-.043.019-.062.041a8.123 8.123 0 0 0-.243.688c-.115.355-.27.781-.343.947-.107.24-.13.327-.116.435.01.073.074.266.143.428.069.162.202.394.295.514.094.12.209.263.256.317.046.054.327.365.623.69.297.327.602.675.678.773.125.162.147.218.21.555.04.207.124.69.188 1.073l.222 1.346.105.648.14.143c.078.08.237.212.356.296.118.083.315.185.437.226.123.04.268.084.324.096a.551.551 0 0 1 .181.082c.05.037.08.095.08.15 0 .049-.028.12-.063.159a.569.569 0 0 1-.172.115.801.801 0 0 1-.255.045c-.085 0-.314-.057-.54-.134-.235-.08-.463-.136-.569-.14-.097-.003-.266 0-.375.007-.176.01-.204.003-.26-.068a.715.715 0 0 1-.1-.208.576.576 0 0 1-.012-.232.982.982 0 0 1 .072-.2.326.326 0 0 0 .028-.209c-.012-.062-.151-.43-.31-.818-.158-.388-.346-.87-.417-1.07a9.26 9.26 0 0 1-.181-.57 2.238 2.238 0 0 1-.057-.433l-.004-.227-.438-.316-.741-.535a8.089 8.089 0 0 0-.395-.273l-.09-.053-.644.959c-.355.527-.698 1.015-.763 1.083l-.12.125-.479-.02a13.84 13.84 0 0 1-1.102-.105 99.214 99.214 0 0 0-1.145-.153 8.997 8.997 0 0 0-.836-.067l-.315-.002-.586.384c-.322.212-.6.385-.619.385-.018 0-.058-.038-.088-.084-.039-.058-.05-.127-.04-.227.013-.108.06-.198.184-.357.091-.117.255-.34.364-.495.108-.155.271-.383.362-.505.09-.122.193-.232.228-.243a.338.338 0 0 1 .184.036c.08.037.125.084.137.143.01.048.029.125.043.17.02.069.045.083.142.081.064 0 .351-.043.638-.093.287-.05.706-.1.932-.11.262-.013.505-.006.673.021.145.023.368.077.497.121.128.044.244.08.257.08.013 0 .034-.07.047-.155a4.992 4.992 0 0 1 .392-1.172c.092-.191.206-.397.253-.458l.086-.111-.092-.12a1.338 1.338 0 0 1-.154-.28 1.166 1.166 0 0 1-.063-.358c0-.108.032-.298.07-.424a2.04 2.04 0 0 1 .14-.344c.038-.064.127-.176.197-.249.07-.073.162-.207.203-.299.056-.126.073-.224.07-.415a11.526 11.526 0 0 0-.087-.892 10.93 10.93 0 0 0-.095-.655 1.032 1.032 0 0 0-.233.068 2.898 2.898 0 0 1-.48.114c-.144.02-.341.036-.439.036h-.177l-.02.903-.02.903.156.312c.113.227.156.353.157.463.002.128-.012.162-.093.222-.077.057-.142.07-.344.07-.214 0-.26-.01-.325-.075-.07-.068-.078-.117-.1-.548a6.877 6.877 0 0 0-.074-.74c-.028-.149-.09-.44-.138-.649-.048-.209-.11-.514-.136-.678a3.734 3.734 0 0 1-.05-.421.33.33 0 0 1 .089-.226 1.03 1.03 0 0 1 .277-.198 8.4 8.4 0 0 1 .627-.252c.24-.088.703-.275 1.027-.415.51-.222.622-.259.832-.273.194-.013.267-.034.358-.102a.562.562 0 0 0 .156-.189c.041-.098.036-.114-.112-.326a2.721 2.721 0 0 1-.212-.356 1.016 1.016 0 0 1-.058-.348.87.87 0 0 1 .068-.366 1.3 1.3 0 0 1 .158-.254ZM2.169 17.481c.662-.259 1.597-.627 2.079-.817.481-.19.904-.348.939-.35.035-.001.224.082.42.185a956.61 956.61 0 0 1 1.88.99c.005.003-.111.267-.257.585-.145.319-.35.804-.455 1.078l-.22.57-.03.072-.213-.065c-.117-.035-.985-.317-1.93-.626a945.8 945.8 0 0 0-2.567-.836c-.467-.151-.85-.284-.85-.295 0-.01.542-.232 1.204-.49Zm40.464-.034c.034-.024.531-.29 1.105-.589.668-.349 1.068-.54 1.111-.53.037.009 1.013.387 2.169.842 1.155.454 2.087.834 2.07.843-.017.01-.432.147-.922.306l-2.73.884c-1.01.328-1.852.597-1.869.597-.017 0-.082-.146-.145-.324-.064-.178-.21-.548-.325-.822a25.399 25.399 0 0 0-.369-.83c-.15-.316-.154-.335-.095-.377ZM.85 18.61a1.543 1.543 0 0 1-.122-.238c0-.015.406.106.901.27.495.163 1.757.574 2.803.914 1.046.34 1.914.628 1.93.643.015.014-.011.15-.058.303s-.137.48-.202.727a19.08 19.08 0 0 0-.359 1.72c-.04.274-.041.277-.129.26-.048-.01-.58-.093-1.182-.185a75.272 75.272 0 0 1-1.164-.183c-.05-.011-.2-.25-.545-.872a1592.308 1592.308 0 0 0-1.531-2.75l-.342-.61Zm45.682.676c1.388-.45 2.555-.83 2.592-.847a.42.42 0 0 1 .123-.031c.047-.002.04.026-.038.172a3600.972 3600.972 0 0 0-2.064 3.845 5.388 5.388 0 0 1-.189.337c-.011.012-.566.114-1.232.227-.667.113-1.244.213-1.283.222-.065.015-.074-.009-.129-.343a23.303 23.303 0 0 0-.176-.908 22.26 22.26 0 0 0-.27-1.096l-.17-.603c-.011-.04.025-.067.148-.106.09-.028 1.299-.419 2.688-.869Zm-1.179 4.187c.5-.085 1.015-.175 1.145-.2l.253-.047c.01-.002.254.254.542.57l.857.934c.184.199.392.427.463.507l.13.145-.248.002c-.135 0-1.072.021-2.081.045-1.01.024-1.837.042-1.84.04-.003-.002-.023-.28-.043-.619a20.69 20.69 0 0 0-.073-.908 1.991 1.991 0 0 1-.025-.304c.006-.006.42-.08.92-.165ZM1.538 25.159c.084-.088.512-.551.952-1.029.562-.612.816-.865.857-.856.033.006.559.089 1.17.183.611.094 1.115.174 1.119.178a7.06 7.06 0 0 1-.04.486c-.025.264-.057.676-.07.917l-.023.439-.46-.016a309.306 309.306 0 0 0-3.533-.08c-.08 0-.141-.014-.135-.03.006-.018.08-.104.163-.192Zm.768 1.76c-.469-.544-.882-1.023-.917-1.067l-.064-.08.468.02c.258.011.9.028 1.428.037.527.01 1.258.027 1.624.038l.665.02v.354c0 .194.016.597.036.895.02.299.028.552.016.563-.01.01-.546.067-1.189.125-.643.057-1.18.1-1.191.093a49.082 49.082 0 0 1-.876-.999Zm42.501-1.043c.134-.002.98-.022 1.877-.045l1.843-.046c.116-.003.21.003.21.013 0 .01-.306.373-.682.806-.375.433-.787.91-.915 1.06-.232.27-.235.272-.37.255-.075-.01-.61-.059-1.19-.11-.579-.052-1.061-.102-1.072-.112-.01-.01-.002-.282.019-.604.02-.322.036-.726.036-.9v-.314l.244-.003Zm-41.522 2.46c.048-.002.527-.045 1.064-.097a38.136 38.136 0 0 1 1.13-.097l.153-.004.06.44c.033.243.098.64.145.882.047.243.077.45.066.46-.01.011-.925.203-2.032.428-1.108.225-2.017.405-2.02.402-.005-.004.182-.342.414-.753l.678-1.203c.224-.4.267-.457.342-.459Zm40.928 1.236c.04-.198.108-.6.15-.896l.078-.538h.093c.052 0 .59.045 1.198.1.607.055 1.12.106 1.14.113.021.008.149.213.285.457.136.244.433.77.661 1.17.228.4.415.74.415.758 0 .017-.027.023-.06.013-.032-.01-.619-.13-1.304-.27l-1.8-.363-.743-.15-.186-.036.073-.358Zm-29.128.58c-.062-.145-.107-.272-.1-.283.007-.01 4.578-.019 10.158-.017 9.916.003 10.145.004 10.133.065a4.475 4.475 0 0 1-.178.43c-.092.2-.237.493-.323.648a12.284 12.284 0 0 1-.728 1.163c-.111.155-.332.44-.49.631-.158.192-.484.544-.726.783-.24.239-.59.553-.775.698-.185.146-.39.303-.454.35-.065.047-.217.153-.337.235-.12.083-.39.25-.6.374-.209.123-.58.318-.824.433-.245.115-.65.285-.9.376-.249.092-.616.214-.815.27-.198.057-.539.14-.757.184a19.3 19.3 0 0 1-.75.135 11.48 11.48 0 0 1-1.184.073c-.525.011-.988.004-1.262-.02a12.823 12.823 0 0 1-.735-.09 11.79 11.79 0 0 1-1.288-.281 14.63 14.63 0 0 1-.775-.25 12.156 12.156 0 0 1-.908-.38 13.787 13.787 0 0 1-.875-.458c-.218-.127-.57-.354-.784-.505-.213-.15-.553-.412-.757-.58-.204-.17-.537-.479-.74-.687a11.406 11.406 0 0 1-.98-1.142 8.205 8.205 0 0 1-.238-.332 11.615 11.615 0 0 1-1.008-1.824ZM1.959 31.166c.006-.006.91-.195 2.009-.42l2.02-.412c.014-.002.041.06.061.138.02.078.084.306.14.507.056.2.155.527.22.726.064.199.104.372.089.386a25.02 25.02 0 0 1-1.127.378 29.87 29.87 0 0 1-1.14.353c-.023 0-.362-.234-.753-.52l-1.121-.822c-.225-.166-.404-.307-.398-.314Zm41.98-.406c.049-.19.095-.365.103-.389.009-.025.046-.035.091-.024.042.01.516.106 1.053.214l1.717.348c.407.082.844.17.97.197.126.026.236.055.245.064.01.01-.329.269-.75.577l-1.119.818c-.193.142-.374.257-.402.257-.028 0-.555-.165-1.172-.367a24.805 24.805 0 0 1-1.122-.384c0-.008.067-.228.15-.49.082-.26.188-.63.236-.82ZM4.355 33.238l1.125-.371a47.387 47.387 0 0 1 1.16-.374c.02-.001.102.165.182.371s.235.57.343.81c.109.241.198.45.198.467 0 .016-.36.192-.8.392-.44.2-.95.432-1.136.518l-.724.33c-.213.095-.516.233-.673.306a10.37 10.37 0 0 1-.366.162c-.074.029-.078.025-.057-.061a190.357 190.357 0 0 1 .705-2.418l.043-.132Zm38.504.544c.08-.172.234-.532.343-.802.108-.27.206-.49.218-.49.011 0 .535.166 1.163.37a83.43 83.43 0 0 1 1.151.376c.005.004.166.544.359 1.2l.384 1.318c.019.069.03.125.023.125-.007 0-.623-.278-1.37-.617l-1.886-.855c-.292-.132-.53-.256-.53-.276a2.363 2.363 0 0 1 .145-.35ZM3.81 36.249a168.8 168.8 0 0 1 1.859-.854 91.577 91.577 0 0 1 1.878-.843c.019-.001.071.069.117.156.046.087.177.322.29.523.114.201.275.477.36.614.084.136.146.26.138.273-.009.014-.292.188-.629.387s-.8.475-1.029.613l-.416.252-.173-.075-1.29-.553c-.615-.264-1.112-.485-1.105-.493Zm38.116-.686c.13-.22.307-.537.396-.706.088-.169.175-.307.192-.307.018 0 .861.375 1.874.833 1.013.458 1.854.845 1.868.858.015.014-.334.18-.774.368l-1.283.552-.483.209-1.058-.635c-1.019-.61-1.057-.636-1.013-.703.026-.039.152-.25.281-.469ZM7.412 37.234c.445-.264.907-.542 1.027-.617.12-.075.234-.136.253-.136.018 0 .195.227.394.505.198.277.437.599.532.715.095.116.168.215.162.22l-.718.55a2916.089 2916.089 0 0 1-2.133 1.631c-.253.195-.467.35-.476.344-.01-.005.015-.617.054-1.36.04-.742.077-1.354.084-1.36.007-.006.377-.227.821-.492Zm33.556-.214c.157-.217.304-.427.326-.469.022-.04.056-.074.075-.074.02 0 .296.155.614.344l1.032.616c.25.149.465.29.478.312.014.022.056.636.093 1.365.038.73.064 1.331.057 1.338-.007.007-.104-.059-.215-.146l-1.421-1.088-1.407-1.074a10.924 10.924 0 0 0-.254-.188c-.061-.042-.054-.057.136-.293.11-.137.33-.426.486-.643Zm-32.61 2.514c.9-.684 1.642-1.256 1.651-1.27.009-.015.021-.027.027-.027.006 0 .178.185.382.41.205.226.48.514.61.639.132.125.239.244.239.264 0 .02-.396.417-.88.882s-.9.85-.923.855c-.024.006-.594-.089-1.266-.21a124.25 124.25 0 0 0-1.35-.239c-.07-.01-.125-.027-.125-.039 0-.01.737-.58 1.635-1.265Zm30.76-.325c.171-.169.44-.456.597-.637.158-.181.291-.33.298-.332.006-.001.203.143.437.32l.818.623 1.237.946c.465.355.846.655.846.667 0 .012-.613.13-1.363.265l-1.362.244-.212-.195c-.116-.107-.525-.5-.91-.871-.383-.373-.697-.687-.697-.7 0-.012.14-.16.311-.33Zm-1.827 1.65c.269-.214.647-.531.842-.704l.353-.315.573.553.924.89.352.337-.06 1.257c-.033.692-.065 1.31-.072 1.373a27.07 27.07 0 0 0-.037.698c-.014.32-.028.596-.03.615a5.3 5.3 0 0 0-.012.294l-.005.26-.533-.725a1140.066 1140.066 0 0 1-1.813-2.47c-.14-.192-.312-.424-.38-.515l-.433-.586a4.737 4.737 0 0 1-.308-.45c0-.015.034-.049.075-.075.042-.025.296-.221.564-.436Zm-26.968.215c.32-.309.735-.706.922-.884a7.47 7.47 0 0 1 .354-.324c.007 0 .143.115.303.258.16.142.397.348.527.459.13.11.398.324.597.475.223.17.354.29.34.313a518.51 518.51 0 0 1-1.721 2.39c-.934 1.292-1.712 2.35-1.728 2.35-.017 0-.03-.153-.03-.34 0-.188-.015-.707-.033-1.155-.017-.448-.04-1.06-.05-1.362-.01-.302-.028-.79-.04-1.084l-.021-.536.58-.56Zm1.718 2.86c.16-.218.607-.835.992-1.37.386-.534.708-.971.717-.971.008 0 .07.042.138.093.068.052.328.222.579.38.25.156.667.404.926.55.258.146.526.293.596.325.07.033.126.07.126.082 0 .012-.082.192-.181.4-.1.209-.313.648-.474.977-.16.329-.339.697-.396.819-.089.19-.117.223-.208.239-.057.01-.816.161-1.687.336l-2.222.447c-.352.07-.643.125-.647.121-.005-.004.32-.462.72-1.018.401-.556.86-1.19 1.021-1.41Zm23.03-1.545c.269-.16.648-.395.841-.525.194-.13.361-.236.371-.237.01 0 .097.107.192.24.096.132.421.577.724.988l1.568 2.133a89.416 89.416 0 0 1 1.015 1.4.678.678 0 0 1-.193-.031 112.13 112.13 0 0 0-1.322-.28 4466.036 4466.036 0 0 1-2.79-.582 6.483 6.483 0 0 1-.393-.09 156.91 156.91 0 0 1-.602-1.183 34.428 34.428 0 0 1-.585-1.183l.347-.184c.186-.097.557-.307.827-.466Zm-19.11 1.944c.198-.401.399-.816.447-.921.047-.105.097-.191.11-.191.014 0 .258.102.543.227.285.125.651.276.813.337.162.06.295.118.295.13 0 .011-.16.484-.357 1.05l-.677 1.96a43 43 0 0 1-.344.973c-.015.026-.21-.287-.499-.798l-.68-1.2a3.753 3.753 0 0 1-.204-.39c0-.015.044-.122.097-.237.054-.115.26-.538.457-.94Zm16.326-.583c.262-.102.643-.263.846-.357l.37-.17.583 1.148.583 1.148-.41.736c-.226.405-.532.95-.68 1.21a5.795 5.795 0 0 1-.278.466c-.005-.005-.162-.42-.349-.923l-.74-1.992-.4-1.079.475-.187Zm-13.785.518c.039-.109.07-.204.07-.21 0-.008.022-.006.048.004a24.085 24.085 0 0 0 1.291.39c.33.087.41.12.397.162-.009.028-.083.358-.166.733l-.262 1.19c-.1.456-.121.515-.196.553-.047.024-.62.255-1.275.513-.655.26-1.197.465-1.204.459a3.534 3.534 0 0 1 .136-.442 1733.453 1733.453 0 0 1 1.16-3.352Zm11.87.119c.334-.092.69-.197.792-.233.102-.036.2-.066.219-.067.018-.001.226.517.462 1.152l.7 1.885c.148.402.292.787.32.854l.048.124-.08-.03-1.286-.501-1.246-.486c-.021-.008-.138-.421-.26-.918l-.304-1.236c-.073-.302-.076-.334-.025-.354.03-.012.328-.098.66-.19Zm-9.964 1.716c.123-.553.246-1.107.275-1.232.037-.166.063-.222.097-.209.026.01.24.055.477.1.236.046.615.11.842.142.373.053.413.065.412.126 0 .037-.045.486-.1.998-.053.511-.147 1.423-.207 2.026-.06.603-.115 1.104-.122 1.113-.008.01-.09-.066-.182-.166l-.932-1.006c-.42-.453-.767-.837-.773-.855-.006-.017.09-.483.213-1.037Zm7.494-1.19c.248-.035.633-.1.855-.144.222-.044.422-.081.445-.083.023-.002.05.03.059.071l.305 1.249c.244.99.282 1.182.245 1.229a219.982 219.982 0 0 1-1.666 1.831c-.077.083-.147.143-.156.134a57.374 57.374 0 0 1-.224-1.66c-.115-.905-.237-1.847-.271-2.093a4.975 4.975 0 0 1-.053-.458c.006-.005.213-.039.461-.075Zm-5.17 2.128c.1-.996.192-1.86.203-1.921.018-.111.018-.111.176-.091a18.052 18.052 0 0 0 1.395.085h.261v.74c0 .406.008.985.017 1.287l.017.548-.339.232c-.187.128-.577.398-.867.6l-.81.56-.282.193.022-.211.206-2.022Zm2.869-1.93c.217-.001.615-.021.883-.044l.514-.047c.014-.003.025.02.026.053 0 .032.12.984.267 2.117.146 1.132.26 2.065.254 2.071-.007.007-.033-.004-.057-.025-.024-.02-.499-.345-1.054-.72-.556-.377-1.06-.72-1.12-.766l-.109-.081v-2.555l.396-.002Z" fill="#0069B7"/></svg>