<svg width="50" height="50" fill="none" xmlns="http://www.w3.org/2000/svg"><path fill-rule="evenodd" clip-rule="evenodd" d="M25.46.457c.239.251.593.621.788.822.195.201.62.642.943.98.324.338.742.771.93.963.186.192.437.452.557.578l.218.23.536-.208c.295-.115 1.02-.394 1.609-.62.589-.226 1.089-.41 1.11-.41.022 0 .19.243.374.54.184.296.383.613.442.704.06.092.299.473.532.848.233.374.436.699.452.722.02.03.418-.036 1.692-.288.916-.18 1.676-.318 1.69-.306.013.012.268.74.566 1.616.298.876.544 1.596.548 1.599.003.002.763.03 1.688.06.925.03 1.688.06 1.695.068.007.007.087.763.177 1.68.09.918.17 1.675.178 1.682.008.008.467.134 1.02.28l1.623.427c.34.09.625.17.634.179.008.008-.084.759-.207 1.667-.123.908-.216 1.659-.207 1.668.01.008.233.101.498.206l2.451.964a91.06 91.06 0 0 1 2 .8c.017.016-.033.147-.115.303-.08.152-.193.366-.253.476a992.423 992.423 0 0 0-1.81 3.372l-.226.415c-.05.091-.148.275-.219.409l-.127.242.082.09.42.455.991 1.08c.36.394.675.74.7.772.039.048.034.07-.034.153-.044.053-.541.632-1.106 1.286-.565.654-1.024 1.197-1.02 1.208.003.01.37.665.816 1.454.446.789.81 1.454.809 1.478 0 .024-.156.156-.345.292-.19.137-.7.51-1.135.828l-1.031.755-.24.176.467 1.602c.257.882.456 1.614.442 1.627a1.6 1.6 0 0 1-.227.105c-.111.045-.452.19-.758.321-.305.132-.813.35-1.128.483-.315.135-.676.29-.803.347l-.23.102.019.191c.01.105.028.386.038.623.01.238.026.514.033.615.008.1.033.568.055 1.04.024.512.028.867.01.883-.017.014-.758.156-1.647.315s-1.626.288-1.638.287c-.013 0-.031.093-.041.207-.01.114-.027.38-.036.59l-.12 2.407a70.267 70.267 0 0 1-.12 2.042 1.466 1.466 0 0 1-.31-.044 290.754 290.754 0 0 1-2.111-.439 380.067 380.067 0 0 0-3.066-.633l-.19.338-.802 1.436c-.338.608-.632 1.105-.652 1.105-.02 0-.302-.103-.626-.228a728.727 728.727 0 0 1-2.427-.947l-.121-.05-.673.737c-.37.406-.814.894-.987 1.086-.172.192-.388.428-.478.525l-.164.175-.866-.59-1.42-.965c-.303-.207-.571-.37-.595-.36a2.623 2.623 0 0 0-.272.178c-.126.089-.532.371-.902.627l-1.125.777-.45.31-.19-.197a94.28 94.28 0 0 1-.707-.763 359.958 359.958 0 0 0-1.301-1.406l-.137-.146-1.567.618c-.863.34-1.581.619-1.597.618-.017 0-.136-.19-.265-.423a201.5 201.5 0 0 0-.723-1.287c-.27-.475-.52-.921-.557-.992-.037-.07-.085-.135-.106-.143-.021-.009-.415.06-.875.153l-1.342.27-1.914.383c-.776.156-1.416.277-1.423.27-.008-.008-.053-1.178-.102-2.602-.049-1.423-.098-2.598-.109-2.61-.011-.013-.74-.152-1.62-.31-.88-.157-1.627-.294-1.661-.304-.057-.017-.06-.045-.042-.322a183.568 183.568 0 0 0 .155-2.93c0-.137-.003-.14-.177-.207a95.101 95.101 0 0 1-1.305-.554l-1.4-.604-.272-.118.058-.205.333-1.134.412-1.405c.075-.261.132-.48.125-.485l-.602-.44-1.374-1.007c-.489-.359-.778-.592-.768-.619.01-.024.36-.653.781-1.399.42-.746.787-1.39.814-1.43.042-.065.043-.085.004-.134-.026-.032-.432-.506-.904-1.054a256.6 256.6 0 0 0-1.072-1.242l-.215-.244.115-.12.466-.504.49-.531.664-.724c.29-.316.527-.59.527-.611 0-.02-.172-.345-.383-.722l-.761-1.365A174.15 174.15 0 0 0 .925 19.6l-.49-.88a27.328 27.328 0 0 1-.43-.786c-.015-.039.002-.062.057-.08.043-.012.972-.374 2.065-.802a1161.511 1161.511 0 0 1 2.871-1.124c.006-.004-.09-.75-.213-1.658-.123-.909-.216-1.658-.208-1.666a69.99 69.99 0 0 1 1.637-.442c.893-.235 1.63-.434 1.638-.443.009-.008.09-.766.18-1.684.092-.918.171-1.674.178-1.681.007-.007.713-.035 1.57-.064.856-.028 1.615-.051 1.686-.051h.13l.459-1.354.551-1.62c.085-.244.098-.264.176-.254.046.006.803.15 1.68.322 1.466.287 1.6.308 1.638.257.022-.03.43-.68.906-1.443l.865-1.388.107.045 1.015.451 1.499.67.589.264.151-.162 1.414-1.52A520.463 520.463 0 0 1 24.663.34c.172-.188.325-.341.339-.341.014 0 .22.206.458.457Zm-.263 2.016.01 1.642.192.02a6.473 6.473 0 0 1 1.07.202c.164.047.434.146.602.221a6.139 6.139 0 0 1 1.238.789l.192.17.019-.11c.01-.06.05-.316.086-.57.037-.254.058-.47.047-.482a1640.032 1640.032 0 0 1-2.35-2.42c-.59-.607-1.08-1.104-1.093-1.104-.012 0-.018.738-.013 1.642Zm-.869-1.154a178.072 178.072 0 0 1-1.056 1.138l-.388.417-.765.814a60.15 60.15 0 0 0-.697.75l-.087.104.083.478c.045.263.083.498.083.523 0 .025.088-.034.194-.13a6.54 6.54 0 0 1 .462-.37c.147-.107.43-.276.63-.377.2-.101.52-.234.71-.295a5.49 5.49 0 0 1 .698-.167l.463-.072.11-.016V2.49c0-.894-.005-1.626-.01-1.626-.006 0-.2.205-.43.455Zm6.062 2.58-1.296.503-.11.763-.111.762.102.135a5.373 5.373 0 0 1 .536.908 1.8 1.8 0 0 1 .104.268c0 .02.027.048.06.064.032.016.222.07.422.122.211.055.375.081.392.064.016-.016.152-.441.304-.943.151-.503.426-1.409.61-2.014.183-.605.333-1.11.333-1.12 0-.013-.011-.021-.025-.02-.014.002-.608.23-1.321.507Zm-12.078-.436c.009.023.269.879.578 1.902.31 1.023.584 1.93.612 2.014l.05.154.343-.09.431-.112c.07-.017.107-.068.183-.246a5.82 5.82 0 0 1 .194-.408c.055-.1.175-.294.267-.431l.167-.25-.12-.7c-.067-.386-.121-.71-.121-.719a.964.964 0 0 0-.21-.109c-.116-.05-.694-.307-1.283-.57a51.6 51.6 0 0 0-1.09-.476c-.01 0-.01.018-.001.041Zm-.682.481c-.132.215-.459.74-.726 1.166-.267.426-.486.793-.486.814 0 .022.223.555.495 1.185.273.63.499 1.152.503 1.158.004.006.24-.078.523-.187.284-.11.671-.248.86-.31.267-.085.342-.122.33-.161l-.573-1.893a184.891 184.891 0 0 1-.595-1.986.435.435 0 0 0-.064-.16c-.015-.01-.135.16-.267.374Zm14.496-.353a1495.741 1495.741 0 0 0-1.176 3.894c-.037.119-.04.163-.01.174l.56.192c.288.1.655.233.817.298.162.065.301.106.31.091.01-.015.23-.516.49-1.114.259-.597.48-1.12.49-1.16.015-.057-.151-.348-.695-1.218a72.378 72.378 0 0 0-.742-1.174c-.016-.018-.034-.01-.044.017Zm-7.047 1.542a.179.179 0 0 0-.042.1c0 .03.015.044.033.033.019-.012.036.002.038.03l.009.155c.003.093-.014.11-.174.186a.69.69 0 0 0-.23.162.228.228 0 0 0-.029.188c.013.06.039.128.057.15.019.023.027.078.018.123-.01.05.002.089.03.1a.074.074 0 0 1 .046.063c0 .026-.057.102-.126.168-.069.066-.146.12-.172.12-.033 0-.04-.023-.025-.075.011-.041.03-.114.04-.161.015-.068 0-.102-.072-.158a.334.334 0 0 0-.155-.071c-.05 0-.063-.025-.063-.117 0-.064.015-.116.034-.116.018 0 .034-.016.034-.036 0-.02-.022-.057-.048-.083-.027-.026-.058-.047-.07-.047-.012 0-.043.021-.07.047-.026.026-.048.064-.048.083 0 .02.015.036.034.036.018 0 .033.05.033.11 0 .095-.015.115-.117.151-.065.023-.133.07-.15.102-.021.038-.02.103.002.184.019.068.025.133.014.144-.01.01-.051-.011-.09-.05-.04-.04-.089-.16-.117-.296a1.13 1.13 0 0 0-.073-.251.499.499 0 0 0-.164-.046c-.128-.02-.147-.013-.235.086-.053.06-.187.15-.299.202-.11.05-.175.094-.143.094.033.001.06.02.06.041 0 .022.032.074.072.116.049.05.071.115.069.191-.004.104.003.114.084.108.07-.004.094.013.11.076l.02.083.058-.082a.312.312 0 0 0 .058-.118.701.701 0 0 0-.118-.19.643.643 0 0 1-.118-.198c0-.025.053-.071.119-.102a.596.596 0 0 1 .167-.056c.026 0 .086.05.133.111a.46.46 0 0 1 .086.147c0 .02.047.074.104.121a.37.37 0 0 0 .184.086c.058 0 .096.03.134.108l.053.108-.064-.08c-.057-.069-.085-.077-.213-.06-.093.012-.169.046-.206.092a.26.26 0 0 0-.06.128c0 .031.02.084.045.117.037.05.058.054.116.023a.418.418 0 0 1 .164-.037c.053 0 .08.012.061.027a1.084 1.084 0 0 1-.403.105c-.093 0-.093.001-.03.07.048.052.087.064.165.049a4.8 4.8 0 0 1 .397-.04c.206-.012.311-.006.345.022a.656.656 0 0 1 .104.227c.03.103.07.22.089.26.018.04.023.128.01.198a.833.833 0 0 1-.056.186c-.018.032-.058.058-.088.058-.044 0-.048.01-.016.04.022.022.04.05.04.062 0 .012-.038.015-.084.006-.063-.012-.084-.001-.084.04a.31.31 0 0 0 .035.121c.02.036.05.057.068.046.017-.01.032-.005.032.012 0 .018-.024.04-.054.052a.58.58 0 0 1-.16.02 1.09 1.09 0 0 1-.234-.035.71.71 0 0 1-.236-.13c-.104-.092-.107-.104-.107-.362v-.268l-.163-.163a2.235 2.235 0 0 1-.236-.275c-.04-.062-.095-.113-.121-.112-.026 0-.116-.097-.198-.216s-.17-.212-.194-.207c-.024.005-.11-.085-.193-.2a3.535 3.535 0 0 1-.223-.35c-.04-.078-.087-.134-.105-.123a.574.574 0 0 0-.1.151.792.792 0 0 0-.072.291.738.738 0 0 0 .058.291c.034.072.164.231.29.354.126.124.216.225.2.225-.017 0-.12-.06-.228-.131a2.63 2.63 0 0 1-.34-.271l-.14-.14-.035.09a.947.947 0 0 0-.035.266.43.43 0 0 0 .101.314.694.694 0 0 0 .278.218c.097.044.214.095.26.115.073.03.066.033-.05.015a2.547 2.547 0 0 1-.358-.099 3.105 3.105 0 0 0-.24-.078c-.01 0-.012.06-.004.134a.751.751 0 0 0 .061.228.477.477 0 0 0 .139.15c.049.033.19.07.313.084.123.014.186.03.14.034a2.862 2.862 0 0 1-.278.002c-.107-.004-.194.002-.194.014 0 .011.03.08.068.152a.49.49 0 0 0 .174.185c.08.04.16.05.311.036.113-.01.188-.011.168-.003a2.82 2.82 0 0 1-.25.058l-.212.043.125.137a.573.573 0 0 0 .219.157.56.56 0 0 0 .24-.03.467.467 0 0 1 .16-.037c.007.007-.064.04-.158.073a.58.58 0 0 0-.171.077c0 .01.012.033.025.052.014.02.062.06.108.092.046.03.138.056.206.056.072 0 .17-.031.236-.076.063-.042.137-.09.165-.105.028-.016-.002.027-.067.094-.097.102-.109.128-.067.154a.447.447 0 0 0 .179.032.274.274 0 0 0 .222-.092l.094-.092.053.092c.03.051.068.093.084.093s.049-.063.072-.139c.023-.076.08-.196.125-.267.052-.083.104-.126.14-.12.031.006.09.078.131.16a.768.768 0 0 1 .076.326l.002.176-.103-.06c-.092-.053-.11-.054-.19-.01a.475.475 0 0 0-.149.163 1.244 1.244 0 0 1-.13.191c-.037.043-.06.078-.049.078a.34.34 0 0 0 .087-.036c.059-.031.066-.028.05.025-.01.033-.029.105-.042.16a.34.34 0 0 1-.094.156c-.07.058-.07.058.03.063.056.003.118.003.14 0 .02-.002.055.019.078.046.035.042.028.055-.044.082a1.473 1.473 0 0 1-.254.055c-.141.018-.183.01-.259-.049a.376.376 0 0 0-.196-.07c-.09 0-.16-.055-.467-.358-.33-.327-.361-.368-.361-.482 0-.068-.015-.124-.034-.124-.018 0-.033-.043-.033-.097 0-.065-.03-.12-.09-.166a.362.362 0 0 0-.117-.069c-.016 0-.029.022-.029.05 0 .036-.035.048-.13.044a.428.428 0 0 0-.172.021c-.028.018-.036.07-.025.157.013.095.005.136-.03.15-.026.009-.047.031-.047.048s.037.068.083.113a.29.29 0 0 0 .168.082c.047 0 .086.011.086.025 0 .014.056.021.126.015.12-.01.142.005.487.348.2.198.37.369.382.381.011.012.004.052-.016.089-.03.054-.02.092.052.2.077.115.109.135.249.154.088.012.19.05.227.084.042.038.095.054.139.043.046-.012.07-.045.07-.095 0-.042-.022-.1-.05-.127-.028-.027-.05-.065-.05-.085 0-.02.05-.055.11-.08s.238-.064.395-.086c.18-.026.31-.063.353-.101a.47.47 0 0 1 .148-.084c.074-.022.078-.017.057.067-.019.073-.013.087.03.07.028-.01.051-.005.051.012 0 .018-.049.056-.11.087a.582.582 0 0 0-.125.078.434.434 0 0 1-.132.062.917.917 0 0 1-.243.039c-.126 0-.128.002-.09.085.033.07.03.105-.02.196a.575.575 0 0 0-.06.231.33.33 0 0 0 .043.173c.038.045.054.031.12-.109.071-.147.076-.151.055-.045a1.055 1.055 0 0 0-.02.199.223.223 0 0 0 .078.14c.04.033.095.06.12.06.03 0 .048-.04.05-.108a.568.568 0 0 1 .031-.174c.022-.05.03-.021.032.105.002.145.016.183.09.241a.33.33 0 0 0 .16.069c.067 0 .071-.016.065-.224l-.006-.225.045.175c.025.097.07.213.1.258.03.045.083.082.119.082.035 0 .095-.043.133-.096a.809.809 0 0 0 .101-.274l.032-.178-.006.241c-.006.225-.002.241.065.241a.33.33 0 0 0 .16-.069c.075-.058.089-.096.091-.24.002-.127.01-.155.031-.106.016.036.03.115.032.174.001.074.018.108.054.108.029 0 .091-.038.139-.085.068-.068.082-.108.068-.192a1.042 1.042 0 0 0-.043-.169c-.018-.044-.014-.056.013-.04.022.014.06.094.085.18l.046.156.056-.106a.48.48 0 0 0 .055-.164.687.687 0 0 0-.07-.199c-.053-.11-.06-.156-.033-.207a.33.33 0 0 0 .036-.085c0-.01-.055-.02-.122-.02-.068 0-.181-.017-.253-.038-.072-.02-.13-.05-.13-.066 0-.015-.053-.049-.118-.076-.065-.026-.118-.066-.118-.087 0-.021.024-.03.055-.018.044.017.05.005.032-.065-.02-.078-.015-.084.054-.062a.698.698 0 0 1 .162.085c.048.034.194.076.337.095.139.02.32.057.404.084a.424.424 0 0 1 .235.17.543.543 0 0 0 .198.169.46.46 0 0 0 .242.026c.096-.017.148-.051.212-.144.047-.067.1-.162.12-.21a.328.328 0 0 0 0-.204.502.502 0 0 0-.267-.306.14.14 0 0 1-.08-.069.053.053 0 0 1 .03-.069c.028-.01.05-.047.05-.082 0-.034-.022-.062-.05-.062-.028 0-.047-.019-.042-.042.005-.024-.018-.037-.056-.03a.24.24 0 0 0-.109.055.161.161 0 0 0-.045.097c0 .03.015.053.033.053.019 0 .034.028.034.062 0 .038-.04.079-.104.105a.504.504 0 0 0-.186.171c-.078.122-.09.128-.208.107a1.533 1.533 0 0 1-.204-.052c-.066-.024-.073-.038-.038-.078.022-.028.092-.05.155-.05.062 0 .114-.014.114-.031 0-.018-.02-.044-.045-.058-.025-.015-.062-.094-.083-.175a.502.502 0 0 1-.025-.16c.007-.008.047.005.09.028.072.038.072.034-.014-.066a.472.472 0 0 1-.092-.136.44.44 0 0 0-.087-.13c-.052-.06-.12-.102-.166-.102a.211.211 0 0 0-.13.05c-.027.027-.057.05-.066.05-.01 0-.015-.08-.013-.175a.98.98 0 0 1 .067-.318c.035-.078.088-.152.117-.163.034-.013.08.013.13.074.042.052.099.148.126.214.028.065.058.144.069.176.011.035.038.05.07.038.029-.011.061-.056.072-.1l.02-.078.095.1c.07.075.123.099.217.099a.502.502 0 0 0 .188-.035c.061-.032.058-.04-.053-.137-.066-.057-.111-.111-.101-.12.01-.01.052.013.094.051a.622.622 0 0 0 .17.105c.052.02.135.036.185.036.05 0 .14-.03.2-.066.06-.036.11-.089.11-.116 0-.028-.02-.051-.043-.052a.729.729 0 0 1-.177-.067c-.074-.036-.104-.056-.067-.044.037.011.13.035.208.052.109.024.163.02.241-.02a.574.574 0 0 0 .241-.265c0-.011-.034-.02-.076-.02a1.46 1.46 0 0 1-.244-.047l-.168-.046.219.015c.144.01.247 0 .302-.029a.568.568 0 0 0 .16-.156.445.445 0 0 0 .077-.16c0-.037-.044-.047-.194-.041a2.518 2.518 0 0 1-.26-.001c-.038-.005.025-.02.14-.035a.917.917 0 0 0 .292-.081.572.572 0 0 0 .139-.137.716.716 0 0 0 .075-.25l.02-.169-.098.05a2.808 2.808 0 0 1-.34.123c-.135.04-.263.066-.287.057-.024-.008.003-.027.058-.04.056-.015.171-.06.257-.103a.905.905 0 0 0 .243-.18.71.71 0 0 0 .122-.229.635.635 0 0 0 .013-.24.794.794 0 0 0-.051-.169c-.026-.05-.05-.036-.189.096a2.641 2.641 0 0 1-.334.265.928.928 0 0 1-.212.112c-.02 0 .062-.09.181-.202.126-.115.255-.274.305-.372a.804.804 0 0 0 .086-.281.725.725 0 0 0-.159-.415c-.052-.057-.06-.051-.15.112a3.494 3.494 0 0 1-.233.351c-.075.1-.156.173-.179.165-.023-.01-.07.037-.106.104a1.461 1.461 0 0 1-.16.228c-.052.059-.114.1-.138.09-.026-.01-.061.025-.087.086a1.415 1.415 0 0 1-.242.3l-.199.198.032.175c.024.129.021.201-.01.275a.57.57 0 0 1-.124.17.672.672 0 0 1-.194.107.85.85 0 0 1-.236.036.692.692 0 0 1-.186-.028c-.045-.017-.053-.032-.026-.05.022-.013.041-.011.043.003.001.015.015-.003.031-.04a.433.433 0 0 0 .031-.127c.002-.05-.014-.058-.082-.041-.046.011-.084.006-.084-.011 0-.018.014-.04.032-.051.017-.01-.004-.054-.047-.097a.468.468 0 0 1-.102-.219c-.014-.082-.011-.151.007-.163.018-.012.042-.07.054-.132.012-.061.052-.177.088-.257.057-.129.08-.148.177-.152a1.828 1.828 0 0 1 .364.017c.083.008.198.025.255.038.078.017.12.007.166-.039.06-.059.06-.061-.003-.07a4.6 4.6 0 0 1-.242-.046c-.097-.021-.176-.051-.176-.066 0-.016.038-.028.086-.028.047 0 .118.016.156.036.053.029.076.027.098-.008a.3.3 0 0 0 .03-.131.223.223 0 0 0-.067-.146.493.493 0 0 0-.235-.076c-.092-.009-.16-.029-.15-.045.01-.016.047-.029.082-.029s.1-.017.146-.037a.551.551 0 0 0 .173-.202c.05-.09.124-.179.164-.197.052-.023.108-.018.199.02.094.038.126.071.126.128 0 .043-.04.113-.088.158a.516.516 0 0 0-.114.147c-.016.04-.006.104.026.166l.052.1.031-.094c.028-.08.045-.09.127-.072.084.018.093.012.077-.048a.338.338 0 0 1 .001-.143.57.57 0 0 1 .119-.182l.099-.106-.157-.06a1.128 1.128 0 0 1-.298-.186c-.132-.12-.153-.127-.28-.106-.104.017-.146.043-.17.105a.542.542 0 0 0-.031.162c0 .044-.024.14-.053.211-.03.072-.077.14-.106.151-.03.011-.059.014-.066.007-.007-.007.003-.054.023-.106a.382.382 0 0 0 .015-.187c-.016-.072-.05-.101-.153-.132-.12-.035-.132-.05-.132-.15 0-.061.015-.111.034-.111a.035.035 0 0 0 .034-.036c0-.02-.022-.057-.048-.083-.027-.026-.058-.047-.07-.047-.012 0-.044.021-.07.047-.026.026-.048.064-.048.083 0 .02.015.036.034.036.018 0 .033.051.033.114 0 .098-.013.116-.098.135a.295.295 0 0 0-.14.07c-.023.027-.032.098-.022.171.01.069.029.15.042.183.014.034.008.058-.013.058a.498.498 0 0 1-.156-.104.869.869 0 0 1-.153-.166.134.134 0 0 1-.004-.12 1.409 1.409 0 0 0 .131-.4c.012-.076-.001-.13-.043-.175a.954.954 0 0 0-.232-.146c-.17-.08-.172-.082-.16-.216.008-.074.027-.135.044-.135.016 0 .03-.023.03-.052a.167.167 0 0 0-.14-.146c-.025 0-.064.023-.087.049Zm-11.785.461c.02.039.07.123.11.186.04.064.12.199.175.3.055.1.295.519.531.93a961.344 961.344 0 0 1 1.17 2.032l.129.223.21-.119c.115-.065.465-.243.777-.395.312-.152.584-.282.604-.288.022-.007-.177-.507-.481-1.209L16 6.058l-1.247-.244c-.686-.134-1.303-.255-1.372-.267-.12-.022-.123-.02-.087.047Zm23.34-.047c-.055.015-.662.136-1.348.269l-1.248.242-.503 1.163c-.276.64-.503 1.175-.503 1.189 0 .014.364.205.808.425.445.22.81.4.813.4.003 0 .096-.16.206-.357a515.182 515.182 0 0 1 1.866-3.255c.037-.06.054-.107.039-.105a1.494 1.494 0 0 0-.13.03Zm-23.75.205c0 .012-.204.611-.452 1.333l-.452 1.31.258.352.742 1.01c.267.361.496.67.51.686.014.015.13-.047.256-.137.127-.091.413-.281.635-.423l.529-.336.125-.078-.12-.208-.262-.457-.827-1.446c-.376-.657-.742-1.293-.814-1.411a1.075 1.075 0 0 0-.129-.195Zm24.172.137a3218.03 3218.03 0 0 0-1.872 3.269l-.175.304.29.174c.161.096.501.314.757.485.256.17.476.31.488.309.013-.001.145-.168.293-.372l.48-.654.476-.647.267-.362-.453-1.313a78.968 78.968 0 0 0-.462-1.324c-.006-.006-.046.053-.089.13Zm-11.634.62a.551.551 0 0 0 .171.169c.066.04.115.08.108.086a.608.608 0 0 1-.179-.017.58.58 0 0 0-.18-.017c-.007.007.012.04.043.074.03.034.056.071.056.084 0 .012-.034.022-.076.022-.073 0-.072.003.016.06.086.056.088.063.035.116-.054.053-.054.057 0 .057.032 0 .058.011.058.025a.288.288 0 0 1-.05.097c-.035.05-.039.075-.012.084.024.008.005.063-.052.148a.786.786 0 0 0-.106.22 1.12 1.12 0 0 1-.045.162c-.029.075-.031.074-.079-.039-.027-.064-.036-.121-.02-.127.015-.006-.02-.076-.077-.155-.07-.095-.097-.165-.083-.208a.099.099 0 0 0-.03-.107c-.029-.023-.052-.055-.052-.071 0-.016.025-.03.055-.03.046 0 .048-.008.01-.052-.038-.046-.032-.063.038-.116l.082-.063h-.075c-.042 0-.076-.011-.076-.023 0-.013.025-.05.056-.084.03-.033.05-.067.041-.075a.443.443 0 0 0-.162.018.62.62 0 0 1-.18.021c-.02-.006.018-.042.084-.08a.598.598 0 0 0 .181-.173c.058-.097.075-.103.256-.103.18 0 .197.007.244.096ZM20.02 8.403l-.589.184c-.278.086-.72.236-.983.334-.263.099-.688.27-.943.381-.255.111-.707.327-1.003.478-.296.152-.735.393-.976.535-.24.143-.62.379-.842.525-.222.146-.57.39-.774.54-.204.151-.56.43-.791.62-.232.191-.603.515-.825.72-.222.205-.59.57-.818.81-.228.241-.595.655-.815.92-.22.265-.541.676-.714.914-.173.237-.422.596-.554.797-.131.201-.36.575-.508.83-.148.256-.36.645-.471.864a20.86 20.86 0 0 0-.783 1.777c-.079.21-.188.517-.242.682a19.435 19.435 0 0 0-.443 1.578 17.987 17.987 0 0 0-.341 1.96c-.029.246-.066.62-.083.83-.017.21-.026.876-.02 1.479.008.726.03 1.259.067 1.578.03.265.085.683.123.93.038.246.113.664.167.928.054.264.151.676.215.917.064.24.184.645.267.9.082.253.218.64.3.86.084.218.223.562.31.763a19.257 19.257 0 0 0 .966 1.911c.155.265.426.698.603.963s.47.676.653.914c.182.237.476.603.654.813a23.475 23.475 0 0 0 1.871 1.891c.204.178.525.446.714.597.189.15.564.428.833.618.27.19.69.469.936.62.245.15.68.4.968.556a20.341 20.341 0 0 0 1.923.9l.358.144.231-.127c.127-.07.337-.204.467-.299a4.982 4.982 0 0 0 1.003-1.052 5.9 5.9 0 0 0 .302-.509c.065-.128.156-.352.202-.498a5.14 5.14 0 0 0 .13-.515c.031-.165.046-.495.044-.98-.003-.572-.02-.839-.078-1.226a16.63 16.63 0 0 0-.124-.731c-.028-.13-.064-.24-.081-.246a38.63 38.63 0 0 1-.664-.322 14.616 14.616 0 0 1-1.087-.599c-.25-.157-.597-.393-.771-.524a18.075 18.075 0 0 1-.674-.541 13.375 13.375 0 0 1-.748-.704 15.17 15.17 0 0 1-.702-.777 13.974 13.974 0 0 1-1.204-1.772c-.11-.202-.292-.568-.404-.814-.111-.246-.26-.605-.33-.797-.069-.192-.177-.52-.24-.73a12.877 12.877 0 0 1-.345-1.579 24.15 24.15 0 0 1-.07-.598 13.82 13.82 0 0 1-.035-1.079c0-.41.017-.911.037-1.113a12.706 12.706 0 0 1 .32-1.811c.065-.247.18-.627.255-.845a12.235 12.235 0 0 1 .71-1.645c.094-.174.262-.465.373-.648.11-.183.286-.453.389-.6a14.663 14.663 0 0 1 .918-1.145 14.816 14.816 0 0 1 1.19-1.153c.13-.108.358-.286.506-.397a14.525 14.525 0 0 1 1.28-.84c.166-.095.484-.26.706-.366.222-.106.616-.276.876-.377.26-.102.706-.251.993-.333.287-.082.71-.187.942-.234.232-.046.602-.108.823-.136.221-.029.664-.068.985-.087a9.572 9.572 0 0 1 1.163 0c.32.02.763.059.985.087a12.44 12.44 0 0 1 2.357.552c.11.037.368.134.572.217a13.66 13.66 0 0 1 1.953 1.012c.24.155.574.384.74.51.167.125.402.31.522.412.12.101.39.349.6.55.211.202.504.505.652.674.148.17.416.5.594.736.18.236.423.583.541.771a13.083 13.083 0 0 1 .923 1.79c.101.248.239.62.307.827.068.207.168.558.223.78.055.222.13.578.168.792.037.214.089.573.115.797.034.289.045.687.038 1.356-.007.656-.028 1.074-.068 1.362a13.96 13.96 0 0 1-.428 1.938c-.075.24-.204.609-.287.819-.083.21-.262.606-.398.88a13.84 13.84 0 0 1-.49.897c-.134.22-.348.544-.475.72a16.1 16.1 0 0 1-.54.698 13.427 13.427 0 0 1-1.571 1.563 14.44 14.44 0 0 1-.724.55 14.87 14.87 0 0 1-.796.513c-.231.138-.587.332-.79.432-.205.1-.533.247-.731.328l-.36.146-.052.283c-.028.155-.077.469-.109.697a8.934 8.934 0 0 0-.059 1.097c-.001.426.015.78.043.946.025.146.083.386.129.532.046.146.158.405.25.576.091.17.2.357.241.415.041.058.16.21.265.338.104.128.286.323.404.434.117.11.297.263.399.337.102.076.301.199.444.274l.258.137.415-.164c.228-.09.63-.262.894-.383.263-.12.68-.326.925-.456.246-.131.634-.349.861-.484.227-.135.583-.36.791-.5.208-.14.544-.377.748-.527.204-.15.566-.434.804-.63a20.636 20.636 0 0 0 1.87-1.792c.215-.238.513-.582.663-.764.15-.183.397-.502.55-.71.152-.208.389-.546.524-.753a22.332 22.332 0 0 0 .9-1.51 18.3 18.3 0 0 0 .423-.864c.13-.284.299-.672.376-.864a18.19 18.19 0 0 0 .99-3.422c.046-.247.114-.688.15-.98.038-.292.087-.808.109-1.146.025-.38.033-.943.02-1.478a22.367 22.367 0 0 0-.072-1.377 23.528 23.528 0 0 0-.122-.964 18.406 18.406 0 0 0-.671-2.816 20.627 20.627 0 0 0-.239-.68 23.174 23.174 0 0 0-.305-.77 20.808 20.808 0 0 0-.877-1.782 22.454 22.454 0 0 0-.844-1.362 21.543 21.543 0 0 0-1.345-1.728 22.328 22.328 0 0 0-1.961-1.928 30.823 30.823 0 0 0-.573-.466 23.4 23.4 0 0 0-.437-.335 22.629 22.629 0 0 0-.623-.433 23.339 23.339 0 0 0-.943-.593 21.404 21.404 0 0 0-1.915-.991 33.47 33.47 0 0 0-.707-.294 18.037 18.037 0 0 0-.845-.313 28.907 28.907 0 0 0-1.182-.36c-.008 0-.014.265-.015.59-.001.439-.017.661-.063.871a6.468 6.468 0 0 1-.173.607 5.382 5.382 0 0 1-.282.644c-.093.175-.257.44-.364.586a5.534 5.534 0 0 1-1.046 1.046 8.227 8.227 0 0 1-.493.315c-.149.087-.428.22-.621.294a5.983 5.983 0 0 1-.711.216 6.48 6.48 0 0 1-.736.11 5.357 5.357 0 0 1-1.283-.063 7.01 7.01 0 0 1-.484-.119 6.11 6.11 0 0 1-.633-.23 5.921 5.921 0 0 1-.727-.403 4.663 4.663 0 0 1-.735-.598 5.32 5.32 0 0 1-.552-.648 6.501 6.501 0 0 1-.34-.565 5.966 5.966 0 0 1-.199-.434 6.013 6.013 0 0 1-.268-1.021 6.37 6.37 0 0 1-.037-.723c0-.261-.01-.474-.024-.473a.92.92 0 0 0-.109.03Zm-9.914.287-1.23.043c-.03.003-.036.014-.016.029.018.013.193.196.388.406l1.162 1.244c.444.473.924.99 1.068 1.146.143.156.276.284.293.284.018 0 .181-.128.362-.284a24.7 24.7 0 0 1 .61-.508c.154-.123.31-.242.345-.264.035-.022.064-.053.064-.069 0-.016-.162-.248-.36-.515l-.532-.718-.4-.54-.23-.307-.173.007c-.095.004-.703.025-1.351.046Zm28.089.234-.77 1.037-.55.744.098.07a16.986 16.986 0 0 1 1.023.834l.283.254.11-.122c.06-.067.184-.199.273-.293.09-.094.268-.283.395-.42s.31-.331.404-.431l.929-.993c.416-.445.76-.82.766-.835.006-.015-.1-.035-.235-.046-.136-.01-.617-.027-1.071-.037-.454-.01-.962-.026-1.13-.037l-.306-.02-.219.295Zm2.496.967c-.435.469-.89.958-1.013 1.086-.122.129-.394.421-.604.65-.211.228-.403.434-.427.458-.023.025-.043.055-.043.068 0 .012.145.165.323.338.178.173.458.46.622.637l.3.323.96-.82c.921-.785.96-.823.943-.92a74.58 74.58 0 0 1-.135-1.347 86.914 86.914 0 0 0-.127-1.286c-.004-.022-.363.344-.799.813ZM8.54 9.127c0 .032-.053.597-.117 1.255a92.79 92.79 0 0 1-.134 1.315l-.017.118.778.662c.428.364.825.704.883.755.058.05.145.121.193.157l.088.064.3-.321c.164-.177.445-.467.623-.645l.324-.325-.223-.241-.678-.729-1.178-1.267c-.398-.428-.75-.796-.783-.818-.049-.031-.059-.028-.059.02Zm10.034 1.257c.036.084.066.17.066.192 0 .022-.163.112-.362.2-.199.089-.566.266-.816.394-.25.129-.644.347-.876.484-.231.138-.576.354-.767.48-.19.125-.554.382-.808.572-.254.189-.643.498-.865.687-.223.189-.625.56-.893.825-.27.265-.676.697-.903.958a18.2 18.2 0 0 0-.69.847 42.89 42.89 0 0 0-.474.647c-.107.152-.34.51-.515.798-.175.287-.483.85-.684 1.252-.2.402-.462.978-.583 1.28-.12.3-.288.764-.374 1.029-.085.265-.23.78-.321 1.146-.092.366-.205.889-.25 1.163a23.068 23.068 0 0 0-.172 1.226.53.53 0 0 1-.03.144.74.74 0 0 1-.202-.01c-.178-.021-.188-.028-.188-.114 0-.05.03-.32.068-.598.038-.277.106-.707.153-.955.046-.248.122-.609.168-.803.046-.193.144-.554.217-.8.073-.247.169-.561.214-.698a18.93 18.93 0 0 1 .559-1.445 20.674 20.674 0 0 1 1.11-2.11c.154-.246.38-.59.5-.764.122-.173.327-.456.456-.628a19.123 19.123 0 0 1 1.106-1.319 21.355 21.355 0 0 1 1.208-1.172c.176-.157.366-.323.42-.369a20.971 20.971 0 0 1 1.142-.868c.223-.157.574-.39.78-.519a18.445 18.445 0 0 1 1.81-.986l.559-.26a.88.88 0 0 1 .144-.056c.015 0 .056.067.093.15Zm13.17.07c.264.123.624.297.8.388a19.004 19.004 0 0 1 1.498.88 20.532 20.532 0 0 1 1.65 1.22c.24.197.712.629 1.047.959.336.33.745.757.91.949.165.192.413.49.553.664a18.653 18.653 0 0 1 .997 1.396c.112.173.303.487.424.697a21.115 21.115 0 0 1 .858 1.694c.092.21.253.61.357.887.105.278.264.75.355 1.047.09.298.213.75.272 1.006a19.538 19.538 0 0 1 .273 1.396c.019.128.056.41.082.629.027.218.045.4.04.403a2.19 2.19 0 0 1-.21.03l-.205.022-.04-.392a18.587 18.587 0 0 0-.145-.991 19.46 19.46 0 0 0-.25-1.18c-.08-.32-.192-.727-.248-.906a24.924 24.924 0 0 0-.26-.764 18.131 18.131 0 0 0-.375-.937c-.12-.274-.324-.708-.454-.964a19.7 19.7 0 0 0-.49-.897 20.15 20.15 0 0 0-.554-.876 21.338 21.338 0 0 0-.624-.864c-.177-.23-.45-.569-.607-.751a22.157 22.157 0 0 0-.945-.983c-.363-.357-.85-.805-1.08-.994a21.93 21.93 0 0 0-.792-.615c-.204-.148-.53-.375-.724-.504a20.723 20.723 0 0 0-.852-.521 20.65 20.65 0 0 0-1.706-.87 5.77 5.77 0 0 1-.232-.102.736.736 0 0 1 .066-.194c.042-.1.089-.184.103-.184.015 0 .243.1.507.223ZM18.97 12.033c.04.095.07.174.065.177l-.698.34c-.38.184-.895.457-1.145.606-.25.15-.575.356-.724.458-.148.102-.42.297-.605.434-.186.137-.527.41-.758.605a17.087 17.087 0 0 0-1.72 1.726c-.16.192-.408.503-.55.692a15.875 15.875 0 0 0-1.141 1.783c-.141.256-.36.697-.488.98-.127.283-.311.732-.408.997-.098.265-.245.713-.328.996a16.056 16.056 0 0 0-.429 1.994 13.56 13.56 0 0 0-.073.606l-.023.257h-.196c-.107 0-.202-.012-.211-.026-.01-.015.005-.22.033-.457.027-.237.08-.61.117-.829.038-.22.112-.594.166-.833.054-.239.167-.671.252-.96.085-.29.245-.763.356-1.053.111-.29.305-.749.43-1.02.126-.271.34-.693.475-.938.136-.245.347-.602.469-.794.121-.192.357-.535.522-.764.166-.228.484-.632.707-.897.223-.265.595-.674.827-.91.232-.235.637-.61.9-.834.263-.224.65-.533.859-.687.209-.155.516-.371.683-.481.166-.11.492-.313.724-.45a18.46 18.46 0 0 1 1.073-.57c.36-.176.678-.32.709-.32.035 0 .083.063.13.172Zm12.47.071c.284.134.697.346.92.472.221.126.525.304.673.396.148.092.466.305.707.472.24.167.672.497.959.734.287.236.74.645 1.006.908.266.264.638.658.827.878a16.905 16.905 0 0 1 1.134 1.479c.105.155.277.424.384.598.107.173.333.584.503.913.17.329.382.77.471.98a17.52 17.52 0 0 1 .611 1.71c.064.22.17.63.234.914a15.554 15.554 0 0 1 .304 1.849l.023.27-.206.012-.205.012-.02-.183a17.812 17.812 0 0 0-.204-1.395 16.806 16.806 0 0 0-.215-.947 17.522 17.522 0 0 0-.287-.961 17.7 17.7 0 0 0-.326-.88c-.094-.23-.272-.627-.396-.883a16.595 16.595 0 0 0-.455-.864c-.127-.22-.328-.548-.448-.73-.12-.183-.344-.505-.497-.715a17.64 17.64 0 0 0-.643-.814 16.693 16.693 0 0 0-1.746-1.74 23.926 23.926 0 0 0-.775-.602c-.24-.178-.597-.426-.791-.55a19.846 19.846 0 0 0-.758-.455 18.373 18.373 0 0 0-1.448-.723c-.07-.026-.083-.047-.065-.104.013-.04.044-.122.07-.183.026-.061.07-.111.096-.111.027 0 .28.11.564.243Zm-24.785.368c-.695.186-1.284.346-1.31.355-.033.012-.007.043.081.097.072.044.551.364 1.066.713l1.645 1.11c.39.262.715.47.72.464l.171-.244a14.047 14.047 0 0 1 .682-.893c.117-.145.208-.275.203-.29a28.34 28.34 0 0 0-.964-.843c-.524-.448-.971-.813-.993-.81-.021.002-.607.155-1.301.341Zm34.43.475c-.949.81-.961.822-.905.892a86.19 86.19 0 0 1 .938 1.235l.1.14.352-.24c.193-.133.562-.384.822-.558a871.914 871.914 0 0 0 2.117-1.431c.128-.088.226-.16.218-.16-.008 0-.611-.158-1.34-.35-.73-.191-1.33-.348-1.334-.348-.004 0-.44.369-.969.82Zm-36.012.299c.001.033.081.647.179 1.364.098.717.192 1.318.21 1.334.017.016.521.285 1.12.598.6.312 1.104.56 1.12.549a1.28 1.28 0 0 0 .145-.241c.063-.122.26-.46.438-.75s.32-.532.314-.537a1451.413 1451.413 0 0 1-.783-.53L6.79 14.34l-1.153-.776c-.422-.284-.563-.364-.563-.32Zm39.692.074-1.161.783c-.537.363-1.23.83-1.54 1.037-.309.208-.57.391-.58.407-.01.017.1.221.245.456a18.064 18.064 0 0 1 .629 1.098c.003.005.451-.224.996-.507.545-.284 1.005-.536 1.024-.56a.5.5 0 0 1 .135-.095l.102-.052.18-1.334c.099-.733.174-1.338.168-1.345a.834.834 0 0 0-.198.112Zm-25.297.223c.046.103.08.19.074.195-.005.005-.2.098-.43.206-.232.108-.603.3-.825.424-.223.125-.556.325-.741.444-.185.119-.526.358-.758.532-.231.173-.58.453-.774.622a13.937 13.937 0 0 0-1.217 1.21 15.226 15.226 0 0 0-1.064 1.391c-.1.154-.292.468-.425.698-.133.23-.335.614-.45.851-.114.238-.27.59-.348.781a14.888 14.888 0 0 0-.453 1.332 13.727 13.727 0 0 0-.316 1.463 11.84 11.84 0 0 0-.092.71 3.39 3.39 0 0 0-.018.324c.003.013-.092.025-.213.025-.204 0-.218-.005-.218-.075a15.42 15.42 0 0 1 .189-1.42c.046-.247.13-.628.185-.847.056-.22.177-.628.27-.907.093-.28.244-.69.337-.914a16.032 16.032 0 0 1 .808-1.628c.077-.131.254-.41.392-.621a14.2 14.2 0 0 1 .456-.648 15.107 15.107 0 0 1 .811-.98 16.042 16.042 0 0 1 1.29-1.234c.204-.17.58-.46.837-.644s.604-.417.77-.519c.167-.1.433-.256.59-.344.157-.089.498-.262.757-.387.26-.124.476-.226.482-.227.006 0 .048.084.094.187Zm11.4.06c.246.117.637.32.868.452.232.131.58.344.775.473.194.128.512.353.707.5.194.147.512.405.707.574a16.92 16.92 0 0 1 1.367 1.358c.128.146.347.416.486.598.14.183.323.43.407.549.085.118.268.402.407.63.139.23.331.563.427.742.096.18.263.525.372.768.109.242.266.626.35.853.082.226.203.591.268.81.064.22.164.606.221.858a16 16 0 0 1 .189 1.03c.046.314.084.657.084.762v.19h-.393l-.042-.39a17.03 17.03 0 0 0-.122-.864 15.12 15.12 0 0 0-.214-.996 14.48 14.48 0 0 0-.285-.956 20.499 20.499 0 0 0-.285-.766 13.79 13.79 0 0 0-.328-.73 14.625 14.625 0 0 0-.396-.745 18.294 18.294 0 0 0-.453-.731c-.138-.21-.396-.57-.574-.798-.178-.228-.445-.55-.594-.713a17.982 17.982 0 0 0-.573-.598 14.028 14.028 0 0 0-.641-.586 18.787 18.787 0 0 0-.779-.615c-.242-.18-.668-.466-.946-.634a16.69 16.69 0 0 0-1.604-.84c-.047-.017-.086-.046-.086-.063s.03-.1.066-.184c.036-.083.088-.152.116-.152.027 0 .251.096.498.214Zm-5.772 1.625a.804.804 0 0 0-.216.166 1.3 1.3 0 0 0-.158.254.857.857 0 0 0-.068.366c0 .127.024.27.058.348.032.073.127.234.212.356.148.212.153.228.112.326a.562.562 0 0 1-.157.189c-.09.068-.163.089-.357.102-.21.014-.322.05-.832.273-.324.14-.786.327-1.027.415-.24.087-.523.2-.627.252a1.03 1.03 0 0 0-.277.198.333.333 0 0 0-.089.226c0 .067.022.256.05.42.027.165.088.47.136.68.048.208.11.5.138.647.028.148.062.481.075.741.02.43.03.48.099.549.065.064.111.075.325.075.202 0 .267-.014.344-.071.081-.06.095-.094.093-.222 0-.11-.044-.236-.157-.463l-.157-.312.02-.903.02-.903h.178c.098 0 .295-.016.438-.036.144-.02.36-.071.481-.114.121-.044.226-.074.233-.068.006.007.05.301.095.655.046.354.085.755.087.892a.863.863 0 0 1-.07.415 1.259 1.259 0 0 1-.203.3c-.07.072-.159.184-.197.248a2.04 2.04 0 0 0-.14.344 1.74 1.74 0 0 0-.07.424c0 .11.027.266.063.358.034.089.103.216.154.28l.092.12-.086.11a3.741 3.741 0 0 0-.253.459 4.992 4.992 0 0 0-.391 1.173c-.014.085-.035.154-.048.154a2.74 2.74 0 0 1-.257-.08 3.551 3.551 0 0 0-.497-.121 3.557 3.557 0 0 0-.673-.022 9.601 9.601 0 0 0-.932.111c-.287.05-.574.092-.639.093-.096.002-.12-.012-.141-.08a2.26 2.26 0 0 1-.043-.171c-.012-.059-.057-.106-.137-.143-.066-.03-.148-.047-.184-.036-.035.011-.138.12-.228.243s-.254.35-.362.505a14.24 14.24 0 0 1-.364.495c-.125.159-.171.25-.184.357-.01.1.001.169.04.227.03.046.07.084.088.084.018 0 .297-.173.62-.385l.585-.384.315.002c.173 0 .549.031.836.067.287.037.802.105 1.145.153.342.047.838.095 1.102.105l.48.02.119-.125c.065-.069.409-.556.763-1.083l.643-.96.091.054c.05.029.228.152.395.273l.741.535.438.316.004.227c.002.125.028.32.057.432.03.113.11.37.181.57.071.201.259.683.417 1.071.159.388.298.756.31.818a.326.326 0 0 1-.028.208.982.982 0 0 0-.072.2.576.576 0 0 0 .013.233c.02.07.064.164.099.208.056.071.084.078.26.068.11-.007.278-.01.375-.006.106.003.334.059.57.14.225.076.454.133.539.133.08 0 .196-.02.255-.045a.569.569 0 0 0 .172-.115.277.277 0 0 0 .063-.16.194.194 0 0 0-.08-.149.558.558 0 0 0-.18-.082 4.435 4.435 0 0 1-.325-.096 2.028 2.028 0 0 1-.437-.226 3.14 3.14 0 0 1-.356-.296l-.14-.143-.105-.648-.222-1.346a61.307 61.307 0 0 0-.187-1.073c-.064-.337-.086-.393-.21-.555a21.848 21.848 0 0 0-.679-.772c-.296-.326-.577-.637-.623-.69a9.714 9.714 0 0 1-.256-.318 2.777 2.777 0 0 1-.295-.514 2.356 2.356 0 0 1-.143-.428c-.014-.108.01-.194.116-.435.074-.166.228-.592.343-.947.115-.355.225-.665.243-.688.02-.022.047-.041.062-.041.014 0 .044.051.064.114a5.215 5.215 0 0 0 .647.954c.08.085.186.18.236.21.083.051.097.051.195.001.058-.03.167-.108.242-.175.075-.067.224-.227.33-.356.106-.128.296-.381.423-.563.127-.181.323-.428.435-.548a4.52 4.52 0 0 1 .275-.275.58.58 0 0 0 .128-.196.942.942 0 0 0 .058-.28.49.49 0 0 0-.022-.181.381.381 0 0 0-.138-.087.843.843 0 0 0-.266-.047.855.855 0 0 0-.27.049l-.117.048v.246c0 .135-.016.29-.035.345-.022.06-.182.229-.411.429-.207.18-.44.377-.518.437a.698.698 0 0 1-.175.108c-.017 0-.088-.131-.157-.291a30.64 30.64 0 0 0-.322-.699 6.36 6.36 0 0 0-.35-.636c-.142-.21-.166-.231-.313-.263a6.592 6.592 0 0 0-.295-.056.509.509 0 0 1-.176-.056c-.023-.019-.042-.084-.042-.144 0-.077.023-.127.074-.162a.382.382 0 0 1 .186-.052c.097 0 .11-.01.11-.092 0-.05.01-.123.02-.163.016-.056.003-.075-.059-.087l-.079-.015.074-.024c.052-.017.077-.056.084-.13.008-.078.029-.106.086-.114.047-.007.076-.034.076-.07a.81.81 0 0 0-.044-.19 1.464 1.464 0 0 1-.052-.344.99.99 0 0 0-.088-.388c-.055-.12-.114-.19-.192-.23-.08-.043-.225-.064-.516-.078-.35-.016-.421-.01-.53.043ZM4.248 16.664c-.482.19-1.417.558-2.08.817-.661.26-1.203.48-1.203.491 0 .011.383.144.85.295.468.15 1.623.527 2.567.836.945.309 1.813.59 1.93.626l.212.065.03-.072c.017-.04.116-.296.22-.57.106-.274.31-.759.456-1.078.146-.318.262-.582.257-.586a620.37 620.37 0 0 1-1.88-.99c-.196-.102-.385-.185-.42-.183-.035.001-.458.158-.94.349Zm39.49.194c-.574.3-1.071.565-1.105.59-.06.041-.055.06.095.375.087.183.253.557.368.83.116.275.262.645.326.823.063.178.128.324.145.324.017 0 .858-.269 1.869-.597l2.73-.884c.49-.159.905-.296.922-.306.017-.01-.915-.389-2.07-.843a137.546 137.546 0 0 0-2.169-.842c-.043-.01-.443.181-1.11.53ZM.73 18.371c0 .015.055.122.122.238.066.116.22.39.342.61l.305.547.418.748.808 1.454c.345.622.494.861.545.872.038.01.562.091 1.164.183.602.092 1.134.175 1.182.185.088.017.09.014.13-.259a19.08 19.08 0 0 1 .358-1.72c.065-.247.155-.575.202-.728.047-.153.073-.29.058-.303a67.857 67.857 0 0 0-1.93-.643c-1.046-.34-2.308-.751-2.803-.915-.495-.163-.9-.285-.9-.27Zm48.396.067c-.037.017-1.204.398-2.592.848-1.39.45-2.599.84-2.688.868-.123.039-.16.065-.148.106l.17.603c.084.301.206.795.27 1.096.065.302.144.71.176.908.055.334.064.358.13.343.038-.01.615-.109 1.282-.222.666-.113 1.22-.215 1.232-.227.011-.012.096-.163.19-.337a2594.676 2594.676 0 0 1 2.063-3.845c.078-.146.085-.174.038-.172a.42.42 0 0 0-.123.031ZM46.5 23.273c-.13.024-.645.114-1.145.199s-.914.16-.92.165c-.006.006.005.143.025.304.02.162.052.57.073.908.02.338.04.617.043.619.003.002.83-.016 1.84-.04 1.009-.024 1.946-.044 2.081-.045l.247-.002-.129-.145c-.07-.08-.279-.308-.463-.507s-.57-.62-.857-.934a10.404 10.404 0 0 0-.542-.57l-.253.047Zm-44.01.857c-.439.478-.867.941-.95 1.03a1.508 1.508 0 0 0-.164.19c-.006.017.054.03.134.03a311.154 311.154 0 0 1 3.535.081l.459.016.023-.439c.013-.24.045-.654.07-.917a7.06 7.06 0 0 0 .04-.486 62.017 62.017 0 0 0-1.12-.178c-.61-.094-1.136-.177-1.169-.183-.04-.01-.295.244-.857.856Zm4.509 1.254c.061.056.225.168.364.25.139.08.396.194.572.252.306.101.342.106.842.103.287-.001.78-.015 1.094-.031.315-.016.762-.02.993-.008.237.012.55.051.715.09.162.039.37.109.464.155.094.047.23.145.305.218.074.073.186.213.25.31.063.099.153.274.2.39.047.116.116.33.153.474.037.145.068.31.068.367v.104l-.199-.19a1.946 1.946 0 0 0-.395-.288 3.29 3.29 0 0 0-.366-.151 4.162 4.162 0 0 0-.505-.104 7.184 7.184 0 0 0-.858-.05c-.287 0-.734.023-.993.05-.26.028-.638.051-.842.052a3.613 3.613 0 0 1-.623-.05 2.756 2.756 0 0 1-.537-.19 2.236 2.236 0 0 1-.442-.283 1.163 1.163 0 0 1-.249-.347 2.335 2.335 0 0 1-.138-.457 2.993 2.993 0 0 1-.046-.387c0-.073.008-.189.02-.257a.423.423 0 0 1 .03-.125c.007 0 .061.046.123.103Zm36.332.29a2.644 2.644 0 0 1-.062.537 2.023 2.023 0 0 1-.146.378 1.324 1.324 0 0 1-.241.295 2.249 2.249 0 0 1-.422.262 2.73 2.73 0 0 1-.505.178c-.13.027-.41.05-.623.05-.213 0-.6-.022-.858-.05-.26-.027-.692-.049-.96-.05-.27 0-.618.016-.775.035a5.483 5.483 0 0 0-.504.087c-.12.029-.317.1-.436.156-.12.058-.313.193-.43.3-.117.108-.219.19-.225.183a1.99 1.99 0 0 1 .052-.32c.035-.17.11-.424.167-.566a3.12 3.12 0 0 1 .253-.479c.083-.122.197-.261.255-.31.057-.047.174-.12.26-.163.085-.042.283-.11.44-.15.229-.06.416-.079.926-.093.378-.01.921 0 1.328.026.547.035.745.035.97.003.156-.022.406-.084.556-.138.15-.054.373-.157.494-.229.122-.071.266-.176.32-.232.07-.072.11-.093.135-.068.02.02.033.17.03.357Zm-41.94.178a169.765 169.765 0 0 0 1.792 2.065c.012.006.548-.036 1.191-.093.643-.058 1.178-.114 1.19-.125.01-.01.003-.264-.017-.563-.02-.298-.036-.701-.036-.895v-.353l-.665-.021c-.366-.011-1.097-.028-1.624-.038a83.39 83.39 0 0 1-1.428-.037l-.468-.02.064.08Zm45.294-.02c-.898.022-1.742.042-1.877.044l-.244.003v.315c0 .173-.016.578-.036.9-.02.321-.029.593-.019.603.01.01.493.06 1.072.112.58.051 1.115.1 1.19.11.135.017.138.015.37-.256.128-.15.54-.626.915-1.06.376-.432.683-.795.683-.805 0-.01-.095-.016-.21-.013l-1.844.046ZM7.18 27.144c.035.038.164.128.286.2.122.072.35.174.506.228.157.054.428.115.603.136.276.033.403.029.948-.032.346-.04.862-.08 1.146-.092.339-.014.633-.007.852.02.184.023.456.08.604.125.244.076.29.105.508.32.183.181.273.305.378.52.076.155.177.415.224.577.047.162.086.332.086.378 0 .08-.006.079-.16-.064a2.207 2.207 0 0 0-.321-.24 2.628 2.628 0 0 0-.395-.172 3.566 3.566 0 0 0-.611-.117 7.285 7.285 0 0 0-.884-.02c-.28.01-.78.059-1.114.107-.474.07-.683.085-.96.071a3.454 3.454 0 0 1-.555-.07 2.952 2.952 0 0 1-.437-.166 2.159 2.159 0 0 1-.373-.23 1.259 1.259 0 0 1-.24-.309 2.165 2.165 0 0 1-.158-.411 2.643 2.643 0 0 1-.054-.524c0-.168.013-.305.028-.305.016 0 .057.032.093.07Zm35.94.055c.002.068.001.207-.002.307a2.268 2.268 0 0 1-.23.841c-.05.09-.151.215-.226.278a2.199 2.199 0 0 1-.371.23c-.13.063-.32.137-.421.164a3.394 3.394 0 0 1-.539.07c-.286.015-.478.001-1.01-.075a7.402 7.402 0 0 0-1.38-.093c-.546.001-.786.015-.977.057a2.83 2.83 0 0 0-.521.186c-.148.073-.34.2-.427.283a1.393 1.393 0 0 1-.173.152.796.796 0 0 1 .03-.215 4.82 4.82 0 0 1 .117-.423 2.646 2.646 0 0 1 .427-.793c.07-.085.19-.202.269-.262.078-.059.258-.144.398-.188.141-.044.41-.097.599-.117.197-.022.541-.029.813-.017.26.01.706.046.993.079.288.032.666.058.842.057.176 0 .426-.026.556-.057.13-.03.319-.09.42-.132.102-.042.261-.116.354-.165a1.84 1.84 0 0 0 .286-.188.63.63 0 0 1 .143-.102c.014-.001.027.054.03.123ZM4.349 28.24a63.01 63.01 0 0 1-1.064.095c-.075.002-.118.06-.342.46l-.678 1.202c-.232.41-.419.75-.415.753.004.003.913-.177 2.02-.402a74.528 74.528 0 0 0 2.033-.427c.01-.01-.019-.218-.066-.46a19.34 19.34 0 0 1-.145-.883l-.06-.44-.154.004c-.084.002-.592.046-1.13.097Zm40.014.436c-.042.295-.11.698-.15.896l-.073.358.186.037.742.149 1.801.364c.685.138 1.273.26 1.305.27.032.01.059.003.059-.014s-.187-.358-.415-.758c-.228-.4-.526-.926-.661-1.17-.136-.244-.264-.45-.284-.457-.02-.007-.534-.058-1.141-.113s-1.146-.1-1.198-.1h-.093l-.078.538Zm-36.774.323a2.707 2.707 0 0 0 .78.348c.1.03.308.069.463.088.19.023.366.023.542.001.143-.018.465-.063.715-.1.25-.037.684-.085.964-.106a4.111 4.111 0 0 1 1.445.107c.138.042.283.119.394.208.097.078.233.216.302.306.07.09.178.269.242.397.063.128.147.33.186.448.04.12.08.273.091.343l.021.127-.13-.12a2.099 2.099 0 0 0-.334-.232 2.766 2.766 0 0 0-.438-.184c-.185-.057-.354-.076-.79-.09a6.848 6.848 0 0 0-.91.022c-.194.022-.595.085-.892.14-.4.073-.646.099-.96.101-.303.003-.48-.013-.639-.055a3.181 3.181 0 0 1-.46-.174 1.692 1.692 0 0 1-.382-.255 1.468 1.468 0 0 1-.235-.337 2.382 2.382 0 0 1-.202-.912c0-.11.007-.2.017-.2.01 0 .104.057.21.129Zm35.224.069a2.49 2.49 0 0 1-.204.898 1.403 1.403 0 0 1-.246.358 1.864 1.864 0 0 1-.377.252c-.13.065-.343.143-.472.174-.15.036-.372.055-.62.055-.286 0-.538-.028-.96-.103-.315-.057-.7-.119-.858-.138a7.887 7.887 0 0 0-.744-.034c-.26 0-.587.022-.752.05-.16.028-.388.094-.506.146a2.688 2.688 0 0 0-.402.233c-.104.076-.189.152-.189.17a.032.032 0 0 1-.03.032c-.017 0-.01-.091.017-.203a3.858 3.858 0 0 1 .356-.886c.056-.098.185-.265.286-.373.106-.113.259-.232.36-.28.096-.047.28-.106.41-.132a5.32 5.32 0 0 1 .52-.07c.158-.011.497-.005.754.016.257.02.78.082 1.161.138.636.092.72.097 1.011.064.174-.02.456-.082.627-.138.178-.058.417-.169.559-.26.136-.087.26-.152.273-.144.014.007.026.086.026.174Zm-27.828.801c-.007.011.038.138.1.283a11.615 11.615 0 0 0 1.008 1.824c.074.109.182.258.238.331a11.406 11.406 0 0 0 .979 1.142c.204.208.537.517.74.686.204.17.545.431.758.581.213.15.566.378.784.505.217.127.611.333.875.458.263.124.672.295.909.38.236.084.584.197.774.25a11.79 11.79 0 0 0 1.288.281c.166.028.497.068.735.09.274.024.737.032 1.262.02.506-.012.969-.04 1.184-.073a12.355 12.355 0 0 0 1.507-.318c.199-.057.566-.179.816-.27.25-.093.654-.262.899-.377.244-.115.615-.31.825-.433a12.457 12.457 0 0 0 .936-.609c.064-.047.269-.204.454-.35.185-.145.534-.459.775-.698.242-.239.568-.59.726-.783.158-.192.379-.476.49-.631a12.284 12.284 0 0 0 .728-1.163c.086-.155.23-.447.323-.649.092-.201.172-.395.178-.429.012-.061-.218-.063-10.133-.065-5.58-.002-10.151.006-10.158.017Zm-11.017.878c-1.099.224-2.003.413-2.01.42-.005.006.174.147.399.313l1.12.822c.392.286.731.52.754.52.023 0 .536-.159 1.14-.353a25.02 25.02 0 0 0 1.127-.378c.015-.014-.025-.188-.09-.386a22.34 22.34 0 0 1-.359-1.233c-.02-.078-.047-.14-.06-.138l-2.021.413Zm40.074-.375c-.008.023-.054.198-.102.388-.049.19-.155.56-.237.821-.083.262-.15.482-.15.49 0 .009.505.181 1.122.384a25.67 25.67 0 0 0 1.172.367c.028 0 .209-.116.402-.257l1.118-.818c.422-.308.76-.568.751-.577a1.481 1.481 0 0 0-.245-.064l-.97-.198a10327.432 10327.432 0 0 1-2.77-.561c-.045-.01-.082 0-.091.024Zm-14.434.21a2.6 2.6 0 0 1 .546.187c.214.102.341.192.505.356.13.13.27.315.343.453.069.129.158.353.2.499.06.209.075.35.075.679 0 .29-.019.486-.06.648a3.35 3.35 0 0 1-.17.465 2.16 2.16 0 0 1-.274.419c-.09.102-.24.242-.333.311a2.42 2.42 0 0 1-.372.219c-.112.05-.302.118-.421.15a2.37 2.37 0 0 1-.604.058c-.264 0-.457-.018-.605-.058a2.81 2.81 0 0 1-.421-.158 2.8 2.8 0 0 1-.384-.237 1.958 1.958 0 0 1-.31-.305 2.794 2.794 0 0 1-.227-.366 2.807 2.807 0 0 1-.161-.416c-.045-.16-.06-.335-.06-.68 0-.342.015-.523.06-.681a3 3 0 0 1 .177-.454 2.33 2.33 0 0 1 .31-.446 2.33 2.33 0 0 1 .387-.334c.109-.07.283-.158.387-.197.105-.039.289-.09.41-.114a3.2 3.2 0 0 1 .48-.047c.145-.001.38.02.522.048Zm-7.096.494v.447l-.865.003c-.476.001-.87.008-.877.014-.007.007-.015.772-.019 1.702l-.007 1.69-.564.01-.564.008v-4.32h2.896v.446Zm4.107-.014v.432h-1.313v3.455h-1.111v-3.455h-1.313v-.864h3.737v.432Zm2.07.377a1.094 1.094 0 0 0-.293.214 1.517 1.517 0 0 0-.19.265 2 2 0 0 0-.123.342 2.432 2.432 0 0 0-.058.53c0 .185.021.4.053.522.03.115.086.269.124.342.038.074.123.193.188.264.065.072.196.168.291.215a.77.77 0 0 0 .396.085.77.77 0 0 0 .395-.086 1.07 1.07 0 0 0 .281-.206 1.656 1.656 0 0 0 .333-.701c.019-.099.034-.309.034-.467a2.37 2.37 0 0 0-.051-.485 2.376 2.376 0 0 0-.137-.37 1.253 1.253 0 0 0-.248-.319 1 1 0 0 0-.297-.184 1.432 1.432 0 0 0-.331-.039.842.842 0 0 0-.367.078Zm-19.74.12c.192.021.477.067.635.104.157.036.363.1.458.144.095.043.236.134.312.202.08.07.208.25.296.411.086.157.212.383.28.502.069.119.203.361.298.539.096.177.174.338.174.357 0 .02-.088.034-.21.034-.116 0-.34-.03-.497-.067a8.676 8.676 0 0 1-.556-.154 4.02 4.02 0 0 1-.5-.204 1.11 1.11 0 0 1-.395-.32 3.136 3.136 0 0 1-.284-.424A9.685 9.685 0 0 1 8.654 32l-.205-.5c-.013-.032.002-.034.067-.01.047.018.242.048.433.069Zm32.506-.024-.19.472a9.242 9.242 0 0 1-.307.685 2.67 2.67 0 0 1-.315.452 1.626 1.626 0 0 1-.343.282 4 4 0 0 1-.484.193 7.456 7.456 0 0 1-.606.169 2.92 2.92 0 0 1-.496.064c-.116 0-.21-.01-.21-.02 0-.012.2-.388.445-.836.281-.513.497-.865.583-.953.075-.077.222-.18.326-.228a2.55 2.55 0 0 1 .419-.142c.126-.029.426-.08.667-.112.24-.032.458-.061.483-.063.026-.003.038.014.028.037ZM13.17 32.611c.17.168.386.417.48.555.093.138.205.338.248.444.073.177.08.239.078.774-.001.32-.02.693-.044.83a7.333 7.333 0 0 1-.095.465c-.03.12-.084.276-.12.348l-.068.131-.072-.085-.688-.824c-.34-.406-.662-.8-.717-.877a1.2 1.2 0 0 1-.148-.321c-.027-.1-.05-.31-.05-.465 0-.155.023-.401.051-.548.029-.146.096-.424.15-.618.055-.194.11-.416.122-.493l.023-.14.27.26c.15.143.41.397.58.565Zm24.571-.204c.048.165.11.404.136.532.027.128.06.339.072.468.014.143.007.33-.017.475a1.543 1.543 0 0 1-.12.385c-.043.08-.356.477-.695.883-.34.405-.662.794-.718.864a.588.588 0 0 1-.122.13c-.012 0-.055-.078-.097-.173a3.054 3.054 0 0 1-.138-.473 8.071 8.071 0 0 1-.102-.815c-.03-.407-.03-.567.004-.762a1.75 1.75 0 0 1 .171-.492 3.31 3.31 0 0 1 .322-.478c.105-.128.413-.44.683-.693l.491-.461.021.155c.012.086.061.29.11.455Zm-32.262.46-1.125.37-.043.134c-.023.073-.186.626-.362 1.229-.176.603-.33 1.137-.343 1.188-.021.086-.017.09.057.061.044-.016.208-.09.366-.162.157-.073.46-.211.673-.307.213-.096.539-.244.724-.33.185-.084.696-.318 1.136-.517.44-.2.8-.376.8-.392 0-.016-.09-.226-.198-.466-.108-.24-.263-.605-.343-.811-.08-.206-.162-.372-.181-.37-.02 0-.542.17-1.161.373Zm37.722.113c-.109.27-.263.63-.343.802-.08.171-.146.328-.146.349 0 .02.24.144.53.276.292.131 1.14.516 1.888.855.746.34 1.362.617 1.369.617.006 0-.004-.056-.023-.125a296.987 296.987 0 0 0-.743-2.518 83.43 83.43 0 0 0-1.15-.377 59.638 59.638 0 0 0-1.164-.369c-.012 0-.11.22-.218.49Zm-28.163 1.455c.231.161.535.386.675.5.14.114.318.276.396.36.078.084.203.245.277.358.075.114.165.304.2.424.036.12.082.366.103.547.021.182.038.57.038.864 0 .377-.017.604-.056.774-.031.132-.07.25-.089.26-.018.011-.112-.047-.209-.129a80.455 80.455 0 0 1-1.534-1.398c-.178-.168-.276-.293-.341-.435a2.25 2.25 0 0 1-.131-.382 3.85 3.85 0 0 1-.038-.604c0-.232.026-.599.055-.814a6.49 6.49 0 0 0 .056-.585l.003-.192.087.079c.048.043.276.211.508.373Zm20.443-.351c-.009.054.019.372.06.706.054.441.07.707.057.973a2.436 2.436 0 0 1-.087.582 1.75 1.75 0 0 1-.17.366c-.054.081-.428.447-.831.812-.403.366-.82.743-.93.84a1.349 1.349 0 0 1-.222.173c-.014 0-.044-.05-.067-.112a2.642 2.642 0 0 1-.078-.407 5.771 5.771 0 0 1-.018-.793 9.33 9.33 0 0 1 .058-.764c.02-.146.066-.347.102-.446.035-.1.113-.261.174-.36.06-.099.238-.304.396-.458a6.26 6.26 0 0 1 .505-.44c.12-.09.37-.268.555-.396.185-.129.375-.265.42-.303.047-.038.086-.07.088-.07a.965.965 0 0 1-.012.097Zm-24.14.097c.124.04.285.117.358.17.074.052.27.25.437.438.167.188.525.595.796.904.27.309.486.578.48.598-.007.02-.087.056-.178.08-.122.032-.354.039-.873.028a8.145 8.145 0 0 1-.976-.066 3.345 3.345 0 0 1-.455-.12 2.128 2.128 0 0 1-.416-.24 3.374 3.374 0 0 1-.444-.418 9.65 9.65 0 0 1-.51-.679 26.772 26.772 0 0 0-.406-.579 1.92 1.92 0 0 1-.109-.154c0-.005.156-.011.345-.016.19-.003.482-.018.648-.033.167-.014.478-.017.691-.006a2.4 2.4 0 0 1 .612.093Zm29.271-.05.275.004-.065.083c-.036.045-.18.255-.321.465-.142.21-.344.494-.45.631a5 5 0 0 1-.398.449c-.113.11-.3.256-.417.325-.116.07-.288.148-.383.175a4.959 4.959 0 0 1-.539.098 8.428 8.428 0 0 1-.922.046 5.246 5.246 0 0 1-.724-.042c-.092-.02-.168-.055-.168-.077 0-.02.32-.402.711-.846.391-.445.773-.872.85-.95a1.42 1.42 0 0 1 .307-.224c.094-.047.257-.107.363-.134.153-.038.34-.044.9-.028.389.011.83.022.981.024ZM5.67 35.394a168.8 168.8 0 0 0-1.859.854c-.007.008.49.23 1.104.493l1.291.553.173.075.416-.252c.23-.138.692-.414 1.03-.613.336-.2.62-.373.628-.387.008-.014-.054-.137-.138-.273a22.2 22.2 0 0 1-.36-.614 32.435 32.435 0 0 1-.29-.523c-.046-.087-.098-.157-.117-.156-.019.001-.864.38-1.878.843Zm36.653-.538a23.198 23.198 0 0 1-.676 1.174c-.045.068-.007.094 1.012.704l1.058.635.483-.209 1.283-.552c.44-.188.789-.354.774-.368-.014-.013-.855-.4-1.868-.858a82.726 82.726 0 0 0-1.873-.833c-.018 0-.105.138-.193.307Zm-24.507 1.686c.296.152.69.374.875.494.186.12.443.323.573.452.13.128.284.324.343.434.059.11.147.334.195.498.048.164.127.5.174.747.067.343.088.563.092.936.002.296-.01.502-.03.523-.024.023-.104-.01-.253-.108-.12-.078-.362-.24-.538-.36a391.283 391.283 0 0 0-1.094-.74 5.253 5.253 0 0 1-.448-.33 1.666 1.666 0 0 1-.212-.259 2.014 2.014 0 0 1-.17-.348 4.273 4.273 0 0 1-.118-.41c-.028-.126-.06-.55-.077-1.014-.015-.438-.04-.826-.055-.862-.026-.062-.023-.062.089.004.063.037.358.192.654.343Zm15.031-.313c-.018.047-.032.29-.032.542 0 .252-.016.62-.036.82-.02.2-.063.478-.098.618s-.111.35-.17.465a1.68 1.68 0 0 1-.245.354c-.078.08-.544.418-1.037.754-.492.335-.99.672-1.106.748-.162.106-.218.129-.24.095a1.156 1.156 0 0 1-.048-.277 3.004 3.004 0 0 1 .015-.533 8.986 8.986 0 0 1 .237-1.263c.054-.2.12-.418.149-.482a2.02 2.02 0 0 1 .152-.265c.057-.082.19-.237.297-.344.106-.107.338-.29.514-.405.175-.115.6-.354.942-.53.343-.177.638-.335.655-.352.018-.017.044-.03.058-.03.014 0 .011.038-.007.085Zm-24.407.387c-.12.075-.582.353-1.027.617a78.65 78.65 0 0 0-.82.492c-.008.006-.046.618-.085 1.36-.039.743-.064 1.355-.054 1.36.009.005.223-.15.476-.344l.943-.722a2916.089 2916.089 0 0 0 1.908-1.459 1.314 1.314 0 0 0-.162-.22 19.05 19.05 0 0 1-.532-.715c-.199-.278-.376-.505-.394-.505-.019 0-.133.061-.253.136Zm32.855-.066a9.116 9.116 0 0 1-.326.469 20.07 20.07 0 0 1-.486.643c-.19.236-.197.25-.136.293.036.024.15.11.254.188a1062.517 1062.517 0 0 1 2.828 2.162c.111.087.208.153.215.146.007-.007-.019-.609-.056-1.338-.038-.729-.08-1.343-.094-1.365-.013-.023-.229-.163-.479-.312l-1.031-.616c-.318-.19-.594-.344-.614-.344-.02 0-.053.033-.075.075Zm-27.392.36c.089.017.232.066.32.11s.326.221.53.394c.203.173.626.537.94.81.313.271.575.51.581.531.007.02-.06.068-.148.105a2.659 2.659 0 0 1-.438.12 9.305 9.305 0 0 1-.74.09 7.58 7.58 0 0 1-.801.021 2.22 2.22 0 0 1-.548-.087 2.9 2.9 0 0 1-.45-.212 3.88 3.88 0 0 1-.581-.472 24.653 24.653 0 0 1-.723-.74l-.38-.407h.122c.068 0 .3-.043.516-.096.217-.054.485-.116.596-.138a5.13 5.13 0 0 1 .471-.063c.148-.013.338-.017.421-.01.083.007.224.027.312.044Zm23.204.012c.148.026.459.093.69.148.232.054.47.104.53.11l.108.01-.159.166a11.12 11.12 0 0 0-.29.316c-.071.082-.295.316-.497.52a5.37 5.37 0 0 1-.618.537 2.8 2.8 0 0 1-.445.239c-.107.04-.285.087-.396.105-.118.02-.421.026-.724.014a9.73 9.73 0 0 1-.842-.068 4.466 4.466 0 0 1-.538-.116 1.718 1.718 0 0 1-.27-.102c-.042-.028-.026-.055.09-.158.078-.068.515-.446.972-.838.457-.393.87-.736.92-.762a2.15 2.15 0 0 1 .274-.106c.129-.041.297-.06.555-.06.204-.002.492.019.64.045Zm-27.097 1.34c-.009.015-.752.587-1.65 1.271-.9.685-1.635 1.254-1.636 1.265 0 .012.056.03.125.04.07.01.677.117 1.35.238.672.121 1.242.216 1.266.21.023-.005.439-.39.923-.855.484-.465.88-.862.88-.882 0-.02-.107-.139-.238-.264a15.932 15.932 0 0 1-.61-.638 9.934 9.934 0 0 0-.383-.41c-.006 0-.018.011-.027.026Zm29.706.309a13.97 13.97 0 0 1-.597.637c-.17.17-.31.318-.311.33 0 .013.314.327.698.7.384.372.793.764.91.871l.21.195 1.363-.244c.75-.134 1.363-.253 1.363-.265 0-.012-.38-.312-.846-.667a931.74 931.74 0 0 1-1.237-.945c-.215-.165-.583-.446-.818-.623a8.606 8.606 0 0 0-.437-.321c-.006.001-.14.15-.298.332Zm-22.371.816c.092.03.198.075.235.097.037.022.25.157.472.299l.69.44.623.398c.185.118.363.238.394.265.055.047.054.053-.016.108a1.551 1.551 0 0 1-.21.123 4.535 4.535 0 0 1-.454.17 8.363 8.363 0 0 1-1.485.307c-.31.034-.394.032-.64-.017a2.867 2.867 0 0 1-.518-.165 4.349 4.349 0 0 1-.472-.261 9.358 9.358 0 0 1-.605-.455l-.628-.508-.258-.206.174-.053c.095-.03.385-.137.644-.239.26-.1.562-.21.674-.241.11-.032.308-.078.437-.103.134-.025.352-.039.505-.03.148.007.345.04.438.07Zm16.076-.055c.12.017.355.07.521.118.167.047.53.175.808.283.278.108.556.206.619.218.085.017.1.03.062.05-.028.016-.296.23-.596.476-.3.245-.655.521-.79.613a4.832 4.832 0 0 1-.476.28 3.442 3.442 0 0 1-.435.177c-.147.044-.298.06-.555.056a5.126 5.126 0 0 1-.808-.09c-.25-.047-.613-.131-.807-.188a4.778 4.778 0 0 1-.562-.203 1.14 1.14 0 0 1-.252-.15c-.036-.043-.032-.06.023-.1a36.3 36.3 0 0 1 .672-.435l1.028-.657c.232-.15.473-.298.534-.33a1.66 1.66 0 0 1 .319-.1c.114-.025.267-.046.341-.047.074-.001.233.012.354.03Zm4.713.822a25.65 25.65 0 0 1-1.406 1.142c-.041.025-.075.059-.075.075s.138.217.308.449a139.923 139.923 0 0 0 .813 1.1l.768 1.047 1.045 1.424.533.725.005-.26a5.3 5.3 0 0 1 .011-.294c.003-.019.017-.295.031-.615.014-.32.03-.634.037-.697.007-.064.039-.682.072-1.374l.06-1.257-.352-.337-.924-.89-.573-.553-.353.315Zm-26.888.035c-.187.178-.602.575-.922.884l-.58.56.021.536c.012.295.03.782.04 1.084.01.301.033.914.05 1.362.018.448.032.967.032 1.154 0 .188.014.34.03.34.017 0 .795-1.057 1.729-2.35a515.457 515.457 0 0 0 1.72-2.389c.015-.024-.116-.144-.339-.313a15.616 15.616 0 0 1-1.124-.935 4.708 4.708 0 0 0-.303-.257 7.47 7.47 0 0 0-.354.324Zm1.789 2.375c-.386.534-.832 1.15-.993 1.37-.16.22-.62.853-1.02 1.41a37.105 37.105 0 0 0-.722 1.017c.005.004.296-.05.648-.121l2.222-.447c.87-.175 1.63-.326 1.687-.336.09-.016.12-.049.209-.24.056-.12.235-.49.395-.818.16-.329.374-.768.474-.977.1-.208.181-.388.181-.4 0-.013-.057-.05-.126-.082a15.57 15.57 0 0 1-.596-.325 29.774 29.774 0 0 1-.926-.55c-.25-.158-.511-.328-.579-.38a.846.846 0 0 0-.138-.093c-.009 0-.331.437-.716.971Zm22.878-.701a21.783 21.783 0 0 1-1.668.991l-.347.184c-.005.005.258.537.585 1.183.327.646.598 1.178.602 1.183.004.005.18.045.392.09l1.024.215 1.767.367c.62.129 1.215.255 1.322.28.106.025.194.039.194.031s-.458-.638-1.017-1.4a997.52 997.52 0 0 0-1.567-2.133c-.303-.41-.628-.856-.724-.988a1.56 1.56 0 0 0-.192-.24c-.01 0-.177.107-.37.237Zm-19.504 1.548c-.048.105-.249.52-.446.922-.198.401-.403.824-.457.939a1.608 1.608 0 0 0-.097.238c0 .016.092.191.205.39l.68 1.2c.288.51.483.823.498.797.012-.024.167-.462.344-.973l.677-1.96c.196-.566.357-1.039.357-1.05 0-.012-.133-.07-.295-.13-.162-.06-.528-.212-.813-.337a9.537 9.537 0 0 0-.542-.227c-.014 0-.063.086-.111.19Zm16.725-.02c-.203.095-.584.256-.846.358l-.475.187.4 1.079.74 1.992c.187.502.344.918.349.923.005.005.13-.204.278-.465.148-.261.454-.806.68-1.21l.41-.737-.583-1.148-.582-1.149-.37.17Zm-14.56.665a334.497 334.497 0 0 0-.613 1.771l-.62 1.792a3.534 3.534 0 0 0-.135.442c.007.006.549-.2 1.204-.459.655-.258 1.228-.49 1.275-.513.075-.038.096-.097.196-.552l.262-1.191c.083-.375.157-.705.166-.733.013-.042-.068-.075-.397-.163a24.838 24.838 0 0 1-1.29-.389c-.027-.01-.048-.012-.048-.005Zm12.59.097c-.1.036-.457.14-.79.233-.334.092-.631.178-.662.19-.05.02-.047.052.026.355.045.182.18.738.303 1.235.123.497.24.91.26.918a2278.933 2278.933 0 0 1 2.534.987l.08.03-.05-.123c-.027-.068-.17-.453-.32-.855l-.699-1.885c-.236-.635-.444-1.153-.462-1.152a1.897 1.897 0 0 0-.22.067Zm-10.48.717c-.029.125-.152.68-.275 1.232-.124.553-.22 1.02-.213 1.037.006.018.354.402.773.855L21.901 49c.093.1.174.175.182.166.007-.009.062-.51.122-1.113s.154-1.515.208-2.026c.054-.512.098-.96.099-.998 0-.06-.039-.073-.412-.126a21.733 21.733 0 0 1-.842-.142 8.524 8.524 0 0 1-.477-.1c-.034-.013-.06.043-.097.21Zm8.074-.102c-.222.043-.607.109-.855.145-.248.036-.455.07-.46.075-.006.006.017.212.052.458.034.246.156 1.188.271 2.092.115.905.216 1.652.224 1.661.009.01.079-.051.156-.134a219.982 219.982 0 0 0 1.666-1.831c.037-.047-.001-.238-.245-1.23l-.305-1.248c-.01-.041-.036-.073-.059-.071-.023.002-.223.039-.445.083Zm-5.822.35c-.01.062-.102.926-.204 1.922l-.206 2.022-.022.211.282-.193.81-.56c.29-.202.68-.472.867-.6l.34-.232-.018-.548c-.01-.302-.017-.881-.017-1.288v-.739h-.26a18.052 18.052 0 0 1-1.395-.085c-.159-.02-.159-.02-.177.09Zm3.55-.052c-.27.023-.667.043-.884.044l-.396.003v2.557l.11.081c.06.045.563.39 1.119.765.555.376 1.03.7 1.054.721.024.02.05.032.057.025.007-.007-.108-.939-.254-2.071a177.395 177.395 0 0 1-.267-2.117c0-.032-.012-.056-.026-.053l-.514.047Z" fill="#fff"/><path d="M13.294 5.594c.02.039.07.123.11.186.04.064.12.199.175.3.055.1.295.519.531.93a961.344 961.344 0 0 1 1.17 2.032l.129.223.21-.119c.115-.065.465-.243.777-.395.312-.152.584-.282.604-.288.022-.007-.177-.507-.481-1.209L16 6.058l-1.247-.244c-.686-.134-1.303-.255-1.372-.267-.12-.022-.123-.02-.087.047Zm-.411.158c0 .012-.203.611-.451 1.333l-.452 1.31.258.352.742 1.01c.267.361.496.67.51.686.014.015.13-.047.256-.137.127-.091.413-.281.635-.423l.529-.336.125-.078-.12-.208-.262-.457-.827-1.446c-.376-.657-.742-1.293-.814-1.411a1.075 1.075 0 0 0-.129-.195Zm-2.777 2.939-1.23.043c-.03.003-.036.014-.016.029.018.013.193.196.388.406l1.162 1.244c.444.473.924.99 1.068 1.146.143.156.276.284.293.284.018 0 .181-.128.362-.284a24.7 24.7 0 0 1 .61-.508c.154-.123.31-.242.345-.264.035-.022.064-.053.064-.069 0-.016-.162-.248-.36-.515l-.532-.718-.4-.54-.23-.307-.173.007c-.095.004-.703.025-1.351.046Zm-1.566.436c0 .032-.053.597-.117 1.255a92.79 92.79 0 0 1-.134 1.315l-.017.118.778.662c.428.364.825.704.883.755.058.05.145.121.193.157l.088.064.3-.321c.164-.177.445-.467.623-.645l.324-.325-.223-.241-.678-.729-1.178-1.267c-.398-.428-.75-.796-.783-.818-.049-.031-.059-.028-.059.02Zm-1.885 3.344c-.695.186-1.284.346-1.31.355-.033.012-.007.043.081.097.072.044.551.364 1.066.713l1.645 1.11c.39.262.715.47.72.464l.171-.244a14.047 14.047 0 0 1 .682-.893c.117-.145.208-.275.203-.29a28.34 28.34 0 0 0-.964-.843c-.524-.448-.971-.813-.993-.81-.021.002-.607.155-1.301.341Zm-1.582.774c.001.033.081.647.179 1.364.098.717.192 1.318.21 1.334.017.016.521.285 1.12.598.6.312 1.104.56 1.12.549a1.28 1.28 0 0 0 .145-.241c.063-.122.26-.46.438-.75s.32-.532.314-.537a1451.413 1451.413 0 0 1-.783-.53L6.79 14.34l-1.153-.776c-.422-.284-.563-.364-.563-.32Zm-.825 3.419c-.482.19-1.417.558-2.08.817-.661.26-1.203.48-1.203.491 0 .011.383.144.85.295.468.15 1.623.527 2.567.836.945.309 1.813.59 1.93.626l.212.065.03-.072c.017-.04.116-.296.22-.57.106-.274.31-.759.456-1.078.146-.318.262-.582.257-.586a620.37 620.37 0 0 1-1.88-.99c-.196-.102-.385-.185-.42-.183-.035.001-.458.158-.94.349ZM.73 18.37c0 .016.054.123.12.239.067.116.221.39.343.61l.305.547.418.748.808 1.454c.345.622.494.861.545.872.038.01.562.091 1.164.183.602.092 1.134.175 1.182.185.088.017.09.014.13-.259a19.08 19.08 0 0 1 .358-1.72c.065-.247.155-.575.202-.728.047-.153.073-.29.058-.303a67.857 67.857 0 0 0-1.93-.643c-1.046-.34-2.308-.751-2.803-.915-.495-.163-.9-.285-.9-.27Zm1.76 5.76c-.44.478-.868.941-.952 1.03a1.508 1.508 0 0 0-.163.19c-.006.017.054.03.134.03a311.154 311.154 0 0 1 3.535.081l.459.016.023-.439c.013-.24.045-.654.07-.917a7.06 7.06 0 0 0 .04-.486 62.017 62.017 0 0 0-1.12-.178c-.61-.094-1.136-.177-1.169-.183-.04-.01-.295.244-.857.856Zm1.859 4.11a63.01 63.01 0 0 1-1.064.095c-.075.002-.118.06-.342.46l-.678 1.202c-.232.41-.419.75-.415.753.004.003.913-.177 2.02-.402a74.528 74.528 0 0 0 2.033-.427c.01-.01-.019-.218-.066-.46a19.34 19.34 0 0 1-.145-.883l-.06-.44-.154.004c-.084.002-.592.046-1.13.097Zm-.381 2.507c-1.099.224-2.003.413-2.01.42-.005.006.174.147.399.313l1.12.822c.392.286.731.52.754.52.023 0 .536-.159 1.14-.353a25.02 25.02 0 0 0 1.127-.378c.015-.014-.025-.188-.09-.386a22.34 22.34 0 0 1-.359-1.233c-.02-.078-.047-.14-.06-.138l-2.021.413Zm1.511 2.12-1.125.37-.043.134c-.023.073-.186.626-.362 1.229-.176.603-.33 1.137-.343 1.188-.021.086-.017.09.057.061.044-.016.208-.09.366-.162.157-.073.46-.211.673-.307.213-.096.539-.244.724-.33.185-.084.696-.318 1.136-.517.44-.2.8-.376.8-.392 0-.016-.09-.226-.198-.466-.108-.24-.263-.605-.343-.811-.08-.206-.162-.372-.181-.37-.02 0-.542.17-1.161.373Zm.19 2.528a168.8 168.8 0 0 0-1.859.854c-.007.008.49.23 1.104.493l1.291.553.173.075.416-.252c.23-.138.692-.414 1.03-.613.336-.2.62-.373.628-.387.008-.014-.054-.137-.138-.273a22.2 22.2 0 0 1-.36-.614 32.435 32.435 0 0 1-.29-.523c-.046-.087-.098-.157-.117-.156-.019.001-.864.38-1.878.843Zm2.771 1.222c-.121.075-.583.353-1.028.617a78.65 78.65 0 0 0-.82.492c-.008.006-.046.618-.085 1.36-.039.743-.064 1.355-.054 1.36.009.005.223-.15.476-.344l.943-.722a2916.089 2916.089 0 0 0 1.908-1.459 1.314 1.314 0 0 0-.162-.22 19.05 19.05 0 0 1-.532-.715c-.199-.278-.376-.505-.394-.505-.019 0-.133.061-.253.136Zm1.57 1.647c-.01.014-.753.586-1.652 1.27a75.104 75.104 0 0 0-1.635 1.265c0 .012.056.03.125.04.07.01.677.117 1.35.238.672.121 1.242.216 1.266.21.023-.005.439-.39.923-.855.484-.465.88-.862.88-.882 0-.02-.107-.139-.238-.264a15.932 15.932 0 0 1-.61-.638 9.934 9.934 0 0 0-.383-.41c-.006 0-.018.011-.027.026Zm1.235 1.926c-.187.178-.602.575-.922.884l-.58.56.021.536c.012.295.03.782.04 1.084.01.301.033.914.05 1.362.018.448.032.967.032 1.154 0 .188.014.34.03.34.017 0 .795-1.057 1.729-2.35a515.457 515.457 0 0 0 1.72-2.389c.015-.024-.116-.144-.339-.313a15.616 15.616 0 0 1-1.124-.935 4.708 4.708 0 0 0-.303-.257 7.47 7.47 0 0 0-.354.324Zm1.789 2.375c-.386.534-.832 1.15-.993 1.37-.16.22-.62.853-1.02 1.41a37.105 37.105 0 0 0-.722 1.017c.005.004.296-.05.648-.121l2.222-.447c.87-.175 1.63-.326 1.687-.336.09-.016.12-.049.209-.24.056-.12.235-.49.395-.818.16-.329.374-.768.474-.977.1-.208.181-.388.181-.4 0-.013-.057-.05-.126-.082a15.57 15.57 0 0 1-.596-.325 29.774 29.774 0 0 1-.926-.55c-.25-.158-.511-.328-.579-.38a.846.846 0 0 0-.138-.093c-.009 0-.331.437-.716.971Zm3.374.847c-.048.105-.249.52-.446.922-.198.401-.403.824-.457.939a1.608 1.608 0 0 0-.097.238c0 .016.092.191.205.39l.68 1.2c.288.51.483.823.498.797.012-.024.167-.462.344-.973l.677-1.96c.196-.566.357-1.039.357-1.05 0-.012-.133-.07-.295-.13-.162-.06-.528-.212-.813-.337a9.537 9.537 0 0 0-.542-.227c-.014 0-.063.086-.111.19Zm2.165.645a334.497 334.497 0 0 0-.613 1.771l-.62 1.792a3.534 3.534 0 0 0-.135.442c.007.006.549-.2 1.204-.459.655-.258 1.228-.49 1.275-.513.075-.038.096-.097.196-.552l.262-1.191c.083-.375.157-.705.166-.733.013-.042-.068-.075-.397-.163a24.838 24.838 0 0 1-1.29-.389c-.027-.01-.048-.012-.048-.005Zm2.11.814c-.029.125-.152.68-.275 1.232-.124.553-.22 1.02-.213 1.037.006.018.354.402.773.855l.932 1.006c.093.1.174.175.182.166.007-.009.062-.51.122-1.113s.154-1.515.208-2.026c.054-.512.098-.96.099-.998 0-.06-.039-.073-.412-.126a21.733 21.733 0 0 1-.842-.142 8.524 8.524 0 0 1-.477-.1c-.034-.013-.06.043-.097.21Zm2.252.249c-.01.06-.102.925-.204 1.921l-.206 2.022-.022.211.282-.193.81-.56c.29-.202.68-.472.867-.6l.34-.232-.018-.548c-.01-.302-.017-.881-.017-1.288v-.739h-.26a18.052 18.052 0 0 1-1.395-.085c-.159-.02-.159-.02-.177.09Zm3.549-.053c-.268.023-.666.043-.884.044l-.395.003v2.556l.11.081c.06.045.563.39 1.119.765.555.376 1.03.7 1.054.721.024.02.05.032.057.025.007-.007-.108-.939-.254-2.071a177.395 177.395 0 0 1-.267-2.117c0-.032-.012-.056-.026-.053l-.514.047Zm2.273-.298c-.222.043-.607.109-.855.145-.248.036-.455.07-.46.075-.006.006.017.212.052.458.034.246.156 1.188.271 2.092.115.905.216 1.652.224 1.661.009.01.079-.051.156-.134a219.982 219.982 0 0 0 1.666-1.831c.037-.047-.001-.238-.245-1.23l-.305-1.248c-.01-.041-.036-.073-.059-.071-.023.002-.223.039-.445.083Zm2.407-.615c-.102.036-.458.14-.791.233-.334.092-.631.178-.662.19-.05.02-.047.052.026.355.045.182.18.738.303 1.235.123.497.24.91.26.918l1.247.486c.664.26 1.243.485 1.287.501l.08.03-.05-.123c-.027-.068-.17-.453-.32-.855l-.699-1.885c-.236-.635-.444-1.153-.462-1.152a1.897 1.897 0 0 0-.22.067ZM1.39 25.852a169.765 169.765 0 0 0 1.792 2.065c.012.006.548-.036 1.191-.093.643-.058 1.178-.114 1.19-.125.01-.01.003-.264-.017-.563-.02-.298-.036-.701-.036-.895v-.353l-.665-.021c-.366-.011-1.097-.028-1.624-.038a83.39 83.39 0 0 1-1.428-.037l-.468-.02.064.08ZM17.63 3.944c-.132.215-.459.74-.726 1.166-.267.426-.486.793-.486.814 0 .022.223.555.495 1.185.273.63.499 1.152.503 1.158.004.006.24-.078.523-.187.284-.11.671-.248.86-.31.267-.085.342-.122.33-.161l-.573-1.893a184.891 184.891 0 0 1-.595-1.986.435.435 0 0 0-.064-.16c-.015-.01-.135.16-.267.374Zm.682-.481c.009.023.269.879.578 1.902.31 1.023.584 1.93.612 2.014l.05.154.343-.09.431-.112c.07-.017.107-.068.183-.246a5.82 5.82 0 0 1 .194-.408c.055-.1.175-.294.267-.431l.167-.25-.12-.7c-.067-.386-.121-.71-.121-.719a.964.964 0 0 0-.21-.109c-.116-.05-.694-.307-1.283-.57a51.6 51.6 0 0 0-1.09-.476c-.01 0-.01.018-.001.041Zm6.016-2.144a178.072 178.072 0 0 1-1.056 1.138l-.388.417-.765.814a60.15 60.15 0 0 0-.697.75l-.087.104.083.478c.045.263.083.498.083.523 0 .025.088-.034.194-.13a6.54 6.54 0 0 1 .462-.37c.147-.107.43-.276.63-.377.2-.101.52-.234.71-.295a5.49 5.49 0 0 1 .698-.167l.463-.072.11-.016V2.49c0-.894-.005-1.626-.01-1.626-.006 0-.2.205-.43.455Zm.869 1.154.01 1.642.192.02a6.473 6.473 0 0 1 1.07.202c.164.047.434.146.602.221a6.139 6.139 0 0 1 1.238.789l.192.17.019-.11c.01-.06.05-.316.086-.57.037-.254.058-.47.047-.482a1640.032 1640.032 0 0 1-2.35-2.42c-.59-.607-1.08-1.104-1.093-1.104-.012 0-.018.738-.013 1.642Zm5.193 1.425-1.296.504-.11.763-.111.762.102.135a5.373 5.373 0 0 1 .536.908 1.8 1.8 0 0 1 .104.268c0 .02.027.048.06.064.032.016.222.07.422.122.211.055.375.081.392.064.016-.016.152-.441.304-.943.151-.503.426-1.409.61-2.014.183-.605.333-1.11.333-1.12 0-.013-.011-.021-.025-.02-.014.002-.608.23-1.321.507Zm1.736-.308a1495.741 1495.741 0 0 0-1.176 3.894c-.037.12-.04.164-.01.175l.56.192c.288.1.655.233.817.298.162.065.301.106.31.091.01-.015.23-.516.49-1.114.259-.597.48-1.12.49-1.16.015-.057-.151-.348-.695-1.218a72.378 72.378 0 0 0-.742-1.174c-.016-.018-.034-.01-.044.017Zm4.509 1.957c-.056.015-.663.136-1.349.269l-1.248.242-.503 1.163c-.276.64-.503 1.175-.503 1.189 0 .014.364.205.808.425.445.22.81.4.813.4.003 0 .096-.16.206-.357a515.182 515.182 0 0 1 1.866-3.255c.037-.06.054-.107.039-.105a1.494 1.494 0 0 0-.13.03Zm.421.342a3218.03 3218.03 0 0 0-1.872 3.269l-.175.304.29.174c.161.096.501.314.757.485.256.17.476.31.488.309.013-.001.145-.168.293-.372l.48-.654.476-.647.267-.362-.453-1.313a78.968 78.968 0 0 0-.462-1.324c-.006-.006-.046.053-.089.13Zm1.139 3.036-.77 1.037-.55.744.098.07a16.986 16.986 0 0 1 1.023.834l.283.254.11-.122c.06-.067.184-.199.273-.293.09-.094.268-.283.395-.42s.31-.331.404-.431l.929-.993c.416-.445.76-.82.766-.835.006-.015-.1-.035-.235-.046-.136-.01-.617-.027-1.071-.037-.454-.01-.962-.026-1.13-.037l-.306-.02-.219.295Zm2.496.967c-.435.469-.89.958-1.013 1.086-.122.129-.394.421-.604.65-.211.228-.403.434-.427.458-.023.025-.043.055-.043.068 0 .012.145.165.323.338.178.173.458.46.622.637l.3.323.96-.82c.921-.785.96-.823.943-.92a74.58 74.58 0 0 1-.135-1.347 86.914 86.914 0 0 0-.127-1.286c-.004-.022-.363.344-.799.813Zm.393 3.054c-.948.81-.96.822-.904.892a86.19 86.19 0 0 1 .938 1.235l.1.14.352-.24c.193-.133.562-.384.822-.558a871.914 871.914 0 0 0 2.117-1.431c.128-.088.226-.16.218-.16-.008 0-.611-.158-1.34-.35-.73-.191-1.33-.348-1.334-.348-.004 0-.44.369-.969.82Zm3.681.374c-.102.067-.624.42-1.161.782-.537.363-1.23.83-1.54 1.037-.309.208-.57.391-.58.407-.01.017.1.221.245.456a18.064 18.064 0 0 1 .629 1.098c.003.005.451-.224.996-.507.545-.284 1.005-.536 1.024-.56a.5.5 0 0 1 .135-.095l.102-.052.18-1.334c.099-.733.174-1.338.168-1.345a.834.834 0 0 0-.198.112Zm-1.027 3.538c-.574.3-1.071.565-1.105.59-.06.041-.055.06.095.375.087.183.253.557.368.83.116.275.262.645.326.823.063.178.128.324.145.324.017 0 .858-.269 1.869-.597l2.73-.884c.49-.159.905-.296.922-.306.017-.01-.915-.389-2.07-.843a137.546 137.546 0 0 0-2.169-.842c-.043-.01-.443.181-1.11.53Zm5.387 1.58c-.037.017-1.204.398-2.592.848-1.39.45-2.599.84-2.688.868-.123.039-.16.065-.148.106l.17.603c.084.301.206.795.27 1.096.065.302.144.71.176.908.055.334.064.358.13.343.038-.01.615-.109 1.282-.222.666-.113 1.22-.215 1.232-.227.011-.012.096-.163.19-.337a2594.676 2594.676 0 0 1 2.063-3.845c.078-.146.085-.174.038-.172a.42.42 0 0 0-.123.031Zm-2.626 4.835c-.13.024-.645.114-1.145.199s-.914.16-.92.165c-.006.006.005.143.025.304.02.162.052.57.073.908.02.338.04.617.043.619.003.002.83-.016 1.84-.04 1.009-.024 1.946-.044 2.081-.045l.247-.002-.129-.145c-.07-.08-.279-.308-.463-.507s-.57-.62-.857-.934a10.404 10.404 0 0 0-.542-.57l-.253.047Zm.185 2.558c-.898.023-1.742.043-1.877.045l-.244.003v.315c0 .173-.016.578-.036.9-.02.321-.029.593-.019.603.01.01.493.06 1.072.112.58.051 1.115.1 1.19.11.135.017.138.015.37-.256.128-.15.54-.626.915-1.06.376-.432.683-.795.683-.805 0-.01-.095-.016-.21-.013l-1.844.046Zm-2.32 2.845c-.043.295-.11.698-.151.896l-.073.358.186.037.742.149 1.801.364c.685.138 1.273.26 1.305.27.032.01.059.003.059-.014s-.187-.358-.415-.758c-.228-.4-.526-.926-.661-1.17-.136-.244-.264-.45-.284-.457-.02-.007-.534-.058-1.141-.113s-1.146-.1-1.198-.1h-.093l-.078.538Zm-.322 1.696c-.008.023-.054.198-.102.388-.049.19-.155.56-.237.821-.083.262-.15.482-.15.49 0 .009.505.181 1.122.384a25.67 25.67 0 0 0 1.172.367c.028 0 .209-.116.402-.257l1.118-.818c.422-.308.76-.568.751-.577a1.481 1.481 0 0 0-.245-.064l-.97-.198-1.717-.347c-.537-.108-1.01-.205-1.053-.214-.045-.01-.082 0-.091.024ZM43.2 32.98c-.108.27-.262.63-.342.802-.08.171-.146.328-.146.349 0 .02.24.144.53.276.292.131 1.14.516 1.888.855.746.34 1.362.617 1.369.617.006 0-.004-.056-.023-.125a296.987 296.987 0 0 0-.743-2.518 83.43 83.43 0 0 0-1.15-.377 59.638 59.638 0 0 0-1.164-.369c-.012 0-.11.22-.218.49Zm-.878 1.877a23.198 23.198 0 0 1-.676 1.174c-.045.068-.007.094 1.012.704l1.058.635.483-.209 1.283-.552c.44-.188.789-.354.774-.368-.014-.013-.855-.4-1.868-.858a82.726 82.726 0 0 0-1.873-.833c-.018 0-.105.138-.193.307Zm-1.028 1.694a9.116 9.116 0 0 1-.326.469 20.07 20.07 0 0 1-.486.643c-.19.236-.197.25-.136.293.036.024.15.11.254.188a1062.517 1062.517 0 0 1 2.828 2.162c.111.087.208.153.215.146.007-.007-.019-.609-.056-1.338-.038-.729-.08-1.343-.094-1.365-.013-.023-.229-.163-.479-.312l-1.031-.616c-.318-.19-.594-.344-.614-.344-.02 0-.053.033-.075.075Zm-1.579 2.021a13.97 13.97 0 0 1-.597.637c-.17.17-.31.318-.311.33 0 .013.314.327.698.7.384.372.793.764.91.871l.21.195 1.363-.244c.75-.134 1.363-.253 1.363-.265 0-.012-.38-.312-.846-.667a931.74 931.74 0 0 1-1.237-.945c-.215-.165-.583-.446-.818-.623a8.606 8.606 0 0 0-.437-.321c-.006.001-.14.15-.298.332Zm-1.582 1.583a25.65 25.65 0 0 1-1.406 1.142c-.041.025-.075.059-.075.075s.138.217.308.449a139.923 139.923 0 0 0 .813 1.1l.768 1.047 1.045 1.424.533.725.005-.26a5.3 5.3 0 0 1 .011-.294c.003-.019.017-.295.031-.615.014-.32.03-.634.037-.697.007-.064.039-.682.072-1.374l.06-1.257-.352-.337-.924-.89-.573-.553-.353.315Zm-2.221 1.709a21.783 21.783 0 0 1-1.668.991l-.347.184c-.005.005.258.537.585 1.183.327.646.598 1.178.602 1.183.004.005.18.045.392.09l1.024.215 1.767.367c.62.129 1.215.255 1.322.28.106.025.194.039.194.031s-.458-.638-1.017-1.4a997.52 997.52 0 0 0-1.567-2.133c-.303-.41-.628-.856-.724-.988a1.56 1.56 0 0 0-.192-.24c-.01 0-.177.107-.37.237Zm-2.779 1.529c-.203.094-.584.255-.846.357l-.475.187.4 1.079.74 1.992c.187.502.344.918.349.923.005.005.13-.204.278-.465.148-.261.454-.806.68-1.21l.41-.737-.583-1.148-.582-1.149-.37.17Z" fill="#fff"/></svg>