<svg width="50" height="50" fill="none" xmlns="http://www.w3.org/2000/svg"><path fill-rule="evenodd" clip-rule="evenodd" d="M23.243.208c-.23.114-.53.353-.666.53-.136.179-.925 1.848-1.754 3.71l-1.506 3.386v5.696c0 5.34-.011 5.698-.171 5.743l1.831-.123V8.277l1.386-3.138c.762-1.726 1.452-3.217 1.533-3.313a.434.434 0 0 1 .348-.147.277.277 0 0 1 .231.245c.017.119-.412 1.688-.952 3.488l-.983 3.273v4.788c0 2.633.022 4.788.05 4.788.027 0 .698-.326 1.49-.725 1.285-.646 1.517-.803 2.169-1.464.725-.736.734-.741 1.242-.741.284 0 .76-.093 1.072-.21.33-.123.75-.388 1.025-.644.256-.24.577-.659.713-.933l.248-.498v2.318c0 1.732-.033 2.397-.133 2.635l-.132.317 1.974-.195v-5.033c0-4.013-.027-5.11-.133-5.411-.074-.209-.29-.553-.482-.764-.191-.212-.505-.463-.697-.559-.191-.096-1.469-.45-2.839-.788-1.37-.337-2.524-.643-2.565-.68-.042-.036.084-.59.28-1.232.216-.709.353-1.36.351-1.666a2.128 2.128 0 0 0-.197-.878 2.59 2.59 0 0 0-.424-.594 2.388 2.388 0 0 0-.593-.366 2.577 2.577 0 0 0-.828-.15c-.28 0-.636.083-.888.208Zm7.135 7.814c-.13-.155-.769-.352-2.732-.841a168.111 168.111 0 0 0-2.607-.638c-.025 0-.066.033-.09.073-.024.04-.202.605-.396 1.255-.321 1.076-.352 1.286-.348 2.344.004 1.07.014 1.134.13.809.07-.195.225-.513.346-.708.12-.196.41-.512.645-.704.235-.192.656-.437.937-.543.316-.12.749-.195 1.133-.195.343 0 .785.054.984.12.2.065.516.215.704.333.188.119.49.365.671.547.181.182.434.55.561.82l.231.488.001-1.479c.001-1.266-.023-1.507-.17-1.681Zm-1.734 3.15c-.148-.194-.416-.414-.595-.49a2.123 2.123 0 0 0-.696-.133c-.203.001-.53.095-.725.209a1.8 1.8 0 0 0-.561.572c-.124.22-.206.54-.206.803 0 .291.073.543.22.759.12.177.337.41.48.516.146.108.47.21.733.233.363.03.561-.013.862-.185.252-.144.471-.38.617-.663.166-.323.215-.55.183-.854a1.654 1.654 0 0 0-.312-.767Zm-3.341 3.392-.4-.453c-.219-.25-.463-.637-.543-.862-.14-.397-.145-.373-.152.935-.004.74.027 1.343.07 1.343.042 0 .29-.216.55-.481l.475-.482Z" fill="#0086FF"/><path d="m22.998 23.98-.866-1.077c-.602-.747-.91-1.224-1.01-1.557-.08-.265-.132-.494-.116-.51l-2.062.173c.266-.01.372.032.408.158.026.094.078.325.116.513.037.188.156.517.263.732.108.215.348.6.534.855l.338.463 2.395.25Zm6.592.63c1.021-2.552 1.872-4.655 1.89-4.674l-1.905.181-.13.317c-.073.175-.458 1.146-.857 2.157l-.725 1.84 1.728.178Zm-2.495 1.494c.032.032-.24.807-.606 1.723l-.664 1.665 1.931-.222c-.009-.009.454-1.192 1.117-2.86l-1.778-.306Zm.548 13.934c-.219.001-.22-.004-.22-1.61 0-1.423.02-1.612.16-1.612l-1.82-.195v3.613l1.88-.196Zm-5.153-3.661.067 3.613.01.51 1.633-.14v-3.863l-1.71-.12Z" fill="#0086FF"/><path fill-rule="evenodd" clip-rule="evenodd" d="M18.29 19.383c.377-.035.762-.084.856-.11l1.831-.123.317-.05c.175-.029 2.269-.216 4.654-.417l4.336-.366 1.974-.195 1.124-.124c.618-.069 1.804-.216 2.637-.33.833-.112 1.91-.286 2.393-.387a21.73 21.73 0 0 0 1.183-.274c.167-.05.398-.141.513-.203.141-.075.209-.205.209-.401v-.29H42l-.04.634c-.028.435-.103.718-.24.903-.109.149-.482.412-.83.586-.347.174-1.068.422-1.603.552a28.17 28.17 0 0 1-1.608.34 69.34 69.34 0 0 1-1.367.21c-.403.058-1.647.209-2.765.334-1.118.126-2.048.245-2.067.264l-1.905.181-.514.013c-.283.007-2.204.163-4.27.346-2.067.183-3.77.345-3.785.36l-2.062.173c-.198.007-.712.051-1.142.098-.43.047-1.528.175-2.441.283-.914.11-2.276.305-3.028.436-.752.131-1.564.296-1.804.367l-.436.128.724.175a31.64 31.64 0 0 0 1.853.359 73.48 73.48 0 0 0 2.35.334c.67.083 2.075.238 3.12.346 1.045.107 2.027.195 2.182.195h.28l2.396.25 1.944.17c1.07.093 2.164.195 2.433.225l.488.056 1.728.178c-.255.637-.498 1.245-.718 1.8l-1.778-.305c-.032-.033-.62-.116-1.306-.186a36.336 36.336 0 0 0-1.509-.132l-2.263-.2-.005-.001a287.605 287.605 0 0 1-5.675-.544 98.682 98.682 0 0 1-2.735-.345 41.04 41.04 0 0 1-2.294-.396c-.51-.11-1.19-.281-1.514-.381a5.183 5.183 0 0 1-1.034-.465c-.271-.172-.514-.426-.62-.648-.116-.245-.152-.472-.11-.694.034-.18.168-.455.298-.61.13-.154.503-.4.83-.547.327-.146 1.02-.371 1.542-.5.522-.128 1.498-.32 2.17-.426a80.581 80.581 0 0 1 2.979-.389c.967-.107 2.066-.223 2.442-.258Z" fill="#0069B7"/><path d="M22.305 25.997c.16.353.186.65.186 2.075v1.663l1.71-.119v-1.6c0-.881-.042-1.744-.092-1.918-.086-.302-.078-.316.171-.312l-2.263-.2c.061.01.189.191.288.411Zm.235 7.06c0 1.47-.015 1.61-.171 1.61l1.831.196V31.26l-1.66.185v1.612Z" fill="#0086FF"/><path fill-rule="evenodd" clip-rule="evenodd" d="m22.49 29.735-1.904.17c-1.047.093-2.937.283-4.2.422-1.262.14-3.042.38-3.956.537-.913.156-2.018.395-2.456.53-.437.137-1.009.39-1.27.565-.352.235-.51.42-.613.72-.122.352-.121.453.003.781.098.262.288.476.615.696.26.174.832.427 1.271.561.439.134 1.268.33 1.842.435.575.106 1.694.28 2.487.388.793.108 2.563.307 3.933.442 1.37.135 2.886.279 3.37.32l.879.075 1.71.12.453.062c.249.034.6.062.78.062h.33l1.818.195c.088 0 .89.068 1.783.15.893.082 2.437.237 3.43.345.995.107 2.599.307 3.566.443.967.136 2.132.337 2.588.448.457.11.845.212.862.228.017.015-.357.118-.831.23-.474.11-1.476.292-2.227.402-.752.11-2.114.286-3.028.39-.914.105-2.607.28-3.762.388a81.32 81.32 0 0 1-2.32.198l-1.88.196-.269.001a8.69 8.69 0 0 0-.78.063l-.514.061-1.633.141c.013.586.028 1.165.044 1.696l1.687-.194.513-.035a30.018 30.018 0 0 0 .711-.056l2.007-.119c.059-.036.51-.096 1.002-.132a177.75 177.75 0 0 0 3.288-.308c1.316-.133 3.059-.33 3.873-.438.813-.108 1.912-.28 2.442-.381a25.39 25.39 0 0 0 1.65-.376 7.866 7.866 0 0 0 1.187-.445c.274-.139.59-.368.701-.51a1.6 1.6 0 0 0 .264-.585c.042-.224.004-.444-.12-.698-.121-.248-.35-.47-.694-.676-.282-.168-.942-.42-1.465-.56-.524-.14-1.325-.32-1.782-.401a61.758 61.758 0 0 0-1.881-.292c-.578-.08-2.073-.254-3.321-.385a200.25 200.25 0 0 0-3.762-.362l-1.491-.122-1.657-.134-.453-.062a7.12 7.12 0 0 0-.781-.062H24.2l-1.831-.196c-.094 0-1.116-.09-2.271-.198-1.155-.108-2.87-.282-3.81-.386a94.319 94.319 0 0 1-3.32-.44c-.887-.136-1.876-.323-2.198-.413l-.586-.165.559-.17c.307-.094 1.45-.303 2.54-.466 1.089-.162 2.837-.385 3.885-.495 1.047-.11 2.52-.26 3.272-.332a47.494 47.494 0 0 1 1.733-.144l.367-.013 1.66-.185.513-.036.781-.054.27-.018 1.708-.146.88-.075c.483-.041 1.977-.184 3.32-.319 1.344-.134 3.118-.334 3.944-.443.826-.11 1.967-.285 2.535-.39a19.957 19.957 0 0 0 1.82-.43c.432-.132.997-.374 1.255-.538.303-.193.52-.42.614-.644a1.25 1.25 0 0 0 .078-.706c-.042-.234-.193-.484-.427-.709-.205-.197-.623-.443-.964-.567a16.882 16.882 0 0 0-1.652-.453 35.572 35.572 0 0 0-2.123-.391c-.591-.087-1.998-.263-3.126-.39-1.128-.128-2.079-.203-2.112-.165-.034.037-.09.407-.126.822-.063.73-.058.755.159.801.122.027.904.119 1.737.206.833.087 2.224.262 3.092.39.868.127 1.989.329 2.49.448l.913.218-.558.173c-.307.096-1.45.306-2.54.469-1.09.162-2.64.365-3.446.45-.806.086-2.363.24-3.461.342-1.098.103-2.006.177-2.018.165l-1.93.222h-.36c-.198 0-.563.028-.813.062l-.453.062-1.71.12Z" fill="#0069B7"/><path d="m27.42 35.121.052-4.115-1.709.146v3.835l1.657.134Zm-.24 10.726.014-.438a99.42 99.42 0 0 1 .121-1.995c.063-.907.152-1.584.214-1.622l-2.007.119c.123 0 .144.111.144.643 0 .362-.05 1.223-.113 1.913l-.114 1.254 1.74.126Zm-4.463-1.316c.051.51.087.933.08.938l1.732.103a28.506 28.506 0 0 1-.122-1.144c-.06-.62-.11-1.42-.11-1.777v-.649l-1.686.194c.034 1.115.074 2.02.106 2.335Zm.357 3.149c.036.283.126.734.2 1.003.086.305.258.607.458.8.177.17.445.356.597.413.15.057.445.104.653.104.207 0 .501-.047.653-.104.15-.057.419-.242.595-.412.19-.183.378-.506.464-.793.079-.266.143-.61.143-.763 0-.164.064-.302.156-.337l-1.848-.19c.042.05.031.164-.004.418-.034.251-.084.478-.11.505a.069.069 0 0 1-.098 0c-.026-.027-.076-.254-.11-.505-.045-.325-.05-.42.042-.446l-1.987-.203c.101.021.152.158.196.51Z" fill="#0086FF"/><path d="M40.33 50h1.647v-.498c0-.274-.069-.644-.153-.822-.085-.178-.316-.435-.513-.57a3.93 3.93 0 0 0-.652-.36c-.161-.063-.601-.2-.977-.307a22.82 22.82 0 0 0-1.665-.373c-.54-.1-1.661-.27-2.491-.378-.83-.108-2.432-.288-3.56-.4a410.369 410.369 0 0 0-3.42-.324l-1.367-.121-1.74-.126-.448-.067a4.436 4.436 0 0 1-.462-.082l-1.732-.103c-.007.005-.65-.049-1.43-.12-.778-.071-2.515-.243-3.858-.381a110.055 110.055 0 0 1-4.004-.487c-.86-.13-1.886-.303-2.281-.386-.395-.083-.785-.188-.866-.234-.107-.06-.018-.115.328-.202.26-.066.933-.204 1.494-.307.56-.103 1.703-.274 2.54-.38.835-.105 2.201-.26 3.034-.342.832-.082 1.728-.177 1.99-.21l.478-.06-.053-.777c-.03-.428-.077-.801-.106-.83-.03-.03-.791.02-1.694.11-.902.09-2.366.252-3.253.36-.886.107-2.11.28-2.72.385a32.02 32.02 0 0 0-1.891.384 9.876 9.876 0 0 0-1.362.454c-.318.143-.685.386-.815.54-.13.155-.265.432-.3.616-.043.233-.007.447.119.703.1.203.357.488.572.633.215.145.665.354 1.002.465.336.111 1.154.312 1.818.446.663.134 1.86.33 2.66.435.8.105 2.092.258 2.87.341.78.083 2.362.238 3.517.346a103.53 103.53 0 0 0 2.292.2l1.987.202a.456.456 0 0 1 .117-.01c.084 0 .136.005.163.039l1.848.188c.085-.032.998.016 2.027.108 1.029.091 3.058.298 4.508.46 1.45.16 3.257.397 4.014.524.758.128 1.68.334 2.052.458.634.212.676.244.704.543l.031.317Z" fill="#0069B7"/></svg>