<svg width="33" height="33" viewBox="0 0 33 33" fill="none" xmlns="http://www.w3.org/2000/svg">
<g id="Vector">
<path fill-rule="evenodd" clip-rule="evenodd" d="M33 16.5C33 25.6127 25.6127 33 16.5 33C7.3873 33 0 25.6127 0 16.5C0 7.3873 7.3873 0 16.5 0C25.6127 0 33 7.3873 33 16.5ZM16.5 29.7C23.7902 29.7 29.7 23.7902 29.7 16.5C29.7 9.20984 23.7902 3.3 16.5 3.3C9.20984 3.3 3.3 9.20984 3.3 16.5C3.3 23.7902 9.20984 29.7 16.5 29.7Z" fill="#0086FF"/>
<path d="M18.2975 17.5681C18.2298 17.5994 18.1828 17.6255 18.15 17.6475L18.15 18.5625C18.15 19.4738 17.4113 20.2125 16.5 20.2125C15.5887 20.2125 14.85 19.4733 14.85 18.562L14.85 17.2333C14.85 17.0573 14.8781 16.8825 14.9334 16.7154C15.3158 15.5588 16.1393 14.9304 16.9121 14.573C17.4061 14.3445 18.0363 14.1711 18.4699 14.0518C18.5968 14.0169 18.7069 13.9866 18.7918 13.9609C19.3118 13.8036 19.5088 13.6817 19.6024 13.585C19.64 13.5462 19.8 13.3811 19.8 12.7417C19.8 12.4541 19.7862 11.7275 19.4123 11.0972C19.126 10.6148 18.4651 9.9 16.5 9.9C15.5203 9.9 14.8961 10.1193 14.4923 10.3636C14.0855 10.6097 13.8091 10.9377 13.6139 11.2921C13.4134 11.6559 13.3055 12.0365 13.2502 12.3379C13.2231 12.4851 13.2104 12.6036 13.2046 12.6781C13.2016 12.7151 13.2004 12.7414 13.1999 12.7528L13.1999 12.7567C13.1919 13.661 12.4562 14.3917 11.55 14.3917C10.6387 14.3917 9.9 13.6529 9.9 12.7417L9.89998 12.7398L9.89998 12.7379L9.89999 12.7337L9.90006 12.724L9.90039 12.6995C9.90072 12.6809 9.9013 12.6578 9.9023 12.6307C9.90429 12.5763 9.90798 12.505 9.91473 12.4192C9.9282 12.2481 9.95416 12.0157 10.0045 11.7418C10.1038 11.201 10.3053 10.4587 10.7236 9.69954C11.1471 8.93101 11.7989 8.13613 12.7842 7.54004C13.7726 6.94214 15.0047 6.6 16.5 6.6C19.4848 6.6 21.299 7.81016 22.2502 9.41318C23.101 10.8469 23.1002 12.3429 23.1 12.7253L23.1 12.7417C23.1 14.0223 22.7419 15.0866 21.9725 15.8813C21.2607 16.6164 20.3666 16.9322 19.7473 17.1195C19.4707 17.2032 19.252 17.2631 19.0683 17.3134C18.7443 17.402 18.5293 17.4609 18.2975 17.5681Z" fill="#0086FF"/>
<path d="M18.15 24.75C18.15 25.6613 17.4113 26.4 16.5 26.4C15.5887 26.4 14.85 25.6613 14.85 24.75C14.85 23.8387 15.5887 23.1 16.5 23.1C17.4113 23.1 18.15 23.8387 18.15 24.75Z" fill="#0086FF"/>
</g>
</svg>
