<svg width="28" height="39" fill="none" xmlns="http://www.w3.org/2000/svg"><path fill-rule="evenodd" clip-rule="evenodd" d="M11.289.239c.28-.055.761-.13 1.068-.167A18.07 18.07 0 0 1 13.937 0a15.28 15.28 0 0 1 1.648.068c.346.04.895.127 1.22.193.327.065.853.197 1.17.292.317.096.828.272 1.135.39a16.519 16.519 0 0 1 2.502 1.282c.267.173.736.509 1.042.746.306.237.842.713 1.191 1.058.35.346.82.857 1.044 1.136.225.279.603.8.84 1.16.238.358.604 1 .813 1.425.21.425.462.978.56 1.229.097.25.25.709.34 1.018.089.309.217.821.284 1.138.067.317.156.87.198 1.229.045.39.076 1.056.076 1.656a20.1 20.1 0 0 1-.074 1.708c-.041.387-.13 1-.196 1.363-.067.363-.2.975-.294 1.36a28.404 28.404 0 0 1-1.113 3.383c-.168.412-.419.998-.558 1.302a42.77 42.77 0 0 1-.59 1.224c-.186.37-.515.99-.732 1.38a57.347 57.347 0 0 1-.878 1.505 60.65 60.65 0 0 1-1.128 1.764 61.825 61.825 0 0 1-1.262 1.811 72.43 72.43 0 0 1-1.205 1.595 74.759 74.759 0 0 1-2.903 3.455 58.657 58.657 0 0 1-2.564 2.652l-.49.478-.481-.441a39.094 39.094 0 0 1-1.204-1.181 68.032 68.032 0 0 1-1.38-1.462 85.889 85.889 0 0 1-1.258-1.42 69.762 69.762 0 0 1-2.37-2.932 61.704 61.704 0 0 1-.898-1.227 70.178 70.178 0 0 1-1.072-1.57 53.7 53.7 0 0 1-1.043-1.643c-.24-.398-.567-.964-.729-1.256a53.419 53.419 0 0 1-.763-1.466 39.731 39.731 0 0 1-.827-1.764 35.202 35.202 0 0 1-.586-1.457 36.867 36.867 0 0 1-.444-1.304 27.03 27.03 0 0 1-.38-1.353 27.19 27.19 0 0 1-.288-1.329 27.513 27.513 0 0 1-.206-1.352C.022 15.336 0 14.8 0 13.91c.001-1.02.02-1.353.109-1.933.059-.385.175-.983.258-1.328.083-.346.244-.9.358-1.232.115-.333.288-.79.385-1.015a15.875 15.875 0 0 1 1.002-1.893c.14-.221.436-.641.655-.933.22-.293.596-.752.836-1.02s.664-.69.94-.937c.277-.247.72-.612.984-.812.265-.2.702-.502.972-.672.27-.17.785-.458 1.146-.64.36-.18.907-.428 1.215-.55A15.86 15.86 0 0 1 10.098.53c.374-.106.91-.238 1.19-.292Zm3.764 11.059c.214.054.586.195.826.313s.585.336.765.484c.18.149.45.416.599.596.151.18.376.54.507.808.129.266.274.636.322.822.062.242.087.522.087.99 0 .53-.02.722-.107 1.029a6.02 6.02 0 0 1-.25.685c-.077.17-.212.414-.3.542a7.601 7.601 0 0 1-.332.442 4.517 4.517 0 0 1-.526.494 5.14 5.14 0 0 1-.802.502c-.247.121-.59.258-.764.304-.239.064-.505.085-1.093.085-.68 0-.823-.014-1.142-.113-.2-.063-.552-.21-.781-.327a4.89 4.89 0 0 1-.756-.498 4.924 4.924 0 0 1-.613-.64c-.15-.195-.36-.54-.467-.766a5.501 5.501 0 0 1-.272-.7 4.923 4.923 0 0 1-.108-.808 4.54 4.54 0 0 1 .032-.894c.034-.207.124-.548.201-.76.078-.21.227-.527.331-.702.105-.176.338-.477.517-.67.18-.192.46-.444.623-.56.164-.115.43-.275.59-.355a4.99 4.99 0 0 1 1.253-.4 5.25 5.25 0 0 1 .762-.02c.292.01.676.06.899.117Z" fill="#fff"/></svg>