<svg width="260" height="60" viewBox="0 0 260 60" fill="none" xmlns="http://www.w3.org/2000/svg">
<g clip-path="url(#clip0_415_74)">
<path d="M51.3832 50.9463C54.4841 50.9463 56.9979 48.4325 56.9979 45.3315C56.9979 42.2306 54.4841 39.7168 51.3832 39.7168C48.2822 39.7168 45.7684 42.2306 45.7684 45.3315C45.7684 48.4325 48.2822 50.9463 51.3832 50.9463Z" fill="white"/>
<path d="M42.3293 59.9981C45.4303 59.9981 47.9441 57.4842 47.9441 54.3833C47.9441 51.2824 45.4303 48.7686 42.3293 48.7686C39.2284 48.7686 36.7146 51.2824 36.7146 54.3833C36.7146 57.4842 39.2284 59.9981 42.3293 59.9981Z" fill="white"/>
<path d="M51.3832 32.8398C54.4841 32.8398 56.9979 30.326 56.9979 27.2251C56.9979 24.1242 54.4841 21.6104 51.3832 21.6104C48.2822 21.6104 45.7684 24.1242 45.7684 27.2251C45.7684 30.326 48.2822 32.8398 51.3832 32.8398Z" fill="white"/>
<path d="M42.3293 41.8921C45.4303 41.8921 47.9441 39.3783 47.9441 36.2773C47.9441 33.1764 45.4303 30.6626 42.3293 30.6626C39.2284 30.6626 36.7146 33.1764 36.7146 36.2773C36.7146 39.3783 39.2284 41.8921 42.3293 41.8921Z" fill="white"/>
<path d="M33.2755 50.9463C36.3765 50.9463 38.8903 48.4325 38.8903 45.3315C38.8903 42.2306 36.3765 39.7168 33.2755 39.7168C30.1746 39.7168 27.6608 42.2306 27.6608 45.3315C27.6608 48.4325 30.1746 50.9463 33.2755 50.9463Z" fill="white"/>
<path d="M51.3832 14.7322C54.4841 14.7322 56.9979 12.2184 56.9979 9.11743C56.9979 6.01649 54.4841 3.50269 51.3832 3.50269C48.2822 3.50269 45.7684 6.01649 45.7684 9.11743C45.7684 12.2184 48.2822 14.7322 51.3832 14.7322Z" fill="white"/>
<path d="M42.3293 23.7861C45.4303 23.7861 47.9441 21.2723 47.9441 18.1714C47.9441 15.0705 45.4303 12.5566 42.3293 12.5566C39.2284 12.5566 36.7146 15.0705 36.7146 18.1714C36.7146 21.2723 39.2284 23.7861 42.3293 23.7861Z" fill="white"/>
<path d="M33.2755 32.8398C36.3765 32.8398 38.8903 30.326 38.8903 27.2251C38.8903 24.1242 36.3765 21.6104 33.2755 21.6104C30.1746 21.6104 27.6608 24.1242 27.6608 27.2251C27.6608 30.326 30.1746 32.8398 33.2755 32.8398Z" fill="white"/>
<path d="M24.2233 41.8921C27.3242 41.8921 29.838 39.3783 29.838 36.2773C29.838 33.1764 27.3242 30.6626 24.2233 30.6626C21.1223 30.6626 18.6085 33.1764 18.6085 36.2773C18.6085 39.3783 21.1223 41.8921 24.2233 41.8921Z" fill="white"/>
<path d="M33.2755 14.7322C36.3765 14.7322 38.8903 12.2184 38.8903 9.11743C38.8903 6.01649 36.3765 3.50269 33.2755 3.50269C30.1746 3.50269 27.6608 6.01649 27.6608 9.11743C27.6608 12.2184 30.1746 14.7322 33.2755 14.7322Z" fill="white"/>
<path d="M24.2233 23.7861C27.3242 23.7861 29.838 21.2723 29.838 18.1714C29.838 15.0705 27.3242 12.5566 24.2233 12.5566C21.1223 12.5566 18.6085 15.0705 18.6085 18.1714C18.6085 21.2723 21.1223 23.7861 24.2233 23.7861Z" fill="white"/>
<path d="M15.1693 32.8398C18.2703 32.8398 20.7841 30.326 20.7841 27.2251C20.7841 24.1242 18.2703 21.6104 15.1693 21.6104C12.0684 21.6104 9.55457 24.1242 9.55457 27.2251C9.55457 30.326 12.0684 32.8398 15.1693 32.8398Z" fill="white"/>
<path d="M15.1693 14.7322C18.2703 14.7322 20.7841 12.2184 20.7841 9.11743C20.7841 6.01649 18.2703 3.50269 15.1693 3.50269C12.0684 3.50269 9.55457 6.01649 9.55457 9.11743C9.55457 12.2184 12.0684 14.7322 15.1693 14.7322Z" fill="white"/>
<path d="M6.11548 23.7861C9.21642 23.7861 11.7302 21.2723 11.7302 18.1714C11.7302 15.0705 9.21642 12.5566 6.11548 12.5566C3.01454 12.5566 0.500732 15.0705 0.500732 18.1714C0.500732 21.2723 3.01454 23.7861 6.11548 23.7861Z" fill="white"/>
<path d="M77.1759 15.626C76.7977 14.7022 76.4212 13.7851 76.0496 12.8713C75.6764 11.9592 75.3016 11.0472 74.9233 10.1334C74.8346 9.92254 74.7208 9.62465 74.5819 9.23973C74.443 8.85649 74.2974 8.413 74.1485 7.91261C73.9979 7.41222 73.8623 6.89509 73.7401 6.35956C73.7619 6.98379 73.7786 7.56953 73.7903 8.12013C73.8021 8.67072 73.8021 9.19622 73.7903 9.69828V10.4497C73.7903 10.7058 73.787 10.9585 73.782 11.2095C73.777 11.4605 73.7736 11.7099 73.7736 11.9609V12.7207C73.7736 13.0219 73.7652 13.3115 73.7485 13.5893C73.7318 13.8671 73.7117 14.0796 73.6899 14.2236C73.879 14.2018 74.11 14.1884 74.3828 14.1817C74.6556 14.1767 74.848 14.1733 74.9585 14.1733V15.4586H71.1528V14.3574C71.4089 14.3457 71.6231 14.3123 71.7955 14.257C71.9678 14.2018 72.1017 14.0729 72.1954 13.8738C72.2892 13.673 72.3377 13.3516 72.3377 12.9048L72.4381 6.51185C72.4498 6.21061 72.4599 5.92276 72.4716 5.64328C72.4833 5.36547 72.4933 5.15293 72.5051 5.009C72.3277 5.02072 72.1051 5.02909 71.8373 5.03411C71.5695 5.03913 71.3754 5.0475 71.2532 5.05921V3.77393H74.9417L77.4621 10.2338C77.5625 10.4899 77.673 10.7878 77.7968 11.1275C77.919 11.4672 78.0361 11.7952 78.1466 12.1115C78.257 12.4295 78.3407 12.6822 78.3976 12.8713H78.4143C78.5583 12.4814 78.6922 12.1032 78.8143 11.7367C78.9365 11.3702 79.0654 11.0137 79.1976 10.6689C79.631 9.51084 80.0628 8.35944 80.4912 7.21306C80.9196 6.06668 81.3514 4.92031 81.7849 3.77393H85.6407V4.87512C85.3964 4.88683 85.1788 4.92031 84.9897 4.97553C84.8006 5.03076 84.6584 5.15628 84.5646 5.35041C84.4692 5.54454 84.4291 5.87088 84.4391 6.32608L84.6901 12.719C84.7119 13.0203 84.7119 13.3098 84.6901 13.5876C84.6684 13.8654 84.645 14.078 84.6232 14.2219C84.8123 14.2001 85.0433 14.1867 85.3161 14.18C85.5888 14.175 85.7813 14.1717 85.8918 14.1717V15.457H81.251V14.3558C81.5071 14.344 81.7263 14.3106 81.9104 14.2554C82.0945 14.2001 82.2334 14.0713 82.3271 13.8721C82.4208 13.6713 82.4576 13.35 82.4359 12.9031L82.302 9.36357C82.302 9.22969 82.2903 8.99874 82.2685 8.67072C82.2468 8.34271 82.2267 7.98122 82.21 7.58627C82.1932 7.19131 82.1798 6.82145 82.1681 6.4767C82.1346 6.55536 82.1012 6.63067 82.0677 6.70263C82.0342 6.7746 82.0058 6.84991 81.984 6.92856L78.729 15.626H77.1759Z" fill="white"/>
<path d="M92.9843 15.7263C91.9266 15.7263 91.0279 15.5489 90.2882 15.1925C89.5485 14.836 88.9494 14.3607 88.4942 13.7649C88.0373 13.1692 87.7043 12.5098 87.4934 11.7868C87.2825 11.0638 87.1754 10.3409 87.1754 9.61622C87.1754 8.89158 87.2942 8.20542 87.5336 7.48747C87.7729 6.76952 88.1344 6.11014 88.618 5.50934C89.1017 4.90854 89.7108 4.42488 90.4455 4.0567C91.1802 3.68852 92.0421 3.5061 93.0328 3.5061C94.0236 3.5061 94.9189 3.69019 95.6536 4.0567C96.3883 4.42321 96.9891 4.91021 97.456 5.51771C97.9229 6.1252 98.271 6.78458 98.4986 7.49584C98.7262 8.20877 98.84 8.91501 98.84 9.61622C98.84 10.3174 98.7195 11.0069 98.4819 11.7199C98.2426 12.4328 97.8811 13.0922 97.3974 13.698C96.9138 14.3038 96.3046 14.7942 95.5699 15.1674C94.8352 15.5406 93.9734 15.7263 92.9826 15.7263H92.9843ZM93.1684 14.508C93.7474 14.508 94.2311 14.3657 94.621 14.0829C95.011 13.7984 95.3222 13.4286 95.5565 12.9734C95.7908 12.5165 95.9565 12.0194 96.0569 11.4789C96.1573 10.94 96.2076 10.4128 96.2076 9.90073C96.2076 9.13257 96.1406 8.43135 96.0067 7.79708C95.8728 7.1628 95.667 6.61555 95.3892 6.15365C95.1114 5.69176 94.7583 5.33529 94.3298 5.08593C93.9014 4.8349 93.3977 4.71608 92.8186 4.72779C92.2513 4.73951 91.7727 4.8918 91.3827 5.18634C90.9928 5.48089 90.6815 5.85911 90.4472 6.32101C90.2129 6.78291 90.0472 7.28665 89.9468 7.83222C89.8464 8.3778 89.7962 8.90664 89.7962 9.41874C89.7962 9.93085 89.8548 10.4982 89.9719 11.0873C90.0891 11.678 90.2748 12.2337 90.5309 12.7558C90.7869 13.2796 91.1317 13.7014 91.5651 14.0243C91.9986 14.3473 92.5341 14.508 93.1684 14.508Z" fill="white"/>
<path d="M108.876 7.51254C108.732 6.58874 108.423 5.89255 107.949 5.42563C107.476 4.95871 106.85 4.71939 106.071 4.70767C105.492 4.70767 104.987 4.84156 104.552 5.10765C104.118 5.37542 103.759 5.73021 103.476 6.17538C103.191 6.62054 102.98 7.12762 102.841 7.69496C102.703 8.26229 102.632 8.84636 102.632 9.44716C102.632 10.4044 102.768 11.2529 103.041 11.9926C103.313 12.7323 103.712 13.3147 104.234 13.7365C104.756 14.1599 105.392 14.3707 106.137 14.3707C106.838 14.3707 107.532 14.19 108.224 13.8285C108.913 13.467 109.492 12.9633 109.959 12.3173L110.761 13.052C110.215 13.7984 109.643 14.3624 109.042 14.7456C108.441 15.1289 107.854 15.3883 107.281 15.5221C106.707 15.656 106.194 15.723 105.737 15.723C104.88 15.723 104.102 15.5707 103.4 15.2644C102.699 14.9581 102.095 14.5364 101.59 13.9959C101.083 13.457 100.694 12.8277 100.422 12.1098C100.149 11.3918 100.013 10.6153 100.013 9.78187C100.013 9.02543 100.135 8.274 100.38 7.5276C100.624 6.78287 100.989 6.10676 101.473 5.49926C101.956 4.89344 102.565 4.40811 103.3 4.04662C104.035 3.68514 104.887 3.50439 105.854 3.50439C106.287 3.50439 106.764 3.57468 107.281 3.71359C107.799 3.85249 108.286 4.05499 108.742 4.32276L108.675 3.62154H109.961V7.51087H108.876V7.51254Z" fill="white"/>
<path d="M111.746 15.4586V14.3574C112.002 14.3457 112.217 14.3122 112.389 14.257C112.561 14.2018 112.695 14.0729 112.789 13.8737C112.883 13.6729 112.931 13.3516 112.931 12.9048V6.51181C112.931 6.21057 112.94 5.92272 112.956 5.64324C112.973 5.36543 112.987 5.15289 112.998 5.00897C112.821 5.02068 112.598 5.02905 112.33 5.03407C112.063 5.03909 111.869 5.04746 111.746 5.05917V3.77389H116.538V4.87508C116.293 4.8868 116.081 4.92027 115.904 4.9755C115.726 5.03072 115.589 5.15624 115.495 5.35037C115.4 5.5445 115.353 5.87084 115.353 6.32605V8.86315H116.555L117.84 6.67582C118.029 6.34111 118.23 6.00808 118.441 5.67504C118.651 5.342 118.831 5.11273 118.974 4.99056C118.797 5.00227 118.608 5.01231 118.407 5.02403C118.206 5.03574 118.046 5.04579 117.923 5.0575V3.77222H122.014V4.87341C121.769 4.88513 121.505 4.92864 121.22 5.00729C120.936 5.08595 120.645 5.24159 120.343 5.47421C120.042 5.70684 119.738 6.07502 119.425 6.57541L117.821 9.14598C118.044 9.2899 118.241 9.44387 118.414 9.60453C118.586 9.76519 118.739 9.94091 118.872 10.13L120.591 12.55C120.814 12.8612 121.045 13.1541 121.284 13.4269C121.523 13.6997 121.771 13.9189 122.027 14.0863C122.283 14.2536 122.532 14.3423 122.778 14.3541V15.4552H120.208C120.119 15.4435 119.974 15.3448 119.774 15.154C119.574 14.9649 119.363 14.7373 119.14 14.4695C118.918 14.2018 118.728 13.9624 118.573 13.7516L116.919 11.3484C116.775 11.1375 116.616 10.9199 116.444 10.6974C116.272 10.4748 116.108 10.3074 115.952 10.197H115.351V12.7173C115.351 13.0186 115.346 13.3081 115.335 13.5859C115.323 13.8637 115.306 14.0762 115.284 14.2202C115.462 14.1984 115.688 14.185 115.96 14.1783C116.233 14.1733 116.426 14.17 116.536 14.17V15.4552H111.745L111.746 15.4586Z" fill="white"/>
<path d="M128.507 15.7263C127.449 15.7263 126.551 15.5489 125.811 15.1925C125.071 14.836 124.472 14.3607 124.017 13.7649C123.56 13.1692 123.227 12.5098 123.016 11.7868C122.805 11.0638 122.698 10.3409 122.698 9.61622C122.698 8.89158 122.817 8.20542 123.056 7.48747C123.296 6.76952 123.657 6.11014 124.141 5.50934C124.624 4.90854 125.234 4.42488 125.968 4.0567C126.703 3.68852 127.565 3.5061 128.556 3.5061C129.546 3.5061 130.442 3.69019 131.176 4.0567C131.911 4.42321 132.512 4.91021 132.979 5.51771C133.446 6.1252 133.794 6.78458 134.021 7.49584C134.249 8.20877 134.363 8.91501 134.363 9.61622C134.363 10.3174 134.242 11.0069 134.005 11.7199C133.765 12.4328 133.404 13.0922 132.92 13.698C132.436 14.3038 131.827 14.7942 131.093 15.1674C130.358 15.5406 129.496 15.7263 128.505 15.7263H128.507ZM128.691 14.508C129.27 14.508 129.754 14.3657 130.144 14.0829C130.534 13.7984 130.845 13.4286 131.079 12.9734C131.314 12.5165 131.479 12.0194 131.58 11.4789C131.68 10.94 131.73 10.4128 131.73 9.90073C131.73 9.13257 131.663 8.43135 131.529 7.79708C131.396 7.1628 131.19 6.61555 130.912 6.15365C130.634 5.69176 130.281 5.33529 129.853 5.08593C129.424 4.8349 128.92 4.71608 128.341 4.72779C127.774 4.73951 127.295 4.8918 126.905 5.18634C126.515 5.48089 126.204 5.85911 125.97 6.32101C125.736 6.78291 125.57 7.28665 125.47 7.83222C125.369 8.3778 125.319 8.90664 125.319 9.41874C125.319 9.93085 125.377 10.4982 125.495 11.0873C125.612 11.678 125.798 12.2337 126.054 12.7558C126.31 13.2796 126.654 13.7014 127.088 14.0243C127.521 14.3473 128.057 14.508 128.691 14.508Z" fill="white"/>
<path d="M135.584 15.4586V14.3574C135.84 14.3457 136.055 14.3122 136.227 14.257C136.399 14.2017 136.533 14.0729 136.627 13.8737C136.721 13.6729 136.769 13.3516 136.769 12.9047V6.51178C136.769 6.21054 136.778 5.92269 136.794 5.64321C136.811 5.3654 136.825 5.15286 136.836 5.00894C136.659 5.02065 136.436 5.02902 136.169 5.03404C135.901 5.03906 135.707 5.04743 135.584 5.05914V3.77386C136.353 3.76214 137.122 3.75712 137.896 3.75712C138.669 3.75712 139.44 3.7521 140.207 3.74039C141.542 3.72867 142.602 3.97636 143.387 4.48344C144.171 4.99053 144.536 5.75534 144.479 6.77787C144.458 7.10087 144.357 7.4155 144.18 7.72175C144.002 8.02801 143.738 8.30415 143.387 8.54849C143.037 8.79283 142.598 8.98863 142.076 9.13255V9.14929C143.189 9.32669 144.007 9.69821 144.53 10.2589C145.052 10.8212 145.314 11.4471 145.314 12.1366C145.314 12.8261 145.139 13.4687 144.789 13.9641C144.439 14.4595 143.957 14.8327 143.345 15.082C142.732 15.333 142.038 15.4569 141.258 15.4569H135.583L135.584 15.4586ZM139.124 14.2737H139.691C139.869 14.2737 140.048 14.2703 140.225 14.2653C140.403 14.2603 140.575 14.257 140.742 14.257C141.42 14.2235 141.915 14.0059 142.228 13.6059C142.54 13.206 142.695 12.6989 142.695 12.0864C142.695 11.5743 142.59 11.1709 142.379 10.8764C142.168 10.5818 141.897 10.3727 141.569 10.2505C141.241 10.1283 140.898 10.0664 140.543 10.0664H139.825C139.624 10.0664 139.414 10.0714 139.191 10.0831V12.8043C139.191 13.1056 139.186 13.3884 139.174 13.6562C139.162 13.9239 139.146 14.1298 139.124 14.2737ZM139.191 8.89826L140.06 8.88152C140.526 8.86981 140.896 8.76437 141.169 8.56355C141.442 8.36272 141.636 8.09328 141.753 7.75355C141.87 7.41382 141.929 7.04397 141.929 6.64399C141.929 6.19883 141.84 5.85073 141.661 5.60137C141.484 5.35034 141.261 5.1696 140.993 5.05914C140.726 4.94869 140.448 4.89848 140.158 4.90852C139.981 4.90852 139.819 4.93697 139.675 4.9922C139.529 5.04743 139.414 5.17294 139.325 5.36707C139.236 5.56121 139.191 5.87583 139.191 6.31095V8.89826Z" fill="white"/>
<path d="M155.232 7.51254C155.086 6.58874 154.778 5.89255 154.305 5.42563C153.831 4.95871 153.205 4.71939 152.427 4.70767C151.848 4.70767 151.342 4.84156 150.907 5.10765C150.474 5.37542 150.114 5.73021 149.831 6.17538C149.547 6.62054 149.336 7.12762 149.197 7.69496C149.058 8.26229 148.988 8.84636 148.988 9.44716C148.988 10.4044 149.123 11.2529 149.396 11.9926C149.669 12.7323 150.067 13.3147 150.589 13.7365C151.111 14.1599 151.747 14.3707 152.492 14.3707C153.193 14.3707 153.888 14.19 154.579 13.8285C155.269 13.467 155.848 12.9633 156.315 12.3173L157.116 13.052C156.571 13.7984 155.998 14.3624 155.397 14.7456C154.797 15.1289 154.209 15.3883 153.637 15.5221C153.065 15.656 152.549 15.723 152.092 15.723C151.235 15.723 150.455 15.5707 149.756 15.2644C149.056 14.9581 148.451 14.5364 147.945 13.9959C147.438 13.457 147.05 12.8277 146.777 12.1098C146.504 11.3918 146.369 10.6153 146.369 9.78187C146.369 9.02543 146.491 8.274 146.735 7.5276C146.979 6.78287 147.344 6.10676 147.828 5.49926C148.312 4.89344 148.921 4.40811 149.656 4.04662C150.39 3.68514 151.242 3.50439 152.209 3.50439C152.643 3.50439 153.12 3.57468 153.637 3.71359C154.154 3.85249 154.641 4.05499 155.098 4.32276L155.031 3.62154H156.316V7.51087H155.232V7.51254Z" fill="white"/>
<path d="M158.102 15.4586V14.3574C158.358 14.3457 158.572 14.3122 158.745 14.257C158.917 14.2018 159.051 14.0729 159.145 13.8737C159.238 13.6729 159.287 13.3516 159.287 12.9048V6.51181C159.287 6.21057 159.295 5.92272 159.312 5.64324C159.329 5.36543 159.342 5.15289 159.354 5.00897C159.176 5.02068 158.954 5.02905 158.686 5.03407C158.418 5.03909 158.224 5.04746 158.102 5.05917V3.77389H162.893V4.87508C162.649 4.8868 162.436 4.92027 162.259 4.9755C162.082 5.03072 161.944 5.15624 161.851 5.35037C161.755 5.5445 161.709 5.87084 161.709 6.32605V8.86315H162.91L164.195 6.67582C164.385 6.34111 164.585 6.00808 164.796 5.67504C165.007 5.342 165.186 5.11273 165.33 4.99056C165.153 5.00227 164.964 5.01231 164.763 5.02403C164.562 5.03574 164.401 5.04579 164.279 5.0575V3.77222H168.369V4.87341C168.125 4.88513 167.86 4.92864 167.576 5.00729C167.291 5.08595 167 5.24159 166.699 5.47421C166.398 5.70851 166.092 6.07502 165.78 6.57541L164.177 9.14598C164.4 9.2899 164.597 9.44387 164.769 9.60453C164.942 9.76519 165.096 9.94091 165.228 10.13L166.947 12.55C167.169 12.8612 167.4 13.1541 167.64 13.4269C167.879 13.6997 168.127 13.9189 168.383 14.0863C168.639 14.2536 168.888 14.3423 169.134 14.3541V15.4552H166.563C166.475 15.4435 166.329 15.3448 166.13 15.154C165.929 14.9649 165.718 14.7373 165.496 14.4695C165.273 14.2018 165.084 13.9624 164.928 13.7516L163.275 11.3484C163.129 11.1375 162.972 10.9199 162.8 10.6974C162.627 10.4748 162.463 10.3074 162.308 10.197H161.707V12.7173C161.707 13.0186 161.702 13.3081 161.69 13.5859C161.678 13.8637 161.662 14.0762 161.64 14.2202C161.817 14.1984 162.043 14.185 162.316 14.1783C162.589 14.1733 162.781 14.17 162.892 14.17V15.4552H158.1L158.102 15.4586Z" fill="white"/>
<path d="M174.779 4.87512C174.534 4.88683 174.322 4.92031 174.145 4.97553C173.967 5.03076 173.83 5.15628 173.736 5.35041C173.641 5.54454 173.594 5.87088 173.594 6.32608V12.719C173.594 13.0203 173.589 13.3098 173.577 13.5876C173.565 13.8654 173.549 14.078 173.527 14.2219C173.704 14.2001 173.93 14.1867 174.203 14.18C174.476 14.175 174.668 14.1717 174.779 14.1717V15.457H169.987V14.3558C170.243 14.344 170.458 14.3106 170.63 14.2554C170.802 14.2001 170.936 14.0713 171.03 13.8721C171.124 13.6713 171.172 13.35 171.172 12.9031V6.51185C171.172 6.21061 171.181 5.92276 171.197 5.64328C171.214 5.36547 171.228 5.15293 171.239 5.009C171.062 5.02072 170.839 5.02909 170.571 5.03411C170.304 5.03913 170.11 5.0475 169.987 5.05921V3.77393H174.779V4.87512ZM179.671 4.27432L180.472 5.07595L172.143 14.975L171.291 14.1231L179.671 4.27432ZM181.99 4.87512C181.746 4.88683 181.533 4.92031 181.356 4.97553C181.178 5.03076 181.041 5.15628 180.947 5.35041C180.852 5.54454 180.805 5.87088 180.805 6.32608V12.719C180.805 13.0203 180.8 13.3098 180.789 13.5876C180.777 13.8654 180.76 14.078 180.738 14.2219C180.916 14.2001 181.142 14.1867 181.414 14.18C181.687 14.175 181.88 14.1717 181.99 14.1717V15.457H177.199V14.3558C177.455 14.344 177.669 14.3106 177.841 14.2554C178.014 14.2001 178.148 14.0713 178.241 13.8721C178.335 13.6713 178.384 13.35 178.384 12.9031V6.51185C178.384 6.21061 178.392 5.92276 178.409 5.64328C178.425 5.36547 178.439 5.15293 178.451 5.009C178.273 5.02072 178.051 5.02909 177.783 5.03411C177.515 5.03913 177.321 5.0475 177.199 5.05921V3.77393H181.99V4.87512Z" fill="white"/>
<path d="M188.45 4.87508C188.206 4.88679 187.993 4.92027 187.816 4.97549C187.638 5.03072 187.501 5.15624 187.407 5.35037C187.312 5.5445 187.265 5.87084 187.265 6.32604V12.719C187.265 13.0202 187.26 13.3098 187.248 13.5876C187.237 13.8654 187.22 14.0779 187.198 14.2218C187.376 14.2001 187.602 14.1867 187.874 14.18C188.147 14.175 188.34 14.1716 188.45 14.1716V15.4569H183.659V14.3557C183.915 14.344 184.129 14.3105 184.301 14.2553C184.474 14.2001 184.608 14.0712 184.701 13.8721C184.795 13.6712 184.844 13.3499 184.844 12.9031V6.51181C184.844 6.21057 184.852 5.92272 184.869 5.64324C184.885 5.36543 184.899 5.15289 184.911 5.00896C184.733 5.02068 184.511 5.02905 184.243 5.03407C183.975 5.03909 183.781 5.04745 183.659 5.05917V3.77389H188.45V4.87508ZM193.342 4.27428L194.143 5.07591L185.814 14.9749L184.962 14.1231L193.342 4.27428ZM187.448 3.73145e-05C187.715 -0.0116775 187.918 0.0452231 188.057 0.167392C188.196 0.289561 188.293 0.426792 188.35 0.575737C188.405 0.726357 188.433 0.845178 188.433 0.933876C188.433 1.03429 188.42 1.13972 188.391 1.25185C188.363 1.36398 188.321 1.47945 188.266 1.60162C188.433 1.71375 188.639 1.79575 188.883 1.85265C189.128 1.90788 189.379 1.93633 189.635 1.93633C189.891 1.93633 190.14 1.90788 190.386 1.85265C190.631 1.79743 190.831 1.71375 190.987 1.60162C190.875 1.37904 190.82 1.15646 190.82 0.933876C190.82 0.845178 190.848 0.724683 190.903 0.575737C190.959 0.425118 191.059 0.289561 191.205 0.167392C191.349 0.0452231 191.549 -0.010004 191.806 3.73145e-05C192.128 3.73145e-05 192.364 0.108818 192.515 0.324705C192.666 0.542266 192.741 0.783257 192.741 1.05102C192.741 1.42925 192.595 1.74722 192.308 2.00327C192.018 2.25933 191.64 2.45178 191.173 2.57897C190.706 2.70784 190.194 2.77143 189.637 2.77143C189.079 2.77143 188.566 2.70784 188.092 2.57897C187.618 2.45178 187.24 2.25933 186.957 2.00327C186.673 1.74722 186.532 1.43092 186.532 1.05102C186.532 0.783257 186.604 0.542266 186.75 0.324705C186.894 0.107144 187.128 3.73145e-05 187.451 3.73145e-05H187.448ZM195.661 4.87508C195.417 4.88679 195.204 4.92027 195.027 4.97549C194.85 5.03072 194.712 5.15624 194.619 5.35037C194.523 5.5445 194.476 5.87084 194.476 6.32604V12.719C194.476 13.0202 194.471 13.3098 194.46 13.5876C194.448 13.8654 194.431 14.0779 194.41 14.2218C194.587 14.2001 194.813 14.1867 195.086 14.18C195.358 14.175 195.551 14.1716 195.661 14.1716V15.4569H190.87V14.3557C191.126 14.344 191.34 14.3105 191.513 14.2553C191.685 14.2001 191.819 14.0712 191.913 13.8721C192.006 13.6712 192.055 13.3499 192.055 12.9031V6.51181C192.055 6.21057 192.063 5.92272 192.08 5.64324C192.097 5.36543 192.11 5.15289 192.122 5.00896C191.944 5.02068 191.722 5.02905 191.454 5.03407C191.186 5.03909 190.992 5.04745 190.87 5.05917V3.77389H195.661V4.87508Z" fill="white"/>
<path d="M212.804 18.4141C212.815 17.8351 212.79 17.323 212.728 16.8778C212.666 16.4326 212.547 16.0845 212.37 15.8352C212.193 15.5841 211.942 15.4603 211.619 15.4603H201.887V14.3591C202.143 14.3474 202.357 14.3139 202.53 14.2587C202.702 14.2035 202.836 14.0746 202.93 13.8755C203.023 13.6746 203.072 13.3533 203.072 12.9065V6.51185C203.072 6.21061 203.08 5.92276 203.097 5.64328C203.114 5.36547 203.127 5.15293 203.139 5.009C202.961 5.02072 202.739 5.03076 202.471 5.04247C202.203 5.05419 202.009 5.05921 201.887 5.05921V3.77393H206.678V4.87512C206.434 4.88683 206.221 4.92031 206.044 4.97553C205.867 5.03076 205.729 5.15628 205.636 5.35041C205.54 5.54454 205.493 5.87088 205.493 6.32608V14.2051L208.682 14.1549C208.926 14.1432 209.135 14.1114 209.307 14.0545C209.48 13.9993 209.61 13.8704 209.699 13.6713C209.788 13.4705 209.833 13.1491 209.833 12.7023V6.51185C209.833 6.21061 209.841 5.92276 209.858 5.64328C209.875 5.36547 209.888 5.15293 209.9 5.009C209.723 5.02072 209.5 5.03076 209.232 5.04247C208.964 5.05419 208.77 5.05921 208.648 5.05921V3.77393H213.439V4.87512C213.195 4.88683 212.983 4.92031 212.805 4.97553C212.628 5.03076 212.491 5.15628 212.397 5.35041C212.301 5.54454 212.255 5.87088 212.255 6.32608V12.719C212.255 13.0203 212.25 13.3098 212.238 13.5876C212.226 13.8654 212.209 14.078 212.188 14.2219L214.024 14.1382V18.4108H212.805L212.804 18.4141Z" fill="white"/>
<path d="M220.967 11.4354C220.967 10.9685 220.895 10.6288 220.749 10.4179C220.606 10.207 220.408 10.0765 220.157 10.0263C219.906 9.97609 219.631 9.95601 219.33 9.96772L218.897 9.98446V12.7224C218.897 13.0236 218.892 13.3064 218.88 13.5742C218.868 13.842 218.852 14.0478 218.83 14.1918H221.067C221.402 14.1918 221.723 14.1164 222.036 13.9658C222.348 13.8152 222.604 13.5658 222.805 13.2144C223.005 12.8646 223.106 12.3877 223.106 11.7869H224.19L224.107 15.4586H215.292V14.3574C215.548 14.3457 215.762 14.3123 215.935 14.257C216.107 14.2018 216.241 14.0729 216.335 13.8738C216.428 13.673 216.477 13.3516 216.477 12.9048V6.51185C216.477 6.21061 216.485 5.92276 216.502 5.64328C216.519 5.36547 216.532 5.15293 216.544 5.009C216.366 5.02072 216.144 5.02909 215.876 5.03411C215.608 5.03913 215.414 5.0475 215.292 5.05921V3.77393H223.638L223.738 7.01224H222.637C222.637 6.39972 222.532 5.93782 222.319 5.62654C222.108 5.31526 221.846 5.10607 221.534 5.00064C221.223 4.8952 220.917 4.84834 220.616 4.85838L220.015 4.87512C219.78 4.87512 219.581 4.90524 219.414 4.96716C219.247 5.02909 219.119 5.1613 219.031 5.36714C218.942 5.57299 218.897 5.89264 218.897 6.32776V8.83138H220.85L220.783 7.37875H222.068V11.4354H220.967Z" fill="white"/>
<path d="M225.707 15.4586V14.3574C225.963 14.3457 226.177 14.3122 226.349 14.257C226.522 14.2018 226.655 14.0729 226.749 13.8737C226.843 13.6729 226.891 13.3516 226.891 12.9048V6.51181C226.891 6.21057 226.9 5.92272 226.917 5.64324C226.933 5.36543 226.947 5.15289 226.958 5.00897C226.781 5.02068 226.558 5.02905 226.291 5.03407C226.023 5.03909 225.829 5.04746 225.707 5.05917V3.77389H230.498V4.87508C230.254 4.8868 230.041 4.92027 229.864 4.9755C229.686 5.03072 229.549 5.15624 229.455 5.35037C229.36 5.5445 229.313 5.87084 229.313 6.32605V8.93009H233.904V6.51014C233.904 6.2089 233.909 5.92105 233.92 5.64157C233.932 5.36376 233.949 5.15122 233.971 5.00729C233.793 5.01901 233.571 5.02738 233.303 5.0324C233.035 5.03742 232.841 5.04579 232.719 5.0575V3.77222H237.51V4.87341C237.266 4.88513 237.053 4.9186 236.876 4.97382C236.698 5.02905 236.561 5.15457 236.467 5.3487C236.372 5.54283 236.325 5.86917 236.325 6.32438V12.7173C236.325 13.0186 236.32 13.3081 236.308 13.5859C236.297 13.8637 236.28 14.0762 236.258 14.2202C236.436 14.1984 236.662 14.185 236.934 14.1783C237.207 14.1733 237.4 14.17 237.51 14.17V15.4552H232.719V14.3541C232.975 14.3423 233.189 14.3089 233.361 14.2536C233.534 14.1984 233.668 14.0695 233.761 13.8704C233.855 13.6696 233.904 13.3483 233.904 12.9014V10.197L229.313 10.2472V12.7173C229.313 13.0186 229.308 13.3081 229.296 13.5859C229.285 13.8637 229.268 14.0762 229.246 14.2202C229.423 14.1984 229.649 14.185 229.922 14.1783C230.195 14.1733 230.387 14.17 230.498 14.17V15.4552H225.707V15.4586Z" fill="white"/>
<path d="M247.809 7.5461C247.809 6.9453 247.725 6.44658 247.558 6.05162C247.391 5.65667 247.155 5.36212 246.848 5.16632C246.542 4.97219 246.177 4.88014 245.756 4.89018H244.954V12.719C244.954 13.0203 244.949 13.3098 244.937 13.5876C244.926 13.8654 244.909 14.078 244.887 14.2219C245.076 14.2001 245.319 14.1867 245.613 14.18C245.908 14.175 246.11 14.1717 246.223 14.1717V15.457H241.348V14.3558C241.604 14.344 241.818 14.3106 241.99 14.2554C242.163 14.2001 242.296 14.0713 242.39 13.8721C242.484 13.6713 242.532 13.35 242.532 12.9031V4.90859H241.764C241.13 4.92031 240.63 5.13619 240.261 5.5596C239.895 5.98301 239.711 6.64406 239.711 7.5461H238.61L238.693 3.77393H248.81L248.91 7.5461H247.809Z" fill="white"/>
<path d="M250.028 14.3575C250.284 14.3457 250.499 14.3123 250.671 14.257C250.843 14.2018 250.977 14.073 251.071 13.8738C251.165 13.673 251.213 13.3517 251.213 12.9048V6.51187C251.213 6.21063 251.221 5.92278 251.238 5.6433C251.255 5.36549 251.268 5.15295 251.28 5.00903C251.103 5.02074 250.88 5.02911 250.612 5.03413C250.345 5.03915 250.15 5.04752 250.028 5.05923V3.77395C250.818 3.76223 251.608 3.75721 252.398 3.75721C253.188 3.75721 253.978 3.75219 254.768 3.74048C255.747 3.72876 256.602 3.85763 257.33 4.12372C258.058 4.39149 258.62 4.80318 259.015 5.3588C259.41 5.91609 259.596 6.63906 259.574 7.52939C259.562 7.97455 259.457 8.41135 259.258 8.83978C259.057 9.2682 258.762 9.65814 258.373 10.0079C257.983 10.3577 257.494 10.6455 256.903 10.8681C256.312 11.0907 255.623 11.2129 254.833 11.2346C254.589 11.2463 254.374 11.2514 254.19 11.2514C254.006 11.2514 253.821 11.2463 253.631 11.2346V12.704C253.631 13.0153 253.626 13.3098 253.615 13.5893C253.603 13.8671 253.586 14.0797 253.564 14.2236C253.687 14.2119 253.842 14.2035 254.031 14.1985C254.22 14.1935 254.406 14.1868 254.59 14.1817C254.774 14.1767 254.905 14.1734 254.982 14.1734V15.4587H250.025V14.3575H250.028ZM253.633 9.98448C253.755 9.9962 253.877 10.0062 254 10.018C254.122 10.0297 254.251 10.0347 254.383 10.0347C254.995 10.0347 255.492 9.9326 255.877 9.72508C256.261 9.51924 256.542 9.218 256.721 8.82304C256.898 8.42808 256.989 7.9461 256.989 7.37877C256.989 6.81144 256.913 6.37799 256.763 6.04328C256.612 5.71024 256.421 5.46256 256.187 5.30022C255.953 5.13956 255.708 5.03246 255.452 4.98225C255.196 4.93204 254.962 4.90694 254.751 4.90694C254.517 4.90694 254.318 4.93539 254.15 4.99062C253.983 5.04584 253.856 5.16801 253.767 5.35712C253.678 5.54624 253.633 5.83576 253.633 6.2257V9.98113V9.98448Z" fill="white"/>
<path d="M71.1996 37.5931V36.4919C71.4557 36.4802 71.6699 36.4484 71.8423 36.3915C72.0147 36.3362 72.1485 36.2074 72.2423 36.0082C72.336 35.8074 72.3845 35.4861 72.3845 35.0393V28.6463C72.3845 28.3451 72.3929 28.0572 72.4096 27.7777C72.4263 27.4999 72.4397 27.2891 72.4514 27.1435C72.2741 27.1552 72.0515 27.1635 71.7837 27.1686C71.5159 27.1736 71.3218 27.1819 71.1996 27.1937V25.9084C71.9678 25.8967 72.7376 25.8916 73.5108 25.8916C74.284 25.8916 75.0555 25.8866 75.822 25.8749C77.1575 25.8632 78.2168 26.1109 79.0017 26.618C79.7866 27.125 80.1514 27.8899 80.0945 28.9124C80.0728 29.2354 79.9724 29.55 79.7933 29.8563C79.6159 30.1625 79.3515 30.437 79 30.683C78.6503 30.9273 78.2118 31.1232 77.6897 31.2671V31.2838C78.8026 31.4612 79.6209 31.8327 80.1431 32.3934C80.6652 32.9557 80.928 33.5816 80.928 34.2711C80.928 34.9606 80.7522 35.6032 80.4025 36.0986C80.0527 36.594 79.5707 36.9672 78.9582 37.2165C78.3457 37.4676 77.6512 37.5914 76.8713 37.5914H71.1963L71.1996 37.5931ZM74.7392 36.4082H75.3065C75.4839 36.4082 75.663 36.4049 75.8404 36.3998C76.0178 36.3948 76.1902 36.3915 76.3575 36.3915C77.037 36.358 77.5307 36.1404 77.8436 35.7405C78.1549 35.3405 78.3105 34.8334 78.3105 34.2209C78.3105 33.7088 78.2051 33.3055 77.9926 33.0109C77.7817 32.7164 77.5106 32.5072 77.1826 32.385C76.8546 32.2628 76.5115 32.2009 76.1567 32.2009H75.4387C75.2379 32.2009 75.027 32.2059 74.8045 32.2177V34.9388C74.8045 35.2384 74.7994 35.5229 74.7877 35.7907C74.776 36.0584 74.7593 36.2643 74.7375 36.4082H74.7392ZM74.8061 31.0328L75.6747 31.016C76.1416 31.0043 76.5115 30.8989 76.7843 30.6997C77.0571 30.4989 77.2512 30.2295 77.3683 29.8897C77.4855 29.55 77.5441 29.1802 77.5441 28.7802C77.5441 28.335 77.4554 27.9869 77.2763 27.7376C77.0989 27.4865 76.8763 27.3058 76.6085 27.1953C76.3408 27.0849 76.063 27.0347 75.7734 27.0447C75.596 27.0447 75.4337 27.0732 75.2898 27.1284C75.1459 27.1836 75.0287 27.3091 74.94 27.5033C74.8513 27.6974 74.8061 28.012 74.8061 28.4471V31.0345V31.0328Z" fill="white"/>
<path d="M87.7929 37.8609C86.7352 37.8609 85.8365 37.6835 85.0968 37.327C84.3571 36.9705 83.758 36.4952 83.3028 35.8995C82.8459 35.3037 82.5128 34.6443 82.302 33.9213C82.0911 33.1984 81.984 32.4754 81.984 31.7507C81.984 31.0261 82.1028 30.3399 82.3421 29.622C82.5815 28.904 82.943 28.2447 83.4266 27.6439C83.9103 27.0431 84.5194 26.5594 85.2541 26.1912C85.9888 25.823 86.8507 25.6406 87.8414 25.6406C88.8322 25.6406 89.7275 25.8247 90.4622 26.1912C91.1969 26.5577 91.7977 27.0447 92.2646 27.6522C92.7315 28.2581 93.0796 28.9191 93.3072 29.6304C93.5348 30.3433 93.6486 31.0495 93.6486 31.7507C93.6486 32.452 93.5281 33.1415 93.2905 33.8544C93.0512 34.5673 92.6897 35.2267 92.206 35.8325C91.7224 36.4383 91.1132 36.9287 90.3785 37.3019C89.6438 37.6751 88.782 37.8609 87.7912 37.8609H87.7929ZM87.977 36.6425C88.556 36.6425 89.0397 36.5003 89.4296 36.2174C89.8196 35.9329 90.1308 35.5631 90.3651 35.1079C90.5994 34.651 90.7651 34.154 90.8655 33.6134C90.9659 33.0745 91.0161 32.5474 91.0161 32.0352C91.0161 31.2671 90.9492 30.5659 90.8153 29.9316C90.6814 29.2973 90.4756 28.7501 90.1978 28.2882C89.92 27.8263 89.5668 27.4698 89.1384 27.2205C88.71 26.9694 88.2063 26.8506 87.6272 26.8623C87.0599 26.874 86.5812 27.0263 86.1913 27.3209C85.8014 27.6154 85.4901 27.9936 85.2558 28.4555C85.0215 28.9174 84.8558 29.4212 84.7554 29.9667C84.655 30.5123 84.6048 31.0412 84.6048 31.5533C84.6048 32.0654 84.6634 32.6327 84.7805 33.2218C84.8977 33.8126 85.0834 34.3682 85.3395 34.8903C85.5955 35.4141 85.9403 35.8359 86.3737 36.1589C86.8072 36.4819 87.3427 36.6425 87.977 36.6425Z" fill="white"/>
<path d="M103.685 29.6468C103.541 28.723 103.231 28.0268 102.758 27.5599C102.284 27.093 101.658 26.8537 100.88 26.842C100.301 26.842 99.7956 26.9758 99.3604 27.2419C98.927 27.5097 98.5672 27.8645 98.2843 28.3097C97.9998 28.7548 97.789 29.2619 97.6501 29.8292C97.5112 30.3966 97.4409 30.9806 97.4409 31.5814C97.4409 32.5387 97.5764 33.3872 97.8492 34.1269C98.122 34.8666 98.5203 35.449 99.0425 35.8707C99.5646 36.2941 100.201 36.505 100.945 36.505C101.647 36.505 102.341 36.3243 103.032 35.9628C103.722 35.6013 104.301 35.0976 104.768 34.4516L105.569 35.1863C105.024 35.9327 104.451 36.4966 103.851 36.8799C103.25 37.2631 102.662 37.5225 102.09 37.6564C101.516 37.7903 101.002 37.8572 100.545 37.8572C99.6885 37.8572 98.9103 37.7033 98.209 37.3987C97.5078 37.0941 96.9037 36.6707 96.3983 36.1301C95.8912 35.5913 95.5029 34.962 95.2301 34.244C94.9573 33.5261 94.8218 32.7496 94.8218 31.9161C94.8218 31.1597 94.9439 30.4083 95.1883 29.6619C95.4326 28.9172 95.7975 28.241 96.2811 27.6335C96.7648 27.0277 97.3739 26.5424 98.1086 26.1809C98.8433 25.8194 99.6951 25.6387 100.662 25.6387C101.096 25.6387 101.573 25.709 102.09 25.8479C102.607 25.9868 103.094 26.1893 103.551 26.457L103.484 25.7558H104.769V29.6451H103.685V29.6468Z" fill="white"/>
<path d="M106.555 37.5929V36.4917C106.811 36.48 107.025 36.4482 107.198 36.3913C107.37 36.3361 107.504 36.2072 107.598 36.0081C107.691 35.8072 107.74 35.4859 107.74 35.0391V28.6461C107.74 28.3449 107.748 28.057 107.765 27.7776C107.782 27.4997 107.795 27.2889 107.807 27.1433C107.629 27.155 107.407 27.1634 107.139 27.1684C106.871 27.1734 106.677 27.1818 106.555 27.1935V25.9082H118.106V27.0094C117.861 27.0211 117.649 27.0546 117.472 27.1098C117.294 27.165 117.157 27.2906 117.063 27.4847C116.968 27.6788 116.921 28.0052 116.921 28.4604V34.8533C116.921 35.1545 116.916 35.4441 116.904 35.7219C116.893 35.9997 116.876 36.2122 116.854 36.3562C117.031 36.3344 117.257 36.3193 117.53 36.3143C117.803 36.3093 117.995 36.306 118.106 36.306V37.5912H113.314V36.49C113.571 36.4783 113.785 36.4465 113.957 36.3896C114.129 36.3344 114.263 36.2055 114.357 36.0064C114.451 35.8056 114.499 35.4842 114.499 35.0374V27.1583L111.311 27.2085C111.067 27.2203 110.858 27.2537 110.685 27.309C110.513 27.3642 110.382 27.4931 110.294 27.6922C110.205 27.893 110.16 28.216 110.16 28.6612V34.8533C110.16 35.1545 110.155 35.4441 110.143 35.7219C110.131 35.9997 110.115 36.2122 110.093 36.3562C110.27 36.3344 110.496 36.3193 110.769 36.3143C111.042 36.3093 111.234 36.306 111.345 36.306V37.5912H106.553L106.555 37.5929Z" fill="white"/>
<path d="M124.567 27.0096C124.323 27.0213 124.111 27.0548 123.933 27.11C123.756 27.1652 123.619 27.2908 123.525 27.4849C123.429 27.679 123.383 28.0054 123.383 28.4606V34.8535C123.383 35.1548 123.378 35.4443 123.366 35.7221C123.354 35.9999 123.337 36.2124 123.316 36.3564C123.493 36.3346 123.719 36.3195 123.992 36.3145C124.265 36.3095 124.457 36.3062 124.567 36.3062V37.5914H119.776V36.4902C120.032 36.4785 120.246 36.4467 120.419 36.3898C120.591 36.3346 120.725 36.2057 120.819 36.0066C120.912 35.8058 120.961 35.4844 120.961 35.0376V28.6447C120.961 28.3434 120.969 28.0556 120.986 27.7761C121.003 27.4983 121.016 27.2874 121.028 27.1418C120.851 27.1535 120.628 27.1619 120.36 27.1669C120.092 27.1719 119.898 27.1803 119.776 27.192V25.9067H124.567V27.0079V27.0096ZM129.459 26.4088L130.261 27.2104L121.932 37.1095L121.08 36.2576L129.459 26.4088ZM131.779 27.0096C131.534 27.0213 131.322 27.0548 131.145 27.11C130.967 27.1652 130.83 27.2908 130.736 27.4849C130.641 27.679 130.594 28.0054 130.594 28.4606V34.8535C130.594 35.1548 130.589 35.4443 130.577 35.7221C130.565 35.9999 130.549 36.2124 130.527 36.3564C130.704 36.3346 130.93 36.3195 131.203 36.3145C131.476 36.3095 131.668 36.3062 131.779 36.3062V37.5914H126.987V36.4902C127.243 36.4785 127.458 36.4467 127.63 36.3898C127.802 36.3346 127.936 36.2057 128.03 36.0066C128.124 35.8058 128.172 35.4844 128.172 35.0376V28.6447C128.172 28.3434 128.181 28.0556 128.197 27.7761C128.214 27.4983 128.228 27.2874 128.239 27.1418C128.062 27.1535 127.839 27.1619 127.571 27.1669C127.304 27.1719 127.11 27.1803 126.987 27.192V25.9067H131.779V27.0079V27.0096Z" fill="white"/>
<path d="M142.078 29.6806C142.078 29.0798 141.994 28.5811 141.827 28.1861C141.659 27.7912 141.423 27.4966 141.117 27.3008C140.811 27.1067 140.446 27.0146 140.024 27.0247H139.223V34.8535C139.223 35.1548 139.218 35.4443 139.206 35.7221C139.194 35.9999 139.178 36.2124 139.156 36.3564C139.345 36.3346 139.588 36.3195 139.882 36.3145C140.177 36.3095 140.379 36.3062 140.491 36.3062V37.5914H135.616V36.4902C135.872 36.4785 136.086 36.4467 136.259 36.3898C136.431 36.3346 136.565 36.2057 136.659 36.0066C136.753 35.8058 136.801 35.4844 136.801 35.0376V27.0414H136.033C135.399 27.0531 134.898 27.269 134.53 27.6924C134.164 28.1158 133.979 28.7769 133.979 29.6789H132.878L132.962 25.9067H143.079L143.179 29.6789H142.078V29.6806Z" fill="white"/>
<path d="M142.645 37.5932V36.4418C142.956 36.4418 143.207 36.3531 143.397 36.174C143.586 35.9966 143.745 35.7623 143.872 35.4728C143.999 35.1832 144.125 34.872 144.247 34.5389L147.502 25.6089H148.67L152.226 34.7063C152.293 34.8736 152.382 35.1263 152.494 35.4661C152.604 35.8058 152.671 36.1037 152.695 36.3598C152.884 36.338 153.065 36.3229 153.237 36.3179C153.409 36.3129 153.552 36.3095 153.662 36.3095V37.5948H149.172V36.4936C149.483 36.4936 149.697 36.43 149.815 36.3012C149.932 36.174 149.984 35.9983 149.974 35.7757C149.962 35.5531 149.902 35.3021 149.789 35.0243L149.455 34.1055L145.833 34.1724L145.565 34.9573C145.51 35.1029 145.428 35.3155 145.323 35.6C145.217 35.8845 145.12 36.1204 145.03 36.3095C145.207 36.2878 145.422 36.2744 145.673 36.2677C145.924 36.2627 146.104 36.2593 146.215 36.2593V37.5948H142.643L142.645 37.5932ZM146.25 32.9189H149.038L148.27 30.832C148.126 30.432 147.997 30.0287 147.887 29.6221C147.775 29.2154 147.693 28.8572 147.636 28.546H147.619C147.574 28.7351 147.507 29.0196 147.418 29.3978C147.329 29.776 147.19 30.2262 147.001 30.75L146.25 32.9206V32.9189Z" fill="white"/>
<path d="M162.309 29.6806C162.309 29.0798 162.226 28.5811 162.058 28.1861C161.891 27.7912 161.655 27.4966 161.349 27.3008C161.042 27.1067 160.678 27.0146 160.256 27.0247H159.454V34.8535C159.454 35.1548 159.449 35.4443 159.437 35.7221C159.426 35.9999 159.409 36.2124 159.387 36.3564C159.576 36.3346 159.819 36.3195 160.114 36.3145C160.408 36.3095 160.611 36.3062 160.723 36.3062V37.5914H155.848V36.4902C156.104 36.4785 156.318 36.4467 156.49 36.3898C156.663 36.3346 156.797 36.2057 156.89 36.0066C156.984 35.8058 157.033 35.4844 157.033 35.0376V27.0414H156.264C155.63 27.0531 155.13 27.269 154.762 27.6924C154.395 28.1158 154.211 28.7769 154.211 29.6789H153.11L153.193 25.9067H163.31L163.41 29.6789H162.309V29.6806Z" fill="white"/>
<path d="M170.205 33.5712C170.205 33.1042 170.133 32.7645 169.987 32.5536C169.844 32.3428 169.646 32.2122 169.395 32.162C169.144 32.1118 168.87 32.0917 168.568 32.1035L168.135 32.1202V34.8581C168.135 35.1594 168.13 35.4422 168.118 35.71C168.106 35.9777 168.09 36.1836 168.068 36.3275H170.305C170.64 36.3275 170.961 36.2522 171.274 36.1016C171.586 35.9509 171.842 35.7016 172.043 35.3501C172.243 35.0004 172.344 34.5234 172.344 33.9226H173.428L173.345 37.5944H164.53V36.4932C164.786 36.4815 165 36.4497 165.173 36.3928C165.345 36.3375 165.479 36.2087 165.573 36.0095C165.666 35.8087 165.715 35.4874 165.715 35.0405V28.6476C165.715 28.3463 165.723 28.0585 165.74 27.779C165.757 27.5012 165.77 27.2903 165.782 27.1447C165.604 27.1565 165.382 27.1648 165.114 27.1698C164.846 27.1749 164.652 27.1832 164.53 27.195V25.9097H172.876L172.976 29.148H171.875C171.875 28.5355 171.77 28.0736 171.557 27.7623C171.346 27.451 171.084 27.2418 170.772 27.1364C170.461 27.0309 170.155 26.9841 169.854 26.9941L169.253 27.0109C169.018 27.0109 168.819 27.041 168.652 27.1029C168.485 27.1648 168.357 27.297 168.269 27.5029C168.18 27.7087 168.135 28.0284 168.135 28.4635V30.9671H170.088L170.021 29.5145H171.306V33.5712H170.205Z" fill="white"/>
<path d="M176.447 37.8605C175.847 37.8605 175.365 37.7333 175.003 37.4772C174.642 37.2212 174.461 36.8547 174.461 36.376C174.461 35.9861 174.57 35.6447 174.787 35.3501C175.005 35.0556 175.351 34.9083 175.83 34.9083C176.22 34.9083 176.503 35.0138 176.682 35.2246C176.859 35.4355 176.949 35.6915 176.949 35.9928C176.949 36.1819 176.904 36.3375 176.816 36.4597C176.871 36.4932 176.954 36.5099 177.067 36.5099C177.222 36.5099 177.406 36.371 177.617 36.0932C177.828 35.8154 178.037 35.3786 178.243 34.7828C178.449 34.187 178.63 33.4189 178.785 32.4783C178.941 31.5378 179.036 30.4065 179.07 29.081L179.12 27.1447L178.703 27.1615L177.2 27.195V25.9097H186.415V27.0109C186.171 27.0226 185.958 27.056 185.781 27.1113C185.603 27.1665 185.466 27.292 185.372 27.4861C185.277 27.6803 185.23 28.0066 185.23 28.4618V34.8548C185.23 35.156 185.223 35.4455 185.213 35.7233C185.202 36.0012 185.185 36.2137 185.163 36.3576C185.352 36.3359 185.58 36.3208 185.848 36.3158C186.115 36.3108 186.305 36.3074 186.415 36.3074V37.5927H181.624V36.4915C181.88 36.4798 182.094 36.448 182.266 36.3911C182.439 36.3359 182.573 36.207 182.666 36.0078C182.76 35.807 182.808 35.4857 182.808 35.0389V27.1598L181.473 27.21C181.095 27.2217 180.817 27.297 180.638 27.4359C180.46 27.5748 180.365 27.8276 180.353 28.1957C180.32 29.6316 180.228 30.8885 180.077 31.9679C179.927 33.0473 179.729 33.9628 179.485 34.7142C179.24 35.4656 178.956 36.0714 178.633 36.5333C178.31 36.9952 177.962 37.3316 177.59 37.5442C177.217 37.755 176.836 37.8605 176.447 37.8605Z" fill="white"/>
<path d="M192.873 27.0093C192.629 27.021 192.416 27.0545 192.239 27.1097C192.062 27.165 191.924 27.2905 191.831 27.4846C191.735 27.6787 191.688 28.0051 191.688 28.4603V30.7966L192.607 30.7631C193.608 30.7296 194.423 30.8083 195.052 30.9974C195.681 31.1865 196.165 31.4543 196.505 31.799C196.845 32.1438 197.08 32.5304 197.214 32.9588C197.348 33.3872 197.415 33.824 197.415 34.2692C197.415 34.9921 197.239 35.6013 196.89 36.0967C196.54 36.5921 196.058 36.9653 195.445 37.2146C194.833 37.4656 194.138 37.5895 193.359 37.5895H188.083V36.4883C188.34 36.4766 188.554 36.4448 188.726 36.3879C188.899 36.3327 189.032 36.2038 189.126 36.0046C189.22 35.8038 189.268 35.4825 189.268 35.0357V28.6427C189.268 28.3415 189.277 28.0536 189.293 27.7741C189.31 27.4963 189.324 27.2855 189.335 27.1399C189.158 27.1516 188.935 27.1599 188.668 27.165C188.4 27.17 188.206 27.1784 188.083 27.1901V25.9048H192.875V27.006L192.873 27.0093ZM191.688 34.9386C191.688 35.2382 191.683 35.5227 191.672 35.7904C191.66 36.0582 191.643 36.264 191.621 36.408H192.03C192.169 36.408 192.306 36.4046 192.438 36.3996C192.572 36.3946 192.706 36.3912 192.838 36.3912C193.516 36.3578 194.01 36.1385 194.316 35.7319C194.622 35.3252 194.774 34.7947 194.774 34.137C194.774 33.5813 194.682 33.1462 194.498 32.8349C194.314 32.5237 194.061 32.3011 193.738 32.1672C193.415 32.0333 193.042 31.9664 192.62 31.9664H192.154C191.998 31.9664 191.842 31.9781 191.687 31.9998V34.9386H191.688Z" fill="white"/>
<path d="M198.665 37.5931V36.4919C198.921 36.4802 199.136 36.4484 199.308 36.3915C199.48 36.3363 199.614 36.2074 199.708 36.0083C199.802 35.8074 199.85 35.4861 199.85 35.0393V28.6463C199.85 28.3451 199.859 28.0572 199.875 27.7778C199.892 27.5 199.906 27.2891 199.917 27.1435C199.74 27.1552 199.517 27.1636 199.249 27.1686C198.982 27.1736 198.788 27.182 198.665 27.1937V25.9084H203.457V27.0096C203.212 27.0213 203 27.0548 202.822 27.11C202.645 27.1652 202.508 27.2908 202.414 27.4849C202.319 27.679 202.272 28.0054 202.272 28.4606V31.0646H206.862V28.6447C206.862 28.3434 206.867 28.0556 206.879 27.7761C206.891 27.4983 206.908 27.2874 206.929 27.1418C206.752 27.1535 206.529 27.1619 206.262 27.1669C205.994 27.1719 205.8 27.1803 205.678 27.192V25.9067H210.469V27.0079C210.225 27.0196 210.012 27.0531 209.835 27.1083C209.657 27.1636 209.52 27.2891 209.426 27.4832C209.331 27.6774 209.284 28.0037 209.284 28.4589V34.8518C209.284 35.1531 209.279 35.4426 209.267 35.7204C209.256 35.9982 209.239 36.2108 209.217 36.3547C209.395 36.3329 209.62 36.3179 209.893 36.3129C210.166 36.3078 210.358 36.3045 210.469 36.3045V37.5898H205.678V36.4886C205.934 36.4769 206.148 36.4451 206.32 36.3882C206.493 36.3329 206.626 36.2041 206.72 36.0049C206.814 35.8041 206.862 35.4828 206.862 35.0359V32.3315L202.272 32.3817V34.8518C202.272 35.1531 202.267 35.4426 202.255 35.7204C202.243 35.9982 202.227 36.2108 202.205 36.3547C202.382 36.3329 202.608 36.3179 202.881 36.3129C203.154 36.3078 203.346 36.3045 203.457 36.3045V37.5898H198.665V37.5931Z" fill="white"/>
<path d="M212.136 37.5929V36.4917C212.392 36.48 212.606 36.4482 212.778 36.3913C212.951 36.3361 213.085 36.2072 213.178 36.0081C213.272 35.8072 213.321 35.4859 213.321 35.0391V28.6461C213.321 28.3449 213.329 28.057 213.346 27.7776C213.362 27.4997 213.376 27.2889 213.388 27.1433C213.21 27.155 212.988 27.1634 212.72 27.1684C212.452 27.1734 212.258 27.1818 212.136 27.1935V25.9082H216.927V27.0094C216.683 27.0211 216.47 27.0546 216.293 27.1098C216.115 27.165 215.978 27.2906 215.884 27.4847C215.789 27.6788 215.742 28.0052 215.742 28.4604V30.7966L216.661 30.7632C217.662 30.7297 218.477 30.8083 219.106 30.9975C219.735 31.1866 220.219 31.4543 220.559 31.7991C220.898 32.1438 221.134 32.5304 221.268 32.9589C221.402 33.3873 221.469 33.8241 221.469 34.2692C221.469 34.9922 221.293 35.6014 220.944 36.0968C220.594 36.5921 220.112 36.9653 219.499 37.2147C218.887 37.4657 218.192 37.5896 217.412 37.5896H212.137L212.136 37.5929ZM215.675 36.408H216.084C216.223 36.408 216.36 36.4047 216.492 36.3997C216.626 36.3946 216.76 36.3913 216.892 36.3913C217.349 36.3695 217.719 36.2641 218.002 36.0733C218.286 35.8842 218.494 35.6231 218.627 35.2884C218.761 34.9537 218.828 34.5705 218.828 34.137C218.828 33.5814 218.736 33.1463 218.552 32.835C218.368 32.5237 218.115 32.3012 217.792 32.1673C217.469 32.0334 217.096 31.9664 216.674 31.9664H216.207C216.052 31.9664 215.896 31.9782 215.741 31.9999V33.8358C215.741 34.3362 215.737 34.7512 215.732 35.0792C215.727 35.4073 215.72 35.675 215.715 35.8809C215.71 36.0867 215.695 36.2624 215.674 36.4064L215.675 36.408ZM221.718 37.5929V36.4917C221.975 36.48 222.189 36.4482 222.361 36.3913C222.533 36.3361 222.667 36.2072 222.761 36.0081C222.855 35.8072 222.903 35.4859 222.903 35.0391V28.6461C222.903 28.3449 222.912 28.057 222.928 27.7776C222.945 27.4997 222.959 27.2889 222.97 27.1433C222.793 27.155 222.57 27.1634 222.303 27.1684C222.035 27.1734 221.841 27.1818 221.718 27.1935V25.9082H226.51V27.0094C226.265 27.0211 226.053 27.0546 225.876 27.1098C225.698 27.165 225.561 27.2906 225.467 27.4847C225.372 27.6788 225.325 28.0052 225.325 28.4604V34.8533C225.325 35.1545 225.32 35.4441 225.308 35.7219C225.297 35.9997 225.28 36.2122 225.258 36.3562C225.435 36.3344 225.661 36.3193 225.934 36.3143C226.207 36.3093 226.399 36.306 226.51 36.306V37.5912H221.718V37.5929Z" fill="white"/>
<path d="M227.927 37.5927V36.4915C228.25 36.4145 228.573 36.2321 228.896 35.9493C229.219 35.6648 229.586 35.2514 229.997 34.7058L231.934 32.1185C231.489 31.5512 231.043 30.9839 230.598 30.4165C230.153 29.8492 229.703 29.2819 229.246 28.7145C229.069 28.4802 228.906 28.2225 228.762 27.938C228.617 27.6535 228.501 27.3908 228.413 27.1447C228.235 27.1565 228.081 27.1648 227.954 27.1698C227.825 27.1749 227.701 27.1832 227.579 27.195V25.9097H232.653V27.0109H232.486C232.141 27.0109 231.902 27.0611 231.768 27.1615C231.634 27.2619 231.587 27.3975 231.626 27.5698C231.664 27.7422 231.768 27.9347 231.934 28.1455C232.19 28.4568 232.441 28.7698 232.685 29.081C232.93 29.3923 233.176 29.7103 233.42 30.0333L234.688 28.2811C234.923 27.9581 235.109 27.7221 235.247 27.5715C235.386 27.4209 235.529 27.2786 235.672 27.1464C235.495 27.1581 235.273 27.1665 235.005 27.1715C234.737 27.1765 234.543 27.1849 234.421 27.1966V25.9113H238.21V27.0125C237.954 27.046 237.701 27.1347 237.45 27.2803C237.199 27.4259 236.946 27.6284 236.69 27.8895C236.434 28.1505 236.156 28.4886 235.855 28.9003L234.252 31.0876C234.608 31.5328 234.958 31.9779 235.303 32.4231C235.647 32.8683 235.995 33.3134 236.345 33.7586C236.695 34.2038 237.043 34.6489 237.388 35.0941C237.577 35.3284 237.749 35.551 237.905 35.7618C238.061 35.9727 238.178 36.1735 238.255 36.3626C238.444 36.3409 238.578 36.3258 238.655 36.3208C238.732 36.3158 238.827 36.3124 238.939 36.3124V37.5977H233.949V36.4965C234.36 36.4965 234.628 36.4463 234.75 36.3459C234.873 36.2455 234.903 36.1099 234.842 35.9376C234.78 35.7652 234.667 35.5727 234.501 35.3619C234.223 35.0054 233.942 34.6473 233.658 34.2858C233.373 33.9243 233.087 33.5661 232.797 33.2097C232.553 33.5444 232.307 33.8808 232.063 34.2205C231.818 34.5602 231.572 34.8966 231.328 35.2296C231.094 35.5409 230.916 35.7752 230.794 35.9309C230.672 36.0865 230.543 36.2321 230.411 36.3643C230.6 36.3526 230.818 36.3426 231.062 36.3308C231.306 36.3191 231.485 36.3141 231.596 36.3141V37.5994H227.924L227.927 37.5927Z" fill="white"/>
<path d="M71.1997 59.7272V58.626C71.4557 58.6143 71.6699 58.5825 71.8423 58.5256C72.0147 58.4703 72.1486 58.3415 72.2423 58.1423C72.336 57.9415 72.3845 57.6202 72.3845 57.1734V50.7804C72.3845 50.4792 72.3929 50.1913 72.4096 49.9118C72.4264 49.634 72.4398 49.4232 72.4515 49.2776C72.2741 49.2893 72.0515 49.2976 71.7837 49.3027C71.516 49.3077 71.3218 49.316 71.1997 49.3278V48.0425H82.7505V49.1437C82.5062 49.1554 82.2936 49.1889 82.1162 49.2441C81.9388 49.2993 81.8016 49.4248 81.7079 49.619C81.6125 49.8131 81.5656 50.1394 81.5656 50.5946V56.9876C81.5656 57.2888 81.5606 57.5783 81.5489 57.8562C81.5372 58.134 81.5204 58.3465 81.4987 58.4904C81.6761 58.4687 81.902 58.4536 82.1748 58.4486C82.4476 58.4436 82.64 58.4402 82.7505 58.4402V59.7255H77.9591V58.6243C78.2152 58.6126 78.4294 58.5808 78.6018 58.5239C78.7741 58.4687 78.908 58.3398 79.0017 58.1407C79.0955 57.9398 79.144 57.6185 79.144 57.1717V49.2926L75.9559 49.3428C75.7116 49.3545 75.5024 49.388 75.33 49.4432C75.1576 49.4985 75.0271 49.6273 74.9384 49.8265C74.8497 50.0273 74.8045 50.3503 74.8045 50.7955V56.9876C74.8045 57.2888 74.7995 57.5783 74.7878 57.8562C74.776 58.134 74.7593 58.3465 74.7375 58.4904C74.9149 58.4687 75.1409 58.4536 75.4137 58.4486C75.6865 58.4436 75.8789 58.4402 75.9894 58.4402V59.7255H71.198L71.1997 59.7272Z" fill="white"/>
<path d="M84.4207 58.626C84.6767 58.6143 84.8909 58.5825 85.0633 58.5256C85.2357 58.4704 85.3696 58.3415 85.4633 58.1424C85.557 57.9415 85.6055 57.6202 85.6055 57.1734V50.7804C85.6055 50.4792 85.6139 50.1913 85.6306 49.9119C85.6474 49.634 85.6608 49.4232 85.6725 49.2776C85.4951 49.2893 85.2725 49.2977 85.0047 49.3027C84.737 49.3077 84.5428 49.3161 84.4207 49.3278V48.0425C85.2106 48.0308 86.0005 48.0258 86.7904 48.0258C87.5803 48.0258 88.3702 48.0207 89.1602 48.009C90.1392 47.9973 90.9927 48.1262 91.7224 48.3923C92.4503 48.66 93.0127 49.0717 93.4076 49.6274C93.8026 50.1846 93.9883 50.9076 93.9666 51.7979C93.9549 52.2431 93.8494 52.6799 93.6486 53.1083C93.4478 53.5368 93.1532 53.9267 92.7633 54.2765C92.3734 54.6262 91.8847 54.9141 91.2939 55.1367C90.7032 55.3593 90.0137 55.4814 89.2238 55.5032C88.9794 55.5149 88.7652 55.5199 88.5811 55.5199C88.397 55.5199 88.2112 55.5149 88.0221 55.5032V56.9725C88.0221 57.2838 88.0171 57.5784 88.0054 57.8579C87.9937 58.1357 87.977 58.3482 87.9552 58.4921C88.0774 58.4804 88.233 58.472 88.4221 58.467C88.6112 58.462 88.797 58.4553 88.9811 58.4503C89.1652 58.4453 89.2957 58.4419 89.3727 58.4419V59.7272H84.4156V58.626H84.4207ZM88.0255 54.253C88.1477 54.2648 88.2698 54.2748 88.392 54.2865C88.5142 54.2982 88.643 54.3032 88.7752 54.3032C89.3877 54.3032 89.8848 54.2012 90.2697 53.9936C90.653 53.7878 90.9341 53.4882 91.1132 53.0916C91.2906 52.6966 91.3809 52.2147 91.3809 51.6473C91.3809 51.08 91.3056 50.6449 91.155 50.3118C91.0044 49.9771 90.8136 49.7311 90.5793 49.5688C90.345 49.4081 90.1007 49.301 89.8446 49.2525C89.5886 49.2023 89.3543 49.1772 89.1434 49.1772C88.9091 49.1772 88.71 49.2056 88.5426 49.2608C88.3753 49.3161 88.2481 49.4382 88.1594 49.6274C88.0707 49.8165 88.0255 50.106 88.0255 50.4959V54.2514V54.253Z" fill="white"/>
<path d="M94.3197 59.7274V58.576C94.631 58.576 94.8821 58.4873 95.0712 58.3083C95.2603 58.1309 95.4193 57.8966 95.5465 57.607C95.6736 57.3175 95.7992 57.0062 95.9213 56.6732L99.1764 47.7432H100.345L103.901 56.8406C103.968 57.0079 104.056 57.2606 104.169 57.6004C104.279 57.9401 104.346 58.238 104.369 58.494C104.559 58.4723 104.739 58.4572 104.912 58.4522C105.084 58.4472 105.226 58.4438 105.337 58.4438V59.7291H100.847V58.6279C101.158 58.6279 101.372 58.5643 101.489 58.4355C101.606 58.3083 101.658 58.1325 101.648 57.91C101.636 57.6874 101.576 57.4363 101.464 57.1585L101.131 56.2398L97.5079 56.3067L97.2401 57.0916C97.1849 57.2372 97.1029 57.4497 96.9974 57.7342C96.892 58.0187 96.7949 58.2547 96.7046 58.4438C96.8819 58.4221 97.0962 58.4087 97.3472 58.402C97.5982 58.397 97.779 58.3936 97.8894 58.3936V59.7291H94.3164L94.3197 59.7274ZM97.9246 55.0532H100.713L99.9445 52.9663C99.7989 52.5663 99.6718 52.163 99.5613 51.7563C99.4492 51.3497 99.3672 50.9915 99.3103 50.6802H99.2935C99.2483 50.8693 99.1814 51.1539 99.0927 51.5321C99.004 51.9103 98.8651 52.3605 98.676 52.8843L97.9246 55.0549V55.0532Z" fill="white"/>
<path d="M106.239 59.7274V58.6262C106.495 58.6145 106.709 58.5827 106.881 58.5258C107.054 58.4706 107.188 58.3417 107.281 58.1425C107.375 57.9417 107.424 57.6204 107.424 57.1736V50.7806C107.424 50.4794 107.432 50.1915 107.449 49.912C107.465 49.6342 107.479 49.4234 107.491 49.2778C107.313 49.2895 107.091 49.2979 106.823 49.3029C106.555 49.3079 106.361 49.3163 106.239 49.328V48.0427H111.03V49.1439C110.786 49.1556 110.573 49.1891 110.396 49.2443C110.218 49.2995 110.081 49.425 109.987 49.6192C109.892 49.8133 109.845 50.1396 109.845 50.5948V53.1319H111.047L112.332 50.9446C112.521 50.6099 112.722 50.2769 112.933 49.9438C113.144 49.6091 113.323 49.3815 113.467 49.2594C113.289 49.2711 113.1 49.2811 112.899 49.2928C112.699 49.3045 112.538 49.3146 112.416 49.3263V48.041H116.506V49.1422C116.262 49.1539 115.997 49.1974 115.713 49.2761C115.428 49.3548 115.137 49.5104 114.836 49.743C114.535 49.9756 114.23 50.3438 113.917 50.8442L112.314 53.4148C112.536 53.5604 112.734 53.7127 112.906 53.8733C113.079 54.034 113.231 54.2097 113.365 54.3988L115.083 56.8188C115.306 57.1301 115.537 57.4229 115.776 57.6957C116.016 57.9685 116.263 58.1877 116.519 58.3551C116.775 58.5224 117.025 58.6111 117.271 58.6229V59.724H114.7C114.611 59.7123 114.466 59.6136 114.267 59.4228C114.066 59.2337 113.855 59.0061 113.632 58.7383C113.41 58.4706 113.221 58.2312 113.065 58.0204L111.412 55.6172C111.268 55.4063 111.109 55.1887 110.936 54.9662C110.764 54.7436 110.6 54.5762 110.444 54.4658H109.844V56.9861C109.844 57.2874 109.839 57.5769 109.827 57.8547C109.815 58.1325 109.798 58.345 109.777 58.489C109.954 58.4672 110.18 58.4521 110.453 58.4471C110.726 58.4421 110.918 58.4388 111.028 58.4388V59.724H106.237L106.239 59.7274Z" fill="white"/>
<path d="M126.753 51.8163C126.753 51.2155 126.669 50.7168 126.502 50.3219C126.335 49.9269 126.099 49.6323 125.792 49.4365C125.486 49.2424 125.121 49.1504 124.7 49.1604H123.898V56.9893C123.898 57.2905 123.893 57.58 123.881 57.8578C123.87 58.1356 123.853 58.3482 123.831 58.4921C124.02 58.4704 124.263 58.4553 124.557 58.4503C124.852 58.4452 125.056 58.4419 125.167 58.4419V59.7272H120.292V58.626C120.548 58.6143 120.762 58.5825 120.934 58.5256C121.107 58.4703 121.24 58.3415 121.334 58.1423C121.428 57.9415 121.476 57.6202 121.476 57.1734V49.1771H120.708C120.074 49.1889 119.574 49.4047 119.205 49.8282C118.839 50.2516 118.655 50.9126 118.655 51.8147H117.554L117.637 48.0425H127.754L127.854 51.8147H126.753V51.8163Z" fill="white"/>
<path d="M133.765 49.1453C133.521 49.1571 133.308 49.1905 133.131 49.2458C132.954 49.301 132.816 49.4265 132.723 49.6206C132.627 49.8148 132.58 50.1411 132.58 50.5963V56.9893C132.58 57.2905 132.574 57.58 132.564 57.8578C132.552 58.1356 132.535 58.3482 132.513 58.4921C132.691 58.4704 132.917 58.4553 133.19 58.4503C133.462 58.4452 133.655 58.4419 133.765 58.4419V59.7272H128.974V58.626C129.23 58.6143 129.444 58.5825 129.617 58.5256C129.789 58.4703 129.923 58.3415 130.017 58.1423C130.11 57.9415 130.159 57.6202 130.159 57.1734V50.7804C130.159 50.4792 130.167 50.1913 130.184 49.9118C130.201 49.634 130.214 49.4232 130.226 49.2776C130.048 49.2893 129.826 49.2976 129.558 49.3027C129.29 49.3077 129.096 49.316 128.974 49.3278V48.0425H133.765V49.1437V49.1453ZM138.655 48.5445L139.457 49.3462L131.128 59.2452L130.276 58.3934L138.655 48.5445ZM140.977 49.1453C140.732 49.1571 140.52 49.1905 140.342 49.2458C140.165 49.301 140.028 49.4265 139.934 49.6206C139.839 49.8148 139.792 50.1411 139.792 50.5963V56.9893C139.792 57.2905 139.785 57.58 139.775 57.8578C139.763 58.1356 139.746 58.3482 139.725 58.4921C139.902 58.4704 140.128 58.4553 140.401 58.4503C140.674 58.4452 140.866 58.4419 140.977 58.4419V59.7272H136.185V58.626C136.441 58.6143 136.655 58.5825 136.828 58.5256C137 58.4703 137.134 58.3415 137.228 58.1423C137.322 57.9415 137.37 57.6202 137.37 57.1734V50.7804C137.37 50.4792 137.378 50.1913 137.395 49.9118C137.412 49.634 137.425 49.4232 137.437 49.2776C137.26 49.2893 137.037 49.2976 136.769 49.3027C136.501 49.3077 136.307 49.316 136.185 49.3278V48.0425H140.977V49.1437V49.1453Z" fill="white"/>
<path d="M142.645 59.7274V58.6262C142.901 58.6145 143.115 58.5827 143.288 58.5258C143.46 58.4706 143.594 58.3417 143.688 58.1425C143.781 57.9417 143.83 57.6204 143.83 57.1736V50.7806C143.83 50.4794 143.838 50.1915 143.855 49.912C143.872 49.6342 143.885 49.4234 143.897 49.2778C143.72 49.2895 143.497 49.2979 143.229 49.3029C142.961 49.3079 142.767 49.3163 142.645 49.328V48.0427H147.436V49.1439C147.192 49.1556 146.98 49.1891 146.802 49.2443C146.625 49.2995 146.488 49.425 146.394 49.6192C146.298 49.8133 146.252 50.1396 146.252 50.5948V53.1319H147.453L148.738 50.9446C148.928 50.6099 149.128 50.2769 149.339 49.9438C149.55 49.6091 149.729 49.3815 149.873 49.2594C149.696 49.2711 149.507 49.2811 149.306 49.2928C149.105 49.3045 148.944 49.3146 148.822 49.3263V48.041H152.912V49.1422C152.668 49.1539 152.404 49.1974 152.119 49.2761C151.835 49.3548 151.543 49.5104 151.242 49.743C150.941 49.9773 150.635 50.3438 150.323 50.8442L148.72 53.4148C148.943 53.5604 149.14 53.7127 149.313 53.8733C149.485 54.034 149.639 54.2097 149.771 54.3988L151.49 56.8188C151.712 57.1301 151.943 57.4229 152.183 57.6957C152.422 57.9685 152.67 58.1877 152.926 58.3551C153.182 58.5224 153.431 58.6111 153.677 58.6229V59.724H151.107C151.018 59.7123 150.872 59.6136 150.673 59.4228C150.472 59.2337 150.261 59.0061 150.039 58.7383C149.816 58.4706 149.627 58.2312 149.472 58.0204L147.818 55.6172C147.672 55.4063 147.515 55.1887 147.343 54.9662C147.17 54.7436 147.006 54.5762 146.851 54.4658H146.25V56.9861C146.25 57.2874 146.245 57.5769 146.233 57.8547C146.221 58.1325 146.205 58.345 146.183 58.489C146.36 58.4672 146.586 58.4521 146.859 58.4471C147.132 58.4421 147.324 58.4388 147.435 58.4388V59.724H142.643L142.645 59.7274Z" fill="white"/>
</g>
<defs>
<clipPath id="clip0_415_74">
<rect width="259.078" height="60" fill="white" transform="translate(0.500732)"/>
</clipPath>
</defs>
</svg>
