<svg width="31" height="21" fill="none" xmlns="http://www.w3.org/2000/svg"><path fill-rule="evenodd" clip-rule="evenodd" d="M9.361.034a79.39 79.39 0 0 0-.548 1.356 1955.463 1955.463 0 0 1-2.377 5.924c-.175.432-.415 1.03-.533 1.328a5017.247 5017.247 0 0 0-1.811 4.508l-1.267 3.152-.68 1.693H0v1.15c0 .634.011 1.265.025 1.404l.024.252h11v-2.806h-.777c-.427 0-.785-.014-.796-.032-.011-.018.21-.687.492-1.487.282-.8.607-1.717.724-2.038.116-.32.226-.607.245-.636.027-.043.046-.035.1.04.038.05.121.177.186.28a6433.883 6433.883 0 0 0 2.804 4.547 116.124 116.124 0 0 0 1.379 2.204l.097.127.089-.109c.048-.06.283-.42.52-.8.238-.381.723-1.164 1.077-1.74a4178.64 4178.64 0 0 1 2.72-4.423.889.889 0 0 1 .141-.197c.013 0 .084.164.16.364.075.2.35.971.61 1.712.26.74.542 1.536.626 1.767l.153.421h-1.59v2.844L31 20.82v-2.806l-2.126-.037-.402-.992c-.222-.545-.609-1.505-.86-2.132a12139.868 12139.868 0 0 0-3.503-8.717 4556.963 4556.963 0 0 0-1.782-4.452c-.276-.69-.546-1.35-.599-1.469-.054-.118-.11-.215-.125-.215s-.113.139-.218.309a51.8 51.8 0 0 0-.493.832c-.167.288-.71 1.23-1.207 2.095-.496.864-1.069 1.85-1.271 2.189-.203.34-.503.853-.666 1.14-.163.289-.722 1.257-1.241 2.152-.52.895-.959 1.641-.976 1.658-.017.017-.159-.185-.316-.449a156.87 156.87 0 0 1-.835-1.433l-1.166-2.02c-.338-.587-.74-1.277-.89-1.535-.152-.257-.538-.922-.858-1.477-.32-.556-.863-1.499-1.208-2.095A56.181 56.181 0 0 0 9.538.14C9.486.063 9.43 0 9.413 0s-.04.015-.052.034Z" fill="#fff"/></svg>