<svg width="50" height="50" viewBox="0 0 50 50" fill="none" xmlns="http://www.w3.org/2000/svg">
<path fill-rule="evenodd" clip-rule="evenodd" d="M13.6714 0.0244086C13.6083 0.034211 13.4225 0.0756341 13.2585 0.11647C13.0945 0.157306 12.8055 0.260479 12.6162 0.34581C12.427 0.431095 12.1586 0.583145 12.0198 0.683744C11.881 0.784298 11.6736 0.96065 11.5589 1.0757C11.4442 1.19071 11.2504 1.42276 11.1282 1.5913C11.0061 1.75988 10.8457 2.04375 10.7718 2.22213C10.698 2.40052 10.6081 2.66844 10.5721 2.8175C10.5361 2.96657 10.4933 3.28445 10.4768 3.52395C10.4538 3.85922 10.4654 4.041 10.5272 4.31447C10.5715 4.50975 10.6288 4.74072 10.6548 4.82767C10.6807 4.91463 10.7727 5.12807 10.8594 5.30198C10.946 5.4759 11.0956 5.71983 11.1918 5.84405C11.2881 5.96827 11.4606 6.16527 11.5753 6.28186C11.69 6.39841 11.889 6.56663 12.0177 6.65566C12.1463 6.7447 12.4007 6.88925 12.583 6.97688C12.7653 7.06452 13.0589 7.17451 13.2356 7.22131C13.4122 7.26815 13.7126 7.32033 13.9032 7.33731C14.1031 7.35511 14.4234 7.34576 14.6602 7.31518C14.8859 7.28604 15.1532 7.23951 15.2542 7.21178C15.3551 7.18409 15.4573 7.14452 15.4812 7.12383C15.5052 7.10318 15.5577 7.08629 15.5979 7.08629C15.6381 7.08629 15.8706 6.96329 16.1147 6.81295C16.3587 6.66262 16.6782 6.42352 16.8245 6.28159C16.9709 6.1397 17.1876 5.88005 17.3061 5.70456C17.4245 5.52911 17.5657 5.2854 17.6197 5.16308C17.6738 5.04071 17.7491 4.82194 17.7873 4.67689C17.8255 4.53125 17.8388 4.39768 17.8169 4.37852C17.7952 4.35951 17.6329 4.3104 17.4563 4.26948C17.2796 4.22851 17.1204 4.19508 17.1025 4.19512C17.0845 4.19521 17.0469 4.28163 17.0188 4.38724C16.9908 4.49286 16.886 4.74727 16.786 4.95266C16.6686 5.19379 16.5113 5.42291 16.342 5.59926C16.1979 5.74955 15.9458 5.95938 15.7817 6.06558C15.6177 6.17182 15.37 6.30223 15.2312 6.35545C15.0924 6.40866 14.825 6.47511 14.6368 6.50311C14.4434 6.53193 14.1544 6.54079 13.9716 6.52353C13.7939 6.50673 13.5556 6.47127 13.442 6.44475C13.3285 6.41819 13.0704 6.31425 12.8685 6.2137C12.5964 6.07813 12.4121 5.94153 12.1558 5.68554C11.9376 5.46749 11.7482 5.2242 11.6422 5.02544C11.5498 4.85234 11.4291 4.54896 11.3739 4.35133C11.2881 4.04407 11.278 3.92653 11.304 3.54026C11.3208 3.29181 11.3612 2.99706 11.3939 2.88526C11.4266 2.77346 11.4989 2.59051 11.5547 2.47871C11.6104 2.36691 11.7074 2.19092 11.7702 2.08756C11.833 1.98426 11.9716 1.8089 12.0783 1.69791C12.1849 1.58692 12.407 1.40515 12.5718 1.29398C12.7366 1.18285 12.9533 1.06586 13.0535 1.03406C13.1536 1.00225 13.2562 0.961237 13.2814 0.942897C13.3067 0.924603 13.4694 0.883767 13.643 0.852237C13.8373 0.816912 14.1285 0.804399 14.4 0.819622C14.7168 0.83742 14.9382 0.879114 15.1847 0.967336C15.3736 1.03496 15.5801 1.12304 15.6435 1.16316C15.7069 1.20323 15.875 1.32759 16.017 1.43952C16.159 1.55146 16.368 1.75537 16.4814 1.89265C16.5948 2.02997 16.7493 2.26374 16.8248 2.41213C16.9002 2.56056 16.9876 2.78936 17.019 2.92063C17.0637 3.10724 17.0926 3.15449 17.1515 3.13719C17.193 3.12499 17.3662 3.08122 17.5365 3.03984C17.8085 2.9738 17.8462 2.9518 17.8462 2.85929C17.8462 2.80138 17.823 2.69712 17.7946 2.62764C17.7663 2.55817 17.728 2.46064 17.7096 2.41095C17.6912 2.36126 17.6338 2.22742 17.582 2.11349C17.5301 1.99961 17.4147 1.79403 17.3256 1.65671C17.2363 1.51939 17.0331 1.27613 16.8739 1.11613C16.7148 0.956133 16.5123 0.772417 16.424 0.707821C16.3357 0.64327 16.1293 0.519904 15.9653 0.433715C15.8012 0.347481 15.5432 0.235906 15.3918 0.185764C15.2404 0.135623 14.9914 0.0719751 14.8385 0.0444199C14.6856 0.0168197 14.3863 -0.00301093 14.1733 0.00037699C13.9603 0.00376492 13.7345 0.014561 13.6714 0.0244086ZM13.7631 1.25567C13.6496 1.27528 13.4741 1.32311 13.3732 1.36196C13.2723 1.40081 13.1083 1.47462 13.009 1.52598C12.9096 1.57739 12.7317 1.69588 12.6137 1.78934C12.4957 1.88275 12.3247 2.06087 12.2336 2.18509C12.1425 2.30932 12.0172 2.51029 11.9552 2.63167C11.8932 2.75309 11.816 2.95636 11.7836 3.08339C11.7512 3.21046 11.7256 3.48718 11.7266 3.69836C11.7276 3.91948 11.7607 4.18988 11.8047 4.33584C11.8467 4.47528 11.9079 4.6379 11.9407 4.69722C11.9736 4.75657 12.0669 4.90925 12.1481 5.03659C12.2294 5.16394 12.4033 5.36283 12.5344 5.47861C12.6656 5.59434 12.9389 5.76848 13.1419 5.86551C13.4155 5.99642 13.6085 6.05401 13.889 6.08852C14.097 6.11414 14.2931 6.12642 14.3248 6.11585C14.3566 6.10528 14.489 6.08599 14.6191 6.07294C14.7493 6.05993 14.9632 6.00757 15.0946 5.95657C15.2259 5.90562 15.4291 5.80055 15.5461 5.72312C15.6631 5.64565 15.818 5.52938 15.8903 5.46474C15.9626 5.40005 16.1008 5.24285 16.1973 5.11538C16.294 4.9879 16.4239 4.76023 16.4861 4.60949C16.5483 4.4587 16.6125 4.27567 16.6288 4.20276C16.6563 4.07975 16.6474 4.0686 16.5068 4.04791C16.4234 4.03562 16.2472 3.99569 16.1151 3.95914C15.983 3.92255 15.8643 3.90313 15.8513 3.91596C15.8383 3.92879 15.8276 3.9656 15.8276 3.99781C15.8276 4.03002 15.7859 4.16621 15.7349 4.30047C15.6784 4.44913 15.5554 4.63361 15.4205 4.77216C15.2987 4.89728 15.1106 5.04405 15.0026 5.0983C14.8946 5.15255 14.7109 5.22546 14.5944 5.26029C14.4778 5.29512 14.3031 5.3238 14.206 5.32407C14.109 5.32434 13.9135 5.29137 13.7717 5.25076C13.6299 5.21015 13.4092 5.10851 13.2813 5.0249C13.1533 4.94128 12.9708 4.77017 12.8757 4.64463C12.7805 4.5191 12.6626 4.29288 12.6136 4.14187C12.5646 3.99086 12.5245 3.76947 12.5245 3.64989C12.5245 3.52757 12.5762 3.29498 12.6429 3.11799C12.7307 2.88472 12.8257 2.73741 13.0107 2.54787C13.1622 2.39257 13.3632 2.24499 13.5231 2.17168C13.7475 2.06868 13.8467 2.05111 14.199 2.05179C14.5588 2.05251 14.6467 2.06922 14.8831 2.18207C15.0323 2.25326 15.2347 2.38304 15.333 2.4704C15.4312 2.55776 15.5672 2.72196 15.6352 2.83526C15.7032 2.94855 15.7805 3.13321 15.8072 3.2456C15.8408 3.38799 15.8756 3.44459 15.9219 3.43239C15.9583 3.42277 16.1017 3.38622 16.2405 3.35117C16.3793 3.31616 16.5238 3.28097 16.5617 3.27302C16.609 3.26304 16.6266 3.21276 16.6181 3.11167C16.6112 3.03085 16.5303 2.80969 16.4382 2.6201C16.3163 2.36899 16.1827 2.1883 15.946 1.95431C15.7673 1.77773 15.5283 1.58836 15.4147 1.53353C15.3012 1.47869 15.1051 1.39417 14.9789 1.34574C14.8406 1.29271 14.5946 1.25025 14.3596 1.23887C14.1451 1.22848 13.8767 1.23607 13.7631 1.25567ZM19.7786 1.42665C19.6934 1.46798 19.5839 1.56411 19.5352 1.64018C19.4681 1.74525 19.4508 1.83939 19.4633 2.03142C19.4772 2.24648 19.5537 2.42907 19.9737 3.25107C20.2454 3.78279 20.5643 4.40378 20.6823 4.63104C20.8004 4.85825 20.9628 5.1835 21.0431 5.3538C21.1234 5.52405 21.2298 5.75484 21.2794 5.86664C21.3291 5.97844 21.4224 6.2122 21.4868 6.38612C21.5512 6.56003 21.6174 6.75825 21.6339 6.82655C21.6504 6.89485 21.6817 6.95077 21.7034 6.95077C21.7251 6.95077 21.7321 6.97855 21.7188 7.01248C21.7056 7.0464 21.7368 7.23604 21.7881 7.43385C21.8463 7.65862 21.8925 8.02949 21.9112 8.42244C21.9295 8.80645 21.9203 9.23938 21.8876 9.5344C21.8583 9.80011 21.7841 10.1824 21.7228 10.3839C21.6616 10.5853 21.5466 10.876 21.4672 11.0297C21.3879 11.1834 21.2592 11.3907 21.1813 11.4902C21.1034 11.5898 21.0076 11.7023 20.9684 11.7402C20.9292 11.7781 20.7696 11.9051 20.6138 12.0225C20.458 12.1399 20.3135 12.2361 20.2927 12.2362C20.2718 12.2364 20.1943 12.2675 20.1205 12.3055C20.0466 12.3434 19.8311 12.4144 19.6416 12.4633C19.3905 12.528 19.1466 12.5521 18.7426 12.5521C18.3054 12.5521 18.0962 12.5289 17.7534 12.4424C17.5143 12.382 17.236 12.3033 17.1351 12.2675C17.0342 12.2317 16.7492 12.1091 16.5016 11.9952C16.2542 11.8812 15.7886 11.6169 15.4671 11.4079C15.1455 11.1988 14.8525 10.9995 14.816 10.9649C14.7794 10.9303 14.6566 10.8318 14.5431 10.7461C14.4295 10.6603 14.2024 10.48 14.0384 10.3454C13.8744 10.2108 13.6045 9.97641 13.4387 9.82446C13.2728 9.6725 13.0457 9.46402 12.934 9.36112C12.8223 9.25822 12.5378 8.97996 12.3017 8.74276C12.0506 8.49043 11.7891 8.27283 11.6714 8.21835C11.5608 8.16713 11.4113 8.12525 11.3392 8.12525C11.2671 8.12525 11.1471 8.1552 11.0725 8.19184C10.998 8.22847 10.8898 8.30788 10.8321 8.36833C10.7563 8.44778 10.7205 8.55204 10.7027 8.74515C10.6892 8.89196 10.7019 9.12112 10.7309 9.25443C10.76 9.38768 10.8631 9.65059 10.9601 9.83864C11.0571 10.0267 11.1652 10.2314 11.2002 10.2935C11.2352 10.3556 11.3807 10.5792 11.5234 10.7904C11.6661 11.0016 11.8209 11.215 11.8674 11.2647C11.9138 11.3144 12.0239 11.4465 12.112 11.5582C12.2001 11.6699 12.3134 11.809 12.3639 11.8672C12.4144 11.9255 12.652 12.1695 12.8919 12.4094C13.1318 12.6494 13.4725 12.9684 13.6489 13.1183C13.8253 13.2683 14.1244 13.5041 14.3137 13.6426C14.5029 13.781 14.8332 14.0095 15.0477 14.1506C15.2622 14.2915 15.4686 14.4261 15.5065 14.4495C15.5443 14.4729 15.6888 14.5676 15.8276 14.6601C15.9664 14.7525 16.3174 14.9637 16.6075 15.1293C16.8977 15.2949 17.5067 15.6532 17.9609 15.9256C18.4151 16.198 18.9209 16.5053 19.0849 16.6087C19.2489 16.712 19.4037 16.8124 19.429 16.8318C19.4542 16.8512 19.7183 17.0267 20.0157 17.2217C20.3133 17.4167 20.5816 17.6008 20.6121 17.6306C20.6427 17.6605 20.8225 17.7953 21.0117 17.9302C21.201 18.0652 21.395 18.2062 21.443 18.2436C21.4909 18.281 21.5635 18.3421 21.6044 18.3794C21.6452 18.4166 21.7711 18.518 21.8842 18.6046C21.9973 18.6912 22.113 18.7827 22.1412 18.8079C22.1694 18.8331 22.3022 18.9452 22.4362 19.057C22.5703 19.1688 22.8021 19.369 22.9514 19.5019C23.1008 19.6348 23.2589 19.777 23.303 19.8181C23.347 19.8591 23.6392 20.1402 23.9522 20.4428C24.2652 20.7453 24.7299 21.2128 24.9848 21.4817C25.2397 21.7506 25.556 22.0925 25.6876 22.2416C25.8193 22.3907 25.9424 22.5182 25.9611 22.5249C25.9798 22.5316 26.0403 22.1556 26.0955 21.6892C26.1508 21.2228 26.2185 20.5872 26.246 20.2766C26.2736 19.966 26.2983 19.0411 26.3009 18.2213C26.3035 17.4014 26.2799 16.3342 26.2485 15.8497C26.2171 15.3652 26.1509 14.6335 26.1013 14.2235C26.0516 13.8136 25.9897 13.3562 25.9637 13.2071C25.9376 13.0581 25.8767 12.6922 25.8284 12.394C25.78 12.0959 25.7295 11.8012 25.7161 11.739C25.7028 11.6769 25.6712 11.5245 25.6459 11.4002C25.6206 11.276 25.5705 11.0321 25.5344 10.8582C25.4984 10.6843 25.4173 10.3489 25.3542 10.1128C25.2912 9.87681 25.2085 9.5719 25.1705 9.43525C25.1326 9.2986 25.0498 9.01402 24.9866 8.80284C24.9235 8.59166 24.7996 8.2156 24.7115 7.96715C24.6234 7.7187 24.4878 7.36297 24.4103 7.17663C24.3328 6.9903 24.2686 6.81751 24.2676 6.79267C24.2667 6.76782 24.226 6.66619 24.1773 6.56681C24.1285 6.46743 24.0879 6.37117 24.0871 6.35292C24.0862 6.33462 23.9013 5.9484 23.6761 5.49464C23.4508 5.04084 23.1181 4.42564 22.9365 4.1275C22.7549 3.82936 22.5211 3.46401 22.417 3.31562C22.3127 3.16718 22.2033 3.01473 22.1738 2.97683C22.1443 2.93888 22.0106 2.77572 21.8768 2.61423C21.743 2.45274 21.5503 2.23889 21.4488 2.13897C21.3472 2.03909 21.1608 1.87498 21.0347 1.77434C20.9085 1.6737 20.7046 1.53687 20.5816 1.47037C20.4284 1.38753 20.291 1.34972 20.1458 1.35044C20.0291 1.35098 19.8639 1.38532 19.7786 1.42665ZM26.851 1.6423C26.795 1.68174 26.7192 1.77935 26.6827 1.85922C26.6461 1.93908 26.4701 2.32544 26.2914 2.71776C26.1127 3.11013 25.9665 3.43858 25.9665 3.44766C25.9665 3.45674 25.8767 3.65405 25.767 3.88619C25.6573 4.11829 25.4921 4.47339 25.4 4.67526C25.3078 4.87714 25.2324 5.10268 25.2324 5.17645C25.2324 5.25021 25.2686 5.3411 25.3127 5.37846C25.3569 5.41582 25.4293 5.45905 25.4737 5.47454C25.5181 5.49004 25.6065 5.48321 25.6702 5.45936C25.7506 5.42928 25.8329 5.31973 25.9393 5.1011C26.0236 4.92791 26.1088 4.80061 26.1286 4.81823C26.1485 4.83585 26.1504 4.82582 26.1331 4.79596C26.1156 4.76606 26.3807 4.12971 26.7221 3.38184C27.0635 2.63392 27.3421 1.96723 27.3413 1.90028C27.3405 1.83333 27.3125 1.74304 27.279 1.69962C27.2456 1.65626 27.1585 1.60946 27.0855 1.59564C27.0019 1.57983 26.9152 1.59708 26.851 1.6423ZM25.6902 2.03973C25.6517 2.06999 25.4401 2.45518 25.2199 2.8957C24.9997 3.33622 24.8195 3.74783 24.8195 3.81044C24.8195 3.873 24.8608 3.96488 24.9113 4.01457C24.9618 4.06426 25.061 4.10492 25.1319 4.10492C25.2028 4.10492 25.2942 4.07953 25.3351 4.04845C25.376 4.01742 25.5864 3.6419 25.8026 3.21403C26.0358 2.75273 26.1959 2.38037 26.1959 2.29929C26.1959 2.22272 26.1554 2.12271 26.1041 2.07216C26.0536 2.02247 25.9556 1.98245 25.8862 1.98326C25.8168 1.98403 25.7286 2.00946 25.6902 2.03973ZM27.8704 2.22796C27.7947 2.26202 27.6798 2.33746 27.6152 2.39559C27.5505 2.45373 27.4352 2.59277 27.3589 2.70457C27.2826 2.81637 27.1662 3.00949 27.1001 3.13371C27.0341 3.25793 26.9276 3.48985 26.8635 3.64913C26.7993 3.80836 26.684 4.15393 26.6072 4.41706C26.5305 4.68014 26.418 5.13936 26.3574 5.4375C26.2967 5.73564 26.2218 6.2235 26.1908 6.52164C26.1598 6.81977 26.1347 7.41944 26.135 7.85422C26.1353 8.289 26.1613 8.91916 26.1927 9.25456C26.2241 9.58997 26.3092 10.3218 26.3817 10.8808C26.4542 11.4398 26.5549 12.2122 26.6054 12.5973C26.656 12.9824 26.7339 13.6939 26.7787 14.1783C26.8388 14.8285 26.86 15.4851 26.8596 16.6854C26.8591 17.8764 26.8375 18.5413 26.7785 19.1699C26.7342 19.6419 26.6671 20.2518 26.6294 20.5251C26.5917 20.7983 26.5179 21.2659 26.4653 21.564C26.4128 21.8622 26.3604 22.1671 26.3488 22.2416C26.3373 22.3161 26.3102 22.443 26.2886 22.5236C26.267 22.6041 26.2665 22.6805 26.2874 22.6932C26.3083 22.7059 26.4942 22.6133 26.7005 22.4873C26.9067 22.3614 27.1098 22.2454 27.1518 22.2297C27.1938 22.2139 27.2487 22.1844 27.274 22.164C27.2992 22.1437 27.6419 21.9165 28.0355 21.6591C28.4291 21.4016 28.9659 21.0351 29.2283 20.8446C29.4908 20.654 29.7369 20.4737 29.7754 20.4438C29.8139 20.414 29.9997 20.2677 30.1883 20.1186C30.3769 19.9697 30.7274 19.6861 30.9671 19.4884C31.2068 19.2908 31.4132 19.1179 31.4259 19.1043C31.4385 19.0907 31.6552 18.8979 31.9076 18.6759C32.1599 18.4539 32.7854 17.857 33.2976 17.3494C33.8098 16.8418 34.3416 16.2917 34.4793 16.1269C34.6171 15.962 34.8459 15.695 34.9878 15.5335C35.1297 15.372 35.2958 15.1829 35.357 15.1132C35.4182 15.0435 35.7118 14.6674 36.0094 14.2775C36.3071 13.8876 36.7676 13.2433 37.0328 12.8458C37.298 12.4482 37.5539 12.0543 37.6015 11.9703C37.6491 11.8863 37.7091 11.7847 37.7348 11.7444C37.7605 11.7042 37.8711 11.5037 37.9806 11.2989C38.0954 11.0842 38.2 10.939 38.2277 10.9558C38.2544 10.9721 38.2622 10.9635 38.2453 10.9366C38.2286 10.9099 38.3132 10.6882 38.4333 10.444C38.5535 10.1997 38.701 9.8881 38.761 9.75146C38.8211 9.61481 38.8974 9.44203 38.9307 9.36749C38.9639 9.29296 39.0737 9.01348 39.1746 8.74637C39.2754 8.47931 39.4216 8.04227 39.4995 7.77517C39.5774 7.50811 39.6708 7.12198 39.7072 6.91716C39.7436 6.71235 39.7866 6.38711 39.8028 6.19441C39.8197 5.99371 39.8096 5.70036 39.7792 5.5077C39.7499 5.32272 39.6845 5.10521 39.6337 5.0244C39.583 4.94354 39.473 4.83571 39.3893 4.78476C39.3056 4.73385 39.1614 4.69216 39.069 4.69216C38.9765 4.69216 38.832 4.72048 38.7478 4.75513C38.6637 4.78977 38.5427 4.88631 38.4791 4.96969C38.4155 5.05308 38.2063 5.44265 38.0143 5.83542C37.8222 6.22824 37.6651 6.55963 37.6651 6.57187C37.6651 6.58411 37.5985 6.74041 37.5171 6.91924C37.4356 7.09808 37.2168 7.54931 37.031 7.92198C36.8451 8.29465 36.5838 8.78251 36.4503 9.00611C36.3168 9.22972 36.0885 9.56512 35.943 9.75146C35.7975 9.93779 35.532 10.2397 35.3528 10.4224C35.1737 10.6051 34.8621 10.8809 34.6602 11.0353C34.4583 11.1897 34.2003 11.3682 34.0867 11.432C33.9732 11.4958 33.7667 11.6082 33.628 11.6816C33.4892 11.7551 33.2394 11.8597 33.0728 11.9141C32.9063 11.9685 32.6069 12.0313 32.4076 12.0538C32.1775 12.0798 31.9196 12.0779 31.7011 12.0488C31.4711 12.0181 31.2353 11.946 30.99 11.8313C30.7882 11.7369 30.4999 11.5603 30.3493 11.4389C30.1988 11.3175 29.9611 11.0838 29.8211 10.9197C29.6811 10.7555 29.4709 10.4306 29.354 10.1976C29.2371 9.96467 29.1068 9.67241 29.0644 9.54818C29.022 9.42396 28.9394 9.11904 28.8807 8.8706C28.822 8.62215 28.7462 8.23592 28.7122 8.01232C28.6711 7.74228 28.651 7.18102 28.6523 6.34095C28.654 5.28775 28.6728 4.92872 28.7647 4.19526C28.8255 3.71079 28.8762 3.18159 28.8774 3.01933C28.8789 2.82541 28.8507 2.66094 28.7952 2.53969C28.7402 2.41967 28.6498 2.32147 28.5366 2.25881C28.4394 2.20506 28.2842 2.16327 28.1853 2.16427C28.0878 2.16526 27.9461 2.1939 27.8704 2.22796ZM13.7961 2.49972C13.7008 2.53581 13.5333 2.63745 13.424 2.72562C13.3147 2.81376 13.1708 2.98929 13.1043 3.1156C13.0114 3.2919 12.9832 3.4108 12.9832 3.62672C12.9832 3.78148 13.0155 4.00147 13.055 4.11553C13.0945 4.22959 13.1952 4.39072 13.2788 4.47366C13.3625 4.55655 13.4753 4.66031 13.5296 4.70422C13.584 4.74812 13.7348 4.80653 13.8648 4.834C13.9948 4.86142 14.2179 4.87348 14.3605 4.86074C14.5032 4.848 14.6826 4.80567 14.7592 4.76669C14.8358 4.72766 14.9721 4.6253 15.0622 4.5392C15.1522 4.4531 15.2684 4.30065 15.3203 4.20041C15.3722 4.10017 15.4147 3.98688 15.4147 3.94862C15.4147 3.88922 15.3188 3.87905 14.7587 3.87905C14.3096 3.87905 14.0853 3.86193 14.0476 3.82485C14.0173 3.79503 13.9925 3.72637 13.9925 3.67225C13.9925 3.61818 14.0239 3.54826 14.0623 3.51691C14.1123 3.47607 14.3134 3.46238 14.7734 3.46857C15.3425 3.47625 15.4147 3.46884 15.4147 3.40262C15.4147 3.3616 15.3806 3.25735 15.339 3.17089C15.2973 3.08447 15.1889 2.93635 15.0981 2.84181C15.0073 2.74726 14.8444 2.62606 14.7361 2.57244C14.6238 2.51679 14.4169 2.4662 14.2544 2.45454C14.0693 2.44131 13.9089 2.45712 13.7961 2.49972ZM17.8692 3.38225C17.3897 3.50254 16.9383 3.61371 16.8659 3.6293C16.7936 3.64484 16.742 3.66494 16.7512 3.67393C16.7605 3.68292 16.9229 3.72398 17.1122 3.76522C17.3014 3.80646 17.5285 3.85678 17.6168 3.87707C17.7051 3.8973 18.0244 3.97626 18.3262 4.05252C18.6281 4.12872 18.8861 4.18022 18.8997 4.16685C18.9132 4.15352 18.9257 4.08332 18.9273 4.01082C18.9298 3.89889 18.9125 3.87896 18.8126 3.87856C18.7479 3.87829 18.6124 3.86302 18.5114 3.84468C18.3436 3.81414 18.3574 3.80935 18.672 3.78871C18.9779 3.76865 19.0161 3.75609 19.0161 3.67578C19.0161 3.59546 18.9779 3.5829 18.672 3.56285L18.3279 3.54026L18.5905 3.50977C18.735 3.49301 18.8743 3.4664 18.9002 3.45064C18.9261 3.43487 18.9473 3.36224 18.9473 3.28915C18.9473 3.18042 18.9285 3.15693 18.844 3.15987C18.7872 3.16185 18.3486 3.26191 17.8692 3.38225ZM28.9944 4.42112C28.9398 4.47488 28.9029 4.57096 28.9033 4.65828C28.9037 4.739 28.9209 4.83133 28.9416 4.8634C28.9622 4.89548 29.3078 5.03077 29.7093 5.16398C30.1109 5.29724 30.6047 5.45733 30.8065 5.51971C31.0084 5.58205 31.4832 5.71644 31.8617 5.8183C32.2402 5.92017 32.6531 6.03255 32.7792 6.06806C32.9054 6.10357 33.2976 6.19617 33.6509 6.27382C34.0042 6.35152 34.6441 6.48346 35.0731 6.56708C35.502 6.65069 36.1559 6.76507 36.5261 6.82122C37.0632 6.90266 37.2229 6.91269 37.3163 6.87082C37.3806 6.84195 37.4464 6.76683 37.4624 6.70386C37.4785 6.64089 37.4783 6.53722 37.462 6.47348C37.4432 6.39953 37.3792 6.33629 37.285 6.29875C37.2039 6.26641 37.0137 6.22643 36.8623 6.20995C36.7109 6.19346 36.298 6.12846 35.9448 6.06558C35.5915 6.00265 35.0031 5.8908 34.6373 5.81699C34.2714 5.74323 33.4869 5.55919 32.8939 5.408C32.301 5.25686 31.7275 5.1091 31.6195 5.0796C31.5116 5.05015 31.4387 5.0108 31.4576 4.99224C31.4764 4.97362 31.4594 4.97069 31.4197 4.98569C31.38 5.00068 30.8781 4.85947 30.3044 4.67187C29.7307 4.48427 29.2219 4.33078 29.1737 4.33078C29.1255 4.33078 29.0448 4.37143 28.9944 4.42112ZM40.3074 4.97448C40.1987 5.07007 40.182 5.1488 40.0279 6.29577C39.9377 6.96658 39.8337 7.73772 39.7968 8.00943C39.7599 8.28114 39.7296 8.58967 39.7296 8.69506C39.7296 8.84819 39.7538 8.90538 39.8505 8.98023C39.917 9.03173 40.0053 9.07387 40.0467 9.07387C40.0882 9.07387 40.1666 9.0432 40.2209 9.00575C40.2863 8.96062 40.3348 8.85763 40.3645 8.70084C40.3891 8.57061 40.4447 8.19979 40.4881 7.87681C40.5314 7.55382 40.5936 7.07613 40.6264 6.81526C40.6591 6.55439 40.7225 6.05875 40.7673 5.71382L40.8487 5.08669L40.7224 4.97977C40.653 4.92095 40.5572 4.87285 40.5095 4.87285C40.4619 4.87285 40.3709 4.91856 40.3074 4.97448ZM40.9959 5.97785C40.9582 6.0569 40.8961 6.49602 40.8494 7.01388L40.7683 7.91267L40.8938 8.01896C40.9628 8.07742 41.0583 8.12525 41.1059 8.12525C41.1536 8.12525 41.2449 8.07954 41.3088 8.02361C41.419 7.92717 41.4296 7.87509 41.5165 7.00195C41.5795 6.36922 41.5938 6.05568 41.5624 5.99791C41.5373 5.9517 41.4766 5.8927 41.4275 5.86686C41.3784 5.84098 41.2759 5.82449 41.1998 5.83018C41.0957 5.838 41.0451 5.87463 40.9959 5.97785ZM32.0303 6.54513C31.9212 6.56749 31.7247 6.63416 31.5936 6.69329C31.4575 6.75463 31.2277 6.92498 31.0579 7.09031C30.8602 7.28297 30.7105 7.48209 30.6109 7.68505C30.5286 7.85291 30.4309 8.11717 30.3937 8.27229C30.3566 8.42746 30.3259 8.7087 30.3255 8.89725C30.3251 9.09167 30.3636 9.3894 30.4144 9.58495C30.4636 9.77458 30.574 10.0376 30.6597 10.1695C30.7454 10.3013 30.9136 10.4943 31.0336 10.5983C31.1536 10.7023 31.3684 10.8307 31.5109 10.8836C31.7219 10.9619 31.843 10.9764 32.1636 10.9619C32.4798 10.9475 32.6101 10.9186 32.8256 10.8147C32.98 10.7403 33.2122 10.5683 33.3724 10.4094C33.5345 10.2487 33.7132 10.0111 33.8 9.84076C33.8821 9.67986 33.9829 9.41605 34.0241 9.25456C34.0652 9.09307 34.1004 8.79832 34.1024 8.59956C34.1043 8.4008 34.0784 8.12638 34.0448 7.98974C34.0113 7.85309 33.911 7.60315 33.822 7.43434C33.7286 7.25695 33.5735 7.05223 33.4547 6.94924C33.3416 6.85121 33.1434 6.72094 33.0142 6.65968C32.88 6.59608 32.6611 6.53889 32.504 6.52638C32.3526 6.51427 32.1394 6.52272 32.0303 6.54513ZM17.7054 7.34964C17.52 7.39735 17.3259 7.48688 17.2008 7.58255C17.089 7.66802 16.946 7.79708 16.8829 7.8694C16.8199 7.94167 16.7177 8.11518 16.6557 8.25499C16.5611 8.46793 16.5426 8.58258 16.5411 8.96094C16.54 9.28153 16.5627 9.47559 16.6196 9.62949C16.6637 9.7487 16.7414 9.92659 16.7922 10.0247C16.8431 10.1229 16.9049 10.2032 16.9296 10.2032C16.9543 10.2032 16.9694 10.2224 16.9631 10.2458C16.9568 10.2693 17.0223 10.376 17.1086 10.483C17.195 10.5899 17.3705 10.7648 17.4986 10.8715C17.6267 10.9782 17.8386 11.1154 17.9695 11.1764C18.1005 11.2374 18.3481 11.3194 18.5199 11.3586C18.7261 11.4057 18.9311 11.421 19.1227 11.4035C19.2927 11.388 19.5116 11.3294 19.6505 11.2623C19.781 11.1993 19.9617 11.0825 20.052 11.003C20.1424 10.9233 20.2594 10.7964 20.3121 10.7209C20.3648 10.6453 20.4508 10.4579 20.5034 10.3044C20.5559 10.1509 20.5985 9.91796 20.5982 9.78678C20.5978 9.65556 20.5682 9.42603 20.5325 9.27674C20.4967 9.12749 20.4266 8.91161 20.3768 8.79701C20.3269 8.68245 20.1985 8.4692 20.0914 8.32311C19.9843 8.17702 19.7861 7.96864 19.6509 7.86009C19.5158 7.7515 19.2867 7.60207 19.1418 7.52798C18.997 7.4539 18.7443 7.36523 18.5802 7.3309C18.4162 7.29661 18.2201 7.26937 18.1444 7.27037C18.0687 7.27136 17.8712 7.30705 17.7054 7.34964ZM44.4734 8.12525C44.4887 8.23705 44.5202 9.19245 44.5432 10.2484C44.5726 11.5919 44.6062 12.2902 44.6554 12.5747C44.6939 12.7983 44.7485 13.0626 44.7767 13.162C44.8048 13.2613 44.8811 13.4829 44.9462 13.6543C45.0114 13.8258 45.148 14.1205 45.2499 14.3093C45.3518 14.4982 45.5485 14.8152 45.6871 15.0139C45.8256 15.2125 45.9613 15.3977 45.9884 15.4254C46.0155 15.4531 46.0997 15.5542 46.1754 15.65C46.2511 15.7457 46.5401 16.0769 46.8176 16.3859C47.0952 16.6948 47.4847 17.1326 47.6833 17.3586C47.8819 17.5846 48.1469 17.9118 48.2724 18.0858C48.3978 18.2597 48.5617 18.5204 48.6364 18.6653C48.7112 18.81 48.8433 19.1374 48.9301 19.3926C49.0168 19.6478 49.1277 20.0883 49.1765 20.3716C49.2253 20.6547 49.3201 21.293 49.3872 21.7899C49.4543 22.2868 49.5596 22.9474 49.6211 23.258C49.6827 23.5685 49.7771 23.9708 49.8309 24.1519C49.8847 24.3329 49.9492 24.4935 49.9743 24.5088C50.0037 24.5267 50.008 24.4504 49.9865 24.2925C49.9682 24.1583 49.9348 23.8147 49.9123 23.529C49.8898 23.2433 49.884 22.6843 49.8994 22.2868C49.9159 21.8646 49.9038 21.2165 49.8704 20.7283C49.8263 20.0846 49.7819 19.7733 49.6771 19.3732C49.6023 19.0874 49.4485 18.6606 49.3353 18.4246C49.2221 18.1886 48.9772 17.7719 48.7911 17.4986C48.6051 17.2253 48.2733 16.7983 48.054 16.5499C47.8346 16.3014 47.5287 15.9567 47.374 15.7839C47.2194 15.611 46.9999 15.3671 46.8861 15.2418C46.7724 15.1165 46.5439 14.8412 46.3783 14.6301C46.2127 14.4189 46.0331 14.175 45.9791 14.088C45.9251 14.001 45.8185 13.8044 45.7421 13.651C45.6658 13.4976 45.5425 13.1621 45.4682 12.9056C45.3939 12.6491 45.3018 12.2664 45.2634 12.0552C45.2251 11.8441 45.1296 11.1957 45.0513 10.6144C44.973 10.0331 44.8702 9.37246 44.8228 9.14628C44.7754 8.9201 44.6918 8.57246 44.637 8.3737C44.5822 8.17494 44.5168 7.99199 44.4915 7.96715C44.4608 7.93702 44.4548 7.98965 44.4734 8.12525ZM43.0055 8.68991C43.0204 8.78929 43.0543 9.10436 43.0809 9.39008C43.1074 9.67579 43.123 10.1431 43.1154 10.4285L43.1016 10.9476L43.3218 10.9872C43.4429 11.009 43.5504 11.0186 43.5607 11.0084C43.571 10.9983 43.5507 10.8079 43.5156 10.5853C43.4805 10.3627 43.4198 10.0078 43.3808 9.79663C43.3418 9.58545 43.259 9.23184 43.1968 9.01086C43.1346 8.78983 43.06 8.58655 43.031 8.55913C42.9916 8.52173 42.9852 8.55457 43.0055 8.68991ZM41.5346 9.23794C41.5486 9.28433 41.5817 9.48133 41.6082 9.67566C41.6348 9.87003 41.6565 10.302 41.6565 10.6356C41.6565 10.9692 41.674 11.2421 41.6955 11.2421C41.717 11.2421 41.8021 11.219 41.8847 11.1906L42.0348 11.1391L42.005 10.8527C41.9887 10.6952 41.9247 10.3475 41.8629 10.0799C41.8012 9.8123 41.7238 9.50342 41.6911 9.39351C41.6583 9.28361 41.604 9.18463 41.5703 9.17361C41.5288 9.15997 41.5174 9.18061 41.5346 9.23794ZM17.2138 10.2926C17.2066 10.3232 17.2246 10.3766 17.2538 10.4112C17.283 10.4458 17.2922 10.4742 17.2743 10.4742C17.2563 10.4742 17.2041 10.4286 17.1582 10.3728C17.1123 10.317 17.0851 10.2549 17.0977 10.2349C17.1103 10.2148 17.1445 10.2071 17.1737 10.2177C17.203 10.2283 17.221 10.2621 17.2138 10.2926ZM5.73428 11.1639C5.64615 11.1859 5.55696 11.2203 5.53609 11.2402C5.51517 11.2601 5.47847 11.4262 5.45456 11.6093C5.43062 11.7925 5.40103 12.0338 5.38878 12.1456C5.37657 12.2574 5.33409 12.5792 5.29445 12.8608C5.25482 13.1424 5.2327 13.383 5.24532 13.3954C5.25798 13.4078 5.41704 13.3708 5.59885 13.3132C5.78061 13.2556 5.93508 13.1878 5.94215 13.1626C5.94917 13.1374 6.07271 12.7435 6.21672 12.2872L6.47854 11.4577L6.38385 11.3644C6.33178 11.3132 6.20034 11.238 6.09184 11.1974C5.94655 11.1431 5.85223 11.1343 5.73428 11.1639ZM42.5216 11.4002C42.3287 11.4362 41.9498 11.5392 41.6795 11.6292C41.4093 11.7192 40.9167 11.9185 40.585 12.0721C40.2534 12.2257 39.8787 12.4097 39.7526 12.481C39.6264 12.5522 39.3167 12.7437 39.0644 12.9065C38.8121 13.0693 38.3682 13.3884 38.078 13.6155C37.7879 13.8426 37.3647 14.202 37.1376 14.4141C36.9105 14.6263 36.415 15.1112 36.0365 15.4919C35.658 15.8725 34.9045 16.6237 34.362 17.1611C33.8195 17.6985 33.1692 18.3222 32.9169 18.547C32.6645 18.7717 32.2524 19.1243 32.001 19.3304C31.7496 19.5365 31.3216 19.8739 31.0498 20.0802C30.778 20.2865 30.4779 20.5064 30.3829 20.5688C30.2879 20.6313 30.0346 20.8029 29.8202 20.9502C29.6057 21.0975 29.0973 21.4215 28.6904 21.6703C28.2835 21.919 27.7571 22.2291 27.5206 22.3594C27.284 22.4897 26.9482 22.674 26.7745 22.769C26.6006 22.864 26.4406 22.9418 26.4189 22.9418C26.3972 22.9418 26.3794 22.9757 26.3794 23.0171C26.3794 23.0585 26.3911 23.0808 26.4055 23.0667C26.4198 23.0525 26.551 23.0888 26.697 23.1472C26.843 23.2056 27.1461 23.3173 27.3705 23.3954C27.595 23.4735 27.9335 23.5887 28.1227 23.6513C28.3119 23.714 28.7145 23.8354 29.0173 23.9212C29.3201 24.0069 29.8878 24.1558 30.2789 24.2521C30.67 24.3484 31.2481 24.4781 31.5635 24.5402C31.8789 24.6024 32.3124 24.6849 32.5269 24.7236C32.7414 24.7624 33.1956 24.8353 33.5362 24.8857C33.8768 24.9362 34.5375 25.0171 35.0043 25.0656C35.4711 25.114 36.4269 25.1779 37.1282 25.2075C38.1125 25.249 38.6673 25.249 39.5597 25.2077C40.1957 25.1783 41.0669 25.1137 41.4959 25.0642C41.9248 25.0147 42.4306 24.9454 42.6199 24.91C42.8091 24.8747 43.0569 24.8318 43.1704 24.8148C43.284 24.7976 43.7072 24.7035 44.1109 24.6054C44.5146 24.5074 45.072 24.3545 45.3496 24.2659C45.6271 24.1772 46.0561 24.0259 46.3029 23.9296C46.5497 23.8333 46.9204 23.6709 47.1268 23.5688C47.3331 23.4666 47.6464 23.2893 47.8229 23.1748C47.9995 23.0603 48.2631 22.8518 48.4087 22.7115C48.5544 22.5712 48.6946 22.4017 48.7204 22.3348C48.7463 22.2679 48.7674 22.1042 48.7674 21.9711C48.7674 21.7791 48.7438 21.7014 48.6533 21.5955C48.5905 21.522 48.4687 21.429 48.3825 21.3887C48.2964 21.3485 48.1623 21.3156 48.0844 21.3156C48.0066 21.3156 47.8549 21.3356 47.7473 21.3601C47.6397 21.3846 46.9943 21.538 46.313 21.7012C45.6317 21.8642 44.9504 22.027 44.799 22.0628C44.6477 22.0985 44.2967 22.1725 44.0191 22.2271C43.5983 22.3098 43.3545 22.3265 42.5511 22.328C41.7994 22.3293 41.4989 22.3119 41.1839 22.2486C40.9618 22.204 40.5968 22.1095 40.3729 22.0386C40.1489 21.9678 39.8144 21.8353 39.6297 21.7443C39.445 21.6534 39.1859 21.4991 39.0541 21.4015C38.9223 21.3039 38.7309 21.141 38.6288 21.0394C38.5267 20.9378 38.3844 20.7704 38.3125 20.6673C38.2407 20.5642 38.1346 20.3782 38.0768 20.254C38.019 20.1298 37.9448 19.9062 37.9118 19.7571C37.8788 19.6081 37.8511 19.326 37.8503 19.1303C37.8493 18.9282 37.8895 18.5966 37.9433 18.3624C38.005 18.0943 38.1256 17.7761 38.2884 17.4521C38.4261 17.1781 38.6771 16.7716 38.8462 16.5487C39.0153 16.3257 39.371 15.9284 39.6366 15.6657C39.9023 15.403 40.2331 15.0911 40.3719 14.9726C40.5107 14.854 40.8926 14.5582 41.2206 14.3151C41.5486 14.0721 42.1577 13.661 42.574 13.4017C42.9903 13.1424 43.4069 12.8851 43.4998 12.8298C43.5927 12.7746 43.7298 12.6607 43.8046 12.5768C43.8794 12.493 43.9656 12.3497 43.9962 12.2583C44.0268 12.167 44.0395 12.0314 44.0244 11.957C44.0093 11.8826 43.9551 11.7639 43.904 11.6932C43.8529 11.6225 43.7401 11.5215 43.6533 11.4687C43.5463 11.4036 43.3953 11.3666 43.1839 11.3539C43.0125 11.3435 42.7144 11.3643 42.5216 11.4002ZM43.7452 13.0921C43.7303 13.1158 43.6155 13.1902 43.4901 13.2574C43.3633 13.3254 43.2624 13.4115 43.2627 13.4515C43.263 13.491 43.2912 13.625 43.3254 13.7492C43.3596 13.8734 43.4518 14.1377 43.5303 14.3364C43.6089 14.5352 43.8218 14.9418 44.0036 15.2399C44.1854 15.538 44.3617 15.8091 44.3953 15.8424C44.4289 15.8756 44.5121 15.9772 44.5803 16.0682C44.6484 16.1592 44.8561 16.4065 45.0419 16.6177C45.2276 16.8288 45.5196 17.1541 45.6908 17.3404C45.862 17.5267 46.1244 17.8215 46.274 17.9954C46.4236 18.1693 46.5961 18.3828 46.6574 18.4697C46.7186 18.5567 46.7951 18.6546 46.8273 18.6873C46.8596 18.7199 46.9658 18.8825 47.0634 19.0486C47.161 19.2147 47.298 19.4929 47.3679 19.6668C47.4379 19.8407 47.5517 20.2042 47.6209 20.4747L47.7469 20.9664L48.0621 20.9756C48.2356 20.9806 48.3908 20.978 48.4071 20.9697C48.4233 20.9615 48.4197 20.8784 48.3988 20.7851C48.3781 20.6917 48.3271 20.4426 48.2855 20.2314C48.244 20.0203 48.1719 19.7357 48.1253 19.599C48.0788 19.4624 47.9785 19.2146 47.9025 19.0483C47.8265 18.882 47.6907 18.6326 47.6007 18.4941C47.5107 18.3555 47.437 18.2316 47.437 18.2186C47.437 18.2057 47.2943 18.0074 47.1198 17.7779C46.9454 17.5484 46.6843 17.2291 46.5395 17.0682C46.3948 16.9073 46.148 16.6335 45.9911 16.4595C45.8342 16.2856 45.5867 16.0112 45.4411 15.8497C45.2955 15.6882 45.0259 15.3565 44.8419 15.1126C44.6579 14.8688 44.4155 14.4825 44.3032 14.2544C44.1908 14.0262 44.0504 13.6617 43.9911 13.4443C43.9309 13.2236 43.8587 13.049 43.8277 13.049C43.7972 13.049 43.7601 13.0684 43.7452 13.0921ZM6.5375 13.4409C6.4618 13.4501 6.25535 13.4911 6.07872 13.532C5.9021 13.5728 5.6511 13.6525 5.52095 13.7092C5.3908 13.7658 5.27064 13.8339 5.25399 13.8605C5.23729 13.887 5.19926 13.895 5.16948 13.8782C5.13966 13.8614 5.13012 13.8638 5.1482 13.8836C5.16632 13.9032 5.14104 13.9696 5.09209 14.0309C5.04309 14.0922 4.98969 14.2123 4.9734 14.2978C4.95418 14.3987 4.97107 14.5237 5.02162 14.654C5.06677 14.7703 5.16063 14.8978 5.24477 14.957C5.32464 15.0132 5.46236 15.0846 5.55086 15.1157C5.63931 15.1468 5.91815 15.2155 6.17048 15.2685C6.4228 15.3214 6.76344 15.3903 6.92745 15.4216C7.09146 15.4528 7.40113 15.5114 7.61561 15.5518C7.83008 15.5921 8.08814 15.6446 8.18907 15.6684C8.29 15.6922 8.59967 15.7651 8.87723 15.8304C9.15479 15.8958 9.4851 15.9804 9.61127 16.0185C9.73743 16.0566 9.96452 16.1273 10.1159 16.1757C10.2673 16.224 10.5977 16.3613 10.85 16.4808C11.1024 16.6003 11.5313 16.8436 11.8031 17.0217C12.1003 17.2163 12.2849 17.3652 12.2662 17.395C12.249 17.4224 12.2559 17.4321 12.2814 17.4165C12.3068 17.401 12.4134 17.4606 12.5182 17.5488C12.6277 17.6412 12.6956 17.7318 12.678 17.762C12.6612 17.791 12.6643 17.7996 12.6851 17.7811C12.7058 17.7626 12.7968 17.8243 12.8874 17.9182C12.978 18.0121 13.0992 18.145 13.1567 18.2135C13.2143 18.2821 13.2471 18.3627 13.2296 18.3927C13.2122 18.4226 13.214 18.4329 13.2337 18.4154C13.2533 18.3979 13.2941 18.4081 13.3243 18.438C13.3545 18.4679 13.4346 18.5856 13.5023 18.6996C13.5701 18.8135 13.6255 18.9406 13.6255 18.9819C13.6255 19.0232 13.6421 19.057 13.6623 19.057C13.6826 19.057 13.7336 19.1535 13.7759 19.2715C13.8181 19.3896 13.8682 19.5572 13.8872 19.6442C13.9062 19.7312 13.9222 19.9548 13.9228 20.1411C13.9233 20.3274 13.9101 20.551 13.8934 20.638C13.8768 20.7249 13.8219 20.9079 13.7714 21.0445C13.7209 21.1812 13.6406 21.3698 13.5928 21.4637C13.545 21.5576 13.4898 21.6186 13.4701 21.5993C13.4504 21.5799 13.4403 21.5843 13.4476 21.6092C13.4549 21.634 13.425 21.7207 13.3812 21.8017C13.3373 21.8828 13.1524 22.0986 12.9703 22.2814C12.7882 22.4643 12.5256 22.6959 12.3868 22.796C12.2481 22.8962 12.021 23.041 11.8822 23.1178C11.7434 23.1946 11.5266 23.3072 11.4005 23.3679C11.2743 23.4286 11.0472 23.5282 10.8958 23.589C10.7444 23.6499 10.3831 23.7729 10.093 23.8623C9.8028 23.9517 9.29701 24.0859 8.96898 24.1603C8.64096 24.2347 8.18678 24.326 7.95969 24.3632C7.73259 24.4003 7.30938 24.4605 7.01921 24.4969C6.72903 24.5334 6.33678 24.576 6.14754 24.5917C5.9583 24.6075 5.72088 24.6402 5.61995 24.6646C5.51902 24.6889 5.36946 24.739 5.28762 24.7759C5.20577 24.8128 5.08709 24.918 5.02382 25.0096C4.96061 25.1012 4.90886 25.2401 4.90886 25.3182C4.90886 25.3963 4.92189 25.5244 4.93785 25.6029C4.95382 25.6814 5.03034 25.811 5.10792 25.8909C5.18549 25.9708 5.24422 26.0528 5.23835 26.0733C5.23252 26.0938 5.2483 26.0981 5.27344 26.0827C5.29858 26.0674 5.36731 26.086 5.42612 26.1239C5.48498 26.1619 5.64716 26.2316 5.78649 26.2788C5.92586 26.326 6.21379 26.398 6.42633 26.4388C6.63888 26.4796 7.01921 26.5309 7.27153 26.5529C7.52385 26.5749 8.05029 26.5852 8.4414 26.5758C8.8325 26.5665 9.35894 26.5374 9.61127 26.5114C9.86359 26.4853 10.1526 26.4456 10.2535 26.423C10.3545 26.4005 10.5609 26.3586 10.7123 26.3299C10.8637 26.3012 11.2869 26.1963 11.6528 26.0967C12.0187 25.9972 12.5038 25.8552 12.7309 25.7812C12.958 25.7072 13.1883 25.6251 13.2427 25.5989C13.297 25.5726 13.3641 25.5649 13.3918 25.5817C13.4194 25.5985 13.442 25.5932 13.442 25.5699C13.442 25.5467 13.571 25.4813 13.7287 25.4247C13.8865 25.368 14.2301 25.2425 14.4924 25.1458C14.7546 25.0491 14.9983 24.9809 15.0338 24.9943C15.0693 25.0077 15.0868 25.0003 15.0728 24.9779C15.0586 24.9554 15.1453 24.9024 15.2653 24.86C15.3854 24.8176 15.5868 24.7456 15.7129 24.6998C15.8391 24.6542 16.1178 24.5559 16.3323 24.4814C16.5467 24.4069 16.9287 24.2824 17.181 24.2047C17.4333 24.127 17.7585 24.0245 17.9037 23.9769C18.0489 23.9293 18.2151 23.8904 18.2731 23.8904C18.331 23.8904 18.398 23.8724 18.422 23.8503C18.4459 23.8283 18.7236 23.7475 19.039 23.6707C19.3544 23.5939 19.8189 23.4888 20.0713 23.437C20.3236 23.3852 20.6436 23.3229 20.7824 23.2986C20.9211 23.2744 21.2102 23.225 21.4246 23.1889C21.6391 23.1527 21.9901 23.103 22.2045 23.0782C22.419 23.0534 22.6874 23.0213 22.8009 23.0067C22.9145 22.9921 23.059 22.9717 23.1221 22.9615C23.1852 22.9512 23.5155 22.9221 23.8561 22.8968C24.1968 22.8715 24.5374 22.8413 24.6131 22.8298C24.6888 22.8182 24.9623 22.8057 25.221 22.802C25.4937 22.798 25.6912 22.7765 25.6912 22.7507C25.6912 22.7263 25.6243 22.6221 25.5424 22.5191C25.4606 22.4162 25.3779 22.3251 25.3586 22.3168C25.3394 22.3085 25.3373 22.2799 25.3539 22.2534C25.3706 22.2268 25.3634 22.2178 25.338 22.2332C25.3125 22.2487 25.2472 22.2148 25.1928 22.1578C25.1384 22.1008 25.1096 22.0354 25.1288 22.0124C25.1479 21.9894 25.1446 21.9859 25.1213 22.0047C25.098 22.0235 24.8812 21.848 24.6396 21.6148C24.3979 21.3816 24.0656 21.0715 23.9011 20.9256C23.7366 20.7799 23.4807 20.5589 23.3325 20.4347C23.1843 20.3105 22.9886 20.1464 22.8976 20.0702C22.8066 19.9939 22.5254 19.7703 22.2728 19.5733C22.0201 19.3762 21.6928 19.1236 21.5456 19.0118C21.3983 18.9 21.1596 18.7272 21.0151 18.6278C20.8707 18.5284 20.5888 18.337 20.3889 18.2023C20.189 18.0677 20.0151 17.9447 20.0024 17.929C19.9898 17.9133 19.7111 17.7364 19.3831 17.5359C19.0551 17.3353 18.6112 17.0683 18.3967 16.9425C18.1823 16.8167 17.9708 16.7002 17.9268 16.6836C17.8827 16.667 17.859 16.6338 17.874 16.6099C17.889 16.586 17.8734 16.5724 17.8393 16.5797C17.8053 16.5869 17.5916 16.4899 17.3645 16.3641C17.1374 16.2383 16.5697 15.9513 16.1029 15.7264C15.6361 15.5014 15.2129 15.3017 15.1624 15.2825C15.1119 15.2634 15.0603 15.2451 15.0477 15.2419C15.0351 15.2387 14.9215 15.1898 14.7954 15.1332C14.6692 15.0766 14.2873 14.9228 13.9467 14.7913C13.606 14.6598 12.997 14.4476 12.5933 14.3197C12.1896 14.1919 11.7973 14.068 11.7216 14.0445C11.6459 14.0211 11.2537 13.9308 10.8499 13.844C10.4462 13.7572 9.96108 13.6556 9.77183 13.6183C9.58259 13.5811 9.11272 13.519 8.72772 13.4805C8.34267 13.4419 7.72333 13.4134 7.3514 13.4172C6.97943 13.4209 6.61319 13.4316 6.5375 13.4409ZM3.94544 14.376C3.70573 14.4572 3.38573 14.5816 3.23434 14.6523C3.08295 14.723 2.75194 14.9173 2.49884 15.0839C2.24569 15.2505 1.88505 15.5402 1.69741 15.7278C1.50973 15.9153 1.33691 16.0569 1.31328 16.0426C1.2897 16.0282 1.28286 16.0363 1.29805 16.0605C1.31328 16.0848 1.21368 16.2556 1.07669 16.4402C0.939702 16.6247 0.81175 16.7963 0.792299 16.8213C0.772893 16.8464 0.690405 16.9988 0.609019 17.1601C0.527679 17.3214 0.407527 17.5948 0.342014 17.7678C0.276502 17.9407 0.172727 18.2912 0.111436 18.5466C0.0155065 18.9465 0 19.1217 0 19.8071C0 20.5087 0.0139467 20.659 0.117583 21.0744C0.182224 21.3336 0.284117 21.6738 0.343941 21.8304C0.403811 21.9869 0.512402 22.235 0.585301 22.3816C0.6582 22.5282 0.81799 22.8006 0.94039 22.9869C1.06284 23.1733 1.19033 23.342 1.22377 23.3619C1.25722 23.3818 1.28456 23.4181 1.28456 23.4427C1.28456 23.4673 1.41361 23.6143 1.57129 23.7695C1.72902 23.9247 2.00254 24.1652 2.17917 24.3041C2.35579 24.4429 2.56224 24.5899 2.63794 24.6306C2.71363 24.6713 2.81686 24.729 2.86732 24.7587C2.91779 24.7885 3.01069 24.8445 3.07377 24.8833C3.13685 24.922 3.31233 25.0026 3.46373 25.0623C3.61512 25.1221 3.74931 25.1826 3.76193 25.197C3.77454 25.2113 3.81583 25.2268 3.85368 25.2314C3.89153 25.236 4.04361 25.2729 4.1917 25.3133C4.33975 25.3536 4.4894 25.3759 4.52431 25.3627C4.55918 25.3495 4.58772 25.292 4.58772 25.235C4.58772 25.178 4.62873 25.0559 4.67887 24.9638C4.76856 24.799 4.76861 24.7956 4.6819 24.7499C4.63341 24.7244 4.55111 24.7035 4.49899 24.7035C4.44687 24.7035 4.40421 24.6798 4.40421 24.6508C4.40421 24.6218 4.39168 24.6104 4.37636 24.6255C4.36108 24.6406 4.20106 24.6007 4.02081 24.5369C3.84056 24.473 3.58989 24.3681 3.46373 24.3038C3.33756 24.2395 3.16208 24.1407 3.07377 24.0844C2.98546 24.0281 2.89255 23.9656 2.86732 23.9455C2.84209 23.9254 2.75515 23.8609 2.67413 23.8021C2.59311 23.7434 2.53953 23.6751 2.55508 23.6503C2.57096 23.6251 2.56013 23.6195 2.53022 23.6377C2.49842 23.657 2.34868 23.5425 2.15664 23.3519C1.98033 23.1769 1.74297 22.9092 1.62914 22.7569C1.51532 22.6047 1.42219 22.4518 1.42219 22.4173C1.42219 22.3828 1.40219 22.3545 1.37774 22.3545C1.35333 22.3545 1.34649 22.3207 1.3626 22.2794C1.38044 22.2337 1.37347 22.2155 1.34484 22.2328C1.3181 22.2491 1.22625 22.1109 1.1322 21.9128C1.04114 21.7209 0.915249 21.374 0.852398 21.1417C0.789592 20.9094 0.713894 20.5134 0.684166 20.2617C0.642005 19.9046 0.642647 19.7046 0.687056 19.3515C0.718345 19.1025 0.769727 18.7871 0.80129 18.6504C0.832808 18.5138 0.914469 18.2495 0.982689 18.0632C1.05095 17.8768 1.19905 17.5575 1.31177 17.3535C1.42449 17.1496 1.53757 16.9699 1.56308 16.9545C1.58859 16.939 1.65722 16.8517 1.71562 16.7607C1.77402 16.6696 1.95473 16.4623 2.11714 16.3C2.27959 16.1377 2.54059 15.9079 2.69721 15.7892C2.85379 15.6706 3.2142 15.4565 3.49809 15.3135C3.78198 15.1705 4.1661 15.0148 4.35172 14.9674L4.68915 14.8812L4.66139 14.6816C4.64612 14.5718 4.63359 14.4238 4.63359 14.3527C4.63359 14.2413 4.61621 14.2238 4.50743 14.2259C4.43802 14.2272 4.18514 14.2948 3.94544 14.376ZM41.3353 16.918C41.2722 16.9273 41.0968 16.9569 40.9454 16.9837C40.794 17.0106 40.5256 17.1037 40.349 17.1907C40.1723 17.2776 39.939 17.4202 39.8305 17.5076C39.722 17.595 39.5715 17.7303 39.4961 17.8083C39.4206 17.8864 39.272 18.1214 39.1658 18.3307C38.979 18.6987 38.9726 18.7254 38.9726 19.1459C38.9726 19.5513 38.9832 19.6012 39.1294 19.885C39.2157 20.0524 39.3679 20.2621 39.4678 20.3509C39.5676 20.4398 39.7621 20.5616 39.9001 20.6216C40.038 20.6817 40.3048 20.7544 40.493 20.7832C40.7612 20.8242 40.9112 20.823 41.1872 20.7773C41.3809 20.7453 41.6385 20.6806 41.7596 20.6336C41.8808 20.5865 42.1236 20.4548 42.2993 20.3409C42.475 20.2269 42.7022 20.0402 42.8044 19.926C42.9065 19.8118 43.0667 19.5656 43.1605 19.3788C43.323 19.0551 43.331 19.0182 43.331 18.5851C43.331 18.1799 43.3172 18.1034 43.2035 17.8752C43.1333 17.7347 42.9978 17.5403 42.9022 17.4434C42.8067 17.3464 42.6283 17.2119 42.5058 17.1445C42.3735 17.0717 42.1257 16.995 41.895 16.9554C41.6815 16.9187 41.494 16.8914 41.4784 16.8948C41.4628 16.8982 41.3984 16.9086 41.3353 16.918ZM10.0012 18.3866C9.88767 18.4091 9.76018 18.4313 9.71784 18.4357C9.67554 18.4402 9.64939 18.4573 9.65967 18.4737C9.66999 18.4902 9.58589 18.5291 9.47281 18.5603C9.35972 18.5915 9.26719 18.63 9.26719 18.646C9.26719 18.662 9.19401 18.7138 9.1046 18.7613C9.01514 18.8087 8.84658 18.9505 8.73001 19.0764C8.61344 19.2024 8.46824 19.4123 8.40731 19.543C8.33753 19.6928 8.28753 19.9015 8.27207 20.1077C8.25449 20.3411 8.2694 20.5084 8.32409 20.6922C8.3662 20.8338 8.47443 21.0472 8.56458 21.1665C8.65473 21.2858 8.80897 21.4443 8.90733 21.5188C9.00569 21.5934 9.11143 21.6749 9.14226 21.7001C9.17314 21.7252 9.2603 21.7733 9.336 21.8069C9.4117 21.8405 9.5975 21.9099 9.7489 21.9609C9.95993 22.0321 10.1419 22.0541 10.5288 22.0551C10.9328 22.0561 11.0941 22.0362 11.3374 21.9552C11.5046 21.8996 11.7579 21.7849 11.9005 21.7004C12.043 21.6159 12.2526 21.449 12.3664 21.3295C12.4801 21.2101 12.6291 21.0005 12.6975 20.8638C12.7893 20.6806 12.8264 20.5287 12.8389 20.2851C12.8483 20.1034 12.8304 19.8595 12.7992 19.743C12.7679 19.6265 12.6787 19.4245 12.6008 19.2941C12.5229 19.1637 12.4417 19.057 12.4203 19.057C12.3989 19.057 12.3961 19.0335 12.4141 19.0048C12.4322 18.9761 12.4271 18.9647 12.4029 18.9794C12.3788 18.9941 12.2821 18.9368 12.1882 18.8521C12.0943 18.7674 12.0025 18.694 11.9843 18.6889C11.966 18.6838 11.8266 18.6242 11.6746 18.5563C11.5226 18.4884 11.2762 18.4107 11.1271 18.3835C10.978 18.3564 10.7102 18.3367 10.5318 18.3398C10.3536 18.343 10.1148 18.364 10.0012 18.3866ZM25.026 23.064C24.9251 23.0732 24.4502 23.1307 23.9708 23.1919C23.4914 23.2531 22.7792 23.3626 22.3881 23.4351C21.997 23.5078 21.5221 23.6008 21.3329 23.6419C21.1436 23.6829 20.7307 23.7764 20.4153 23.8496C20.0999 23.9229 19.6561 24.0358 19.429 24.1005C19.2019 24.1652 18.5722 24.3586 18.0297 24.5302C17.4872 24.7018 16.8472 24.9146 16.6075 25.0031C16.3678 25.0916 15.862 25.2926 15.4835 25.4497C15.1051 25.6069 14.6509 25.8025 14.4742 25.8844C14.2976 25.9663 14.1325 26.034 14.1072 26.0347C14.082 26.0354 14.051 26.0473 14.0384 26.0611C14.0258 26.0749 13.9264 26.1311 13.8175 26.1861C13.7086 26.2412 13.595 26.2724 13.5651 26.2555C13.5353 26.2387 13.5265 26.2418 13.5456 26.2626C13.5647 26.2833 13.4246 26.3773 13.2344 26.4715C13.0441 26.5656 12.7555 26.7146 12.5932 26.8024C12.4308 26.8902 12.2652 26.9621 12.225 26.9621C12.1849 26.9621 12.1631 26.9797 12.1766 27.0013C12.1901 27.0228 12.0829 27.0936 11.9385 27.1585C11.794 27.2234 11.6964 27.2772 11.7216 27.278C11.7468 27.2788 11.6849 27.3264 11.584 27.3838C11.4831 27.4413 11.1566 27.6453 10.8586 27.8372C10.5606 28.0292 10.1477 28.3084 9.94108 28.4578C9.73444 28.6071 9.52827 28.7592 9.48295 28.7957C9.43762 28.8322 9.37766 28.8481 9.34972 28.8312C9.32095 28.8136 9.31169 28.8206 9.32839 28.8472C9.34463 28.8731 9.32719 28.9194 9.28962 28.9501C9.25205 28.9808 9.22131 28.9953 9.22131 28.9823C9.22131 28.9693 9.15162 29.0228 9.06643 29.101C8.98123 29.1793 8.84443 29.2992 8.76245 29.3675C8.68046 29.4359 8.60729 29.4918 8.59986 29.4918C8.59238 29.4918 8.50567 29.568 8.40717 29.6612C8.30863 29.7544 8.02314 30.0269 7.77269 30.267C7.52229 30.507 7.23074 30.8017 7.12481 30.922C7.01893 31.0422 6.82147 31.2828 6.68609 31.4568C6.55075 31.6307 6.38009 31.8746 6.30692 31.9988C6.23379 32.1231 6.13768 32.2938 6.09336 32.3782C6.04909 32.4626 5.96843 32.6632 5.91412 32.8239C5.84191 33.0376 5.82314 33.1716 5.8442 33.3231C5.86007 33.437 5.91912 33.5964 5.97536 33.6772C6.03165 33.7582 6.1502 33.8542 6.23879 33.8906C6.32738 33.9271 6.46698 33.9682 6.54896 33.9818C6.63251 33.9958 6.69807 33.9874 6.69807 33.9627C6.69807 33.9385 6.72931 33.9187 6.76752 33.9187C6.80569 33.9187 6.88313 33.8933 6.93956 33.8622C6.99599 33.8312 7.1144 33.7491 7.20271 33.6799C7.29103 33.6108 7.38705 33.5356 7.41604 33.513C7.44508 33.4903 7.67217 33.3162 7.92069 33.126C8.16925 32.9358 8.41387 32.7358 8.46434 32.6816C8.5148 32.6273 8.65931 32.5023 8.78548 32.4038C8.91164 32.3053 9.03551 32.2027 9.06074 32.1758C9.08597 32.1489 9.26145 32.0048 9.4507 31.8556C9.63994 31.7063 9.89749 31.5149 10.0231 31.4302C10.1486 31.3454 10.2784 31.2557 10.3114 31.2309C10.3444 31.2061 10.3965 31.1643 10.4272 31.138C10.4578 31.1118 10.5552 31.0508 10.6435 31.0025C10.7318 30.9542 10.8147 30.9009 10.8277 30.8841C10.8406 30.8673 11.0677 30.7466 11.3323 30.616C11.5969 30.4853 11.8495 30.3809 11.8937 30.384C11.9378 30.3871 11.9739 30.3732 11.9739 30.3531C11.9739 30.333 12.072 30.2918 12.1919 30.2614C12.3117 30.231 12.4511 30.1905 12.5015 30.1714C12.552 30.1523 12.6759 30.1095 12.7768 30.0763C12.8777 30.0431 13.0842 29.9993 13.2356 29.9789C13.387 29.9586 13.77 29.9299 14.0867 29.9151C14.5408 29.8939 14.7397 29.9047 15.0272 29.9664C15.2277 30.0095 15.495 30.0866 15.6212 30.1379C15.7473 30.1891 15.9435 30.2912 16.057 30.3646C16.1706 30.4381 16.3615 30.5912 16.4814 30.7048C16.6012 30.8183 16.6993 30.9336 16.6993 30.9609C16.6993 30.9882 16.7361 31.05 16.781 31.0981C16.826 31.1463 16.9055 31.2569 16.9576 31.3438C17.0097 31.4308 17.0953 31.6137 17.1476 31.7504C17.1999 31.887 17.27 32.1106 17.3034 32.2473C17.3396 32.3958 17.364 32.7682 17.3641 33.1733C17.3643 33.6708 17.3424 33.9409 17.2818 34.1897C17.2364 34.376 17.1554 34.6911 17.1018 34.8899C17.0483 35.0886 16.9346 35.4342 16.8493 35.6578C16.7639 35.8814 16.6178 36.2266 16.5246 36.4249C16.4315 36.6232 16.3016 36.8874 16.2362 37.0121C16.1707 37.1368 16.0381 37.3811 15.9416 37.555C15.8451 37.7289 15.7187 37.9525 15.6607 38.0519C15.6027 38.1513 15.5215 38.2916 15.4802 38.3638C15.4389 38.436 15.3099 38.6393 15.1935 38.8155C15.0772 38.9918 14.954 39.1868 14.9199 39.2489C14.8858 39.311 14.8307 39.3923 14.7975 39.4296C14.7644 39.4669 14.6906 39.5887 14.6336 39.7003C14.567 39.8306 14.5299 39.9843 14.5299 40.1305C14.5299 40.2555 14.5644 40.4235 14.6066 40.5038C14.6488 40.5841 14.7649 40.7005 14.8646 40.7625C14.9724 40.8295 15.1139 40.8752 15.2135 40.8752C15.3057 40.8752 15.4661 40.8512 15.57 40.8218C15.6738 40.7925 15.8119 40.7327 15.8767 40.689C15.9416 40.6453 16.0226 40.6033 16.0567 40.5956C16.0908 40.5878 16.1908 40.5163 16.2789 40.4367C16.367 40.357 16.4595 40.3042 16.4845 40.3194C16.5095 40.3346 16.5166 40.3258 16.5002 40.2996C16.4838 40.2736 16.5064 40.2367 16.5505 40.2178C16.5945 40.1988 16.6475 40.187 16.6683 40.1916C16.6891 40.1961 16.6948 40.1818 16.681 40.1599C16.6672 40.1379 16.8154 39.9661 17.0102 39.7782C17.2051 39.5903 17.421 39.3739 17.4901 39.2974C17.5592 39.2209 17.7958 38.9195 18.0161 38.6277C18.2363 38.3359 18.4296 38.0869 18.4456 38.0745C18.4617 38.0621 18.5738 37.869 18.6947 37.6454C18.8157 37.4218 18.9401 37.2083 18.9712 37.1711C19.0023 37.1338 19.1011 36.9508 19.1907 36.7645C19.2803 36.5782 19.4398 36.2326 19.5452 35.9966C19.6506 35.7606 19.7985 35.4048 19.8739 35.2061C19.9494 35.0073 20.2862 34.0316 20.6224 33.0378C20.9586 32.044 21.3055 31.0378 21.3933 30.8018C21.4812 30.5657 21.5786 30.3116 21.61 30.2371C21.6413 30.1626 21.695 30.0375 21.7293 29.9593C21.7636 29.881 21.7917 29.8036 21.7917 29.7873C21.7917 29.7711 21.8874 29.5404 22.0045 29.2747C22.1216 29.009 22.2683 28.6949 22.3307 28.5766C22.393 28.4584 22.4627 28.3503 22.4856 28.3363C22.5084 28.3224 22.5171 28.295 22.5048 28.2754C22.4925 28.2558 22.587 28.0387 22.7147 27.7929C22.8425 27.5472 23.0146 27.2241 23.0973 27.075C23.18 26.926 23.2993 26.7125 23.3624 26.6007C23.4256 26.4889 23.5833 26.2177 23.7129 25.998C23.8425 25.7784 24.0258 25.4876 24.1202 25.3519C24.2147 25.2161 24.3314 25.0401 24.3795 24.9607C24.4277 24.8813 24.5601 24.6741 24.6737 24.5002C24.7874 24.3263 24.8976 24.1772 24.9188 24.169C24.9399 24.1607 24.9572 24.1296 24.9572 24.0999C24.9572 24.0702 24.9985 24.0166 25.0489 23.9807C25.0994 23.9449 25.1407 23.8937 25.1407 23.867C25.1407 23.8403 25.1719 23.7787 25.2101 23.7302C25.2482 23.6817 25.3703 23.5204 25.4815 23.3718C25.5927 23.2232 25.6738 23.086 25.6618 23.0669C25.6497 23.0478 25.5431 23.0356 25.4247 23.0397C25.3063 23.0439 25.1269 23.0548 25.026 23.064ZM26.2199 23.3984C26.2371 23.4757 26.34 23.7958 26.4486 24.1099C26.5572 24.424 26.7179 24.874 26.8058 25.11C26.8936 25.3461 27.0413 25.712 27.1339 25.9231C27.2265 26.1343 27.3873 26.5002 27.4912 26.7363C27.5951 26.9723 27.9306 27.6532 28.2367 28.2495C28.5427 28.8458 28.9851 29.6525 29.2197 30.0423C29.4544 30.4321 29.6424 30.7652 29.6376 30.7826C29.6327 30.8 29.6484 30.8267 29.6725 30.8419C29.6965 30.8571 29.964 31.2354 30.267 31.6826C30.5701 32.1298 30.9634 32.6888 31.1411 32.9249C31.3189 33.1609 31.5537 33.4658 31.6629 33.6024C31.772 33.7391 32.0251 34.044 32.2253 34.28C32.4255 34.5161 32.6714 34.8006 32.7718 34.9124C32.8721 35.0242 33.2039 35.3777 33.509 35.6979C33.8141 36.018 34.3322 36.5163 34.6602 36.8053C34.9882 37.0942 35.3805 37.4335 35.5319 37.5594C35.6833 37.6852 35.9867 37.9187 36.2063 38.0782C36.4259 38.2376 36.7046 38.4351 36.8256 38.517C36.9467 38.5988 37.2093 38.7688 37.4091 38.8946C37.6089 39.0205 38.0012 39.2407 38.2807 39.384C38.5603 39.5272 39.0409 39.728 39.3485 39.8302C39.6673 39.936 40.0467 40.0285 40.2309 40.0454C40.4809 40.0682 40.6004 40.0574 40.7598 39.9975C40.8731 39.9549 41.0171 39.8599 41.0799 39.7865C41.1427 39.713 41.2079 39.5804 41.2248 39.4917C41.2416 39.4031 41.2317 39.2525 41.2026 39.157C41.1736 39.0615 41.0728 38.9042 40.9788 38.8075C40.8847 38.7108 40.5703 38.4514 40.2801 38.2312C39.99 38.011 39.7319 37.8145 39.7067 37.7946C39.6814 37.7747 39.3304 37.5094 38.9266 37.205C38.5229 36.9006 38.1203 36.5918 38.032 36.5187C37.9438 36.4455 37.6204 36.1376 37.3135 35.8342C36.9055 35.431 36.6603 35.1402 36.4019 34.7533C36.2074 34.4622 35.977 34.0719 35.8898 33.8861C35.8026 33.7002 35.672 33.3711 35.5995 33.1546C35.5271 32.9381 35.4463 32.6302 35.4199 32.4702C35.3935 32.3103 35.3718 32.0311 35.3717 31.8496C35.3714 31.6682 35.4045 31.3735 35.4452 31.1946C35.4858 31.0158 35.5923 30.7308 35.6819 30.5614C35.7715 30.3919 35.9371 30.1522 36.0499 30.0286C36.1628 29.9051 36.3832 29.714 36.5398 29.604C36.6964 29.4939 36.9776 29.3325 37.1646 29.2453C37.3516 29.158 37.6652 29.0464 37.8615 28.9971C38.0578 28.9478 38.3984 28.8839 38.6185 28.855C38.8532 28.8242 39.2745 28.8126 39.6379 28.8269C39.9785 28.8403 40.4843 28.885 40.7619 28.9261C41.0394 28.9673 41.6381 29.0903 42.0923 29.1995C42.5465 29.3087 43.0523 29.441 43.2163 29.4935C43.3803 29.546 43.7829 29.6812 44.1109 29.7938C44.4389 29.9065 44.7788 30.0299 44.8663 30.0682C44.9537 30.1064 45.1601 30.1462 45.325 30.1566C45.5607 30.1715 45.6589 30.157 45.7839 30.0889C45.8714 30.0411 45.9821 29.9506 46.0298 29.8876C46.0775 29.8246 46.1275 29.6786 46.1407 29.563C46.1576 29.4152 46.1397 29.2963 46.0803 29.1625C46.0339 29.0579 45.9485 28.9146 45.8904 28.8442C45.8323 28.7738 45.7984 28.6944 45.8151 28.6679C45.8323 28.6404 45.824 28.6326 45.7958 28.6498C45.7685 28.6664 45.6672 28.6076 45.5708 28.5192C45.4744 28.4308 45.2406 28.2515 45.0514 28.1208C44.8621 27.9901 44.5421 27.7904 44.3403 27.6771C44.1384 27.5638 43.9268 27.4568 43.87 27.4394C43.8133 27.422 43.7668 27.391 43.7668 27.3705C43.7668 27.3501 43.7174 27.3211 43.6569 27.3061C43.5965 27.2912 43.3952 27.2102 43.2096 27.1262C43.024 27.0422 42.7277 26.9208 42.5511 26.8565C42.3744 26.7923 42.0132 26.6788 41.7482 26.6045C41.4833 26.5301 41.0704 26.4282 40.8307 26.3779C40.591 26.3277 40.1987 26.2555 39.959 26.2175C39.7193 26.1796 39.1516 26.1076 38.6974 26.0576C38.2432 26.0077 37.5206 25.9367 37.0917 25.8999C36.6627 25.8631 35.9505 25.7934 35.5089 25.7449C35.0674 25.6965 34.437 25.6167 34.1081 25.5676C33.7791 25.5186 33.294 25.4372 33.0299 25.3869C32.7659 25.3365 32.4053 25.2626 32.2287 25.2227C32.0521 25.1827 31.6185 25.0793 31.2653 24.9929C30.912 24.9065 30.2617 24.7234 29.8202 24.5861C29.3786 24.4488 28.6267 24.1936 28.1493 24.0191C27.6719 23.8445 27.1764 23.6561 27.0483 23.6003C26.9201 23.5445 26.8002 23.4945 26.7817 23.4893C26.7633 23.484 26.6337 23.4298 26.4937 23.3688C26.3537 23.3079 26.2277 23.258 26.2138 23.258C26.1999 23.258 26.2026 23.3212 26.2199 23.3984ZM25.639 23.5855C25.5327 23.7408 25.427 23.8802 25.404 23.8955C25.381 23.9106 25.3643 23.9363 25.3669 23.9524C25.3695 23.9685 25.3369 24.0374 25.2946 24.1055C25.2523 24.1735 25.1724 24.3003 25.1169 24.3873C25.0615 24.4742 24.9485 24.6572 24.8659 24.7938C24.7833 24.9305 24.6926 25.0572 24.6644 25.0755C24.6362 25.0937 24.6311 25.109 24.6531 25.1094C24.6751 25.1097 24.6721 25.1355 24.6464 25.1665C24.6208 25.1976 24.5487 25.3145 24.4863 25.4263C24.4239 25.5381 24.2903 25.782 24.1894 25.9683C24.0885 26.1547 23.9013 26.5104 23.7735 26.7588C23.6456 27.0073 23.4243 27.4545 23.2817 27.7526C23.1391 28.0508 22.8713 28.6606 22.6866 29.1078C22.502 29.555 22.2542 30.1847 22.136 30.5071C22.0179 30.8294 21.8185 31.4087 21.693 31.7945C21.5674 32.1801 21.3538 32.9226 21.2182 33.4443C21.0826 33.9661 20.9194 34.6572 20.8554 34.9802C20.7915 35.3032 20.6979 35.8114 20.6474 36.1095C20.5968 36.4076 20.5137 37.0659 20.4625 37.5723C20.3971 38.2192 20.3695 38.8208 20.3695 39.5951C20.3695 40.2641 20.397 40.9584 20.4396 41.3621C20.4782 41.7278 20.5399 42.1999 20.5767 42.411C20.6135 42.6222 20.6967 42.9962 20.7616 43.242C20.8265 43.4878 20.9685 43.874 21.0771 44.1003C21.1858 44.3265 21.3406 44.5995 21.4213 44.707C21.5019 44.8145 21.6383 44.9314 21.7242 44.9668C21.8101 45.0021 21.971 45.031 22.0816 45.031C22.2148 45.031 22.3338 44.9967 22.434 44.9294C22.5171 44.8735 22.6237 44.7566 22.6708 44.6697C22.7512 44.5211 22.7562 44.376 22.7523 42.2755C22.7486 40.2287 22.7561 39.9917 22.8417 39.4748C22.8932 39.1643 22.9996 38.6968 23.0783 38.4359C23.157 38.175 23.3064 37.7786 23.4104 37.555C23.5143 37.3314 23.73 36.952 23.8896 36.7118C24.0749 36.4329 24.3201 36.1443 24.5685 35.9128C24.8418 35.658 25.0657 35.497 25.3223 35.3705C25.5229 35.2717 25.8068 35.1662 25.953 35.1362C26.1169 35.1026 26.3948 35.0913 26.6776 35.1068C27.0017 35.1245 27.2407 35.1672 27.492 35.2522C27.6877 35.3183 28.0231 35.4773 28.2373 35.6054C28.4516 35.7336 28.7647 35.9604 28.933 36.1095C29.1014 36.2586 29.3544 36.5147 29.4953 36.6786C29.6361 36.8426 29.7926 37.0341 29.8431 37.1041C29.8936 37.1742 29.928 37.2535 29.9196 37.2803C29.9111 37.3072 29.9187 37.315 29.9362 37.2977C29.9538 37.2804 30.0381 37.3662 30.1236 37.4886C30.209 37.6109 30.2789 37.7301 30.2789 37.7535C30.2789 37.7768 30.2954 37.8027 30.3156 37.811C30.3359 37.8193 30.4327 37.9683 30.5309 38.1423C30.6291 38.3162 30.8213 38.6821 30.9579 38.9554C31.0946 39.2287 31.2954 39.6657 31.4041 39.9266C31.5128 40.1874 31.6671 40.5838 31.7469 40.8074C31.8267 41.031 31.9637 41.4244 32.0514 41.6814C32.1391 41.9385 32.256 42.2167 32.3111 42.2995C32.3663 42.3824 32.4931 42.5023 32.593 42.5661C32.6929 42.6299 32.8273 42.6819 32.8916 42.6818C32.956 42.6817 33.0843 42.6609 33.1769 42.6356C33.2708 42.6099 33.4071 42.5201 33.4853 42.4323C33.5624 42.3459 33.6619 42.1584 33.7063 42.0156C33.7669 41.8208 33.7866 41.6039 33.7852 41.1462C33.7842 40.7907 33.7498 40.3292 33.7026 40.0395C33.6581 39.7662 33.5693 39.3292 33.5052 39.0683C33.4411 38.8074 33.3268 38.411 33.2511 38.1874C33.1755 37.9638 33.0321 37.5776 32.9325 37.3292C32.8328 37.0807 32.6043 36.603 32.4246 36.2676C32.245 35.9322 31.9885 35.4799 31.8547 35.2625C31.7208 35.0452 31.6264 34.867 31.6447 34.8666C31.6631 34.8662 31.6548 34.851 31.6262 34.8327C31.5977 34.8145 31.3855 34.519 31.1547 34.1762C30.9239 33.8334 30.7463 33.535 30.76 33.5131C30.7738 33.4911 30.7609 33.4585 30.7314 33.4405C30.6949 33.4183 30.6897 33.4282 30.715 33.4712C30.7356 33.5061 30.7407 33.5245 30.7264 33.5121C30.7121 33.4997 30.6262 33.3807 30.5355 33.2478C30.4449 33.1149 30.3707 32.9988 30.3707 32.9898C30.3707 32.9809 30.2577 32.8101 30.1195 32.6104C29.9815 32.4107 29.8834 32.247 29.9016 32.2466C29.9199 32.2462 29.9128 32.231 29.8859 32.2127C29.859 32.1945 29.6823 31.9356 29.4933 31.6374C29.3043 31.3393 29.0786 30.9633 28.9917 30.8018C28.9049 30.6403 28.8219 30.498 28.8073 30.4856C28.7927 30.4731 28.7494 30.402 28.7111 30.3275C28.6728 30.2529 28.482 29.8891 28.2872 29.519C28.0923 29.1489 27.8389 28.6407 27.7242 28.3897C27.6093 28.1387 27.3931 27.6386 27.2436 27.2783C27.0941 26.9181 26.9669 26.5928 26.961 26.5556C26.955 26.5183 26.935 26.4639 26.9164 26.4346C26.8979 26.4054 26.7818 26.0903 26.6585 25.7344C26.5352 25.3786 26.3793 24.9045 26.3121 24.6809C26.2449 24.4573 26.1623 24.193 26.1286 24.0937C26.0948 23.9943 26.0312 23.7757 25.9871 23.6081C25.943 23.4404 25.8902 23.3032 25.8696 23.3032C25.8491 23.3032 25.7453 23.4302 25.639 23.5855ZM5.06979 26.4447C5.05695 26.5057 5.03401 26.6114 5.01873 26.6798C5.0035 26.7481 4.98157 26.865 4.97006 26.9395C4.9585 27.0141 4.89794 27.3231 4.83545 27.6263C4.7448 28.0664 4.73287 28.1949 4.77632 28.2633C4.80623 28.3106 4.89867 28.3733 4.98166 28.4029C5.07429 28.4359 5.22201 28.445 5.364 28.4264C5.49127 28.4098 5.61876 28.3685 5.64725 28.3347C5.67941 28.2965 5.70799 27.9662 5.72249 27.4656C5.74143 26.8114 5.73391 26.6507 5.6829 26.6192C5.6483 26.5978 5.50141 26.5248 5.35653 26.457L5.09305 26.3339L5.06979 26.4447ZM40.333 29.448C40.198 29.5207 39.9709 29.6587 39.8283 29.7546C39.6857 29.8504 39.5723 29.9458 39.5764 29.9664C39.5804 29.987 39.7185 30.0747 39.8833 30.1613L40.1828 30.3187L40.4494 30.1625C40.596 30.0765 40.8915 29.9324 41.1059 29.8422C41.3204 29.752 41.594 29.6541 41.7138 29.6248C41.8336 29.5954 41.9317 29.5569 41.9317 29.5392C41.9317 29.5214 41.6995 29.4625 41.4156 29.4082C41.1318 29.354 40.8272 29.311 40.7389 29.3127C40.6506 29.3145 40.4679 29.3753 40.333 29.448ZM46.4033 29.9478C46.3863 30.0006 46.3025 30.12 46.217 30.2132L46.0616 30.3825L46.3477 30.626C46.5051 30.7599 46.6787 30.9203 46.7335 30.9825C46.7884 31.0446 46.9184 31.1869 47.0225 31.2987C47.1266 31.4105 47.3066 31.6515 47.4224 31.8343C47.5383 32.0171 47.7029 32.3295 47.7882 32.5287C47.8736 32.7279 47.9849 33.0458 48.0358 33.2353C48.0866 33.4248 48.1468 33.7706 48.1696 34.0037C48.1949 34.262 48.1942 34.6237 48.1678 34.9297C48.1439 35.2059 48.1057 35.5031 48.0829 35.59C48.06 35.677 48.0084 35.8668 47.9681 36.0117C47.9279 36.1566 47.8005 36.4606 47.6852 36.6871C47.5698 36.9137 47.4007 37.2118 47.3094 37.3496C47.2181 37.4874 46.9455 37.7933 46.7036 38.0293C46.4616 38.2654 46.1949 38.5093 46.1107 38.5714C46.0266 38.6335 45.7732 38.7893 45.5475 38.9176C45.3219 39.046 44.9373 39.2132 44.6929 39.2891C44.4485 39.3651 44.0524 39.4605 43.8127 39.5011C43.5026 39.5536 43.2379 39.5674 42.8951 39.549C42.6302 39.5347 42.2483 39.4919 42.0464 39.4538C41.8446 39.4157 41.6655 39.3845 41.6486 39.3845C41.6317 39.3845 41.6031 39.4505 41.5852 39.5311C41.5672 39.6118 41.5205 39.7437 41.4815 39.8242C41.4425 39.9047 41.4223 39.9822 41.4367 39.9963C41.4511 40.0104 41.687 40.0626 41.961 40.1123C42.3043 40.1746 42.652 40.2023 43.0787 40.2016C43.5001 40.2009 43.8446 40.1726 44.1568 40.1129C44.4091 40.0646 44.7497 39.9801 44.9137 39.9251C45.0777 39.8701 45.3977 39.734 45.6248 39.6227C45.8519 39.5113 46.1616 39.3383 46.313 39.2382C46.4644 39.1381 46.6807 38.9827 46.7937 38.8928C46.9067 38.803 47.0203 38.7363 47.0461 38.7445C47.0718 38.7529 47.0778 38.7447 47.0592 38.7265C47.0407 38.7082 47.1646 38.549 47.3345 38.3726C47.5045 38.1962 47.7392 37.9088 47.8561 37.7338C47.973 37.5589 48.1536 37.2493 48.2574 37.046C48.3612 36.8427 48.4977 36.5252 48.5607 36.3404C48.6237 36.1557 48.7084 35.8553 48.7489 35.6731C48.7895 35.4907 48.8329 35.0468 48.8454 34.6866C48.8622 34.2038 48.8484 33.9133 48.7932 33.5818C48.752 33.3344 48.6562 32.9493 48.5801 32.726C48.5042 32.5026 48.3382 32.1158 48.2114 31.8664C48.0846 31.6169 47.9666 31.4024 47.9493 31.3896C47.932 31.3768 47.8576 31.2749 47.784 31.1631C47.7103 31.0513 47.4385 30.7464 47.18 30.4856C46.9215 30.2247 46.6479 29.9754 46.5721 29.9316C46.4374 29.8536 46.4336 29.854 46.4033 29.9478ZM37.8813 30.1757C37.7605 30.1985 37.554 30.2645 37.4225 30.3224C37.291 30.3803 37.083 30.527 36.9602 30.6486C36.8375 30.7701 36.6863 30.9802 36.6242 31.1156C36.5589 31.258 36.5006 31.4888 36.4857 31.6634C36.4658 31.8964 36.4822 32.0371 36.5574 32.281C36.611 32.4548 36.7389 32.7209 36.8417 32.8723C36.9444 33.0238 37.1459 33.2396 37.2895 33.3518C37.433 33.464 37.6751 33.6162 37.8273 33.6901C37.9796 33.7639 38.2265 33.8558 38.376 33.8941C38.5255 33.9324 38.8043 33.9638 38.9956 33.9638C39.1868 33.9638 39.4648 33.9327 39.6133 33.8946C39.7618 33.8565 39.985 33.7708 40.1092 33.7043C40.2334 33.6377 40.4248 33.485 40.5345 33.3648C40.6442 33.2446 40.7783 33.0305 40.8326 32.8888C40.9145 32.6748 40.9278 32.5625 40.9114 32.2247C40.8982 31.9542 40.8626 31.7577 40.8049 31.6374C40.7572 31.5381 40.6413 31.3425 40.5474 31.2029C40.4534 31.0633 40.2823 30.8673 40.1672 30.7676C40.0521 30.6678 39.8084 30.5135 39.6258 30.4248C39.4432 30.3361 39.1596 30.2325 38.9956 30.1945C38.8316 30.1566 38.5632 30.1275 38.3992 30.1299C38.2352 30.1323 38.0021 30.153 37.8813 30.1757ZM14.1072 31.0264C14.0063 31.0479 13.7792 31.1322 13.6026 31.2138C13.3676 31.3223 13.1887 31.4537 12.9359 31.7031C12.6887 31.947 12.5413 32.1411 12.4176 32.3853C12.3063 32.6053 12.2206 32.8623 12.1767 33.1081C12.1392 33.3179 12.1207 33.5708 12.1356 33.6702C12.1506 33.7696 12.1856 33.9579 12.2134 34.0886C12.2413 34.2193 12.2917 34.3488 12.3254 34.3764C12.3592 34.404 12.3868 34.4461 12.3868 34.4699C12.3868 34.4938 12.4606 34.602 12.5509 34.7104C12.6412 34.8189 12.7908 34.9533 12.8835 35.0092C12.9762 35.0651 13.124 35.1366 13.2119 35.1681C13.2998 35.1995 13.5062 35.2382 13.6707 35.2541C13.8757 35.2739 14.0488 35.2617 14.2219 35.2153C14.3607 35.1781 14.5759 35.11 14.7001 35.0639C14.8244 35.0179 14.978 34.9395 15.0414 34.8899C15.1049 34.8402 15.2768 34.686 15.4233 34.5471C15.5698 34.4084 15.6949 34.2966 15.7013 34.2987C15.7077 34.3009 15.7084 34.2948 15.7028 34.2851C15.6972 34.2755 15.7376 34.2044 15.7923 34.127C15.8472 34.0497 15.9047 33.9762 15.9203 33.9638C15.9359 33.9514 16.0063 33.7888 16.0769 33.6024C16.169 33.359 16.2118 33.148 16.2287 32.8524C16.2471 32.5325 16.2342 32.3869 16.171 32.1974C16.1263 32.0633 16.0409 31.861 15.9814 31.7478C15.9218 31.6345 15.8061 31.4785 15.7242 31.4012C15.6423 31.3239 15.4514 31.2055 15.3 31.1382C15.0911 31.0454 14.9363 31.0124 14.6578 31.0016C14.4559 30.9937 14.2082 31.0049 14.1072 31.0264ZM37.2824 33.9525C37.2678 34.0209 37.2623 34.3417 37.2701 34.6656C37.2779 34.9894 37.3063 35.2948 37.3332 35.3442C37.36 35.3936 37.5393 35.586 37.7316 35.7718C37.9239 35.9575 38.1012 36.1163 38.1255 36.1246C38.1499 36.1329 38.1698 36.1208 38.1698 36.0979C38.1698 36.075 38.1277 35.8954 38.0762 35.6989C38.0185 35.4785 37.9718 35.1124 37.9544 34.7434L37.9263 34.1451L37.6336 33.9867C37.4726 33.8996 37.3336 33.8283 37.3248 33.8283C37.316 33.8283 37.2969 33.8842 37.2824 33.9525ZM8.85429 35.5452C8.74075 35.5644 8.60655 35.5874 8.55609 35.5964C8.50562 35.6053 8.45401 35.6238 8.4414 35.6375C8.42878 35.6512 8.31524 35.7006 8.18907 35.7472C8.06291 35.7938 7.83215 35.9179 7.6763 36.023C7.52046 36.128 7.37778 36.2007 7.35929 36.1844C7.34076 36.168 7.34048 36.1801 7.35865 36.2111C7.37925 36.2464 7.36379 36.2676 7.31741 36.2676C7.27658 36.2676 7.254 36.2849 7.26726 36.306C7.28052 36.3271 7.24561 36.3693 7.18968 36.3997C7.13376 36.4302 6.99829 36.5941 6.88859 36.764C6.7789 36.9339 6.63618 37.1814 6.5714 37.3139C6.50662 37.4465 6.45597 37.5672 6.45886 37.582C6.46171 37.5969 6.43436 37.7189 6.39807 37.8531C6.36183 37.9873 6.33187 38.2597 6.3316 38.4585C6.33132 38.6572 6.36224 38.9804 6.40041 39.1766C6.44152 39.3883 6.53415 39.6528 6.62819 39.8271C6.71532 39.9888 6.77385 40.1414 6.75821 40.1663C6.74257 40.1912 6.74913 40.1998 6.77275 40.1854C6.79638 40.171 6.86666 40.2339 6.92887 40.3252C6.99113 40.4165 7.06806 40.5183 7.09986 40.5513C7.13165 40.5844 7.14399 40.6332 7.12725 40.6599C7.10821 40.6903 7.11862 40.6952 7.15486 40.6731C7.18684 40.6537 7.22616 40.657 7.24226 40.6805C7.25836 40.704 7.38508 40.811 7.52385 40.9182C7.66263 41.0254 7.92468 41.1799 8.10622 41.2615C8.28771 41.343 8.55609 41.4353 8.70262 41.4664C8.84911 41.4975 9.16511 41.5235 9.40482 41.5241C9.66948 41.5247 9.95778 41.4951 10.1389 41.4487C10.3029 41.4067 10.6082 41.288 10.8174 41.1849C11.0665 41.0622 11.2977 40.9023 11.4873 40.7217C11.6465 40.5701 11.851 40.3343 11.9419 40.1976C12.0327 40.061 12.1684 39.7967 12.2434 39.6104C12.3184 39.424 12.3996 39.129 12.4239 38.9548C12.4506 38.763 12.4524 38.4707 12.4283 38.2138C12.4064 37.9805 12.3755 37.747 12.3596 37.6949C12.3437 37.6428 12.271 37.4717 12.1981 37.3147C12.1253 37.1577 12.0657 37.0207 12.0657 37.0103C12.0657 36.9999 11.9739 36.8726 11.8617 36.7273C11.7496 36.5821 11.5748 36.3894 11.4735 36.2993C11.3721 36.2091 11.2006 36.0796 11.0925 36.0114C10.9843 35.9433 10.777 35.8316 10.6317 35.7631C10.4864 35.6947 10.2137 35.6074 10.0258 35.5692C9.83776 35.531 9.54373 35.5021 9.37234 35.505C9.20094 35.5079 8.96784 35.526 8.85429 35.5452ZM25.9014 36.2893C25.7498 36.3507 25.5405 36.4848 25.4275 36.5932C25.3162 36.6998 25.1728 36.8742 25.1088 36.9807C25.0448 37.0872 24.9518 37.3006 24.9022 37.455C24.8392 37.6507 24.8116 37.8656 24.8109 38.1649C24.8104 38.4009 24.8338 38.6956 24.8629 38.8199C24.892 38.9441 24.992 39.1982 25.0852 39.3845C25.1991 39.6124 25.3541 39.8231 25.5585 40.028C25.7621 40.2322 25.9514 40.3724 26.1323 40.4531C26.342 40.5466 26.4962 40.5781 26.8224 40.5941C27.1966 40.6123 27.2695 40.6025 27.4879 40.504C27.6227 40.4432 27.7595 40.4021 27.7917 40.4127C27.8239 40.4233 27.8445 40.4148 27.8374 40.3938C27.8303 40.3729 27.9102 40.2714 28.0148 40.1683C28.1195 40.0653 28.2591 39.8903 28.3251 39.7794C28.391 39.6686 28.4887 39.4079 28.542 39.2002C28.6167 38.9096 28.6336 38.7388 28.6155 38.4598C28.6025 38.2603 28.5573 37.9809 28.5151 37.8389C28.4728 37.6969 28.3859 37.4834 28.3218 37.3646C28.2578 37.2457 28.1197 37.0449 28.0149 36.9182C27.9102 36.7916 27.7371 36.6218 27.6302 36.5408C27.5233 36.4598 27.3169 36.3454 27.1714 36.2865C26.9688 36.2045 26.8211 36.1794 26.5399 36.1794C26.2561 36.1794 26.1114 36.2043 25.9014 36.2893ZM19.2103 41.4511C19.1705 41.4946 19.1237 41.5863 19.1064 41.6547C19.0794 41.7612 19.1018 41.8039 19.26 41.9483C19.3618 42.0414 19.5035 42.1627 19.5747 42.2181C19.6459 42.2735 19.8145 42.3919 19.9492 42.4813C20.0839 42.5708 20.2061 42.6321 20.2209 42.6176C20.2355 42.6031 20.2234 42.462 20.1938 42.3039C20.1642 42.1459 20.1401 41.9631 20.1401 41.8976C20.1401 41.804 20.0799 41.7348 19.8598 41.5753C19.6638 41.4332 19.5348 41.3721 19.431 41.3721C19.3478 41.3721 19.2508 41.4068 19.2103 41.4511ZM31.4739 43.8806C31.3868 43.9668 31.2907 44.1237 31.2604 44.2293C31.2301 44.3348 31.174 44.5229 31.1356 44.6471C31.0973 44.7713 31.0292 44.994 30.9845 45.142C30.9242 45.341 30.8526 45.4586 30.7094 45.5938C30.603 45.6942 30.5016 45.8323 30.4841 45.9006C30.4667 45.969 30.4659 46.0774 30.4823 46.1416C30.4986 46.2058 30.5645 46.3063 30.6286 46.3648C30.6928 46.4233 30.79 46.4779 30.8447 46.486C30.8994 46.4942 30.9933 46.4925 31.0533 46.4823C31.1134 46.4721 31.2566 46.375 31.3716 46.2666C31.5579 46.0908 31.6534 46.0465 32.2488 45.8594C32.7949 45.6879 32.9483 45.6202 33.0889 45.4892C33.1835 45.4011 33.2609 45.3142 33.2609 45.2962C33.2609 45.2782 33.1784 45.2276 33.0775 45.1838C32.9766 45.1399 32.9095 45.0927 32.9284 45.0787C32.9473 45.0648 33.0091 44.9683 33.0657 44.8643L33.1687 44.6751L32.9571 44.6439L32.7455 44.6127L32.7735 44.4112L32.8015 44.2099L32.5849 44.2252L32.3684 44.2405L32.3401 44.0706C32.3245 43.9772 32.3009 43.89 32.2875 43.8768C32.2741 43.8637 32.1832 43.8985 32.0854 43.9544C31.9876 44.0102 31.8901 44.0771 31.8688 44.103C31.8457 44.1312 31.8403 44.1189 31.8554 44.0726C31.8693 44.0299 31.8596 43.9822 31.8339 43.9666C31.8082 43.9509 31.7684 43.8893 31.7453 43.8296C31.7223 43.7699 31.6874 43.7217 31.6679 43.7225C31.6483 43.7233 31.561 43.7945 31.4739 43.8806ZM23.148 44.047C23.138 44.0789 23.1192 44.2495 23.1062 44.426L23.0826 44.747L23.4153 44.9883L23.748 45.2296L23.8746 45.774C23.9442 46.0734 24.0427 46.5014 24.0934 46.725C24.1441 46.9486 24.2264 47.2942 24.2763 47.4929C24.3262 47.6917 24.4533 48.014 24.5587 48.2091C24.6642 48.4042 24.8611 48.6841 24.9962 48.8311C25.1313 48.9781 25.363 49.1902 25.5111 49.3024C25.6592 49.4147 25.9025 49.5661 26.0518 49.639C26.201 49.7119 26.5032 49.823 26.7234 49.8858C27.0224 49.9711 27.2304 50 27.5457 50C27.8227 50 28.093 49.9681 28.332 49.9072C28.5745 49.8455 28.7965 49.7493 28.9963 49.6195C29.1614 49.5122 29.3575 49.361 29.4322 49.2833C29.5068 49.2057 29.6456 49.0158 29.7407 48.8613C29.8358 48.7069 29.939 48.4984 29.9701 48.3981C30.003 48.2919 30.0251 47.9798 30.0231 47.651C30.0199 47.1517 30.0051 47.0484 29.8945 46.7582C29.8257 46.5776 29.6935 46.3043 29.6006 46.1508C29.5078 45.9974 29.3204 45.7533 29.1843 45.6086C29.0482 45.4638 28.7691 45.2359 28.5642 45.1021C28.3592 44.9683 28.0606 44.8068 27.9006 44.7432C27.7406 44.6796 27.4342 44.5932 27.2196 44.5512C26.8693 44.4827 26.7539 44.4809 26.0883 44.5337C25.6807 44.566 25.0856 44.6152 24.766 44.6429C24.2679 44.6862 24.1697 44.6837 24.0779 44.6258C24.019 44.5887 23.9605 44.5477 23.9479 44.5349C23.9353 44.5221 23.8217 44.4415 23.6956 44.3558C23.5694 44.2701 23.4558 44.1883 23.4432 44.174C23.4306 44.1598 23.3631 44.1123 23.2933 44.0685C23.1964 44.0078 23.162 44.0027 23.148 44.047ZM27.2542 45.2413C27.4272 45.2824 27.5612 45.3282 27.5519 45.343C27.5427 45.3577 27.5835 45.3727 27.6426 45.3762C27.7017 45.3797 27.8765 45.4581 28.0309 45.5505C28.1855 45.6429 28.4354 45.8312 28.5865 45.9689C28.744 46.1125 28.8511 46.2451 28.8376 46.2797C28.8248 46.3128 28.8367 46.3351 28.8643 46.3292C28.8919 46.3233 28.9739 46.4163 29.0464 46.5358C29.1191 46.6553 29.2232 46.889 29.2779 47.0553C29.346 47.2617 29.3765 47.4647 29.3744 47.6962C29.3723 47.933 29.34 48.1165 29.2671 48.3057C29.1929 48.4986 29.0892 48.6487 28.9066 48.8278C28.7241 49.0067 28.5644 49.1128 28.3521 49.196C28.1881 49.2603 27.9197 49.3265 27.7557 49.3432C27.5516 49.3639 27.3488 49.3508 27.1134 49.3019C26.9242 49.2626 26.6029 49.1522 26.3994 49.0567C26.1149 48.9231 25.9448 48.8007 25.6627 48.5267C25.4059 48.2774 25.2467 48.0756 25.1321 47.8543C25.042 47.6804 24.9427 47.4294 24.9113 47.2966C24.8789 47.1597 24.8631 46.9025 24.8748 46.7031C24.89 46.4449 24.9276 46.2866 25.016 46.1089C25.0822 45.9757 25.2251 45.7821 25.3335 45.6787C25.442 45.5752 25.6277 45.4379 25.7464 45.3735C25.8651 45.3091 26.0406 45.2382 26.1364 45.216C26.2321 45.1938 26.4521 45.1736 26.6251 45.1711C26.7981 45.1686 27.0812 45.2002 27.2542 45.2413Z" fill="#0086FF"/>
</svg>
