<svg width="50" height="50" fill="none" xmlns="http://www.w3.org/2000/svg"><path d="M20.395 35.354c-1.192.434-2.13.836-2.34 1.005a2.716 2.716 0 0 0-.575.703c-.218.406-.228.537-.258 3.412l-.032 2.99h2.83v-1.239c0-1.165.014-1.252.233-1.457.128-.12.35-.218.492-.218.142 0 .366.086.496.192l.238.192.028 4.532.028 4.532 4.55-.026 4.549-.026.026-4.49.026-4.492.264-.207c.146-.114.373-.207.507-.207.133 0 .353.11.49.246.234.235.246.306.246 1.457v1.21h2.716l-.002-2.939c-.002-2.626-.021-2.982-.185-3.34-.101-.222-.36-.562-.577-.757-.314-.283-.808-.5-2.477-1.088-1.146-.404-2.124-.71-2.174-.678-.05.03-.12.2-.156.377-.036.177-.208.545-.384.819a4.33 4.33 0 0 1-.801.877 3.95 3.95 0 0 1-1 .553c-.38.126-.734.16-1.335.126-.59-.032-.943-.109-1.268-.276a7.17 7.17 0 0 1-.744-.444c-.162-.118-.468-.479-.68-.803-.212-.325-.414-.743-.449-.93-.035-.187-.115-.337-.178-.334-.063.002-1.01.33-2.104.728Z" fill="#0069B7"/><path d="m34.491 26.545-.972.554-.156.693c-.087.381-.255.885-.374 1.119-.12.234-.8 1.295-1.51 2.36-.712 1.063-1.261 1.953-1.22 1.977.04.025.933.348 1.984.718 1.052.37 2.096.779 2.32.908.225.13.602.445.84.702.236.256.55.723.698 1.037l.267.57.028 6.406.028 6.407h8.042v-4.912l-.51-1.036c-.494-1.005-.509-1.059-.477-1.792.028-.665.089-.868.508-1.708.262-.524.658-1.292.88-1.707.223-.414.503-1.047.623-1.407.121-.359.275-.902.343-1.206.067-.304.127-.472.133-.374.01.165.155.176 1.997.15l1.987-.027.026-2.696c.017-1.646-.014-2.848-.078-3.086-.058-.214-.25-.58-.429-.812-.263-.343-.806-.695-2.89-1.873a147.009 147.009 0 0 0-2.69-1.502c-.07-.028-.126.015-.126.097 0 .081-.16.468-.357.859-.23.46-.535.872-.86 1.165a5.296 5.296 0 0 1-1.044.707c-.297.14-.848.308-1.227.373-.583.1-.805.091-1.46-.055a4.133 4.133 0 0 1-1.358-.55c-.322-.209-.739-.554-.926-.767a5.195 5.195 0 0 1-.628-.998c-.16-.335-.29-.666-.29-.735 0-.07-.033-.123-.075-.119-.041.004-.512.256-1.047.56Z" fill="#0069B7"/><path fill-rule="evenodd" clip-rule="evenodd" d="M8.15.36a12.763 12.763 0 0 1 1.61-.3c.47-.053 1.39-.075 2.045-.05.655.027 1.515.11 1.912.187.396.077 1.31.33 2.029.565.92.3 1.472.423 1.865.42.306-.003.717-.072.912-.153.196-.082.528-.3.738-.484l.382-.335.204.247c.113.136.375.61.582 1.051.207.443.455 1.158.55 1.59.132.603.16 1.09.124 2.11-.035.973-.104 1.498-.26 1.978a7.71 7.71 0 0 1-.592 1.291c-.208.35-.622.907-.92 1.235-.298.33-.558.582-.578.563-.02-.02-.15-.432-.29-.916-.141-.485-.342-1.047-.446-1.25a2.952 2.952 0 0 0-.494-.658 1.21 1.21 0 0 0-.739-.335c-.355-.04-.5 0-.787.212-.194.142-.692.429-1.107.637-.718.359-.8.377-1.71.37a6.384 6.384 0 0 1-1.745-.228 10.742 10.742 0 0 1-1.535-.59c-.622-.308-.792-.353-1.022-.272-.2.07-.388.306-.689.865-.227.423-.574.987-.77 1.254a7.265 7.265 0 0 1-.663.774l-.303.29-.52-.541a7.805 7.805 0 0 1-.905-1.193 8.575 8.575 0 0 1-.609-1.307c-.162-.472-.236-.975-.27-1.818-.037-.906-.009-1.296.125-1.758.094-.327.29-.813.434-1.08.145-.266.526-.728.847-1.025.32-.296.867-.675 1.213-.84C7.114.701 7.736.474 8.15.36Zm28.62 3.965c.277-.095.775-.232 1.107-.306.332-.073 1.115-.137 1.74-.141.667-.005 1.456.057 1.911.15a9.72 9.72 0 0 1 1.562.494c.433.185 1.04.487 1.347.671.309.184.92.67 1.359 1.08.439.411.993 1.022 1.232 1.357.238.337.574.892.746 1.235.172.343.437 1.02.588 1.507l.275.884.032 6.157.033 6.157-2.394-.027-2.395-.027-.028-.934-.03-.934.456-.52c.25-.286.616-.844.811-1.24.196-.395.422-1.03.503-1.41.093-.438.147-1.282.148-2.31.001-1.458-.018-1.644-.196-1.87-.145-.183-.367-.284-.83-.375a18.638 18.638 0 0 1-1.688-.469 19.589 19.589 0 0 1-2.084-.844c-.733-.356-1.216-.676-1.684-1.113-.464-.433-.751-.81-.978-1.281-.177-.368-.412-.77-.522-.894a.695.695 0 0 0-.49-.226.75.75 0 0 0-.51.236c-.122.13-.376.513-.564.852-.188.338-.699.988-1.135 1.443-.444.465-.9 1.056-1.037 1.346a5.85 5.85 0 0 0-.347.957c-.056.243-.102 1.21-.102 2.15 0 1.12.05 1.948.146 2.403.081.382.277.97.435 1.307.157.337.498.871.756 1.188l.47.576v2.012h-2.196l.141-.527c.077-.29.141-.937.142-1.436 0-.5-.068-1.175-.153-1.5a6.048 6.048 0 0 0-.427-1.101c-.15-.28-.525-.765-.832-1.076-.307-.31-.752-.664-.989-.785l-.431-.22.042-2.832c.034-2.309.075-2.954.22-3.486.099-.36.35-1.02.558-1.47.208-.448.56-1.08.782-1.406a10.52 10.52 0 0 1 1.043-1.23c.353-.352.89-.81 1.194-1.017.304-.207.825-.513 1.157-.68.332-.167.83-.38 1.107-.475ZM14.542 9.744c.33-.086.917-.331 1.304-.545.387-.214.736-.392.775-.397.04-.004.183.345.32.775.135.43.437 1.706.67 2.833.369 1.785.417 2.161.37 2.91-.03.484-.148 1.124-.268 1.463a6.311 6.311 0 0 1-.575 1.149c-.2.3-.584.758-.855 1.017-.27.26-.751.61-1.068.777a7.468 7.468 0 0 1-1.18.48c-.34.098-.954.176-1.408.178-.443.001-1.054-.057-1.358-.13-.305-.073-.869-.29-1.254-.482a5.42 5.42 0 0 1-1.32-.97c-.364-.362-.757-.888-.95-1.268a8.165 8.165 0 0 1-.474-1.153c-.09-.316-.164-1.211-.199-2.42l-.054-1.916.742-.746c.409-.41.944-1.063 1.19-1.45s.461-.722.478-.745c.017-.024.381.078.81.227.428.148 1.134.337 1.568.419.433.082 1.092.15 1.462.15.371 0 .944-.07 1.274-.156ZM4.57 11.012c.135-.127.396-.266.58-.31.183-.043.378-.082.433-.087.056-.005.2.017.323.05.217.058.215.064-.076.31l-.297.249L5.53 13.5l-.004 2.277-.353-.399c-.193-.219-.49-.68-.66-1.023-.244-.495-.319-.8-.36-1.46-.028-.472-.002-1.014.06-1.244.062-.225.222-.513.358-.64Zm14.284-.125c-.034-.116.022-.184.18-.217a2.56 2.56 0 0 1 .62-.005c.213.025.522.114.686.199.165.085.361.302.437.482.075.181.167.551.203.823.036.272.016.766-.045 1.097-.06.332-.243.874-.406 1.206-.163.332-.457.759-.654.95l-.358.345v-.869c0-.577-.103-1.37-.306-2.356a56.541 56.541 0 0 0-.357-1.655Zm17.512 1.595c.416-.452.757-.856.757-.898 0-.042.037-.077.082-.077.046 0 .34.291.655.646.314.356.9.867 1.303 1.136.403.268 1.224.704 1.826.967.601.263 1.585.621 2.185.795l1.092.317v1.164c0 .721-.06 1.389-.155 1.755a5.925 5.925 0 0 1-.427 1.097c-.15.278-.508.738-.796 1.021a5.344 5.344 0 0 1-1.157.828c-.35.171-.95.362-1.336.424a3.81 3.81 0 0 1-1.373-.002 5.734 5.734 0 0 1-1.26-.394 5.433 5.433 0 0 1-1.055-.694 5.351 5.351 0 0 1-.79-.918 5.523 5.523 0 0 1-.515-1.116c-.159-.51-.19-.925-.188-2.487.001-1.645.026-1.929.199-2.31.108-.238.537-.803.953-1.255ZM24.03 18.087c.517-.136 1.286-.29 1.71-.342.424-.052 1.19-.072 1.704-.045.513.027 1.192.116 1.509.196.316.08.856.283 1.199.45.374.181.785.486 1.027.762.223.252.497.704.61 1.004.148.399.203.784.202 1.422-.002.657-.061 1.042-.237 1.54-.129.365-.372.862-.54 1.105a4.6 4.6 0 0 1-.528.643l-.224.2-.436-.48a5.379 5.379 0 0 1-.707-1.034c-.15-.304-.365-.62-.48-.7-.116-.08-.285-.147-.376-.147-.09 0-.454.13-.807.29-.354.158-.883.34-1.176.401a5.88 5.88 0 0 1-1.006.112 3.77 3.77 0 0 1-.832-.1c-.198-.055-.582-.258-.855-.451-.303-.215-.613-.352-.798-.352-.166 0-.442.085-.612.19-.176.106-.407.392-.532.657a5.804 5.804 0 0 0-.335.967c-.063.273-.147.497-.187.497-.039 0-.24-.187-.446-.415a5.015 5.015 0 0 1-.664-1.03 5.947 5.947 0 0 1-.391-1.157 7.403 7.403 0 0 1-.101-1.155c0-.338.069-.9.151-1.25.083-.35.266-.87.407-1.156.141-.286.32-.605.397-.709.136-.182.151-.18.452.073a2.4 2.4 0 0 0 .717.383c.318.095.498.095.825 0 .231-.067.843-.233 1.36-.369ZM9.997 23.823c-.197-.422-.237-.671-.237-1.48l-.001-.972.56.197c.309.108.924.248 1.367.31.607.086 1.025.085 1.691-.003.487-.065 1.073-.184 1.303-.265.373-.132.426-.131.479.006.032.085.027.5-.01.922-.04.423-.165.987-.28 1.254a2.88 2.88 0 0 1-.653.876c-.245.215-.654.462-.91.549a3.316 3.316 0 0 1-.881.158c-.23 0-.624-.07-.876-.156a3.282 3.282 0 0 1-.887-.522 3.093 3.093 0 0 1-.665-.874Zm27.23 2.092c-.169-.451-.205-.785-.205-1.9 0-.744.021-1.353.047-1.353.025 0 .263.085.528.189.265.103.814.244 1.22.312a5.801 5.801 0 0 0 1.409.054 8.025 8.025 0 0 0 1.4-.312c.403-.134.76-.243.793-.243.034 0 .042.649.018 1.441-.04 1.32-.067 1.489-.32 2.005-.152.31-.421.687-.598.836-.177.15-.526.363-.774.474-.298.133-.66.2-1.057.198-.332-.003-.77-.075-.975-.16-.204-.086-.576-.345-.826-.575a2.494 2.494 0 0 1-.66-.966Zm-14.862.58c.196-.426.436-1.079.535-1.45.1-.371.2-.675.225-.675.025 0 .28.111.566.247.287.135.797.29 1.135.345a4.56 4.56 0 0 0 1.3.003 9.296 9.296 0 0 0 1.188-.25c.276-.086.554-.177.617-.204.062-.027.321.242.575.598.255.355.672.83.928 1.055l.465.41-.041 1.385c-.034 1.138-.082 1.49-.27 1.967-.14.357-.436.805-.765 1.16-.302.325-.777.7-1.084.856a5.068 5.068 0 0 1-1.213.386c-.49.081-.816.08-1.237-.004a6.096 6.096 0 0 1-1.108-.36c-.295-.135-.755-.463-1.022-.73a4.892 4.892 0 0 1-.78-1.087c-.263-.536-.3-.725-.332-1.738-.036-1.123-.032-1.147.318-1.913Zm-2.484-.209c.04-.263.162-.541.3-.678a.797.797 0 0 1 .596-.233c.326 0 .356.022.294.217-.038.12-.2.493-.358.83-.237.5-.291.75-.295 1.365l-.004.754-.2-.378a3.896 3.896 0 0 1-.3-.904 3.517 3.517 0 0 1-.033-.973Zm11.53.848c-.026-1.32-.041-1.418-.251-1.58l-.224-.174.267-.002c.18-.002.357.103.538.318.252.298.268.374.232 1.08-.028.545-.11.902-.287 1.262l-.247.503-.028-1.407Zm-5.053 6.745c.36-.033.858-.12 1.107-.192l.453-.132.032.349c.018.192-.042.543-.133.78-.09.236-.319.566-.508.732a2.3 2.3 0 0 1-.77.416c-.234.063-.572.09-.75.061a3.12 3.12 0 0 1-.689-.224 1.88 1.88 0 0 1-.595-.485 2.84 2.84 0 0 1-.346-.654 2.441 2.441 0 0 1-.115-.639c0-.273.022-.292.274-.228.151.037.525.115.83.172.306.057.85.077 1.21.044Zm19.668 16.067L46 43.74l-.026-6.205H50V50l-1.987-.027-1.987-.027ZM.101 50V37.736h4.025L4.1 43.84l-.026 6.105-1.986.027L.1 50Zm17.126-2.414c-.015-1.298-.005-2.418.023-2.49.038-.1.362-.124 1.385-.103l1.335.028v4.925h-2.716l-.027-2.36Zm14.966 2.41V44.97h2.716v5.025h-2.716Z" fill="#0086FF"/><path d="M4.863 24.469c-1.669.594-3.196 1.18-3.393 1.302-.198.122-.52.409-.716.637-.212.247-.437.677-.555 1.059-.184.595-.199.943-.199 4.652v4.009h4.125v-1.791c0-1.743.006-1.798.233-2.01a.876.876 0 0 1 .51-.219c.151 0 .359.045.46.099.101.054.234.241.295.416.078.223.111 2.88.111 8.846v8.527h9.954l.028-6.457.029-6.456.292-.578c.162-.318.497-.785.746-1.037.25-.252.66-.563.915-.69.253-.127.63-.285.838-.352l.377-.123v-.85c0-.77.024-.875.247-1.098a.8.8 0 0 1 .597-.247c.257 0 .404.07.558.265.152.193.208.41.208.803v.54l.515-.196c.282-.107.534-.215.559-.24.025-.025-.586-.994-1.357-2.153-.772-1.159-1.507-2.373-1.636-2.699-.191-.486-.233-.786-.237-1.696-.005-.992.022-1.164.263-1.678.147-.315.245-.656.218-.76-.034-.133-.358-.3-1.106-.57-.582-.211-1.09-.344-1.131-.296-.041.049-.152.344-.246.656-.095.312-.356.816-.581 1.12-.226.304-.609.695-.851.869a5.965 5.965 0 0 1-.872.507 5.28 5.28 0 0 1-1.059.29 3.95 3.95 0 0 1-1.257.002 5.428 5.428 0 0 1-1.157-.34c-.29-.133-.771-.471-1.069-.752a5.118 5.118 0 0 1-.846-1.086c-.168-.316-.337-.744-.376-.952-.049-.261-.12-.373-.235-.365-.09.006-1.53.498-3.199 1.092Z" fill="#0069B7"/></svg>