<svg width="50" height="50" fill="none" xmlns="http://www.w3.org/2000/svg"><path fill-rule="evenodd" clip-rule="evenodd" d="M9.759.06c-.47.052-1.195.187-1.609.3-.414.114-1.036.341-1.383.506-.346.165-.892.544-1.213.84-.321.297-.702.759-.847 1.026a6.53 6.53 0 0 0-.434 1.079c-.134.462-.162.852-.125 1.758.034.843.108 1.346.27 1.818.123.36.397.947.61 1.307.211.359.619.896.904 1.193l.52.54.303-.289c.168-.159.465-.507.662-.774s.544-.831.771-1.254c.301-.56.489-.795.69-.865.23-.08.399-.036 1.021.272.41.202 1.102.468 1.536.59a6.384 6.384 0 0 0 1.744.228c.91.007.992-.011 1.71-.37.415-.208.913-.495 1.107-.637.288-.213.432-.251.787-.212.298.032.531.138.739.335.167.158.389.454.494.658.104.203.305.765.445 1.25.14.484.272.896.291.915.02.02.28-.233.578-.562.298-.328.712-.884.92-1.235a7.77 7.77 0 0 0 .592-1.29c.156-.48.225-1.006.26-1.98.037-1.019.008-1.506-.125-2.11a9.162 9.162 0 0 0-.549-1.589c-.207-.442-.47-.915-.582-1.05L19.642.21l-.382.335a3.33 3.33 0 0 1-.738.484c-.195.081-.606.15-.912.153-.393.003-.944-.12-1.865-.42-.72-.234-1.633-.488-2.03-.565-.396-.076-1.256-.16-1.91-.186-.656-.026-1.576-.004-2.046.048Zm28.118 3.96c-.332.073-.83.21-1.106.305-.277.094-.775.308-1.107.475-.332.167-.853.473-1.157.68-.304.207-.841.665-1.194 1.016-.352.352-.821.906-1.044 1.231-.221.325-.573.958-.781 1.407-.208.449-.46 1.11-.558 1.469-.145.532-.186 1.177-.22 3.486l-.042 2.833.431.22c.237.12.682.473.99.784.306.311.68.795.83 1.076.15.28.343.776.428 1.1.085.326.154 1.001.153 1.5 0 .5-.065 1.147-.142 1.437l-.14.527h2.194v-2.012l-.47-.576a6.934 6.934 0 0 1-.756-1.188 7.286 7.286 0 0 1-.435-1.307c-.096-.455-.147-1.284-.146-2.403 0-.94.046-1.907.102-2.15a5.76 5.76 0 0 1 .347-.957c.137-.29.593-.881 1.037-1.346.436-.456.947-1.105 1.135-1.443.188-.339.442-.722.564-.852a.75.75 0 0 1 .51-.236c.174 0 .37.09.49.226.11.124.345.526.522.894.227.471.514.848.977 1.28.469.438.952.758 1.684 1.114.566.275 1.504.655 2.085.845.582.189 1.342.4 1.689.468.462.09.684.192.829.375.178.226.197.412.196 1.87-.001 1.029-.055 1.872-.148 2.31a7.254 7.254 0 0 1-.503 1.41c-.195.396-.56.954-.81 1.24l-.456.52.029.934.029.934 2.394.027 2.394.027-.032-6.157-.033-6.157-.275-.884a12.186 12.186 0 0 0-.588-1.507 11.49 11.49 0 0 0-.746-1.235c-.239-.335-.793-.946-1.232-1.356-.439-.41-1.05-.897-1.359-1.08a13.866 13.866 0 0 0-1.347-.672 9.72 9.72 0 0 0-1.562-.495c-.455-.092-1.244-.154-1.911-.15-.625.005-1.408.069-1.74.142ZM15.845 9.198c-.387.214-.974.459-1.304.545-.33.085-.903.155-1.274.155-.37 0-1.029-.067-1.462-.149-.434-.082-1.14-.27-1.568-.42-.429-.148-.793-.25-.81-.226-.017.023-.232.358-.478.745-.246.387-.781 1.04-1.19 1.45l-.742.746.054 1.917c.035 1.208.108 2.103.2 2.42.079.276.292.794.473 1.151.193.381.586.907.95 1.27.387.387.882.75 1.32.969.385.193.95.41 1.254.482.304.073.915.131 1.358.13.454-.002 1.067-.08 1.408-.178a7.468 7.468 0 0 0 1.18-.48 5.777 5.777 0 0 0 1.068-.777c.27-.259.655-.717.855-1.017.2-.3.458-.817.575-1.149.12-.34.237-.979.268-1.463.047-.749-.001-1.125-.37-2.91-.233-1.127-.535-2.402-.67-2.833-.137-.43-.28-.78-.32-.775-.039.005-.388.183-.775.397ZM5.15 10.702a1.512 1.512 0 0 0-.58.31c-.135.127-.295.415-.356.64-.063.23-.09.772-.06 1.243.04.662.115.966.359 1.46.17.344.467.805.66 1.024l.353.4.004-2.278.004-2.277.297-.25c.291-.245.293-.25.076-.309a1.295 1.295 0 0 0-.322-.05 5.125 5.125 0 0 0-.435.087Zm13.886-.032c-.159.033-.215.101-.18.217.027.092.187.837.356 1.655.203.986.306 1.78.306 2.356v.87l.358-.347c.197-.19.491-.617.654-.95.163-.33.346-.873.406-1.205.06-.331.081-.825.045-1.097a3.97 3.97 0 0 0-.203-.822 1.11 1.11 0 0 0-.437-.483 2.377 2.377 0 0 0-.687-.199 2.472 2.472 0 0 0-.618.005Zm18.088.914c0 .042-.34.446-.757.898-.416.451-.845 1.016-.953 1.255-.173.38-.198.664-.2 2.309-.001 1.562.03 1.977.189 2.487.105.336.336.838.514 1.116.179.277.534.69.79.918.257.227.732.54 1.055.694.324.155.891.332 1.261.394a3.81 3.81 0 0 0 1.373.002 5.663 5.663 0 0 0 1.336-.424 5.34 5.34 0 0 0 1.157-.828c.288-.283.645-.743.796-1.02.15-.279.343-.773.427-1.098.096-.366.155-1.034.155-1.755v-1.164l-1.092-.317c-.6-.174-1.584-.532-2.185-.795-.602-.263-1.423-.699-1.826-.967a8.105 8.105 0 0 1-1.303-1.136c-.315-.355-.609-.646-.655-.646-.045 0-.082.035-.082.077ZM25.74 17.746c-.424.052-1.193.206-1.71.342-.517.136-1.129.302-1.36.37-.327.094-.507.094-.825 0a2.4 2.4 0 0 1-.717-.384c-.3-.252-.316-.255-.452-.073a6.403 6.403 0 0 0-.397.71 6.544 6.544 0 0 0-.407 1.155c-.082.35-.15.912-.151 1.25-.001.338.045.858.101 1.155.056.297.232.818.391 1.157.159.338.457.802.664 1.03.206.228.407.415.446.415.04 0 .124-.224.187-.497.063-.274.214-.709.335-.967.125-.265.356-.55.532-.658.17-.104.446-.189.612-.19.185 0 .495.138.798.352.273.194.657.397.855.452.197.055.572.1.832.1s.713-.05 1.006-.112a7.105 7.105 0 0 0 1.176-.402c.353-.159.717-.289.807-.289.091 0 .26.066.375.147.116.08.332.396.481.7.149.304.467.77.707 1.034l.436.48.224-.2a4.6 4.6 0 0 0 .529-.643c.167-.243.41-.74.54-1.105.175-.498.234-.883.236-1.54.001-.638-.053-1.023-.203-1.422a3.892 3.892 0 0 0-.608-1.004 3.581 3.581 0 0 0-1.028-.762 7.685 7.685 0 0 0-1.2-.45c-.316-.08-.995-.169-1.508-.196a11.932 11.932 0 0 0-1.704.045ZM9.76 22.343c.001.809.041 1.058.238 1.48.13.28.43.673.665.874.235.201.634.436.887.522.252.086.646.156.876.156.229 0 .626-.071.881-.158.256-.087.665-.334.91-.549.252-.222.534-.6.653-.876.115-.267.24-.831.28-1.254.037-.422.042-.837.01-.922-.053-.137-.106-.138-.479-.006-.23.08-.816.2-1.303.265-.666.088-1.084.09-1.69.003a8.786 8.786 0 0 1-1.368-.31l-.56-.197v.972Zm27.263 1.672c0 1.115.036 1.449.205 1.9.136.364.357.687.66.966.25.23.622.489.826.574.204.086.643.158.975.16.397.004.759-.064 1.056-.197.25-.111.598-.324.775-.474.177-.15.446-.525.598-.836.253-.516.28-.684.32-2.005.024-.793.016-1.441-.018-1.441-.033 0-.39.11-.792.243a8.025 8.025 0 0 1-1.401.312c-.403.042-.964.02-1.409-.054a7.555 7.555 0 0 1-1.22-.312 5.325 5.325 0 0 0-.528-.189c-.026 0-.047.609-.047 1.353Zm-32.159.454c-1.669.594-3.196 1.18-3.393 1.302-.198.122-.52.409-.716.637-.212.247-.437.677-.555 1.059-.184.595-.199.943-.199 4.652v4.009h4.125v-1.791c0-1.743.006-1.798.233-2.01a.876.876 0 0 1 .51-.219c.151 0 .359.045.46.099.101.054.234.241.295.416.078.223.111 2.88.111 8.846v8.527h9.954l.028-6.457.029-6.456.292-.578c.162-.318.497-.785.746-1.037.25-.252.66-.563.915-.69.253-.127.63-.285.838-.352l.377-.123v-.85c0-.77.024-.875.247-1.098a.8.8 0 0 1 .597-.247c.257 0 .404.07.558.265.152.193.208.41.208.803v.54l.515-.196c.282-.107.534-.215.559-.24.025-.025-.586-.994-1.357-2.153-.772-1.159-1.507-2.373-1.636-2.699-.191-.486-.233-.786-.237-1.696-.005-.992.022-1.164.263-1.678.147-.315.245-.656.218-.76-.034-.133-.358-.3-1.106-.57-.582-.211-1.09-.344-1.131-.296-.041.049-.152.344-.246.656-.095.312-.356.816-.581 1.12-.226.304-.609.695-.851.869a5.965 5.965 0 0 1-.872.507 5.28 5.28 0 0 1-1.059.29 3.95 3.95 0 0 1-1.257.002 5.428 5.428 0 0 1-1.157-.34c-.29-.133-.771-.471-1.069-.752a5.118 5.118 0 0 1-.846-1.086c-.168-.316-.337-.744-.376-.952-.049-.261-.12-.373-.235-.365-.09.006-1.53.498-3.199 1.092Zm18.037.576c-.099.371-.34 1.024-.535 1.45-.35.767-.354.791-.318 1.914.032 1.013.069 1.202.332 1.738.162.331.513.82.78 1.087.267.266.727.595 1.022.73.295.135.793.297 1.108.36.42.084.747.086 1.237.004.366-.06.912-.234 1.213-.386.307-.156.782-.53 1.084-.856.33-.355.625-.803.765-1.16.188-.478.236-.829.27-1.967l.04-1.386-.464-.409a7.503 7.503 0 0 1-.928-1.055c-.254-.356-.513-.625-.575-.598-.063.027-.34.118-.617.203a9.296 9.296 0 0 1-1.189.25c-.44.062-.905.061-1.299-.002a5.09 5.09 0 0 1-1.135-.345 5.673 5.673 0 0 0-.566-.247c-.025 0-.126.304-.225.675Zm-2.72.563c-.137.137-.26.415-.299.678-.037.245-.021.683.034.973.055.29.19.697.3.904l.199.378.004-.754c.004-.616.058-.865.295-1.366.159-.336.32-.71.358-.829.062-.195.032-.217-.294-.217a.797.797 0 0 0-.596.233Zm10.98-.055c.21.163.225.262.251 1.58l.028 1.408.247-.503c.177-.36.259-.717.287-1.262.036-.706.02-.782-.232-1.08-.18-.215-.358-.32-.538-.319l-.267.003.224.173Zm3.331.992-.972.554-.156.693c-.087.381-.255.885-.374 1.119-.12.234-.8 1.295-1.51 2.36-.712 1.063-1.261 1.953-1.22 1.977.04.025.933.348 1.984.718 1.052.37 2.096.779 2.32.908.225.13.602.445.84.702.236.256.55.723.698 1.037l.267.57.028 6.406.028 6.407h8.042v-4.912l-.51-1.036c-.494-1.005-.509-1.059-.477-1.792.028-.665.089-.868.508-1.708.262-.524.658-1.292.88-1.707.223-.414.503-1.047.623-1.407.121-.359.275-.902.343-1.206.067-.304.127-.472.133-.374.01.165.155.176 1.997.15l1.987-.027.026-2.696c.017-1.646-.014-2.848-.078-3.086-.058-.214-.25-.58-.429-.812-.263-.343-.806-.695-2.89-1.873a147.009 147.009 0 0 0-2.69-1.502c-.07-.028-.126.015-.126.097 0 .081-.16.468-.357.859-.23.46-.535.872-.86 1.165a5.296 5.296 0 0 1-1.044.707c-.297.14-.848.308-1.227.373-.583.1-.805.091-1.46-.055a4.133 4.133 0 0 1-1.358-.55c-.322-.209-.739-.554-.926-.767a5.195 5.195 0 0 1-.628-.998c-.16-.335-.29-.666-.29-.735 0-.07-.033-.123-.075-.119-.041.004-.512.256-1.047.56Zm-7.026 7.142c-.25.073-.747.16-1.107.192a5.33 5.33 0 0 1-1.21-.044 20.147 20.147 0 0 1-.83-.172c-.252-.064-.274-.045-.274.228 0 .164.052.451.115.64.063.187.219.481.346.653.128.172.395.39.595.485.2.094.51.196.688.224.18.03.517.002.751-.061a2.3 2.3 0 0 0 .77-.416 2.2 2.2 0 0 0 .508-.733c.09-.236.15-.587.133-.779l-.032-.349-.453.132Zm-7.07 1.667c-1.192.434-2.13.836-2.34 1.005a2.716 2.716 0 0 0-.575.703c-.218.406-.228.537-.258 3.412l-.032 2.99h2.83v-1.239c0-1.165.014-1.252.233-1.457.128-.12.35-.218.492-.218.142 0 .366.086.496.192l.238.192.028 4.532.028 4.532 4.55-.026 4.549-.026.026-4.49.026-4.492.264-.207c.146-.114.373-.207.507-.207.133 0 .353.11.49.246.234.235.246.306.246 1.457v1.21h2.716l-.002-2.939c-.002-2.626-.021-2.982-.185-3.34-.101-.222-.36-.562-.577-.757-.314-.283-.808-.5-2.477-1.088-1.146-.404-2.124-.71-2.174-.678-.05.03-.12.2-.156.377-.036.177-.208.545-.384.819a4.33 4.33 0 0 1-.801.877 3.95 3.95 0 0 1-1 .553c-.38.126-.734.16-1.335.126-.59-.032-.943-.109-1.268-.276a7.17 7.17 0 0 1-.744-.444c-.162-.118-.468-.479-.68-.803-.212-.325-.414-.743-.449-.93-.035-.187-.115-.337-.178-.334-.063.002-1.01.33-2.104.728ZM46 43.74l.026 6.206 1.987.027L50 50V37.535h-4.026L46 43.74Zm-45.9.128V50l1.988-.027 1.986-.027.026-6.105.026-6.105H.101v6.132Zm17.15 1.228c-.028.072-.038 1.192-.023 2.49l.026 2.36h2.717V45.02l-1.335-.028c-1.023-.021-1.347.003-1.385.103Zm14.943 2.388v2.512h2.716V44.97h-2.716v2.513Z" fill="#fff"/></svg>