<svg width="50" height="50" fill="none" xmlns="http://www.w3.org/2000/svg"><path fill-rule="evenodd" clip-rule="evenodd" d="M12.881.043a4.335 4.335 0 0 0-1.164.477 2.09 2.09 0 0 0-.83 1c-.235.56-.263 1.025-.096 1.585.375 1.264 1.556 2.07 2.721 1.857 1.102-.202 1.94-1.042 2.12-2.13.117-.706-.146-1.542-.655-2.08-.548-.578-1.402-.867-2.096-.71Zm1.054.97c.796.391.965.677.92 1.557-.039.76-.304 1.201-.887 1.475-.697.327-1.781.112-2.136-.424-.2-.303-.4-.949-.4-1.29.003-.66.536-1.288 1.303-1.537.336-.11.652-.052 1.2.218ZM24.237 2.97c-.148.025-.691.061-1.208.082-.572.023-1.119.076-1.396.136a10.45 10.45 0 0 1-.725.131c-.721.089-2.375.47-3.302.76a25.602 25.602 0 0 0-10.79 6.717c-2.084 2.189-3.677 4.658-4.744 7.354-.93 2.354-1.706 5.23-1.863 6.92-.03.309-.077.707-.106.884-.067.407-.068 3.102-.002 3.567.028.192.077.626.11.965.245 2.591 1.295 6.088 2.615 8.716.754 1.5 1.465 2.609 2.415 3.762 2.471 3 3.081 3.595 5.29 5.159.451.319 1.003.713 1.228.875.224.162.486.327.582.367.22.09.437.023.516-.161.04-.093.046-3.301.02-10.753l-.036-10.62.13-.67c.172-.885.352-1.5.666-2.273 1.028-2.534 2.976-4.645 5.472-5.927 1.358-.698 2.32-1.024 4-1.354l.645-.127H34.92l1.274-.496c.7-.273 1.318-.497 1.374-.497.12 0 .278.161.278.282 0 .046-.199.636-.443 1.31l-.443 1.224-.012 14.965c-.01 11.96 0 14.99.055 15.098.17.336.556.17 2.32-.995 2.832-1.87 5.358-4.644 7.25-7.96 1.152-2.02 2.198-4.596 2.761-6.804.158-.621.432-2.029.432-2.223 0-.089.051-.454.114-.811.103-.588.114-.855.117-2.822.004-2.345.025-2.085-.32-3.916l-.155-.83a32.342 32.342 0 0 0-.804-3.105c-.425-1.272-1.208-2.982-1.917-4.19-1.822-3.103-3.893-5.517-6.512-7.593-2.646-2.098-6.059-3.747-9.235-4.464-1.014-.228-1.43-.31-1.807-.358a27.14 27.14 0 0 1-.886-.13c-.412-.07-1.531-.142-3.347-.218a4.996 4.996 0 0 0-.778.023Zm1.512.785c.267.055.745.09 1.307.097.724.01.949.032 1.234.122.192.061.53.128.752.148.667.061 1.317.185 1.581.302.137.06.531.158.877.217.379.065.774.171.998.27.204.09.603.22.887.29.332.081.717.23 1.08.416.31.16.682.318.826.353.299.073.6.216.938.448.129.088.45.252.715.365.264.113.642.324.84.469.197.145.532.353.744.463.211.11.526.327.698.482.172.156.494.397.715.536.222.14.548.403.725.586.177.182.473.446.658.585.184.14.45.401.59.581.14.18.407.447.594.594.187.147.417.38.511.517.094.137.343.433.554.657.211.224.46.542.552.706.093.164.316.464.495.666.179.203.398.513.487.69.088.177.29.493.45.702.159.21.373.566.477.793.103.226.294.568.425.759.131.19.277.461.325.602.049.14.222.517.386.838.164.32.345.75.401.954.057.205.187.546.29.758.11.232.23.61.297.946.062.308.17.699.242.869.072.17.168.558.213.862.045.304.154.762.242 1.017.129.373.16.554.16.92 0 .326.034.558.12.822.107.325.12.459.106 1.142-.009.426.013.95.048 1.166a2.1 2.1 0 0 1-.007.809c-.039.229-.073.814-.077 1.3-.005.702-.025.936-.099 1.127-.052.134-.128.599-.172 1.046-.086.877-.138 1.117-.423 1.944a7.43 7.43 0 0 0-.248.885c-.09.52-.25.965-.645 1.811-.2.429-.443 1.02-.538 1.314-.22.68-.61 1.46-1.07 2.145a43.04 43.04 0 0 0-1.31 2.083c-1.062 1.773-2.923 3.634-5.716 5.712-.75.559-.934.666-1.1.642-.213-.03-.268-.256-.194-.798.052-.385.052-.593-.003-1.04a3.474 3.474 0 0 1 0-1.075 3.476 3.476 0 0 0-.002-1.08 3.493 3.493 0 0 1 .001-1.092c.058-.435.058-.632.001-1.092-.056-.456-.056-.643 0-1 .046-.302.054-.579.023-.877a9.076 9.076 0 0 1-.039-.866c.007-.454.01-1.438.009-2.132-.002-.608-.002-1.69 0-2.2v-2.185l-.001-1.046c-.002-.784-.002-1.302 0-2.145v-4.398c0-.369-.002-.858-.003-1.086-.001-.229.003-.657.01-.952.007-.295.011-.844.01-1.22v-1.1c0-.229-.007-.633-.017-.898-.019-.472-.014-.495.204-.966.228-.491.501-1.294.501-1.47 0-.173.267-.927.519-1.468.268-.577.276-.748.041-.855-.112-.05-.183-.04-.414.06-1.308.568-2.016.846-2.428.952-2.024.522-1.578.47-3.865.46a548.64 548.64 0 0 0-2.631-.006H28.29c-1.698 0-2.25 0-2.644.002a55.31 55.31 0 0 1-1.168-.014c-.667-.014-.773-.003-1.342.15-.34.09-.847.207-1.127.259-1.232.228-1.878.473-3.17 1.203-1.795 1.015-2.784 1.799-3.996 3.166-1.08 1.219-1.409 1.749-1.83 2.951-.108.31-.303.81-.433 1.11-.285.662-.365 1.009-.324 1.406.033.312.002.609-.148 1.431-.08.439-.08.54-.01 1.005.059.397.064.607.021.907-.033.237-.038.59-.012.9.024.28.034.714.024.965-.011.25-.018.691-.016.979.003.288.005.764.005 1.06v1.072a3371.912 3371.912 0 0 1 0 5.524c-.001.31-.002.805 0 1.1l-.001 1.073v1.059c.002.662.002 1.507 0 2.145 0 .273.008.73.018 1.015.017.46.007.536-.093.67-.22.297-.468.228-1.061-.297a4.899 4.899 0 0 0-.671-.495c-.167-.094-.497-.355-.733-.58a6.799 6.799 0 0 0-.666-.57 4.004 4.004 0 0 1-.563-.52c-.18-.2-.474-.48-.652-.623a3.497 3.497 0 0 1-.584-.644 3.513 3.513 0 0 0-.518-.6 2.86 2.86 0 0 1-.474-.557 6.655 6.655 0 0 0-.538-.705 4.472 4.472 0 0 1-.514-.726 4.94 4.94 0 0 0-.405-.633c-.223-.282-.35-.504-.53-.93a5.365 5.365 0 0 0-.375-.657 3.849 3.849 0 0 1-.382-.765 5.416 5.416 0 0 0-.376-.817c-.145-.254-.286-.586-.319-.75-.033-.163-.168-.513-.3-.778a4.408 4.408 0 0 1-.348-.98c-.06-.274-.192-.7-.294-.946a3.328 3.328 0 0 1-.239-.911 3.084 3.084 0 0 0-.166-.717c-.066-.147-.137-.47-.169-.764-.03-.28-.1-.765-.157-1.078a7.469 7.469 0 0 1-.102-1.136c0-.335-.035-.719-.086-.934-.068-.288-.077-.48-.044-.902.024-.295.046-.886.05-1.314.006-.65.03-.874.153-1.367.082-.33.168-.88.196-1.246.04-.525.092-.792.266-1.342.119-.377.24-.867.268-1.087.071-.562.229-1.036.628-1.89.19-.405.425-.985.524-1.289.244-.754.506-1.3.94-1.968.202-.31.53-.854.73-1.208.987-1.752 1.66-2.638 3.05-4.012.591-.584 1.303-1.248 1.582-1.475 1.551-1.262 3.143-2.401 4.126-2.953.7-.393 1.9-.934 2.492-1.124a38.49 38.49 0 0 0 2.32-.834c.688-.285 1.203-.42 1.758-.464a8.696 8.696 0 0 0 1.799-.31c.44-.126.583-.14 1.637-.152.635-.008 1.251-.037 1.37-.065.329-.077.621-.07 1.082.024ZM6.76 3.902c-1.177.42-1.683.931-1.905 1.93-.08.354-.08.426-.004.79.173.838.692 1.56 1.39 1.933.296.159.388.18.852.2.634.026 1.086-.092 1.587-.416.38-.245.59-.506.866-1.077.189-.39.194-.42.194-1.019 0-.6-.005-.628-.197-1.029a3.198 3.198 0 0 0-.417-.651c-.377-.409-1.248-.789-1.8-.786-.119 0-.374.057-.566.125Zm1.326.79c.29.14.504.395.754.898.343.688.258 1.198-.297 1.792a1.923 1.923 0 0 1-1.03.608c-.291.075-.391.078-.635.024-.245-.055-.349-.121-.684-.44-.417-.396-.668-.804-.668-1.086 0-.219.245-.946.393-1.166.241-.357 1.066-.734 1.616-.739.218-.002.392.033.55.11Zm-6.13 4.199c-.977.317-1.554.77-1.803 1.413-.179.462-.204 1.184-.058 1.664.212.697.717 1.302 1.344 1.61.28.137.348.147.974.147.652 0 .683-.005 1.032-.177.421-.207.874-.603 1.11-.969.235-.366.402-1.06.363-1.507-.093-1.06-.723-1.862-1.709-2.173-.522-.165-.767-.166-1.254-.008Zm1.204.872c.784.4.987.712.993 1.522.005.55-.097.862-.381 1.178-.35.39-.633.507-1.193.495-.857-.019-1.434-.306-1.638-.815-.15-.376-.248-1.074-.188-1.341.105-.468.467-.863 1.033-1.131.499-.236.767-.218 1.374.092Zm26.58 9.926c-.255.044-1.209.543-1.461.765-.503.443-.763 1.29-.641 2.086.087.572.305.988.728 1.394.472.453.91.656 1.497.692.825.051 1.467-.186 1.992-.735.546-.572.76-1.298.636-2.151-.146-.998-.82-1.708-1.874-1.977-.424-.107-.594-.122-.877-.074Zm1.008.884c.397.1.706.446.887.995.268.811.176 1.336-.316 1.814-.356.345-.72.517-1.164.55-.334.023-.394.01-.72-.155-.467-.237-.902-.652-.978-.934-.121-.445-.028-1.294.175-1.59.392-.577 1.33-.878 2.116-.68ZM20.683 31.957l-.15.129-.017 1.193c-.012.838.002 1.24.048 1.348.104.252.3.313 1.14.36.984.053 1.167.14 1.357.651.08.213.092.701.11 4.61.026 5.169-.01 5.918-.304 6.291-.167.212-.686.366-1.342.399-.618.03-.835.105-.915.316-.028.074-.051.65-.051 1.281 0 1.135.001 1.148.13 1.297l.13.15 4.024.015c2.573.01 4.076-.005 4.166-.039a.634.634 0 0 0 .25-.229c.102-.164.108-.247.094-1.284-.015-1.028-.024-1.12-.128-1.26-.183-.248-.358-.298-1.175-.34-.95-.048-1.156-.138-1.269-.558-.085-.317-.087-10.272-.002-10.578a.928.928 0 0 1 .51-.62c.182-.094.354-.121.93-.146 1.102-.05 1.138-.098 1.142-1.602.002-.732-.016-1.027-.073-1.163-.153-.366.038-.35-4.428-.35h-4.027l-.15.129Zm2.641.633c.606-.006 1.994-.009 2.63-.006.267.002.834-.005 1.263-.015.896-.02 1.107.04 1.258.357.122.259.168.791.084.993-.096.231-.222.282-.806.326-1.14.087-1.632.471-1.695 1.326-.014.197-.066.62-.116.938-.084.544-.083.61.005 1.13.087.507.088.582.01.95-.106.51-.104.831.006 1.345.083.384.083.444 0 .86-.111.56-.111.768.001 1.29.085.394.084.444-.009.952-.088.48-.091.59-.028 1.066.039.292.054.648.034.792-.109.787-.104.961.04 1.464.29 1.011.389 1.099 1.359 1.218 1 .122 1.094.191 1.198.89.068.46.018.66-.192.765-.075.038-1.21.055-3.383.053-3.025-.003-3.283-.01-3.448-.098-.219-.116-.332-.366-.332-.732 0-.632.228-.809 1.206-.937 1.06-.139 1.17-.253 1.452-1.503.126-.558.14-.701.103-1.073a9.192 9.192 0 0 1-.038-.858c.008-.56.01-1.539.005-2.145-.002-.266.005-.7.015-.966a7.698 7.698 0 0 0-.027-.924 3.576 3.576 0 0 1 .023-.929c.057-.401.057-.58-.001-1.023a3.623 3.623 0 0 1-.003-1.113c.064-.538.062-.605-.04-.976-.06-.22-.14-.567-.175-.774-.053-.3-.1-.408-.234-.543-.188-.188-.674-.36-1.293-.455-.602-.094-.62-.1-.752-.232-.258-.257-.32-1.028-.102-1.27.17-.188.29-.21.908-.174.325.02.808.033 1.074.03Z" fill="#0086FF"/><path d="M25.749 3.755c.267.055.745.09 1.307.097.724.01.949.032 1.234.122.192.061.53.128.752.148.667.061 1.317.185 1.581.302.137.06.531.158.877.217.379.065.774.171.998.27.204.09.603.22.887.29.332.081.717.23 1.08.416.31.16.682.318.826.353.299.073.6.216.938.448.129.088.45.252.715.365.264.113.642.324.84.469.197.145.532.353.744.463.211.11.526.327.698.482.172.156.494.397.715.536.222.14.548.403.725.586.177.182.473.446.658.585.184.14.45.401.59.581.14.18.407.447.594.594.187.147.417.38.511.517.094.137.343.433.554.657.211.224.46.542.552.706.093.164.316.464.495.666.179.203.398.513.487.69.088.177.29.493.45.702.159.21.373.566.477.793.103.226.294.568.425.759.131.19.277.461.325.602.049.14.222.517.386.838.164.32.345.75.401.954.057.205.187.546.29.758.11.232.23.61.297.946.062.308.17.699.242.869.072.17.168.558.213.862.045.304.154.762.242 1.017.129.373.16.554.16.92 0 .326.034.558.12.822.107.325.12.459.106 1.142-.009.426.013.95.048 1.166a2.1 2.1 0 0 1-.007.809c-.039.229-.073.814-.077 1.3-.005.702-.025.936-.099 1.127-.052.134-.128.599-.172 1.046-.086.877-.138 1.117-.423 1.944a7.43 7.43 0 0 0-.248.885c-.09.52-.25.965-.645 1.811-.2.429-.443 1.02-.538 1.314-.22.68-.61 1.46-1.07 2.145a43.04 43.04 0 0 0-1.31 2.083c-1.062 1.773-2.923 3.634-5.716 5.712-.75.559-.934.666-1.1.642-.213-.03-.268-.256-.194-.798.052-.385.052-.593-.003-1.04a3.474 3.474 0 0 1 0-1.075 3.476 3.476 0 0 0-.002-1.08 3.493 3.493 0 0 1 .001-1.092c.058-.435.058-.632.001-1.092-.056-.456-.056-.643 0-1 .046-.302.054-.579.023-.877a9.076 9.076 0 0 1-.039-.866c.007-.454.01-1.438.009-2.132-.002-.608-.002-1.69 0-2.2v-2.185l-.001-1.046c-.002-.784-.002-1.302 0-2.145v-4.398c0-.369-.002-.858-.003-1.086-.001-.229.003-.657.01-.952.007-.295.011-.844.01-1.22v-1.1c0-.229-.007-.633-.017-.898-.019-.472-.014-.495.204-.966.228-.491.501-1.294.501-1.47 0-.173.267-.927.519-1.468.268-.577.276-.748.041-.855-.112-.05-.183-.04-.414.06-1.308.568-2.016.846-2.428.952-2.024.522-1.578.47-3.865.46a548.64 548.64 0 0 0-2.631-.006H28.29c-1.698 0-2.25 0-2.644.002a55.31 55.31 0 0 1-1.168-.014c-.667-.014-.773-.003-1.342.15-.34.09-.847.207-1.127.259-1.232.228-1.878.473-3.17 1.203-1.795 1.015-2.784 1.799-3.996 3.166-1.08 1.219-1.409 1.749-1.83 2.951-.108.31-.303.81-.433 1.11-.285.662-.365 1.009-.324 1.406.033.312.002.609-.148 1.431-.08.439-.08.54-.01 1.005.059.397.064.607.021.907-.033.237-.038.59-.012.9.024.28.034.714.024.965-.011.25-.018.691-.016.979.003.288.005.764.005 1.06v1.072a3371.912 3371.912 0 0 1 0 5.524c-.001.31-.002.805 0 1.1l-.001 1.073v1.059c.002.662.002 1.507 0 2.145 0 .273.008.73.018 1.015.017.46.007.536-.093.67-.22.297-.468.228-1.061-.297a4.899 4.899 0 0 0-.671-.495c-.167-.094-.497-.355-.733-.58a6.799 6.799 0 0 0-.666-.57 4.004 4.004 0 0 1-.563-.52c-.18-.2-.474-.48-.652-.623a3.497 3.497 0 0 1-.584-.644 3.513 3.513 0 0 0-.518-.6 2.86 2.86 0 0 1-.474-.557 6.655 6.655 0 0 0-.538-.705 4.472 4.472 0 0 1-.514-.726 4.94 4.94 0 0 0-.405-.633c-.223-.282-.35-.504-.53-.93a5.365 5.365 0 0 0-.375-.657 3.849 3.849 0 0 1-.382-.765 5.416 5.416 0 0 0-.376-.817c-.145-.254-.286-.586-.319-.75-.033-.163-.168-.513-.3-.778a4.408 4.408 0 0 1-.348-.98c-.06-.274-.192-.7-.294-.946a3.328 3.328 0 0 1-.239-.911 3.084 3.084 0 0 0-.166-.717c-.066-.147-.137-.47-.169-.764-.03-.28-.1-.765-.157-1.078a7.469 7.469 0 0 1-.102-1.136c0-.335-.035-.719-.086-.934-.068-.288-.077-.48-.044-.902.024-.295.046-.886.05-1.314.006-.65.03-.874.153-1.367.082-.33.168-.88.196-1.246.04-.525.092-.792.266-1.342.119-.377.24-.867.268-1.087.071-.562.229-1.036.628-1.89.19-.405.425-.985.524-1.289.244-.754.506-1.3.94-1.968.202-.31.53-.854.73-1.208.987-1.752 1.66-2.638 3.05-4.012.591-.584 1.303-1.248 1.582-1.475 1.551-1.262 3.143-2.401 4.126-2.953.7-.393 1.9-.934 2.492-1.124a38.49 38.49 0 0 0 2.32-.834c.688-.285 1.203-.42 1.758-.464a8.696 8.696 0 0 0 1.799-.31c.44-.126.583-.14 1.637-.152.635-.008 1.251-.037 1.37-.065.329-.077.621-.07 1.082.024ZM3.16 9.763c.784.4.987.712.993 1.522.005.55-.097.862-.381 1.178-.35.39-.633.507-1.193.495-.857-.019-1.434-.306-1.638-.815-.15-.376-.248-1.074-.188-1.341.105-.468.467-.863 1.033-1.131.499-.236.767-.218 1.374.092Zm4.926-5.07c.29.14.504.394.754.897.343.688.258 1.198-.297 1.792a1.923 1.923 0 0 1-1.03.608c-.291.075-.391.078-.635.024-.245-.055-.349-.121-.684-.44-.417-.396-.668-.804-.668-1.086 0-.219.245-.946.393-1.166.241-.357 1.066-.734 1.616-.739.218-.002.392.033.55.11Zm5.849-3.681c.796.392.965.678.92 1.558-.039.76-.304 1.201-.887 1.475-.697.327-1.781.112-2.136-.424-.2-.303-.4-.949-.4-1.29.003-.66.536-1.288 1.303-1.537.336-.11.652-.052 1.2.218Z" fill="#0086FF"/><path d="M30.748 20.573c.397.1.706.446.887.995.268.811.176 1.336-.316 1.814-.356.345-.72.517-1.164.55-.334.023-.394.01-.72-.155-.467-.237-.902-.652-.978-.934-.121-.445-.028-1.294.175-1.59.392-.577 1.33-.878 2.116-.68ZM23.324 32.59c.606-.006 1.994-.009 2.63-.006.267.002.834-.005 1.263-.015.896-.02 1.107.04 1.258.357.122.259.168.791.084.993-.096.231-.222.282-.806.326-1.14.087-1.632.471-1.695 1.326-.014.197-.066.62-.116.938-.084.544-.083.61.005 1.13.087.507.088.582.01.95-.106.51-.104.831.006 1.345.083.384.083.444 0 .86-.111.56-.111.768.001 1.29.085.394.084.444-.009.952-.088.48-.091.59-.028 1.066.039.292.054.648.034.792-.109.787-.104.961.04 1.464.29 1.011.389 1.099 1.359 1.218 1 .122 1.094.191 1.198.89.068.46.018.66-.192.765-.075.038-1.21.055-3.383.053-3.025-.003-3.283-.01-3.448-.098-.219-.116-.332-.366-.332-.732 0-.632.228-.809 1.206-.937 1.06-.139 1.17-.253 1.452-1.503.126-.558.14-.701.103-1.073a9.192 9.192 0 0 1-.038-.858c.008-.56.01-1.539.005-2.145-.002-.266.005-.7.015-.966a7.698 7.698 0 0 0-.027-.924 3.576 3.576 0 0 1 .023-.929c.057-.401.057-.58-.001-1.023a3.623 3.623 0 0 1-.003-1.113c.064-.538.062-.605-.04-.976-.06-.22-.14-.567-.175-.774-.053-.3-.1-.408-.234-.543-.188-.188-.674-.36-1.293-.455-.602-.094-.62-.1-.752-.232-.258-.257-.32-1.028-.102-1.27.17-.188.29-.21.908-.174.325.02.808.033 1.074.03Z" fill="#0086FF"/></svg>