<svg width="50" height="50" fill="none" xmlns="http://www.w3.org/2000/svg"><path fill-rule="evenodd" clip-rule="evenodd" d="M43.456.127c-.187.084-.444.25-.57.368a2.513 2.513 0 0 0-.417.577c-.172.336-.186.616-.188 3.859-.002 3.328-.01 3.487-.17 3.288-.094-.114-.373-.36-.623-.548-.264-.197-.722-.412-1.096-.514a3.367 3.367 0 0 0-1.242-.12c-.386.036-.82.164-1.218.36-.369.181-.777.483-1.007.744a4.802 4.802 0 0 0-.607.9c-.158.33-.233.697-.263 1.292-.035.692-.005.928.179 1.416.162.432.378.745.82 1.186.423.425.746.652 1.107.78.28.1.508.213.508.252 0 .04-.153.225-.34.412-.205.205-.468.36-.66.387-.175.025-.601.092-.947.149-.346.056-.86.216-1.143.354-.364.178-.83.582-1.593 1.382-.97 1.016-1.097 1.117-1.25.998-.095-.073-.7-.6-1.344-1.17-.644-.571-1.343-1.155-1.552-1.296-.304-.207-.494-.258-.957-.258-.317 0-.7.063-.851.141-.15.078-.407.294-.57.48-.163.185-.312.384-.332.44-.02.058-.995.656-2.168 1.33-1.174.673-2.163 1.224-2.2 1.224-.036 0-.571-.51-1.188-1.135-.617-.624-1.377-1.303-1.69-1.508a5.87 5.87 0 0 0-1.171-.57 7.769 7.769 0 0 0-1.069-.262c-.377-.053-.464-.101-.464-.26 0-.108.132-.346.293-.53.16-.183.38-.507.489-.72.108-.212.23-.639.272-.949.04-.31.045-.792.01-1.071a3.655 3.655 0 0 0-.276-.944 4.8 4.8 0 0 0-.602-.881c-.236-.268-.64-.567-1.016-.752a3.36 3.36 0 0 0-1.255-.358c-.476-.039-.798 0-1.32.159-.555.168-.803.314-1.265.742-.395.366-.664.724-.858 1.146-.244.529-.283.729-.28 1.444.004.644.054.94.222 1.312.12.264.374.671.565.905.192.233.52.523.73.643.21.12.383.248.383.285 0 .037-.186.09-.414.117-.229.027-.779.095-1.223.15-.475.06-1.022.203-1.33.35a4.867 4.867 0 0 0-.951.625c-.29.257-.947 1.214-2.04 2.97l-1.611 2.59-2.344 1.002c-1.29.55-2.493 1.11-2.674 1.244-.18.134-.416.441-.524.684-.142.322-.183.58-.15.964.032.394.114.612.333.883.16.197.406.445.547.55.14.105.474.212.74.237.42.04.84-.07 3.06-.808 1.416-.47 2.744-.94 2.95-1.045a4.19 4.19 0 0 0 .782-.564c.223-.207.933-1.126 1.578-2.041.644-.916 1.197-1.667 1.228-1.67.031-.001.121.368.2.823l.144.825-1.156 1.69c-.636.93-1.327 2.042-1.536 2.472a9.59 9.59 0 0 0-.539 1.368c-.087.322-.181 1.026-.21 1.563-.046.862.07 1.906.982 8.854.862 6.571 1.033 8.089 1.033 9.163 0 1.238.01 1.298.24 1.528l.24.24h2.641c2.512 0 2.652-.01 2.838-.195.124-.125.195-.326.195-.553 0-.327-.104-.463-1.173-1.545l-1.173-1.187.025-6.323.025-6.324c0 .1 2.05 5.285 3.54 8.04l2.71 5.01.05 1.352c.047 1.273.063 1.363.28 1.538.214.174.417.187 2.846.187 2.41 0 2.634-.014 2.842-.183.161-.13.226-.285.226-.54 0-.328-.105-.464-1.234-1.601l-1.233-1.242-3.682-8.842a1722.22 1722.22 0 0 1-3.775-9.104c-.082-.23-.03-.356.411-1.01.277-.412.715-1.173.974-1.692.258-.52.587-1.274.73-1.677.144-.403.345-1.079.446-1.502.101-.423.199-.784.216-.801.018-.018.361.231.762.554.4.323.949.705 1.217.849.42.225.607.262 1.319.263.665.002.918-.042 1.27-.217.242-.12 1.45-1.008 2.686-1.973l2.247-1.755 1.355 1.416c.773.807 1.53 1.506 1.759 1.624.278.143.582.207.988.207s.706-.063.977-.205c.215-.112.736-.493 1.158-.847.421-.353.798-.642.836-.642.038 0 .127.228.199.507.071.278 1.058 3.124 1.182 3.248.013.013.02.003.02-.025.008-.272-.486-2.264-.323-2.264a.783.783 0 0 0 .493-.196c.104-.103.617 1.395.66 1.421 0 0 .004 0 .004-.003.006-.094-.453-2.021-.462-2.102-.01-.08-.215-.784-.456-1.563-.32-1.03-.507-1.477-.685-1.637-.134-.12-.353-.22-.487-.22s-.355.112-.491.249c-.196.195-.241.325-.215.618.03.352-.002.4-.652.95-.376.32-.76.64-.854.713-.16.124-.171.076-.17-.734v-.867l1.027-1.124c.566-.618 1.2-1.225 1.41-1.35.237-.14.713-.275 1.253-.356.479-.072 1.042-.219 1.252-.326.21-.107.602-.43.872-.718a74.111 74.111 0 0 0 1.744-2.012l1.254-1.49.355.282c.195.155.438.374.54.486.183.203.178.211-.689 1.208l-1.639 1.883c-.421.483-.846 1.055-.945 1.27-.156.34-.18.663-.182 2.503l-.002 2.113-1.781 2.227-.83 1.04-.515.642c-2.79 3.49-3.125 3.945-3.125 4.257 0 .264.06.392.25.525.138.097.377.277.533.4.21.168.345.431.53 1.034.135.445.355.97.488 1.166l.242.357-3.807 7.995c-3.633 7.632-3.801 8.01-3.697 8.309.06.172.19.356.288.408.098.053.654.096 1.235.095.902 0 1.128-.034 1.549-.23.27-.126.604-.362.74-.525.137-.162 2.002-3.484 4.146-7.382 3.36-6.11 3.92-7.074 4.063-6.997.092.049.343.089.557.089.215 0 .504-.043.642-.095.138-.053.25-.085.25-.072 0 .013.616 3.1 1.368 6.86.752 3.76 1.413 6.973 1.467 7.138.055.166.241.438.415.606.174.169.479.374.679.458.2.083.52.151.711.151.191 0 .511-.068.71-.151.2-.083.466-.248.593-.367.126-.118.314-.378.416-.577.102-.2.186-.53.187-.733 0-.204-.442-3.46-.982-7.234l-.982-6.864.234-.317c.129-.175.375-.568.546-.874.172-.306.387-.577.479-.603.092-.025.474-.074.85-.108.376-.035.827-.108 1.001-.162.175-.055.383-.194.464-.31a.893.893 0 0 0 .147-.43c0-.122-.53-1.414-1.177-2.872-.647-1.459-1.332-2.895-1.522-3.192a8.775 8.775 0 0 0-.844-1.067 7.844 7.844 0 0 0-1.14-.952c-.352-.233-1.256-.687-2.008-1.01-.752-.321-1.488-.641-1.636-.71l-.269-.125v-3.774l2.174-2.495c1.523-1.75 2.274-2.692 2.512-3.154.31-.6.342-.743.37-1.635.018-.537-.05-2.76-.151-4.94-.176-3.803-.192-3.98-.412-4.371a2.41 2.41 0 0 0-.61-.672c-.282-.195-.528-.273-.936-.296-.355-.02-.676.023-.895.122Zm1.126 1.644c.027.115.133 2.11.236 4.435.12 2.725.154 4.339.096 4.543-.05.174-.14.44-.203.592l-.112.275-.518-.511c-.417-.412-.5-.545-.425-.684.054-.101.093-1.934.093-4.424 0-4.185.003-4.253.201-4.392.111-.078.287-.12.392-.092a.378.378 0 0 1 .24.258Zm-5.5 7.686a8.61 8.61 0 0 1 1.146 1.328l.494.739-.303.383c-.167.21-.384.426-.483.48a1.014 1.014 0 0 1-.406.095c-.124 0-.392-.047-.595-.103a2.206 2.206 0 0 1-.713-.405c-.19-.166-.407-.423-.483-.57a2.602 2.602 0 0 1-.2-.65 2.19 2.19 0 0 1 .044-.767 2.42 2.42 0 0 1 .407-.753c.167-.202.333-.367.37-.367.038 0 .362.266.721.59Zm-22.434 1.902c.122.318.151.583.108.952-.039.328-.158.65-.331.895a2.17 2.17 0 0 1-.643.575 2.745 2.745 0 0 1-.794.24 2.204 2.204 0 0 1-.784-.072 2.44 2.44 0 0 1-.695-.412c-.184-.162-.334-.357-.334-.436 0-.078.231-.386.513-.685.282-.299.695-.669.918-.822.222-.154.618-.366.879-.472.26-.106.591-.195.735-.198.22-.004.286.062.428.435Zm-1.03 5.293v1.14l-.254-.237a2.27 2.27 0 0 1-.391-.5c-.075-.145-.137-.526-.137-.847 0-.375.043-.6.122-.632.067-.027.243-.053.39-.057l.27-.008v1.14Zm3.012.279c.41.187.902.605 2.062 1.75.92.91 1.629 1.531 1.79 1.572.218.055.482-.052 1.407-.569l1.14-.636.364.454c.262.326.337.488.266.575-.055.066-.63.521-1.277 1.011l-1.179.892-.601-.038-.602-.039-1.437-1.143c-.791-.63-1.554-1.173-1.696-1.209a.732.732 0 0 0-.507.076.743.743 0 0 0-.316.381c-.036.133-.14.724-.23 1.314a14.33 14.33 0 0 1-.459 1.954 17.521 17.521 0 0 1-.782 1.859c-.268.537-.67 1.24-.896 1.563l-.409.586-2.316.026c-1.274.015-2.316.004-2.316-.024s.542-.853 1.205-1.834c.663-.98 1.233-1.859 1.266-1.951.033-.093-.107-1.1-.311-2.24-.343-1.907-.393-2.088-.637-2.298-.145-.125-.353-.228-.46-.228a.94.94 0 0 0-.374.095c-.097.052-.936 1.162-1.864 2.467-.927 1.305-1.801 2.497-1.94 2.65-.14.152-.385.345-.545.428-.159.083-.661.277-1.117.431-.455.154-.877.28-.936.28-.06 0-.202-.19-.315-.424l-.206-.424 1.11-.466c.61-.257 1.172-.54 1.249-.627.076-.088.875-1.34 1.774-2.781 1.224-1.962 1.732-2.691 2.017-2.898.209-.151.588-.323.842-.381a7.894 7.894 0 0 1 1.179-.131l.716-.026.15.44c.083.241.283.624.446.85.162.227.454.522.647.656.194.134.51.309.703.389.192.08.575.175.85.211.468.063.52.048.797-.23l.298-.298v-2.387l.456.063c.251.034.698.173.994.309Zm12.494 1.344 1.098.969-.004.796-.005.796-1.174-1.236-1.175-1.236-.024-.591c-.016-.398.01-.57.08-.528.058.034.6.498 1.204 1.03Zm-2.827-.497c.026.223-.064.338-.57.733-.331.258-.636.481-.679.497-.042.016-.215-.146-.385-.36l-.307-.388.662-.396c.447-.267.758-.389.956-.373.238.019.298.072.323.287Zm14.161 5.687c.804.344 1.648.744 1.876.887.227.144.605.438.839.654.234.216.576.62.761.899.185.278.756 1.45 1.269 2.604l.932 2.097-.57.106c-.314.06-.718.193-.9.297-.18.105-.46.392-.621.637-.161.245-.413.65-.56.9l-.266.455-.515-.208a12.46 12.46 0 0 0-1.064-.361c-.453-.127-.619-.134-.943-.037-.216.065-.672.308-1.013.54-.341.231-.674.452-.739.49-.072.043-.37-.196-.78-.627-.366-.384-.787-.761-.937-.839-.15-.078-.459-.148-.684-.157a9.384 9.384 0 0 0-1.116.066c-.685.08-.707.075-.8-.15a18.16 18.16 0 0 1-.304-.916c-.115-.377-.32-.829-.453-1.005-.134-.176-.229-.355-.211-.397.017-.042 1.194-1.535 2.616-3.319 1.422-1.783 2.616-3.242 2.653-3.242.038 0 .726.282 1.53.626ZM3.21 25.277l.197.387-.78.246c-.428.135-.842.222-.92.192a.386.386 0 0 1-.194-.193.481.481 0 0 1 .007-.297c.034-.087.329-.281.657-.432.327-.151.65-.278.716-.282.066-.004.208.166.317.38Zm35.471 8.201c.216.175.22.202.084.481-.08.163-1.485 2.738-3.124 5.723l-2.979 5.427-.415.003c-.228.002-.415-.03-.415-.072 0-.041 1.212-2.624 2.693-5.74 1.482-3.116 2.734-5.706 2.782-5.756.049-.05.276-.121.506-.159.23-.037.467-.073.528-.08.061-.007.214.071.34.173Zm5.336.71c.444.172.806.355.806.406 0 .051.33 2.376.733 5.167.403 2.79.732 5.158.732 5.262 0 .162-.07.19-.488.19-.269 0-.489-.013-.489-.027 0-.015-.505-2.553-1.123-5.64a1603.4 1603.4 0 0 1-1.123-5.64c0-.015.033-.027.073-.028.04 0 .436.14.88.31ZM31.426 47.387c-.218.39-.469.783-.557.874a1.05 1.05 0 0 1-.43.23c-.168.041-.268.026-.268-.041 0-.059.186-.481.413-.939l.412-.832h.826l-.396.709Zm15.243.04c.098.661.092.768-.052.928-.09.1-.22.18-.288.18-.069 0-.187-.062-.264-.139-.077-.077-.192-.417-.257-.757-.064-.34-.14-.695-.167-.789-.043-.146.02-.17.433-.17h.483l.112.747Z" fill="#0086FF"/><path d="M46.669 47.426c.098.661.092.768-.052.928-.09.1-.22.18-.288.18-.069 0-.187-.062-.264-.139-.077-.077-.192-.417-.257-.757-.064-.34-.14-.695-.167-.789-.043-.146.02-.17.433-.17h.483l.112.747Zm-15.243-.04c-.218.39-.469.783-.557.874a1.05 1.05 0 0 1-.43.23c-.168.041-.268.026-.268-.041 0-.059.186-.481.413-.939l.412-.832h.826l-.396.709Zm5.578-24.84c-.163 0 .331 1.992.323 2.264l.83-1.039c-.043-.026-.556-1.524-.66-1.42a.783.783 0 0 1-.493.195Z" fill="#0086FF"/><path d="M37.7 21.666c.008.08.467 2.008.46 2.102l1.78-2.224.001-2.113c.002-1.84.026-2.163.182-2.503.099-.215.524-.787.945-1.27l1.64-1.883c.866-.997.87-1.005.688-1.208a5.55 5.55 0 0 0-.54-.486l-.355-.282-1.254 1.49a73.266 73.266 0 0 1-1.744 2.012c-.27.288-.662.611-.872.718-.21.107-.773.254-1.252.326-.54.08-1.016.216-1.253.357-.21.124-.844.731-1.41 1.35l-1.027 1.123v.867c-.001.81.01.858.17.734.094-.072.478-.393.854-.712.65-.552.682-.6.652-.951-.026-.293.02-.423.215-.618.136-.137.357-.248.491-.248s.353.099.487.22c.178.16.365.606.685 1.636.241.78.447 1.483.456 1.563Z" fill="#0086FF"/></svg>