<svg width="50" height="50" fill="none" xmlns="http://www.w3.org/2000/svg"><path fill-rule="evenodd" clip-rule="evenodd" d="M11.816 35.352v-5.86h26.368v5.86h5.859v5.859H50V50H0v-8.789h5.957v-5.86h5.86ZM19.19 45.41l-.025-6.495-.025-6.494h-4.394v5.86h-5.86v5.859H2.93v2.93h44.14v-2.929h-5.957v-5.86h-5.86v-5.86h-4.392l-.025 6.495-.025 6.495-2.856-1.905c-1.57-1.047-2.9-1.904-2.955-1.904-.055 0-1.384.857-2.955 1.904L19.19 45.41Zm8.691-5.567c.027 0 .05-1.67.05-3.711v-3.711h-5.86v3.71c0 2.042.023 3.712.05 3.712.027 0 .686-.425 1.465-.943L25 37.958l1.415.943c.779.518 1.438.943 1.465.943Z" fill="#0086FF"/><path fill-rule="evenodd" clip-rule="evenodd" d="M17.676 1.465V2.93h-5.868l.029 4.174c.028 4.127.03 4.182.258 4.746.127.314.415.797.64 1.074.226.277.628.669.894.87a5.16 5.16 0 0 0 1.02.58c.416.163.83.224 1.838.267l1.302.056.178.507c.098.278.302.74.454 1.025.152.286.607.854 1.01 1.263.678.686.866.81 2.42 1.588l1.684.843v3.515h-5.86v2.929h14.65v-2.93h-5.86v-3.401l1.533-.795c.843-.437 1.742-.949 2-1.137.256-.189.648-.549.87-.8.223-.252.531-.678.686-.947.155-.268.373-.762.485-1.098l.205-.61h1.097c.713 0 1.283-.055 1.628-.155.291-.085.725-.268.963-.406a5.85 5.85 0 0 0 .85-.634c.228-.21.554-.6.724-.864.17-.264.392-.748.493-1.075.17-.543.186-.943.186-4.59V2.93h-5.86V0H17.676v1.465Zm11.67 12.646.027-5.59.028-5.591h-8.803l.028 5.59.028 5.591.267.507c.147.279.426.66.62.849.212.205.998.657 1.962 1.128l1.61.786 1.473-.746c.81-.41 1.64-.897 1.845-1.082.204-.185.494-.585.643-.889l.272-.553Zm-11.67-2.374V5.859h-2.94l.03 2.435c.027 2.282.041 2.451.23 2.704.111.148.323.36.471.47.22.165.446.208 1.24.236l.969.033Zm17.328-.74c.189-.252.203-.421.23-2.703l.03-2.435h-2.94v5.878l.97-.034c.793-.027 1.019-.07 1.239-.234a2.8 2.8 0 0 0 .47-.471Z" fill="#0069B7"/><path d="M27.93 36.133c0 2.04-.023 3.71-.05 3.71-.027 0-.686-.424-1.465-.942L25 37.958l-1.415.943c-.779.518-1.438.943-1.465.943-.027 0-.05-1.67-.05-3.711v-3.711h5.86v3.71Z" fill="#0086FF"/></svg>