<svg width="24" height="24" fill="none" xmlns="http://www.w3.org/2000/svg"><path d="M20.121 14.483c-.51-.602-1.27-1.265-1.5-1.58-.321-.429-.231-.602 0-.98-.02 0 2.65-3.802 2.92-5.077.151-.469 0-.815-.66-.815h-2.18c-.551 0-.801.295-.951.622 0 0-1.121 2.732-2.692 4.506-.51.51-.74.683-1.02.683-.15 0-.34-.173-.34-.642V6.816c0-.55-.171-.816-.641-.816H9.635c-.34 0-.55.255-.55.51 0 .53.78.662.87 2.151v3.242c0 .704-.13.836-.4.836-.74 0-2.542-2.753-3.623-5.893-.22-.601-.44-.836-.99-.836H2.74c-.63 0-.74.296-.74.612 0 .581.74 3.477 3.452 7.32 1.801 2.62 4.363 4.038 6.674 4.038 1.401 0 1.571-.316 1.571-.857v-1.988c0-.642.13-.744.57-.744.32 0 .891.173 2.182 1.427C17.929 17.317 18.189 18 19.01 18h2.182c.64 0 .93-.316.76-.938-.18-.622-.9-1.52-1.831-2.58Z" fill="#fff"/></svg>